  0
SECTION
  2
HEADER
  9
$ACADVER
  1
AC1009
  9
$DWGCODEPAGE
  3
ansi_1252
  9
$INSBASE
 10
0.0
 20
0.0
 30
0.0
  9
$EXTMIN
 10
-1660.999999996987
 20
1535.999999996985
 30
0.0
  9
$EXTMAX
 10
-1496.761670297044
 20
1586.0
 30
1.74153920361745
  9
$LIMMIN
 10
0.0
 20
0.0
  9
$LIMMAX
 10
12.0
 20
9.0
  9
$ORTHOMODE
 70
     0
  9
$REGENMODE
 70
     1
  9
$FILLMODE
 70
     1
  9
$QTEXTMODE
 70
     0
  9
$MIRRTEXT
 70
     1
  9
$DRAGMODE
 70
     2
  9
$LTSCALE
 40
1.0
  9
$OSMODE
 70
    37
  9
$ATTMODE
 70
     1
  9
$TEXTSIZE
 40
0.2
  9
$TRACEWID
 40
0.05
  9
$TEXTSTYLE
  7
STANDARD
  9
$CLAYER
  8
CONNECTIONS
  9
$CELTYPE
  6
BYLAYER
  9
$CECOLOR
 62
   256
  9
$DIMSCALE
 40
1.0
  9
$DIMASZ
 40
0.18
  9
$DIMEXO
 40
0.0625
  9
$DIMDLI
 40
0.38
  9
$DIMRND
 40
0.0
  9
$DIMDLE
 40
0.0
  9
$DIMEXE
 40
0.18
  9
$DIMTP
 40
0.0
  9
$DIMTM
 40
0.0
  9
$DIMTXT
 40
0.18
  9
$DIMCEN
 40
0.09
  9
$DIMTSZ
 40
0.0
  9
$DIMTOL
 70
     0
  9
$DIMLIM
 70
     0
  9
$DIMTIH
 70
     1
  9
$DIMTOH
 70
     1
  9
$DIMSE1
 70
     0
  9
$DIMSE2
 70
     0
  9
$DIMTAD
 70
     0
  9
$DIMZIN
 70
     0
  9
$DIMBLK
  1

  9
$DIMASO
 70
     1
  9
$DIMSHO
 70
     1
  9
$DIMPOST
  1

  9
$DIMAPOST
  1

  9
$DIMALT
 70
     0
  9
$DIMALTD
 70
     2
  9
$DIMALTF
 40
25.4
  9
$DIMLFAC
 40
1.0
  9
$DIMTOFL
 70
     0
  9
$DIMTVP
 40
0.0
  9
$DIMTIX
 70
     0
  9
$DIMSOXD
 70
     0
  9
$DIMSAH
 70
     0
  9
$DIMBLK1
  1

  9
$DIMBLK2
  1

  9
$DIMSTYLE
  2
STANDARD_ACAD
  9
$DIMCLRD
 70
     0
  9
$DIMCLRE
 70
     0
  9
$DIMCLRT
 70
     0
  9
$DIMTFAC
 40
1.0
  9
$DIMGAP
 40
0.09
  9
$LUNITS
 70
     2
  9
$LUPREC
 70
     3
  9
$SKETCHINC
 40
0.1
  9
$FILLETRAD
 40
0.0
  9
$AUNITS
 70
     0
  9
$AUPREC
 70
     0
  9
$MENU
  1
.
  9
$ELEVATION
 40
0.0
  9
$PELEVATION
 40
0.0
  9
$THICKNESS
 40
0.0
  9
$LIMCHECK
 70
     0
  9
$CHAMFERA
 40
0.0
  9
$CHAMFERB
 40
0.0
  9
$SKPOLY
 70
     0
  9
$TDCREATE
 40
2461200.713627685
  9
$TDUPDATE
 40
2461200.713640706
  9
$TDINDWG
 40
0.0000000116
  9
$TDUSRTIMER
 40
0.0000000116
  9
$USRTIMER
 70
     1
  9
$ANGBASE
 50
0.0
  9
$ANGDIR
 70
     0
  9
$PDMODE
 70
     0
  9
$PDSIZE
 40
0.0
  9
$PLINEWID
 40
0.0
  9
$COORDS
 70
     1
  9
$SPLFRAME
 70
     0
  9
$SPLINETYPE
 70
     6
  9
$SPLINESEGS
 70
     8
  9
$ATTDIA
 70
     0
  9
$ATTREQ
 70
     1
  9
$HANDLING
 70
     1
  9
$HANDSEED
  5
249
  9
$SURFTAB1
 70
     6
  9
$SURFTAB2
 70
     6
  9
$SURFTYPE
 70
     6
  9
$SURFU
 70
     6
  9
$SURFV
 70
     6
  9
$UCSNAME
  2

  9
$UCSORG
 10
0.0
 20
0.0
 30
0.0
  9
$UCSXDIR
 10
1.0
 20
0.0
 30
0.0
  9
$UCSYDIR
 10
0.0
 20
1.0
 30
0.0
  9
$PUCSNAME
  2

  9
$PUCSORG
 10
0.0
 20
0.0
 30
0.0
  9
$PUCSXDIR
 10
1.0
 20
0.0
 30
0.0
  9
$PUCSYDIR
 10
0.0
 20
1.0
 30
0.0
  9
$USERI1
 70
     0
  9
$USERI2
 70
     0
  9
$USERI3
 70
     0
  9
$USERI4
 70
     0
  9
$USERI5
 70
     0
  9
$USERR1
 40
0.0
  9
$USERR2
 40
0.0
  9
$USERR3
 40
0.0
  9
$USERR4
 40
0.0
  9
$USERR5
 40
0.0
  9
$WORLDVIEW
 70
     1
  9
$SHADEDGE
 70
     3
  9
$SHADEDIF
 70
    70
  9
$TILEMODE
 70
     1
  9
$MAXACTVP
 70
    64
  9
$PLIMCHECK
 70
     0
  9
$PEXTMIN
 10
1.000000000000000E+20
 20
1.000000000000000E+20
 30
1.000000000000000E+20
  9
$PEXTMAX
 10
-1.000000000000000E+20
 20
-1.000000000000000E+20
 30
-1.000000000000000E+20
  9
$PLIMMIN
 10
0.0
 20
0.0
  9
$PLIMMAX
 10
12.0
 20
9.0
  9
$UNITMODE
 70
     0
  9
$VISRETAIN
 70
     1
  9
$PLINEGEN
 70
     0
  9
$PSLTSCALE
 70
     1
  0
ENDSEC
  0
SECTION
  2
TABLES
  0
TABLE
  2
VPORT
 70
     1
  0
VPORT
  2
*ACTIVE
 70
     0
 10
0.0
 20
0.0
 11
1.0
 21
1.0
 12
10.42990654205607
 22
4.5
 13
0.0
 23
0.0
 14
0.5
 24
0.5
 15
0.5
 25
0.5
 16
0.0
 26
0.0
 36
1.0
 17
0.0
 27
0.0
 37
0.0
 40
9.0
 41
1.972972972850329
 42
50.0
 43
0.0
 44
0.0
 50
0.0
 51
0.0
 71
     0
 72
   100
 73
     1
 74
     3
 75
     0
 76
     0
 77
     0
 78
     0
  0
ENDTAB
  0
TABLE
  2
LTYPE
 70
     1
  0
LTYPE
  2
CONTINUOUS
 70
     0
  3
Solid line
 72
    65
 73
     0
 40
0.0
  0
ENDTAB
  0
TABLE
  2
LAYER
 70
     5
  0
LAYER
  2
0
 70
     0
 62
     7
  6
CONTINUOUS
  0
LAYER
  2
IMG
 70
     0
 62
     7
  6
CONTINUOUS
  0
LAYER
  2
DEFAULT
 70
     0
 62
     7
  6
CONTINUOUS
  0
LAYER
  2
MASK
 70
     0
 62
     7
  6
CONTINUOUS
  0
LAYER
  2
CONNECTIONS
 70
     0
 62
     5
  6
CONTINUOUS
  0
ENDTAB
  0
TABLE
  2
STYLE
 70
     2
  0
STYLE
  2
STANDARD
 70
     0
 40
0.0
 41
1.0
 50
0.0
 71
     0
 42
0.2
  3
txt
  4

  0
STYLE
  2
MILLIMETER_SMALL
 70
     0
 40
0.0
 41
1.0
 50
0.0
 71
     0
 42
0.2
  3

  4

  0
ENDTAB
  0
TABLE
  2
VIEW
 70
     0
  0
ENDTAB
  0
TABLE
  2
UCS
 70
     0
  0
ENDTAB
  0
TABLE
  2
APPID
 70
     3
  0
APPID
  2
ACAD
 70
     0
  0
APPID
  2
RHINO
 70
     0
  0
APPID
  2
ACADANNOTATIVE
 70
     0
  0
ENDTAB
  0
TABLE
  2
DIMSTYLE
 70
     1
  0
DIMSTYLE
  2
STANDARD_ACAD
 70
     0
  3

  4

  5

  6

  7

 40
1.0
 41
0.18
 42
0.0625
 43
0.38
 44
0.18
 45
0.0
 46
0.0
 47
0.0
 48
0.0
140
0.18
141
0.09
142
0.0
143
25.4
144
1.0
145
0.0
146
1.0
147
0.09
 71
     0
 72
     0
 73
     1
 74
     1
 75
     0
 76
     0
 77
     0
 78
     0
170
     0
171
     2
172
     0
173
     0
174
     0
175
     0
176
     0
177
     0
178
     0
  0
ENDTAB
  0
ENDSEC
  0
SECTION
  2
BLOCKS
  0
BLOCK
  8
0
  2
$MODEL_SPACE
 70
     0
 10
0.0
 20
0.0
 30
0.0
  3
$MODEL_SPACE
  1

  0
ENDBLK
  5
21
  8
0
  0
BLOCK
 67
     1
  8
0
  2
$PAPER_SPACE
 70
     0
 10
0.0
 20
0.0
 30
0.0
  3
$PAPER_SPACE
  1

  0
ENDBLK
  5
1D
 67
     1
  8
0
  0
ENDSEC
  0
SECTION
  2
ENTITIES
  0
CIRCLE
  5
60
  8
IMG
 10
-1509.059898745092
 20
1544.291424750104
 30
1.74153920361745
 40
1.8
  0
CIRCLE
  5
61
  8
IMG
 10
-1509.059898745092
 20
1577.708575249895
 30
1.74153920361745
 40
1.8
  0
POLYLINE
  5
62
  8
IMG
 66
     1
 10
0.0
 20
0.0
 30
0.0000000000000018
 70
     1
  0
VERTEX
  5
63
  8
IMG
 10
-1540.386531891551
 20
1577.063762123525
 30
0.0000000000000018
 42
0.9950589468383202
  0
VERTEX
  5
64
  8
IMG
 10
-1535.063762128261
 20
1582.386531890272
 30
0.0000000000000018
 42
-0.666388934123262
  0
VERTEX
  5
65
  8
IMG
 10
-1534.708461833189
 20
1583.238329701903
 30
0.0000000000000018
  0
VERTEX
  5
66
  8
IMG
 10
-1537.738329702952
 20
1583.238329701444
 30
0.0000000000000018
 42
0.4142136084659513
  0
VERTEX
  5
67
  8
IMG
 10
-1541.238329702951
 20
1579.738329147003
 30
0.0000000000000018
  0
VERTEX
  5
68
  8
IMG
 10
-1541.238329702952
 20
1576.708461828149
 30
0.0000000000000018
 42
-0.6663889339433591
  0
SEQEND
  5
69
  8
IMG
  0
POLYLINE
  5
6A
  8
IMG
 66
     1
 10
0.0
 20
0.0
 30
0.0000000000000101
 70
     1
  0
VERTEX
  5
6B
  8
IMG
 10
-1502.936237876472
 20
1582.386531891553
 30
0.0000000000000101
 42
0.9950589468383622
  0
VERTEX
  5
6C
  8
IMG
 10
-1497.613468109726
 20
1577.063762128263
 30
0.0000000000000101
 42
-0.6663889341241713
  0
VERTEX
  5
6D
  8
IMG
 10
-1496.761670298094
 20
1576.708461833191
 30
0.0000000000000101
  0
VERTEX
  5
6E
  8
IMG
 10
-1496.761670298553
 20
1579.738360342703
 30
0.0000000000000101
 42
0.4142108993757384
  0
VERTEX
  5
6F
  8
IMG
 10
-1500.261670015467
 20
1583.238329702953
 30
0.0000000000000101
  0
VERTEX
  5
70
  8
IMG
 10
-1503.291538171848
 20
1583.238329702953
 30
0.0000000000000101
 42
-0.6663889339434347
  0
SEQEND
  5
71
  8
IMG
  0
POLYLINE
  5
72
  8
IMG
 66
     1
 10
0.0
 20
0.0
 30
0.0000000000000273
 70
     1
  0
VERTEX
  5
73
  8
IMG
 10
-1497.613468108445
 20
1544.936237876474
 30
0.0000000000000273
 42
0.9950589468383617
  0
VERTEX
  5
74
  8
IMG
 10
-1502.936237871733
 20
1539.613468109728
 30
0.0000000000000273
 42
-0.6663889341232625
  0
VERTEX
  5
75
  8
IMG
 10
-1503.291538166805
 20
1538.761670298096
 30
0.0000000000000273
  0
VERTEX
  5
76
  8
IMG
 10
-1500.261670297044
 20
1538.761670298554
 30
0.0000000000000273
 42
0.4142134634381804
  0
VERTEX
  5
77
  8
IMG
 10
-1496.761670297044
 20
1542.261669200566
 30
0.0000000000000273
  0
VERTEX
  5
78
  8
IMG
 10
-1496.761670297044
 20
1545.291538171849
 30
0.0000000000000273
 42
-0.6663889339442176
  0
SEQEND
  5
79
  8
IMG
  0
POLYLINE
  5
7A
  8
IMG
 66
     1
 10
0.0
 20
0.0
 30
0.0000000000000018
 70
     1
  0
VERTEX
  5
7B
  8
IMG
 10
-1535.063762123523
 20
1539.613468108446
 30
0.0000000000000018
 42
0.995058946794114
  0
VERTEX
  5
7C
  8
IMG
 10
-1540.386531890032
 20
1544.936237871971
 30
0.0000000000000018
 42
-0.6663889341067766
  0
VERTEX
  5
7D
  8
IMG
 10
-1541.238329701632
 20
1545.291538167094
 30
0.0000000000000018
  0
VERTEX
  5
7E
  8
IMG
 10
-1541.238329701295
 20
1542.261662441226
 30
0.0000000000000018
 42
0.4142128060501689
  0
VERTEX
  5
7F
  8
IMG
 10
-1537.738330127162
 20
1538.761670297045
 30
0.0000000000000018
  0
VERTEX
  5
80
  8
IMG
 10
-1534.708461828148
 20
1538.761670297045
 30
0.0000000000000018
 42
-0.6663889339440154
  0
SEQEND
  5
81
  8
IMG
  0
CIRCLE
  5
82
  8
IMG
 10
-1537.999999999997
 20
1561.0
 30
0.0
 40
1.799999999999955
  0
CIRCLE
  5
83
  8
IMG
 10
1537.738329702952
 20
1579.738329699935
 30
0.0
 40
1.500000000000227
210
0.0
220
0.0
230
-1.0
  0
CIRCLE
  5
84
  8
IMG
 10
1500.261670300061
 20
1579.738329702953
 30
0.0
 40
1.5
210
0.0
220
0.0
230
-1.0
  0
CIRCLE
  5
85
  8
IMG
 10
1500.261670297044
 20
1542.261670300064
 30
0.0
 40
1.500000000000227
210
0.0
220
0.0
230
-1.0
  0
CIRCLE
  5
86
  8
IMG
 10
1537.738329699934
 20
1542.261670297045
 30
0.0
 40
1.5
210
0.0
220
0.0
230
-1.0
  0
POLYLINE
  5
88
  8
DEFAULT
 66
     1
 10
0.0
 20
0.0
 30
0.0000000000000003
 70
     1
  0
VERTEX
  5
89
  8
DEFAULT
 10
-1510.927207451849
 20
1556.236959522429
 30
0.0000000000000003
 42
0.2149002601432509
  0
VERTEX
  5
8A
  8
DEFAULT
 10
-1501.175793366702
 20
1550.818292468094
 30
0.0000000000000003
 42
-0.3802183366940965
  0
VERTEX
  5
8B
  8
DEFAULT
 10
-1496.761670297044
 20
1545.852736283487
 30
0.0000000000000003
  0
VERTEX
  5
8C
  8
DEFAULT
 10
-1496.761670297044
 20
1542.261669200566
 30
0.0000000000000003
 42
-0.4142134634382577
  0
VERTEX
  5
8D
  8
DEFAULT
 10
-1500.261670297044
 20
1538.761670298554
 30
0.0000000000000003
  0
VERTEX
  5
8E
  8
DEFAULT
 10
-1510.236245017551
 20
1538.761670297045
 30
0.0000000000000003
 42
-0.2196627489683072
  0
VERTEX
  5
8F
  8
DEFAULT
 10
-1514.379343449993
 20
1541.353817044321
 30
0.0000000000000003
 42
0.5155748571051935
  0
VERTEX
  5
90
  8
DEFAULT
 10
-1527.402981079608
 20
1541.868092500542
 30
0.0000000000000003
 42
-0.2321906983793841
  0
VERTEX
  5
91
  8
DEFAULT
 10
-1533.731716841952
 20
1538.761670297046
 30
0.0000000000000003
  0
VERTEX
  5
92
  8
DEFAULT
 10
-1537.738330127162
 20
1538.761670297045
 30
0.0000000000000003
 42
-0.4142128060501411
  0
VERTEX
  5
93
  8
DEFAULT
 10
-1541.238329701295
 20
1542.261662441226
 30
0.0000000000000003
  0
VERTEX
  5
94
  8
DEFAULT
 10
-1541.238329702649
 20
1554.465480471081
 30
0.0000000000000003
 42
0.1324330881547017
  0
VERTEX
  5
95
  8
DEFAULT
 10
-1542.322434500831
 20
1558.486723257875
 30
0.0000000000000003
 42
-0.2695944650377779
  0
VERTEX
  5
96
  8
DEFAULT
 10
-1542.322434500948
 20
1563.513276741925
 30
0.0000000000000003
 42
0.1324330881711473
  0
VERTEX
  5
97
  8
DEFAULT
 10
-1541.238329702952
 20
1567.534519529286
 30
0.0000000000000003
  0
VERTEX
  5
98
  8
DEFAULT
 10
-1541.238329702952
 20
1579.738329147003
 30
0.0000000000000003
 42
-0.4142136084658584
  0
VERTEX
  5
99
  8
DEFAULT
 10
-1537.738329702952
 20
1583.238329701444
 30
0.0000000000000003
  0
VERTEX
  5
9A
  8
DEFAULT
 10
-1533.730015131222
 20
1583.23832970205
 30
0.0000000000000003
 42
-0.2321625894021025
  0
VERTEX
  5
9B
  8
DEFAULT
 10
-1527.401801475532
 20
1580.132582652528
 30
0.0000000000000003
 42
0.5155070072700203
  0
VERTEX
  5
9C
  8
DEFAULT
 10
-1514.379157762643
 20
1580.646812065046
 30
0.0000000000000003
 42
-0.2195678455856478
  0
VERTEX
  5
9D
  8
DEFAULT
 10
-1510.237740434387
 20
1583.238329702953
 30
0.0000000000000003
  0
VERTEX
  5
9E
  8
DEFAULT
 10
-1500.261670015467
 20
1583.238329702953
 30
0.0000000000000003
 42
-0.4142108993757094
  0
VERTEX
  5
9F
  8
DEFAULT
 10
-1496.761670298552
 20
1579.738360342703
 30
0.0000000000000003
  0
VERTEX
  5
A0
  8
DEFAULT
 10
-1496.76167029801
 20
1576.147263717874
 30
0.0000000000000003
 42
-0.3802183367246166
  0
VERTEX
  5
A1
  8
DEFAULT
 10
-1501.175793367447
 20
1571.181707532536
 30
0.0000000000000003
 42
0.214900260132386
  0
VERTEX
  5
A2
  8
DEFAULT
 10
-1510.927207451849
 20
1565.763040478289
 30
0.0000000000000003
 42
-0.161953524755694
  0
VERTEX
  5
A3
  8
DEFAULT
 10
-1513.422599408823
 20
1563.830386672087
 30
0.0000000000000003
 42
0.7085815629129856
  0
VERTEX
  5
A4
  8
DEFAULT
 10
-1513.422599408823
 20
1558.16961332863
 30
0.0000000000000003
 42
-0.1619535247556311
  0
SEQEND
  5
A5
  8
DEFAULT
  0
TEXT
  5
A8
  8
MASK
 10
-1629.616424742015
 20
1555.757434630715
 30
0.0
 40
1.5
  1
+5V
  7
MILLIMETER_SMALL
1001
ACADANNOTATIVE
1000
AnnotativeData
1002
{
1070
     1
1070
     0
1002
}
  0
TEXT
  5
A9
  8
MASK
 10
-1622.129935012899
 20
1555.318847674194
 30
0.0
 40
2.5
  1
-
  7
MILLIMETER_SMALL
1001
ACADANNOTATIVE
1000
AnnotativeData
1002
{
1070
     1
1070
     0
1002
}
  0
TEXT
  5
AA
  8
MASK
 10
-1627.161160944278
 20
1559.718286802529
 30
0.0
 40
2.5
  1
DC
  7
MILLIMETER_SMALL
1001
ACADANNOTATIVE
1000
AnnotativeData
1002
{
1070
     1
1070
     0
1002
}
  0
POLYLINE
  5
AB
  8
DEFAULT
 66
     1
 10
0.0
 20
0.0
 30
0.0
 70
     1
  0
VERTEX
  5
AC
  8
DEFAULT
 10
-1573.535898384861
 20
1536.0
 30
0.0
 42
-0.2679491924309648
  0
VERTEX
  5
AD
  8
DEFAULT
 10
-1576.133974596214
 20
1537.499999999998
 30
0.0
 42
0.2679491924303114
  0
VERTEX
  5
AE
  8
DEFAULT
 10
-1576.999999999998
 20
1537.999999999996
 30
0.0
  0
VERTEX
  5
AF
  8
DEFAULT
 10
-1585.0
 20
1537.999999999997
 30
0.0
 42
0.4142135623731341
  0
VERTEX
  5
B0
  8
DEFAULT
 10
-1586.0
 20
1536.999999999997
 30
0.0
 42
-0.4142135623736944
  0
VERTEX
  5
B1
  8
DEFAULT
 10
-1587.0
 20
1535.999999999997
 30
0.0
  0
VERTEX
  5
B2
  8
DEFAULT
 10
-1592.874342087043
 20
1536.0
 30
0.0
 42
-0.124368875626237
  0
VERTEX
  5
B3
  8
DEFAULT
 10
-1594.299263137489
 20
1536.360000000001
 30
0.0
 42
-0.0411682485955331
  0
VERTEX
  5
B4
  8
DEFAULT
 10
-1598.156523698662
 20
1538.871880003547
 30
0.0
 42
0.1549822773064199
  0
VERTEX
  5
B5
  8
DEFAULT
 10
-1599.861332022252
 20
1539.498043026112
 30
0.0
 42
-0.3883924295854821
  0
VERTEX
  5
B6
  8
DEFAULT
 10
-1602.50195697085
 20
1542.138667974285
 30
0.0
 42
0.1549822773063106
  0
VERTEX
  5
B7
  8
DEFAULT
 10
-1603.128119993689
 20
1543.843476297774
 30
0.0
 42
-0.041168248636092
  0
VERTEX
  5
B8
  8
DEFAULT
 10
-1605.64
 20
1547.700736862513
 30
0.0
 42
-0.1243688756256645
  0
VERTEX
  5
B9
  8
DEFAULT
 10
-1606.0
 20
1549.125657912958
 30
0.0
  0
VERTEX
  5
BA
  8
DEFAULT
 10
-1606.0
 20
1572.874342087039
 30
0.0
 42
-0.1243688756260928
  0
VERTEX
  5
BB
  8
DEFAULT
 10
-1605.64
 20
1574.299263137484
 30
0.0
 42
-0.0411682485993441
  0
VERTEX
  5
BC
  8
DEFAULT
 10
-1603.128119996217
 20
1578.15652369896
 30
0.0
 42
0.1549822772945047
  0
VERTEX
  5
BD
  8
DEFAULT
 10
-1602.501956973636
 20
1579.861332022405
 30
0.0
 42
-0.3883924295517974
  0
VERTEX
  5
BE
  8
DEFAULT
 10
-1599.861332025866
 20
1582.5019569706
 30
0.0
 42
0.154982277294643
  0
VERTEX
  5
BF
  8
DEFAULT
 10
-1598.156523702521
 20
1583.128119993456
 30
0.0
 42
-0.0411682486394046
  0
VERTEX
  5
C0
  8
DEFAULT
 10
-1594.299263137483
 20
1585.64
 30
0.0
 42
-0.1243688756258036
  0
VERTEX
  5
C1
  8
DEFAULT
 10
-1592.874342087038
 20
1586.0
 30
0.0
  0
VERTEX
  5
C2
  8
DEFAULT
 10
-1587.0
 20
1586.0
 30
0.0
 42
-0.4142135623726484
  0
VERTEX
  5
C3
  8
DEFAULT
 10
-1586.0
 20
1585.0
 30
0.0
 42
0.4142135623730286
  0
VERTEX
  5
C4
  8
DEFAULT
 10
-1585.0
 20
1584.0
 30
0.0
  0
VERTEX
  5
C5
  8
DEFAULT
 10
-1576.999999999998
 20
1584.0
 30
0.0
 42
0.4142135623727621
  0
VERTEX
  5
C6
  8
DEFAULT
 10
-1575.999999999998
 20
1585.0
 30
0.0
 42
-0.4142135623728953
  0
VERTEX
  5
C7
  8
DEFAULT
 10
-1574.999999999998
 20
1586.0
 30
0.0
  0
VERTEX
  5
C8
  8
DEFAULT
 10
-1569.125657912961
 20
1586.0
 30
0.0
 42
-0.1243688756256734
  0
VERTEX
  5
C9
  8
DEFAULT
 10
-1567.700736862516
 20
1585.64
 30
0.0
 42
-0.0411682486152596
  0
VERTEX
  5
CA
  8
DEFAULT
 10
-1563.84347629963
 20
1583.128119995125
 30
0.0
 42
0.1549822773789982
  0
VERTEX
  5
CB
  8
DEFAULT
 10
-1562.138667975236
 20
1582.501956972392
 30
0.0
 42
-0.3883924297973737
  0
VERTEX
  5
CC
  8
DEFAULT
 10
-1559.498043024571
 20
1579.861332021302
 30
0.0
 42
0.1549822773789375
  0
VERTEX
  5
CD
  8
DEFAULT
 10
-1558.871880002112
 20
1578.156523696808
 30
0.0
 42
-0.0411682485745447
  0
VERTEX
  5
CE
  8
DEFAULT
 10
-1556.359999999999
 20
1574.299263137484
 30
0.0
 42
-0.1243688756260168
  0
VERTEX
  5
CF
  8
DEFAULT
 10
-1555.999999999999
 20
1572.874342087039
 30
0.0
  0
VERTEX
  5
D0
  8
DEFAULT
 10
-1555.999999999999
 20
1549.125657912958
 30
0.0
 42
-0.1243688756261305
  0
VERTEX
  5
D1
  8
DEFAULT
 10
-1556.359999999999
 20
1547.700736862514
 30
0.0
 42
-0.0411682485560365
  0
VERTEX
  5
D2
  8
DEFAULT
 10
-1558.87188000084
 20
1543.843476304829
 30
0.0
 42
0.1549822775829705
  0
VERTEX
  5
D3
  8
DEFAULT
 10
-1559.498043023279
 20
1542.138667977901
 30
0.0
 42
-0.3883924303911677
  0
VERTEX
  5
D4
  8
DEFAULT
 10
-1562.138667981362
 20
1539.498043020243
 30
0.0
 42
0.154982277583222
  0
VERTEX
  5
D5
  8
DEFAULT
 10
-1563.843476308391
 20
1538.871879998079
 30
0.0
 42
-0.0411682485159176
  0
VERTEX
  5
D6
  8
DEFAULT
 10
-1567.70073686251
 20
1536.36
 30
0.0
 42
-0.1243688756260171
  0
VERTEX
  5
D7
  8
DEFAULT
 10
-1569.125657912955
 20
1536.0
 30
0.0
  0
SEQEND
  5
D8
  8
DEFAULT
  0
CIRCLE
  5
DA
  8
CONNECTIONS
 10
-1599.738329699936
 20
1542.261670297046
 30
0.0
 40
1.500000000000326
  0
CIRCLE
  5
DB
  8
CONNECTIONS
 10
-1562.261670300062
 20
1542.261670297046
 30
0.0
 40
1.50000000000008
  0
CIRCLE
  5
DC
  8
CONNECTIONS
 10
-1562.261670297047
 20
1579.738329699936
 30
0.0
 40
1.50000000000001
  0
CIRCLE
  5
DD
  8
CONNECTIONS
 10
-1599.738329702952
 20
1579.738329699936
 30
0.0
 40
1.500000000000013
  0
POLYLINE
  5
DE
  8
MASK
 66
     1
 10
0.0
 20
0.0
 30
0.0
 70
     1
  0
VERTEX
  5
DF
  8
MASK
 10
-1614.138667975679
 20
1582.501956972411
 30
0.0
 42
-0.1549822773789905
  0
VERTEX
  5
E0
  8
MASK
 10
-1615.843476300173
 20
1583.128119994871
 30
0.0
 42
0.0411682485747172
  0
VERTEX
  5
E1
  8
MASK
 10
-1619.700736859501
 20
1585.639999996985
 30
0.0
 42
0.1243688756258654
  0
VERTEX
  5
E2
  8
MASK
 10
-1621.125657909945
 20
1585.999999996985
 30
0.0
  0
VERTEX
  5
E3
  8
MASK
 10
-1644.874342084022
 20
1585.999999996985
 30
0.0
 42
0.1243688756262367
  0
VERTEX
  5
E4
  8
MASK
 10
-1646.299263134467
 20
1585.639999996985
 30
0.0
 42
0.0411682485747128
  0
VERTEX
  5
E5
  8
MASK
 10
-1650.156523693794
 20
1583.128119994872
 30
0.0
 42
-0.154982277379177
  0
VERTEX
  5
E6
  8
MASK
 10
-1651.861332018287
 20
1582.501956972412
 30
0.0
 42
0.3883924297972536
  0
VERTEX
  5
E7
  8
MASK
 10
-1654.501956969377
 20
1579.861332021747
 30
0.0
 42
-0.1549822773789912
  0
VERTEX
  5
E8
  8
MASK
 10
-1655.128119992111
 20
1578.156523697355
 30
0.0
 42
0.3422534837141514
  0
VERTEX
  5
E9
  8
MASK
 10
-1655.12811999211
 20
1543.843476296613
 30
0.0
 42
-0.15498227737893
  0
VERTEX
  5
EA
  8
MASK
 10
-1654.501956969377
 20
1542.13866797222
 30
0.0
 42
0.3883924297968641
  0
VERTEX
  5
EB
  8
MASK
 10
-1651.861332018289
 20
1539.498043021557
 30
0.0
 42
-0.1549822773790762
  0
VERTEX
  5
EC
  8
MASK
 10
-1650.156523693795
 20
1538.871879999097
 30
0.0
 42
0.0411682485746018
  0
VERTEX
  5
ED
  8
MASK
 10
-1646.299263134473
 20
1536.359999996985
 30
0.0
 42
0.1243688756260982
  0
VERTEX
  5
EE
  8
MASK
 10
-1644.874342084028
 20
1535.999999996985
 30
0.0
  0
VERTEX
  5
EF
  8
MASK
 10
-1621.12565790994
 20
1535.999999996985
 30
0.0
 42
0.1243688756256901
  0
VERTEX
  5
F0
  8
MASK
 10
-1619.700736859495
 20
1536.359999996986
 30
0.0
 42
0.041168248574771
  0
VERTEX
  5
F1
  8
MASK
 10
-1615.843476300172
 20
1538.871879999098
 30
0.0
 42
-0.1549822773789515
  0
VERTEX
  5
F2
  8
MASK
 10
-1614.138667975679
 20
1539.498043021557
 30
0.0
 42
0.3883924297971366
  0
VERTEX
  5
F3
  8
MASK
 10
-1611.498043024592
 20
1542.13866797222
 30
0.0
 42
-0.1549822773787876
  0
VERTEX
  5
F4
  8
MASK
 10
-1610.871880001858
 20
1543.843476296613
 30
0.0
 42
0.0019441611923506
  0
VERTEX
  5
F5
  8
MASK
 10
-1610.739130431764
 20
1544.016075650698
 30
0.0
 42
0.427010202730042
  0
VERTEX
  5
F6
  8
MASK
 10
-1611.857142854125
 20
1551.152178317205
 30
0.0
 42
-0.5222329678670785
  0
VERTEX
  5
F7
  8
MASK
 10
-1611.857142854125
 20
1570.847821676764
 30
0.0
 42
0.4270102027300614
  0
VERTEX
  5
F8
  8
MASK
 10
-1610.739130431765
 20
1577.983924343271
 30
0.0
  0
VERTEX
  5
F9
  8
MASK
 10
-1610.871880001858
 20
1578.156523697354
 30
0.0
 42
-0.1549822773789485
  0
VERTEX
  5
FA
  8
MASK
 10
-1611.498043024591
 20
1579.861332021748
 30
0.0
 42
0.3883924297971086
  0
SEQEND
  5
FB
  8
MASK
  0
CIRCLE
  5
FC
  8
MASK
 10
1651.738329696921
 20
1579.738329699936
 30
0.0
 40
1.499999999999589
210
0.0
220
0.0
230
-1.0
  0
CIRCLE
  5
FD
  8
MASK
 10
1614.261670297047
 20
1542.261670294032
 30
0.0
 40
1.500000000000246
210
0.0
220
0.0
230
-1.0
  0
CIRCLE
  5
FE
  8
MASK
 10
1651.738329699936
 20
1542.261670297047
 30
0.0
 40
1.499999999999957
210
0.0
220
0.0
230
-1.0
  0
CIRCLE
  5
FF
  8
MASK
 10
1614.261670297047
 20
1579.738329699936
 30
0.0
 40
1.499999999243655
210
0.0
220
0.0
230
-1.0
  0
TEXT
  5
100
  8
MASK
 10
-1637.196678333845
 20
1543.481280130615
 30
0.0
 40
2.5
  1
IR
  7
MILLIMETER_SMALL
1001
ACADANNOTATIVE
1000
AnnotativeData
1002
{
1070
     1
1070
     0
1002
}
  0
TEXT
  5
101
  8
MASK
 10
-1633.914870632817
 20
1539.174351283235
 30
0.0
 40
1.5
  1
G
  7
MILLIMETER_SMALL
1001
ACADANNOTATIVE
1000
AnnotativeData
1002
{
1070
     1
1070
     0
1002
}
  0
TEXT
  5
102
  8
MASK
 10
-1636.358957121122
 20
1539.174351283235
 30
0.0
 40
1.5
  1
S
  7
MILLIMETER_SMALL
1001
ACADANNOTATIVE
1000
AnnotativeData
1002
{
1070
     1
1070
     0
1002
}
  0
TEXT
  5
103
  8
MASK
 10
-1631.117189910061
 20
1539.195775196278
 30
0.0
 40
1.5
  1
V
  7
MILLIMETER_SMALL
1001
ACADANNOTATIVE
1000
AnnotativeData
1002
{
1070
     1
1070
     0
1002
}
  0
POLYLINE
  5
104
  8
MASK
 66
     1
 10
0.0
 20
0.0
 30
0.0
 70
     1
  0
VERTEX
  5
105
  8
MASK
 10
-1636.533407272273
 20
1540.945775196278
 30
0.0
  0
VERTEX
  5
106
  8
MASK
 10
-1629.453407272273
 20
1540.945775196278
 30
0.0
  0
VERTEX
  5
107
  8
MASK
 10
-1629.453407272273
 20
1542.945775196278
 30
0.0
  0
VERTEX
  5
108
  8
MASK
 10
-1636.533407272273
 20
1542.945775196278
 30
0.0
  0
SEQEND
  5
109
  8
MASK
  0
TEXT
  5
10A
  8
MASK
 10
-1651.386820164292
 20
1564.738249848107
 30
0.0
 40
2.5
  1
LED
 50
270.0
  7
MILLIMETER_SMALL
1001
ACADANNOTATIVE
1000
AnnotativeData
1002
{
1070
     1
1070
     0
1002
}
  0
TEXT
  5
10B
  8
MASK
 10
-1656.256137854717
 20
1556.540161700234
 30
0.0
 40
2.5
  1
R220
 50
89.99999999999996
  7
MILLIMETER_SMALL
1001
ACADANNOTATIVE
1000
AnnotativeData
1002
{
1070
     1
1070
     0
1002
}
  0
TEXT
  5
10C
  8
MASK
 10
-1654.327631263754
 20
1557.295904199995
 30
0.0
 40
1.5
  1
DI
 50
90.00000000000006
  7
MILLIMETER_SMALL
1001
ACADANNOTATIVE
1000
AnnotativeData
1002
{
1070
     1
1070
     0
1002
}
  0
POLYLINE
  5
10D
  8
MASK
 66
     1
 10
0.0
 20
0.0
 30
0.0
 70
     1
  0
VERTEX
  5
10E
  8
MASK
 10
-1653.458487220682
 20
1564.492006570255
 30
0.0
  0
VERTEX
  5
10F
  8
MASK
 10
-1653.458487220682
 20
1557.412006570255
 30
0.0
  0
VERTEX
  5
110
  8
MASK
 10
-1651.458487220682
 20
1557.412006570255
 30
0.0
  0
VERTEX
  5
111
  8
MASK
 10
-1651.458487220682
 20
1564.492006570255
 30
0.0
  0
SEQEND
  5
112
  8
MASK
  0
POLYLINE
  5
113
  8
MASK
 66
     1
 10
0.0
 20
0.0
 30
0.0
 70
     1
  0
VERTEX
  5
114
  8
MASK
 10
-1643.117631263754
 20
1580.066130282889
 30
0.0
  0
VERTEX
  5
115
  8
MASK
 10
-1635.117631263754
 20
1580.066130282889
 30
0.0
  0
VERTEX
  5
116
  8
MASK
 10
-1635.117631263754
 20
1584.066130282889
 30
0.0
  0
VERTEX
  5
117
  8
MASK
 10
-1643.117631263754
 20
1584.066130282889
 30
0.0
  0
SEQEND
  5
118
  8
MASK
  0
TEXT
  5
119
  8
MASK
 10
-1654.306207350711
 20
1562.692141152454
 30
0.0
 40
1.5
  1
G
 50
89.99999999999997
  7
MILLIMETER_SMALL
1001
ACADANNOTATIVE
1000
AnnotativeData
1002
{
1070
     1
1070
     0
1002
}
  0
TEXT
  5
11A
  8
MASK
 10
-1654.327631263754
 20
1560.36419550028
 30
0.0
 40
1.5
  1
V
 50
90.00000000000026
  7
MILLIMETER_SMALL
1001
ACADANNOTATIVE
1000
AnnotativeData
1002
{
1070
     1
1070
     0
1002
}
  0
TEXT
  5
11B
  8
MASK
 10
-1644.975989959406
 20
1577.284206369846
 30
0.0
 40
1.5
  1
TX0
  7
MILLIMETER_SMALL
1001
ACADANNOTATIVE
1000
AnnotativeData
1002
{
1070
     1
1070
     0
1002
}
  0
TEXT
  5
11C
  8
MASK
 10
-1645.091489959406
 20
1574.744206369846
 30
0.0
 40
1.5
  1
RX0
  7
MILLIMETER_SMALL
1001
ACADANNOTATIVE
1000
AnnotativeData
1002
{
1070
     1
1070
     0
1002
}
  0
TEXT
  5
11D
  8
MASK
 10
-1645.037489959406
 20
1572.184706369846
 30
0.0
 40
1.5
  1
GND
  7
MILLIMETER_SMALL
1001
ACADANNOTATIVE
1000
AnnotativeData
1002
{
1070
     1
1070
     0
1002
}
  0
TEXT
  5
11E
  8
MASK
 10
-1645.037489959406
 20
1569.644706369846
 30
0.0
 40
1.5
  1
GND
  7
MILLIMETER_SMALL
1001
ACADANNOTATIVE
1000
AnnotativeData
1002
{
1070
     1
1070
     0
1002
}
  0
TEXT
  5
11F
  8
MASK
 10
-1644.987989959406
 20
1567.124206369846
 30
0.0
 40
1.5
  1
2
  7
MILLIMETER_SMALL
1001
ACADANNOTATIVE
1000
AnnotativeData
1002
{
1070
     1
1070
     0
1002
}
  0
TEXT
  5
120
  8
MASK
 10
-1645.014989959406
 20
1564.584206369846
 30
0.0
 40
1.5
  1
3
  7
MILLIMETER_SMALL
1001
ACADANNOTATIVE
1000
AnnotativeData
1002
{
1070
     1
1070
     0
1002
}
  0
TEXT
  5
121
  8
MASK
 10
-1644.953489959406
 20
1562.050206369846
 30
0.0
 40
1.5
  1
4
  7
MILLIMETER_SMALL
1001
ACADANNOTATIVE
1000
AnnotativeData
1002
{
1070
     1
1070
     0
1002
}
  0
TEXT
  5
122
  8
MASK
 10
-1645.013489959406
 20
1559.510206369846
 30
0.0
 40
1.5
  1
5
  7
MILLIMETER_SMALL
1001
ACADANNOTATIVE
1000
AnnotativeData
1002
{
1070
     1
1070
     0
1002
}
  0
TEXT
  5
123
  8
MASK
 10
-1645.004489959406
 20
1556.964206369846
 30
0.0
 40
1.5
  1
6
  7
MILLIMETER_SMALL
1001
ACADANNOTATIVE
1000
AnnotativeData
1002
{
1070
     1
1070
     0
1002
}
  0
TEXT
  5
124
  8
MASK
 10
-1645.025489959406
 20
1554.430206369846
 30
0.0
 40
1.5
  1
7
  7
MILLIMETER_SMALL
1001
ACADANNOTATIVE
1000
AnnotativeData
1002
{
1070
     1
1070
     0
1002
}
  0
TEXT
  5
125
  8
MASK
 10
-1645.011989959406
 20
1551.884206369846
 30
0.0
 40
1.5
  1
8
  7
MILLIMETER_SMALL
1001
ACADANNOTATIVE
1000
AnnotativeData
1002
{
1070
     1
1070
     0
1002
}
  0
TEXT
  5
126
  8
MASK
 10
-1645.013489959406
 20
1549.344206369846
 30
0.0
 40
1.5
  1
9
  7
MILLIMETER_SMALL
1001
ACADANNOTATIVE
1000
AnnotativeData
1002
{
1070
     1
1070
     0
1002
}
  0
TEXT
  5
127
  8
MASK
 10
-1635.571174742016
 20
1549.344206369846
 30
0.0
 40
1.5
  1
10
  7
MILLIMETER_SMALL
1001
ACADANNOTATIVE
1000
AnnotativeData
1002
{
1070
     1
1070
     0
1002
}
  0
TEXT
  5
128
  8
MASK
 10
-1638.133174742015
 20
1577.290206369846
 30
0.0
 40
1.5
  1
RAW
  7
MILLIMETER_SMALL
1001
ACADANNOTATIVE
1000
AnnotativeData
1002
{
1070
     1
1070
     0
1002
}
  0
TEXT
  5
129
  8
MASK
 10
-1637.761239959407
 20
1574.724706369846
 30
0.0
 40
1.5
  1
GND
  7
MILLIMETER_SMALL
1001
ACADANNOTATIVE
1000
AnnotativeData
1002
{
1070
     1
1070
     0
1002
}
  0
TEXT
  5
12A
  8
MASK
 10
-1637.42393561158
 20
1572.184706369846
 30
0.0
 40
1.5
  1
RST
  7
MILLIMETER_SMALL
1001
ACADANNOTATIVE
1000
AnnotativeData
1002
{
1070
     1
1070
     0
1002
}
  0
TEXT
  5
12B
  8
MASK
 10
-1637.45543561158
 20
1569.644706369846
 30
0.0
 40
1.5
  1
VCC
  7
MILLIMETER_SMALL
1001
ACADANNOTATIVE
1000
AnnotativeData
1002
{
1070
     1
1070
     0
1002
}
  0
TEXT
  5
12C
  8
MASK
 10
-1635.579587785493
 20
1567.124206369846
 30
0.0
 40
1.5
  1
A3
  7
MILLIMETER_SMALL
1001
ACADANNOTATIVE
1000
AnnotativeData
1002
{
1070
     1
1070
     0
1002
}
  0
TEXT
  5
12D
  8
MASK
 10
-1635.563283437667
 20
1564.584206369846
 30
0.0
 40
1.5
  1
A2
  7
MILLIMETER_SMALL
1001
ACADANNOTATIVE
1000
AnnotativeData
1002
{
1070
     1
1070
     0
1002
}
  0
TEXT
  5
12E
  8
MASK
 10
-1635.294261698537
 20
1562.044206369846
 30
0.0
 40
1.5
  1
A1
  7
MILLIMETER_SMALL
1001
ACADANNOTATIVE
1000
AnnotativeData
1002
{
1070
     1
1070
     0
1002
}
  0
TEXT
  5
12F
  8
MASK
 10
-1635.579587785493
 20
1559.504206369846
 30
0.0
 40
1.5
  1
A0
  7
MILLIMETER_SMALL
1001
ACADANNOTATIVE
1000
AnnotativeData
1002
{
1070
     1
1070
     0
1002
}
  0
TEXT
  5
130
  8
MASK
 10
-1635.587479089842
 20
1556.964206369846
 30
0.0
 40
1.5
  1
15
  7
MILLIMETER_SMALL
1001
ACADANNOTATIVE
1000
AnnotativeData
1002
{
1070
     1
1070
     0
1002
}
  0
TEXT
  5
131
  8
MASK
 10
-1635.563022568102
 20
1554.424206369846
 30
0.0
 40
1.5
  1
14
  7
MILLIMETER_SMALL
1001
ACADANNOTATIVE
1000
AnnotativeData
1002
{
1070
     1
1070
     0
1002
}
  0
TEXT
  5
132
  8
MASK
 10
-1635.571174742016
 20
1551.884206369846
 30
0.0
 40
1.5
  1
16
  7
MILLIMETER_SMALL
1001
ACADANNOTATIVE
1000
AnnotativeData
1002
{
1070
     1
1070
     0
1002
}
  0
POLYLINE
  5
133
  8
MASK
 66
     1
 10
0.0
 20
0.0
 30
0.0
 70
     1
  0
VERTEX
  5
134
  8
MASK
 10
-1648.617631263754
 20
1582.066130282889
 30
0.0
  0
VERTEX
  5
135
  8
MASK
 10
-1648.617631263754
 20
1548.066130282889
 30
0.0
  0
VERTEX
  5
136
  8
MASK
 10
-1629.617631263754
 20
1548.066130282889
 30
0.0
  0
VERTEX
  5
137
  8
MASK
 10
-1629.617631263754
 20
1582.066130282889
 30
0.0
  0
SEQEND
  5
138
  8
MASK
  0
POLYLINE
  5
139
  8
DEFAULT
 66
     1
 10
0.0
 20
0.0
 30
0.0
 70
     1
  0
VERTEX
  5
13A
  8
DEFAULT
 10
-1559.260869565217
 20
1548.654547074346
 30
0.0
 42
0.1298411442892871
  0
VERTEX
  5
13B
  8
DEFAULT
 10
-1559.0
 20
1549.642183308398
 30
0.0
  0
VERTEX
  5
13C
  8
DEFAULT
 10
-1559.0
 20
1572.357816691602
 30
0.0
 42
0.1298411442902137
  0
VERTEX
  5
13D
  8
DEFAULT
 10
-1559.260869565217
 20
1573.345452925654
 30
0.0
  0
VERTEX
  5
13E
  8
DEFAULT
 10
-1559.689832031454
 20
1574.071983061202
 30
0.0
  0
VERTEX
  5
13F
  8
DEFAULT
 10
-1559.725274487692
 20
1574.127678240565
 30
0.0
  0
VERTEX
  5
140
  8
DEFAULT
 10
-1559.762874240972
 20
1574.182651093438
 30
0.0
  0
VERTEX
  5
141
  8
DEFAULT
 10
-1559.802619943797
 20
1574.236784091539
 30
0.0
  0
VERTEX
  5
142
  8
DEFAULT
 10
-1559.844492099969
 20
1574.289958776319
 30
0.0
  0
VERTEX
  5
143
  8
DEFAULT
 10
-1559.888462848942
 20
1574.342056440245
 30
0.0
  0
VERTEX
  5
144
  8
DEFAULT
 10
-1559.934495816582
 20
1574.392958842859
 30
0.0
  0
VERTEX
  5
145
  8
DEFAULT
 10
-1559.982546037834
 20
1574.442548954213
 30
0.0
  0
VERTEX
  5
146
  8
DEFAULT
 10
-1560.032559955875
 20
1574.490711717413
 30
0.0
  0
VERTEX
  5
147
  8
DEFAULT
 10
-1560.08447550125
 20
1574.537334821197
 30
0.0
  0
VERTEX
  5
148
  8
DEFAULT
 10
-1560.111124697826
 20
1574.560034844659
 30
0.0
  0
VERTEX
  5
149
  8
DEFAULT
 10
-1560.138222253282
 20
1574.582309472838
 30
0.0
  0
VERTEX
  5
14A
  8
DEFAULT
 10
-1560.165758100288
 20
1574.604145781639
 30
0.0
  0
VERTEX
  5
14B
  8
DEFAULT
 10
-1560.193721684681
 20
1574.625531161245
 30
0.0
  0
VERTEX
  5
14C
  8
DEFAULT
 10
-1560.222101977603
 20
1574.64645333869
 30
0.0
  0
VERTEX
  5
14D
  8
DEFAULT
 10
-1560.250887488895
 20
1574.666900399884
 30
0.0
  0
VERTEX
  5
14E
  8
DEFAULT
 10
-1560.280066281695
 20
1574.686860810995
 30
0.0
  0
VERTEX
  5
14F
  8
DEFAULT
 10
-1560.309625988216
 20
1574.706323439119
 30
0.0
  0
VERTEX
  5
150
  8
DEFAULT
 10
-1560.339553826664
 20
1574.725277572156
 30
0.0
  0
VERTEX
  5
151
  8
DEFAULT
 10
-1560.369836619233
 20
1574.74371293783
 30
0.0
  0
VERTEX
  5
152
  8
DEFAULT
 10
-1560.400460811156
 20
1574.761619721772
 30
0.0
  0
VERTEX
  5
153
  8
DEFAULT
 10
-1560.431412490719
 20
1574.778988584605
 30
0.0
  0
VERTEX
  5
154
  8
DEFAULT
 10
-1560.462677410206
 20
1574.79581067798
 30
0.0
  0
VERTEX
  5
155
  8
DEFAULT
 10
-1560.494241007695
 20
1574.812077659485
 30
0.0
  0
VERTEX
  5
156
  8
DEFAULT
 10
-1560.526088429636
 20
1574.827781706397
 30
0.0
  0
VERTEX
  5
157
  8
DEFAULT
 10
-1560.558204554145
 20
1574.842915528208
 30
0.0
  0
VERTEX
  5
158
  8
DEFAULT
 10
-1560.590574014921
 20
1574.857472377899
 30
0.0
  0
VERTEX
  5
159
  8
DEFAULT
 10
-1560.623181225731
 20
1574.871446061924
 30
0.0
  0
VERTEX
  5
15A
  8
DEFAULT
 10
-1560.656010405359
 20
1574.884830948861
 30
0.0
  0
VERTEX
  5
15B
  8
DEFAULT
 10
-1560.689045602947
 20
1574.897621976718
 30
0.0
  0
VERTEX
  5
15C
  8
DEFAULT
 10
-1560.72227072364
 20
1574.909814658871
 30
0.0
  0
VERTEX
  5
15D
  8
DEFAULT
 10
-1560.755669554447
 20
1574.921405088617
 30
0.0
  0
VERTEX
  5
15E
  8
DEFAULT
 10
-1560.789225790237
 20
1574.932389942341
 30
0.0
  0
VERTEX
  5
15F
  8
DEFAULT
 10
-1560.822923059781
 20
1574.942766481294
 30
0.0
  0
VERTEX
  5
160
  8
DEFAULT
 10
-1560.856744951747
 20
1574.952532551991
 30
0.0
  0
VERTEX
  5
161
  8
DEFAULT
 10
-1560.890675040575
 20
1574.96168658523
 30
0.0
  0
VERTEX
  5
162
  8
DEFAULT
 10
-1560.924696912148
 20
1574.970227593765
 30
0.0
  0
VERTEX
  5
163
  8
DEFAULT
 10
-1560.958794189164
 20
1574.978155168644
 30
0.0
  0
VERTEX
  5
164
  8
DEFAULT
 10
-1561.027149783998
 20
1574.992171242024
 30
0.0
  0
VERTEX
  5
165
  8
DEFAULT
 10
-1561.095612481591
 20
1575.003742879552
 30
0.0
  0
VERTEX
  5
166
  8
DEFAULT
 10
-1561.164055075513
 20
1575.012886962
 30
0.0
  0
VERTEX
  5
167
  8
DEFAULT
 10
-1561.232353213772
 20
1575.019628846901
 30
0.0
  0
VERTEX
  5
168
  8
DEFAULT
 10
-1561.300386067026
 20
1575.024001972781
 30
0.0
  0
VERTEX
  5
169
  8
DEFAULT
 10
-1561.368036941157
 20
1575.026047405036
 30
0.0
  0
VERTEX
  5
16A
  8
DEFAULT
 10
-1561.435193829011
 20
1575.025813331682
 30
0.0
  0
VERTEX
  5
16B
  8
DEFAULT
 10
-1561.501749897351
 20
1575.02335451758
 30
0.0
  0
VERTEX
  5
16C
  8
DEFAULT
 10
-1561.567603906384
 20
1575.018731725933
 30
0.0
 42
-0.0190979674734051
  0
VERTEX
  5
16D
  8
DEFAULT
 10
-1561.948976935146
 20
1575.000260342092
 30
0.0
 42
0.1962615682811338
  0
VERTEX
  5
16E
  8
DEFAULT
 10
-1563.342781271578
 20
1574.414578041303
 30
0.0
  0
VERTEX
  5
16F
  8
DEFAULT
 10
-1574.414213562373
 20
1563.343145750507
 30
0.0
 42
0.1989123673794969
  0
VERTEX
  5
170
  8
DEFAULT
 10
-1575.0
 20
1561.928932188134
 30
0.0
  0
VERTEX
  5
171
  8
DEFAULT
 10
-1575.0
 20
1560.071067811866
 30
0.0
 42
0.1989123673797824
  0
VERTEX
  5
172
  8
DEFAULT
 10
-1574.414213562372
 20
1558.656854249492
 30
0.0
  0
VERTEX
  5
173
  8
DEFAULT
 10
-1563.342781271577
 20
1547.585421958697
 30
0.0
 42
0.1962615682817153
  0
VERTEX
  5
174
  8
DEFAULT
 10
-1561.948976935146
 20
1546.999739657907
 30
0.0
 42
-0.0190979674752859
  0
VERTEX
  5
175
  8
DEFAULT
 10
-1561.567603906385
 20
1546.981268274067
 30
0.0
  0
VERTEX
  5
176
  8
DEFAULT
 10
-1561.501749897351
 20
1546.976645482419
 30
0.0
  0
VERTEX
  5
177
  8
DEFAULT
 10
-1561.435193829011
 20
1546.974186668317
 30
0.0
  0
VERTEX
  5
178
  8
DEFAULT
 10
-1561.368036941157
 20
1546.973952594964
 30
0.0
  0
VERTEX
  5
179
  8
DEFAULT
 10
-1561.300386067026
 20
1546.975998027219
 30
0.0
  0
VERTEX
  5
17A
  8
DEFAULT
 10
-1561.232353213772
 20
1546.980371153099
 30
0.0
  0
VERTEX
  5
17B
  8
DEFAULT
 10
-1561.164055075513
 20
1546.987113038
 30
0.0
  0
VERTEX
  5
17C
  8
DEFAULT
 10
-1561.095612481592
 20
1546.996257120448
 30
0.0
  0
VERTEX
  5
17D
  8
DEFAULT
 10
-1561.027149783998
 20
1547.007828757976
 30
0.0
  0
VERTEX
  5
17E
  8
DEFAULT
 10
-1560.958794189165
 20
1547.021844831356
 30
0.0
  0
VERTEX
  5
17F
  8
DEFAULT
 10
-1560.924696912149
 20
1547.029772406234
 30
0.0
  0
VERTEX
  5
180
  8
DEFAULT
 10
-1560.890675040576
 20
1547.038313414769
 30
0.0
  0
VERTEX
  5
181
  8
DEFAULT
 10
-1560.856744951748
 20
1547.047467448009
 30
0.0
  0
VERTEX
  5
182
  8
DEFAULT
 10
-1560.822923059782
 20
1547.057233518705
 30
0.0
  0
VERTEX
  5
183
  8
DEFAULT
 10
-1560.789225790238
 20
1547.067610057659
 30
0.0
  0
VERTEX
  5
184
  8
DEFAULT
 10
-1560.755669554447
 20
1547.078594911383
 30
0.0
  0
VERTEX
  5
185
  8
DEFAULT
 10
-1560.72227072364
 20
1547.090185341129
 30
0.0
  0
VERTEX
  5
186
  8
DEFAULT
 10
-1560.689045602948
 20
1547.102378023282
 30
0.0
  0
VERTEX
  5
187
  8
DEFAULT
 10
-1560.656010405359
 20
1547.115169051139
 30
0.0
  0
VERTEX
  5
188
  8
DEFAULT
 10
-1560.623181225731
 20
1547.128553938076
 30
0.0
  0
VERTEX
  5
189
  8
DEFAULT
 10
-1560.590574014921
 20
1547.142527622101
 30
0.0
  0
VERTEX
  5
18A
  8
DEFAULT
 10
-1560.558204554145
 20
1547.157084471792
 30
0.0
  0
VERTEX
  5
18B
  8
DEFAULT
 10
-1560.526088429637
 20
1547.172218293602
 30
0.0
  0
VERTEX
  5
18C
  8
DEFAULT
 10
-1560.494241007695
 20
1547.187922340514
 30
0.0
  0
VERTEX
  5
18D
  8
DEFAULT
 10
-1560.462677410205
 20
1547.204189322021
 30
0.0
  0
VERTEX
  5
18E
  8
DEFAULT
 10
-1560.431412490718
 20
1547.221011415395
 30
0.0
  0
VERTEX
  5
18F
  8
DEFAULT
 10
-1560.400460811156
 20
1547.238380278228
 30
0.0
  0
VERTEX
  5
190
  8
DEFAULT
 10
-1560.369836619233
 20
1547.256287062169
 30
0.0
  0
VERTEX
  5
191
  8
DEFAULT
 10
-1560.339553826664
 20
1547.274722427844
 30
0.0
  0
VERTEX
  5
192
  8
DEFAULT
 10
-1560.309625988216
 20
1547.293676560881
 30
0.0
  0
VERTEX
  5
193
  8
DEFAULT
 10
-1560.280066281695
 20
1547.313139189005
 30
0.0
  0
VERTEX
  5
194
  8
DEFAULT
 10
-1560.250887488895
 20
1547.333099600116
 30
0.0
  0
VERTEX
  5
195
  8
DEFAULT
 10
-1560.222101977603
 20
1547.35354666131
 30
0.0
  0
VERTEX
  5
196
  8
DEFAULT
 10
-1560.193721684681
 20
1547.374468838755
 30
0.0
  0
VERTEX
  5
197
  8
DEFAULT
 10
-1560.165758100289
 20
1547.395854218361
 30
0.0
  0
VERTEX
  5
198
  8
DEFAULT
 10
-1560.138222253282
 20
1547.417690527162
 30
0.0
  0
VERTEX
  5
199
  8
DEFAULT
 10
-1560.111124697826
 20
1547.43996515534
 30
0.0
  0
VERTEX
  5
19A
  8
DEFAULT
 10
-1560.08447550125
 20
1547.462665178802
 30
0.0
  0
VERTEX
  5
19B
  8
DEFAULT
 10
-1560.032559955875
 20
1547.509288282586
 30
0.0
  0
VERTEX
  5
19C
  8
DEFAULT
 10
-1559.982546037834
 20
1547.557451045787
 30
0.0
  0
VERTEX
  5
19D
  8
DEFAULT
 10
-1559.934495816582
 20
1547.607041157141
 30
0.0
  0
VERTEX
  5
19E
  8
DEFAULT
 10
-1559.888462848942
 20
1547.657943559755
 30
0.0
  0
VERTEX
  5
19F
  8
DEFAULT
 10
-1559.844492099969
 20
1547.710041223681
 30
0.0
  0
VERTEX
  5
1A0
  8
DEFAULT
 10
-1559.802619943797
 20
1547.763215908461
 30
0.0
  0
VERTEX
  5
1A1
  8
DEFAULT
 10
-1559.762874240972
 20
1547.817348906562
 30
0.0
  0
VERTEX
  5
1A2
  8
DEFAULT
 10
-1559.725274487692
 20
1547.872321759435
 30
0.0
  0
VERTEX
  5
1A3
  8
DEFAULT
 10
-1559.689832031454
 20
1547.928016938797
 30
0.0
  0
SEQEND
  5
1A4
  8
DEFAULT
  0
POLYLINE
  5
1A5
  8
DEFAULT
 66
     1
 10
0.0
 20
0.0
 30
0.0
 70
     1
  0
VERTEX
  5
1A6
  8
DEFAULT
 10
-1602.739130434782
 20
1548.654547074346
 30
0.0
 42
-0.1298411442906615
  0
VERTEX
  5
1A7
  8
DEFAULT
 10
-1603.0
 20
1549.642183308398
 30
0.0
  0
VERTEX
  5
1A8
  8
DEFAULT
 10
-1603.0
 20
1572.357816691602
 30
0.0
 42
-0.1298411442898881
  0
VERTEX
  5
1A9
  8
DEFAULT
 10
-1602.739130434782
 20
1573.345452925654
 30
0.0
  0
VERTEX
  5
1AA
  8
DEFAULT
 10
-1602.310167968546
 20
1574.071983061202
 30
0.0
  0
VERTEX
  5
1AB
  8
DEFAULT
 10
-1602.274725512308
 20
1574.127678240565
 30
0.0
  0
VERTEX
  5
1AC
  8
DEFAULT
 10
-1602.237125759028
 20
1574.182651093438
 30
0.0
  0
VERTEX
  5
1AD
  8
DEFAULT
 10
-1602.197380056203
 20
1574.236784091539
 30
0.0
  0
VERTEX
  5
1AE
  8
DEFAULT
 10
-1602.155507900031
 20
1574.289958776319
 30
0.0
  0
VERTEX
  5
1AF
  8
DEFAULT
 10
-1602.111537151058
 20
1574.342056440245
 30
0.0
  0
VERTEX
  5
1B0
  8
DEFAULT
 10
-1602.065504183418
 20
1574.392958842859
 30
0.0
  0
VERTEX
  5
1B1
  8
DEFAULT
 10
-1602.017453962166
 20
1574.442548954213
 30
0.0
  0
VERTEX
  5
1B2
  8
DEFAULT
 10
-1601.967440044125
 20
1574.490711717413
 30
0.0
  0
VERTEX
  5
1B3
  8
DEFAULT
 10
-1601.915524498749
 20
1574.537334821197
 30
0.0
  0
VERTEX
  5
1B4
  8
DEFAULT
 10
-1601.888875302174
 20
1574.560034844659
 30
0.0
  0
VERTEX
  5
1B5
  8
DEFAULT
 10
-1601.861777746718
 20
1574.582309472838
 30
0.0
  0
VERTEX
  5
1B6
  8
DEFAULT
 10
-1601.834241899712
 20
1574.604145781639
 30
0.0
  0
VERTEX
  5
1B7
  8
DEFAULT
 10
-1601.806278315319
 20
1574.625531161245
 30
0.0
  0
VERTEX
  5
1B8
  8
DEFAULT
 10
-1601.777898022397
 20
1574.64645333869
 30
0.0
  0
VERTEX
  5
1B9
  8
DEFAULT
 10
-1601.749112511106
 20
1574.666900399884
 30
0.0
  0
VERTEX
  5
1BA
  8
DEFAULT
 10
-1601.719933718306
 20
1574.686860810995
 30
0.0
  0
VERTEX
  5
1BB
  8
DEFAULT
 10
-1601.690374011784
 20
1574.706323439119
 30
0.0
  0
VERTEX
  5
1BC
  8
DEFAULT
 10
-1601.660446173337
 20
1574.725277572156
 30
0.0
  0
VERTEX
  5
1BD
  8
DEFAULT
 10
-1601.630163380767
 20
1574.74371293783
 30
0.0
  0
VERTEX
  5
1BE
  8
DEFAULT
 10
-1601.599539188845
 20
1574.761619721772
 30
0.0
  0
VERTEX
  5
1BF
  8
DEFAULT
 10
-1601.568587509282
 20
1574.778988584605
 30
0.0
  0
VERTEX
  5
1C0
  8
DEFAULT
 10
-1601.537322589795
 20
1574.79581067798
 30
0.0
  0
VERTEX
  5
1C1
  8
DEFAULT
 10
-1601.505758992306
 20
1574.812077659485
 30
0.0
  0
VERTEX
  5
1C2
  8
DEFAULT
 10
-1601.473911570364
 20
1574.827781706397
 30
0.0
  0
VERTEX
  5
1C3
  8
DEFAULT
 10
-1601.441795445855
 20
1574.842915528208
 30
0.0
  0
VERTEX
  5
1C4
  8
DEFAULT
 10
-1601.409425985079
 20
1574.857472377899
 30
0.0
  0
VERTEX
  5
1C5
  8
DEFAULT
 10
-1601.376818774269
 20
1574.871446061924
 30
0.0
  0
VERTEX
  5
1C6
  8
DEFAULT
 10
-1601.343989594642
 20
1574.884830948861
 30
0.0
  0
VERTEX
  5
1C7
  8
DEFAULT
 10
-1601.310954397053
 20
1574.897621976718
 30
0.0
  0
VERTEX
  5
1C8
  8
DEFAULT
 10
-1601.277729276361
 20
1574.909814658871
 30
0.0
  0
VERTEX
  5
1C9
  8
DEFAULT
 10
-1601.244330445554
 20
1574.921405088617
 30
0.0
  0
VERTEX
  5
1CA
  8
DEFAULT
 10
-1601.210774209763
 20
1574.932389942341
 30
0.0
  0
VERTEX
  5
1CB
  8
DEFAULT
 10
-1601.177076940219
 20
1574.942766481294
 30
0.0
  0
VERTEX
  5
1CC
  8
DEFAULT
 10
-1601.143255048253
 20
1574.952532551991
 30
0.0
  0
VERTEX
  5
1CD
  8
DEFAULT
 10
-1601.109324959425
 20
1574.96168658523
 30
0.0
  0
VERTEX
  5
1CE
  8
DEFAULT
 10
-1601.075303087852
 20
1574.970227593765
 30
0.0
  0
VERTEX
  5
1CF
  8
DEFAULT
 10
-1601.041205810836
 20
1574.978155168644
 30
0.0
  0
VERTEX
  5
1D0
  8
DEFAULT
 10
-1600.972850216003
 20
1574.992171242024
 30
0.0
  0
VERTEX
  5
1D1
  8
DEFAULT
 10
-1600.904387518408
 20
1575.003742879552
 30
0.0
  0
VERTEX
  5
1D2
  8
DEFAULT
 10
-1600.835944924487
 20
1575.012886962
 30
0.0
  0
VERTEX
  5
1D3
  8
DEFAULT
 10
-1600.767646786228
 20
1575.019628846901
 30
0.0
  0
VERTEX
  5
1D4
  8
DEFAULT
 10
-1600.699613932975
 20
1575.024001972781
 30
0.0
  0
VERTEX
  5
1D5
  8
DEFAULT
 10
-1600.631963058843
 20
1575.026047405036
 30
0.0
  0
VERTEX
  5
1D6
  8
DEFAULT
 10
-1600.564806170989
 20
1575.025813331682
 30
0.0
  0
VERTEX
  5
1D7
  8
DEFAULT
 10
-1600.498250102649
 20
1575.02335451758
 30
0.0
  0
VERTEX
  5
1D8
  8
DEFAULT
 10
-1600.432396093616
 20
1575.018731725933
 30
0.0
 42
0.0190979674732842
  0
VERTEX
  5
1D9
  8
DEFAULT
 10
-1600.051023064854
 20
1575.000260342092
 30
0.0
 42
-0.1962615682811922
  0
VERTEX
  5
1DA
  8
DEFAULT
 10
-1598.657218728421
 20
1574.414578041303
 30
0.0
  0
VERTEX
  5
1DB
  8
DEFAULT
 10
-1587.585786437627
 20
1563.343145750507
 30
0.0
 42
-0.1989123673798295
  0
VERTEX
  5
1DC
  8
DEFAULT
 10
-1587.0
 20
1561.928932188134
 30
0.0
  0
VERTEX
  5
1DD
  8
DEFAULT
 10
-1587.0
 20
1560.071067811866
 30
0.0
 42
-0.1989123673796151
  0
VERTEX
  5
1DE
  8
DEFAULT
 10
-1587.585786437627
 20
1558.656854249492
 30
0.0
  0
VERTEX
  5
1DF
  8
DEFAULT
 10
-1598.657218728421
 20
1547.585421958697
 30
0.0
 42
-0.1962615682815761
  0
VERTEX
  5
1E0
  8
DEFAULT
 10
-1600.051023064854
 20
1546.999739657907
 30
0.0
 42
0.0190979674752644
  0
VERTEX
  5
1E1
  8
DEFAULT
 10
-1600.432396093616
 20
1546.981268274067
 30
0.0
  0
VERTEX
  5
1E2
  8
DEFAULT
 10
-1600.498250102649
 20
1546.976645482419
 30
0.0
  0
VERTEX
  5
1E3
  8
DEFAULT
 10
-1600.564806170989
 20
1546.974186668317
 30
0.0
  0
VERTEX
  5
1E4
  8
DEFAULT
 10
-1600.631963058843
 20
1546.973952594964
 30
0.0
  0
VERTEX
  5
1E5
  8
DEFAULT
 10
-1600.699613932974
 20
1546.975998027219
 30
0.0
  0
VERTEX
  5
1E6
  8
DEFAULT
 10
-1600.767646786228
 20
1546.980371153099
 30
0.0
  0
VERTEX
  5
1E7
  8
DEFAULT
 10
-1600.835944924487
 20
1546.987113038
 30
0.0
  0
VERTEX
  5
1E8
  8
DEFAULT
 10
-1600.904387518408
 20
1546.996257120448
 30
0.0
  0
VERTEX
  5
1E9
  8
DEFAULT
 10
-1600.972850216003
 20
1547.007828757976
 30
0.0
  0
VERTEX
  5
1EA
  8
DEFAULT
 10
-1601.041205810836
 20
1547.021844831356
 30
0.0
  0
VERTEX
  5
1EB
  8
DEFAULT
 10
-1601.075303087852
 20
1547.029772406234
 30
0.0
  0
VERTEX
  5
1EC
  8
DEFAULT
 10
-1601.109324959425
 20
1547.038313414769
 30
0.0
  0
VERTEX
  5
1ED
  8
DEFAULT
 10
-1601.143255048253
 20
1547.047467448009
 30
0.0
  0
VERTEX
  5
1EE
  8
DEFAULT
 10
-1601.177076940219
 20
1547.057233518705
 30
0.0
  0
VERTEX
  5
1EF
  8
DEFAULT
 10
-1601.210774209763
 20
1547.067610057659
 30
0.0
  0
VERTEX
  5
1F0
  8
DEFAULT
 10
-1601.244330445554
 20
1547.078594911383
 30
0.0
  0
VERTEX
  5
1F1
  8
DEFAULT
 10
-1601.277729276361
 20
1547.090185341129
 30
0.0
  0
VERTEX
  5
1F2
  8
DEFAULT
 10
-1601.310954397053
 20
1547.102378023282
 30
0.0
  0
VERTEX
  5
1F3
  8
DEFAULT
 10
-1601.343989594641
 20
1547.115169051139
 30
0.0
  0
VERTEX
  5
1F4
  8
DEFAULT
 10
-1601.376818774269
 20
1547.128553938076
 30
0.0
  0
VERTEX
  5
1F5
  8
DEFAULT
 10
-1601.409425985079
 20
1547.142527622101
 30
0.0
  0
VERTEX
  5
1F6
  8
DEFAULT
 10
-1601.441795445855
 20
1547.157084471792
 30
0.0
  0
VERTEX
  5
1F7
  8
DEFAULT
 10
-1601.473911570364
 20
1547.172218293602
 30
0.0
  0
VERTEX
  5
1F8
  8
DEFAULT
 10
-1601.505758992306
 20
1547.187922340514
 30
0.0
  0
VERTEX
  5
1F9
  8
DEFAULT
 10
-1601.537322589795
 20
1547.204189322021
 30
0.0
  0
VERTEX
  5
1FA
  8
DEFAULT
 10
-1601.568587509282
 20
1547.221011415395
 30
0.0
  0
VERTEX
  5
1FB
  8
DEFAULT
 10
-1601.599539188845
 20
1547.238380278228
 30
0.0
  0
VERTEX
  5
1FC
  8
DEFAULT
 10
-1601.630163380767
 20
1547.256287062169
 30
0.0
  0
VERTEX
  5
1FD
  8
DEFAULT
 10
-1601.660446173337
 20
1547.274722427844
 30
0.0
  0
VERTEX
  5
1FE
  8
DEFAULT
 10
-1601.690374011784
 20
1547.293676560881
 30
0.0
  0
VERTEX
  5
1FF
  8
DEFAULT
 10
-1601.719933718306
 20
1547.313139189005
 30
0.0
  0
VERTEX
  5
200
  8
DEFAULT
 10
-1601.749112511106
 20
1547.333099600116
 30
0.0
  0
VERTEX
  5
201
  8
DEFAULT
 10
-1601.777898022397
 20
1547.35354666131
 30
0.0
  0
VERTEX
  5
202
  8
DEFAULT
 10
-1601.806278315319
 20
1547.374468838755
 30
0.0
  0
VERTEX
  5
203
  8
DEFAULT
 10
-1601.834241899712
 20
1547.395854218361
 30
0.0
  0
VERTEX
  5
204
  8
DEFAULT
 10
-1601.861777746719
 20
1547.417690527162
 30
0.0
  0
VERTEX
  5
205
  8
DEFAULT
 10
-1601.888875302174
 20
1547.43996515534
 30
0.0
  0
VERTEX
  5
206
  8
DEFAULT
 10
-1601.91552449875
 20
1547.462665178802
 30
0.0
  0
VERTEX
  5
207
  8
DEFAULT
 10
-1601.967440044125
 20
1547.509288282586
 30
0.0
  0
VERTEX
  5
208
  8
DEFAULT
 10
-1602.017453962167
 20
1547.557451045787
 30
0.0
  0
VERTEX
  5
209
  8
DEFAULT
 10
-1602.065504183419
 20
1547.607041157141
 30
0.0
  0
VERTEX
  5
20A
  8
DEFAULT
 10
-1602.111537151058
 20
1547.657943559755
 30
0.0
  0
VERTEX
  5
20B
  8
DEFAULT
 10
-1602.155507900031
 20
1547.710041223681
 30
0.0
  0
VERTEX
  5
20C
  8
DEFAULT
 10
-1602.197380056203
 20
1547.763215908461
 30
0.0
  0
VERTEX
  5
20D
  8
DEFAULT
 10
-1602.237125759029
 20
1547.817348906562
 30
0.0
  0
VERTEX
  5
20E
  8
DEFAULT
 10
-1602.274725512309
 20
1547.872321759435
 30
0.0
  0
VERTEX
  5
20F
  8
DEFAULT
 10
-1602.310167968546
 20
1547.928016938797
 30
0.0
  0
SEQEND
  5
210
  8
DEFAULT
  0
POLYLINE
  5
211
  8
DEFAULT
 66
     1
 10
0.0
 20
0.0
 30
0.0
 70
     1
  0
VERTEX
  5
212
  8
DEFAULT
 10
-1592.35781669172
 20
1539.000000000026
 30
0.0
 42
-0.1298411442895196
  0
VERTEX
  5
213
  8
DEFAULT
 10
-1593.345452925766
 20
1539.260869565248
 30
0.0
  0
VERTEX
  5
214
  8
DEFAULT
 10
-1594.071983061233
 20
1539.689832031459
 30
0.0
 42
-0.2840816496131376
  0
VERTEX
  5
215
  8
DEFAULT
 10
-1595.018731725934
 20
1541.567603906375
 30
0.0
  0
VERTEX
  5
216
  8
DEFAULT
 10
-1595.000260342093
 20
1541.948976935146
 30
0.0
 42
-0.1962615682808558
  0
VERTEX
  5
217
  8
DEFAULT
 10
-1594.414578041302
 20
1543.342781271578
 30
0.0
  0
VERTEX
  5
218
  8
DEFAULT
 10
-1589.414213562372
 20
1548.343145750508
 30
0.0
 42
-0.6681786379196809
  0
VERTEX
  5
219
  8
DEFAULT
 10
-1586.0
 20
1546.928932188135
 30
0.0
  0
VERTEX
  5
21A
  8
DEFAULT
 10
-1586.0
 20
1541.000000000008
 30
0.0
 42
-0.4142135623744569
  0
VERTEX
  5
21B
  8
DEFAULT
 10
-1588.000000000005
 20
1539.000000000005
 30
0.0
  0
SEQEND
  5
21C
  8
DEFAULT
  0
POLYLINE
  5
21D
  8
DEFAULT
 66
     1
 10
0.0
 20
0.0
 30
0.0
 70
     1
  0
VERTEX
  5
21E
  8
DEFAULT
 10
-1567.585421958697
 20
1543.342781271578
 30
0.0
 42
-0.1962615682812555
  0
VERTEX
  5
21F
  8
DEFAULT
 10
-1566.999739657908
 20
1541.948976935146
 30
0.0
  0
VERTEX
  5
220
  8
DEFAULT
 10
-1566.981268274066
 20
1541.567603906384
 30
0.0
 42
-0.2840816496174399
  0
VERTEX
  5
221
  8
DEFAULT
 10
-1567.928016938798
 20
1539.689832031454
 30
0.0
  0
VERTEX
  5
222
  8
DEFAULT
 10
-1568.654547074345
 20
1539.260869565218
 30
0.0
 42
-0.1298411442902251
  0
VERTEX
  5
223
  8
DEFAULT
 10
-1569.642183308396
 20
1539.000000000001
 30
0.0
  0
VERTEX
  5
224
  8
DEFAULT
 10
-1574.0
 20
1539.0
 30
0.0
 42
-0.4142135623729521
  0
VERTEX
  5
225
  8
DEFAULT
 10
-1576.0
 20
1541.0
 30
0.0
  0
VERTEX
  5
226
  8
DEFAULT
 10
-1576.0
 20
1546.928932188134
 30
0.0
 42
-0.6681786379192762
  0
VERTEX
  5
227
  8
DEFAULT
 10
-1572.585786437626
 20
1548.343145750508
 30
0.0
  0
SEQEND
  5
228
  8
DEFAULT
  0
POLYLINE
  5
229
  8
DEFAULT
 66
     1
 10
0.0
 20
0.0
 30
0.0
 70
     1
  0
VERTEX
  5
22A
  8
DEFAULT
 10
-1594.414578041303
 20
1578.657218728422
 30
0.0
 42
-0.196261568281224
  0
VERTEX
  5
22B
  8
DEFAULT
 10
-1595.000260342092
 20
1580.051023064854
 30
0.0
  0
VERTEX
  5
22C
  8
DEFAULT
 10
-1595.018731725933
 20
1580.432396093616
 30
0.0
 42
-0.2840816496167773
  0
VERTEX
  5
22D
  8
DEFAULT
 10
-1594.071983061202
 20
1582.310167968546
 30
0.0
  0
VERTEX
  5
22E
  8
DEFAULT
 10
-1593.345452925656
 20
1582.739130434782
 30
0.0
 42
-0.1298411442898343
  0
VERTEX
  5
22F
  8
DEFAULT
 10
-1592.357816691603
 20
1582.999999999999
 30
0.0
  0
VERTEX
  5
230
  8
DEFAULT
 10
-1588.0
 20
1583.0
 30
0.0
 42
-0.414213562372905
  0
VERTEX
  5
231
  8
DEFAULT
 10
-1586.0
 20
1581.0
 30
0.0
  0
VERTEX
  5
232
  8
DEFAULT
 10
-1586.0
 20
1575.071067811865
 30
0.0
 42
-0.6681786379194479
  0
VERTEX
  5
233
  8
DEFAULT
 10
-1589.414213562373
 20
1573.656854249492
 30
0.0
  0
SEQEND
  5
234
  8
DEFAULT
  0
POLYLINE
  5
235
  8
DEFAULT
 66
     1
 10
0.0
 20
0.0
 30
0.0
 70
     1
  0
VERTEX
  5
236
  8
DEFAULT
 10
-1567.928016938798
 20
1582.310167968547
 30
0.0
 42
-0.2840816496170759
  0
VERTEX
  5
237
  8
DEFAULT
 10
-1566.981268274068
 20
1580.432396093617
 30
0.0
  0
VERTEX
  5
238
  8
DEFAULT
 10
-1566.999739657908
 20
1580.051023064855
 30
0.0
 42
-0.1962615682814708
  0
VERTEX
  5
239
  8
DEFAULT
 10
-1567.585421958697
 20
1578.657218728422
 30
0.0
  0
VERTEX
  5
23A
  8
DEFAULT
 10
-1572.585786437627
 20
1573.656854249492
 30
0.0
 42
-0.6681786379192062
  0
VERTEX
  5
23B
  8
DEFAULT
 10
-1576.0
 20
1575.071067811866
 30
0.0
  0
VERTEX
  5
23C
  8
DEFAULT
 10
-1576.0
 20
1581.0
 30
0.0
 42
-0.4142135623731283
  0
VERTEX
  5
23D
  8
DEFAULT
 10
-1574.0
 20
1583.0
 30
0.0
  0
VERTEX
  5
23E
  8
DEFAULT
 10
-1569.642183308396
 20
1582.999999999999
 30
0.0
 42
-0.129841144289554
  0
VERTEX
  5
23F
  8
DEFAULT
 10
-1568.654547074344
 20
1582.739130434782
 30
0.0
  0
SEQEND
  5
240
  8
DEFAULT
  0
ENDSEC
  0
EOF
