  0
SECTION
  2
HEADER
  9
$ACADVER
  1
AC1009
  9
$DWGCODEPAGE
  3
ansi_1252
  9
$INSBASE
 10
0.0
 20
0.0
 30
0.0
  9
$EXTMIN
 10
-1741.000000000001
 20
1527.0
 30
-1.342824284973773
  9
$EXTMAX
 10
-1496.948979927454
 20
1586.0
 30
0.3987149186436767
  9
$LIMMIN
 10
0.0
 20
0.0
  9
$LIMMAX
 10
12.0
 20
9.0
  9
$ORTHOMODE
 70
     0
  9
$REGENMODE
 70
     1
  9
$FILLMODE
 70
     1
  9
$QTEXTMODE
 70
     0
  9
$MIRRTEXT
 70
     1
  9
$DRAGMODE
 70
     2
  9
$LTSCALE
 40
1.0
  9
$OSMODE
 70
    37
  9
$ATTMODE
 70
     1
  9
$TEXTSIZE
 40
0.2
  9
$TRACEWID
 40
0.05
  9
$TEXTSTYLE
  7
STANDARD
  9
$CLAYER
  8
DEFAULT
  9
$CELTYPE
  6
BYLAYER
  9
$CECOLOR
 62
   256
  9
$DIMSCALE
 40
1.0
  9
$DIMASZ
 40
0.18
  9
$DIMEXO
 40
0.0625
  9
$DIMDLI
 40
0.38
  9
$DIMRND
 40
0.0
  9
$DIMDLE
 40
0.0
  9
$DIMEXE
 40
0.18
  9
$DIMTP
 40
0.0
  9
$DIMTM
 40
0.0
  9
$DIMTXT
 40
0.18
  9
$DIMCEN
 40
0.09
  9
$DIMTSZ
 40
0.0
  9
$DIMTOL
 70
     0
  9
$DIMLIM
 70
     0
  9
$DIMTIH
 70
     1
  9
$DIMTOH
 70
     1
  9
$DIMSE1
 70
     0
  9
$DIMSE2
 70
     0
  9
$DIMTAD
 70
     0
  9
$DIMZIN
 70
     0
  9
$DIMBLK
  1

  9
$DIMASO
 70
     1
  9
$DIMSHO
 70
     1
  9
$DIMPOST
  1

  9
$DIMAPOST
  1

  9
$DIMALT
 70
     0
  9
$DIMALTD
 70
     2
  9
$DIMALTF
 40
25.4
  9
$DIMLFAC
 40
1.0
  9
$DIMTOFL
 70
     0
  9
$DIMTVP
 40
0.0
  9
$DIMTIX
 70
     0
  9
$DIMSOXD
 70
     0
  9
$DIMSAH
 70
     0
  9
$DIMBLK1
  1

  9
$DIMBLK2
  1

  9
$DIMSTYLE
  2
STANDARD_ACAD
  9
$DIMCLRD
 70
     0
  9
$DIMCLRE
 70
     0
  9
$DIMCLRT
 70
     0
  9
$DIMTFAC
 40
1.0
  9
$DIMGAP
 40
0.09
  9
$LUNITS
 70
     2
  9
$LUPREC
 70
     3
  9
$SKETCHINC
 40
0.1
  9
$FILLETRAD
 40
0.0
  9
$AUNITS
 70
     0
  9
$AUPREC
 70
     0
  9
$MENU
  1
.
  9
$ELEVATION
 40
0.0
  9
$PELEVATION
 40
0.0
  9
$THICKNESS
 40
0.0
  9
$LIMCHECK
 70
     0
  9
$CHAMFERA
 40
0.0
  9
$CHAMFERB
 40
0.0
  9
$SKPOLY
 70
     0
  9
$TDCREATE
 40
2461196.606517222
  9
$TDUPDATE
 40
2461196.606538842
  9
$TDINDWG
 40
0.0000000116
  9
$TDUSRTIMER
 40
0.0000000116
  9
$USRTIMER
 70
     1
  9
$ANGBASE
 50
0.0
  9
$ANGDIR
 70
     0
  9
$PDMODE
 70
     0
  9
$PDSIZE
 40
0.0
  9
$PLINEWID
 40
0.0
  9
$COORDS
 70
     1
  9
$SPLFRAME
 70
     0
  9
$SPLINETYPE
 70
     6
  9
$SPLINESEGS
 70
     8
  9
$ATTDIA
 70
     0
  9
$ATTREQ
 70
     1
  9
$HANDLING
 70
     1
  9
$HANDSEED
  5
3A2
  9
$SURFTAB1
 70
     6
  9
$SURFTAB2
 70
     6
  9
$SURFTYPE
 70
     6
  9
$SURFU
 70
     6
  9
$SURFV
 70
     6
  9
$UCSNAME
  2

  9
$UCSORG
 10
0.0
 20
0.0
 30
0.0
  9
$UCSXDIR
 10
1.0
 20
0.0
 30
0.0
  9
$UCSYDIR
 10
0.0
 20
1.0
 30
0.0
  9
$PUCSNAME
  2

  9
$PUCSORG
 10
0.0
 20
0.0
 30
0.0
  9
$PUCSXDIR
 10
1.0
 20
0.0
 30
0.0
  9
$PUCSYDIR
 10
0.0
 20
1.0
 30
0.0
  9
$USERI1
 70
     0
  9
$USERI2
 70
     0
  9
$USERI3
 70
     0
  9
$USERI4
 70
     0
  9
$USERI5
 70
     0
  9
$USERR1
 40
0.0
  9
$USERR2
 40
0.0
  9
$USERR3
 40
0.0
  9
$USERR4
 40
0.0
  9
$USERR5
 40
0.0
  9
$WORLDVIEW
 70
     1
  9
$SHADEDGE
 70
     3
  9
$SHADEDIF
 70
    70
  9
$TILEMODE
 70
     1
  9
$MAXACTVP
 70
    64
  9
$PLIMCHECK
 70
     0
  9
$PEXTMIN
 10
1.000000000000000E+20
 20
1.000000000000000E+20
 30
1.000000000000000E+20
  9
$PEXTMAX
 10
-1.000000000000000E+20
 20
-1.000000000000000E+20
 30
-1.000000000000000E+20
  9
$PLIMMIN
 10
0.0
 20
0.0
  9
$PLIMMAX
 10
12.0
 20
9.0
  9
$UNITMODE
 70
     0
  9
$VISRETAIN
 70
     1
  9
$PLINEGEN
 70
     0
  9
$PSLTSCALE
 70
     1
  0
ENDSEC
  0
SECTION
  2
TABLES
  0
TABLE
  2
VPORT
 70
     1
  0
VPORT
  2
*ACTIVE
 70
     0
 10
0.0
 20
0.0
 11
1.0
 21
1.0
 12
10.42990654205607
 22
4.5
 13
0.0
 23
0.0
 14
0.5
 24
0.5
 15
0.5
 25
0.5
 16
0.0
 26
0.0
 36
1.0
 17
0.0
 27
0.0
 37
0.0
 40
9.0
 41
1.972972972850329
 42
50.0
 43
0.0
 44
0.0
 50
0.0
 51
0.0
 71
     0
 72
   100
 73
     1
 74
     3
 75
     0
 76
     0
 77
     0
 78
     0
  0
ENDTAB
  0
TABLE
  2
LTYPE
 70
     1
  0
LTYPE
  2
CONTINUOUS
 70
     0
  3
Solid line
 72
    65
 73
     0
 40
0.0
  0
ENDTAB
  0
TABLE
  2
LAYER
 70
     6
  0
LAYER
  2
0
 70
     0
 62
     7
  6
CONTINUOUS
  0
LAYER
  2
IMG
 70
     0
 62
     7
  6
CONTINUOUS
  0
LAYER
  2
MASK
 70
     0
 62
     7
  6
CONTINUOUS
  0
LAYER
  2
HOLES
 70
     0
 62
    12
  6
CONTINUOUS
  0
LAYER
  2
TRACES
 70
     0
 62
    96
  6
CONTINUOUS
  0
LAYER
  2
DEFAULT
 70
     0
 62
     7
  6
CONTINUOUS
  0
ENDTAB
  0
TABLE
  2
STYLE
 70
     2
  0
STYLE
  2
STANDARD
 70
     0
 40
0.0
 41
1.0
 50
0.0
 71
     0
 42
0.2
  3
txt
  4

  0
STYLE
  2
MILLIMETER_SMALL
 70
     0
 40
0.0
 41
1.0
 50
0.0
 71
     0
 42
0.2
  3
arial.ttf
  4

  0
ENDTAB
  0
TABLE
  2
VIEW
 70
     0
  0
ENDTAB
  0
TABLE
  2
UCS
 70
     0
  0
ENDTAB
  0
TABLE
  2
APPID
 70
     3
  0
APPID
  2
ACAD
 70
     0
  0
APPID
  2
RHINO
 70
     0
  0
APPID
  2
ACADANNOTATIVE
 70
     0
  0
ENDTAB
  0
TABLE
  2
DIMSTYLE
 70
     1
  0
DIMSTYLE
  2
STANDARD_ACAD
 70
     0
  3

  4

  5

  6

  7

 40
1.0
 41
0.18
 42
0.0625
 43
0.38
 44
0.18
 45
0.0
 46
0.0
 47
0.0
 48
0.0
140
0.18
141
0.09
142
0.0
143
25.4
144
1.0
145
0.0
146
1.0
147
0.09
 71
     0
 72
     0
 73
     1
 74
     1
 75
     0
 76
     0
 77
     0
 78
     0
170
     0
171
     2
172
     0
173
     0
174
     0
175
     0
176
     0
177
     0
178
     0
  0
ENDTAB
  0
ENDSEC
  0
SECTION
  2
BLOCKS
  0
BLOCK
  8
0
  2
$MODEL_SPACE
 70
     0
 10
0.0
 20
0.0
 30
0.0
  3
$MODEL_SPACE
  1

  0
ENDBLK
  5
21
  8
0
  0
BLOCK
 67
     1
  8
0
  2
$PAPER_SPACE
 70
     0
 10
0.0
 20
0.0
 30
0.0
  3
$PAPER_SPACE
  1

  0
ENDBLK
  5
1D
 67
     1
  8
0
  0
ENDSEC
  0
SECTION
  2
ENTITIES
  0
POLYLINE
  5
60
  8
IMG
 66
     1
 10
0.0
 20
0.0
 30
-1.342824284973771
 70
     1
  0
VERTEX
  5
61
  8
IMG
 10
-1535.251071753933
 20
1541.132717807161
 30
-1.342824284973771
 42
0.9950589467941993
  0
VERTEX
  5
62
  8
IMG
 10
-1540.573841520442
 20
1546.455487570687
 30
-1.342824284973771
 42
-0.6663889341065609
  0
VERTEX
  5
63
  8
IMG
 10
-1541.425639332041
 20
1546.81078786581
 30
-1.342824284973771
  0
VERTEX
  5
64
  8
IMG
 10
-1541.425639331705
 20
1543.780912139941
 30
-1.342824284973771
 42
0.414212806050161
  0
VERTEX
  5
65
  8
IMG
 10
-1537.925639757572
 20
1540.28091999576
 30
-1.342824284973771
  0
VERTEX
  5
66
  8
IMG
 10
-1534.895771458558
 20
1540.280919995761
 30
-1.342824284973771
 42
-0.6663889339440913
  0
SEQEND
  5
67
  8
IMG
  0
CIRCLE
  5
68
  8
IMG
 10
1537.925639330343
 20
1543.78091999576
 30
1.342824284973773
 40
1.499999999999773
210
0.0
220
0.0
230
-1.0
  0
POLYLINE
  5
69
  8
IMG
 66
     1
 10
0.0
 20
0.0
 30
-1.342824284973746
 70
     1
  0
VERTEX
  5
6A
  8
IMG
 10
-1497.800777738855
 20
1546.455487575189
 30
-1.342824284973746
 42
0.9950589468386168
  0
VERTEX
  5
6B
  8
IMG
 10
-1503.123547502143
 20
1541.132717808442
 30
-1.342824284973746
 42
-0.666388934122885
  0
VERTEX
  5
6C
  8
IMG
 10
-1503.478847797215
 20
1540.280919996811
 30
-1.342824284973746
  0
VERTEX
  5
6D
  8
IMG
 10
-1500.448979927454
 20
1540.280919997269
 30
-1.342824284973746
 42
0.4142134634381265
  0
VERTEX
  5
6E
  8
IMG
 10
-1496.948979927454
 20
1543.780918899281
 30
-1.342824284973746
  0
VERTEX
  5
6F
  8
IMG
 10
-1496.948979927454
 20
1546.810787870565
 30
-1.342824284973746
 42
-0.6663889339432074
  0
SEQEND
  5
70
  8
IMG
  0
CIRCLE
  5
71
  8
IMG
 10
1500.448979927454
 20
1543.780919998779
 30
1.342824284973773
 40
1.500000000000227
210
0.0
220
0.0
230
-1.0
  0
POLYLINE
  5
72
  8
IMG
 66
     1
 10
0.0
 20
0.0
 30
-1.342824284973763
 70
     1
  0
VERTEX
  5
73
  8
IMG
 10
-1503.123547506882
 20
1583.905781590268
 30
-1.342824284973763
 42
0.9950589468383197
  0
VERTEX
  5
74
  8
IMG
 10
-1497.800777740136
 20
1578.583011826979
 30
-1.342824284973763
 42
-0.6663889341233147
  0
VERTEX
  5
75
  8
IMG
 10
-1496.948979928504
 20
1578.227711531907
 30
-1.342824284973763
  0
VERTEX
  5
76
  8
IMG
 10
-1496.948979928963
 20
1581.257610041419
 30
-1.342824284973763
 42
0.4142108993756756
  0
VERTEX
  5
77
  8
IMG
 10
-1500.448979645877
 20
1584.757579401668
 30
-1.342824284973763
  0
VERTEX
  5
78
  8
IMG
 10
-1503.478847802258
 20
1584.757579401668
 30
-1.342824284973763
 42
-0.6663889339442177
  0
SEQEND
  5
79
  8
IMG
  0
CIRCLE
  5
7A
  8
IMG
 10
1500.448979930471
 20
1581.257579401669
 30
1.342824284973773
 40
1.499999999999773
210
0.0
220
0.0
230
-1.0
  0
POLYLINE
  5
7B
  8
IMG
 66
     1
 10
0.0
 20
0.0
 30
-1.342824284973771
 70
     1
  0
VERTEX
  5
7C
  8
IMG
 10
-1540.573841521961
 20
1578.58301182224
 30
-1.342824284973771
 42
0.9950589468384046
  0
VERTEX
  5
7D
  8
IMG
 10
-1535.251071758671
 20
1583.905781588987
 30
-1.342824284973771
 42
-0.6663889341234933
  0
VERTEX
  5
7E
  8
IMG
 10
-1534.895771463599
 20
1584.757579400618
 30
-1.342824284973771
  0
VERTEX
  5
7F
  8
IMG
 10
-1537.925639333362
 20
1584.75757940016
 30
-1.342824284973771
 42
0.4142136084659926
  0
VERTEX
  5
80
  8
IMG
 10
-1541.425639333362
 20
1581.257578845718
 30
-1.342824284973771
  0
VERTEX
  5
81
  8
IMG
 10
-1541.425639333362
 20
1578.227711526865
 30
-1.342824284973771
 42
-0.6663889339436369
  0
SEQEND
  5
82
  8
IMG
  0
CIRCLE
  5
83
  8
IMG
 10
1537.925639333361
 20
1581.25757939865
 30
1.342824284973773
 40
1.499999999999773
210
0.0
220
0.0
230
-1.0
  0
CIRCLE
  5
84
  8
IMG
 10
1538.187309630408
 20
1562.519249698716
 30
-0.3987149186436767
 40
1.575000000000273
210
0.0
220
0.0
230
-1.0
  0
POLYLINE
  5
85
  8
IMG
 66
     1
 10
0.0
 20
0.0
 30
0.3987149186436767
 70
     1
  0
VERTEX
  5
86
  8
IMG
 10
-1542.509744131241
 20
1560.00597295659
 30
0.3987149186436767
 42
-0.1324330881547047
  0
VERTEX
  5
87
  8
IMG
 10
-1541.425639333059
 20
1555.984730169797
 30
0.3987149186436767
  0
VERTEX
  5
88
  8
IMG
 10
-1541.425639331705
 20
1543.780912139941
 30
0.3987149186436767
 42
0.414212806050161
  0
VERTEX
  5
89
  8
IMG
 10
-1537.925639757572
 20
1540.28091999576
 30
0.3987149186436767
  0
VERTEX
  5
8A
  8
IMG
 10
-1533.919026472362
 20
1540.280919995761
 30
0.3987149186436767
 42
0.2321906983794896
  0
VERTEX
  5
8B
  8
IMG
 10
-1527.590290710019
 20
1543.387342199257
 30
0.3987149186436767
 42
-0.5155748571051854
  0
VERTEX
  5
8C
  8
IMG
 10
-1514.566653080403
 20
1542.873066743037
 30
0.3987149186436767
 42
0.219662748968265
  0
VERTEX
  5
8D
  8
IMG
 10
-1510.423554647961
 20
1540.280919995761
 30
0.3987149186436767
  0
VERTEX
  5
8E
  8
IMG
 10
-1500.448979927454
 20
1540.280919997269
 30
0.3987149186436767
 42
0.4142134634382217
  0
VERTEX
  5
8F
  8
IMG
 10
-1496.948979927454
 20
1543.780918899281
 30
0.3987149186436767
  0
VERTEX
  5
90
  8
IMG
 10
-1496.948979927454
 20
1547.78923456821
 30
0.3987149186436767
 42
0.2749447286240952
  0
VERTEX
  5
91
  8
IMG
 10
-1501.130878928034
 20
1554.819320254617
 30
0.3987149186436767
 42
-0.5948574721527378
  0
VERTEX
  5
92
  8
IMG
 10
-1501.130878928505
 20
1570.219179142555
 30
0.3987149186436767
 42
0.2749447286482404
  0
VERTEX
  5
93
  8
IMG
 10
-1496.948979928357
 20
1577.249264829939
 30
0.3987149186436767
  0
VERTEX
  5
94
  8
IMG
 10
-1496.948979928963
 20
1581.257610041419
 30
0.3987149186436767
 42
0.4142108993756756
  0
VERTEX
  5
95
  8
IMG
 10
-1500.448979645877
 20
1584.757579401668
 30
0.3987149186436767
  0
VERTEX
  5
96
  8
IMG
 10
-1510.425050064797
 20
1584.757579401668
 30
0.3987149186436767
 42
0.2195678455856283
  0
VERTEX
  5
97
  8
IMG
 10
-1514.566467393053
 20
1582.166061763762
 30
0.3987149186436767
 42
-0.5155070072700624
  0
VERTEX
  5
98
  8
IMG
 10
-1527.589111105942
 20
1581.651832351243
 30
0.3987149186436767
 42
0.2321625894021011
  0
VERTEX
  5
99
  8
IMG
 10
-1533.917324761632
 20
1584.757579400766
 30
0.3987149186436767
  0
VERTEX
  5
9A
  8
IMG
 10
-1537.925639333362
 20
1584.75757940016
 30
0.3987149186436767
 42
0.4142136084658506
  0
VERTEX
  5
9B
  8
IMG
 10
-1541.425639333362
 20
1581.257578845718
 30
0.3987149186436767
  0
VERTEX
  5
9C
  8
IMG
 10
-1541.425639333362
 20
1569.053769228002
 30
0.3987149186436767
 42
-0.1324330881712499
  0
VERTEX
  5
9D
  8
IMG
 10
-1542.509744131358
 20
1565.03252644064
 30
0.3987149186436767
 42
0.2695944650378235
  0
SEQEND
  5
9E
  8
IMG
  0
CIRCLE
  5
9F
  8
IMG
 10
-1538.187309630408
 20
1562.519249698715
 30
0.3987149186436767
 40
1.8
  0
CIRCLE
  5
A0
  8
IMG
 10
-1509.247208375502
 20
1579.227824948611
 30
0.3987149186436767
 40
1.574999999999691
  0
CIRCLE
  5
A1
  8
IMG
 10
-1509.247208375502
 20
1545.81067444882
 30
0.3987149186436767
 40
1.574999999999547
  0
CIRCLE
  5
A2
  8
IMG
 10
-1509.247208375502
 20
1579.227824948611
 30
0.3987149186436767
 40
1.8
  0
CIRCLE
  5
A3
  8
IMG
 10
-1509.247208375502
 20
1545.81067444882
 30
0.3987149186436767
 40
1.8
  0
LINE
  5
A5
  8
MASK
 10
-1620.0
 20
1564.0
 30
0.0
 11
-1620.0
 21
1558.0
 31
0.0
  0
TEXT
  5
A7
  8
MASK
 10
-1629.498793478261
 20
1555.691304347826
 30
0.0
 40
1.5
  1
+5V
  7
MILLIMETER_SMALL
1001
ACADANNOTATIVE
1000
AnnotativeData
1002
{
1070
     1
1070
     0
1002
}
  0
TEXT
  5
A8
  8
MASK
 10
-1622.169782608695
 20
1555.252717391304
 30
0.0
 40
2.5
  1
-
  7
MILLIMETER_SMALL
1001
ACADANNOTATIVE
1000
AnnotativeData
1002
{
1070
     1
1070
     0
1002
}
  0
POLYLINE
  5
A9
  8
MASK
 66
     1
 10
0.0
 20
0.0
 30
0.0
 70
     1
  0
VERTEX
  5
AA
  8
MASK
 10
-1619.445652173913
 20
1558.0
 30
0.0
  0
VERTEX
  5
AB
  8
MASK
 10
-1619.445652173913
 20
1564.0
 30
0.0
  0
VERTEX
  5
AC
  8
MASK
 10
-1629.445652173913
 20
1564.0
 30
0.0
  0
VERTEX
  5
AD
  8
MASK
 10
-1629.445652173913
 20
1558.0
 30
0.0
  0
SEQEND
  5
AE
  8
MASK
  0
POLYLINE
  5
AF
  8
MASK
 66
     1
 10
0.0
 20
0.0
 30
0.0
 70
     1
  0
VERTEX
  5
B0
  8
MASK
 10
-1639.5
 20
1527.0
 30
0.0
  0
VERTEX
  5
B1
  8
MASK
 10
-1639.5
 20
1547.0
 30
0.0
  0
VERTEX
  5
B2
  8
MASK
 10
-1654.5
 20
1547.0
 30
0.0
  0
VERTEX
  5
B3
  8
MASK
 10
-1654.5
 20
1527.0
 30
0.0
  0
SEQEND
  5
B4
  8
MASK
  0
POLYLINE
  5
B5
  8
MASK
 66
     1
 10
0.0
 20
0.0
 30
0.0
 70
     1
  0
VERTEX
  5
B6
  8
MASK
 10
-1650.5
 20
1582.0
 30
0.0
  0
VERTEX
  5
B7
  8
MASK
 10
-1650.5
 20
1548.0
 30
0.0
  0
VERTEX
  5
B8
  8
MASK
 10
-1631.5
 20
1548.0
 30
0.0
  0
VERTEX
  5
B9
  8
MASK
 10
-1631.5
 20
1582.0
 30
0.0
  0
SEQEND
  5
BA
  8
MASK
  0
TEXT
  5
BB
  8
MASK
 10
-1637.453543478261
 20
1551.818076086957
 30
0.0
 40
1.5
  1
16
  7
MILLIMETER_SMALL
1001
ACADANNOTATIVE
1000
AnnotativeData
1002
{
1070
     1
1070
     0
1002
}
  0
TEXT
  5
BC
  8
MASK
 10
-1637.445391304348
 20
1554.358076086957
 30
0.0
 40
1.5
  1
14
  7
MILLIMETER_SMALL
1001
ACADANNOTATIVE
1000
AnnotativeData
1002
{
1070
     1
1070
     0
1002
}
  0
TEXT
  5
BD
  8
MASK
 10
-1637.469847826087
 20
1556.898076086957
 30
0.0
 40
1.5
  1
15
  7
MILLIMETER_SMALL
1001
ACADANNOTATIVE
1000
AnnotativeData
1002
{
1070
     1
1070
     0
1002
}
  0
TEXT
  5
BE
  8
MASK
 10
-1637.461956521739
 20
1559.438076086956
 30
0.0
 40
1.5
  1
A0
  7
MILLIMETER_SMALL
1001
ACADANNOTATIVE
1000
AnnotativeData
1002
{
1070
     1
1070
     0
1002
}
  0
TEXT
  5
BF
  8
MASK
 10
-1637.176630434782
 20
1561.978076086956
 30
0.0
 40
1.5
  1
A1
  7
MILLIMETER_SMALL
1001
ACADANNOTATIVE
1000
AnnotativeData
1002
{
1070
     1
1070
     0
1002
}
  0
TEXT
  5
C0
  8
MASK
 10
-1637.445652173913
 20
1564.518076086956
 30
0.0
 40
1.5
  1
A2
  7
MILLIMETER_SMALL
1001
ACADANNOTATIVE
1000
AnnotativeData
1002
{
1070
     1
1070
     0
1002
}
  0
TEXT
  5
C1
  8
MASK
 10
-1637.461956521739
 20
1567.058076086956
 30
0.0
 40
1.5
  1
A3
  7
MILLIMETER_SMALL
1001
ACADANNOTATIVE
1000
AnnotativeData
1002
{
1070
     1
1070
     0
1002
}
  0
TEXT
  5
C2
  8
MASK
 10
-1639.337804347826
 20
1569.578576086956
 30
0.0
 40
1.5
  1
VCC
  7
MILLIMETER_SMALL
1001
ACADANNOTATIVE
1000
AnnotativeData
1002
{
1070
     1
1070
     0
1002
}
  0
TEXT
  5
C3
  8
MASK
 10
-1639.306304347826
 20
1572.118576086956
 30
0.0
 40
1.5
  1
RST
  7
MILLIMETER_SMALL
1001
ACADANNOTATIVE
1000
AnnotativeData
1002
{
1070
     1
1070
     0
1002
}
  0
TEXT
  5
C4
  8
MASK
 10
-1639.643608695652
 20
1574.658576086957
 30
0.0
 40
1.5
  1
GND
  7
MILLIMETER_SMALL
1001
ACADANNOTATIVE
1000
AnnotativeData
1002
{
1070
     1
1070
     0
1002
}
  0
TEXT
  5
C5
  8
MASK
 10
-1640.015543478261
 20
1577.224076086957
 30
0.0
 40
1.5
  1
RAW
  7
MILLIMETER_SMALL
1001
ACADANNOTATIVE
1000
AnnotativeData
1002
{
1070
     1
1070
     0
1002
}
  0
TEXT
  5
C6
  8
MASK
 10
-1637.453543478261
 20
1549.278076086956
 30
0.0
 40
1.5
  1
10
  7
MILLIMETER_SMALL
1001
ACADANNOTATIVE
1000
AnnotativeData
1002
{
1070
     1
1070
     0
1002
}
  0
TEXT
  5
C7
  8
MASK
 10
-1646.895858695652
 20
1549.278076086956
 30
0.0
 40
1.5
  1
9
  7
MILLIMETER_SMALL
1001
ACADANNOTATIVE
1000
AnnotativeData
1002
{
1070
     1
1070
     0
1002
}
  0
TEXT
  5
C8
  8
MASK
 10
-1646.894358695652
 20
1551.818076086957
 30
0.0
 40
1.5
  1
8
  7
MILLIMETER_SMALL
1001
ACADANNOTATIVE
1000
AnnotativeData
1002
{
1070
     1
1070
     0
1002
}
  0
TEXT
  5
C9
  8
MASK
 10
-1646.907858695652
 20
1554.364076086957
 30
0.0
 40
1.5
  1
7
  7
MILLIMETER_SMALL
1001
ACADANNOTATIVE
1000
AnnotativeData
1002
{
1070
     1
1070
     0
1002
}
  0
TEXT
  5
CA
  8
MASK
 10
-1646.886858695652
 20
1556.898076086957
 30
0.0
 40
1.5
  1
6
  7
MILLIMETER_SMALL
1001
ACADANNOTATIVE
1000
AnnotativeData
1002
{
1070
     1
1070
     0
1002
}
  0
TEXT
  5
CB
  8
MASK
 10
-1646.895858695652
 20
1559.444076086957
 30
0.0
 40
1.5
  1
5
  7
MILLIMETER_SMALL
1001
ACADANNOTATIVE
1000
AnnotativeData
1002
{
1070
     1
1070
     0
1002
}
  0
TEXT
  5
CC
  8
MASK
 10
-1646.835858695652
 20
1561.984076086957
 30
0.0
 40
1.5
  1
4
  7
MILLIMETER_SMALL
1001
ACADANNOTATIVE
1000
AnnotativeData
1002
{
1070
     1
1070
     0
1002
}
  0
TEXT
  5
CD
  8
MASK
 10
-1646.897358695652
 20
1564.518076086956
 30
0.0
 40
1.5
  1
3
  7
MILLIMETER_SMALL
1001
ACADANNOTATIVE
1000
AnnotativeData
1002
{
1070
     1
1070
     0
1002
}
  0
TEXT
  5
CE
  8
MASK
 10
-1646.870358695652
 20
1567.058076086956
 30
0.0
 40
1.5
  1
2
  7
MILLIMETER_SMALL
1001
ACADANNOTATIVE
1000
AnnotativeData
1002
{
1070
     1
1070
     0
1002
}
  0
TEXT
  5
CF
  8
MASK
 10
-1646.919858695652
 20
1569.578576086956
 30
0.0
 40
1.5
  1
GND
  7
MILLIMETER_SMALL
1001
ACADANNOTATIVE
1000
AnnotativeData
1002
{
1070
     1
1070
     0
1002
}
  0
TEXT
  5
D0
  8
MASK
 10
-1646.919858695652
 20
1572.118576086956
 30
0.0
 40
1.5
  1
GND
  7
MILLIMETER_SMALL
1001
ACADANNOTATIVE
1000
AnnotativeData
1002
{
1070
     1
1070
     0
1002
}
  0
TEXT
  5
D1
  8
MASK
 10
-1646.973858695652
 20
1574.678076086956
 30
0.0
 40
1.5
  1
RX0
  7
MILLIMETER_SMALL
1001
ACADANNOTATIVE
1000
AnnotativeData
1002
{
1070
     1
1070
     0
1002
}
  0
TEXT
  5
D2
  8
MASK
 10
-1646.858358695652
 20
1577.218076086956
 30
0.0
 40
1.5
  1
TX0
  7
MILLIMETER_SMALL
1001
ACADANNOTATIVE
1000
AnnotativeData
1002
{
1070
     1
1070
     0
1002
}
  0
POLYLINE
  5
D3
  8
MASK
 66
     1
 10
0.0
 20
0.0
 30
0.0
 70
     1
  0
VERTEX
  5
D4
  8
MASK
 10
-1650.54
 20
1539.0
 30
0.0
  0
VERTEX
  5
D5
  8
MASK
 10
-1643.46
 20
1539.0
 30
0.0
  0
VERTEX
  5
D6
  8
MASK
 10
-1643.46
 20
1541.0
 30
0.0
  0
VERTEX
  5
D7
  8
MASK
 10
-1650.54
 20
1541.0
 30
0.0
  0
SEQEND
  5
D8
  8
MASK
  0
TEXT
  5
D9
  8
MASK
 10
-1649.2
 20
1542.75
 30
0.0
 40
2.5
  1
IR
  7
MILLIMETER_SMALL
1001
ACADANNOTATIVE
1000
AnnotativeData
1002
{
1070
     1
1070
     0
1002
}
  0
TEXT
  5
DA
  8
MASK
 10
-1663.227173913043
 20
1556.474031417345
 30
0.0
 40
2.5
  1
R220
 50
89.99999999999996
  7
MILLIMETER_SMALL
1001
ACADANNOTATIVE
1000
AnnotativeData
1002
{
1070
     1
1070
     0
1002
}
  0
TEXT
  5
DB
  8
MASK
 10
-1656.21
 20
1557.26675
 30
0.0
 40
1.5
  1
DI
 50
90.00000000000006
  7
MILLIMETER_SMALL
1001
ACADANNOTATIVE
1000
AnnotativeData
1002
{
1070
     1
1070
     0
1002
}
  0
TEXT
  5
DC
  8
MASK
 10
-1656.21
 20
1560.298065217391
 30
0.0
 40
1.5
  1
V
 50
90.00000000000026
  7
MILLIMETER_SMALL
1001
ACADANNOTATIVE
1000
AnnotativeData
1002
{
1070
     1
1070
     0
1002
}
  0
TEXT
  5
DD
  8
MASK
 10
-1656.188576086956
 20
1562.626010869565
 30
0.0
 40
1.5
  1
G
 50
89.99999999999997
  7
MILLIMETER_SMALL
1001
ACADANNOTATIVE
1000
AnnotativeData
1002
{
1070
     1
1070
     0
1002
}
  0
POLYLINE
  5
DE
  8
MASK
 66
     1
 10
0.0
 20
0.0
 30
0.0
 70
     1
  0
VERTEX
  5
DF
  8
MASK
 10
-1655.46
 20
1564.54
 30
0.0
  0
VERTEX
  5
E0
  8
MASK
 10
-1655.46
 20
1557.46
 30
0.0
  0
VERTEX
  5
E1
  8
MASK
 10
-1653.46
 20
1557.46
 30
0.0
  0
VERTEX
  5
E2
  8
MASK
 10
-1653.46
 20
1564.54
 30
0.0
  0
SEQEND
  5
E3
  8
MASK
  0
POLYLINE
  5
E4
  8
MASK
 66
     1
 10
0.0
 20
0.0
 30
0.0
 70
     1
  0
VERTEX
  5
E5
  8
MASK
 10
-1677.46
 20
1548.0
 30
0.0
  0
VERTEX
  5
E6
  8
MASK
 10
-1651.46
 20
1548.0
 30
0.0
  0
VERTEX
  5
E7
  8
MASK
 10
-1651.46
 20
1574.0
 30
0.0
  0
VERTEX
  5
E8
  8
MASK
 10
-1677.46
 20
1574.0
 30
0.0
  0
SEQEND
  5
E9
  8
MASK
  0
TEXT
  5
EA
  8
MASK
 10
-1661.17
 20
1564.672119565218
 30
0.0
 40
2.5
  1
LED
 50
270.0
  7
MILLIMETER_SMALL
1001
ACADANNOTATIVE
1000
AnnotativeData
1002
{
1070
     1
1070
     0
1002
}
  0
TEXT
  5
EB
  8
MASK
 10
-1627.290971210681
 20
1564.714293478261
 30
0.0
 40
2.5
  1
DC
  7
MILLIMETER_SMALL
1001
ACADANNOTATIVE
1000
AnnotativeData
1002
{
1070
     1
1070
     0
1002
}
  0
POLYLINE
  5
EC
  8
MASK
 66
     1
 10
0.0
 20
0.0
 30
0.0
 70
     1
  0
VERTEX
  5
ED
  8
MASK
 10
-1645.0
 20
1580.0
 30
0.0
  0
VERTEX
  5
EE
  8
MASK
 10
-1637.0
 20
1580.0
 30
0.0
  0
VERTEX
  5
EF
  8
MASK
 10
-1637.0
 20
1584.0
 30
0.0
  0
VERTEX
  5
F0
  8
MASK
 10
-1645.0
 20
1584.0
 30
0.0
  0
SEQEND
  5
F1
  8
MASK
  0
TEXT
  5
F2
  8
MASK
 10
-1647.884487277651
 20
1537.228576086957
 30
0.0
 40
1.5
  1
G
  7
MILLIMETER_SMALL
1001
ACADANNOTATIVE
1000
AnnotativeData
1002
{
1070
     1
1070
     0
1002
}
  0
TEXT
  5
F3
  8
MASK
 10
-1645.216943206921
 20
1537.25
 30
0.0
 40
1.5
  1
V
  7
MILLIMETER_SMALL
1001
ACADANNOTATIVE
1000
AnnotativeData
1002
{
1070
     1
1070
     0
1002
}
  0
TEXT
  5
F4
  8
MASK
 10
-1650.251426136215
 20
1537.228576086957
 30
0.0
 40
1.5
  1
S
  7
MILLIMETER_SMALL
1001
ACADANNOTATIVE
1000
AnnotativeData
1002
{
1070
     1
1070
     0
1002
}
  0
POLYLINE
  5
F6
  8
HOLES
 66
     1
 10
0.0
 20
0.0
 30
0.0
 70
     1
  0
VERTEX
  5
F7
  8
HOLES
 10
-1738.704347826088
 20
1559.65
 30
0.0
  0
VERTEX
  5
F8
  8
HOLES
 10
-1738.704347826088
 20
1562.35
 30
0.0
 42
-1.0
  0
VERTEX
  5
F9
  8
HOLES
 10
-1738.404347826087
 20
1562.35
 30
0.0
  0
VERTEX
  5
FA
  8
HOLES
 10
-1738.404347826087
 20
1559.65
 30
0.0
 42
-0.9999999999999999
  0
SEQEND
  5
FB
  8
HOLES
  0
POLYLINE
  5
FC
  8
HOLES
 66
     1
 10
0.0
 20
0.0
 30
0.0
 70
     1
  0
VERTEX
  5
FD
  8
HOLES
 10
-1732.704347826088
 20
1559.65
 30
0.0
  0
VERTEX
  5
FE
  8
HOLES
 10
-1732.704347826088
 20
1562.35
 30
0.0
 42
-1.0
  0
VERTEX
  5
FF
  8
HOLES
 10
-1732.404347826087
 20
1562.35
 30
0.0
  0
VERTEX
  5
100
  8
HOLES
 10
-1732.404347826087
 20
1559.65
 30
0.0
 42
-0.9999999999999999
  0
SEQEND
  5
101
  8
HOLES
  0
CIRCLE
  5
102
  8
HOLES
 10
1711.38
 20
1577.97
 30
0.0
 40
0.43
210
0.0
220
0.0
230
-1.0
  0
CIRCLE
  5
103
  8
HOLES
 10
1711.38
 20
1570.35
 30
0.0
 40
0.43
210
0.0
220
0.0
230
-1.0
  0
CIRCLE
  5
104
  8
HOLES
 10
1711.38
 20
1560.19
 30
0.0
 40
0.43
210
0.0
220
0.0
230
-1.0
  0
CIRCLE
  5
105
  8
HOLES
 10
1711.38
 20
1555.11
 30
0.0
 40
0.43
210
0.0
220
0.0
230
-1.0
  0
CIRCLE
  5
106
  8
HOLES
 10
1711.38
 20
1550.03
 30
0.0
 40
0.43
210
0.0
220
0.0
230
-1.0
  0
CIRCLE
  5
107
  8
HOLES
 10
1726.62
 20
1575.43
 30
0.0
 40
0.43
210
0.0
220
0.0
230
-1.0
  0
CIRCLE
  5
108
  8
HOLES
 10
1726.62
 20
1570.35
 30
0.0
 40
0.43
210
0.0
220
0.0
230
-1.0
  0
CIRCLE
  5
109
  8
HOLES
 10
1726.62
 20
1565.27
 30
0.0
 40
0.43
210
0.0
220
0.0
230
-1.0
  0
POLYLINE
  5
10B
  8
TRACES
 66
     1
 10
0.0
 20
0.0
 30
0.0
 70
     1
  0
VERTEX
  5
10C
  8
TRACES
 10
-1710.550022556184
 20
1577.101013453559
 30
0.0
  0
VERTEX
  5
10D
  8
TRACES
 10
-1712.209977443817
 20
1577.101013453559
 30
0.0
 42
-0.9999999999999999
  0
VERTEX
  5
10E
  8
TRACES
 10
-1712.209977443817
 20
1578.838986546441
 30
0.0
  0
VERTEX
  5
10F
  8
TRACES
 10
-1710.550022556184
 20
1578.838986546441
 30
0.0
 42
-1.0
  0
SEQEND
  5
110
  8
TRACES
  0
POLYLINE
  5
111
  8
TRACES
 66
     1
 10
0.0
 20
0.0
 30
0.0
 70
     1
  0
VERTEX
  5
112
  8
TRACES
 10
-1710.550022556184
 20
1569.481013453559
 30
0.0
  0
VERTEX
  5
113
  8
TRACES
 10
-1712.209977443817
 20
1569.481013453559
 30
0.0
 42
-0.9999999999999999
  0
VERTEX
  5
114
  8
TRACES
 10
-1712.209977443817
 20
1571.218986546441
 30
0.0
  0
VERTEX
  5
115
  8
TRACES
 10
-1710.550022556184
 20
1571.218986546441
 30
0.0
 42
-0.9999999999999999
  0
SEQEND
  5
116
  8
TRACES
  0
POLYLINE
  5
117
  8
TRACES
 66
     1
 10
0.0
 20
0.0
 30
0.0
 70
     1
  0
VERTEX
  5
118
  8
TRACES
 10
-1710.550022556184
 20
1549.161013453559
 30
0.0
  0
VERTEX
  5
119
  8
TRACES
 10
-1712.209977443817
 20
1549.161013453559
 30
0.0
 42
-1.0
  0
VERTEX
  5
11A
  8
TRACES
 10
-1712.209977443817
 20
1550.89898654644
 30
0.0
  0
VERTEX
  5
11B
  8
TRACES
 10
-1710.550022556184
 20
1550.89898654644
 30
0.0
 42
-1.0
  0
SEQEND
  5
11C
  8
TRACES
  0
POLYLINE
  5
11D
  8
TRACES
 66
     1
 10
0.0
 20
0.0
 30
0.0
 70
     1
  0
VERTEX
  5
11E
  8
TRACES
 10
-1725.790022556184
 20
1564.401013453559
 30
0.0
  0
VERTEX
  5
11F
  8
TRACES
 10
-1727.449977443816
 20
1564.401013453559
 30
0.0
 42
-0.9999999999999999
  0
VERTEX
  5
120
  8
TRACES
 10
-1727.449977443816
 20
1566.138986546441
 30
0.0
  0
VERTEX
  5
121
  8
TRACES
 10
-1725.790022556184
 20
1566.138986546441
 30
0.0
 42
-0.9999999999999999
  0
SEQEND
  5
122
  8
TRACES
  0
POLYLINE
  5
123
  8
TRACES
 66
     1
 10
0.0
 20
0.0
 30
0.0
 70
     1
  0
VERTEX
  5
124
  8
TRACES
 10
-1686.410022556184
 20
1562.671013453559
 30
0.0
  0
VERTEX
  5
125
  8
TRACES
 10
-1688.069977443816
 20
1562.671013453559
 30
0.0
 42
-0.9999999999999999
  0
VERTEX
  5
126
  8
TRACES
 10
-1688.069977443816
 20
1564.408986546441
 30
0.0
  0
VERTEX
  5
127
  8
TRACES
 10
-1686.410022556184
 20
1564.408986546441
 30
0.0
 42
-0.9999999999999999
  0
SEQEND
  5
128
  8
TRACES
  0
CIRCLE
  5
129
  8
HOLES
 10
1687.24
 20
1563.54
 30
0.0
 40
0.5
210
0.0
220
0.0
230
-1.0
  0
CIRCLE
  5
12A
  8
HOLES
 10
1687.24
 20
1561.0
 30
0.0
 40
0.5
210
0.0
220
0.0
230
-1.0
  0
POLYLINE
  5
12B
  8
TRACES
 66
     1
 10
0.0
 20
0.0
 30
0.0
 70
     1
  0
VERTEX
  5
12C
  8
TRACES
 10
-1686.410022556184
 20
1560.131013453559
 30
0.0
  0
VERTEX
  5
12D
  8
TRACES
 10
-1688.069977443816
 20
1560.131013453559
 30
0.0
 42
-0.9999999999999999
  0
VERTEX
  5
12E
  8
TRACES
 10
-1688.069977443816
 20
1561.868986546441
 30
0.0
  0
VERTEX
  5
12F
  8
TRACES
 10
-1686.410022556184
 20
1561.868986546441
 30
0.0
 42
-0.9999999999999999
  0
SEQEND
  5
130
  8
TRACES
  0
POLYLINE
  5
131
  8
TRACES
 66
     1
 10
0.0
 20
0.0
 30
0.0
 70
     1
  0
VERTEX
  5
132
  8
TRACES
 10
-1686.410022556184
 20
1557.591013453559
 30
0.0
  0
VERTEX
  5
133
  8
TRACES
 10
-1688.069977443816
 20
1557.591013453559
 30
0.0
 42
-0.9999999999999999
  0
VERTEX
  5
134
  8
TRACES
 10
-1688.069977443816
 20
1559.328986546441
 30
0.0
  0
VERTEX
  5
135
  8
TRACES
 10
-1686.410022556184
 20
1559.328986546441
 30
0.0
 42
-0.9999999999999999
  0
SEQEND
  5
136
  8
TRACES
  0
CIRCLE
  5
137
  8
HOLES
 10
1687.24
 20
1558.46
 30
0.0
 40
0.5
210
0.0
220
0.0
230
-1.0
  0
CIRCLE
  5
138
  8
HOLES
 10
1705.54
 20
1561.0
 30
0.0
 40
0.5
210
0.0
220
0.0
230
-1.0
  0
CIRCLE
  5
139
  8
HOLES
 10
1705.54
 20
1563.54
 30
0.0
 40
0.5
210
0.0
220
0.0
230
-1.0
  0
CIRCLE
  5
13A
  8
HOLES
 10
1695.54
 20
1566.960987939084
 30
0.0
 40
0.5
210
0.0
220
0.0
230
-1.0
  0
POLYLINE
  5
13B
  8
TRACES
 66
     1
 10
0.0
 20
0.0
 30
0.0
 70
     1
  0
VERTEX
  5
13C
  8
TRACES
 10
-1725.790022556184
 20
1577.101013453559
 30
0.0
  0
VERTEX
  5
13D
  8
TRACES
 10
-1727.449977443816
 20
1577.101013453559
 30
0.0
 42
-0.9999999999999999
  0
VERTEX
  5
13E
  8
TRACES
 10
-1727.449977443816
 20
1578.838986546441
 30
0.0
  0
VERTEX
  5
13F
  8
TRACES
 10
-1725.790022556184
 20
1578.838986546441
 30
0.0
 42
-1.0
  0
SEQEND
  5
140
  8
TRACES
  0
CIRCLE
  5
141
  8
HOLES
 10
1726.62
 20
1577.97
 30
0.0
 40
0.43
210
0.0
220
0.0
230
-1.0
  0
POLYLINE
  5
142
  8
TRACES
 66
     1
 10
0.0
 20
0.0
 30
0.0
 70
     1
  0
VERTEX
  5
143
  8
TRACES
 10
-1725.790022556184
 20
1549.161013453559
 30
0.0
  0
VERTEX
  5
144
  8
TRACES
 10
-1727.449977443816
 20
1549.161013453559
 30
0.0
 42
-1.0
  0
VERTEX
  5
145
  8
TRACES
 10
-1727.449977443816
 20
1550.89898654644
 30
0.0
  0
VERTEX
  5
146
  8
TRACES
 10
-1725.790022556184
 20
1550.89898654644
 30
0.0
 42
-1.0
  0
SEQEND
  5
147
  8
TRACES
  0
CIRCLE
  5
148
  8
HOLES
 10
1726.62
 20
1550.03
 30
0.0
 40
0.43
210
0.0
220
0.0
230
-1.0
  0
CIRCLE
  5
149
  8
HOLES
 10
1695.54
 20
1555.11
 30
0.0
 40
0.5
210
0.0
220
0.0
230
-1.0
  0
CIRCLE
  5
14A
  8
HOLES
 10
1705.54
 20
1558.46
 30
0.0
 40
0.5
210
0.0
220
0.0
230
-1.0
  0
POLYLINE
  5
14B
  8
TRACES
 66
     1
 10
0.0
 20
0.0
 30
0.0
 70
     1
  0
VERTEX
  5
14C
  8
TRACES
 10
-1703.47183407668
 20
1558.06
 30
0.0
 42
0.1830391505854928
  0
VERTEX
  5
14D
  8
TRACES
 10
-1704.134325993416
 20
1557.80906906241
 30
0.0
 42
-0.1830391505848994
  0
VERTEX
  5
14E
  8
TRACES
 10
-1704.710022556184
 20
1557.59101345356
 30
0.0
  0
VERTEX
  5
14F
  8
TRACES
 10
-1706.369977443816
 20
1557.591013453559
 30
0.0
 42
-0.9999999999994765
  0
VERTEX
  5
150
  8
TRACES
 10
-1706.369977443816
 20
1559.328986546441
 30
0.0
  0
VERTEX
  5
151
  8
TRACES
 10
-1704.710022556184
 20
1559.328986546441
 30
0.0
 42
-0.1830391505853095
  0
VERTEX
  5
152
  8
TRACES
 10
-1704.134325993415
 20
1559.11093093759
 30
0.0
 42
0.1830391505852087
  0
VERTEX
  5
153
  8
TRACES
 10
-1703.47183407668
 20
1558.86
 30
0.0
  0
VERTEX
  5
154
  8
TRACES
 10
-1702.119898987323
 20
1558.86
 30
0.0
 42
0.1989123673796832
  0
VERTEX
  5
155
  8
TRACES
 10
-1701.412792206136
 20
1559.152893218814
 30
0.0
  0
VERTEX
  5
156
  8
TRACES
 10
-1696.232893218814
 20
1564.332792206136
 30
0.0
 42
0.198912367379436
  0
VERTEX
  5
157
  8
TRACES
 10
-1695.940000000001
 20
1565.039898987322
 30
0.0
  0
VERTEX
  5
158
  8
TRACES
 10
-1695.940000000001
 20
1565.18104833443
 30
0.0
 42
0.3260895571029292
  0
VERTEX
  5
159
  8
TRACES
 10
-1696.635009813062
 20
1566.133403827863
 30
0.0
 42
-0.8559117307188291
  0
VERTEX
  5
15A
  8
TRACES
 10
-1696.369977443816
 20
1567.829974485525
 30
0.0
  0
VERTEX
  5
15B
  8
TRACES
 10
-1694.710022556184
 20
1567.829974485525
 30
0.0
 42
-0.8559117307185139
  0
VERTEX
  5
15C
  8
TRACES
 10
-1694.444990186938
 20
1566.133403827862
 30
0.0
 42
0.3260895571031473
  0
VERTEX
  5
15D
  8
TRACES
 10
-1695.14
 20
1565.18104833443
 30
0.0
  0
VERTEX
  5
15E
  8
TRACES
 10
-1695.14
 20
1564.708528137424
 30
0.0
 42
-0.1989123673796832
  0
VERTEX
  5
15F
  8
TRACES
 10
-1695.432893218814
 20
1564.001421356237
 30
0.0
  0
VERTEX
  5
160
  8
TRACES
 10
-1701.081421356237
 20
1558.352893218814
 30
0.0
 42
-0.198912367379936
  0
VERTEX
  5
161
  8
TRACES
 10
-1701.788528137424
 20
1558.06
 30
0.0
  0
SEQEND
  5
162
  8
TRACES
  0
POLYLINE
  5
163
  8
TRACES
 66
     1
 10
0.0
 20
0.0
 30
0.0
 70
     1
  0
VERTEX
  5
164
  8
TRACES
 10
-1697.60816592332
 20
1555.51
 30
0.0
 42
0.1830391505855345
  0
VERTEX
  5
165
  8
TRACES
 10
-1696.945674006585
 20
1555.76093093759
 30
0.0
 42
-0.1830391505848433
  0
VERTEX
  5
166
  8
TRACES
 10
-1696.369977443816
 20
1555.978986546441
 30
0.0
  0
VERTEX
  5
167
  8
TRACES
 10
-1694.710022556184
 20
1555.978986546441
 30
0.0
 42
-0.9999999999998689
  0
VERTEX
  5
168
  8
TRACES
 10
-1694.710022556184
 20
1554.241013453559
 30
0.0
  0
VERTEX
  5
169
  8
TRACES
 10
-1696.369977443816
 20
1554.241013453559
 30
0.0
 42
-0.1830391505852073
  0
VERTEX
  5
16A
  8
TRACES
 10
-1696.945674006584
 20
1554.45906906241
 30
0.0
 42
0.1830391505853139
  0
VERTEX
  5
16B
  8
TRACES
 10
-1697.60816592332
 20
1554.71
 30
0.0
  0
VERTEX
  5
16C
  8
TRACES
 10
-1709.31183407668
 20
1554.71
 30
0.0
 42
0.1830391505854928
  0
VERTEX
  5
16D
  8
TRACES
 10
-1709.974325993416
 20
1554.45906906241
 30
0.0
 42
-0.1830391505865085
  0
VERTEX
  5
16E
  8
TRACES
 10
-1710.550022556184
 20
1554.241013453559
 30
0.0
  0
VERTEX
  5
16F
  8
TRACES
 10
-1712.209977443817
 20
1554.241013453559
 30
0.0
 42
-1.000000000000131
  0
VERTEX
  5
170
  8
TRACES
 10
-1712.209977443817
 20
1555.97898654644
 30
0.0
  0
VERTEX
  5
171
  8
TRACES
 10
-1710.550022556184
 20
1555.978986546441
 30
0.0
 42
-0.1830391505855776
  0
VERTEX
  5
172
  8
TRACES
 10
-1709.974325993415
 20
1555.760930937589
 30
0.0
 42
0.1830391505854071
  0
VERTEX
  5
173
  8
TRACES
 10
-1709.31183407668
 20
1555.51
 30
0.0
  0
SEQEND
  5
174
  8
TRACES
  0
CIRCLE
  5
175
  8
HOLES
 10
1715.0
 20
1542.0
 30
0.0
 40
0.5
210
0.0
220
0.0
230
-1.0
  0
CIRCLE
  5
176
  8
HOLES
 10
1712.46
 20
1542.0
 30
0.0
 40
0.5
210
0.0
220
0.0
230
-1.0
  0
CIRCLE
  5
177
  8
HOLES
 10
1717.54
 20
1542.0
 30
0.0
 40
0.5
210
0.0
220
0.0
230
-1.0
  0
POLYLINE
  5
178
  8
TRACES
 66
     1
 10
0.0
 20
0.0
 30
0.0
 70
     1
  0
VERTEX
  5
179
  8
TRACES
 10
-1715.525685424949
 20
1548.0
 30
0.0
  0
VERTEX
  5
17A
  8
TRACES
 10
-1718.107106781187
 20
1550.581421356237
 30
0.0
 42
-0.1989123673796667
  0
VERTEX
  5
17B
  8
TRACES
 10
-1718.400000000001
 20
1551.288528137424
 30
0.0
  0
VERTEX
  5
17C
  8
TRACES
 10
-1718.400000000001
 20
1556.932362313523
 30
0.0
 42
-0.1989123673796832
  0
VERTEX
  5
17D
  8
TRACES
 10
-1718.107106781187
 20
1557.63946909471
 30
0.0
  0
VERTEX
  5
17E
  8
TRACES
 10
-1715.44946909471
 20
1560.297106781187
 30
0.0
 42
-0.1989123673797565
  0
VERTEX
  5
17F
  8
TRACES
 10
-1714.742362313524
 20
1560.59
 30
0.0
  0
VERTEX
  5
180
  8
TRACES
 10
-1713.448165923321
 20
1560.59
 30
0.0
 42
0.1830391505854928
  0
VERTEX
  5
181
  8
TRACES
 10
-1712.785674006585
 20
1560.84093093759
 30
0.0
 42
-0.1830391505840254
  0
VERTEX
  5
182
  8
TRACES
 10
-1712.209977443817
 20
1561.058986546441
 30
0.0
  0
VERTEX
  5
183
  8
TRACES
 10
-1710.550022556184
 20
1561.058986546441
 30
0.0
 42
-0.9999999999997383
  0
VERTEX
  5
184
  8
TRACES
 10
-1710.550022556184
 20
1559.321013453559
 30
0.0
  0
VERTEX
  5
185
  8
TRACES
 10
-1712.209977443817
 20
1559.321013453559
 30
0.0
 42
-0.1830391505846477
  0
VERTEX
  5
186
  8
TRACES
 10
-1712.785674006585
 20
1559.539069062411
 30
0.0
 42
0.183039150585402
  0
VERTEX
  5
187
  8
TRACES
 10
-1713.448165923321
 20
1559.79
 30
0.0
  0
VERTEX
  5
188
  8
TRACES
 10
-1714.410991463625
 20
1559.79
 30
0.0
 42
0.1989123673796832
  0
VERTEX
  5
189
  8
TRACES
 10
-1715.118098244811
 20
1559.497106781186
 30
0.0
  0
VERTEX
  5
18A
  8
TRACES
 10
-1717.307106781187
 20
1557.308098244811
 30
0.0
 42
0.1989123673795004
  0
VERTEX
  5
18B
  8
TRACES
 10
-1717.6
 20
1556.600991463625
 30
0.0
  0
VERTEX
  5
18C
  8
TRACES
 10
-1717.6
 20
1551.619898987322
 30
0.0
 42
0.1989123673796832
  0
VERTEX
  5
18D
  8
TRACES
 10
-1717.307106781187
 20
1550.912792206136
 30
0.0
  0
VERTEX
  5
18E
  8
TRACES
 10
-1714.394314575051
 20
1548.0
 30
0.0
  0
VERTEX
  5
18F
  8
TRACES
 10
-1712.352893218814
 20
1545.958578643763
 30
0.0
 42
-0.1989123673795388
  0
VERTEX
  5
190
  8
TRACES
 10
-1712.06
 20
1545.251471862576
 30
0.0
  0
VERTEX
  5
191
  8
TRACES
 10
-1712.06
 20
1544.06816592332
 30
0.0
 42
0.1830391505854928
  0
VERTEX
  5
192
  8
TRACES
 10
-1711.809069062411
 20
1543.405674006585
 30
0.0
 42
-0.1830391505841737
  0
VERTEX
  5
193
  8
TRACES
 10
-1711.59101345356
 20
1542.829977443816
 30
0.0
  0
VERTEX
  5
194
  8
TRACES
 10
-1711.59101345356
 20
1541.170022556184
 30
0.0
 42
-1.000000000000262
  0
VERTEX
  5
195
  8
TRACES
 10
-1713.328986546442
 20
1541.170022556184
 30
0.0
  0
VERTEX
  5
196
  8
TRACES
 10
-1713.328986546441
 20
1542.829977443816
 30
0.0
 42
-0.1830391505839988
  0
VERTEX
  5
197
  8
TRACES
 10
-1713.11093093759
 20
1543.405674006585
 30
0.0
 42
0.183039150585287
  0
VERTEX
  5
198
  8
TRACES
 10
-1712.860000000001
 20
1544.06816592332
 30
0.0
  0
VERTEX
  5
199
  8
TRACES
 10
-1712.860000000001
 20
1544.920101012678
 30
0.0
 42
0.1989123673795785
  0
VERTEX
  5
19A
  8
TRACES
 10
-1713.152893218814
 20
1545.627207793864
 30
0.0
  0
SEQEND
  5
19B
  8
TRACES
  0
POLYLINE
  5
19C
  8
TRACES
 66
     1
 10
0.0
 20
0.0
 30
0.0
 70
     1
  0
VERTEX
  5
19D
  8
TRACES
 10
-1717.432893218812
 20
1546.5155570444
 30
0.0
 42
-0.1989123673792232
  0
VERTEX
  5
19E
  8
TRACES
 10
-1717.139999999999
 20
1545.808450263215
 30
0.0
  0
VERTEX
  5
19F
  8
TRACES
 10
-1717.14
 20
1544.068165923321
 30
0.0
 42
0.1830391505856218
  0
VERTEX
  5
1A0
  8
TRACES
 10
-1716.889069062411
 20
1543.405674006585
 30
0.0
 42
-0.1830391505863239
  0
VERTEX
  5
1A1
  8
TRACES
 10
-1716.67101345356
 20
1542.829977443816
 30
0.0
  0
VERTEX
  5
1A2
  8
TRACES
 10
-1716.67101345356
 20
1541.170022556184
 30
0.0
 42
-0.4142135623737119
  0
VERTEX
  5
1A3
  8
TRACES
 10
-1717.54
 20
1540.301036009742
 30
0.0
 42
-0.4142135623718913
  0
VERTEX
  5
1A4
  8
TRACES
 10
-1718.408986546441
 20
1541.170022556184
 30
0.0
  0
VERTEX
  5
1A5
  8
TRACES
 10
-1718.408986546441
 20
1542.829977443816
 30
0.0
 42
-0.1830391505846518
  0
VERTEX
  5
1A6
  8
TRACES
 10
-1718.19093093759
 20
1543.405674006585
 30
0.0
 42
0.1830391505854866
  0
VERTEX
  5
1A7
  8
TRACES
 10
-1717.940000000001
 20
1544.068165923321
 30
0.0
  0
VERTEX
  5
1A8
  8
TRACES
 10
-1717.940000000001
 20
1545.477079413318
 30
0.0
 42
0.1989123673796832
  0
VERTEX
  5
1A9
  8
TRACES
 10
-1718.232893218814
 20
1546.184186194505
 30
0.0
  0
VERTEX
  5
1AA
  8
TRACES
 10
-1725.355813805497
 20
1553.307106781187
 30
0.0
 42
0.1989123673795004
  0
VERTEX
  5
1AB
  8
TRACES
 10
-1726.062920586684
 20
1553.6
 30
0.0
  0
VERTEX
  5
1AC
  8
TRACES
 10
-1728.711471862576
 20
1553.6
 30
0.0
 42
-0.1989123673795785
  0
VERTEX
  5
1AD
  8
TRACES
 10
-1729.418578643763
 20
1553.892893218813
 30
0.0
  0
VERTEX
  5
1AE
  8
TRACES
 10
-1732.661454607273
 20
1557.135769182324
 30
0.0
 42
-0.198912367380134
  0
VERTEX
  5
1AF
  8
TRACES
 10
-1732.954347826088
 20
1557.842875963511
 30
0.0
  0
VERTEX
  5
1B0
  8
TRACES
 10
-1732.954347826088
 20
1557.908875057772
 30
0.0
 42
0.256006435652766
  0
VERTEX
  5
1B1
  8
TRACES
 10
-1733.416146639222
 20
1558.751691456791
 30
0.0
 42
-0.2560064356527803
  0
VERTEX
  5
1B2
  8
TRACES
 10
-1734.155605560491
 20
1560.101257734404
 30
0.0
  0
VERTEX
  5
1B3
  8
TRACES
 10
-1734.155605560491
 20
1561.898742265596
 30
0.0
 42
-0.2560064356519786
  0
VERTEX
  5
1B4
  8
TRACES
 10
-1733.416146639222
 20
1563.248308543208
 30
0.0
 42
0.2560064356528519
  0
VERTEX
  5
1B5
  8
TRACES
 10
-1732.954347826088
 20
1564.091124942228
 30
0.0
  0
VERTEX
  5
1B6
  8
TRACES
 10
-1732.954347826088
 20
1566.197124036489
 30
0.0
 42
-0.1989123673795785
  0
VERTEX
  5
1B7
  8
TRACES
 10
-1732.661454607274
 20
1566.904230817676
 30
0.0
  0
VERTEX
  5
1B8
  8
TRACES
 10
-1729.108578643762
 20
1570.457106781187
 30
0.0
 42
-0.1582087488398713
  0
VERTEX
  5
1B9
  8
TRACES
 10
-1728.558583436724
 20
1570.737580859105
 30
0.0
 42
0.1476118992359917
  0
VERTEX
  5
1BA
  8
TRACES
 10
-1728.038473674278
 20
1570.989382361836
 30
0.0
 42
-0.1881697625434059
  0
VERTEX
  5
1BB
  8
TRACES
 10
-1727.449977443816
 20
1571.218986546441
 30
0.0
  0
VERTEX
  5
1BC
  8
TRACES
 10
-1725.790022556184
 20
1571.218986546441
 30
0.0
 42
-1.000000000001046
  0
VERTEX
  5
1BD
  8
TRACES
 10
-1725.790022556184
 20
1569.481013453559
 30
0.0
  0
VERTEX
  5
1BE
  8
TRACES
 10
-1727.449977443816
 20
1569.481013453559
 30
0.0
 42
-0.2801135852241991
  0
VERTEX
  5
1BF
  8
TRACES
 10
-1728.221429074118
 20
1569.95
 30
0.0
  0
VERTEX
  5
1C0
  8
TRACES
 10
-1728.484314575051
 20
1569.95
 30
0.0
  0
VERTEX
  5
1C1
  8
TRACES
 10
-1731.861454607274
 20
1566.572859967777
 30
0.0
 42
0.1989123673795004
  0
VERTEX
  5
1C2
  8
TRACES
 10
-1732.154347826087
 20
1565.865753186591
 30
0.0
  0
VERTEX
  5
1C3
  8
TRACES
 10
-1732.154347826087
 20
1564.091124942228
 30
0.0
 42
0.256006435652766
  0
VERTEX
  5
1C4
  8
TRACES
 10
-1731.692549012953
 20
1563.248308543209
 30
0.0
 42
-0.2049451412930297
  0
VERTEX
  5
1C5
  8
TRACES
 10
-1730.983100755166
 20
1562.207301780299
 30
0.0
 42
0.3584935090589323
  0
VERTEX
  5
1C6
  8
TRACES
 10
-1730.001842687112
 20
1561.4
 30
0.0
  0
VERTEX
  5
1C7
  8
TRACES
 10
-1724.579898987323
 20
1561.4
 30
0.0
 42
0.1989123673795785
  0
VERTEX
  5
1C8
  8
TRACES
 10
-1723.872792206136
 20
1561.692893218813
 30
0.0
  0
VERTEX
  5
1C9
  8
TRACES
 10
-1722.108578643763
 20
1563.457106781187
 30
0.0
 42
-0.1989123673794365
  0
VERTEX
  5
1CA
  8
TRACES
 10
-1721.401471862577
 20
1563.75
 30
0.0
  0
VERTEX
  5
1CB
  8
TRACES
 10
-1710.398528137423
 20
1563.75
 30
0.0
 42
-0.1989123673795612
  0
VERTEX
  5
1CC
  8
TRACES
 10
-1709.691421356237
 20
1563.457106781186
 30
0.0
  0
VERTEX
  5
1CD
  8
TRACES
 10
-1707.927207793864
 20
1561.692893218814
 30
0.0
 42
0.1989123673798063
  0
VERTEX
  5
1CE
  8
TRACES
 10
-1707.220101012678
 20
1561.4
 30
0.0
  0
VERTEX
  5
1CF
  8
TRACES
 10
-1707.141429074118
 20
1561.4
 30
0.0
 42
-0.2801135852252642
  0
VERTEX
  5
1D0
  8
TRACES
 10
-1706.369977443816
 20
1561.868986546441
 30
0.0
  0
VERTEX
  5
1D1
  8
TRACES
 10
-1704.710022556184
 20
1561.868986546441
 30
0.0
 42
-0.9999999999994765
  0
VERTEX
  5
1D2
  8
TRACES
 10
-1704.710022556184
 20
1560.131013453559
 30
0.0
  0
VERTEX
  5
1D3
  8
TRACES
 10
-1706.369977443816
 20
1560.131013453559
 30
0.0
 42
-0.1830391505857388
  0
VERTEX
  5
1D4
  8
TRACES
 10
-1706.945674006585
 20
1560.349069062411
 30
0.0
 42
0.17561669660194
  0
VERTEX
  5
1D5
  8
TRACES
 10
-1707.579405218309
 20
1560.59958632536
 30
0.0
 42
-0.1914472223677893
  0
VERTEX
  5
1D6
  8
TRACES
 10
-1708.257751294483
 20
1560.892065869534
 30
0.0
  0
VERTEX
  5
1D7
  8
TRACES
 10
-1710.022792206136
 20
1562.657106781187
 30
0.0
 42
0.1989123673794233
  0
VERTEX
  5
1D8
  8
TRACES
 10
-1710.729898987322
 20
1562.95
 30
0.0
  0
VERTEX
  5
1D9
  8
TRACES
 10
-1721.070101012678
 20
1562.95
 30
0.0
 42
0.1989123673796832
  0
VERTEX
  5
1DA
  8
TRACES
 10
-1721.777207793864
 20
1562.657106781186
 30
0.0
  0
VERTEX
  5
1DB
  8
TRACES
 10
-1723.541421356237
 20
1560.892893218813
 30
0.0
 42
-0.1989123673793982
  0
VERTEX
  5
1DC
  8
TRACES
 10
-1724.248528137424
 20
1560.6
 30
0.0
  0
VERTEX
  5
1DD
  8
TRACES
 10
-1730.001842687112
 20
1560.6
 30
0.0
 42
0.3584935090584521
  0
VERTEX
  5
1DE
  8
TRACES
 10
-1730.983100755167
 20
1559.792698219701
 30
0.0
 42
-0.2049451412920661
  0
VERTEX
  5
1DF
  8
TRACES
 10
-1731.692549012952
 20
1558.751691456786
 30
0.0
 42
0.2560064356550636
  0
VERTEX
  5
1E0
  8
TRACES
 10
-1732.154347826089
 20
1557.908875057762
 30
0.0
  0
VERTEX
  5
1E1
  8
TRACES
 10
-1732.154347826087
 20
1557.760033251036
 30
0.0
  0
VERTEX
  5
1E2
  8
TRACES
 10
-1729.087207793865
 20
1554.692893218813
 30
0.0
 42
0.1989123673794233
  0
VERTEX
  5
1E3
  8
TRACES
 10
-1728.380101012678
 20
1554.4
 30
0.0
  0
VERTEX
  5
1E4
  8
TRACES
 10
-1725.731549736784
 20
1554.4
 30
0.0
 42
-0.1989123673797653
  0
VERTEX
  5
1E5
  8
TRACES
 10
-1725.024442955598
 20
1554.107106781186
 30
0.0
  0
SEQEND
  5
1E6
  8
TRACES
  0
POLYLINE
  5
1E7
  8
TRACES
 66
     1
 10
0.0
 20
0.0
 30
0.0
 70
     1
  0
VERTEX
  5
1E8
  8
TRACES
 10
-1716.440385346495
 20
1536.993929228555
 30
0.0
  0
VERTEX
  5
1E9
  8
TRACES
 10
-1714.892893218814
 20
1538.541421356236
 30
0.0
 42
0.1989123673795639
  0
VERTEX
  5
1EA
  8
TRACES
 10
-1714.6
 20
1539.248528137423
 30
0.0
  0
VERTEX
  5
1EB
  8
TRACES
 10
-1714.6
 20
1540.101856632863
 30
0.0
 42
-0.186237364145756
  0
VERTEX
  5
1EC
  8
TRACES
 10
-1714.349069062411
 20
1540.764348549599
 30
0.0
 42
0.1830391505858044
  0
VERTEX
  5
1ED
  8
TRACES
 10
-1714.131013453559
 20
1541.340045112368
 30
0.0
  0
VERTEX
  5
1EE
  8
TRACES
 10
-1714.13101345356
 20
1543.0
 30
0.0
 42
0.9999999999996075
  0
VERTEX
  5
1EF
  8
TRACES
 10
-1715.86898654644
 20
1543.0
 30
0.0
  0
VERTEX
  5
1F0
  8
TRACES
 10
-1715.868986546441
 20
1541.340045112368
 30
0.0
 42
0.1798436133594098
  0
VERTEX
  5
1F1
  8
TRACES
 10
-1715.65093093759
 20
1540.764348549599
 30
0.0
 42
-0.1830391505850306
  0
VERTEX
  5
1F2
  8
TRACES
 10
-1715.400000000001
 20
1540.101856632863
 30
0.0
  0
VERTEX
  5
1F3
  8
TRACES
 10
-1715.400000000001
 20
1539.579898987323
 30
0.0
 42
-0.1989123673796922
  0
VERTEX
  5
1F4
  8
TRACES
 10
-1715.692893218814
 20
1538.872792206136
 30
0.0
  0
VERTEX
  5
1F5
  8
TRACES
 10
-1716.771756196394
 20
1537.793929228557
 30
0.0
 42
-0.1989123673797635
  0
VERTEX
  5
1F6
  8
TRACES
 10
-1717.478862977581
 20
1537.501036009743
 30
0.0
  0
VERTEX
  5
1F7
  8
TRACES
 10
-1719.661137022421
 20
1537.501036009743
 30
0.0
 42
-0.1989123673796832
  0
VERTEX
  5
1F8
  8
TRACES
 10
-1720.368243803608
 20
1537.793929228557
 30
0.0
  0
VERTEX
  5
1F9
  8
TRACES
 10
-1737.861454607274
 20
1555.287140032223
 30
0.0
 42
-0.1989123673795388
  0
VERTEX
  5
1FA
  8
TRACES
 10
-1738.154347826087
 20
1555.994246813409
 30
0.0
  0
VERTEX
  5
1FB
  8
TRACES
 10
-1738.154347826087
 20
1557.900710903934
 30
0.0
 42
-0.2575676230598
  0
VERTEX
  5
1FC
  8
TRACES
 10
-1737.687602211531
 20
1558.746665843872
 30
0.0
 42
0.2575676230605748
  0
VERTEX
  5
1FD
  8
TRACES
 10
-1736.940222186225
 20
1560.101257734404
 30
0.0
  0
VERTEX
  5
1FE
  8
TRACES
 10
-1736.940222186225
 20
1561.898742265596
 30
0.0
 42
0.2575676230602618
  0
VERTEX
  5
1FF
  8
TRACES
 10
-1737.687602211532
 20
1563.253334156128
 30
0.0
 42
-0.2575676230599606
  0
VERTEX
  5
200
  8
TRACES
 10
-1738.154347826088
 20
1564.099289096066
 30
0.0
  0
VERTEX
  5
201
  8
TRACES
 10
-1738.154347826087
 20
1566.865753186591
 30
0.0
 42
-0.1989123673791987
  0
VERTEX
  5
202
  8
TRACES
 10
-1737.861454607274
 20
1567.572859967777
 30
0.0
  0
VERTEX
  5
203
  8
TRACES
 10
-1730.697207793864
 20
1574.737106781186
 30
0.0
 42
-0.1989123673810545
  0
VERTEX
  5
204
  8
TRACES
 10
-1729.990101012678
 20
1575.03
 30
0.0
  0
VERTEX
  5
205
  8
TRACES
 10
-1728.68816592332
 20
1575.03
 30
0.0
 42
-0.1830391505860172
  0
VERTEX
  5
206
  8
TRACES
 10
-1728.025674006585
 20
1574.779069062411
 30
0.0
 42
0.1830391505858932
  0
VERTEX
  5
207
  8
TRACES
 10
-1727.449977443816
 20
1574.561013453559
 30
0.0
  0
VERTEX
  5
208
  8
TRACES
 10
-1725.790022556184
 20
1574.561013453559
 30
0.0
 42
0.1830391505855385
  0
VERTEX
  5
209
  8
TRACES
 10
-1725.214325993416
 20
1574.77906906241
 30
0.0
 42
-0.1830391505856066
  0
VERTEX
  5
20A
  8
TRACES
 10
-1724.55183407668
 20
1575.03
 30
0.0
  0
VERTEX
  5
20B
  8
TRACES
 10
-1711.149898987323
 20
1575.03
 30
0.0
 42
-0.1989123673799816
  0
VERTEX
  5
20C
  8
TRACES
 10
-1710.442792206136
 20
1574.737106781186
 30
0.0
  0
VERTEX
  5
20D
  8
TRACES
 10
-1706.232893218814
 20
1570.527207793864
 30
0.0
 42
-0.1989123673798074
  0
VERTEX
  5
20E
  8
TRACES
 10
-1705.940000000001
 20
1569.820101012678
 30
0.0
  0
VERTEX
  5
20F
  8
TRACES
 10
-1705.940000000001
 20
1565.319939604655
 30
0.0
 42
-0.3260895571034491
  0
VERTEX
  5
210
  8
TRACES
 10
-1706.635009813062
 20
1564.367584111222
 30
0.0
 42
0.8559117307181069
  0
VERTEX
  5
211
  8
TRACES
 10
-1706.369977443816
 20
1562.671013453559
 30
0.0
  0
VERTEX
  5
212
  8
TRACES
 10
-1704.710022556184
 20
1562.671013453559
 30
0.0
 42
0.8559117307178552
  0
VERTEX
  5
213
  8
TRACES
 10
-1704.444990186938
 20
1564.367584111222
 30
0.0
 42
-0.3260895571027673
  0
VERTEX
  5
214
  8
TRACES
 10
-1705.14
 20
1565.319939604655
 30
0.0
  0
VERTEX
  5
215
  8
TRACES
 10
-1705.14
 20
1570.151471862576
 30
0.0
 42
0.1989123673795333
  0
VERTEX
  5
216
  8
TRACES
 10
-1705.432893218814
 20
1570.858578643763
 30
0.0
  0
VERTEX
  5
217
  8
TRACES
 10
-1710.111421356238
 20
1575.537106781187
 30
0.0
 42
0.1989123673802297
  0
VERTEX
  5
218
  8
TRACES
 10
-1710.818528137424
 20
1575.83
 30
0.0
  0
VERTEX
  5
219
  8
TRACES
 10
-1724.55183407668
 20
1575.83
 30
0.0
 42
-0.1830391505848264
  0
VERTEX
  5
21A
  8
TRACES
 10
-1725.214325993415
 20
1576.08093093759
 30
0.0
 42
0.1830391505855467
  0
VERTEX
  5
21B
  8
TRACES
 10
-1725.790022556184
 20
1576.298986546441
 30
0.0
  0
VERTEX
  5
21C
  8
TRACES
 10
-1727.449977443816
 20
1576.298986546441
 30
0.0
 42
0.1830391505858369
  0
VERTEX
  5
21D
  8
TRACES
 10
-1728.025674006585
 20
1576.08093093759
 30
0.0
 42
-0.1830391505857329
  0
VERTEX
  5
21E
  8
TRACES
 10
-1728.68816592332
 20
1575.83
 30
0.0
  0
VERTEX
  5
21F
  8
TRACES
 10
-1730.321471862577
 20
1575.83
 30
0.0
 42
0.1989123673796832
  0
VERTEX
  5
220
  8
TRACES
 10
-1731.028578643763
 20
1575.537106781186
 30
0.0
  0
VERTEX
  5
221
  8
TRACES
 10
-1738.661454607275
 20
1567.904230817674
 30
0.0
 42
0.1989123673799522
  0
VERTEX
  5
222
  8
TRACES
 10
-1738.954347826088
 20
1567.197124036489
 30
0.0
  0
VERTEX
  5
223
  8
TRACES
 10
-1738.954347826088
 20
1564.082854461094
 30
0.0
 42
-0.2544405625871334
  0
VERTEX
  5
224
  8
TRACES
 10
-1739.411199837799
 20
1563.243217478333
 30
0.0
 42
0.254440562586817
  0
VERTEX
  5
225
  8
TRACES
 10
-1740.142737655032
 20
1561.898742265596
 30
0.0
  0
VERTEX
  5
226
  8
TRACES
 10
-1740.142737655032
 20
1560.101257734404
 30
0.0
 42
0.25444056258681
  0
VERTEX
  5
227
  8
TRACES
 10
-1739.4111998378
 20
1558.756782521667
 30
0.0
 42
-0.2544405625870684
  0
VERTEX
  5
228
  8
TRACES
 10
-1738.954347826088
 20
1557.917145538906
 30
0.0
  0
VERTEX
  5
229
  8
TRACES
 10
-1738.954347826087
 20
1555.662875963511
 30
0.0
 42
0.1989123673793803
  0
VERTEX
  5
22A
  8
TRACES
 10
-1738.661454607273
 20
1554.955769182324
 30
0.0
  0
VERTEX
  5
22B
  8
TRACES
 10
-1720.699614653505
 20
1536.993929228555
 30
0.0
 42
0.1989123673795388
  0
VERTEX
  5
22C
  8
TRACES
 10
-1719.992507872318
 20
1536.701036009742
 30
0.0
  0
VERTEX
  5
22D
  8
TRACES
 10
-1717.147492127681
 20
1536.701036009742
 30
0.0
 42
0.1989123673796832
  0
SEQEND
  5
22E
  8
TRACES
  0
POLYLINE
  5
230
  8
DEFAULT
 66
     1
 10
0.0
 20
0.0
 30
0.0
 70
     1
  0
VERTEX
  5
231
  8
DEFAULT
 10
-1559.260869565217
 20
1548.654547074346
 30
0.0
 42
0.1298411442892871
  0
VERTEX
  5
232
  8
DEFAULT
 10
-1559.0
 20
1549.642183308398
 30
0.0
  0
VERTEX
  5
233
  8
DEFAULT
 10
-1559.0
 20
1572.357816691602
 30
0.0
 42
0.1298411442902137
  0
VERTEX
  5
234
  8
DEFAULT
 10
-1559.260869565217
 20
1573.345452925654
 30
0.0
  0
VERTEX
  5
235
  8
DEFAULT
 10
-1559.689832031454
 20
1574.071983061202
 30
0.0
  0
VERTEX
  5
236
  8
DEFAULT
 10
-1559.725274487692
 20
1574.127678240565
 30
0.0
  0
VERTEX
  5
237
  8
DEFAULT
 10
-1559.762874240972
 20
1574.182651093438
 30
0.0
  0
VERTEX
  5
238
  8
DEFAULT
 10
-1559.802619943797
 20
1574.236784091539
 30
0.0
  0
VERTEX
  5
239
  8
DEFAULT
 10
-1559.844492099969
 20
1574.289958776319
 30
0.0
  0
VERTEX
  5
23A
  8
DEFAULT
 10
-1559.888462848942
 20
1574.342056440245
 30
0.0
  0
VERTEX
  5
23B
  8
DEFAULT
 10
-1559.934495816582
 20
1574.392958842859
 30
0.0
  0
VERTEX
  5
23C
  8
DEFAULT
 10
-1559.982546037834
 20
1574.442548954213
 30
0.0
  0
VERTEX
  5
23D
  8
DEFAULT
 10
-1560.032559955875
 20
1574.490711717413
 30
0.0
  0
VERTEX
  5
23E
  8
DEFAULT
 10
-1560.08447550125
 20
1574.537334821197
 30
0.0
  0
VERTEX
  5
23F
  8
DEFAULT
 10
-1560.111124697826
 20
1574.560034844659
 30
0.0
  0
VERTEX
  5
240
  8
DEFAULT
 10
-1560.138222253282
 20
1574.582309472838
 30
0.0
  0
VERTEX
  5
241
  8
DEFAULT
 10
-1560.165758100288
 20
1574.604145781639
 30
0.0
  0
VERTEX
  5
242
  8
DEFAULT
 10
-1560.193721684681
 20
1574.625531161245
 30
0.0
  0
VERTEX
  5
243
  8
DEFAULT
 10
-1560.222101977603
 20
1574.64645333869
 30
0.0
  0
VERTEX
  5
244
  8
DEFAULT
 10
-1560.250887488895
 20
1574.666900399884
 30
0.0
  0
VERTEX
  5
245
  8
DEFAULT
 10
-1560.280066281695
 20
1574.686860810995
 30
0.0
  0
VERTEX
  5
246
  8
DEFAULT
 10
-1560.309625988216
 20
1574.706323439119
 30
0.0
  0
VERTEX
  5
247
  8
DEFAULT
 10
-1560.339553826664
 20
1574.725277572156
 30
0.0
  0
VERTEX
  5
248
  8
DEFAULT
 10
-1560.369836619233
 20
1574.74371293783
 30
0.0
  0
VERTEX
  5
249
  8
DEFAULT
 10
-1560.400460811156
 20
1574.761619721772
 30
0.0
  0
VERTEX
  5
24A
  8
DEFAULT
 10
-1560.431412490719
 20
1574.778988584605
 30
0.0
  0
VERTEX
  5
24B
  8
DEFAULT
 10
-1560.462677410206
 20
1574.79581067798
 30
0.0
  0
VERTEX
  5
24C
  8
DEFAULT
 10
-1560.494241007695
 20
1574.812077659485
 30
0.0
  0
VERTEX
  5
24D
  8
DEFAULT
 10
-1560.526088429636
 20
1574.827781706397
 30
0.0
  0
VERTEX
  5
24E
  8
DEFAULT
 10
-1560.558204554145
 20
1574.842915528208
 30
0.0
  0
VERTEX
  5
24F
  8
DEFAULT
 10
-1560.590574014921
 20
1574.857472377899
 30
0.0
  0
VERTEX
  5
250
  8
DEFAULT
 10
-1560.623181225731
 20
1574.871446061924
 30
0.0
  0
VERTEX
  5
251
  8
DEFAULT
 10
-1560.656010405359
 20
1574.884830948861
 30
0.0
  0
VERTEX
  5
252
  8
DEFAULT
 10
-1560.689045602947
 20
1574.897621976718
 30
0.0
  0
VERTEX
  5
253
  8
DEFAULT
 10
-1560.72227072364
 20
1574.909814658871
 30
0.0
  0
VERTEX
  5
254
  8
DEFAULT
 10
-1560.755669554447
 20
1574.921405088617
 30
0.0
  0
VERTEX
  5
255
  8
DEFAULT
 10
-1560.789225790237
 20
1574.932389942341
 30
0.0
  0
VERTEX
  5
256
  8
DEFAULT
 10
-1560.822923059781
 20
1574.942766481294
 30
0.0
  0
VERTEX
  5
257
  8
DEFAULT
 10
-1560.856744951747
 20
1574.952532551991
 30
0.0
  0
VERTEX
  5
258
  8
DEFAULT
 10
-1560.890675040575
 20
1574.96168658523
 30
0.0
  0
VERTEX
  5
259
  8
DEFAULT
 10
-1560.924696912148
 20
1574.970227593765
 30
0.0
  0
VERTEX
  5
25A
  8
DEFAULT
 10
-1560.958794189164
 20
1574.978155168644
 30
0.0
  0
VERTEX
  5
25B
  8
DEFAULT
 10
-1561.027149783998
 20
1574.992171242024
 30
0.0
  0
VERTEX
  5
25C
  8
DEFAULT
 10
-1561.095612481591
 20
1575.003742879552
 30
0.0
  0
VERTEX
  5
25D
  8
DEFAULT
 10
-1561.164055075513
 20
1575.012886962
 30
0.0
  0
VERTEX
  5
25E
  8
DEFAULT
 10
-1561.232353213772
 20
1575.019628846901
 30
0.0
  0
VERTEX
  5
25F
  8
DEFAULT
 10
-1561.300386067026
 20
1575.024001972781
 30
0.0
  0
VERTEX
  5
260
  8
DEFAULT
 10
-1561.368036941157
 20
1575.026047405036
 30
0.0
  0
VERTEX
  5
261
  8
DEFAULT
 10
-1561.435193829011
 20
1575.025813331682
 30
0.0
  0
VERTEX
  5
262
  8
DEFAULT
 10
-1561.501749897351
 20
1575.02335451758
 30
0.0
  0
VERTEX
  5
263
  8
DEFAULT
 10
-1561.567603906384
 20
1575.018731725933
 30
0.0
 42
-0.0190979674734051
  0
VERTEX
  5
264
  8
DEFAULT
 10
-1561.948976935146
 20
1575.000260342092
 30
0.0
 42
0.1962615682811338
  0
VERTEX
  5
265
  8
DEFAULT
 10
-1563.342781271578
 20
1574.414578041303
 30
0.0
  0
VERTEX
  5
266
  8
DEFAULT
 10
-1574.414213562373
 20
1563.343145750507
 30
0.0
 42
0.1989123673794969
  0
VERTEX
  5
267
  8
DEFAULT
 10
-1575.0
 20
1561.928932188134
 30
0.0
  0
VERTEX
  5
268
  8
DEFAULT
 10
-1575.0
 20
1560.071067811866
 30
0.0
 42
0.1989123673797824
  0
VERTEX
  5
269
  8
DEFAULT
 10
-1574.414213562372
 20
1558.656854249492
 30
0.0
  0
VERTEX
  5
26A
  8
DEFAULT
 10
-1563.342781271577
 20
1547.585421958697
 30
0.0
 42
0.1962615682817153
  0
VERTEX
  5
26B
  8
DEFAULT
 10
-1561.948976935146
 20
1546.999739657907
 30
0.0
 42
-0.0190979674752859
  0
VERTEX
  5
26C
  8
DEFAULT
 10
-1561.567603906385
 20
1546.981268274067
 30
0.0
  0
VERTEX
  5
26D
  8
DEFAULT
 10
-1561.501749897351
 20
1546.976645482419
 30
0.0
  0
VERTEX
  5
26E
  8
DEFAULT
 10
-1561.435193829011
 20
1546.974186668317
 30
0.0
  0
VERTEX
  5
26F
  8
DEFAULT
 10
-1561.368036941157
 20
1546.973952594964
 30
0.0
  0
VERTEX
  5
270
  8
DEFAULT
 10
-1561.300386067026
 20
1546.975998027219
 30
0.0
  0
VERTEX
  5
271
  8
DEFAULT
 10
-1561.232353213772
 20
1546.980371153099
 30
0.0
  0
VERTEX
  5
272
  8
DEFAULT
 10
-1561.164055075513
 20
1546.987113038
 30
0.0
  0
VERTEX
  5
273
  8
DEFAULT
 10
-1561.095612481592
 20
1546.996257120448
 30
0.0
  0
VERTEX
  5
274
  8
DEFAULT
 10
-1561.027149783998
 20
1547.007828757976
 30
0.0
  0
VERTEX
  5
275
  8
DEFAULT
 10
-1560.958794189165
 20
1547.021844831356
 30
0.0
  0
VERTEX
  5
276
  8
DEFAULT
 10
-1560.924696912149
 20
1547.029772406234
 30
0.0
  0
VERTEX
  5
277
  8
DEFAULT
 10
-1560.890675040576
 20
1547.038313414769
 30
0.0
  0
VERTEX
  5
278
  8
DEFAULT
 10
-1560.856744951748
 20
1547.047467448009
 30
0.0
  0
VERTEX
  5
279
  8
DEFAULT
 10
-1560.822923059782
 20
1547.057233518705
 30
0.0
  0
VERTEX
  5
27A
  8
DEFAULT
 10
-1560.789225790238
 20
1547.067610057659
 30
0.0
  0
VERTEX
  5
27B
  8
DEFAULT
 10
-1560.755669554447
 20
1547.078594911383
 30
0.0
  0
VERTEX
  5
27C
  8
DEFAULT
 10
-1560.72227072364
 20
1547.090185341129
 30
0.0
  0
VERTEX
  5
27D
  8
DEFAULT
 10
-1560.689045602948
 20
1547.102378023282
 30
0.0
  0
VERTEX
  5
27E
  8
DEFAULT
 10
-1560.656010405359
 20
1547.115169051139
 30
0.0
  0
VERTEX
  5
27F
  8
DEFAULT
 10
-1560.623181225731
 20
1547.128553938076
 30
0.0
  0
VERTEX
  5
280
  8
DEFAULT
 10
-1560.590574014921
 20
1547.142527622101
 30
0.0
  0
VERTEX
  5
281
  8
DEFAULT
 10
-1560.558204554145
 20
1547.157084471792
 30
0.0
  0
VERTEX
  5
282
  8
DEFAULT
 10
-1560.526088429637
 20
1547.172218293602
 30
0.0
  0
VERTEX
  5
283
  8
DEFAULT
 10
-1560.494241007695
 20
1547.187922340514
 30
0.0
  0
VERTEX
  5
284
  8
DEFAULT
 10
-1560.462677410205
 20
1547.204189322021
 30
0.0
  0
VERTEX
  5
285
  8
DEFAULT
 10
-1560.431412490718
 20
1547.221011415395
 30
0.0
  0
VERTEX
  5
286
  8
DEFAULT
 10
-1560.400460811156
 20
1547.238380278228
 30
0.0
  0
VERTEX
  5
287
  8
DEFAULT
 10
-1560.369836619233
 20
1547.256287062169
 30
0.0
  0
VERTEX
  5
288
  8
DEFAULT
 10
-1560.339553826664
 20
1547.274722427844
 30
0.0
  0
VERTEX
  5
289
  8
DEFAULT
 10
-1560.309625988216
 20
1547.293676560881
 30
0.0
  0
VERTEX
  5
28A
  8
DEFAULT
 10
-1560.280066281695
 20
1547.313139189005
 30
0.0
  0
VERTEX
  5
28B
  8
DEFAULT
 10
-1560.250887488895
 20
1547.333099600116
 30
0.0
  0
VERTEX
  5
28C
  8
DEFAULT
 10
-1560.222101977603
 20
1547.35354666131
 30
0.0
  0
VERTEX
  5
28D
  8
DEFAULT
 10
-1560.193721684681
 20
1547.374468838755
 30
0.0
  0
VERTEX
  5
28E
  8
DEFAULT
 10
-1560.165758100289
 20
1547.395854218361
 30
0.0
  0
VERTEX
  5
28F
  8
DEFAULT
 10
-1560.138222253282
 20
1547.417690527162
 30
0.0
  0
VERTEX
  5
290
  8
DEFAULT
 10
-1560.111124697826
 20
1547.43996515534
 30
0.0
  0
VERTEX
  5
291
  8
DEFAULT
 10
-1560.08447550125
 20
1547.462665178802
 30
0.0
  0
VERTEX
  5
292
  8
DEFAULT
 10
-1560.032559955875
 20
1547.509288282586
 30
0.0
  0
VERTEX
  5
293
  8
DEFAULT
 10
-1559.982546037834
 20
1547.557451045787
 30
0.0
  0
VERTEX
  5
294
  8
DEFAULT
 10
-1559.934495816582
 20
1547.607041157141
 30
0.0
  0
VERTEX
  5
295
  8
DEFAULT
 10
-1559.888462848942
 20
1547.657943559755
 30
0.0
  0
VERTEX
  5
296
  8
DEFAULT
 10
-1559.844492099969
 20
1547.710041223681
 30
0.0
  0
VERTEX
  5
297
  8
DEFAULT
 10
-1559.802619943797
 20
1547.763215908461
 30
0.0
  0
VERTEX
  5
298
  8
DEFAULT
 10
-1559.762874240972
 20
1547.817348906562
 30
0.0
  0
VERTEX
  5
299
  8
DEFAULT
 10
-1559.725274487692
 20
1547.872321759435
 30
0.0
  0
VERTEX
  5
29A
  8
DEFAULT
 10
-1559.689832031454
 20
1547.928016938797
 30
0.0
  0
SEQEND
  5
29B
  8
DEFAULT
  0
POLYLINE
  5
29C
  8
DEFAULT
 66
     1
 10
0.0
 20
0.0
 30
0.0
 70
     1
  0
VERTEX
  5
29D
  8
DEFAULT
 10
-1602.739130434782
 20
1548.654547074346
 30
0.0
 42
-0.1298411442906615
  0
VERTEX
  5
29E
  8
DEFAULT
 10
-1603.0
 20
1549.642183308398
 30
0.0
  0
VERTEX
  5
29F
  8
DEFAULT
 10
-1603.0
 20
1572.357816691602
 30
0.0
 42
-0.1298411442898881
  0
VERTEX
  5
2A0
  8
DEFAULT
 10
-1602.739130434782
 20
1573.345452925654
 30
0.0
  0
VERTEX
  5
2A1
  8
DEFAULT
 10
-1602.310167968546
 20
1574.071983061202
 30
0.0
  0
VERTEX
  5
2A2
  8
DEFAULT
 10
-1602.274725512308
 20
1574.127678240565
 30
0.0
  0
VERTEX
  5
2A3
  8
DEFAULT
 10
-1602.237125759028
 20
1574.182651093438
 30
0.0
  0
VERTEX
  5
2A4
  8
DEFAULT
 10
-1602.197380056203
 20
1574.236784091539
 30
0.0
  0
VERTEX
  5
2A5
  8
DEFAULT
 10
-1602.155507900031
 20
1574.289958776319
 30
0.0
  0
VERTEX
  5
2A6
  8
DEFAULT
 10
-1602.111537151058
 20
1574.342056440245
 30
0.0
  0
VERTEX
  5
2A7
  8
DEFAULT
 10
-1602.065504183418
 20
1574.392958842859
 30
0.0
  0
VERTEX
  5
2A8
  8
DEFAULT
 10
-1602.017453962166
 20
1574.442548954213
 30
0.0
  0
VERTEX
  5
2A9
  8
DEFAULT
 10
-1601.967440044125
 20
1574.490711717413
 30
0.0
  0
VERTEX
  5
2AA
  8
DEFAULT
 10
-1601.915524498749
 20
1574.537334821197
 30
0.0
  0
VERTEX
  5
2AB
  8
DEFAULT
 10
-1601.888875302174
 20
1574.560034844659
 30
0.0
  0
VERTEX
  5
2AC
  8
DEFAULT
 10
-1601.861777746718
 20
1574.582309472838
 30
0.0
  0
VERTEX
  5
2AD
  8
DEFAULT
 10
-1601.834241899712
 20
1574.604145781639
 30
0.0
  0
VERTEX
  5
2AE
  8
DEFAULT
 10
-1601.806278315319
 20
1574.625531161245
 30
0.0
  0
VERTEX
  5
2AF
  8
DEFAULT
 10
-1601.777898022397
 20
1574.64645333869
 30
0.0
  0
VERTEX
  5
2B0
  8
DEFAULT
 10
-1601.749112511106
 20
1574.666900399884
 30
0.0
  0
VERTEX
  5
2B1
  8
DEFAULT
 10
-1601.719933718306
 20
1574.686860810995
 30
0.0
  0
VERTEX
  5
2B2
  8
DEFAULT
 10
-1601.690374011784
 20
1574.706323439119
 30
0.0
  0
VERTEX
  5
2B3
  8
DEFAULT
 10
-1601.660446173337
 20
1574.725277572156
 30
0.0
  0
VERTEX
  5
2B4
  8
DEFAULT
 10
-1601.630163380767
 20
1574.74371293783
 30
0.0
  0
VERTEX
  5
2B5
  8
DEFAULT
 10
-1601.599539188845
 20
1574.761619721772
 30
0.0
  0
VERTEX
  5
2B6
  8
DEFAULT
 10
-1601.568587509282
 20
1574.778988584605
 30
0.0
  0
VERTEX
  5
2B7
  8
DEFAULT
 10
-1601.537322589795
 20
1574.79581067798
 30
0.0
  0
VERTEX
  5
2B8
  8
DEFAULT
 10
-1601.505758992306
 20
1574.812077659485
 30
0.0
  0
VERTEX
  5
2B9
  8
DEFAULT
 10
-1601.473911570364
 20
1574.827781706397
 30
0.0
  0
VERTEX
  5
2BA
  8
DEFAULT
 10
-1601.441795445855
 20
1574.842915528208
 30
0.0
  0
VERTEX
  5
2BB
  8
DEFAULT
 10
-1601.409425985079
 20
1574.857472377899
 30
0.0
  0
VERTEX
  5
2BC
  8
DEFAULT
 10
-1601.376818774269
 20
1574.871446061924
 30
0.0
  0
VERTEX
  5
2BD
  8
DEFAULT
 10
-1601.343989594642
 20
1574.884830948861
 30
0.0
  0
VERTEX
  5
2BE
  8
DEFAULT
 10
-1601.310954397053
 20
1574.897621976718
 30
0.0
  0
VERTEX
  5
2BF
  8
DEFAULT
 10
-1601.277729276361
 20
1574.909814658871
 30
0.0
  0
VERTEX
  5
2C0
  8
DEFAULT
 10
-1601.244330445554
 20
1574.921405088617
 30
0.0
  0
VERTEX
  5
2C1
  8
DEFAULT
 10
-1601.210774209763
 20
1574.932389942341
 30
0.0
  0
VERTEX
  5
2C2
  8
DEFAULT
 10
-1601.177076940219
 20
1574.942766481294
 30
0.0
  0
VERTEX
  5
2C3
  8
DEFAULT
 10
-1601.143255048253
 20
1574.952532551991
 30
0.0
  0
VERTEX
  5
2C4
  8
DEFAULT
 10
-1601.109324959425
 20
1574.96168658523
 30
0.0
  0
VERTEX
  5
2C5
  8
DEFAULT
 10
-1601.075303087852
 20
1574.970227593765
 30
0.0
  0
VERTEX
  5
2C6
  8
DEFAULT
 10
-1601.041205810836
 20
1574.978155168644
 30
0.0
  0
VERTEX
  5
2C7
  8
DEFAULT
 10
-1600.972850216003
 20
1574.992171242024
 30
0.0
  0
VERTEX
  5
2C8
  8
DEFAULT
 10
-1600.904387518408
 20
1575.003742879552
 30
0.0
  0
VERTEX
  5
2C9
  8
DEFAULT
 10
-1600.835944924487
 20
1575.012886962
 30
0.0
  0
VERTEX
  5
2CA
  8
DEFAULT
 10
-1600.767646786228
 20
1575.019628846901
 30
0.0
  0
VERTEX
  5
2CB
  8
DEFAULT
 10
-1600.699613932975
 20
1575.024001972781
 30
0.0
  0
VERTEX
  5
2CC
  8
DEFAULT
 10
-1600.631963058843
 20
1575.026047405036
 30
0.0
  0
VERTEX
  5
2CD
  8
DEFAULT
 10
-1600.564806170989
 20
1575.025813331682
 30
0.0
  0
VERTEX
  5
2CE
  8
DEFAULT
 10
-1600.498250102649
 20
1575.02335451758
 30
0.0
  0
VERTEX
  5
2CF
  8
DEFAULT
 10
-1600.432396093616
 20
1575.018731725933
 30
0.0
 42
0.0190979674732842
  0
VERTEX
  5
2D0
  8
DEFAULT
 10
-1600.051023064854
 20
1575.000260342092
 30
0.0
 42
-0.1962615682811922
  0
VERTEX
  5
2D1
  8
DEFAULT
 10
-1598.657218728421
 20
1574.414578041303
 30
0.0
  0
VERTEX
  5
2D2
  8
DEFAULT
 10
-1587.585786437627
 20
1563.343145750507
 30
0.0
 42
-0.1989123673798295
  0
VERTEX
  5
2D3
  8
DEFAULT
 10
-1587.0
 20
1561.928932188134
 30
0.0
  0
VERTEX
  5
2D4
  8
DEFAULT
 10
-1587.0
 20
1560.071067811866
 30
0.0
 42
-0.1989123673796151
  0
VERTEX
  5
2D5
  8
DEFAULT
 10
-1587.585786437627
 20
1558.656854249492
 30
0.0
  0
VERTEX
  5
2D6
  8
DEFAULT
 10
-1598.657218728421
 20
1547.585421958697
 30
0.0
 42
-0.1962615682815761
  0
VERTEX
  5
2D7
  8
DEFAULT
 10
-1600.051023064854
 20
1546.999739657907
 30
0.0
 42
0.0190979674752644
  0
VERTEX
  5
2D8
  8
DEFAULT
 10
-1600.432396093616
 20
1546.981268274067
 30
0.0
  0
VERTEX
  5
2D9
  8
DEFAULT
 10
-1600.498250102649
 20
1546.976645482419
 30
0.0
  0
VERTEX
  5
2DA
  8
DEFAULT
 10
-1600.564806170989
 20
1546.974186668317
 30
0.0
  0
VERTEX
  5
2DB
  8
DEFAULT
 10
-1600.631963058843
 20
1546.973952594964
 30
0.0
  0
VERTEX
  5
2DC
  8
DEFAULT
 10
-1600.699613932974
 20
1546.975998027219
 30
0.0
  0
VERTEX
  5
2DD
  8
DEFAULT
 10
-1600.767646786228
 20
1546.980371153099
 30
0.0
  0
VERTEX
  5
2DE
  8
DEFAULT
 10
-1600.835944924487
 20
1546.987113038
 30
0.0
  0
VERTEX
  5
2DF
  8
DEFAULT
 10
-1600.904387518408
 20
1546.996257120448
 30
0.0
  0
VERTEX
  5
2E0
  8
DEFAULT
 10
-1600.972850216003
 20
1547.007828757976
 30
0.0
  0
VERTEX
  5
2E1
  8
DEFAULT
 10
-1601.041205810836
 20
1547.021844831356
 30
0.0
  0
VERTEX
  5
2E2
  8
DEFAULT
 10
-1601.075303087852
 20
1547.029772406234
 30
0.0
  0
VERTEX
  5
2E3
  8
DEFAULT
 10
-1601.109324959425
 20
1547.038313414769
 30
0.0
  0
VERTEX
  5
2E4
  8
DEFAULT
 10
-1601.143255048253
 20
1547.047467448009
 30
0.0
  0
VERTEX
  5
2E5
  8
DEFAULT
 10
-1601.177076940219
 20
1547.057233518705
 30
0.0
  0
VERTEX
  5
2E6
  8
DEFAULT
 10
-1601.210774209763
 20
1547.067610057659
 30
0.0
  0
VERTEX
  5
2E7
  8
DEFAULT
 10
-1601.244330445554
 20
1547.078594911383
 30
0.0
  0
VERTEX
  5
2E8
  8
DEFAULT
 10
-1601.277729276361
 20
1547.090185341129
 30
0.0
  0
VERTEX
  5
2E9
  8
DEFAULT
 10
-1601.310954397053
 20
1547.102378023282
 30
0.0
  0
VERTEX
  5
2EA
  8
DEFAULT
 10
-1601.343989594641
 20
1547.115169051139
 30
0.0
  0
VERTEX
  5
2EB
  8
DEFAULT
 10
-1601.376818774269
 20
1547.128553938076
 30
0.0
  0
VERTEX
  5
2EC
  8
DEFAULT
 10
-1601.409425985079
 20
1547.142527622101
 30
0.0
  0
VERTEX
  5
2ED
  8
DEFAULT
 10
-1601.441795445855
 20
1547.157084471792
 30
0.0
  0
VERTEX
  5
2EE
  8
DEFAULT
 10
-1601.473911570364
 20
1547.172218293602
 30
0.0
  0
VERTEX
  5
2EF
  8
DEFAULT
 10
-1601.505758992306
 20
1547.187922340514
 30
0.0
  0
VERTEX
  5
2F0
  8
DEFAULT
 10
-1601.537322589795
 20
1547.204189322021
 30
0.0
  0
VERTEX
  5
2F1
  8
DEFAULT
 10
-1601.568587509282
 20
1547.221011415395
 30
0.0
  0
VERTEX
  5
2F2
  8
DEFAULT
 10
-1601.599539188845
 20
1547.238380278228
 30
0.0
  0
VERTEX
  5
2F3
  8
DEFAULT
 10
-1601.630163380767
 20
1547.256287062169
 30
0.0
  0
VERTEX
  5
2F4
  8
DEFAULT
 10
-1601.660446173337
 20
1547.274722427844
 30
0.0
  0
VERTEX
  5
2F5
  8
DEFAULT
 10
-1601.690374011784
 20
1547.293676560881
 30
0.0
  0
VERTEX
  5
2F6
  8
DEFAULT
 10
-1601.719933718306
 20
1547.313139189005
 30
0.0
  0
VERTEX
  5
2F7
  8
DEFAULT
 10
-1601.749112511106
 20
1547.333099600116
 30
0.0
  0
VERTEX
  5
2F8
  8
DEFAULT
 10
-1601.777898022397
 20
1547.35354666131
 30
0.0
  0
VERTEX
  5
2F9
  8
DEFAULT
 10
-1601.806278315319
 20
1547.374468838755
 30
0.0
  0
VERTEX
  5
2FA
  8
DEFAULT
 10
-1601.834241899712
 20
1547.395854218361
 30
0.0
  0
VERTEX
  5
2FB
  8
DEFAULT
 10
-1601.861777746719
 20
1547.417690527162
 30
0.0
  0
VERTEX
  5
2FC
  8
DEFAULT
 10
-1601.888875302174
 20
1547.43996515534
 30
0.0
  0
VERTEX
  5
2FD
  8
DEFAULT
 10
-1601.91552449875
 20
1547.462665178802
 30
0.0
  0
VERTEX
  5
2FE
  8
DEFAULT
 10
-1601.967440044125
 20
1547.509288282586
 30
0.0
  0
VERTEX
  5
2FF
  8
DEFAULT
 10
-1602.017453962167
 20
1547.557451045787
 30
0.0
  0
VERTEX
  5
300
  8
DEFAULT
 10
-1602.065504183419
 20
1547.607041157141
 30
0.0
  0
VERTEX
  5
301
  8
DEFAULT
 10
-1602.111537151058
 20
1547.657943559755
 30
0.0
  0
VERTEX
  5
302
  8
DEFAULT
 10
-1602.155507900031
 20
1547.710041223681
 30
0.0
  0
VERTEX
  5
303
  8
DEFAULT
 10
-1602.197380056203
 20
1547.763215908461
 30
0.0
  0
VERTEX
  5
304
  8
DEFAULT
 10
-1602.237125759029
 20
1547.817348906562
 30
0.0
  0
VERTEX
  5
305
  8
DEFAULT
 10
-1602.274725512309
 20
1547.872321759435
 30
0.0
  0
VERTEX
  5
306
  8
DEFAULT
 10
-1602.310167968546
 20
1547.928016938797
 30
0.0
  0
SEQEND
  5
307
  8
DEFAULT
  0
POLYLINE
  5
308
  8
DEFAULT
 66
     1
 10
0.0
 20
0.0
 30
0.0
 70
     1
  0
VERTEX
  5
309
  8
DEFAULT
 10
-1592.35781669172
 20
1539.000000000026
 30
0.0
 42
-0.1298411442895196
  0
VERTEX
  5
30A
  8
DEFAULT
 10
-1593.345452925766
 20
1539.260869565248
 30
0.0
  0
VERTEX
  5
30B
  8
DEFAULT
 10
-1594.071983061233
 20
1539.689832031459
 30
0.0
 42
-0.2840816496131376
  0
VERTEX
  5
30C
  8
DEFAULT
 10
-1595.018731725934
 20
1541.567603906375
 30
0.0
  0
VERTEX
  5
30D
  8
DEFAULT
 10
-1595.000260342093
 20
1541.948976935146
 30
0.0
 42
-0.1962615682808558
  0
VERTEX
  5
30E
  8
DEFAULT
 10
-1594.414578041302
 20
1543.342781271578
 30
0.0
  0
VERTEX
  5
30F
  8
DEFAULT
 10
-1589.414213562372
 20
1548.343145750508
 30
0.0
 42
-0.6681786379196809
  0
VERTEX
  5
310
  8
DEFAULT
 10
-1586.0
 20
1546.928932188135
 30
0.0
  0
VERTEX
  5
311
  8
DEFAULT
 10
-1586.0
 20
1541.000000000008
 30
0.0
 42
-0.4142135623744569
  0
VERTEX
  5
312
  8
DEFAULT
 10
-1588.000000000005
 20
1539.000000000005
 30
0.0
  0
SEQEND
  5
313
  8
DEFAULT
  0
POLYLINE
  5
314
  8
DEFAULT
 66
     1
 10
0.0
 20
0.0
 30
0.0
 70
     1
  0
VERTEX
  5
315
  8
DEFAULT
 10
-1567.585421958697
 20
1543.342781271578
 30
0.0
 42
-0.1962615682812555
  0
VERTEX
  5
316
  8
DEFAULT
 10
-1566.999739657908
 20
1541.948976935146
 30
0.0
  0
VERTEX
  5
317
  8
DEFAULT
 10
-1566.981268274066
 20
1541.567603906384
 30
0.0
 42
-0.2840816496174399
  0
VERTEX
  5
318
  8
DEFAULT
 10
-1567.928016938798
 20
1539.689832031454
 30
0.0
  0
VERTEX
  5
319
  8
DEFAULT
 10
-1568.654547074345
 20
1539.260869565218
 30
0.0
 42
-0.1298411442902251
  0
VERTEX
  5
31A
  8
DEFAULT
 10
-1569.642183308396
 20
1539.000000000001
 30
0.0
  0
VERTEX
  5
31B
  8
DEFAULT
 10
-1574.0
 20
1539.0
 30
0.0
 42
-0.4142135623729521
  0
VERTEX
  5
31C
  8
DEFAULT
 10
-1576.0
 20
1541.0
 30
0.0
  0
VERTEX
  5
31D
  8
DEFAULT
 10
-1576.0
 20
1546.928932188134
 30
0.0
 42
-0.6681786379192762
  0
VERTEX
  5
31E
  8
DEFAULT
 10
-1572.585786437626
 20
1548.343145750508
 30
0.0
  0
SEQEND
  5
31F
  8
DEFAULT
  0
POLYLINE
  5
320
  8
DEFAULT
 66
     1
 10
0.0
 20
0.0
 30
0.0
 70
     1
  0
VERTEX
  5
321
  8
DEFAULT
 10
-1594.414578041303
 20
1578.657218728422
 30
0.0
 42
-0.196261568281224
  0
VERTEX
  5
322
  8
DEFAULT
 10
-1595.000260342092
 20
1580.051023064854
 30
0.0
  0
VERTEX
  5
323
  8
DEFAULT
 10
-1595.018731725933
 20
1580.432396093616
 30
0.0
 42
-0.2840816496167773
  0
VERTEX
  5
324
  8
DEFAULT
 10
-1594.071983061202
 20
1582.310167968546
 30
0.0
  0
VERTEX
  5
325
  8
DEFAULT
 10
-1593.345452925656
 20
1582.739130434782
 30
0.0
 42
-0.1298411442898343
  0
VERTEX
  5
326
  8
DEFAULT
 10
-1592.357816691603
 20
1582.999999999999
 30
0.0
  0
VERTEX
  5
327
  8
DEFAULT
 10
-1588.0
 20
1583.0
 30
0.0
 42
-0.414213562372905
  0
VERTEX
  5
328
  8
DEFAULT
 10
-1586.0
 20
1581.0
 30
0.0
  0
VERTEX
  5
329
  8
DEFAULT
 10
-1586.0
 20
1575.071067811865
 30
0.0
 42
-0.6681786379194479
  0
VERTEX
  5
32A
  8
DEFAULT
 10
-1589.414213562373
 20
1573.656854249492
 30
0.0
  0
SEQEND
  5
32B
  8
DEFAULT
  0
POLYLINE
  5
32C
  8
DEFAULT
 66
     1
 10
0.0
 20
0.0
 30
0.0
 70
     1
  0
VERTEX
  5
32D
  8
DEFAULT
 10
-1567.928016938798
 20
1582.310167968547
 30
0.0
 42
-0.2840816496170759
  0
VERTEX
  5
32E
  8
DEFAULT
 10
-1566.981268274068
 20
1580.432396093617
 30
0.0
  0
VERTEX
  5
32F
  8
DEFAULT
 10
-1566.999739657908
 20
1580.051023064855
 30
0.0
 42
-0.1962615682814708
  0
VERTEX
  5
330
  8
DEFAULT
 10
-1567.585421958697
 20
1578.657218728422
 30
0.0
  0
VERTEX
  5
331
  8
DEFAULT
 10
-1572.585786437627
 20
1573.656854249492
 30
0.0
 42
-0.6681786379192062
  0
VERTEX
  5
332
  8
DEFAULT
 10
-1576.0
 20
1575.071067811866
 30
0.0
  0
VERTEX
  5
333
  8
DEFAULT
 10
-1576.0
 20
1581.0
 30
0.0
 42
-0.4142135623731283
  0
VERTEX
  5
334
  8
DEFAULT
 10
-1574.0
 20
1583.0
 30
0.0
  0
VERTEX
  5
335
  8
DEFAULT
 10
-1569.642183308396
 20
1582.999999999999
 30
0.0
 42
-0.129841144289554
  0
VERTEX
  5
336
  8
DEFAULT
 10
-1568.654547074344
 20
1582.739130434782
 30
0.0
  0
SEQEND
  5
337
  8
DEFAULT
  0
POLYLINE
  5
338
  8
TRACES
 66
     1
 10
0.0
 20
0.0
 30
0.0
 70
     1
  0
VERTEX
  5
339
  8
TRACES
 10
-1699.700736862516
 20
1585.64
 30
0.0
 42
-0.0549147936772173
  0
VERTEX
  5
33A
  8
TRACES
 10
-1694.655974561702
 20
1582.154118528531
 30
0.0
 42
-0.55983353621131
  0
VERTEX
  5
33B
  8
TRACES
 10
-1694.82608401477
 20
1581.128091250357
 30
0.0
 42
1.507883265970162
  0
VERTEX
  5
33C
  8
TRACES
 10
-1692.871908752564
 20
1579.173915988466
 30
0.0
 42
-0.5598335362115574
  0
VERTEX
  5
33D
  8
TRACES
 10
-1691.845881474418
 20
1579.344025441699
 30
0.0
 42
-0.3731940677545035
  0
VERTEX
  5
33E
  8
TRACES
 10
-1691.845881471466
 20
1542.655974561701
 30
0.0
 42
-0.5598335362115022
  0
VERTEX
  5
33F
  8
TRACES
 10
-1692.871908749641
 20
1542.826084014769
 30
0.0
 42
1.507883265970538
  0
VERTEX
  5
340
  8
TRACES
 10
-1694.826084011531
 20
1540.871908752564
 30
0.0
 42
-0.5598335362118377
  0
VERTEX
  5
341
  8
TRACES
 10
-1694.655974558299
 20
1539.845881474417
 30
0.0
 42
-0.0549147937174991
  0
VERTEX
  5
342
  8
TRACES
 10
-1699.70073686251
 20
1536.36
 30
0.0
 42
-0.1243688756260559
  0
VERTEX
  5
343
  8
TRACES
 10
-1701.125657912955
 20
1536.0
 30
0.0
  0
VERTEX
  5
344
  8
TRACES
 10
-1724.874342087043
 20
1536.0
 30
0.0
 42
-0.1243688756260353
  0
VERTEX
  5
345
  8
TRACES
 10
-1726.299263137488
 20
1536.36
 30
0.0
 42
-0.0549147936771531
  0
VERTEX
  5
346
  8
TRACES
 10
-1731.344025438296
 20
1539.845881471466
 30
0.0
 42
-0.5598335362120641
  0
VERTEX
  5
347
  8
TRACES
 10
-1731.173915985228
 20
1540.871908749639
 30
0.0
 42
1.507883265971022
  0
VERTEX
  5
348
  8
TRACES
 10
-1733.128091247434
 20
1542.826084011531
 30
0.0
 42
-0.559833536211668
  0
VERTEX
  5
349
  8
TRACES
 10
-1734.154118525581
 20
1542.655974558298
 30
0.0
 42
-0.3731940677544878
  0
VERTEX
  5
34A
  8
TRACES
 10
-1734.154118528532
 20
1579.344025438295
 30
0.0
 42
-0.5598335362120334
  0
VERTEX
  5
34B
  8
TRACES
 10
-1733.128091250357
 20
1579.173915985228
 30
0.0
 42
1.507883265970003
  0
VERTEX
  5
34C
  8
TRACES
 10
-1731.173915988468
 20
1581.128091247432
 30
0.0
 42
-0.559833536211312
  0
VERTEX
  5
34D
  8
TRACES
 10
-1731.3440254417
 20
1582.15411852558
 30
0.0
 42
-0.0549147937175857
  0
VERTEX
  5
34E
  8
TRACES
 10
-1726.299263137482
 20
1585.64
 30
0.0
 42
-0.1243688756259657
  0
VERTEX
  5
34F
  8
TRACES
 10
-1724.874342087038
 20
1586.0
 30
0.0
  0
VERTEX
  5
350
  8
TRACES
 10
-1701.125657912961
 20
1586.0
 30
0.0
 42
-0.1243688756259986
  0
SEQEND
  5
351
  8
TRACES
  0
POLYLINE
  5
352
  8
DEFAULT
 66
     1
 10
0.0
 20
0.0
 30
0.0
 70
     1
  0
VERTEX
  5
353
  8
DEFAULT
 10
-1635.125657912955
 20
1536.0
 30
0.0
  0
VERTEX
  5
354
  8
DEFAULT
 10
-1658.874342087043
 20
1536.0
 30
0.0
 42
-0.1243688756260353
  0
VERTEX
  5
355
  8
DEFAULT
 10
-1660.299263137488
 20
1536.36
 30
0.0
 42
-0.0549147936770912
  0
VERTEX
  5
356
  8
DEFAULT
 10
-1665.344025438296
 20
1539.845881471466
 30
0.0
 42
-0.5598335362122652
  0
VERTEX
  5
357
  8
DEFAULT
 10
-1665.173915985229
 20
1540.871908749639
 30
0.0
 42
1.507883265970836
  0
VERTEX
  5
358
  8
DEFAULT
 10
-1667.128091247434
 20
1542.826084011531
 30
0.0
 42
-0.559833536211668
  0
VERTEX
  5
359
  8
DEFAULT
 10
-1668.154118525581
 20
1542.655974558298
 30
0.0
 42
-0.3731940677544909
  0
VERTEX
  5
35A
  8
DEFAULT
 10
-1668.154118528532
 20
1579.344025438295
 30
0.0
 42
-0.5598335362120334
  0
VERTEX
  5
35B
  8
DEFAULT
 10
-1667.128091250357
 20
1579.173915985228
 30
0.0
 42
1.507883265969705
  0
VERTEX
  5
35C
  8
DEFAULT
 10
-1665.173915988468
 20
1581.128091247433
 30
0.0
 42
-0.5598335362111613
  0
VERTEX
  5
35D
  8
DEFAULT
 10
-1665.3440254417
 20
1582.15411852558
 30
0.0
 42
-0.0549147937174986
  0
VERTEX
  5
35E
  8
DEFAULT
 10
-1660.299263137482
 20
1585.64
 30
0.0
 42
-0.1243688756260116
  0
VERTEX
  5
35F
  8
DEFAULT
 10
-1658.874342087038
 20
1586.0
 30
0.0
  0
VERTEX
  5
360
  8
DEFAULT
 10
-1635.125657912961
 20
1586.0
 30
0.0
 42
-0.1243688756259986
  0
VERTEX
  5
361
  8
DEFAULT
 10
-1633.700736862517
 20
1585.64
 30
0.0
 42
-0.0549147936772621
  0
VERTEX
  5
362
  8
DEFAULT
 10
-1628.655974561702
 20
1582.154118528531
 30
0.0
 42
-0.55983353621131
  0
VERTEX
  5
363
  8
DEFAULT
 10
-1628.82608401477
 20
1581.128091250357
 30
0.0
 42
1.507883265970836
  0
VERTEX
  5
364
  8
DEFAULT
 10
-1626.871908752565
 20
1579.173915988466
 30
0.0
 42
-0.5598335362117242
  0
VERTEX
  5
365
  8
DEFAULT
 10
-1625.845881474418
 20
1579.344025441699
 30
0.0
 42
-0.3731940677545035
  0
VERTEX
  5
366
  8
DEFAULT
 10
-1625.845881471466
 20
1542.655974561701
 30
0.0
 42
-0.5598335362115022
  0
VERTEX
  5
367
  8
DEFAULT
 10
-1626.871908749641
 20
1542.826084014769
 30
0.0
 42
1.507883265970538
  0
VERTEX
  5
368
  8
DEFAULT
 10
-1628.826084011531
 20
1540.871908752564
 30
0.0
 42
-0.5598335362118377
  0
VERTEX
  5
369
  8
DEFAULT
 10
-1628.655974558299
 20
1539.845881474417
 30
0.0
 42
-0.0549147937174866
  0
VERTEX
  5
36A
  8
DEFAULT
 10
-1633.70073686251
 20
1536.360000000001
 30
0.0
 42
-0.1243688756261514
  0
SEQEND
  5
36B
  8
DEFAULT
  0
POLYLINE
  5
36C
  8
DEFAULT
 66
     1
 10
0.0
 20
0.0
 30
0.0
 70
     1
  0
VERTEX
  5
36D
  8
DEFAULT
 10
-1575.999999999998
 20
1536.999999999997
 30
0.0
 42
0.4142135623730286
  0
VERTEX
  5
36E
  8
DEFAULT
 10
-1576.999999999998
 20
1537.999999999997
 30
0.0
  0
VERTEX
  5
36F
  8
DEFAULT
 10
-1585.0
 20
1537.999999999997
 30
0.0
 42
0.4142135623730286
  0
VERTEX
  5
370
  8
DEFAULT
 10
-1586.0
 20
1536.999999999997
 30
0.0
 42
-0.4142135623730756
  0
VERTEX
  5
371
  8
DEFAULT
 10
-1587.0
 20
1535.999999999997
 30
0.0
  0
VERTEX
  5
372
  8
DEFAULT
 10
-1592.874342087043
 20
1536.0
 30
0.0
 42
-0.1243688756260732
  0
VERTEX
  5
373
  8
DEFAULT
 10
-1594.299263137489
 20
1536.36
 30
0.0
 42
-0.0549147936771544
  0
VERTEX
  5
374
  8
DEFAULT
 10
-1599.344025438296
 20
1539.845881471466
 30
0.0
 42
-0.5598335362120488
  0
VERTEX
  5
375
  8
DEFAULT
 10
-1599.173915985229
 20
1540.871908749639
 30
0.0
 42
1.507883265970726
  0
VERTEX
  5
376
  8
DEFAULT
 10
-1601.128091247434
 20
1542.826084011531
 30
0.0
 42
-0.5598335362119885
  0
VERTEX
  5
377
  8
DEFAULT
 10
-1602.15411852558
 20
1542.655974558298
 30
0.0
 42
-0.054914793717598
  0
VERTEX
  5
378
  8
DEFAULT
 10
-1605.64
 20
1547.700736862513
 30
0.0
 42
-0.1243688756259112
  0
VERTEX
  5
379
  8
DEFAULT
 10
-1606.0
 20
1549.125657912958
 30
0.0
  0
VERTEX
  5
37A
  8
DEFAULT
 10
-1606.0
 20
1572.874342087039
 30
0.0
 42
-0.1243688756259986
  0
VERTEX
  5
37B
  8
DEFAULT
 10
-1605.64
 20
1574.299263137484
 30
0.0
 42
-0.0549147936771839
  0
VERTEX
  5
37C
  8
DEFAULT
 10
-1602.154118528532
 20
1579.344025438295
 30
0.0
 42
-0.5598335362115022
  0
VERTEX
  5
37D
  8
DEFAULT
 10
-1601.128091250357
 20
1579.173915985228
 30
0.0
 42
1.507883265969705
  0
VERTEX
  5
37E
  8
DEFAULT
 10
-1599.173915988468
 20
1581.128091247433
 30
0.0
 42
-0.5598335362116842
  0
VERTEX
  5
37F
  8
DEFAULT
 10
-1599.3440254417
 20
1582.15411852558
 30
0.0
 42
-0.0549147937175807
  0
VERTEX
  5
380
  8
DEFAULT
 10
-1594.299263137483
 20
1585.64
 30
0.0
 42
-0.124368875626019
  0
VERTEX
  5
381
  8
DEFAULT
 10
-1592.874342087038
 20
1586.0
 30
0.0
  0
VERTEX
  5
382
  8
DEFAULT
 10
-1587.0
 20
1586.0
 30
0.0
 42
-0.4142135623730286
  0
VERTEX
  5
383
  8
DEFAULT
 10
-1586.0
 20
1585.0
 30
0.0
 42
0.4142135623730286
  0
VERTEX
  5
384
  8
DEFAULT
 10
-1585.0
 20
1584.0
 30
0.0
  0
VERTEX
  5
385
  8
DEFAULT
 10
-1576.999999999998
 20
1584.0
 30
0.0
 42
0.4142135623730286
  0
VERTEX
  5
386
  8
DEFAULT
 10
-1575.999999999998
 20
1585.0
 30
0.0
 42
-0.4142135623730286
  0
VERTEX
  5
387
  8
DEFAULT
 10
-1574.999999999998
 20
1586.0
 30
0.0
  0
VERTEX
  5
388
  8
DEFAULT
 10
-1569.125657912961
 20
1586.0
 30
0.0
 42
-0.1243688756259986
  0
VERTEX
  5
389
  8
DEFAULT
 10
-1567.700736862517
 20
1585.64
 30
0.0
 42
-0.0549147937175908
  0
VERTEX
  5
38A
  8
DEFAULT
 10
-1562.655974558298
 20
1582.15411852558
 30
0.0
 42
-0.5598335362114097
  0
VERTEX
  5
38B
  8
DEFAULT
 10
-1562.826084011531
 20
1581.128091247433
 30
0.0
 42
1.507883265970463
  0
VERTEX
  5
38C
  8
DEFAULT
 10
-1560.871908749641
 20
1579.173915985228
 30
0.0
 42
-0.5598335362118056
  0
VERTEX
  5
38D
  8
DEFAULT
 10
-1559.845881471467
 20
1579.344025438295
 30
0.0
 42
-0.0549147936771286
  0
VERTEX
  5
38E
  8
DEFAULT
 10
-1556.359999999999
 20
1574.299263137484
 30
0.0
 42
-0.1243688756259023
  0
VERTEX
  5
38F
  8
DEFAULT
 10
-1555.999999999999
 20
1572.874342087039
 30
0.0
  0
VERTEX
  5
390
  8
DEFAULT
 10
-1555.999999999999
 20
1549.125657912958
 30
0.0
 42
-0.1243688756260365
  0
VERTEX
  5
391
  8
DEFAULT
 10
-1556.359999999999
 20
1547.700736862513
 30
0.0
 42
-0.0549147937175417
  0
VERTEX
  5
392
  8
DEFAULT
 10
-1559.845881474418
 20
1542.655974558298
 30
0.0
 42
-0.5598335362116986
  0
VERTEX
  5
393
  8
DEFAULT
 10
-1560.871908752565
 20
1542.826084011531
 30
0.0
 42
1.507883265969842
  0
VERTEX
  5
394
  8
DEFAULT
 10
-1562.82608401477
 20
1540.87190874964
 30
0.0
 42
-0.5598335362118215
  0
VERTEX
  5
395
  8
DEFAULT
 10
-1562.655974561703
 20
1539.845881471466
 30
0.0
 42
-0.05491479367718
  0
VERTEX
  5
396
  8
DEFAULT
 10
-1567.70073686251
 20
1536.36
 30
0.0
 42
-0.1243688756259855
  0
VERTEX
  5
397
  8
DEFAULT
 10
-1569.125657912955
 20
1536.0
 30
0.0
  0
VERTEX
  5
398
  8
DEFAULT
 10
-1574.999999999998
 20
1536.0
 30
0.0
 42
-0.4142135623722278
  0
SEQEND
  5
399
  8
DEFAULT
  0
ENDSEC
  0
EOF
