  0
SECTION
  2
HEADER
  9
$ACADVER
  1
AC1009
  9
$DWGCODEPAGE
  3
ansi_1252
  9
$INSBASE
 10
0.0
 20
0.0
 30
0.0
  9
$EXTMIN
 10
47.00000000000006
 20
-34.00000000000003
 30
0.0
  9
$EXTMAX
 10
231.0000000000005
 20
25.00000000000001
 30
0.0
  9
$LIMMIN
 10
0.0
 20
0.0
  9
$LIMMAX
 10
12.0
 20
9.0
  9
$ORTHOMODE
 70
     0
  9
$REGENMODE
 70
     1
  9
$FILLMODE
 70
     1
  9
$QTEXTMODE
 70
     0
  9
$MIRRTEXT
 70
     1
  9
$DRAGMODE
 70
     2
  9
$LTSCALE
 40
1.0
  9
$OSMODE
 70
    37
  9
$ATTMODE
 70
     1
  9
$TEXTSIZE
 40
0.2
  9
$TRACEWID
 40
0.05
  9
$TEXTSTYLE
  7
STANDARD
  9
$CLAYER
  8
DEFAULT
  9
$CELTYPE
  6
BYLAYER
  9
$CECOLOR
 62
   256
  9
$DIMSCALE
 40
1.0
  9
$DIMASZ
 40
0.18
  9
$DIMEXO
 40
0.0625
  9
$DIMDLI
 40
0.38
  9
$DIMRND
 40
0.0
  9
$DIMDLE
 40
0.0
  9
$DIMEXE
 40
0.18
  9
$DIMTP
 40
0.0
  9
$DIMTM
 40
0.0
  9
$DIMTXT
 40
0.18
  9
$DIMCEN
 40
0.09
  9
$DIMTSZ
 40
0.0
  9
$DIMTOL
 70
     0
  9
$DIMLIM
 70
     0
  9
$DIMTIH
 70
     1
  9
$DIMTOH
 70
     1
  9
$DIMSE1
 70
     0
  9
$DIMSE2
 70
     0
  9
$DIMTAD
 70
     0
  9
$DIMZIN
 70
     0
  9
$DIMBLK
  1

  9
$DIMASO
 70
     1
  9
$DIMSHO
 70
     1
  9
$DIMPOST
  1

  9
$DIMAPOST
  1

  9
$DIMALT
 70
     0
  9
$DIMALTD
 70
     2
  9
$DIMALTF
 40
25.4
  9
$DIMLFAC
 40
1.0
  9
$DIMTOFL
 70
     0
  9
$DIMTVP
 40
0.0
  9
$DIMTIX
 70
     0
  9
$DIMSOXD
 70
     0
  9
$DIMSAH
 70
     0
  9
$DIMBLK1
  1

  9
$DIMBLK2
  1

  9
$DIMSTYLE
  2
STANDARD_ACAD
  9
$DIMCLRD
 70
     0
  9
$DIMCLRE
 70
     0
  9
$DIMCLRT
 70
     0
  9
$DIMTFAC
 40
1.0
  9
$DIMGAP
 40
0.09
  9
$LUNITS
 70
     2
  9
$LUPREC
 70
     3
  9
$SKETCHINC
 40
0.1
  9
$FILLETRAD
 40
0.0
  9
$AUNITS
 70
     0
  9
$AUPREC
 70
     0
  9
$MENU
  1
.
  9
$ELEVATION
 40
0.0
  9
$PELEVATION
 40
0.0
  9
$THICKNESS
 40
0.0
  9
$LIMCHECK
 70
     0
  9
$CHAMFERA
 40
0.0
  9
$CHAMFERB
 40
0.0
  9
$SKPOLY
 70
     0
  9
$TDCREATE
 40
2461174.734568993
  9
$TDUPDATE
 40
2461174.734580856
  9
$TDINDWG
 40
0.0000000116
  9
$TDUSRTIMER
 40
0.0000000116
  9
$USRTIMER
 70
     1
  9
$ANGBASE
 50
0.0
  9
$ANGDIR
 70
     0
  9
$PDMODE
 70
     0
  9
$PDSIZE
 40
0.0
  9
$PLINEWID
 40
0.0
  9
$COORDS
 70
     1
  9
$SPLFRAME
 70
     0
  9
$SPLINETYPE
 70
     6
  9
$SPLINESEGS
 70
     8
  9
$ATTDIA
 70
     0
  9
$ATTREQ
 70
     1
  9
$HANDLING
 70
     1
  9
$HANDSEED
  5
5AD
  9
$SURFTAB1
 70
     6
  9
$SURFTAB2
 70
     6
  9
$SURFTYPE
 70
     6
  9
$SURFU
 70
     6
  9
$SURFV
 70
     6
  9
$UCSNAME
  2

  9
$UCSORG
 10
0.0
 20
0.0
 30
0.0
  9
$UCSXDIR
 10
1.0
 20
0.0
 30
0.0
  9
$UCSYDIR
 10
0.0
 20
1.0
 30
0.0
  9
$PUCSNAME
  2

  9
$PUCSORG
 10
0.0
 20
0.0
 30
0.0
  9
$PUCSXDIR
 10
1.0
 20
0.0
 30
0.0
  9
$PUCSYDIR
 10
0.0
 20
1.0
 30
0.0
  9
$USERI1
 70
     0
  9
$USERI2
 70
     0
  9
$USERI3
 70
     0
  9
$USERI4
 70
     0
  9
$USERI5
 70
     0
  9
$USERR1
 40
0.0
  9
$USERR2
 40
0.0
  9
$USERR3
 40
0.0
  9
$USERR4
 40
0.0
  9
$USERR5
 40
0.0
  9
$WORLDVIEW
 70
     1
  9
$SHADEDGE
 70
     3
  9
$SHADEDIF
 70
    70
  9
$TILEMODE
 70
     1
  9
$MAXACTVP
 70
    64
  9
$PLIMCHECK
 70
     0
  9
$PEXTMIN
 10
1.000000000000000E+20
 20
1.000000000000000E+20
 30
1.000000000000000E+20
  9
$PEXTMAX
 10
-1.000000000000000E+20
 20
-1.000000000000000E+20
 30
-1.000000000000000E+20
  9
$PLIMMIN
 10
0.0
 20
0.0
  9
$PLIMMAX
 10
12.0
 20
9.0
  9
$UNITMODE
 70
     0
  9
$VISRETAIN
 70
     1
  9
$PLINEGEN
 70
     0
  9
$PSLTSCALE
 70
     1
  0
ENDSEC
  0
SECTION
  2
TABLES
  0
TABLE
  2
VPORT
 70
     1
  0
VPORT
  2
*ACTIVE
 70
     0
 10
0.0
 20
0.0
 11
1.0
 21
1.0
 12
10.42990654205607
 22
4.5
 13
0.0
 23
0.0
 14
0.5
 24
0.5
 15
0.5
 25
0.5
 16
0.0
 26
0.0
 36
1.0
 17
0.0
 27
0.0
 37
0.0
 40
9.0
 41
1.972972972850329
 42
50.0
 43
0.0
 44
0.0
 50
0.0
 51
0.0
 71
     0
 72
   100
 73
     1
 74
     3
 75
     0
 76
     0
 77
     0
 78
     0
  0
ENDTAB
  0
TABLE
  2
LTYPE
 70
     1
  0
LTYPE
  2
CONTINUOUS
 70
     0
  3
Solid line
 72
    65
 73
     0
 40
0.0
  0
ENDTAB
  0
TABLE
  2
LAYER
 70
     5
  0
LAYER
  2
0
 70
     0
 62
     7
  6
CONTINUOUS
  0
LAYER
  2
MASK
 70
     0
 62
     7
  6
CONTINUOUS
  0
LAYER
  2
DEFAULT
 70
     0
 62
     7
  6
CONTINUOUS
  0
LAYER
  2
TRACES
 70
     0
 62
    96
  6
CONTINUOUS
  0
LAYER
  2
HOLES
 70
     0
 62
    12
  6
CONTINUOUS
  0
ENDTAB
  0
TABLE
  2
STYLE
 70
     2
  0
STYLE
  2
STANDARD
 70
     0
 40
0.0
 41
1.0
 50
0.0
 71
     0
 42
0.2
  3
txt
  4

  0
STYLE
  2
MILLIMETER_SMALL
 70
     0
 40
0.0
 41
1.0
 50
0.0
 71
     0
 42
0.2
  3
arial.ttf
  4

  0
ENDTAB
  0
TABLE
  2
VIEW
 70
     0
  0
ENDTAB
  0
TABLE
  2
UCS
 70
     0
  0
ENDTAB
  0
TABLE
  2
APPID
 70
     3
  0
APPID
  2
ACAD
 70
     0
  0
APPID
  2
RHINO
 70
     0
  0
APPID
  2
ACADANNOTATIVE
 70
     0
  0
ENDTAB
  0
TABLE
  2
DIMSTYLE
 70
     1
  0
DIMSTYLE
  2
STANDARD_ACAD
 70
     0
  3

  4

  5

  6

  7

 40
1.0
 41
0.18
 42
0.0625
 43
0.38
 44
0.18
 45
0.0
 46
0.0
 47
0.0
 48
0.0
140
0.18
141
0.09
142
0.0
143
25.4
144
1.0
145
0.0
146
1.0
147
0.09
 71
     0
 72
     0
 73
     1
 74
     1
 75
     0
 76
     0
 77
     0
 78
     0
170
     0
171
     2
172
     0
173
     0
174
     0
175
     0
176
     0
177
     0
178
     0
  0
ENDTAB
  0
ENDSEC
  0
SECTION
  2
BLOCKS
  0
BLOCK
  8
0
  2
$MODEL_SPACE
 70
     0
 10
0.0
 20
0.0
 30
0.0
  3
$MODEL_SPACE
  1

  0
ENDBLK
  5
21
  8
0
  0
BLOCK
 67
     1
  8
0
  2
$PAPER_SPACE
 70
     0
 10
0.0
 20
0.0
 30
0.0
  3
$PAPER_SPACE
  1

  0
ENDBLK
  5
1D
 67
     1
  8
0
  0
ENDSEC
  0
SECTION
  2
ENTITIES
  0
POLYLINE
  5
60
  8
MASK
 66
     1
 10
0.0
 20
0.0
 30
0.0
 70
     1
  0
VERTEX
  5
61
  8
MASK
 10
162.5471488596621
 20
17.88072638400308
 30
0.0
 42
0.4433088916475915
  0
VERTEX
  5
62
  8
MASK
 10
161.0665646973761
 20
17.94527740788753
 30
0.0
 42
-1.005598091024095
  0
VERTEX
  5
63
  8
MASK
 10
158.945277407888
 20
20.06656469737558
 30
0.0
 42
0.4433088916476269
  0
VERTEX
  5
64
  8
MASK
 10
158.8807263840037
 20
21.54714885966145
 30
0.0
 42
0.0542511178041777
  0
VERTEX
  5
65
  8
MASK
 10
153.8274397241443
 20
24.88888888888889
 30
0.0
 42
0.1195350615016113
  0
VERTEX
  5
66
  8
MASK
 10
153.3693168768534
 20
25.00000000000001
 30
0.0
  0
VERTEX
  5
67
  8
MASK
 10
128.6306831231475
 20
24.99999999999998
 30
0.0
 42
0.119535061501633
  0
VERTEX
  5
68
  8
MASK
 10
128.1725602758566
 20
24.88888888888885
 30
0.0
 42
0.0542511178041786
  0
VERTEX
  5
69
  8
MASK
 10
123.1192736159972
 20
21.54714885966146
 30
0.0
 42
0.4433088916475775
  0
VERTEX
  5
6A
  8
MASK
 10
123.0547225921129
 20
20.06656469737554
 30
0.0
 42
-1.005598091024073
  0
VERTEX
  5
6B
  8
MASK
 10
120.9334353026249
 20
17.94527740788754
 30
0.0
 42
0.4433088916476089
  0
VERTEX
  5
6C
  8
MASK
 10
119.4528511403389
 20
17.88072638400306
 30
0.0
 42
0.3608830537282557
  0
VERTEX
  5
6D
  8
MASK
 10
119.4528511403389
 20
-17.88072638400308
 30
0.0
 42
0.4433088916476075
  0
VERTEX
  5
6E
  8
MASK
 10
120.9334353026248
 20
-17.94527740788753
 30
0.0
 42
-1.005598091024092
  0
VERTEX
  5
6F
  8
MASK
 10
123.0547225921129
 20
-20.06656469737554
 30
0.0
 42
0.4433088916475772
  0
VERTEX
  5
70
  8
MASK
 10
123.1192736159972
 20
-21.54714885966145
 30
0.0
 42
0.0542511178041789
  0
VERTEX
  5
71
  8
MASK
 10
128.1725602758567
 20
-24.88888888888892
 30
0.0
 42
0.11953506150159
  0
VERTEX
  5
72
  8
MASK
 10
128.6306831231475
 20
-24.99999999999999
 30
0.0
  0
VERTEX
  5
73
  8
MASK
 10
153.3693168768535
 20
-24.99999999999999
 30
0.0
 42
0.119535061501581
  0
VERTEX
  5
74
  8
MASK
 10
153.8274397241443
 20
-24.88888888888889
 30
0.0
 42
0.0542511178041781
  0
VERTEX
  5
75
  8
MASK
 10
158.8807263840038
 20
-21.54714885966143
 30
0.0
 42
0.4433088916475654
  0
VERTEX
  5
76
  8
MASK
 10
158.9452774078882
 20
-20.0665646973755
 30
0.0
 42
-1.00559809102408
  0
VERTEX
  5
77
  8
MASK
 10
161.066564697376
 20
-17.94527740788757
 30
0.0
 42
0.4433088916476117
  0
VERTEX
  5
78
  8
MASK
 10
162.5471488596621
 20
-17.88072638400312
 30
0.0
 42
0.3608830537282549
  0
SEQEND
  5
79
  8
MASK
  0
POLYLINE
  5
7A
  8
MASK
 66
     1
 10
0.0
 20
0.0
 30
0.0
 70
     1
  0
VERTEX
  5
7B
  8
MASK
 10
143.0000000000005
 20
19.0
 30
0.0
  0
VERTEX
  5
7C
  8
MASK
 10
151.0000000000005
 20
19.0
 30
0.0
  0
VERTEX
  5
7D
  8
MASK
 10
151.0000000000005
 20
23.0
 30
0.0
  0
VERTEX
  5
7E
  8
MASK
 10
143.0000000000005
 20
23.0
 30
0.0
  0
SEQEND
  5
7F
  8
MASK
  0
TEXT
  5
81
  8
MASK
 10
160.7090287893195
 20
3.714293478260867
 30
0.0
 40
2.5
  1
DC
  7
MILLIMETER_SMALL
1001
ACADANNOTATIVE
1000
AnnotativeData
1002
{
1070
     1
1070
     0
1002
}
  0
TEXT
  5
82
  8
MASK
 10
126.8300000000005
 20
3.672119565217372
 30
0.0
 40
2.5
  1
LED
 50
270.0
  7
MILLIMETER_SMALL
1001
ACADANNOTATIVE
1000
AnnotativeData
1002
{
1070
     1
1070
     0
1002
}
  0
POLYLINE
  5
83
  8
MASK
 66
     1
 10
0.0
 20
0.0
 30
0.0
 70
     1
  0
VERTEX
  5
84
  8
MASK
 10
110.5400000000005
 20
-13.0
 30
0.0
  0
VERTEX
  5
85
  8
MASK
 10
136.5400000000005
 20
-13.0
 30
0.0
  0
VERTEX
  5
86
  8
MASK
 10
136.5400000000005
 20
13.0
 30
0.0
  0
VERTEX
  5
87
  8
MASK
 10
110.5400000000005
 20
13.0
 30
0.0
  0
SEQEND
  5
88
  8
MASK
  0
POLYLINE
  5
89
  8
MASK
 66
     1
 10
0.0
 20
0.0
 30
0.0
 70
     1
  0
VERTEX
  5
8A
  8
MASK
 10
132.5400000000005
 20
3.539999999999998
 30
0.0
  0
VERTEX
  5
8B
  8
MASK
 10
132.5400000000005
 20
-3.54
 30
0.0
  0
VERTEX
  5
8C
  8
MASK
 10
134.5400000000005
 20
-3.54
 30
0.0
  0
VERTEX
  5
8D
  8
MASK
 10
134.5400000000005
 20
3.539999999999998
 30
0.0
  0
SEQEND
  5
8E
  8
MASK
  0
TEXT
  5
8F
  8
MASK
 10
131.811423913044
 20
1.626010869565221
 30
0.0
 40
1.5
  1
G
 50
89.99999999999997
  7
MILLIMETER_SMALL
1001
ACADANNOTATIVE
1000
AnnotativeData
1002
{
1070
     1
1070
     0
1002
}
  0
TEXT
  5
90
  8
MASK
 10
131.7900000000005
 20
-0.7019347826086744
 30
0.0
 40
1.5
  1
V
 50
90.00000000000026
  7
MILLIMETER_SMALL
1001
ACADANNOTATIVE
1000
AnnotativeData
1002
{
1070
     1
1070
     0
1002
}
  0
TEXT
  5
91
  8
MASK
 10
131.7900000000005
 20
-3.733249999999998
 30
0.0
 40
1.5
  1
DI
 50
90.00000000000006
  7
MILLIMETER_SMALL
1001
ACADANNOTATIVE
1000
AnnotativeData
1002
{
1070
     1
1070
     0
1002
}
  0
TEXT
  5
92
  8
MASK
 10
124.772826086957
 20
-4.525968582654869
 30
0.0
 40
2.5
  1
R220
 50
89.99999999999996
  7
MILLIMETER_SMALL
1001
ACADANNOTATIVE
1000
AnnotativeData
1002
{
1070
     1
1070
     0
1002
}
  0
TEXT
  5
93
  8
MASK
 10
138.8000000000005
 20
-18.25
 30
0.0
 40
2.5
  1
IR
  7
MILLIMETER_SMALL
1001
ACADANNOTATIVE
1000
AnnotativeData
1002
{
1070
     1
1070
     0
1002
}
  0
POLYLINE
  5
94
  8
MASK
 66
     1
 10
0.0
 20
0.0
 30
0.0
 70
     1
  0
VERTEX
  5
95
  8
MASK
 10
137.4600000000005
 20
-22.0
 30
0.0
  0
VERTEX
  5
96
  8
MASK
 10
144.5400000000005
 20
-22.0
 30
0.0
  0
VERTEX
  5
97
  8
MASK
 10
144.5400000000005
 20
-20.0
 30
0.0
  0
VERTEX
  5
98
  8
MASK
 10
137.4600000000005
 20
-20.0
 30
0.0
  0
SEQEND
  5
99
  8
MASK
  0
TEXT
  5
9A
  8
MASK
 10
142.6300869565222
 20
-23.77142391304348
 30
0.0
 40
1.5
  1
G
  7
MILLIMETER_SMALL
1001
ACADANNOTATIVE
1000
AnnotativeData
1002
{
1070
     1
1070
     0
1002
}
  0
TEXT
  5
9B
  8
MASK
 10
140.3021413043483
 20
-23.75
 30
0.0
 40
1.5
  1
V
  7
MILLIMETER_SMALL
1001
ACADANNOTATIVE
1000
AnnotativeData
1002
{
1070
     1
1070
     0
1002
}
  0
TEXT
  5
9C
  8
MASK
 10
137.6792173913048
 20
-23.77142391304348
 30
0.0
 40
1.5
  1
S
  7
MILLIMETER_SMALL
1001
ACADANNOTATIVE
1000
AnnotativeData
1002
{
1070
     1
1070
     0
1002
}
  0
TEXT
  5
9D
  8
MASK
 10
141.1416413043483
 20
16.21807608695651
 30
0.0
 40
1.5
  1
TX0
  7
MILLIMETER_SMALL
1001
ACADANNOTATIVE
1000
AnnotativeData
1002
{
1070
     1
1070
     0
1002
}
  0
TEXT
  5
9E
  8
MASK
 10
141.0261413043483
 20
13.67807608695652
 30
0.0
 40
1.5
  1
RX0
  7
MILLIMETER_SMALL
1001
ACADANNOTATIVE
1000
AnnotativeData
1002
{
1070
     1
1070
     0
1002
}
  0
TEXT
  5
9F
  8
MASK
 10
141.0801413043483
 20
11.11857608695652
 30
0.0
 40
1.5
  1
GND
  7
MILLIMETER_SMALL
1001
ACADANNOTATIVE
1000
AnnotativeData
1002
{
1070
     1
1070
     0
1002
}
  0
TEXT
  5
A0
  8
MASK
 10
141.0801413043483
 20
8.578576086956517
 30
0.0
 40
1.5
  1
GND
  7
MILLIMETER_SMALL
1001
ACADANNOTATIVE
1000
AnnotativeData
1002
{
1070
     1
1070
     0
1002
}
  0
TEXT
  5
A1
  8
MASK
 10
141.1296413043483
 20
6.058076086956518
 30
0.0
 40
1.5
  1
2
  7
MILLIMETER_SMALL
1001
ACADANNOTATIVE
1000
AnnotativeData
1002
{
1070
     1
1070
     0
1002
}
  0
TEXT
  5
A2
  8
MASK
 10
141.1026413043483
 20
3.518076086956519
 30
0.0
 40
1.5
  1
3
  7
MILLIMETER_SMALL
1001
ACADANNOTATIVE
1000
AnnotativeData
1002
{
1070
     1
1070
     0
1002
}
  0
TEXT
  5
A3
  8
MASK
 10
141.1641413043483
 20
0.9840760869565202
 30
0.0
 40
1.5
  1
4
  7
MILLIMETER_SMALL
1001
ACADANNOTATIVE
1000
AnnotativeData
1002
{
1070
     1
1070
     0
1002
}
  0
TEXT
  5
A4
  8
MASK
 10
141.1041413043483
 20
-1.555923913043479
 30
0.0
 40
1.5
  1
5
  7
MILLIMETER_SMALL
1001
ACADANNOTATIVE
1000
AnnotativeData
1002
{
1070
     1
1070
     0
1002
}
  0
TEXT
  5
A5
  8
MASK
 10
141.1131413043483
 20
-4.101923913043478
 30
0.0
 40
1.5
  1
6
  7
MILLIMETER_SMALL
1001
ACADANNOTATIVE
1000
AnnotativeData
1002
{
1070
     1
1070
     0
1002
}
  0
TEXT
  5
A6
  8
MASK
 10
141.0921413043483
 20
-6.635923913043477
 30
0.0
 40
1.5
  1
7
  7
MILLIMETER_SMALL
1001
ACADANNOTATIVE
1000
AnnotativeData
1002
{
1070
     1
1070
     0
1002
}
  0
TEXT
  5
A7
  8
MASK
 10
141.1056413043483
 20
-9.181923913043477
 30
0.0
 40
1.5
  1
8
  7
MILLIMETER_SMALL
1001
ACADANNOTATIVE
1000
AnnotativeData
1002
{
1070
     1
1070
     0
1002
}
  0
TEXT
  5
A8
  8
MASK
 10
141.1041413043483
 20
-11.72192391304348
 30
0.0
 40
1.5
  1
9
  7
MILLIMETER_SMALL
1001
ACADANNOTATIVE
1000
AnnotativeData
1002
{
1070
     1
1070
     0
1002
}
  0
TEXT
  5
A9
  8
MASK
 10
150.5464565217396
 20
-11.72192391304348
 30
0.0
 40
1.5
  1
10
  7
MILLIMETER_SMALL
1001
ACADANNOTATIVE
1000
AnnotativeData
1002
{
1070
     1
1070
     0
1002
}
  0
TEXT
  5
AA
  8
MASK
 10
147.9844565217396
 20
16.22407608695652
 30
0.0
 40
1.5
  1
RAW
  7
MILLIMETER_SMALL
1001
ACADANNOTATIVE
1000
AnnotativeData
1002
{
1070
     1
1070
     0
1002
}
  0
TEXT
  5
AB
  8
MASK
 10
148.3563913043483
 20
13.65857608695651
 30
0.0
 40
1.5
  1
GND
  7
MILLIMETER_SMALL
1001
ACADANNOTATIVE
1000
AnnotativeData
1002
{
1070
     1
1070
     0
1002
}
  0
TEXT
  5
AC
  8
MASK
 10
148.6936956521744
 20
11.11857608695652
 30
0.0
 40
1.5
  1
RST
  7
MILLIMETER_SMALL
1001
ACADANNOTATIVE
1000
AnnotativeData
1002
{
1070
     1
1070
     0
1002
}
  0
TEXT
  5
AD
  8
MASK
 10
148.6621956521744
 20
8.578576086956517
 30
0.0
 40
1.5
  1
VCC
  7
MILLIMETER_SMALL
1001
ACADANNOTATIVE
1000
AnnotativeData
1002
{
1070
     1
1070
     0
1002
}
  0
TEXT
  5
AE
  8
MASK
 10
150.5380434782614
 20
6.058076086956518
 30
0.0
 40
1.5
  1
A3
  7
MILLIMETER_SMALL
1001
ACADANNOTATIVE
1000
AnnotativeData
1002
{
1070
     1
1070
     0
1002
}
  0
TEXT
  5
AF
  8
MASK
 10
150.5543478260875
 20
3.518076086956519
 30
0.0
 40
1.5
  1
A2
  7
MILLIMETER_SMALL
1001
ACADANNOTATIVE
1000
AnnotativeData
1002
{
1070
     1
1070
     0
1002
}
  0
TEXT
  5
B0
  8
MASK
 10
150.8233695652179
 20
0.9780760869565202
 30
0.0
 40
1.5
  1
A1
  7
MILLIMETER_SMALL
1001
ACADANNOTATIVE
1000
AnnotativeData
1002
{
1070
     1
1070
     0
1002
}
  0
TEXT
  5
B1
  8
MASK
 10
150.5380434782614
 20
-1.561923913043479
 30
0.0
 40
1.5
  1
A0
  7
MILLIMETER_SMALL
1001
ACADANNOTATIVE
1000
AnnotativeData
1002
{
1070
     1
1070
     0
1002
}
  0
TEXT
  5
B2
  8
MASK
 10
150.5301521739135
 20
-4.101923913043478
 30
0.0
 40
1.5
  1
15
  7
MILLIMETER_SMALL
1001
ACADANNOTATIVE
1000
AnnotativeData
1002
{
1070
     1
1070
     0
1002
}
  0
TEXT
  5
B3
  8
MASK
 10
150.5546086956527
 20
-6.641923913043478
 30
0.0
 40
1.5
  1
14
  7
MILLIMETER_SMALL
1001
ACADANNOTATIVE
1000
AnnotativeData
1002
{
1070
     1
1070
     0
1002
}
  0
TEXT
  5
B4
  8
MASK
 10
150.5464565217396
 20
-9.181923913043477
 30
0.0
 40
1.5
  1
16
  7
MILLIMETER_SMALL
1001
ACADANNOTATIVE
1000
AnnotativeData
1002
{
1070
     1
1070
     0
1002
}
  0
POLYLINE
  5
B5
  8
MASK
 66
     1
 10
0.0
 20
0.0
 30
0.0
 70
     1
  0
VERTEX
  5
B6
  8
MASK
 10
137.5000000000005
 20
21.0
 30
0.0
  0
VERTEX
  5
B7
  8
MASK
 10
137.5000000000005
 20
-12.99999999999999
 30
0.0
  0
VERTEX
  5
B8
  8
MASK
 10
156.5000000000005
 20
-13.0
 30
0.0
  0
VERTEX
  5
B9
  8
MASK
 10
156.5000000000005
 20
20.99999999999999
 30
0.0
  0
SEQEND
  5
BA
  8
MASK
  0
POLYLINE
  5
BB
  8
MASK
 66
     1
 10
0.0
 20
0.0
 30
0.0
 70
     1
  0
VERTEX
  5
BC
  8
MASK
 10
148.5000000000005
 20
-33.99999999999998
 30
0.0
  0
VERTEX
  5
BD
  8
MASK
 10
148.5000000000005
 20
-13.99999999999998
 30
0.0
  0
VERTEX
  5
BE
  8
MASK
 10
133.5000000000005
 20
-14.00000000000002
 30
0.0
  0
VERTEX
  5
BF
  8
MASK
 10
133.5000000000005
 20
-34.00000000000003
 30
0.0
  0
SEQEND
  5
C0
  8
MASK
  0
POLYLINE
  5
C1
  8
MASK
 66
     1
 10
0.0
 20
0.0
 30
0.0
 70
     1
  0
VERTEX
  5
C2
  8
MASK
 10
168.5543478260875
 20
-2.999999999999995
 30
0.0
  0
VERTEX
  5
C3
  8
MASK
 10
168.5543478260874
 20
3.000000000000004
 30
0.0
  0
VERTEX
  5
C4
  8
MASK
 10
158.5543478260874
 20
2.999999999999996
 30
0.0
  0
VERTEX
  5
C5
  8
MASK
 10
158.5543478260875
 20
-3.000000000000005
 30
0.0
  0
SEQEND
  5
C6
  8
MASK
  0
TEXT
  5
C7
  8
MASK
 10
165.8302173913048
 20
-5.747282608695652
 30
0.0
 40
2.5
  1
-
  7
MILLIMETER_SMALL
1001
ACADANNOTATIVE
1000
AnnotativeData
1002
{
1070
     1
1070
     0
1002
}
  0
TEXT
  5
C8
  8
MASK
 10
158.5012065217396
 20
-5.308695652173905
 30
0.0
 40
1.5
  1
+5V
  7
MILLIMETER_SMALL
1001
ACADANNOTATIVE
1000
AnnotativeData
1002
{
1070
     1
1070
     0
1002
}
  0
LINE
  5
C9
  8
MASK
 10
168.0000000000005
 20
3.0
 30
0.0
 11
168.0000000000005
 21
-2.999999999999995
 31
0.0
  0
POLYLINE
  5
CB
  8
DEFAULT
 66
     1
 10
0.0
 20
0.0
 30
0.0
 70
     1
  0
VERTEX
  5
CC
  8
DEFAULT
 10
219.0719830612014
 20
21.3101679685473
 30
0.0
 42
-0.2840816496174061
  0
VERTEX
  5
CD
  8
DEFAULT
 10
220.0187317259328
 20
19.43239609361665
 30
0.0
  0
VERTEX
  5
CE
  8
DEFAULT
 10
220.0002603420926
 20
19.05102306485479
 30
0.0
 42
-0.1962615682816574
  0
VERTEX
  5
CF
  8
DEFAULT
 10
219.4145780413027
 20
17.65721872842155
 30
0.0
  0
VERTEX
  5
D0
  8
DEFAULT
 10
214.4142135623736
 20
12.65685424949244
 30
0.0
 42
-0.6681786379193021
  0
VERTEX
  5
D1
  8
DEFAULT
 10
211.0000000000005
 20
14.07106781186553
 30
0.0
  0
VERTEX
  5
D2
  8
DEFAULT
 10
211.0000000000005
 20
19.99999999999999
 30
0.0
 42
-0.4142135623730915
  0
VERTEX
  5
D3
  8
DEFAULT
 10
213.0000000000005
 20
21.99999999999999
 30
0.0
  0
VERTEX
  5
D4
  8
DEFAULT
 10
217.3578166916043
 20
21.99999999999932
 30
0.0
 42
-0.1298411442899331
  0
VERTEX
  5
D5
  8
DEFAULT
 10
218.3454529256559
 20
21.73913043478208
 30
0.0
  0
SEQEND
  5
D6
  8
DEFAULT
  0
POLYLINE
  5
D7
  8
DEFAULT
 66
     1
 10
0.0
 20
0.0
 30
0.0
 70
     1
  0
VERTEX
  5
D8
  8
DEFAULT
 10
192.5854219586978
 20
17.65721872842192
 30
0.0
 42
-0.1962615682814239
  0
VERTEX
  5
D9
  8
DEFAULT
 10
191.9997396579079
 20
19.05102306485356
 30
0.0
  0
VERTEX
  5
DA
  8
DEFAULT
 10
191.9812682740673
 20
19.4323960936158
 30
0.0
 42
-0.2840816496172978
  0
VERTEX
  5
DB
  8
DEFAULT
 10
192.9280169387979
 20
21.31016796854574
 30
0.0
  0
VERTEX
  5
DC
  8
DEFAULT
 10
193.6545470743448
 20
21.73913043478183
 30
0.0
 42
-0.1298411442900582
  0
VERTEX
  5
DD
  8
DEFAULT
 10
194.6421833083969
 20
21.99999999999934
 30
0.0
  0
VERTEX
  5
DE
  8
DEFAULT
 10
199.0000000000004
 20
21.99999999999986
 30
0.0
 42
-0.4142135623731271
  0
VERTEX
  5
DF
  8
DEFAULT
 10
201.0000000000005
 20
19.99999999999979
 30
0.0
  0
VERTEX
  5
E0
  8
DEFAULT
 10
201.0000000000005
 20
14.07106781186536
 30
0.0
 42
-0.6681786379193002
  0
VERTEX
  5
E1
  8
DEFAULT
 10
197.5857864376274
 20
12.65685424949224
 30
0.0
  0
SEQEND
  5
E2
  8
DEFAULT
  0
POLYLINE
  5
E3
  8
DEFAULT
 66
     1
 10
0.0
 20
0.0
 30
0.0
 70
     1
  0
VERTEX
  5
E4
  8
DEFAULT
 10
219.4145780413031
 20
-17.65721872842209
 30
0.0
 42
-0.1962615682814052
  0
VERTEX
  5
E5
  8
DEFAULT
 10
220.000260342093
 20
-19.05102306485371
 30
0.0
  0
VERTEX
  5
E6
  8
DEFAULT
 10
220.0187317259336
 20
-19.4323960936158
 30
0.0
 42
-0.2840816496172313
  0
VERTEX
  5
E7
  8
DEFAULT
 10
219.071983061203
 20
-21.31016796854571
 30
0.0
  0
VERTEX
  5
E8
  8
DEFAULT
 10
218.3454529256561
 20
-21.73913043478181
 30
0.0
 42
-0.1298411442900523
  0
VERTEX
  5
E9
  8
DEFAULT
 10
217.3578166916041
 20
-21.99999999999933
 30
0.0
  0
VERTEX
  5
EA
  8
DEFAULT
 10
213.0000000000006
 20
-21.99999999999986
 30
0.0
 42
-0.4142135623731194
  0
VERTEX
  5
EB
  8
DEFAULT
 10
211.0000000000005
 20
-19.99999999999979
 30
0.0
  0
VERTEX
  5
EC
  8
DEFAULT
 10
211.0000000000005
 20
-14.0710678118656
 30
0.0
 42
-0.6681786379193089
  0
VERTEX
  5
ED
  8
DEFAULT
 10
214.4142135623736
 20
-12.65685424949251
 30
0.0
  0
SEQEND
  5
EE
  8
DEFAULT
  0
POLYLINE
  5
EF
  8
DEFAULT
 66
     1
 10
0.0
 20
0.0
 30
0.0
 70
     1
  0
VERTEX
  5
F0
  8
DEFAULT
 10
194.6421833082809
 20
-21.99999999997421
 30
0.0
 42
-0.1298411442895155
  0
VERTEX
  5
F1
  8
DEFAULT
 10
193.6545470742345
 20
-21.7391304347521
 30
0.0
  0
VERTEX
  5
F2
  8
DEFAULT
 10
192.9280169387674
 20
-21.3101679685406
 30
0.0
 42
-0.284081649613062
  0
VERTEX
  5
F3
  8
DEFAULT
 10
191.9812682740668
 20
-19.43239609362514
 30
0.0
  0
VERTEX
  5
F4
  8
DEFAULT
 10
191.999739657908
 20
-19.05102306485375
 30
0.0
 42
-0.1962615682814959
  0
VERTEX
  5
F5
  8
DEFAULT
 10
192.5854219586979
 20
-17.65721872842167
 30
0.0
  0
VERTEX
  5
F6
  8
DEFAULT
 10
197.5857864376274
 20
-12.65685424949221
 30
0.0
 42
-0.6681786379192963
  0
VERTEX
  5
F7
  8
DEFAULT
 10
201.0000000000005
 20
-14.0710678118653
 30
0.0
  0
VERTEX
  5
F8
  8
DEFAULT
 10
201.0000000000005
 20
-19.99999999999189
 30
0.0
 42
-0.4142135623742625
  0
VERTEX
  5
F9
  8
DEFAULT
 10
198.9999999999954
 20
-21.99999999999467
 30
0.0
  0
SEQEND
  5
FA
  8
DEFAULT
  0
POLYLINE
  5
FB
  8
DEFAULT
 66
     1
 10
0.0
 20
0.0
 30
0.0
 70
     1
  0
VERTEX
  5
FC
  8
DEFAULT
 10
184.260869565218
 20
-12.34545292565359
 30
0.0
 42
-0.1298411442900775
  0
VERTEX
  5
FD
  8
DEFAULT
 10
184.0000000000007
 20
-11.35781669160158
 30
0.0
  0
VERTEX
  5
FE
  8
DEFAULT
 10
184.0000000000007
 20
11.35781669160165
 30
0.0
 42
-0.1298411442900436
  0
VERTEX
  5
FF
  8
DEFAULT
 10
184.2608695652181
 20
12.34545292565369
 30
0.0
  0
VERTEX
  5
100
  8
DEFAULT
 10
184.6898320314546
 20
13.07198306120248
 30
0.0
  0
VERTEX
  5
101
  8
DEFAULT
 10
184.7252744876924
 20
13.12767824056502
 30
0.0
  0
VERTEX
  5
102
  8
DEFAULT
 10
184.762874240972
 20
13.18265109343779
 30
0.0
  0
VERTEX
  5
103
  8
DEFAULT
 10
184.8026199437974
 20
13.23678409153912
 30
0.0
  0
VERTEX
  5
104
  8
DEFAULT
 10
184.8444920999697
 20
13.28995877631843
 30
0.0
  0
VERTEX
  5
105
  8
DEFAULT
 10
184.8884628489424
 20
13.34205644024486
 30
0.0
  0
VERTEX
  5
106
  8
DEFAULT
 10
184.9344958165821
 20
13.39295884285891
 30
0.0
  0
VERTEX
  5
107
  8
DEFAULT
 10
184.9825460378344
 20
13.44254895421282
 30
0.0
  0
VERTEX
  5
108
  8
DEFAULT
 10
185.0325599558755
 20
13.49071171741356
 30
0.0
  0
VERTEX
  5
109
  8
DEFAULT
 10
185.0844755012509
 20
13.53733482119734
 30
0.0
  0
VERTEX
  5
10A
  8
DEFAULT
 10
185.1111246978266
 20
13.56003484465943
 30
0.0
  0
VERTEX
  5
10B
  8
DEFAULT
 10
185.138222253282
 20
13.58230947283758
 30
0.0
  0
VERTEX
  5
10C
  8
DEFAULT
 10
185.1657581002888
 20
13.60414578163908
 30
0.0
  0
VERTEX
  5
10D
  8
DEFAULT
 10
185.1937216846814
 20
13.62553116124493
 30
0.0
  0
VERTEX
  5
10E
  8
DEFAULT
 10
185.2221019776034
 20
13.64645333868987
 30
0.0
  0
VERTEX
  5
10F
  8
DEFAULT
 10
185.2508874888952
 20
13.66690039988368
 30
0.0
  0
VERTEX
  5
110
  8
DEFAULT
 10
185.2800662816949
 20
13.68686081099471
 30
0.0
  0
VERTEX
  5
111
  8
DEFAULT
 10
185.3096259882166
 20
13.70632343911844
 30
0.0
  0
VERTEX
  5
112
  8
DEFAULT
 10
185.3395538266639
 20
13.72527757215597
 30
0.0
  0
VERTEX
  5
113
  8
DEFAULT
 10
185.3698366192336
 20
13.74371293783035
 30
0.0
  0
VERTEX
  5
114
  8
DEFAULT
 10
185.4004608111563
 20
13.76161972177154
 30
0.0
  0
VERTEX
  5
115
  8
DEFAULT
 10
185.4314124907188
 20
13.77898858460456
 30
0.0
  0
VERTEX
  5
116
  8
DEFAULT
 10
185.4626774102057
 20
13.79581067797938
 30
0.0
  0
VERTEX
  5
117
  8
DEFAULT
 10
185.4942410076948
 20
13.81207765948525
 30
0.0
  0
VERTEX
  5
118
  8
DEFAULT
 10
185.5260884296369
 20
13.82778170639726
 30
0.0
  0
VERTEX
  5
119
  8
DEFAULT
 10
185.5582045541455
 20
13.84291552820741
 30
0.0
  0
VERTEX
  5
11A
  8
DEFAULT
 10
185.5905740149215
 20
13.85747237789838
 30
0.0
  0
VERTEX
  5
11B
  8
DEFAULT
 10
185.6231812257314
 20
13.87144606192321
 30
0.0
  0
VERTEX
  5
11C
  8
DEFAULT
 10
185.6560104053595
 20
13.88483094886016
 30
0.0
  0
VERTEX
  5
11D
  8
DEFAULT
 10
185.6890456029476
 20
13.89762197671771
 30
0.0
  0
VERTEX
  5
11E
  8
DEFAULT
 10
185.7222707236402
 20
13.90981465887107
 30
0.0
  0
VERTEX
  5
11F
  8
DEFAULT
 10
185.7556695544472
 20
13.92140508861703
 30
0.0
  0
VERTEX
  5
120
  8
DEFAULT
 10
185.7892257902381
 20
13.93238994234082
 30
0.0
  0
VERTEX
  5
121
  8
DEFAULT
 10
185.8229230597821
 20
13.94276648129432
 30
0.0
  0
VERTEX
  5
122
  8
DEFAULT
 10
185.8567449517475
 20
13.95253255199117
 30
0.0
  0
VERTEX
  5
123
  8
DEFAULT
 10
185.8906750405759
 20
13.96168658523035
 30
0.0
  0
VERTEX
  5
124
  8
DEFAULT
 10
185.924696912149
 20
13.97022759376554
 30
0.0
  0
VERTEX
  5
125
  8
DEFAULT
 10
185.9587941891645
 20
13.97815516864344
 30
0.0
  0
VERTEX
  5
126
  8
DEFAULT
 10
186.027149783998
 20
13.99217124202417
 30
0.0
  0
VERTEX
  5
127
  8
DEFAULT
 10
186.0956124815921
 20
14.00374287955228
 30
0.0
  0
VERTEX
  5
128
  8
DEFAULT
 10
186.1640550755135
 20
14.01288696199949
 30
0.0
  0
VERTEX
  5
129
  8
DEFAULT
 10
186.2323532137721
 20
14.0196288469006
 30
0.0
  0
VERTEX
  5
12A
  8
DEFAULT
 10
186.3003860670258
 20
14.02400197278025
 30
0.0
  0
VERTEX
  5
12B
  8
DEFAULT
 10
186.3680369411576
 20
14.02604740503537
 30
0.0
  0
VERTEX
  5
12C
  8
DEFAULT
 10
186.4351938290112
 20
14.02581333168249
 30
0.0
  0
VERTEX
  5
12D
  8
DEFAULT
 10
186.5017498973511
 20
14.0233545175802
 30
0.0
  0
VERTEX
  5
12E
  8
DEFAULT
 10
186.5676039063846
 20
14.01873172593306
 30
0.0
 42
0.0190979674735739
  0
VERTEX
  5
12F
  8
DEFAULT
 10
186.9489769351468
 20
14.0002603420925
 30
0.0
 42
-0.1962615682814118
  0
VERTEX
  5
130
  8
DEFAULT
 10
188.3427812715785
 20
13.4145780413026
 30
0.0
  0
VERTEX
  5
131
  8
DEFAULT
 10
199.4142135623735
 20
2.343145750507524
 30
0.0
 42
-0.1989123673796183
  0
VERTEX
  5
132
  8
DEFAULT
 10
200.0000000000005
 20
0.9289321881344201
 30
0.0
  0
VERTEX
  5
133
  8
DEFAULT
 10
200.0000000000005
 20
-0.9289321881344085
 30
0.0
 42
-0.1989123673796692
  0
VERTEX
  5
134
  8
DEFAULT
 10
199.4142135623736
 20
-2.34314575050749
 30
0.0
  0
VERTEX
  5
135
  8
DEFAULT
 10
188.3427812715784
 20
-13.41457804130266
 30
0.0
 42
-0.1962615682814099
  0
VERTEX
  5
136
  8
DEFAULT
 10
186.9489769351468
 20
-14.00026034209254
 30
0.0
 42
0.0190979674735439
  0
VERTEX
  5
137
  8
DEFAULT
 10
186.5676039063847
 20
-14.0187317259331
 30
0.0
  0
VERTEX
  5
138
  8
DEFAULT
 10
186.5017498973512
 20
-14.02335451758024
 30
0.0
  0
VERTEX
  5
139
  8
DEFAULT
 10
186.4351938290113
 20
-14.02581333168254
 30
0.0
  0
VERTEX
  5
13A
  8
DEFAULT
 10
186.3680369411577
 20
-14.02604740503542
 30
0.0
  0
VERTEX
  5
13B
  8
DEFAULT
 10
186.3003860670259
 20
-14.0240019727803
 30
0.0
  0
VERTEX
  5
13C
  8
DEFAULT
 10
186.2323532137721
 20
-14.01962884690064
 30
0.0
  0
VERTEX
  5
13D
  8
DEFAULT
 10
186.1640550755136
 20
-14.01288696199953
 30
0.0
  0
VERTEX
  5
13E
  8
DEFAULT
 10
186.0956124815922
 20
-14.00374287955233
 30
0.0
  0
VERTEX
  5
13F
  8
DEFAULT
 10
186.0271497839981
 20
-13.99217124202422
 30
0.0
  0
VERTEX
  5
140
  8
DEFAULT
 10
185.9587941891645
 20
-13.97815516864349
 30
0.0
  0
VERTEX
  5
141
  8
DEFAULT
 10
185.9246969121491
 20
-13.97022759376559
 30
0.0
  0
VERTEX
  5
142
  8
DEFAULT
 10
185.890675040576
 20
-13.9616865852304
 30
0.0
  0
VERTEX
  5
143
  8
DEFAULT
 10
185.8567449517475
 20
-13.95253255199123
 30
0.0
  0
VERTEX
  5
144
  8
DEFAULT
 10
185.8229230597821
 20
-13.94276648129437
 30
0.0
  0
VERTEX
  5
145
  8
DEFAULT
 10
185.7892257902381
 20
-13.93238994234087
 30
0.0
  0
VERTEX
  5
146
  8
DEFAULT
 10
185.7556695544473
 20
-13.92140508861708
 30
0.0
  0
VERTEX
  5
147
  8
DEFAULT
 10
185.7222707236403
 20
-13.90981465887112
 30
0.0
  0
VERTEX
  5
148
  8
DEFAULT
 10
185.6890456029477
 20
-13.89762197671776
 30
0.0
  0
VERTEX
  5
149
  8
DEFAULT
 10
185.6560104053596
 20
-13.8848309488602
 30
0.0
  0
VERTEX
  5
14A
  8
DEFAULT
 10
185.6231812257315
 20
-13.87144606192326
 30
0.0
  0
VERTEX
  5
14B
  8
DEFAULT
 10
185.5905740149215
 20
-13.85747237789843
 30
0.0
  0
VERTEX
  5
14C
  8
DEFAULT
 10
185.5582045541455
 20
-13.84291552820746
 30
0.0
  0
VERTEX
  5
14D
  8
DEFAULT
 10
185.5260884296369
 20
-13.82778170639731
 30
0.0
  0
VERTEX
  5
14E
  8
DEFAULT
 10
185.4942410076949
 20
-13.8120776594853
 30
0.0
  0
VERTEX
  5
14F
  8
DEFAULT
 10
185.4626774102057
 20
-13.79581067797942
 30
0.0
  0
VERTEX
  5
150
  8
DEFAULT
 10
185.4314124907189
 20
-13.77898858460461
 30
0.0
  0
VERTEX
  5
151
  8
DEFAULT
 10
185.4004608111563
 20
-13.76161972177159
 30
0.0
  0
VERTEX
  5
152
  8
DEFAULT
 10
185.3698366192337
 20
-13.7437129378304
 30
0.0
  0
VERTEX
  5
153
  8
DEFAULT
 10
185.3395538266639
 20
-13.72527757215601
 30
0.0
  0
VERTEX
  5
154
  8
DEFAULT
 10
185.3096259882166
 20
-13.70632343911848
 30
0.0
  0
VERTEX
  5
155
  8
DEFAULT
 10
185.2800662816949
 20
-13.68686081099476
 30
0.0
  0
VERTEX
  5
156
  8
DEFAULT
 10
185.2508874888952
 20
-13.66690039988373
 30
0.0
  0
VERTEX
  5
157
  8
DEFAULT
 10
185.2221019776035
 20
-13.64645333868992
 30
0.0
  0
VERTEX
  5
158
  8
DEFAULT
 10
185.1937216846815
 20
-13.62553116124498
 30
0.0
  0
VERTEX
  5
159
  8
DEFAULT
 10
185.1657581002889
 20
-13.60414578163913
 30
0.0
  0
VERTEX
  5
15A
  8
DEFAULT
 10
185.1382222532821
 20
-13.58230947283763
 30
0.0
  0
VERTEX
  5
15B
  8
DEFAULT
 10
185.1111246978267
 20
-13.56003484465948
 30
0.0
  0
VERTEX
  5
15C
  8
DEFAULT
 10
185.0844755012509
 20
-13.53733482119739
 30
0.0
  0
VERTEX
  5
15D
  8
DEFAULT
 10
185.0325599558756
 20
-13.49071171741361
 30
0.0
  0
VERTEX
  5
15E
  8
DEFAULT
 10
184.9825460378345
 20
-13.44254895421287
 30
0.0
  0
VERTEX
  5
15F
  8
DEFAULT
 10
184.9344958165822
 20
-13.39295884285895
 30
0.0
  0
VERTEX
  5
160
  8
DEFAULT
 10
184.8884628489424
 20
-13.34205644024491
 30
0.0
  0
VERTEX
  5
161
  8
DEFAULT
 10
184.8444920999697
 20
-13.28995877631848
 30
0.0
  0
VERTEX
  5
162
  8
DEFAULT
 10
184.8026199437974
 20
-13.23678409153916
 30
0.0
  0
VERTEX
  5
163
  8
DEFAULT
 10
184.7628742409721
 20
-13.18265109343784
 30
0.0
  0
VERTEX
  5
164
  8
DEFAULT
 10
184.7252744876925
 20
-13.12767824056506
 30
0.0
  0
VERTEX
  5
165
  8
DEFAULT
 10
184.6898320314547
 20
-13.07198306120253
 30
0.0
  0
SEQEND
  5
166
  8
DEFAULT
  0
POLYLINE
  5
167
  8
DEFAULT
 66
     1
 10
0.0
 20
0.0
 30
0.0
 70
     1
  0
VERTEX
  5
168
  8
DEFAULT
 10
211.0000000000005
 20
-23.49999999999999
 30
0.0
 42
0.4142135623731164
  0
VERTEX
  5
169
  8
DEFAULT
 10
210.5000000000005
 20
-23.00000000000001
 30
0.0
  0
VERTEX
  5
16A
  8
DEFAULT
 10
201.5000000000005
 20
-23.0
 30
0.0
 42
0.4142135623730235
  0
VERTEX
  5
16B
  8
DEFAULT
 10
201.0000000000005
 20
-23.5
 30
0.0
  0
VERTEX
  5
16C
  8
DEFAULT
 10
201.0000000000005
 20
-24.49999999999999
 30
0.0
 42
-0.4142135623730819
  0
VERTEX
  5
16D
  8
DEFAULT
 10
200.5000000000005
 20
-24.99999999999998
 30
0.0
  0
VERTEX
  5
16E
  8
DEFAULT
 10
193.6306831231474
 20
-24.99999999999999
 30
0.0
 42
-0.1195350615016018
  0
VERTEX
  5
16F
  8
DEFAULT
 10
193.1725602758566
 20
-24.88888888888889
 30
0.0
  0
VERTEX
  5
170
  8
DEFAULT
 10
192.5045000183994
 20
-24.53306911592203
 30
0.0
  0
VERTEX
  5
171
  8
DEFAULT
 10
191.8453693377665
 20
-24.15877544114657
 30
0.0
  0
VERTEX
  5
172
  8
DEFAULT
 10
191.1959288209192
 20
-23.76635177145824
 30
0.0
  0
VERTEX
  5
173
  8
DEFAULT
 10
190.5569208943306
 20
-23.35618350107788
 30
0.0
  0
VERTEX
  5
174
  8
DEFAULT
 10
189.9290670120449
 20
-22.92869627555485
 30
0.0
  0
VERTEX
  5
175
  8
DEFAULT
 10
189.3130649477627
 20
-22.4843545284805
 30
0.0
  0
VERTEX
  5
176
  8
DEFAULT
 10
188.7095862122326
 20
-22.02365980139918
 30
0.0
  0
VERTEX
  5
177
  8
DEFAULT
 10
188.1192736159972
 20
-21.54714885966143
 30
0.0
  0
VERTEX
  5
178
  8
DEFAULT
 10
188.0999382266937
 20
-21.53068450706532
 30
0.0
  0
VERTEX
  5
179
  8
DEFAULT
 10
188.0809324558831
 20
-21.5136473831181
 30
0.0
  0
VERTEX
  5
17A
  8
DEFAULT
 10
188.0622805737349
 20
-21.49604639778488
 30
0.0
  0
VERTEX
  5
17B
  8
DEFAULT
 10
188.0440065893812
 20
-21.47789178709353
 30
0.0
  0
VERTEX
  5
17C
  8
DEFAULT
 10
188.02613416254
 20
-21.45919510872778
 30
0.0
  0
VERTEX
  5
17D
  8
DEFAULT
 10
188.00868651457
 20
-21.43996923067877
 30
0.0
  0
VERTEX
  5
17E
  8
DEFAULT
 10
187.9916863395844
 20
-21.42022831282793
 30
0.0
  0
VERTEX
  5
17F
  8
DEFAULT
 10
187.9751557162723
 20
-21.39998778139784
 30
0.0
  0
VERTEX
  5
180
  8
DEFAULT
 10
187.959116021088
 20
-21.37926429627544
 30
0.0
  0
VERTEX
  5
181
  8
DEFAULT
 10
187.9435878434747
 20
-21.35807571128145
 30
0.0
  0
VERTEX
  5
182
  8
DEFAULT
 10
187.9285909037857
 20
-21.33644102753062
 30
0.0
  0
VERTEX
  5
183
  8
DEFAULT
 10
187.9141439745538
 20
-21.31438034009798
 30
0.0
  0
VERTEX
  5
184
  8
DEFAULT
 10
187.900264805741
 20
-21.29191477827647
 30
0.0
  0
VERTEX
  5
185
  8
DEFAULT
 10
187.8869700545713
 20
-21.26906643977839
 30
0.0
  0
VERTEX
  5
186
  8
DEFAULT
 10
187.8742752205124
 20
-21.24585831929794
 30
0.0
  0
VERTEX
  5
187
  8
DEFAULT
 10
187.8621945859298
 20
-21.22231423191155
 30
0.0
  0
VERTEX
  5
188
  8
DEFAULT
 10
187.8507411628833
 20
-21.19845873184779
 30
0.0
  0
VERTEX
  5
189
  8
DEFAULT
 10
187.8399266464798
 20
-21.17431702720674
 30
0.0
  0
VERTEX
  5
18A
  8
DEFAULT
 10
187.8297613751337
 20
-21.14991489125006
 30
0.0
  0
VERTEX
  5
18B
  8
DEFAULT
 10
187.8202542980167
 20
-21.12527857091641
 30
0.0
  0
VERTEX
  5
18C
  8
DEFAULT
 10
187.8114129499098
 20
-21.10043469324234
 30
0.0
  0
VERTEX
  5
18D
  8
DEFAULT
 10
187.8032434335955
 20
-21.07541017038526
 30
0.0
  0
VERTEX
  5
18E
  8
DEFAULT
 10
187.7957504098558
 20
-21.0502321039529
 30
0.0
  0
VERTEX
  5
18F
  8
DEFAULT
 10
187.7889370950641
 20
-21.02492768934254
 30
0.0
  0
VERTEX
  5
190
  8
DEFAULT
 10
187.7828052662884
 20
-20.99952412078366
 30
0.0
  0
VERTEX
  5
191
  8
DEFAULT
 10
187.7773552737517
 20
-20.97404849775921
 30
0.0
  0
VERTEX
  5
192
  8
DEFAULT
 10
187.7725860604259
 20
-20.94852773345452
 30
0.0
  0
VERTEX
  5
193
  8
DEFAULT
 10
187.7684951884758
 20
-20.92298846584961
 30
0.0
  0
VERTEX
  5
194
  8
DEFAULT
 10
187.7650788722074
 20
-20.89745697202986
 30
0.0
  0
VERTEX
  5
195
  8
DEFAULT
 10
187.7623320171256
 20
-20.87195908624438
 30
0.0
  0
VERTEX
  5
196
  8
DEFAULT
 10
187.7602482646585
 20
-20.84652012219013
 30
0.0
  0
VERTEX
  5
197
  8
DEFAULT
 10
187.7588200420681
 20
-20.82116479994493
 30
0.0
  0
VERTEX
  5
198
  8
DEFAULT
 10
187.7580361395873
 20
-20.79578138640722
 30
0.0
  0
VERTEX
  5
199
  8
DEFAULT
 10
187.7578980001754
 20
-20.77025759683748
 30
0.0
  0
VERTEX
  5
19A
  8
DEFAULT
 10
187.7584153192559
 20
-20.7446173984502
 30
0.0
  0
VERTEX
  5
19B
  8
DEFAULT
 10
187.7595966343565
 20
-20.71888545549701
 30
0.0
  0
VERTEX
  5
19C
  8
DEFAULT
 10
187.7614492690294
 20
-20.69308706082068
 30
0.0
  0
VERTEX
  5
19D
  8
DEFAULT
 10
187.7639792815319
 20
-20.66724806232655
 30
0.0
  0
VERTEX
  5
19E
  8
DEFAULT
 10
187.7671914187864
 20
-20.64139478475109
 30
0.0
  0
VERTEX
  5
19F
  8
DEFAULT
 10
187.7710890760983
 20
-20.61555394716525
 30
0.0
  0
VERTEX
  5
1A0
  8
DEFAULT
 10
187.7756742630762
 20
-20.58975257670549
 30
0.0
  0
VERTEX
  5
1A1
  8
DEFAULT
 10
187.7809475761431
 20
-20.56401791907546
 30
0.0
  0
VERTEX
  5
1A2
  8
DEFAULT
 10
187.7869081779798
 20
-20.53837734640677
 30
0.0
  0
VERTEX
  5
1A3
  8
DEFAULT
 10
187.7935537841765
 20
-20.51285826310601
 30
0.0
  0
VERTEX
  5
1A4
  8
DEFAULT
 10
187.8008806573063
 20
-20.4874880103475
 30
0.0
  0
VERTEX
  5
1A5
  8
DEFAULT
 10
187.808883608563
 20
-20.46229376989515
 30
0.0
  0
VERTEX
  5
1A6
  8
DEFAULT
 10
187.8175560070361
 20
-20.43730246795348
 30
0.0
  0
VERTEX
  5
1A7
  8
DEFAULT
 10
187.8268897966192
 20
-20.41254067975485
 30
0.0
  0
VERTEX
  5
1A8
  8
DEFAULT
 10
187.8368755204743
 20
-20.38803453558923
 30
0.0
  0
VERTEX
  5
1A9
  8
DEFAULT
 10
187.8475023529003
 20
-20.36380962897217
 30
0.0
  0
VERTEX
  5
1AA
  8
DEFAULT
 10
187.8587581383815
 20
-20.33989092762807
 30
0.0
  0
VERTEX
  5
1AB
  8
DEFAULT
 10
187.8706294375189
 20
-20.3163026879379
 30
0.0
  0
VERTEX
  5
1AC
  8
DEFAULT
 10
187.8831015794849
 20
-20.29306837346527
 30
0.0
  0
VERTEX
  5
1AD
  8
DEFAULT
 10
187.8961587205773
 20
-20.27021057813138
 30
0.0
  0
VERTEX
  5
1AE
  8
DEFAULT
 10
187.9097839083942
 20
-20.24775095455943
 30
0.0
  0
VERTEX
  5
1AF
  8
DEFAULT
 10
187.9239591511004
 20
-20.22571014805327
 30
0.0
  0
VERTEX
  5
1B0
  8
DEFAULT
 10
187.9386654912185
 20
-20.20410773661404
 30
0.0
  0
VERTEX
  5
1B1
  8
DEFAULT
 10
187.9538830833364
 20
-20.18296217733398
 30
0.0
  0
VERTEX
  5
1B2
  8
DEFAULT
 10
187.9695912751047
 20
-20.16229075943835
 30
0.0
  0
VERTEX
  5
1B3
  8
DEFAULT
 10
187.9857686908732
 20
-20.14210956417747
 30
0.0
  0
VERTEX
  5
1B4
  8
DEFAULT
 10
188.0023933173126
 20
-20.12243343170019
 30
0.0
  0
VERTEX
  5
1B5
  8
DEFAULT
 10
188.0194425903596
 20
-20.10327593497071
 30
0.0
  0
VERTEX
  5
1B6
  8
DEFAULT
 10
188.0368934828372
 20
-20.08464936072232
 30
0.0
  0
VERTEX
  5
1B7
  8
DEFAULT
 10
188.0547225921128
 20
-20.06656469737554
 30
0.0
 42
1.005598091024043
  0
VERTEX
  5
1B8
  8
DEFAULT
 10
185.9334353026248
 20
-17.94527740788751
 30
0.0
  0
VERTEX
  5
1B9
  8
DEFAULT
 10
185.915350639278
 20
-17.96310651716306
 30
0.0
  0
VERTEX
  5
1BA
  8
DEFAULT
 10
185.8967240650296
 20
-17.98055740964072
 30
0.0
  0
VERTEX
  5
1BB
  8
DEFAULT
 10
185.8775665683002
 20
-17.9976066826877
 30
0.0
  0
VERTEX
  5
1BC
  8
DEFAULT
 10
185.8578904358228
 20
-18.0142313091271
 30
0.0
  0
VERTEX
  5
1BD
  8
DEFAULT
 10
185.837709240562
 20
-18.03040872489568
 30
0.0
  0
VERTEX
  5
1BE
  8
DEFAULT
 10
185.8170378226664
 20
-18.04611691666389
 30
0.0
  0
VERTEX
  5
1BF
  8
DEFAULT
 10
185.7958922633863
 20
-18.06133450878185
 30
0.0
  0
VERTEX
  5
1C0
  8
DEFAULT
 10
185.7742898519471
 20
-18.07604084889996
 30
0.0
  0
VERTEX
  5
1C1
  8
DEFAULT
 10
185.7522490454409
 20
-18.09021609160623
 30
0.0
  0
VERTEX
  5
1C2
  8
DEFAULT
 10
185.729789421869
 20
-18.10384127942301
 30
0.0
  0
VERTEX
  5
1C3
  8
DEFAULT
 10
185.7069316265351
 20
-18.11689842051547
 30
0.0
  0
VERTEX
  5
1C4
  8
DEFAULT
 10
185.6836973120625
 20
-18.12937056248148
 30
0.0
  0
VERTEX
  5
1C5
  8
DEFAULT
 10
185.6601090723723
 20
-18.14124186161886
 30
0.0
  0
VERTEX
  5
1C6
  8
DEFAULT
 10
185.6361903710282
 20
-18.15249764710007
 30
0.0
  0
VERTEX
  5
1C7
  8
DEFAULT
 10
185.6119654644112
 20
-18.16312447952615
 30
0.0
  0
VERTEX
  5
1C8
  8
DEFAULT
 10
185.5874593202455
 20
-18.17311020338118
 30
0.0
  0
VERTEX
  5
1C9
  8
DEFAULT
 10
185.5626975320469
 20
-18.18244399296429
 30
0.0
  0
VERTEX
  5
1CA
  8
DEFAULT
 10
185.5377062301052
 20
-18.19111639143744
 30
0.0
  0
VERTEX
  5
1CB
  8
DEFAULT
 10
185.5125119896529
 20
-18.19911934269412
 30
0.0
  0
VERTEX
  5
1CC
  8
DEFAULT
 10
185.4871417368943
 20
-18.20644621582386
 30
0.0
  0
VERTEX
  5
1CD
  8
DEFAULT
 10
185.4616226535935
 20
-18.2130918220206
 30
0.0
  0
VERTEX
  5
1CE
  8
DEFAULT
 10
185.4359820809248
 20
-18.21905242385728
 30
0.0
  0
VERTEX
  5
1CF
  8
DEFAULT
 10
185.4102474232949
 20
-18.22432573692419
 30
0.0
  0
VERTEX
  5
1D0
  8
DEFAULT
 10
185.3844460528351
 20
-18.22891092390208
 30
0.0
  0
VERTEX
  5
1D1
  8
DEFAULT
 10
185.3586052152493
 20
-18.23280858121404
 30
0.0
  0
VERTEX
  5
1D2
  8
DEFAULT
 10
185.3327519376738
 20
-18.23602071846841
 30
0.0
  0
VERTEX
  5
1D3
  8
DEFAULT
 10
185.3069129391797
 20
-18.23855073097093
 30
0.0
  0
VERTEX
  5
1D4
  8
DEFAULT
 10
185.2811145445033
 20
-18.24040336564379
 30
0.0
  0
VERTEX
  5
1D5
  8
DEFAULT
 10
185.2553826015501
 20
-18.24158468074448
 30
0.0
  0
VERTEX
  5
1D6
  8
DEFAULT
 10
185.2297424031628
 20
-18.24210199982497
 30
0.0
  0
VERTEX
  5
1D7
  8
DEFAULT
 10
185.2042186135931
 20
-18.24196386041308
 30
0.0
  0
VERTEX
  5
1D8
  8
DEFAULT
 10
185.1788352000554
 20
-18.24117995793233
 30
0.0
  0
VERTEX
  5
1D9
  8
DEFAULT
 10
185.1534798778102
 20
-18.2397517353419
 30
0.0
  0
VERTEX
  5
1DA
  8
DEFAULT
 10
185.1280409137559
 20
-18.23766798287476
 30
0.0
  0
VERTEX
  5
1DB
  8
DEFAULT
 10
185.1025430279705
 20
-18.23492112779293
 30
0.0
  0
VERTEX
  5
1DC
  8
DEFAULT
 10
185.0770115341507
 20
-18.23150481152457
 30
0.0
  0
VERTEX
  5
1DD
  8
DEFAULT
 10
185.0514722665458
 20
-18.2274139395745
 30
0.0
  0
VERTEX
  5
1DE
  8
DEFAULT
 10
185.0259515022411
 20
-18.2226447262487
 30
0.0
  0
VERTEX
  5
1DF
  8
DEFAULT
 10
185.0004758792167
 20
-18.21719473371194
 30
0.0
  0
VERTEX
  5
1E0
  8
DEFAULT
 10
184.9750723106577
 20
-18.21106290493628
 30
0.0
  0
VERTEX
  5
1E1
  8
DEFAULT
 10
184.9497678960474
 20
-18.20424959014456
 30
0.0
  0
VERTEX
  5
1E2
  8
DEFAULT
 10
184.924589829615
 20
-18.19675656640488
 30
0.0
  0
VERTEX
  5
1E3
  8
DEFAULT
 10
184.8995653067579
 20
-18.18858705009058
 30
0.0
  0
VERTEX
  5
1E4
  8
DEFAULT
 10
184.8747214290839
 20
-18.17974570198361
 30
0.0
  0
VERTEX
  5
1E5
  8
DEFAULT
 10
184.8500851087502
 20
-18.17023862486663
 30
0.0
  0
VERTEX
  5
1E6
  8
DEFAULT
 10
184.8256829727935
 20
-18.16007335352054
 30
0.0
  0
VERTEX
  5
1E7
  8
DEFAULT
 10
184.8015412681525
 20
-18.14925883711705
 30
0.0
  0
VERTEX
  5
1E8
  8
DEFAULT
 10
184.7776857680888
 20
-18.13780541407049
 30
0.0
  0
VERTEX
  5
1E9
  8
DEFAULT
 10
184.7541416807024
 20
-18.12572477948794
 30
0.0
  0
VERTEX
  5
1EA
  8
DEFAULT
 10
184.7309335602219
 20
-18.11302994542908
 30
0.0
  0
VERTEX
  5
1EB
  8
DEFAULT
 10
184.7080852217239
 20
-18.09973519425935
 30
0.0
  0
VERTEX
  5
1EC
  8
DEFAULT
 10
184.6856196599024
 20
-18.08585602544656
 30
0.0
  0
VERTEX
  5
1ED
  8
DEFAULT
 10
184.6635589724697
 20
-18.07140909621462
 30
0.0
  0
VERTEX
  5
1EE
  8
DEFAULT
 10
184.6419242887188
 20
-18.05641215652561
 30
0.0
  0
VERTEX
  5
1EF
  8
DEFAULT
 10
184.6207357037249
 20
-18.04088397891235
 30
0.0
  0
VERTEX
  5
1F0
  8
DEFAULT
 10
184.6000122186025
 20
-18.02484428372804
 30
0.0
  0
VERTEX
  5
1F1
  8
DEFAULT
 10
184.5797716871724
 20
-18.00831366041594
 30
0.0
  0
VERTEX
  5
1F2
  8
DEFAULT
 10
184.5600307693215
 20
-17.99131348543032
 30
0.0
  0
VERTEX
  5
1F3
  8
DEFAULT
 10
184.5408048912726
 20
-17.97386583746026
 30
0.0
  0
VERTEX
  5
1F4
  8
DEFAULT
 10
184.5221082129068
 20
-17.95599341061904
 30
0.0
  0
VERTEX
  5
1F5
  8
DEFAULT
 10
184.5039536022154
 20
-17.93771942626536
 30
0.0
  0
VERTEX
  5
1F6
  8
DEFAULT
 10
184.4863526168822
 20
-17.91906754411717
 30
0.0
  0
VERTEX
  5
1F7
  8
DEFAULT
 10
184.469315492935
 20
-17.90006177330656
 30
0.0
  0
VERTEX
  5
1F8
  8
DEFAULT
 10
184.4528511403389
 20
-17.8807263840031
 30
0.0
  0
VERTEX
  5
1F9
  8
DEFAULT
 10
184.0090332477611
 20
-17.33197568951394
 30
0.0
  0
VERTEX
  5
1FA
  8
DEFAULT
 10
183.5754605025445
 20
-16.76723078886426
 30
0.0
  0
VERTEX
  5
1FB
  8
DEFAULT
 10
183.1528767141242
 20
-16.18669075382524
 30
0.0
  0
VERTEX
  5
1FC
  8
DEFAULT
 10
182.7420271023449
 20
-15.59059641873651
 30
0.0
  0
VERTEX
  5
1FD
  8
DEFAULT
 10
182.3436555927387
 20
-14.97923126482187
 30
0.0
  0
VERTEX
  5
1FE
  8
DEFAULT
 10
181.9585019828962
 20
-14.35292210992496
 30
0.0
  0
VERTEX
  5
1FF
  8
DEFAULT
 10
181.5872989948746
 20
-13.71203958695885
 30
0.0
  0
VERTEX
  5
200
  8
DEFAULT
 10
181.2307692307697
 20
-13.0569983955193
 30
0.0
 42
-0.121880114604908
  0
VERTEX
  5
201
  8
DEFAULT
 10
181.0000000000005
 20
-12.12435565298222
 30
0.0
  0
VERTEX
  5
202
  8
DEFAULT
 10
181.0000000000005
 20
12.12435565298214
 30
0.0
 42
-0.1218801146048802
  0
VERTEX
  5
203
  8
DEFAULT
 10
181.2307692307697
 20
13.05699839551923
 30
0.0
  0
VERTEX
  5
204
  8
DEFAULT
 10
181.5872989948745
 20
13.71203958695878
 30
0.0
  0
VERTEX
  5
205
  8
DEFAULT
 10
181.9585019828962
 20
14.3529221099249
 30
0.0
  0
VERTEX
  5
206
  8
DEFAULT
 10
182.3436555927387
 20
14.97923126482181
 30
0.0
  0
VERTEX
  5
207
  8
DEFAULT
 10
182.7420271023448
 20
15.59059641873645
 30
0.0
  0
VERTEX
  5
208
  8
DEFAULT
 10
183.1528767141241
 20
16.18669075382519
 30
0.0
  0
VERTEX
  5
209
  8
DEFAULT
 10
183.5754605025445
 20
16.76723078886422
 30
0.0
  0
VERTEX
  5
20A
  8
DEFAULT
 10
184.0090332477611
 20
17.33197568951391
 30
0.0
  0
VERTEX
  5
20B
  8
DEFAULT
 10
184.4528511403389
 20
17.88072638400308
 30
0.0
  0
VERTEX
  5
20C
  8
DEFAULT
 10
184.469315492935
 20
17.90006177330654
 30
0.0
  0
VERTEX
  5
20D
  8
DEFAULT
 10
184.4863526168822
 20
17.91906754411714
 30
0.0
  0
VERTEX
  5
20E
  8
DEFAULT
 10
184.5039536022154
 20
17.93771942626533
 30
0.0
  0
VERTEX
  5
20F
  8
DEFAULT
 10
184.5221082129067
 20
17.95599341061902
 30
0.0
  0
VERTEX
  5
210
  8
DEFAULT
 10
184.5408048912725
 20
17.97386583746024
 30
0.0
  0
VERTEX
  5
211
  8
DEFAULT
 10
184.5600307693215
 20
17.99131348543029
 30
0.0
  0
VERTEX
  5
212
  8
DEFAULT
 10
184.5797716871724
 20
18.00831366041592
 30
0.0
  0
VERTEX
  5
213
  8
DEFAULT
 10
184.6000122186024
 20
18.02484428372802
 30
0.0
  0
VERTEX
  5
214
  8
DEFAULT
 10
184.6207357037248
 20
18.04088397891232
 30
0.0
  0
VERTEX
  5
215
  8
DEFAULT
 10
184.6419242887188
 20
18.05641215652558
 30
0.0
  0
VERTEX
  5
216
  8
DEFAULT
 10
184.6635589724696
 20
18.07140909621458
 30
0.0
  0
VERTEX
  5
217
  8
DEFAULT
 10
184.6856196599023
 20
18.08585602544653
 30
0.0
  0
VERTEX
  5
218
  8
DEFAULT
 10
184.7080852217238
 20
18.09973519425932
 30
0.0
  0
VERTEX
  5
219
  8
DEFAULT
 10
184.7309335602219
 20
18.11302994542905
 30
0.0
  0
VERTEX
  5
21A
  8
DEFAULT
 10
184.7541416807023
 20
18.12572477948791
 30
0.0
  0
VERTEX
  5
21B
  8
DEFAULT
 10
184.7776857680887
 20
18.13780541407047
 30
0.0
  0
VERTEX
  5
21C
  8
DEFAULT
 10
184.8015412681525
 20
18.14925883711701
 30
0.0
  0
VERTEX
  5
21D
  8
DEFAULT
 10
184.8256829727935
 20
18.16007335352052
 30
0.0
  0
VERTEX
  5
21E
  8
DEFAULT
 10
184.8500851087502
 20
18.1702386248666
 30
0.0
  0
VERTEX
  5
21F
  8
DEFAULT
 10
184.8747214290838
 20
18.17974570198358
 30
0.0
  0
VERTEX
  5
220
  8
DEFAULT
 10
184.8995653067579
 20
18.18858705009055
 30
0.0
  0
VERTEX
  5
221
  8
DEFAULT
 10
184.924589829615
 20
18.19675656640485
 30
0.0
  0
VERTEX
  5
222
  8
DEFAULT
 10
184.9497678960474
 20
18.20424959014453
 30
0.0
  0
VERTEX
  5
223
  8
DEFAULT
 10
184.9750723106577
 20
18.21106290493625
 30
0.0
  0
VERTEX
  5
224
  8
DEFAULT
 10
185.0004758792166
 20
18.21719473371191
 30
0.0
  0
VERTEX
  5
225
  8
DEFAULT
 10
185.025951502241
 20
18.22264472624867
 30
0.0
  0
VERTEX
  5
226
  8
DEFAULT
 10
185.0514722665457
 20
18.22741393957447
 30
0.0
  0
VERTEX
  5
227
  8
DEFAULT
 10
185.0770115341506
 20
18.23150481152454
 30
0.0
  0
VERTEX
  5
228
  8
DEFAULT
 10
185.1025430279704
 20
18.23492112779291
 30
0.0
  0
VERTEX
  5
229
  8
DEFAULT
 10
185.1280409137559
 20
18.23766798287473
 30
0.0
  0
VERTEX
  5
22A
  8
DEFAULT
 10
185.1534798778102
 20
18.23975173534187
 30
0.0
  0
VERTEX
  5
22B
  8
DEFAULT
 10
185.1788352000554
 20
18.2411799579323
 30
0.0
  0
VERTEX
  5
22C
  8
DEFAULT
 10
185.2042186135931
 20
18.24196386041306
 30
0.0
  0
VERTEX
  5
22D
  8
DEFAULT
 10
185.2297424031628
 20
18.24210199982494
 30
0.0
  0
VERTEX
  5
22E
  8
DEFAULT
 10
185.2553826015501
 20
18.24158468074446
 30
0.0
  0
VERTEX
  5
22F
  8
DEFAULT
 10
185.2811145445033
 20
18.24040336564376
 30
0.0
  0
VERTEX
  5
230
  8
DEFAULT
 10
185.3069129391797
 20
18.2385507309709
 30
0.0
  0
VERTEX
  5
231
  8
DEFAULT
 10
185.3327519376738
 20
18.23602071846839
 30
0.0
  0
VERTEX
  5
232
  8
DEFAULT
 10
185.3586052152493
 20
18.23280858121401
 30
0.0
  0
VERTEX
  5
233
  8
DEFAULT
 10
185.3844460528351
 20
18.22891092390206
 30
0.0
  0
VERTEX
  5
234
  8
DEFAULT
 10
185.4102474232949
 20
18.22432573692416
 30
0.0
  0
VERTEX
  5
235
  8
DEFAULT
 10
185.4359820809248
 20
18.21905242385726
 30
0.0
  0
VERTEX
  5
236
  8
DEFAULT
 10
185.4616226535935
 20
18.21309182202057
 30
0.0
  0
VERTEX
  5
237
  8
DEFAULT
 10
185.4871417368943
 20
18.20644621582384
 30
0.0
  0
VERTEX
  5
238
  8
DEFAULT
 10
185.5125119896529
 20
18.1991193426941
 30
0.0
  0
VERTEX
  5
239
  8
DEFAULT
 10
185.5377062301052
 20
18.19111639143742
 30
0.0
  0
VERTEX
  5
23A
  8
DEFAULT
 10
185.5626975320469
 20
18.18244399296427
 30
0.0
  0
VERTEX
  5
23B
  8
DEFAULT
 10
185.5874593202455
 20
18.17311020338116
 30
0.0
  0
VERTEX
  5
23C
  8
DEFAULT
 10
185.6119654644111
 20
18.16312447952612
 30
0.0
  0
VERTEX
  5
23D
  8
DEFAULT
 10
185.6361903710282
 20
18.15249764710005
 30
0.0
  0
VERTEX
  5
23E
  8
DEFAULT
 10
185.6601090723723
 20
18.14124186161884
 30
0.0
  0
VERTEX
  5
23F
  8
DEFAULT
 10
185.6836973120625
 20
18.12937056248145
 30
0.0
  0
VERTEX
  5
240
  8
DEFAULT
 10
185.7069316265351
 20
18.11689842051545
 30
0.0
  0
VERTEX
  5
241
  8
DEFAULT
 10
185.7297894218689
 20
18.10384127942299
 30
0.0
  0
VERTEX
  5
242
  8
DEFAULT
 10
185.7522490454409
 20
18.09021609160622
 30
0.0
  0
VERTEX
  5
243
  8
DEFAULT
 10
185.7742898519471
 20
18.07604084889995
 30
0.0
  0
VERTEX
  5
244
  8
DEFAULT
 10
185.7958922633863
 20
18.06133450878185
 30
0.0
  0
VERTEX
  5
245
  8
DEFAULT
 10
185.8170378226664
 20
18.04611691666389
 30
0.0
  0
VERTEX
  5
246
  8
DEFAULT
 10
185.837709240562
 20
18.03040872489568
 30
0.0
  0
VERTEX
  5
247
  8
DEFAULT
 10
185.8578904358228
 20
18.0142313091271
 30
0.0
  0
VERTEX
  5
248
  8
DEFAULT
 10
185.8775665683002
 20
17.99760668268771
 30
0.0
  0
VERTEX
  5
249
  8
DEFAULT
 10
185.8967240650296
 20
17.98055740964073
 30
0.0
  0
VERTEX
  5
24A
  8
DEFAULT
 10
185.915350639278
 20
17.96310651716307
 30
0.0
  0
VERTEX
  5
24B
  8
DEFAULT
 10
185.9334353026248
 20
17.94527740788752
 30
0.0
 42
1.005598091024037
  0
VERTEX
  5
24C
  8
DEFAULT
 10
188.0547225921129
 20
20.06656469737553
 30
0.0
  0
VERTEX
  5
24D
  8
DEFAULT
 10
188.0368934828373
 20
20.08464936072231
 30
0.0
  0
VERTEX
  5
24E
  8
DEFAULT
 10
188.0194425903596
 20
20.1032759349707
 30
0.0
  0
VERTEX
  5
24F
  8
DEFAULT
 10
188.0023933173127
 20
20.12243343170018
 30
0.0
  0
VERTEX
  5
250
  8
DEFAULT
 10
187.9857686908732
 20
20.14210956417746
 30
0.0
  0
VERTEX
  5
251
  8
DEFAULT
 10
187.9695912751047
 20
20.16229075943835
 30
0.0
  0
VERTEX
  5
252
  8
DEFAULT
 10
187.9538830833365
 20
20.18296217733397
 30
0.0
  0
VERTEX
  5
253
  8
DEFAULT
 10
187.9386654912186
 20
20.20410773661403
 30
0.0
  0
VERTEX
  5
254
  8
DEFAULT
 10
187.9239591511004
 20
20.22571014805326
 30
0.0
  0
VERTEX
  5
255
  8
DEFAULT
 10
187.9097839083942
 20
20.24775095455943
 30
0.0
  0
VERTEX
  5
256
  8
DEFAULT
 10
187.8961587205773
 20
20.27021057813137
 30
0.0
  0
VERTEX
  5
257
  8
DEFAULT
 10
187.8831015794849
 20
20.29306837346526
 30
0.0
  0
VERTEX
  5
258
  8
DEFAULT
 10
187.8706294375189
 20
20.31630268793789
 30
0.0
  0
VERTEX
  5
259
  8
DEFAULT
 10
187.8587581383815
 20
20.33989092762807
 30
0.0
  0
VERTEX
  5
25A
  8
DEFAULT
 10
187.8475023529003
 20
20.36380962897217
 30
0.0
  0
VERTEX
  5
25B
  8
DEFAULT
 10
187.8368755204743
 20
20.38803453558923
 30
0.0
  0
VERTEX
  5
25C
  8
DEFAULT
 10
187.8268897966192
 20
20.41254067975485
 30
0.0
  0
VERTEX
  5
25D
  8
DEFAULT
 10
187.8175560070361
 20
20.43730246795349
 30
0.0
  0
VERTEX
  5
25E
  8
DEFAULT
 10
187.8088836085629
 20
20.46229376989516
 30
0.0
  0
VERTEX
  5
25F
  8
DEFAULT
 10
187.8008806573062
 20
20.4874880103475
 30
0.0
  0
VERTEX
  5
260
  8
DEFAULT
 10
187.7935537841765
 20
20.51285826310602
 30
0.0
  0
VERTEX
  5
261
  8
DEFAULT
 10
187.7869081779798
 20
20.53837734640678
 30
0.0
  0
VERTEX
  5
262
  8
DEFAULT
 10
187.780947576143
 20
20.56401791907548
 30
0.0
  0
VERTEX
  5
263
  8
DEFAULT
 10
187.7756742630762
 20
20.58975257670551
 30
0.0
  0
VERTEX
  5
264
  8
DEFAULT
 10
187.7710890760983
 20
20.61555394716526
 30
0.0
  0
VERTEX
  5
265
  8
DEFAULT
 10
187.7671914187864
 20
20.6413947847511
 30
0.0
  0
VERTEX
  5
266
  8
DEFAULT
 10
187.763979281532
 20
20.66724806232657
 30
0.0
  0
VERTEX
  5
267
  8
DEFAULT
 10
187.7614492690294
 20
20.6930870608207
 30
0.0
  0
VERTEX
  5
268
  8
DEFAULT
 10
187.7595966343566
 20
20.71888545549703
 30
0.0
  0
VERTEX
  5
269
  8
DEFAULT
 10
187.7584153192559
 20
20.74461739845022
 30
0.0
  0
VERTEX
  5
26A
  8
DEFAULT
 10
187.7578980001754
 20
20.7702575968375
 30
0.0
  0
VERTEX
  5
26B
  8
DEFAULT
 10
187.7580361395873
 20
20.79578138640725
 30
0.0
  0
VERTEX
  5
26C
  8
DEFAULT
 10
187.7588200420681
 20
20.82116479994496
 30
0.0
  0
VERTEX
  5
26D
  8
DEFAULT
 10
187.7602482646585
 20
20.84652012219015
 30
0.0
  0
VERTEX
  5
26E
  8
DEFAULT
 10
187.7623320171256
 20
20.87195908624441
 30
0.0
  0
VERTEX
  5
26F
  8
DEFAULT
 10
187.7650788722074
 20
20.89745697202989
 30
0.0
  0
VERTEX
  5
270
  8
DEFAULT
 10
187.7684951884758
 20
20.92298846584964
 30
0.0
  0
VERTEX
  5
271
  8
DEFAULT
 10
187.7725860604259
 20
20.94852773345455
 30
0.0
  0
VERTEX
  5
272
  8
DEFAULT
 10
187.7773552737517
 20
20.97404849775923
 30
0.0
  0
VERTEX
  5
273
  8
DEFAULT
 10
187.7828052662884
 20
20.99952412078369
 30
0.0
  0
VERTEX
  5
274
  8
DEFAULT
 10
187.7889370950641
 20
21.02492768934256
 30
0.0
  0
VERTEX
  5
275
  8
DEFAULT
 10
187.7957504098558
 20
21.05023210395291
 30
0.0
  0
VERTEX
  5
276
  8
DEFAULT
 10
187.8032434335955
 20
21.07541017038528
 30
0.0
  0
VERTEX
  5
277
  8
DEFAULT
 10
187.8114129499098
 20
21.10043469324236
 30
0.0
  0
VERTEX
  5
278
  8
DEFAULT
 10
187.8202542980167
 20
21.12527857091644
 30
0.0
  0
VERTEX
  5
279
  8
DEFAULT
 10
187.8297613751337
 20
21.14991489125009
 30
0.0
  0
VERTEX
  5
27A
  8
DEFAULT
 10
187.8399266464798
 20
21.17431702720677
 30
0.0
  0
VERTEX
  5
27B
  8
DEFAULT
 10
187.8507411628833
 20
21.19845873184781
 30
0.0
  0
VERTEX
  5
27C
  8
DEFAULT
 10
187.8621945859299
 20
21.22231423191158
 30
0.0
  0
VERTEX
  5
27D
  8
DEFAULT
 10
187.8742752205125
 20
21.24585831929797
 30
0.0
  0
VERTEX
  5
27E
  8
DEFAULT
 10
187.8869700545713
 20
21.26906643977842
 30
0.0
  0
VERTEX
  5
27F
  8
DEFAULT
 10
187.900264805741
 20
21.29191477827649
 30
0.0
  0
VERTEX
  5
280
  8
DEFAULT
 10
187.9141439745538
 20
21.31438034009801
 30
0.0
  0
VERTEX
  5
281
  8
DEFAULT
 10
187.9285909037857
 20
21.33644102753065
 30
0.0
  0
VERTEX
  5
282
  8
DEFAULT
 10
187.9435878434747
 20
21.35807571128148
 30
0.0
  0
VERTEX
  5
283
  8
DEFAULT
 10
187.959116021088
 20
21.37926429627547
 30
0.0
  0
VERTEX
  5
284
  8
DEFAULT
 10
187.9751557162723
 20
21.39998778139787
 30
0.0
  0
VERTEX
  5
285
  8
DEFAULT
 10
187.9916863395844
 20
21.42022831282796
 30
0.0
  0
VERTEX
  5
286
  8
DEFAULT
 10
188.00868651457
 20
21.4399692306788
 30
0.0
  0
VERTEX
  5
287
  8
DEFAULT
 10
188.0261341625401
 20
21.45919510872781
 30
0.0
  0
VERTEX
  5
288
  8
DEFAULT
 10
188.0440065893813
 20
21.47789178709356
 30
0.0
  0
VERTEX
  5
289
  8
DEFAULT
 10
188.062280573735
 20
21.49604639778491
 30
0.0
  0
VERTEX
  5
28A
  8
DEFAULT
 10
188.0809324558832
 20
21.51364738311814
 30
0.0
  0
VERTEX
  5
28B
  8
DEFAULT
 10
188.0999382266938
 20
21.53068450706536
 30
0.0
  0
VERTEX
  5
28C
  8
DEFAULT
 10
188.1192736159972
 20
21.54714885966147
 30
0.0
  0
VERTEX
  5
28D
  8
DEFAULT
 10
188.7095862122326
 20
22.02365980139921
 30
0.0
  0
VERTEX
  5
28E
  8
DEFAULT
 10
189.3130649477628
 20
22.48435452848052
 30
0.0
  0
VERTEX
  5
28F
  8
DEFAULT
 10
189.929067012045
 20
22.92869627555487
 30
0.0
  0
VERTEX
  5
290
  8
DEFAULT
 10
190.5569208943306
 20
23.3561835010779
 30
0.0
  0
VERTEX
  5
291
  8
DEFAULT
 10
191.1959288209192
 20
23.76635177145825
 30
0.0
  0
VERTEX
  5
292
  8
DEFAULT
 10
191.8453693377665
 20
24.15877544114658
 30
0.0
  0
VERTEX
  5
293
  8
DEFAULT
 10
192.5045000183995
 20
24.53306911592204
 30
0.0
  0
VERTEX
  5
294
  8
DEFAULT
 10
193.1725602758566
 20
24.8888888888889
 30
0.0
  0
VERTEX
  5
295
  8
DEFAULT
 10
193.1989893986045
 20
24.90202024821519
 30
0.0
  0
VERTEX
  5
296
  8
DEFAULT
 10
193.2258780491717
 20
24.91440300310282
 30
0.0
  0
VERTEX
  5
297
  8
DEFAULT
 10
193.253194387506
 20
24.92601417616785
 30
0.0
  0
VERTEX
  5
298
  8
DEFAULT
 10
193.2809050918091
 20
24.93683260446736
 30
0.0
  0
VERTEX
  5
299
  8
DEFAULT
 10
193.3089754888682
 20
24.94683905604197
 30
0.0
  0
VERTEX
  5
29A
  8
DEFAULT
 10
193.3373696951753
 20
24.95601633509646
 30
0.0
  0
VERTEX
  5
29B
  8
DEFAULT
 10
193.3660507676639
 20
24.96434937467249
 30
0.0
  0
VERTEX
  5
29C
  8
DEFAULT
 10
193.394980862752
 20
24.97182531580755
 30
0.0
  0
VERTEX
  5
29D
  8
DEFAULT
 10
193.4241214022692
 20
24.97843357233274
 30
0.0
  0
VERTEX
  5
29E
  8
DEFAULT
 10
193.4534332447428
 20
24.98416588063473
 30
0.0
  0
VERTEX
  5
29F
  8
DEFAULT
 10
193.4828768604489
 20
24.98901633389297
 30
0.0
  0
VERTEX
  5
2A0
  8
DEFAULT
 10
193.5124125085881
 20
24.99298140049638
 30
0.0
  0
VERTEX
  5
2A1
  8
DEFAULT
 10
193.5420004149222
 20
24.99605992654148
 30
0.0
  0
VERTEX
  5
2A2
  8
DEFAULT
 10
193.5716009482177
 20
24.99825312251231
 30
0.0
  0
VERTEX
  5
2A3
  8
DEFAULT
 10
193.6011747938705
 20
24.99956453443652
 30
0.0
  0
VERTEX
  5
2A4
  8
DEFAULT
 10
193.6306831231475
 20
25.0
 30
0.0
  0
VERTEX
  5
2A5
  8
DEFAULT
 10
200.5000000000005
 20
25.0
 30
0.0
 42
-0.4142135623730662
  0
VERTEX
  5
2A6
  8
DEFAULT
 10
201.0000000000005
 20
24.5
 30
0.0
  0
VERTEX
  5
2A7
  8
DEFAULT
 10
201.0000000000005
 20
23.50000000000003
 30
0.0
 42
0.4142135623730774
  0
VERTEX
  5
2A8
  8
DEFAULT
 10
201.5000000000005
 20
23.0
 30
0.0
  0
VERTEX
  5
2A9
  8
DEFAULT
 10
210.5000000000005
 20
22.99999999999999
 30
0.0
 42
0.4142135623731558
  0
VERTEX
  5
2AA
  8
DEFAULT
 10
211.0000000000005
 20
23.49999999999999
 30
0.0
  0
VERTEX
  5
2AB
  8
DEFAULT
 10
211.0000000000005
 20
24.49999999999999
 30
0.0
 42
-0.4142135623731011
  0
VERTEX
  5
2AC
  8
DEFAULT
 10
211.5000000000005
 20
25.0
 30
0.0
  0
VERTEX
  5
2AD
  8
DEFAULT
 10
218.3693168768535
 20
24.99999999999999
 30
0.0
  0
VERTEX
  5
2AE
  8
DEFAULT
 10
218.3988252061304
 20
24.99956453443649
 30
0.0
  0
VERTEX
  5
2AF
  8
DEFAULT
 10
218.4283990517833
 20
24.99825312251228
 30
0.0
  0
VERTEX
  5
2B0
  8
DEFAULT
 10
218.4579995850787
 20
24.99605992654146
 30
0.0
  0
VERTEX
  5
2B1
  8
DEFAULT
 10
218.4875874914129
 20
24.99298140049636
 30
0.0
  0
VERTEX
  5
2B2
  8
DEFAULT
 10
218.517123139552
 20
24.98901633389294
 30
0.0
  0
VERTEX
  5
2B3
  8
DEFAULT
 10
218.5465667552581
 20
24.9841658806347
 30
0.0
  0
VERTEX
  5
2B4
  8
DEFAULT
 10
218.5758785977317
 20
24.97843357233272
 30
0.0
  0
VERTEX
  5
2B5
  8
DEFAULT
 10
218.605019137249
 20
24.97182531580753
 30
0.0
  0
VERTEX
  5
2B6
  8
DEFAULT
 10
218.633949232337
 20
24.96434937467247
 30
0.0
  0
VERTEX
  5
2B7
  8
DEFAULT
 10
218.6626303048255
 20
24.95601633509644
 30
0.0
  0
VERTEX
  5
2B8
  8
DEFAULT
 10
218.6910245111327
 20
24.94683905604195
 30
0.0
  0
VERTEX
  5
2B9
  8
DEFAULT
 10
218.7190949081918
 20
24.93683260446734
 30
0.0
  0
VERTEX
  5
2BA
  8
DEFAULT
 10
218.7468056124949
 20
24.92601417616783
 30
0.0
  0
VERTEX
  5
2BB
  8
DEFAULT
 10
218.7741219508293
 20
24.91440300310279
 30
0.0
  0
VERTEX
  5
2BC
  8
DEFAULT
 10
218.8010106013965
 20
24.90202024821516
 30
0.0
  0
VERTEX
  5
2BD
  8
DEFAULT
 10
218.8274397241443
 20
24.88888888888888
 30
0.0
  0
VERTEX
  5
2BE
  8
DEFAULT
 10
219.4954999816015
 20
24.53306911592202
 30
0.0
  0
VERTEX
  5
2BF
  8
DEFAULT
 10
220.1546306622344
 20
24.15877544114656
 30
0.0
  0
VERTEX
  5
2C0
  8
DEFAULT
 10
220.8040711790817
 20
23.76635177145824
 30
0.0
  0
VERTEX
  5
2C1
  8
DEFAULT
 10
221.4430791056703
 20
23.35618350107789
 30
0.0
  0
VERTEX
  5
2C2
  8
DEFAULT
 10
222.0709329879559
 20
22.92869627555486
 30
0.0
  0
VERTEX
  5
2C3
  8
DEFAULT
 10
222.6869350522381
 20
22.48435452848051
 30
0.0
  0
VERTEX
  5
2C4
  8
DEFAULT
 10
223.2904137877683
 20
22.02365980139921
 30
0.0
  0
VERTEX
  5
2C5
  8
DEFAULT
 10
223.8807263840037
 20
21.54714885966146
 30
0.0
  0
VERTEX
  5
2C6
  8
DEFAULT
 10
223.9000617733072
 20
21.53068450706535
 30
0.0
  0
VERTEX
  5
2C7
  8
DEFAULT
 10
223.9190675441178
 20
21.51364738311814
 30
0.0
  0
VERTEX
  5
2C8
  8
DEFAULT
 10
223.937719426266
 20
21.49604639778491
 30
0.0
  0
VERTEX
  5
2C9
  8
DEFAULT
 10
223.9559934106197
 20
21.47789178709356
 30
0.0
  0
VERTEX
  5
2CA
  8
DEFAULT
 10
223.9738658374608
 20
21.4591951087278
 30
0.0
  0
VERTEX
  5
2CB
  8
DEFAULT
 10
223.9913134854309
 20
21.43996923067879
 30
0.0
  0
VERTEX
  5
2CC
  8
DEFAULT
 10
224.0083136604165
 20
21.42022831282795
 30
0.0
  0
VERTEX
  5
2CD
  8
DEFAULT
 10
224.0248442837286
 20
21.39998778139786
 30
0.0
  0
VERTEX
  5
2CE
  8
DEFAULT
 10
224.0408839789129
 20
21.37926429627546
 30
0.0
  0
VERTEX
  5
2CF
  8
DEFAULT
 10
224.0564121565262
 20
21.35807571128147
 30
0.0
  0
VERTEX
  5
2D0
  8
DEFAULT
 10
224.0714090962152
 20
21.33644102753064
 30
0.0
  0
VERTEX
  5
2D1
  8
DEFAULT
 10
224.0858560254472
 20
21.314380340098
 30
0.0
  0
VERTEX
  5
2D2
  8
DEFAULT
 10
224.0997351942599
 20
21.29191477827649
 30
0.0
  0
VERTEX
  5
2D3
  8
DEFAULT
 10
224.1130299454296
 20
21.26906643977841
 30
0.0
  0
VERTEX
  5
2D4
  8
DEFAULT
 10
224.1257247794885
 20
21.24585831929796
 30
0.0
  0
VERTEX
  5
2D5
  8
DEFAULT
 10
224.137805414071
 20
21.22231423191157
 30
0.0
  0
VERTEX
  5
2D6
  8
DEFAULT
 10
224.1492588371176
 20
21.1984587318478
 30
0.0
  0
VERTEX
  5
2D7
  8
DEFAULT
 10
224.1600733535211
 20
21.17431702720676
 30
0.0
  0
VERTEX
  5
2D8
  8
DEFAULT
 10
224.1702386248672
 20
21.14991489125008
 30
0.0
  0
VERTEX
  5
2D9
  8
DEFAULT
 10
224.1797457019841
 20
21.12527857091644
 30
0.0
  0
VERTEX
  5
2DA
  8
DEFAULT
 10
224.1885870500911
 20
21.10043469324236
 30
0.0
  0
VERTEX
  5
2DB
  8
DEFAULT
 10
224.1967565664054
 20
21.07541017038528
 30
0.0
  0
VERTEX
  5
2DC
  8
DEFAULT
 10
224.2042495901451
 20
21.05023210395291
 30
0.0
  0
VERTEX
  5
2DD
  8
DEFAULT
 10
224.2110629049368
 20
21.02492768934256
 30
0.0
  0
VERTEX
  5
2DE
  8
DEFAULT
 10
224.2171947337124
 20
20.99952412078368
 30
0.0
  0
VERTEX
  5
2DF
  8
DEFAULT
 10
224.2226447262492
 20
20.97404849775923
 30
0.0
  0
VERTEX
  5
2E0
  8
DEFAULT
 10
224.227413939575
 20
20.94852773345454
 30
0.0
  0
VERTEX
  5
2E1
  8
DEFAULT
 10
224.2315048115251
 20
20.92298846584964
 30
0.0
  0
VERTEX
  5
2E2
  8
DEFAULT
 10
224.2349211277934
 20
20.89745697202989
 30
0.0
  0
VERTEX
  5
2E3
  8
DEFAULT
 10
224.2376679828753
 20
20.87195908624441
 30
0.0
  0
VERTEX
  5
2E4
  8
DEFAULT
 10
224.2397517353424
 20
20.84652012219015
 30
0.0
  0
VERTEX
  5
2E5
  8
DEFAULT
 10
224.2411799579328
 20
20.82116479994495
 30
0.0
  0
VERTEX
  5
2E6
  8
DEFAULT
 10
224.2419638604136
 20
20.79578138640725
 30
0.0
  0
VERTEX
  5
2E7
  8
DEFAULT
 10
224.2421019998255
 20
20.7702575968375
 30
0.0
  0
VERTEX
  5
2E8
  8
DEFAULT
 10
224.241584680745
 20
20.74461739845022
 30
0.0
  0
VERTEX
  5
2E9
  8
DEFAULT
 10
224.2404033656443
 20
20.71888545549703
 30
0.0
  0
VERTEX
  5
2EA
  8
DEFAULT
 10
224.2385507309714
 20
20.6930870608207
 30
0.0
  0
VERTEX
  5
2EB
  8
DEFAULT
 10
224.2360207184689
 20
20.66724806232657
 30
0.0
  0
VERTEX
  5
2EC
  8
DEFAULT
 10
224.2328085812145
 20
20.6413947847511
 30
0.0
  0
VERTEX
  5
2ED
  8
DEFAULT
 10
224.2289109239026
 20
20.61555394716527
 30
0.0
  0
VERTEX
  5
2EE
  8
DEFAULT
 10
224.2243257369248
 20
20.58975257670551
 30
0.0
  0
VERTEX
  5
2EF
  8
DEFAULT
 10
224.2190524238578
 20
20.56401791907549
 30
0.0
  0
VERTEX
  5
2F0
  8
DEFAULT
 10
224.2130918220211
 20
20.53837734640679
 30
0.0
  0
VERTEX
  5
2F1
  8
DEFAULT
 10
224.2064462158244
 20
20.51285826310603
 30
0.0
  0
VERTEX
  5
2F2
  8
DEFAULT
 10
224.1991193426946
 20
20.48748801034752
 30
0.0
  0
VERTEX
  5
2F3
  8
DEFAULT
 10
224.191116391438
 20
20.46229376989517
 30
0.0
  0
VERTEX
  5
2F4
  8
DEFAULT
 10
224.1824439929648
 20
20.4373024679535
 30
0.0
  0
VERTEX
  5
2F5
  8
DEFAULT
 10
224.1731102033817
 20
20.41254067975487
 30
0.0
  0
VERTEX
  5
2F6
  8
DEFAULT
 10
224.1631244795266
 20
20.38803453558924
 30
0.0
  0
VERTEX
  5
2F7
  8
DEFAULT
 10
224.1524976471006
 20
20.36380962897219
 30
0.0
  0
VERTEX
  5
2F8
  8
DEFAULT
 10
224.1412418616194
 20
20.33989092762809
 30
0.0
  0
VERTEX
  5
2F9
  8
DEFAULT
 10
224.129370562482
 20
20.31630268793791
 30
0.0
  0
VERTEX
  5
2FA
  8
DEFAULT
 10
224.116898420516
 20
20.29306837346528
 30
0.0
  0
VERTEX
  5
2FB
  8
DEFAULT
 10
224.1038412794235
 20
20.2702105781314
 30
0.0
  0
VERTEX
  5
2FC
  8
DEFAULT
 10
224.0902160916068
 20
20.24775095455945
 30
0.0
  0
VERTEX
  5
2FD
  8
DEFAULT
 10
224.0760408489004
 20
20.22571014805328
 30
0.0
  0
VERTEX
  5
2FE
  8
DEFAULT
 10
224.0613345087823
 20
20.20410773661405
 30
0.0
  0
VERTEX
  5
2FF
  8
DEFAULT
 10
224.0461169166644
 20
20.18296217733399
 30
0.0
  0
VERTEX
  5
300
  8
DEFAULT
 10
224.0304087248962
 20
20.16229075943837
 30
0.0
  0
VERTEX
  5
301
  8
DEFAULT
 10
224.0142313091276
 20
20.1421095641775
 30
0.0
  0
VERTEX
  5
302
  8
DEFAULT
 10
223.9976066826882
 20
20.12243343170022
 30
0.0
  0
VERTEX
  5
303
  8
DEFAULT
 10
223.9805574096413
 20
20.10327593497074
 30
0.0
  0
VERTEX
  5
304
  8
DEFAULT
 10
223.9631065171636
 20
20.08464936072235
 30
0.0
  0
VERTEX
  5
305
  8
DEFAULT
 10
223.945277407888
 20
20.06656469737556
 30
0.0
 42
1.005598091024055
  0
VERTEX
  5
306
  8
DEFAULT
 10
226.066564697376
 20
17.94527740788754
 30
0.0
  0
VERTEX
  5
307
  8
DEFAULT
 10
226.0846493607228
 20
17.96310651716308
 30
0.0
  0
VERTEX
  5
308
  8
DEFAULT
 10
226.1032759349712
 20
17.98055740964075
 30
0.0
  0
VERTEX
  5
309
  8
DEFAULT
 10
226.1224334317007
 20
17.99760668268772
 30
0.0
  0
VERTEX
  5
30A
  8
DEFAULT
 10
226.142109564178
 20
18.01423130912713
 30
0.0
  0
VERTEX
  5
30B
  8
DEFAULT
 10
226.1622907594389
 20
18.0304087248957
 30
0.0
  0
VERTEX
  5
30C
  8
DEFAULT
 10
226.1829621773345
 20
18.04611691666391
 30
0.0
  0
VERTEX
  5
30D
  8
DEFAULT
 10
226.2041077366146
 20
18.06133450878186
 30
0.0
  0
VERTEX
  5
30E
  8
DEFAULT
 10
226.2257101480538
 20
18.07604084889997
 30
0.0
  0
VERTEX
  5
30F
  8
DEFAULT
 10
226.24775095456
 20
18.09021609160623
 30
0.0
  0
VERTEX
  5
310
  8
DEFAULT
 10
226.2702105781319
 20
18.10384127942302
 30
0.0
  0
VERTEX
  5
311
  8
DEFAULT
 10
226.2930683734658
 20
18.11689842051547
 30
0.0
  0
VERTEX
  5
312
  8
DEFAULT
 10
226.3163026879384
 20
18.12937056248147
 30
0.0
  0
VERTEX
  5
313
  8
DEFAULT
 10
226.3398909276286
 20
18.14124186161885
 30
0.0
  0
VERTEX
  5
314
  8
DEFAULT
 10
226.3638096289727
 20
18.15249764710006
 30
0.0
  0
VERTEX
  5
315
  8
DEFAULT
 10
226.3880345355898
 20
18.16312447952614
 30
0.0
  0
VERTEX
  5
316
  8
DEFAULT
 10
226.4125406797554
 20
18.17311020338117
 30
0.0
  0
VERTEX
  5
317
  8
DEFAULT
 10
226.4373024679541
 20
18.18244399296428
 30
0.0
  0
VERTEX
  5
318
  8
DEFAULT
 10
226.4622937698957
 20
18.19111639143743
 30
0.0
  0
VERTEX
  5
319
  8
DEFAULT
 10
226.487488010348
 20
18.19911934269411
 30
0.0
  0
VERTEX
  5
31A
  8
DEFAULT
 10
226.5128582631066
 20
18.20644621582385
 30
0.0
  0
VERTEX
  5
31B
  8
DEFAULT
 10
226.5383773464073
 20
18.21309182202058
 30
0.0
  0
VERTEX
  5
31C
  8
DEFAULT
 10
226.564017919076
 20
18.21905242385727
 30
0.0
  0
VERTEX
  5
31D
  8
DEFAULT
 10
226.5897525767061
 20
18.22432573692418
 30
0.0
  0
VERTEX
  5
31E
  8
DEFAULT
 10
226.6155539471659
 20
18.22891092390207
 30
0.0
  0
VERTEX
  5
31F
  8
DEFAULT
 10
226.6413947847517
 20
18.23280858121403
 30
0.0
  0
VERTEX
  5
320
  8
DEFAULT
 10
226.6672480623271
 20
18.2360207184684
 30
0.0
  0
VERTEX
  5
321
  8
DEFAULT
 10
226.6930870608213
 20
18.23855073097091
 30
0.0
  0
VERTEX
  5
322
  8
DEFAULT
 10
226.7188854554977
 20
18.24040336564377
 30
0.0
  0
VERTEX
  5
323
  8
DEFAULT
 10
226.7446173984508
 20
18.24158468074447
 30
0.0
  0
VERTEX
  5
324
  8
DEFAULT
 10
226.770257596838
 20
18.24210199982495
 30
0.0
  0
VERTEX
  5
325
  8
DEFAULT
 10
226.7957813864078
 20
18.24196386041306
 30
0.0
  0
VERTEX
  5
326
  8
DEFAULT
 10
226.8211647999455
 20
18.2411799579323
 30
0.0
  0
VERTEX
  5
327
  8
DEFAULT
 10
226.8465201221908
 20
18.23975173534188
 30
0.0
  0
VERTEX
  5
328
  8
DEFAULT
 10
226.871959086245
 20
18.23766798287474
 30
0.0
  0
VERTEX
  5
329
  8
DEFAULT
 10
226.8974569720305
 20
18.23492112779291
 30
0.0
  0
VERTEX
  5
32A
  8
DEFAULT
 10
226.9229884658503
 20
18.23150481152455
 30
0.0
  0
VERTEX
  5
32B
  8
DEFAULT
 10
226.9485277334552
 20
18.22741393957447
 30
0.0
  0
VERTEX
  5
32C
  8
DEFAULT
 10
226.9740484977599
 20
18.22264472624867
 30
0.0
  0
VERTEX
  5
32D
  8
DEFAULT
 10
226.9995241207843
 20
18.21719473371191
 30
0.0
  0
VERTEX
  5
32E
  8
DEFAULT
 10
227.0249276893432
 20
18.21106290493625
 30
0.0
  0
VERTEX
  5
32F
  8
DEFAULT
 10
227.0502321039535
 20
18.20424959014454
 30
0.0
  0
VERTEX
  5
330
  8
DEFAULT
 10
227.0754101703859
 20
18.19675656640485
 30
0.0
  0
VERTEX
  5
331
  8
DEFAULT
 10
227.100434693243
 20
18.18858705009056
 30
0.0
  0
VERTEX
  5
332
  8
DEFAULT
 10
227.1252785709171
 20
18.17974570198358
 30
0.0
  0
VERTEX
  5
333
  8
DEFAULT
 10
227.1499148912507
 20
18.1702386248666
 30
0.0
  0
VERTEX
  5
334
  8
DEFAULT
 10
227.1743170272074
 20
18.16007335352052
 30
0.0
  0
VERTEX
  5
335
  8
DEFAULT
 10
227.1984587318485
 20
18.14925883711702
 30
0.0
  0
VERTEX
  5
336
  8
DEFAULT
 10
227.2223142319122
 20
18.13780541407046
 30
0.0
  0
VERTEX
  5
337
  8
DEFAULT
 10
227.2458583192986
 20
18.12572477948791
 30
0.0
  0
VERTEX
  5
338
  8
DEFAULT
 10
227.269066439779
 20
18.11302994542905
 30
0.0
  0
VERTEX
  5
339
  8
DEFAULT
 10
227.2919147782771
 20
18.09973519425932
 30
0.0
  0
VERTEX
  5
33A
  8
DEFAULT
 10
227.3143803400986
 20
18.08585602544653
 30
0.0
  0
VERTEX
  5
33B
  8
DEFAULT
 10
227.3364410275313
 20
18.07140909621459
 30
0.0
  0
VERTEX
  5
33C
  8
DEFAULT
 10
227.3580757112821
 20
18.05641215652557
 30
0.0
  0
VERTEX
  5
33D
  8
DEFAULT
 10
227.3792642962761
 20
18.04088397891232
 30
0.0
  0
VERTEX
  5
33E
  8
DEFAULT
 10
227.3999877813985
 20
18.02484428372802
 30
0.0
  0
VERTEX
  5
33F
  8
DEFAULT
 10
227.4202283128286
 20
18.00831366041592
 30
0.0
  0
VERTEX
  5
340
  8
DEFAULT
 10
227.4399692306794
 20
17.9913134854303
 30
0.0
  0
VERTEX
  5
341
  8
DEFAULT
 10
227.4591951087285
 20
17.97386583746024
 30
0.0
  0
VERTEX
  5
342
  8
DEFAULT
 10
227.4778917870942
 20
17.95599341061903
 30
0.0
  0
VERTEX
  5
343
  8
DEFAULT
 10
227.4960463977855
 20
17.93771942626533
 30
0.0
  0
VERTEX
  5
344
  8
DEFAULT
 10
227.5136473831187
 20
17.91906754411714
 30
0.0
  0
VERTEX
  5
345
  8
DEFAULT
 10
227.530684507066
 20
17.90006177330654
 30
0.0
  0
VERTEX
  5
346
  8
DEFAULT
 10
227.547148859662
 20
17.88072638400307
 30
0.0
  0
VERTEX
  5
347
  8
DEFAULT
 10
227.9909667522398
 20
17.3319756895139
 30
0.0
  0
VERTEX
  5
348
  8
DEFAULT
 10
228.4245394974564
 20
16.76723078886421
 30
0.0
  0
VERTEX
  5
349
  8
DEFAULT
 10
228.8471232858767
 20
16.18669075382518
 30
0.0
  0
VERTEX
  5
34A
  8
DEFAULT
 10
229.2579728976561
 20
15.59059641873644
 30
0.0
  0
VERTEX
  5
34B
  8
DEFAULT
 10
229.6563444072622
 20
14.97923126482179
 30
0.0
  0
VERTEX
  5
34C
  8
DEFAULT
 10
230.0414980171047
 20
14.35292210992487
 30
0.0
  0
VERTEX
  5
34D
  8
DEFAULT
 10
230.4127010051263
 20
13.71203958695875
 30
0.0
  0
VERTEX
  5
34E
  8
DEFAULT
 10
230.7692307692312
 20
13.05699839551919
 30
0.0
 42
-0.1218801146049192
  0
VERTEX
  5
34F
  8
DEFAULT
 10
231.0000000000005
 20
12.12435565298208
 30
0.0
  0
VERTEX
  5
350
  8
DEFAULT
 10
231.0000000000005
 20
-12.12435565298212
 30
0.0
 42
-0.1218801146048011
  0
VERTEX
  5
351
  8
DEFAULT
 10
230.7692307692313
 20
-13.0569983955192
 30
0.0
  0
VERTEX
  5
352
  8
DEFAULT
 10
230.4127010051263
 20
-13.71203958695875
 30
0.0
  0
VERTEX
  5
353
  8
DEFAULT
 10
230.0414980171047
 20
-14.35292210992487
 30
0.0
  0
VERTEX
  5
354
  8
DEFAULT
 10
229.6563444072622
 20
-14.97923126482178
 30
0.0
  0
VERTEX
  5
355
  8
DEFAULT
 10
229.2579728976561
 20
-15.59059641873643
 30
0.0
  0
VERTEX
  5
356
  8
DEFAULT
 10
228.8471232858767
 20
-16.18669075382518
 30
0.0
  0
VERTEX
  5
357
  8
DEFAULT
 10
228.4245394974564
 20
-16.76723078886421
 30
0.0
  0
VERTEX
  5
358
  8
DEFAULT
 10
227.9909667522399
 20
-17.3319756895139
 30
0.0
  0
VERTEX
  5
359
  8
DEFAULT
 10
227.5471488596621
 20
-17.88072638400308
 30
0.0
  0
VERTEX
  5
35A
  8
DEFAULT
 10
227.530684507066
 20
-17.90006177330654
 30
0.0
  0
VERTEX
  5
35B
  8
DEFAULT
 10
227.5136473831187
 20
-17.91906754411714
 30
0.0
  0
VERTEX
  5
35C
  8
DEFAULT
 10
227.4960463977855
 20
-17.93771942626534
 30
0.0
  0
VERTEX
  5
35D
  8
DEFAULT
 10
227.4778917870941
 20
-17.95599341061902
 30
0.0
  0
VERTEX
  5
35E
  8
DEFAULT
 10
227.4591951087284
 20
-17.97386583746024
 30
0.0
  0
VERTEX
  5
35F
  8
DEFAULT
 10
227.4399692306794
 20
-17.99131348543029
 30
0.0
  0
VERTEX
  5
360
  8
DEFAULT
 10
227.4202283128286
 20
-18.00831366041592
 30
0.0
  0
VERTEX
  5
361
  8
DEFAULT
 10
227.3999877813984
 20
-18.02484428372802
 30
0.0
  0
VERTEX
  5
362
  8
DEFAULT
 10
227.379264296276
 20
-18.04088397891232
 30
0.0
  0
VERTEX
  5
363
  8
DEFAULT
 10
227.3580757112821
 20
-18.05641215652558
 30
0.0
  0
VERTEX
  5
364
  8
DEFAULT
 10
227.3364410275312
 20
-18.07140909621458
 30
0.0
  0
VERTEX
  5
365
  8
DEFAULT
 10
227.3143803400986
 20
-18.08585602544653
 30
0.0
  0
VERTEX
  5
366
  8
DEFAULT
 10
227.2919147782771
 20
-18.09973519425932
 30
0.0
  0
VERTEX
  5
367
  8
DEFAULT
 10
227.269066439779
 20
-18.11302994542904
 30
0.0
  0
VERTEX
  5
368
  8
DEFAULT
 10
227.2458583192986
 20
-18.12572477948791
 30
0.0
  0
VERTEX
  5
369
  8
DEFAULT
 10
227.2223142319121
 20
-18.13780541407046
 30
0.0
  0
VERTEX
  5
36A
  8
DEFAULT
 10
227.1984587318484
 20
-18.14925883711701
 30
0.0
  0
VERTEX
  5
36B
  8
DEFAULT
 10
227.1743170272073
 20
-18.16007335352052
 30
0.0
  0
VERTEX
  5
36C
  8
DEFAULT
 10
227.1499148912507
 20
-18.1702386248666
 30
0.0
  0
VERTEX
  5
36D
  8
DEFAULT
 10
227.125278570917
 20
-18.17974570198358
 30
0.0
  0
VERTEX
  5
36E
  8
DEFAULT
 10
227.1004346932429
 20
-18.18858705009055
 30
0.0
  0
VERTEX
  5
36F
  8
DEFAULT
 10
227.0754101703859
 20
-18.19675656640485
 30
0.0
  0
VERTEX
  5
370
  8
DEFAULT
 10
227.0502321039535
 20
-18.20424959014453
 30
0.0
  0
VERTEX
  5
371
  8
DEFAULT
 10
227.0249276893431
 20
-18.21106290493625
 30
0.0
  0
VERTEX
  5
372
  8
DEFAULT
 10
226.9995241207843
 20
-18.21719473371191
 30
0.0
  0
VERTEX
  5
373
  8
DEFAULT
 10
226.9740484977598
 20
-18.22264472624867
 30
0.0
  0
VERTEX
  5
374
  8
DEFAULT
 10
226.9485277334551
 20
-18.22741393957447
 30
0.0
  0
VERTEX
  5
375
  8
DEFAULT
 10
226.9229884658502
 20
-18.23150481152454
 30
0.0
  0
VERTEX
  5
376
  8
DEFAULT
 10
226.8974569720305
 20
-18.23492112779291
 30
0.0
  0
VERTEX
  5
377
  8
DEFAULT
 10
226.871959086245
 20
-18.23766798287473
 30
0.0
  0
VERTEX
  5
378
  8
DEFAULT
 10
226.8465201221908
 20
-18.23975173534188
 30
0.0
  0
VERTEX
  5
379
  8
DEFAULT
 10
226.8211647999456
 20
-18.2411799579323
 30
0.0
  0
VERTEX
  5
37A
  8
DEFAULT
 10
226.7957813864079
 20
-18.24196386041306
 30
0.0
  0
VERTEX
  5
37B
  8
DEFAULT
 10
226.7702575968381
 20
-18.24210199982495
 30
0.0
  0
VERTEX
  5
37C
  8
DEFAULT
 10
226.7446173984508
 20
-18.24158468074446
 30
0.0
  0
VERTEX
  5
37D
  8
DEFAULT
 10
226.7188854554976
 20
-18.24040336564376
 30
0.0
  0
VERTEX
  5
37E
  8
DEFAULT
 10
226.6930870608213
 20
-18.23855073097091
 30
0.0
  0
VERTEX
  5
37F
  8
DEFAULT
 10
226.6672480623272
 20
-18.23602071846839
 30
0.0
  0
VERTEX
  5
380
  8
DEFAULT
 10
226.6413947847518
 20
-18.23280858121402
 30
0.0
  0
VERTEX
  5
381
  8
DEFAULT
 10
226.6155539471659
 20
-18.22891092390206
 30
0.0
  0
VERTEX
  5
382
  8
DEFAULT
 10
226.5897525767061
 20
-18.22432573692417
 30
0.0
  0
VERTEX
  5
383
  8
DEFAULT
 10
226.5640179190761
 20
-18.21905242385727
 30
0.0
  0
VERTEX
  5
384
  8
DEFAULT
 10
226.5383773464073
 20
-18.21309182202058
 30
0.0
  0
VERTEX
  5
385
  8
DEFAULT
 10
226.5128582631066
 20
-18.20644621582385
 30
0.0
  0
VERTEX
  5
386
  8
DEFAULT
 10
226.4874880103481
 20
-18.19911934269411
 30
0.0
  0
VERTEX
  5
387
  8
DEFAULT
 10
226.4622937698957
 20
-18.19111639143743
 30
0.0
  0
VERTEX
  5
388
  8
DEFAULT
 10
226.4373024679541
 20
-18.18244399296428
 30
0.0
  0
VERTEX
  5
389
  8
DEFAULT
 10
226.4125406797554
 20
-18.17311020338117
 30
0.0
  0
VERTEX
  5
38A
  8
DEFAULT
 10
226.3880345355898
 20
-18.16312447952613
 30
0.0
  0
VERTEX
  5
38B
  8
DEFAULT
 10
226.3638096289727
 20
-18.15249764710006
 30
0.0
  0
VERTEX
  5
38C
  8
DEFAULT
 10
226.3398909276287
 20
-18.14124186161885
 30
0.0
  0
VERTEX
  5
38D
  8
DEFAULT
 10
226.3163026879385
 20
-18.12937056248146
 30
0.0
  0
VERTEX
  5
38E
  8
DEFAULT
 10
226.2930683734658
 20
-18.11689842051546
 30
0.0
  0
VERTEX
  5
38F
  8
DEFAULT
 10
226.270210578132
 20
-18.103841279423
 30
0.0
  0
VERTEX
  5
390
  8
DEFAULT
 10
226.24775095456
 20
-18.09021609160622
 30
0.0
  0
VERTEX
  5
391
  8
DEFAULT
 10
226.2257101480538
 20
-18.07604084889996
 30
0.0
  0
VERTEX
  5
392
  8
DEFAULT
 10
226.2041077366146
 20
-18.06133450878185
 30
0.0
  0
VERTEX
  5
393
  8
DEFAULT
 10
226.1829621773345
 20
-18.04611691666389
 30
0.0
  0
VERTEX
  5
394
  8
DEFAULT
 10
226.1622907594389
 20
-18.03040872489568
 30
0.0
  0
VERTEX
  5
395
  8
DEFAULT
 10
226.142109564178
 20
-18.01423130912711
 30
0.0
  0
VERTEX
  5
396
  8
DEFAULT
 10
226.1224334317007
 20
-17.99760668268771
 30
0.0
  0
VERTEX
  5
397
  8
DEFAULT
 10
226.1032759349712
 20
-17.98055740964073
 30
0.0
  0
VERTEX
  5
398
  8
DEFAULT
 10
226.0846493607229
 20
-17.96310651716307
 30
0.0
  0
VERTEX
  5
399
  8
DEFAULT
 10
226.066564697376
 20
-17.94527740788753
 30
0.0
 42
1.005598091024048
  0
VERTEX
  5
39A
  8
DEFAULT
 10
223.945277407888
 20
-20.06656469737555
 30
0.0
  0
VERTEX
  5
39B
  8
DEFAULT
 10
223.9631065171636
 20
-20.08464936072233
 30
0.0
  0
VERTEX
  5
39C
  8
DEFAULT
 10
223.9805574096412
 20
-20.10327593497072
 30
0.0
  0
VERTEX
  5
39D
  8
DEFAULT
 10
223.9976066826882
 20
-20.1224334317002
 30
0.0
  0
VERTEX
  5
39E
  8
DEFAULT
 10
224.0142313091276
 20
-20.14210956417748
 30
0.0
  0
VERTEX
  5
39F
  8
DEFAULT
 10
224.0304087248962
 20
-20.16229075943837
 30
0.0
  0
VERTEX
  5
3A0
  8
DEFAULT
 10
224.0461169166644
 20
-20.18296217733399
 30
0.0
  0
VERTEX
  5
3A1
  8
DEFAULT
 10
224.0613345087824
 20
-20.20410773661405
 30
0.0
  0
VERTEX
  5
3A2
  8
DEFAULT
 10
224.0760408489005
 20
-20.22571014805328
 30
0.0
  0
VERTEX
  5
3A3
  8
DEFAULT
 10
224.0902160916068
 20
-20.24775095455945
 30
0.0
  0
VERTEX
  5
3A4
  8
DEFAULT
 10
224.1038412794235
 20
-20.27021057813139
 30
0.0
  0
VERTEX
  5
3A5
  8
DEFAULT
 10
224.116898420516
 20
-20.29306837346527
 30
0.0
  0
VERTEX
  5
3A6
  8
DEFAULT
 10
224.129370562482
 20
-20.3163026879379
 30
0.0
  0
VERTEX
  5
3A7
  8
DEFAULT
 10
224.1412418616194
 20
-20.33989092762809
 30
0.0
  0
VERTEX
  5
3A8
  8
DEFAULT
 10
224.1524976471006
 20
-20.36380962897218
 30
0.0
  0
VERTEX
  5
3A9
  8
DEFAULT
 10
224.1631244795266
 20
-20.38803453558924
 30
0.0
  0
VERTEX
  5
3AA
  8
DEFAULT
 10
224.1731102033817
 20
-20.41254067975487
 30
0.0
  0
VERTEX
  5
3AB
  8
DEFAULT
 10
224.1824439929648
 20
-20.43730246795349
 30
0.0
  0
VERTEX
  5
3AC
  8
DEFAULT
 10
224.191116391438
 20
-20.46229376989516
 30
0.0
  0
VERTEX
  5
3AD
  8
DEFAULT
 10
224.1991193426947
 20
-20.48748801034751
 30
0.0
  0
VERTEX
  5
3AE
  8
DEFAULT
 10
224.2064462158244
 20
-20.51285826310603
 30
0.0
  0
VERTEX
  5
3AF
  8
DEFAULT
 10
224.2130918220211
 20
-20.53837734640679
 30
0.0
  0
VERTEX
  5
3B0
  8
DEFAULT
 10
224.2190524238578
 20
-20.56401791907549
 30
0.0
  0
VERTEX
  5
3B1
  8
DEFAULT
 10
224.2243257369248
 20
-20.58975257670551
 30
0.0
  0
VERTEX
  5
3B2
  8
DEFAULT
 10
224.2289109239026
 20
-20.61555394716527
 30
0.0
  0
VERTEX
  5
3B3
  8
DEFAULT
 10
224.2328085812146
 20
-20.6413947847511
 30
0.0
  0
VERTEX
  5
3B4
  8
DEFAULT
 10
224.236020718469
 20
-20.66724806232657
 30
0.0
  0
VERTEX
  5
3B5
  8
DEFAULT
 10
224.2385507309715
 20
-20.69308706082069
 30
0.0
  0
VERTEX
  5
3B6
  8
DEFAULT
 10
224.2404033656443
 20
-20.71888545549703
 30
0.0
  0
VERTEX
  5
3B7
  8
DEFAULT
 10
224.241584680745
 20
-20.74461739845022
 30
0.0
  0
VERTEX
  5
3B8
  8
DEFAULT
 10
224.2421019998255
 20
-20.7702575968375
 30
0.0
  0
VERTEX
  5
3B9
  8
DEFAULT
 10
224.2419638604136
 20
-20.79578138640725
 30
0.0
  0
VERTEX
  5
3BA
  8
DEFAULT
 10
224.2411799579328
 20
-20.82116479994495
 30
0.0
  0
VERTEX
  5
3BB
  8
DEFAULT
 10
224.2397517353424
 20
-20.84652012219015
 30
0.0
  0
VERTEX
  5
3BC
  8
DEFAULT
 10
224.2376679828753
 20
-20.87195908624441
 30
0.0
  0
VERTEX
  5
3BD
  8
DEFAULT
 10
224.2349211277934
 20
-20.89745697202989
 30
0.0
  0
VERTEX
  5
3BE
  8
DEFAULT
 10
224.2315048115251
 20
-20.92298846584964
 30
0.0
  0
VERTEX
  5
3BF
  8
DEFAULT
 10
224.2274139395751
 20
-20.94852773345455
 30
0.0
  0
VERTEX
  5
3C0
  8
DEFAULT
 10
224.2226447262493
 20
-20.97404849775923
 30
0.0
  0
VERTEX
  5
3C1
  8
DEFAULT
 10
224.2171947337125
 20
-20.99952412078369
 30
0.0
  0
VERTEX
  5
3C2
  8
DEFAULT
 10
224.2110629049369
 20
-21.02492768934256
 30
0.0
  0
VERTEX
  5
3C3
  8
DEFAULT
 10
224.2042495901451
 20
-21.05023210395291
 30
0.0
  0
VERTEX
  5
3C4
  8
DEFAULT
 10
224.1967565664054
 20
-21.07541017038528
 30
0.0
  0
VERTEX
  5
3C5
  8
DEFAULT
 10
224.1885870500911
 20
-21.10043469324236
 30
0.0
  0
VERTEX
  5
3C6
  8
DEFAULT
 10
224.1797457019841
 20
-21.12527857091644
 30
0.0
  0
VERTEX
  5
3C7
  8
DEFAULT
 10
224.1702386248672
 20
-21.14991489125009
 30
0.0
  0
VERTEX
  5
3C8
  8
DEFAULT
 10
224.1600733535211
 20
-21.17431702720676
 30
0.0
  0
VERTEX
  5
3C9
  8
DEFAULT
 10
224.1492588371175
 20
-21.1984587318478
 30
0.0
  0
VERTEX
  5
3CA
  8
DEFAULT
 10
224.137805414071
 20
-21.22231423191157
 30
0.0
  0
VERTEX
  5
3CB
  8
DEFAULT
 10
224.1257247794885
 20
-21.24585831929796
 30
0.0
  0
VERTEX
  5
3CC
  8
DEFAULT
 10
224.1130299454296
 20
-21.26906643977841
 30
0.0
  0
VERTEX
  5
3CD
  8
DEFAULT
 10
224.0997351942599
 20
-21.29191477827649
 30
0.0
  0
VERTEX
  5
3CE
  8
DEFAULT
 10
224.0858560254471
 20
-21.314380340098
 30
0.0
  0
VERTEX
  5
3CF
  8
DEFAULT
 10
224.0714090962151
 20
-21.33644102753064
 30
0.0
  0
VERTEX
  5
3D0
  8
DEFAULT
 10
224.0564121565261
 20
-21.35807571128147
 30
0.0
  0
VERTEX
  5
3D1
  8
DEFAULT
 10
224.0408839789129
 20
-21.37926429627546
 30
0.0
  0
VERTEX
  5
3D2
  8
DEFAULT
 10
224.0248442837286
 20
-21.39998778139787
 30
0.0
  0
VERTEX
  5
3D3
  8
DEFAULT
 10
224.0083136604165
 20
-21.42022831282796
 30
0.0
  0
VERTEX
  5
3D4
  8
DEFAULT
 10
223.9913134854309
 20
-21.43996923067879
 30
0.0
  0
VERTEX
  5
3D5
  8
DEFAULT
 10
223.9738658374608
 20
-21.4591951087278
 30
0.0
  0
VERTEX
  5
3D6
  8
DEFAULT
 10
223.9559934106196
 20
-21.47789178709355
 30
0.0
  0
VERTEX
  5
3D7
  8
DEFAULT
 10
223.9377194262659
 20
-21.49604639778491
 30
0.0
  0
VERTEX
  5
3D8
  8
DEFAULT
 10
223.9190675441177
 20
-21.51364738311813
 30
0.0
  0
VERTEX
  5
3D9
  8
DEFAULT
 10
223.9000617733071
 20
-21.53068450706534
 30
0.0
  0
VERTEX
  5
3DA
  8
DEFAULT
 10
223.8807263840037
 20
-21.54714885966145
 30
0.0
  0
VERTEX
  5
3DB
  8
DEFAULT
 10
223.2904137877682
 20
-22.02365980139921
 30
0.0
  0
VERTEX
  5
3DC
  8
DEFAULT
 10
222.6869350522381
 20
-22.48435452848052
 30
0.0
  0
VERTEX
  5
3DD
  8
DEFAULT
 10
222.0709329879559
 20
-22.92869627555488
 30
0.0
  0
VERTEX
  5
3DE
  8
DEFAULT
 10
221.4430791056703
 20
-23.3561835010779
 30
0.0
  0
VERTEX
  5
3DF
  8
DEFAULT
 10
220.8040711790817
 20
-23.76635177145825
 30
0.0
  0
VERTEX
  5
3E0
  8
DEFAULT
 10
220.1546306622344
 20
-24.15877544114658
 30
0.0
  0
VERTEX
  5
3E1
  8
DEFAULT
 10
219.4954999816014
 20
-24.53306911592203
 30
0.0
  0
VERTEX
  5
3E2
  8
DEFAULT
 10
218.8274397241443
 20
-24.88888888888889
 30
0.0
  0
VERTEX
  5
3E3
  8
DEFAULT
 10
218.8010106013965
 20
-24.90202024821518
 30
0.0
  0
VERTEX
  5
3E4
  8
DEFAULT
 10
218.7741219508293
 20
-24.91440300310282
 30
0.0
  0
VERTEX
  5
3E5
  8
DEFAULT
 10
218.7468056124949
 20
-24.92601417616785
 30
0.0
  0
VERTEX
  5
3E6
  8
DEFAULT
 10
218.7190949081918
 20
-24.93683260446735
 30
0.0
  0
VERTEX
  5
3E7
  8
DEFAULT
 10
218.6910245111327
 20
-24.94683905604196
 30
0.0
  0
VERTEX
  5
3E8
  8
DEFAULT
 10
218.6626303048255
 20
-24.95601633509646
 30
0.0
  0
VERTEX
  5
3E9
  8
DEFAULT
 10
218.633949232337
 20
-24.96434937467249
 30
0.0
  0
VERTEX
  5
3EA
  8
DEFAULT
 10
218.605019137249
 20
-24.97182531580755
 30
0.0
  0
VERTEX
  5
3EB
  8
DEFAULT
 10
218.5758785977317
 20
-24.97843357233274
 30
0.0
  0
VERTEX
  5
3EC
  8
DEFAULT
 10
218.5465667552581
 20
-24.98416588063472
 30
0.0
  0
VERTEX
  5
3ED
  8
DEFAULT
 10
218.517123139552
 20
-24.98901633389296
 30
0.0
  0
VERTEX
  5
3EE
  8
DEFAULT
 10
218.4875874914129
 20
-24.99298140049637
 30
0.0
  0
VERTEX
  5
3EF
  8
DEFAULT
 10
218.4579995850787
 20
-24.99605992654148
 30
0.0
  0
VERTEX
  5
3F0
  8
DEFAULT
 10
218.4283990517833
 20
-24.99825312251231
 30
0.0
  0
VERTEX
  5
3F1
  8
DEFAULT
 10
218.3988252061304
 20
-24.99956453443652
 30
0.0
  0
VERTEX
  5
3F2
  8
DEFAULT
 10
218.3693168768534
 20
-25.0
 30
0.0
  0
VERTEX
  5
3F3
  8
DEFAULT
 10
211.5000000000005
 20
-24.99999999999999
 30
0.0
 42
-0.4142135623730995
  0
VERTEX
  5
3F4
  8
DEFAULT
 10
211.0000000000005
 20
-24.49999999999999
 30
0.0
  0
SEQEND
  5
3F5
  8
DEFAULT
  0
POLYLINE
  5
3F6
  8
DEFAULT
 66
     1
 10
0.0
 20
0.0
 30
0.0
 70
     1
  0
VERTEX
  5
3F7
  8
DEFAULT
 10
227.7391304347829
 20
-12.34545292565359
 30
0.0
 42
0.129841144290074
  0
VERTEX
  5
3F8
  8
DEFAULT
 10
228.0000000000002
 20
-11.35781669160158
 30
0.0
  0
VERTEX
  5
3F9
  8
DEFAULT
 10
228.0000000000002
 20
11.35781669160165
 30
0.0
 42
0.1298411442899674
  0
VERTEX
  5
3FA
  8
DEFAULT
 10
227.7391304347828
 20
12.34545292565369
 30
0.0
  0
VERTEX
  5
3FB
  8
DEFAULT
 10
227.3101679685462
 20
13.07198306120248
 30
0.0
  0
VERTEX
  5
3FC
  8
DEFAULT
 10
227.2747255123084
 20
13.12767824056502
 30
0.0
  0
VERTEX
  5
3FD
  8
DEFAULT
 10
227.2371257590289
 20
13.18265109343779
 30
0.0
  0
VERTEX
  5
3FE
  8
DEFAULT
 10
227.1973800562035
 20
13.23678409153912
 30
0.0
  0
VERTEX
  5
3FF
  8
DEFAULT
 10
227.1555079000312
 20
13.28995877631843
 30
0.0
  0
VERTEX
  5
400
  8
DEFAULT
 10
227.1115371510585
 20
13.34205644024486
 30
0.0
  0
VERTEX
  5
401
  8
DEFAULT
 10
227.0655041834188
 20
13.39295884285891
 30
0.0
  0
VERTEX
  5
402
  8
DEFAULT
 10
227.0174539621665
 20
13.44254895421282
 30
0.0
  0
VERTEX
  5
403
  8
DEFAULT
 10
226.9674400441254
 20
13.49071171741356
 30
0.0
  0
VERTEX
  5
404
  8
DEFAULT
 10
226.91552449875
 20
13.53733482119734
 30
0.0
  0
VERTEX
  5
405
  8
DEFAULT
 10
226.8888753021743
 20
13.56003484465943
 30
0.0
  0
VERTEX
  5
406
  8
DEFAULT
 10
226.8617777467188
 20
13.58230947283758
 30
0.0
  0
VERTEX
  5
407
  8
DEFAULT
 10
226.8342418997121
 20
13.60414578163908
 30
0.0
  0
VERTEX
  5
408
  8
DEFAULT
 10
226.8062783153194
 20
13.62553116124493
 30
0.0
  0
VERTEX
  5
409
  8
DEFAULT
 10
226.7778980223974
 20
13.64645333868987
 30
0.0
  0
VERTEX
  5
40A
  8
DEFAULT
 10
226.7491125111058
 20
13.66690039988368
 30
0.0
  0
VERTEX
  5
40B
  8
DEFAULT
 10
226.7199337183061
 20
13.68686081099471
 30
0.0
  0
VERTEX
  5
40C
  8
DEFAULT
 10
226.6903740117843
 20
13.70632343911844
 30
0.0
  0
VERTEX
  5
40D
  8
DEFAULT
 10
226.660446173337
 20
13.72527757215597
 30
0.0
  0
VERTEX
  5
40E
  8
DEFAULT
 10
226.6301633807673
 20
13.74371293783035
 30
0.0
  0
VERTEX
  5
40F
  8
DEFAULT
 10
226.5995391888447
 20
13.76161972177154
 30
0.0
  0
VERTEX
  5
410
  8
DEFAULT
 10
226.5685875092822
 20
13.77898858460456
 30
0.0
  0
VERTEX
  5
411
  8
DEFAULT
 10
226.5373225897953
 20
13.79581067797938
 30
0.0
  0
VERTEX
  5
412
  8
DEFAULT
 10
226.5057589923061
 20
13.81207765948525
 30
0.0
  0
VERTEX
  5
413
  8
DEFAULT
 10
226.4739115703641
 20
13.82778170639726
 30
0.0
  0
VERTEX
  5
414
  8
DEFAULT
 10
226.4417954458555
 20
13.84291552820741
 30
0.0
  0
VERTEX
  5
415
  8
DEFAULT
 10
226.4094259850795
 20
13.85747237789838
 30
0.0
  0
VERTEX
  5
416
  8
DEFAULT
 10
226.3768187742695
 20
13.87144606192321
 30
0.0
  0
VERTEX
  5
417
  8
DEFAULT
 10
226.3439895946414
 20
13.88483094886016
 30
0.0
  0
VERTEX
  5
418
  8
DEFAULT
 10
226.3109543970534
 20
13.89762197671771
 30
0.0
  0
VERTEX
  5
419
  8
DEFAULT
 10
226.2777292763608
 20
13.90981465887107
 30
0.0
  0
VERTEX
  5
41A
  8
DEFAULT
 10
226.2443304455538
 20
13.92140508861703
 30
0.0
  0
VERTEX
  5
41B
  8
DEFAULT
 10
226.2107742097629
 20
13.93238994234082
 30
0.0
  0
VERTEX
  5
41C
  8
DEFAULT
 10
226.1770769402189
 20
13.94276648129432
 30
0.0
  0
VERTEX
  5
41D
  8
DEFAULT
 10
226.1432550482535
 20
13.95253255199117
 30
0.0
  0
VERTEX
  5
41E
  8
DEFAULT
 10
226.109324959425
 20
13.96168658523035
 30
0.0
  0
VERTEX
  5
41F
  8
DEFAULT
 10
226.0753030878519
 20
13.97022759376554
 30
0.0
  0
VERTEX
  5
420
  8
DEFAULT
 10
226.0412058108365
 20
13.97815516864344
 30
0.0
  0
VERTEX
  5
421
  8
DEFAULT
 10
225.9728502160029
 20
13.99217124202417
 30
0.0
  0
VERTEX
  5
422
  8
DEFAULT
 10
225.9043875184088
 20
14.00374287955228
 30
0.0
  0
VERTEX
  5
423
  8
DEFAULT
 10
225.8359449244874
 20
14.01288696199949
 30
0.0
  0
VERTEX
  5
424
  8
DEFAULT
 10
225.7676467862289
 20
14.0196288469006
 30
0.0
  0
VERTEX
  5
425
  8
DEFAULT
 10
225.6996139329751
 20
14.02400197278025
 30
0.0
  0
VERTEX
  5
426
  8
DEFAULT
 10
225.6319630588434
 20
14.02604740503537
 30
0.0
  0
VERTEX
  5
427
  8
DEFAULT
 10
225.5648061709898
 20
14.02581333168249
 30
0.0
  0
VERTEX
  5
428
  8
DEFAULT
 10
225.4982501026498
 20
14.0233545175802
 30
0.0
  0
VERTEX
  5
429
  8
DEFAULT
 10
225.4323960936163
 20
14.01873172593306
 30
0.0
 42
-0.0190979674735745
  0
VERTEX
  5
42A
  8
DEFAULT
 10
225.051023064854
 20
14.0002603420925
 30
0.0
 42
0.1962615682814094
  0
VERTEX
  5
42B
  8
DEFAULT
 10
223.6572187284224
 20
13.4145780413026
 30
0.0
  0
VERTEX
  5
42C
  8
DEFAULT
 10
212.5857864376273
 20
2.34314575050752
 30
0.0
 42
0.1989123673796327
  0
VERTEX
  5
42D
  8
DEFAULT
 10
212.0000000000005
 20
0.9289321881344206
 30
0.0
  0
VERTEX
  5
42E
  8
DEFAULT
 10
212.0000000000005
 20
-0.9289321881344085
 30
0.0
 42
0.1989123673796349
  0
VERTEX
  5
42F
  8
DEFAULT
 10
212.5857864376273
 20
-2.343145750507493
 30
0.0
  0
VERTEX
  5
430
  8
DEFAULT
 10
223.6572187284225
 20
-13.41457804130266
 30
0.0
 42
0.196261568281413
  0
VERTEX
  5
431
  8
DEFAULT
 10
225.0510230648541
 20
-14.00026034209256
 30
0.0
 42
-0.0190979674735638
  0
VERTEX
  5
432
  8
DEFAULT
 10
225.4323960936163
 20
-14.0187317259331
 30
0.0
  0
VERTEX
  5
433
  8
DEFAULT
 10
225.4982501026498
 20
-14.02335451758024
 30
0.0
  0
VERTEX
  5
434
  8
DEFAULT
 10
225.5648061709897
 20
-14.02581333168253
 30
0.0
  0
VERTEX
  5
435
  8
DEFAULT
 10
225.6319630588433
 20
-14.02604740503542
 30
0.0
  0
VERTEX
  5
436
  8
DEFAULT
 10
225.699613932975
 20
-14.0240019727803
 30
0.0
  0
VERTEX
  5
437
  8
DEFAULT
 10
225.7676467862288
 20
-14.01962884690064
 30
0.0
  0
VERTEX
  5
438
  8
DEFAULT
 10
225.8359449244874
 20
-14.01288696199953
 30
0.0
  0
VERTEX
  5
439
  8
DEFAULT
 10
225.9043875184088
 20
-14.00374287955233
 30
0.0
  0
VERTEX
  5
43A
  8
DEFAULT
 10
225.9728502160029
 20
-13.99217124202422
 30
0.0
  0
VERTEX
  5
43B
  8
DEFAULT
 10
226.0412058108364
 20
-13.97815516864349
 30
0.0
  0
VERTEX
  5
43C
  8
DEFAULT
 10
226.0753030878518
 20
-13.97022759376559
 30
0.0
  0
VERTEX
  5
43D
  8
DEFAULT
 10
226.109324959425
 20
-13.9616865852304
 30
0.0
  0
VERTEX
  5
43E
  8
DEFAULT
 10
226.1432550482535
 20
-13.95253255199123
 30
0.0
  0
VERTEX
  5
43F
  8
DEFAULT
 10
226.1770769402188
 20
-13.94276648129437
 30
0.0
  0
VERTEX
  5
440
  8
DEFAULT
 10
226.2107742097628
 20
-13.93238994234087
 30
0.0
  0
VERTEX
  5
441
  8
DEFAULT
 10
226.2443304455537
 20
-13.92140508861708
 30
0.0
  0
VERTEX
  5
442
  8
DEFAULT
 10
226.2777292763607
 20
-13.90981465887112
 30
0.0
  0
VERTEX
  5
443
  8
DEFAULT
 10
226.3109543970533
 20
-13.89762197671776
 30
0.0
  0
VERTEX
  5
444
  8
DEFAULT
 10
226.3439895946414
 20
-13.8848309488602
 30
0.0
  0
VERTEX
  5
445
  8
DEFAULT
 10
226.3768187742694
 20
-13.87144606192326
 30
0.0
  0
VERTEX
  5
446
  8
DEFAULT
 10
226.4094259850794
 20
-13.85747237789843
 30
0.0
  0
VERTEX
  5
447
  8
DEFAULT
 10
226.4417954458554
 20
-13.84291552820746
 30
0.0
  0
VERTEX
  5
448
  8
DEFAULT
 10
226.473911570364
 20
-13.82778170639731
 30
0.0
  0
VERTEX
  5
449
  8
DEFAULT
 10
226.505758992306
 20
-13.8120776594853
 30
0.0
  0
VERTEX
  5
44A
  8
DEFAULT
 10
226.5373225897951
 20
-13.79581067797942
 30
0.0
  0
VERTEX
  5
44B
  8
DEFAULT
 10
226.5685875092821
 20
-13.77898858460461
 30
0.0
  0
VERTEX
  5
44C
  8
DEFAULT
 10
226.5995391888446
 20
-13.76161972177159
 30
0.0
  0
VERTEX
  5
44D
  8
DEFAULT
 10
226.6301633807672
 20
-13.7437129378304
 30
0.0
  0
VERTEX
  5
44E
  8
DEFAULT
 10
226.6604461733369
 20
-13.72527757215601
 30
0.0
  0
VERTEX
  5
44F
  8
DEFAULT
 10
226.6903740117843
 20
-13.70632343911848
 30
0.0
  0
VERTEX
  5
450
  8
DEFAULT
 10
226.719933718306
 20
-13.68686081099476
 30
0.0
  0
VERTEX
  5
451
  8
DEFAULT
 10
226.7491125111057
 20
-13.66690039988373
 30
0.0
  0
VERTEX
  5
452
  8
DEFAULT
 10
226.7778980223974
 20
-13.64645333868992
 30
0.0
  0
VERTEX
  5
453
  8
DEFAULT
 10
226.8062783153193
 20
-13.62553116124498
 30
0.0
  0
VERTEX
  5
454
  8
DEFAULT
 10
226.8342418997121
 20
-13.60414578163913
 30
0.0
  0
VERTEX
  5
455
  8
DEFAULT
 10
226.8617777467188
 20
-13.58230947283763
 30
0.0
  0
VERTEX
  5
456
  8
DEFAULT
 10
226.8888753021743
 20
-13.56003484465948
 30
0.0
  0
VERTEX
  5
457
  8
DEFAULT
 10
226.91552449875
 20
-13.53733482119739
 30
0.0
  0
VERTEX
  5
458
  8
DEFAULT
 10
226.9674400441254
 20
-13.49071171741361
 30
0.0
  0
VERTEX
  5
459
  8
DEFAULT
 10
227.0174539621665
 20
-13.44254895421287
 30
0.0
  0
VERTEX
  5
45A
  8
DEFAULT
 10
227.0655041834187
 20
-13.39295884285895
 30
0.0
  0
VERTEX
  5
45B
  8
DEFAULT
 10
227.1115371510584
 20
-13.34205644024491
 30
0.0
  0
VERTEX
  5
45C
  8
DEFAULT
 10
227.1555079000311
 20
-13.28995877631848
 30
0.0
  0
VERTEX
  5
45D
  8
DEFAULT
 10
227.1973800562034
 20
-13.23678409153916
 30
0.0
  0
VERTEX
  5
45E
  8
DEFAULT
 10
227.2371257590288
 20
-13.18265109343784
 30
0.0
  0
VERTEX
  5
45F
  8
DEFAULT
 10
227.2747255123084
 20
-13.12767824056506
 30
0.0
  0
VERTEX
  5
460
  8
DEFAULT
 10
227.3101679685462
 20
-13.07198306120253
 30
0.0
  0
SEQEND
  5
461
  8
DEFAULT
  0
POLYLINE
  5
463
  8
TRACES
 66
     1
 10
0.0
 20
0.0
 30
0.0
 70
     1
  0
VERTEX
  5
464
  8
TRACES
 10
75.4
 20
-19.31733617441147
 30
0.0
  0
VERTEX
  5
465
  8
TRACES
 10
75.64391364043577
 20
-19.58648777439643
 30
0.0
 42
-0.1861689631104047
  0
VERTEX
  5
466
  8
TRACES
 10
75.86898654644062
 20
-20.17002255618374
 30
0.0
  0
VERTEX
  5
467
  8
TRACES
 10
75.86898654644062
 20
-21.82997744381626
 30
0.0
 42
-1.000000000000008
  0
VERTEX
  5
468
  8
TRACES
 10
74.13101345355938
 20
-21.82997744381626
 30
0.0
  0
VERTEX
  5
469
  8
TRACES
 10
74.13101345355938
 20
-20.17002255618374
 30
0.0
  0
VERTEX
  5
46A
  8
TRACES
 10
74.1634962111926
 20
-19.9346525725195
 30
0.0
 42
0.2712966754469028
  0
VERTEX
  5
46B
  8
TRACES
 10
73.90798303901781
 20
-18.95669006332571
 30
0.0
  0
VERTEX
  5
46C
  8
TRACES
 10
62.64418619450355
 20
-7.692893218813463
 30
0.0
 42
0.1989123673796525
  0
VERTEX
  5
46D
  8
TRACES
 10
61.93707941331702
 20
-7.400000000000013
 30
0.0
  0
VERTEX
  5
46E
  8
TRACES
 10
59.28852813742385
 20
-7.400000000000076
 30
0.0
 42
-0.1989123673796103
  0
VERTEX
  5
46F
  8
TRACES
 10
58.58142135623745
 20
-7.1071067811867
 30
0.0
  0
VERTEX
  5
470
  8
TRACES
 10
55.33854539272649
 20
-3.864230817675776
 30
0.0
 42
-0.1989123673796463
  0
VERTEX
  5
471
  8
TRACES
 10
55.04565217391306
 20
-3.157124036489257
 30
0.0
  0
VERTEX
  5
472
  8
TRACES
 10
55.04565217391304
 20
-3.09112494222811
 30
0.0
 42
0.256006435652775
  0
VERTEX
  5
473
  8
TRACES
 10
54.58385336077882
 20
-2.248308543208571
 30
0.0
 42
-0.2560064356527781
  0
VERTEX
  5
474
  8
TRACES
 10
53.84439443950912
 20
-0.8987422655960807
 30
0.0
  0
VERTEX
  5
475
  8
TRACES
 10
53.84439443950912
 20
0.8987422655960726
 30
0.0
 42
-0.2560064356527626
  0
VERTEX
  5
476
  8
TRACES
 10
54.58385336077882
 20
2.24830854320861
 30
0.0
 42
0.256006435652792
  0
VERTEX
  5
477
  8
TRACES
 10
55.04565217391304
 20
3.0911249422282
 30
0.0
  0
VERTEX
  5
478
  8
TRACES
 10
55.04565217391299
 20
5.197124036489064
 30
0.0
 42
-0.1989123673796541
  0
VERTEX
  5
479
  8
TRACES
 10
55.33854539272642
 20
5.904230817675604
 30
0.0
  0
VERTEX
  5
47A
  8
TRACES
 10
58.8914213562374
 20
9.457106781186633
 30
0.0
 42
-0.1582087488405125
  0
VERTEX
  5
47B
  8
TRACES
 10
59.44141656327662
 20
9.73758085910422
 30
0.0
 42
0.1476118992357707
  0
VERTEX
  5
47C
  8
TRACES
 10
59.9615263257221
 20
9.989382361836194
 30
0.0
 42
-0.1881697625432797
  0
VERTEX
  5
47D
  8
TRACES
 10
60.55002255618374
 20
10.21898654644061
 30
0.0
  0
VERTEX
  5
47E
  8
TRACES
 10
62.20997744381626
 20
10.21898654644061
 30
0.0
 42
-1.000000000000004
  0
VERTEX
  5
47F
  8
TRACES
 10
62.20997744381626
 20
8.481013453559374
 30
0.0
  0
VERTEX
  5
480
  8
TRACES
 10
60.55002255618374
 20
8.481013453559367
 30
0.0
 42
-0.2801135852241336
  0
VERTEX
  5
481
  8
TRACES
 10
59.77857092588226
 20
8.949999999999989
 30
0.0
  0
VERTEX
  5
482
  8
TRACES
 10
59.51568542494923
 20
8.94999999999999
 30
0.0
  0
VERTEX
  5
483
  8
TRACES
 10
56.13854539272648
 20
5.572859967777254
 30
0.0
 42
0.1989123673796548
  0
VERTEX
  5
484
  8
TRACES
 10
55.84565217391304
 20
4.865753186590715
 30
0.0
  0
VERTEX
  5
485
  8
TRACES
 10
55.84565217391302
 20
3.091124942228111
 30
0.0
 42
0.2560064356527735
  0
VERTEX
  5
486
  8
TRACES
 10
56.30745098704724
 20
2.248308543208577
 30
0.0
 42
-0.2049451412935618
  0
VERTEX
  5
487
  8
TRACES
 10
57.01689924483309
 20
1.207301780298673
 30
0.0
 42
0.3584935090584598
  0
VERTEX
  5
488
  8
TRACES
 10
57.99815731288857
 20
0.3999999999999992
 30
0.0
  0
VERTEX
  5
489
  8
TRACES
 10
63.42010101267767
 20
0.3999999999998982
 30
0.0
 42
0.1989123673795913
  0
VERTEX
  5
48A
  8
TRACES
 10
64.127207793864
 20
0.6928932188132443
 30
0.0
  0
VERTEX
  5
48B
  8
TRACES
 10
65.89142135623722
 20
2.457106781186631
 30
0.0
 42
-0.1989123673795777
  0
VERTEX
  5
48C
  8
TRACES
 10
66.5985281374235
 20
2.749999999999995
 30
0.0
  0
VERTEX
  5
48D
  8
TRACES
 10
77.60147186257647
 20
2.749999999999988
 30
0.0
 42
-0.1989123673795828
  0
VERTEX
  5
48E
  8
TRACES
 10
78.30857864376277
 20
2.457106781186616
 30
0.0
  0
VERTEX
  5
48F
  8
TRACES
 10
80.07279220613577
 20
0.6928932188134557
 30
0.0
 42
0.1989123673796601
  0
VERTEX
  5
490
  8
TRACES
 10
80.77989898732233
 20
0.3999999999999948
 30
0.0
  0
VERTEX
  5
491
  8
TRACES
 10
80.85857092588226
 20
0.4000000000000002
 30
0.0
 42
-0.2801135852241283
  0
VERTEX
  5
492
  8
TRACES
 10
81.63002255618375
 20
0.8689865464406136
 30
0.0
  0
VERTEX
  5
493
  8
TRACES
 10
83.28997744381627
 20
0.868986546440623
 30
0.0
 42
-0.9999999999999999
  0
VERTEX
  5
494
  8
TRACES
 10
83.28997744381627
 20
-0.868986546440623
 30
0.0
  0
VERTEX
  5
495
  8
TRACES
 10
81.63002255618375
 20
-0.8689865464406248
 30
0.0
 42
-0.1830391505854619
  0
VERTEX
  5
496
  8
TRACES
 10
81.05432599341512
 20
-0.6509309375895479
 30
0.0
 42
0.1756166966010166
  0
VERTEX
  5
497
  8
TRACES
 10
80.42059478169159
 20
-0.4004136746397245
 30
0.0
 42
-0.1914472223684471
  0
VERTEX
  5
498
  8
TRACES
 10
79.74224870551677
 20
-0.1079341304660268
 30
0.0
  0
VERTEX
  5
499
  8
TRACES
 10
77.97720779386421
 20
1.657106781186521
 30
0.0
 42
0.1989123673796676
  0
VERTEX
  5
49A
  8
TRACES
 10
77.27010101267766
 20
1.949999999999982
 30
0.0
  0
VERTEX
  5
49B
  8
TRACES
 10
66.92989898732232
 20
1.949999999999993
 30
0.0
 42
0.1989123673796548
  0
VERTEX
  5
49C
  8
TRACES
 10
66.22279220613578
 20
1.657106781186542
 30
0.0
  0
VERTEX
  5
49D
  8
TRACES
 10
64.4585786437628
 20
-0.1071067811866541
 30
0.0
 42
-0.1989123673795578
  0
VERTEX
  5
49E
  8
TRACES
 10
63.75147186257659
 20
-0.3999999999999974
 30
0.0
  0
VERTEX
  5
49F
  8
TRACES
 10
57.99815731288831
 20
-0.4000000000000001
 30
0.0
 42
0.3584935090584215
  0
VERTEX
  5
4A0
  8
TRACES
 10
57.01689924483298
 20
-1.207301780298659
 30
0.0
 42
-0.2049451412921604
  0
VERTEX
  5
4A1
  8
TRACES
 10
56.30745098704748
 20
-2.248308543213628
 30
0.0
 42
0.2560064356544793
  0
VERTEX
  5
4A2
  8
TRACES
 10
55.84565217391133
 20
-3.091124942238495
 30
0.0
  0
VERTEX
  5
4A3
  8
TRACES
 10
55.84565217391305
 20
-3.239966748963823
 30
0.0
  0
VERTEX
  5
4A4
  8
TRACES
 10
58.91279220613577
 20
-6.30710678118656
 30
0.0
 42
0.1989123673796504
  0
VERTEX
  5
4A5
  8
TRACES
 10
59.61989898732229
 20
-6.600000000000003
 30
0.0
  0
VERTEX
  5
4A6
  8
TRACES
 10
62.26845026321547
 20
-6.600000000000302
 30
0.0
 42
-0.1989123673798387
  0
VERTEX
  5
4A7
  8
TRACES
 10
62.9755570444026
 20
-6.892893218814048
 30
0.0
  0
SEQEND
  5
4A8
  8
TRACES
  0
POLYLINE
  5
4A9
  8
TRACES
 66
     1
 10
0.0
 20
0.0
 30
0.0
 70
     1
  0
VERTEX
  5
4AA
  8
TRACES
 10
77.94
 20
-18.93183407667991
 30
0.0
 42
0.1830391505854683
  0
VERTEX
  5
4AB
  8
TRACES
 10
78.19093093758956
 20
-19.59432599341515
 30
0.0
 42
-0.1830391505854407
  0
VERTEX
  5
4AC
  8
TRACES
 10
78.40898654644062
 20
-20.17002255618374
 30
0.0
  0
VERTEX
  5
4AD
  8
TRACES
 10
78.40898654644062
 20
-21.82997744381626
 30
0.0
 42
-1.000000000000016
  0
VERTEX
  5
4AE
  8
TRACES
 10
76.67101345355937
 20
-21.82997744381626
 30
0.0
  0
VERTEX
  5
4AF
  8
TRACES
 10
76.67101345355937
 20
-20.17002255618374
 30
0.0
 42
-0.1830391505854852
  0
VERTEX
  5
4B0
  8
TRACES
 10
76.88906906241043
 20
-19.59432599341514
 30
0.0
 42
0.1830391505854788
  0
VERTEX
  5
4B1
  8
TRACES
 10
77.14
 20
-18.93183407667989
 30
0.0
  0
VERTEX
  5
4B2
  8
TRACES
 10
77.14000000000001
 20
-18.07989898732233
 30
0.0
 42
0.1989123673796487
  0
VERTEX
  5
4B3
  8
TRACES
 10
76.84710678118657
 20
-17.37279220613581
 30
0.0
  0
VERTEX
  5
4B4
  8
TRACES
 10
69.89289321881343
 20
-10.41857864376267
 30
0.0
 42
-0.1989123673796452
  0
VERTEX
  5
4B5
  8
TRACES
 10
69.6
 20
-9.71147186257614
 30
0.0
  0
VERTEX
  5
4B6
  8
TRACES
 10
69.60000000000001
 20
-4.067637686476755
 30
0.0
 42
-0.198912367379665
  0
VERTEX
  5
4B7
  8
TRACES
 10
69.89289321881347
 20
-3.360530905290184
 30
0.0
  0
VERTEX
  5
4B8
  8
TRACES
 10
72.55053090529022
 20
-0.7028932188134334
 30
0.0
 42
-0.1989123673796546
  0
VERTEX
  5
4B9
  8
TRACES
 10
73.25763768647676
 20
-0.4099999999999899
 30
0.0
  0
VERTEX
  5
4BA
  8
TRACES
 10
74.55183407667988
 20
-0.4099999999999969
 30
0.0
 42
0.1830391505854759
  0
VERTEX
  5
4BB
  8
TRACES
 10
75.21432599341514
 20
-0.1590690624104351
 30
0.0
 42
-0.1830391505855017
  0
VERTEX
  5
4BC
  8
TRACES
 10
75.79002255618373
 20
0.0589865464406263
 30
0.0
  0
VERTEX
  5
4BD
  8
TRACES
 10
77.44997744381627
 20
0.0589865464406252
 30
0.0
 42
-0.9999999999999999
  0
VERTEX
  5
4BE
  8
TRACES
 10
77.44997744381627
 20
-1.67898654644063
 30
0.0
  0
VERTEX
  5
4BF
  8
TRACES
 10
75.79002255618373
 20
-1.678986546440623
 30
0.0
 42
-0.1830391505854892
  0
VERTEX
  5
4C0
  8
TRACES
 10
75.21432599341516
 20
-1.460930937589564
 30
0.0
 42
0.1830391505854669
  0
VERTEX
  5
4C1
  8
TRACES
 10
74.55183407667988
 20
-1.209999999999997
 30
0.0
  0
VERTEX
  5
4C2
  8
TRACES
 10
73.58900853637523
 20
-1.210000000000009
 30
0.0
 42
0.1989123673796678
  0
VERTEX
  5
4C3
  8
TRACES
 10
72.88190175518866
 20
-1.502893218813452
 30
0.0
  0
VERTEX
  5
4C4
  8
TRACES
 10
70.69289321881345
 20
-3.691901755188677
 30
0.0
 42
0.1989123673796561
  0
VERTEX
  5
4C5
  8
TRACES
 10
70.4
 20
-4.399008536375224
 30
0.0
  0
VERTEX
  5
4C6
  8
TRACES
 10
70.4
 20
-9.380101012677676
 30
0.0
 42
0.1989123673796534
  0
VERTEX
  5
4C7
  8
TRACES
 10
70.69289321881345
 20
-10.08720779386422
 30
0.0
  0
VERTEX
  5
4C8
  8
TRACES
 10
77.64710678118658
 20
-17.04142135623728
 30
0.0
 42
-0.1989123673796262
  0
VERTEX
  5
4C9
  8
TRACES
 10
77.94
 20
-17.74852813742373
 30
0.0
  0
SEQEND
  5
4CA
  8
TRACES
  0
POLYLINE
  5
4CB
  8
TRACES
 66
     1
 10
0.0
 20
0.0
 30
0.0
 70
     1
  0
VERTEX
  5
4CC
  8
TRACES
 10
90.39183407667988
 20
-5.489999999999995
 30
0.0
 42
0.1830391505854745
  0
VERTEX
  5
4CD
  8
TRACES
 10
91.05432599341515
 20
-5.23906906241044
 30
0.0
 42
-0.1830391505855014
  0
VERTEX
  5
4CE
  8
TRACES
 10
91.63002255618375
 20
-5.021013453559375
 30
0.0
  0
VERTEX
  5
4CF
  8
TRACES
 10
93.28997744381627
 20
-5.021013453559373
 30
0.0
 42
-0.9999999999999999
  0
VERTEX
  5
4D0
  8
TRACES
 10
93.28997744381627
 20
-6.758986546440632
 30
0.0
  0
VERTEX
  5
4D1
  8
TRACES
 10
91.63002255618375
 20
-6.758986546440621
 30
0.0
 42
-0.1830391505854599
  0
VERTEX
  5
4D2
  8
TRACES
 10
91.05432599341515
 20
-6.540930937589568
 30
0.0
 42
0.1830391505854757
  0
VERTEX
  5
4D3
  8
TRACES
 10
90.3918340766799
 20
-6.290000000000001
 30
0.0
  0
VERTEX
  5
4D4
  8
TRACES
 10
78.6881659233201
 20
-6.29
 30
0.0
 42
0.1830391505854745
  0
VERTEX
  5
4D5
  8
TRACES
 10
78.02567400658485
 20
-6.540930937589564
 30
0.0
 42
-0.1830391505854307
  0
VERTEX
  5
4D6
  8
TRACES
 10
77.44997744381627
 20
-6.758986546440617
 30
0.0
  0
VERTEX
  5
4D7
  8
TRACES
 10
75.79002255618373
 20
-6.758986546440621
 30
0.0
 42
-0.9999999999999994
  0
VERTEX
  5
4D8
  8
TRACES
 10
75.79002255618373
 20
-5.021013453559371
 30
0.0
  0
VERTEX
  5
4D9
  8
TRACES
 10
77.44997744381627
 20
-5.021013453559373
 30
0.0
 42
-0.1830391505854786
  0
VERTEX
  5
4DA
  8
TRACES
 10
78.02567400658486
 20
-5.239069062410442
 30
0.0
 42
0.1830391505854647
  0
VERTEX
  5
4DB
  8
TRACES
 10
78.68816592332011
 20
-5.489999999999998
 30
0.0
  0
SEQEND
  5
4DC
  8
TRACES
  0
POLYLINE
  5
4DD
  8
TRACES
 66
     1
 10
0.0
 20
0.0
 30
0.0
 70
     1
  0
VERTEX
  5
4DE
  8
TRACES
 10
84.52816592332003
 20
-2.940000000000001
 30
0.0
 42
0.1830391505854533
  0
VERTEX
  5
4DF
  8
TRACES
 10
83.86567400658484
 20
-3.190930937589545
 30
0.0
 42
-0.1830391505855128
  0
VERTEX
  5
4E0
  8
TRACES
 10
83.28997744381627
 20
-3.408986546440618
 30
0.0
  0
VERTEX
  5
4E1
  8
TRACES
 10
81.63002255618375
 20
-3.408986546440625
 30
0.0
 42
-0.9999999999999999
  0
VERTEX
  5
4E2
  8
TRACES
 10
81.63002255618375
 20
-1.671013453559388
 30
0.0
  0
VERTEX
  5
4E3
  8
TRACES
 10
83.28997744381627
 20
-1.671013453559377
 30
0.0
 42
-0.1830391505854718
  0
VERTEX
  5
4E4
  8
TRACES
 10
83.86567400658485
 20
-1.889069062410437
 30
0.0
 42
0.1830391505854714
  0
VERTEX
  5
4E5
  8
TRACES
 10
84.5281659233201
 20
-2.139999999999999
 30
0.0
  0
VERTEX
  5
4E6
  8
TRACES
 10
85.88010101267767
 20
-2.14
 30
0.0
 42
0.1989123673796554
  0
VERTEX
  5
4E7
  8
TRACES
 10
86.58720779386421
 20
-1.847106781186548
 30
0.0
  0
VERTEX
  5
4E8
  8
TRACES
 10
91.76710678118654
 20
3.33279220613578
 30
0.0
 42
0.1989123673796613
  0
VERTEX
  5
4E9
  8
TRACES
 10
92.06
 20
4.039898987322333
 30
0.0
  0
VERTEX
  5
4EA
  8
TRACES
 10
92.06
 20
4.181048334429713
 30
0.0
 42
0.3260895571029168
  0
VERTEX
  5
4EB
  8
TRACES
 10
91.36499018693812
 20
5.133403827862422
 30
0.0
 42
-0.8559117307187266
  0
VERTEX
  5
4EC
  8
TRACES
 10
91.63002255618375
 20
6.829974485524923
 30
0.0
  0
VERTEX
  5
4ED
  8
TRACES
 10
93.28997744381627
 20
6.82997448552489
 30
0.0
 42
-0.8559117307187343
  0
VERTEX
  5
4EE
  8
TRACES
 10
93.55500981306187
 20
5.133403827862439
 30
0.0
 42
0.326089557102909
  0
VERTEX
  5
4EF
  8
TRACES
 10
92.85999999999999
 20
4.181048334429711
 30
0.0
  0
VERTEX
  5
4F0
  8
TRACES
 10
92.8599999999999
 20
3.708528137423857
 30
0.0
 42
-0.1989123673797138
  0
VERTEX
  5
4F1
  8
TRACES
 10
92.56710678118637
 20
3.001421356237129
 30
0.0
  0
VERTEX
  5
4F2
  8
TRACES
 10
86.91857864376284
 20
-2.647106781186346
 30
0.0
 42
-0.198912367379738
  0
VERTEX
  5
4F3
  8
TRACES
 10
86.21147186257605
 20
-2.939999999999912
 30
0.0
  0
SEQEND
  5
4F4
  8
TRACES
  0
POLYLINE
  5
4F5
  8
TRACES
 66
     1
 10
0.0
 20
0.0
 30
0.0
 70
     1
  0
VERTEX
  5
4F6
  8
TRACES
 10
59.31183407667989
 20
14.82999999999999
 30
0.0
 42
0.183039150585471
  0
VERTEX
  5
4F7
  8
TRACES
 10
59.97432599341513
 20
15.08093093758956
 30
0.0
 42
-0.1830391505854663
  0
VERTEX
  5
4F8
  8
TRACES
 10
60.55002255618374
 20
15.29898654644061
 30
0.0
  0
VERTEX
  5
4F9
  8
TRACES
 10
62.20997744381626
 20
15.29898654644061
 30
0.0
 42
-0.1830391505854536
  0
VERTEX
  5
4FA
  8
TRACES
 10
62.78567400658486
 20
15.08093093758956
 30
0.0
 42
0.1830391505854786
  0
VERTEX
  5
4FB
  8
TRACES
 10
63.44816592332014
 20
14.82999999999999
 30
0.0
  0
VERTEX
  5
4FC
  8
TRACES
 10
77.18147186257609
 20
14.83
 30
0.0
 42
-0.1989123673796627
  0
VERTEX
  5
4FD
  8
TRACES
 10
77.88857864376266
 20
14.53710678118654
 30
0.0
  0
VERTEX
  5
4FE
  8
TRACES
 10
82.56710678118651
 20
9.858578643762714
 30
0.0
 42
-0.1989123673796702
  0
VERTEX
  5
4FF
  8
TRACES
 10
82.85999999999999
 20
9.151471862576123
 30
0.0
  0
VERTEX
  5
500
  8
TRACES
 10
82.86
 20
4.319939604654552
 30
0.0
 42
0.3260895571029164
  0
VERTEX
  5
501
  8
TRACES
 10
83.55500981306189
 20
3.367584111221845
 30
0.0
 42
-0.8559117307187374
  0
VERTEX
  5
502
  8
TRACES
 10
83.28997744381627
 20
1.671013453559369
 30
0.0
  0
VERTEX
  5
503
  8
TRACES
 10
81.63002255618375
 20
1.671013453559375
 30
0.0
 42
-0.8559117307187251
  0
VERTEX
  5
504
  8
TRACES
 10
81.36499018693812
 20
3.367584111221847
 30
0.0
 42
0.3260895571029158
  0
VERTEX
  5
505
  8
TRACES
 10
82.06
 20
4.319939604654554
 30
0.0
  0
VERTEX
  5
506
  8
TRACES
 10
82.06
 20
8.82010101267765
 30
0.0
 42
0.1989123673796534
  0
VERTEX
  5
507
  8
TRACES
 10
81.76710678118656
 20
9.527207793864193
 30
0.0
  0
VERTEX
  5
508
  8
TRACES
 10
77.55720779386422
 20
13.73710678118653
 30
0.0
 42
0.1989123673796573
  0
VERTEX
  5
509
  8
TRACES
 10
76.85010101267767
 20
14.02999999999999
 30
0.0
  0
VERTEX
  5
50A
  8
TRACES
 10
63.44816592332011
 20
14.02999999999998
 30
0.0
 42
0.1830391505854742
  0
VERTEX
  5
50B
  8
TRACES
 10
62.78567400658485
 20
13.77906906241042
 30
0.0
 42
-0.18303915058547
  0
VERTEX
  5
50C
  8
TRACES
 10
62.20997744381626
 20
13.56101345355937
 30
0.0
  0
VERTEX
  5
50D
  8
TRACES
 10
60.55002255618374
 20
13.56101345355937
 30
0.0
 42
-0.1830391505854933
  0
VERTEX
  5
50E
  8
TRACES
 10
59.97432599341514
 20
13.77906906241043
 30
0.0
 42
0.1830391505854709
  0
VERTEX
  5
50F
  8
TRACES
 10
59.31183407667989
 20
14.02999999999999
 30
0.0
  0
VERTEX
  5
510
  8
TRACES
 10
58.00989898732232
 20
14.02999999999999
 30
0.0
 42
0.1989123673796552
  0
VERTEX
  5
511
  8
TRACES
 10
57.30279220613578
 20
13.73710678118654
 30
0.0
  0
VERTEX
  5
512
  8
TRACES
 10
50.1385453927265
 20
6.572859967777261
 30
0.0
 42
0.1989123673796561
  0
VERTEX
  5
513
  8
TRACES
 10
49.84565217391305
 20
5.865753186590709
 30
0.0
  0
VERTEX
  5
514
  8
TRACES
 10
49.84565217391304
 20
3.099289096065757
 30
0.0
 42
0.2575676230602278
  0
VERTEX
  5
515
  8
TRACES
 10
50.31239778846899
 20
2.253334156128237
 30
0.0
 42
-0.2575676230602198
  0
VERTEX
  5
516
  8
TRACES
 10
51.05977781377583
 20
0.8987422655960732
 30
0.0
  0
VERTEX
  5
517
  8
TRACES
 10
51.05977781377583
 20
-0.8987422655960806
 30
0.0
 42
-0.2575676230602491
  0
VERTEX
  5
518
  8
TRACES
 10
50.31239778846901
 20
-2.253334156128234
 30
0.0
 42
0.25756762306023
  0
VERTEX
  5
519
  8
TRACES
 10
49.84565217391305
 20
-3.09928909606577
 30
0.0
  0
VERTEX
  5
51A
  8
TRACES
 10
49.84565217391305
 20
-5.005753186590728
 30
0.0
 42
0.1989123673796556
  0
VERTEX
  5
51B
  8
TRACES
 10
50.13854539272649
 20
-5.712859967777272
 30
0.0
  0
VERTEX
  5
51C
  8
TRACES
 10
64.73279220613576
 20
-20.30710678118654
 30
0.0
 42
0.1989123673796573
  0
VERTEX
  5
51D
  8
TRACES
 10
65.43989898732231
 20
-20.59999999999999
 30
0.0
  0
VERTEX
  5
51E
  8
TRACES
 10
70.68006039534544
 20
-20.60000000000001
 30
0.0
 42
0.3260895571029169
  0
VERTEX
  5
51F
  8
TRACES
 10
71.63241588877813
 20
-19.90499018693811
 30
0.0
 42
-0.8559117307187408
  0
VERTEX
  5
520
  8
TRACES
 10
73.32898654644063
 20
-20.17002255618374
 30
0.0
  0
VERTEX
  5
521
  8
TRACES
 10
73.32898654644063
 20
-21.82997744381626
 30
0.0
 42
-0.8559117307187278
  0
VERTEX
  5
522
  8
TRACES
 10
71.63241588877816
 20
-22.09500981306189
 30
0.0
 42
0.3260895571029172
  0
VERTEX
  5
523
  8
TRACES
 10
70.68006039534545
 20
-21.39999999999999
 30
0.0
  0
VERTEX
  5
524
  8
TRACES
 10
65.10852813742382
 20
-21.39999999999985
 30
0.0
 42
-0.1989123673797516
  0
VERTEX
  5
525
  8
TRACES
 10
64.40142135623698
 20
-21.10710678118625
 30
0.0
  0
VERTEX
  5
526
  8
TRACES
 10
49.33854539272679
 20
-6.044230817676064
 30
0.0
 42
-0.1989123673797445
  0
VERTEX
  5
527
  8
TRACES
 10
49.0456521739132
 20
-5.337124036489243
 30
0.0
  0
VERTEX
  5
528
  8
TRACES
 10
49.04565217391304
 20
-3.082854461093555
 30
0.0
 42
0.2544405625868889
  0
VERTEX
  5
529
  8
TRACES
 10
48.58880016220055
 20
-2.243217478332987
 30
0.0
 42
-0.2544405625868692
  0
VERTEX
  5
52A
  8
TRACES
 10
47.85726234496799
 20
-0.8987422655960805
 30
0.0
  0
VERTEX
  5
52B
  8
TRACES
 10
47.85726234496799
 20
0.8987422655960726
 30
0.0
 42
-0.2544405625868374
  0
VERTEX
  5
52C
  8
TRACES
 10
48.58880016220051
 20
2.243217478332993
 30
0.0
 42
0.2544405625869179
  0
VERTEX
  5
52D
  8
TRACES
 10
49.04565217391303
 20
3.082854461093682
 30
0.0
  0
VERTEX
  5
52E
  8
TRACES
 10
49.04565217391241
 20
6.19712403648913
 30
0.0
 42
-0.1989123673792709
  0
VERTEX
  5
52F
  8
TRACES
 10
49.33854539272524
 20
6.904230817674443
 30
0.0
  0
VERTEX
  5
530
  8
TRACES
 10
56.97142135623717
 20
14.53710678118641
 30
0.0
 42
-0.1989123673796951
  0
VERTEX
  5
531
  8
TRACES
 10
57.67852813742384
 20
14.82999999999993
 30
0.0
  0
SEQEND
  5
532
  8
TRACES
  0
POLYLINE
  5
533
  8
DEFAULT
 66
     1
 10
0.0
 20
0.0
 30
0.0
 70
     1
  0
VERTEX
  5
534
  8
DEFAULT
 10
96.5471488596616
 20
17.88072638400308
 30
0.0
 42
0.4433088916476109
  0
VERTEX
  5
535
  8
DEFAULT
 10
95.06656469737561
 20
17.94527740788755
 30
0.0
 42
-1.005598091024071
  0
VERTEX
  5
536
  8
DEFAULT
 10
92.9452774078876
 20
20.06656469737554
 30
0.0
 42
0.4433088916475953
  0
VERTEX
  5
537
  8
DEFAULT
 10
92.88072638400322
 20
21.54714885966147
 30
0.0
 42
0.0542511178041749
  0
VERTEX
  5
538
  8
DEFAULT
 10
87.82743972414384
 20
24.8888888888889
 30
0.0
 42
0.1195350615016073
  0
VERTEX
  5
539
  8
DEFAULT
 10
87.36931687685296
 20
25.00000000000001
 30
0.0
  0
VERTEX
  5
53A
  8
DEFAULT
 10
62.63068312314698
 20
24.99999999999998
 30
0.0
 42
0.1195350615016197
  0
VERTEX
  5
53B
  8
DEFAULT
 10
62.17256027585614
 20
24.88888888888888
 30
0.0
 42
0.0542511178041736
  0
VERTEX
  5
53C
  8
DEFAULT
 10
57.11927361599676
 20
21.54714885966146
 30
0.0
 42
0.4433088916475859
  0
VERTEX
  5
53D
  8
DEFAULT
 10
57.05472259211238
 20
20.06656469737555
 30
0.0
 42
-1.005598091024073
  0
VERTEX
  5
53E
  8
DEFAULT
 10
54.93343530262437
 20
17.94527740788752
 30
0.0
 42
0.4433088916476253
  0
VERTEX
  5
53F
  8
DEFAULT
 10
53.45285114033841
 20
17.88072638400308
 30
0.0
 42
0.3608830537282512
  0
VERTEX
  5
540
  8
DEFAULT
 10
53.4528511403384
 20
-17.88072638400308
 30
0.0
 42
0.4433088916476208
  0
VERTEX
  5
541
  8
DEFAULT
 10
54.93343530262435
 20
-17.94527740788753
 30
0.0
 42
-1.005598091024071
  0
VERTEX
  5
542
  8
DEFAULT
 10
57.05472259211241
 20
-20.06656469737555
 30
0.0
 42
0.4433088916475814
  0
VERTEX
  5
543
  8
DEFAULT
 10
57.11927361599677
 20
-21.54714885966146
 30
0.0
 42
0.0542511178041734
  0
VERTEX
  5
544
  8
DEFAULT
 10
62.17256027585617
 20
-24.88888888888889
 30
0.0
 42
0.1195350615015851
  0
VERTEX
  5
545
  8
DEFAULT
 10
62.63068312314702
 20
-25.0
 30
0.0
  0
VERTEX
  5
546
  8
DEFAULT
 10
87.369316876853
 20
-24.99999999999999
 30
0.0
 42
0.1195350615015843
  0
VERTEX
  5
547
  8
DEFAULT
 10
87.82743972414387
 20
-24.88888888888889
 30
0.0
 42
0.0542511178041759
  0
VERTEX
  5
548
  8
DEFAULT
 10
92.88072638400328
 20
-21.54714885966143
 30
0.0
 42
0.4433088916475564
  0
VERTEX
  5
549
  8
DEFAULT
 10
92.94527740788763
 20
-20.06656469737554
 30
0.0
 42
-1.005598091024081
  0
VERTEX
  5
54A
  8
DEFAULT
 10
95.06656469737561
 20
-17.94527740788755
 30
0.0
 42
0.4433088916476223
  0
VERTEX
  5
54B
  8
DEFAULT
 10
96.54714885966153
 20
-17.88072638400309
 30
0.0
 42
0.3608830537282562
  0
SEQEND
  5
54C
  8
DEFAULT
  0
CIRCLE
  5
54E
  8
HOLES
 10
-82.46000000000001
 20
-2.540000000000001
 30
0.0
 40
0.5
210
0.0
220
0.0
230
-1.0
  0
CIRCLE
  5
54F
  8
HOLES
 10
-92.46000000000001
 20
-5.889999999999997
 30
0.0
 40
0.5
210
0.0
220
0.0
230
-1.0
  0
CIRCLE
  5
550
  8
HOLES
 10
-61.38
 20
-10.97
 30
0.0
 40
0.43
210
0.0
220
0.0
230
-1.0
  0
POLYLINE
  5
551
  8
TRACES
 66
     1
 10
0.0
 20
0.0
 30
0.0
 70
     1
  0
VERTEX
  5
552
  8
TRACES
 10
62.20997744381626
 20
-11.83898654644063
 30
0.0
  0
VERTEX
  5
553
  8
TRACES
 10
60.55002255618374
 20
-11.83898654644063
 30
0.0
 42
-0.9999999999999999
  0
VERTEX
  5
554
  8
TRACES
 10
60.55002255618374
 20
-10.10101345355938
 30
0.0
  0
VERTEX
  5
555
  8
TRACES
 10
62.20997744381626
 20
-10.10101345355938
 30
0.0
 42
-0.9999999999999999
  0
SEQEND
  5
556
  8
TRACES
  0
CIRCLE
  5
557
  8
HOLES
 10
-61.38
 20
16.96999999999999
 30
0.0
 40
0.43
210
0.0
220
0.0
230
-1.0
  0
POLYLINE
  5
558
  8
TRACES
 66
     1
 10
0.0
 20
0.0
 30
0.0
 70
     1
  0
VERTEX
  5
559
  8
TRACES
 10
62.20997744381626
 20
16.10101345355936
 30
0.0
  0
VERTEX
  5
55A
  8
TRACES
 10
60.55002255618374
 20
16.10101345355936
 30
0.0
 42
-0.9999999999999999
  0
VERTEX
  5
55B
  8
TRACES
 10
60.55002255618374
 20
17.83898654644061
 30
0.0
  0
VERTEX
  5
55C
  8
TRACES
 10
62.20997744381626
 20
17.83898654644061
 30
0.0
 42
-0.9999999999999999
  0
SEQEND
  5
55D
  8
TRACES
  0
CIRCLE
  5
55E
  8
HOLES
 10
-92.46000000000001
 20
5.960987939084266
 30
0.0
 40
0.5
210
0.0
220
0.0
230
-1.0
  0
CIRCLE
  5
55F
  8
HOLES
 10
-82.46000000000001
 20
2.539999999999999
 30
0.0
 40
0.5
210
0.0
220
0.0
230
-1.0
  0
CIRCLE
  5
560
  8
HOLES
 10
-82.46000000000001
 20
-0.0000000000000008
 30
0.0
 40
0.5
210
0.0
220
0.0
230
-1.0
  0
CIRCLE
  5
561
  8
HOLES
 10
-100.76
 20
-2.540000000000001
 30
0.0
 40
0.5
210
0.0
220
0.0
230
-1.0
  0
POLYLINE
  5
562
  8
TRACES
 66
     1
 10
0.0
 20
0.0
 30
0.0
 70
     1
  0
VERTEX
  5
563
  8
TRACES
 10
101.5899774438163
 20
-3.408986546440625
 30
0.0
  0
VERTEX
  5
564
  8
TRACES
 10
99.93002255618374
 20
-3.408986546440625
 30
0.0
 42
-0.9999999999999999
  0
VERTEX
  5
565
  8
TRACES
 10
99.93002255618374
 20
-1.671013453559377
 30
0.0
  0
VERTEX
  5
566
  8
TRACES
 10
101.5899774438163
 20
-1.671013453559377
 30
0.0
 42
-0.9999999999999999
  0
SEQEND
  5
567
  8
TRACES
  0
POLYLINE
  5
568
  8
TRACES
 66
     1
 10
0.0
 20
0.0
 30
0.0
 70
     1
  0
VERTEX
  5
569
  8
TRACES
 10
101.5899774438163
 20
-0.8689865464406248
 30
0.0
  0
VERTEX
  5
56A
  8
TRACES
 10
99.93002255618374
 20
-0.8689865464406248
 30
0.0
 42
-1.000000000000001
  0
VERTEX
  5
56B
  8
TRACES
 10
99.93002255618374
 20
0.868986546440623
 30
0.0
  0
VERTEX
  5
56C
  8
TRACES
 10
101.5899774438163
 20
0.868986546440623
 30
0.0
 42
-0.9999999999999988
  0
SEQEND
  5
56D
  8
TRACES
  0
CIRCLE
  5
56E
  8
HOLES
 10
-100.76
 20
-0.0000000000000008
 30
0.0
 40
0.5
210
0.0
220
0.0
230
-1.0
  0
CIRCLE
  5
56F
  8
HOLES
 10
-100.76
 20
2.539999999999999
 30
0.0
 40
0.5
210
0.0
220
0.0
230
-1.0
  0
POLYLINE
  5
570
  8
TRACES
 66
     1
 10
0.0
 20
0.0
 30
0.0
 70
     1
  0
VERTEX
  5
571
  8
TRACES
 10
101.5899774438163
 20
1.671013453559375
 30
0.0
  0
VERTEX
  5
572
  8
TRACES
 10
99.93002255618374
 20
1.671013453559375
 30
0.0
 42
-0.9999999999999999
  0
VERTEX
  5
573
  8
TRACES
 10
99.93002255618374
 20
3.408986546440623
 30
0.0
  0
VERTEX
  5
574
  8
TRACES
 10
101.5899774438163
 20
3.408986546440623
 30
0.0
 42
-0.9999999999999999
  0
SEQEND
  5
575
  8
TRACES
  0
CIRCLE
  5
576
  8
HOLES
 10
-72.46000000000001
 20
-21.0
 30
0.0
 40
0.5
210
0.0
220
0.0
230
-1.0
  0
CIRCLE
  5
577
  8
HOLES
 10
-77.53999999999999
 20
-21.0
 30
0.0
 40
0.5
210
0.0
220
0.0
230
-1.0
  0
CIRCLE
  5
578
  8
HOLES
 10
-75.0
 20
-21.0
 30
0.0
 40
0.5
210
0.0
220
0.0
230
-1.0
  0
POLYLINE
  5
579
  8
TRACES
 66
     1
 10
0.0
 20
0.0
 30
0.0
 70
     1
  0
VERTEX
  5
57A
  8
TRACES
 10
62.20997744381626
 20
3.401013453559369
 30
0.0
  0
VERTEX
  5
57B
  8
TRACES
 10
60.55002255618374
 20
3.401013453559369
 30
0.0
 42
-0.9999999999999999
  0
VERTEX
  5
57C
  8
TRACES
 10
60.55002255618374
 20
5.138986546440616
 30
0.0
  0
VERTEX
  5
57D
  8
TRACES
 10
62.20997744381626
 20
5.138986546440616
 30
0.0
 42
-0.9999999999999999
  0
SEQEND
  5
57E
  8
TRACES
  0
POLYLINE
  5
57F
  8
TRACES
 66
     1
 10
0.0
 20
0.0
 30
0.0
 70
     1
  0
VERTEX
  5
580
  8
TRACES
 10
77.44997744381627
 20
-11.83898654644062
 30
0.0
  0
VERTEX
  5
581
  8
TRACES
 10
75.79002255618373
 20
-11.83898654644062
 30
0.0
 42
-0.9999999999999999
  0
VERTEX
  5
582
  8
TRACES
 10
75.79002255618373
 20
-10.10101345355937
 30
0.0
  0
VERTEX
  5
583
  8
TRACES
 10
77.44997744381627
 20
-10.10101345355937
 30
0.0
 42
-0.9999999999999999
  0
SEQEND
  5
584
  8
TRACES
  0
POLYLINE
  5
585
  8
TRACES
 66
     1
 10
0.0
 20
0.0
 30
0.0
 70
     1
  0
VERTEX
  5
586
  8
TRACES
 10
77.44997744381627
 20
8.481013453559374
 30
0.0
  0
VERTEX
  5
587
  8
TRACES
 10
75.79002255618373
 20
8.481013453559374
 30
0.0
 42
-0.9999999999999999
  0
VERTEX
  5
588
  8
TRACES
 10
75.79002255618373
 20
10.21898654644062
 30
0.0
  0
VERTEX
  5
589
  8
TRACES
 10
77.44997744381627
 20
10.21898654644062
 30
0.0
 42
-0.9999999999999999
  0
SEQEND
  5
58A
  8
TRACES
  0
POLYLINE
  5
58B
  8
TRACES
 66
     1
 10
0.0
 20
0.0
 30
0.0
 70
     1
  0
VERTEX
  5
58C
  8
TRACES
 10
77.44997744381627
 20
16.10101345355937
 30
0.0
  0
VERTEX
  5
58D
  8
TRACES
 10
75.79002255618373
 20
16.10101345355937
 30
0.0
 42
-0.9999999999999999
  0
VERTEX
  5
58E
  8
TRACES
 10
75.79002255618373
 20
17.83898654644062
 30
0.0
  0
VERTEX
  5
58F
  8
TRACES
 10
77.44997744381627
 20
17.83898654644062
 30
0.0
 42
-0.9999999999999999
  0
SEQEND
  5
590
  8
TRACES
  0
CIRCLE
  5
591
  8
HOLES
 10
-61.38
 20
4.269999999999992
 30
0.0
 40
0.43
210
0.0
220
0.0
230
-1.0
  0
CIRCLE
  5
592
  8
HOLES
 10
-61.38
 20
9.34999999999999
 30
0.0
 40
0.43
210
0.0
220
0.0
230
-1.0
  0
CIRCLE
  5
593
  8
HOLES
 10
-61.38
 20
14.42999999999999
 30
0.0
 40
0.43
210
0.0
220
0.0
230
-1.0
  0
CIRCLE
  5
594
  8
HOLES
 10
-76.62
 20
-10.97
 30
0.0
 40
0.43
210
0.0
220
0.0
230
-1.0
  0
CIRCLE
  5
595
  8
HOLES
 10
-76.62
 20
-5.889999999999997
 30
0.0
 40
0.43
210
0.0
220
0.0
230
-1.0
  0
CIRCLE
  5
596
  8
HOLES
 10
-76.62
 20
-0.8099999999999987
 30
0.0
 40
0.43
210
0.0
220
0.0
230
-1.0
  0
CIRCLE
  5
597
  8
HOLES
 10
-76.62
 20
9.349999999999998
 30
0.0
 40
0.43
210
0.0
220
0.0
230
-1.0
  0
CIRCLE
  5
598
  8
HOLES
 10
-76.62
 20
16.97
 30
0.0
 40
0.43
210
0.0
220
0.0
230
-1.0
  0
POLYLINE
  5
599
  8
HOLES
 66
     1
 10
0.0
 20
0.0
 30
0.0
 70
     1
  0
VERTEX
  5
59A
  8
HOLES
 10
55.29565217391305
 20
-1.349999999999996
 30
0.0
  0
VERTEX
  5
59B
  8
HOLES
 10
55.29565217391305
 20
1.350000000000005
 30
0.0
 42
-0.9999999999999977
  0
VERTEX
  5
59C
  8
HOLES
 10
55.59565217391303
 20
1.350000000000005
 30
0.0
  0
VERTEX
  5
59D
  8
HOLES
 10
55.59565217391305
 20
-1.349999999999998
 30
0.0
 42
-1.000000000000024
  0
SEQEND
  5
59E
  8
HOLES
  0
POLYLINE
  5
59F
  8
HOLES
 66
     1
 10
0.0
 20
0.0
 30
0.0
 70
     1
  0
VERTEX
  5
5A0
  8
HOLES
 10
49.29565217391305
 20
-1.349999999999991
 30
0.0
  0
VERTEX
  5
5A1
  8
HOLES
 10
49.29565217391306
 20
1.350000000000012
 30
0.0
 42
-0.9999999999999977
  0
VERTEX
  5
5A2
  8
HOLES
 10
49.59565217391304
 20
1.350000000000012
 30
0.0
  0
VERTEX
  5
5A3
  8
HOLES
 10
49.59565217391305
 20
-1.349999999999993
 30
0.0
 42
-1.00000000000001
  0
SEQEND
  5
5A4
  8
HOLES
  0
ENDSEC
  0
EOF
