ISO-10303-21;
HEADER;
/* Generated by software containing ST-Developer
 * from STEP Tools, Inc. (www.steptools.com) 
 */
/* OPTION: using custom schema-name function */

FILE_DESCRIPTION(
/* description */ (''),
/* implementation_level */ '2;1');

FILE_NAME(
/* name */ 'M3_PIL~1',
/* time_stamp */ '2026-05-25T17:57:52+03:00',
/* author */ (''),
/* organization */ (''),
/* preprocessor_version */ 'ST-DEVELOPER v16.5',
/* originating_system */ '',
/* authorisation */ '');

FILE_SCHEMA (('CONFIG_CONTROL_DESIGN'));
ENDSEC;

DATA;
#10=SHAPE_REPRESENTATION_RELATIONSHIP('','',#144,#12);
#11=MANIFOLD_SOLID_BREP('brep_1',#13);
#12=ADVANCED_BREP_SHAPE_REPRESENTATION('brep_rep_0',(#11,#149),#143);
#13=CLOSED_SHELL('',(#14,#15,#16,#17));
#14=ADVANCED_FACE('',(#18),#57,.F.);
#15=ADVANCED_FACE('',(#19),#56,.T.);
#16=ADVANCED_FACE('',(#20),#54,.T.);
#17=ADVANCED_FACE('',(#21),#55,.T.);
#18=FACE_OUTER_BOUND('',#22,.T.);
#19=FACE_OUTER_BOUND('',#23,.T.);
#20=FACE_OUTER_BOUND('',#24,.T.);
#21=FACE_OUTER_BOUND('',#25,.T.);
#22=EDGE_LOOP('',(#26,#27,#28,#29));
#23=EDGE_LOOP('',(#30,#31,#32,#33));
#24=EDGE_LOOP('',(#34,#35));
#25=EDGE_LOOP('',(#36,#37));
#26=ORIENTED_EDGE('',*,*,#38,.T.);
#27=ORIENTED_EDGE('',*,*,#39,.T.);
#28=ORIENTED_EDGE('',*,*,#40,.F.);
#29=ORIENTED_EDGE('',*,*,#41,.F.);
#30=ORIENTED_EDGE('',*,*,#42,.T.);
#31=ORIENTED_EDGE('',*,*,#41,.T.);
#32=ORIENTED_EDGE('',*,*,#43,.F.);
#33=ORIENTED_EDGE('',*,*,#39,.F.);
#34=ORIENTED_EDGE('',*,*,#42,.F.);
#35=ORIENTED_EDGE('',*,*,#38,.F.);
#36=ORIENTED_EDGE('',*,*,#40,.T.);
#37=ORIENTED_EDGE('',*,*,#43,.T.);
#38=EDGE_CURVE('',#50,#51,#44,.T.);
#39=EDGE_CURVE('',#51,#52,#45,.T.);
#40=EDGE_CURVE('',#53,#52,#46,.T.);
#41=EDGE_CURVE('',#50,#53,#47,.T.);
#42=EDGE_CURVE('',#51,#50,#48,.T.);
#43=EDGE_CURVE('',#52,#53,#49,.T.);
#44=(
BOUNDED_CURVE()
B_SPLINE_CURVE(2,(#219,#220,#221,#222,#223,#224,#225),.UNSPECIFIED.,.F.,
 .F.)
B_SPLINE_CURVE_WITH_KNOTS((3,2,2,3),(87.0157122459535,89.0173542387326,
91.4913584534346,93.4930004459578),.UNSPECIFIED.)
CURVE()
GEOMETRIC_REPRESENTATION_ITEM()
RATIONAL_B_SPLINE_CURVE((1.,0.800087066025289,1.,0.707106781186548,1.,0.800087066073541,
1.))
REPRESENTATION_ITEM('')
);
#45=(
BOUNDED_CURVE()
B_SPLINE_CURVE(1,(#226,#227),.UNSPECIFIED.,.F.,.F.)
B_SPLINE_CURVE_WITH_KNOTS((2,2),(0.,30.),.UNSPECIFIED.)
CURVE()
GEOMETRIC_REPRESENTATION_ITEM()
RATIONAL_B_SPLINE_CURVE((1.,1.))
REPRESENTATION_ITEM('')
);
#46=(
BOUNDED_CURVE()
B_SPLINE_CURVE(2,(#228,#229,#230,#231,#232,#233,#234),.UNSPECIFIED.,.F.,
 .F.)
B_SPLINE_CURVE_WITH_KNOTS((3,2,2,3),(87.0157122459535,89.0173542387326,
91.4913584534346,93.4930004459578),.UNSPECIFIED.)
CURVE()
GEOMETRIC_REPRESENTATION_ITEM()
RATIONAL_B_SPLINE_CURVE((1.,0.800087066025289,1.,0.707106781186548,1.,0.800087066073541,
1.))
REPRESENTATION_ITEM('')
);
#47=(
BOUNDED_CURVE()
B_SPLINE_CURVE(1,(#235,#236),.UNSPECIFIED.,.F.,.F.)
B_SPLINE_CURVE_WITH_KNOTS((2,2),(0.,30.),.UNSPECIFIED.)
CURVE()
GEOMETRIC_REPRESENTATION_ITEM()
RATIONAL_B_SPLINE_CURVE((1.,1.))
REPRESENTATION_ITEM('')
);
#48=(
BOUNDED_CURVE()
B_SPLINE_CURVE(2,(#237,#238,#239,#240,#241,#242,#243,#244,#245,#246,#247,
#248,#249,#250,#251,#252,#253,#254,#255,#256,#257,#258,#259,#260,#261,#262,
#263),.UNSPECIFIED.,.F.,.F.)
B_SPLINE_CURVE_WITH_KNOTS((3,2,2,2,2,2,2,2,2,2,2,2,2,3),(93.4930004459578,
93.7218408654043,93.9430374598778,94.565678599162,94.8741138764455,95.184612118298,
98.6400005830516,103.077500206247,106.532888671455,106.843386913307,107.17844611866,
107.801087257944,108.022283852417,108.251124271864),.UNSPECIFIED.)
CURVE()
GEOMETRIC_REPRESENTATION_ITEM()
RATIONAL_B_SPLINE_CURVE((1.,0.88515476699855,0.909510121990254,0.922168616902812,
0.965895603419122,0.857559657358495,1.,0.98250321980204,0.965341760516798,
0.83894002277032,0.965341760516798,0.828851659659903,1.07373918989226,0.759248262398566,
1.07373918989226,0.828851659627734,0.965341760552658,0.838940022801503,
0.965341760552658,0.982503219820289,1.,0.859059953557288,0.969278218522579,
0.925398097894757,0.912695272294784,0.886703340699417,1.))
REPRESENTATION_ITEM('')
);
#49=(
BOUNDED_CURVE()
B_SPLINE_CURVE(2,(#264,#265,#266,#267,#268,#269,#270,#271,#272,#273,#274,
#275,#276,#277,#278,#279,#280,#281,#282,#283,#284,#285,#286,#287,#288,#289,
#290),.UNSPECIFIED.,.F.,.F.)
B_SPLINE_CURVE_WITH_KNOTS((3,2,2,2,2,2,2,2,2,2,2,2,2,3),(93.4930004459578,
93.7218408654043,93.9430374598778,94.565678599162,94.8741138764455,95.184612118298,
98.6400005830516,103.077500206247,106.532888671455,106.843386913307,107.17844611866,
107.801087257944,108.022283852417,108.251124271864),.UNSPECIFIED.)
CURVE()
GEOMETRIC_REPRESENTATION_ITEM()
RATIONAL_B_SPLINE_CURVE((1.,0.88515476699855,0.909510121990254,0.922168616902812,
0.965895603419122,0.857559657358495,1.,0.98250321980204,0.965341760516798,
0.83894002277032,0.965341760516798,0.828851659659903,1.07373918989226,0.759248262398566,
1.07373918989226,0.828851659627734,0.965341760552658,0.838940022801503,
0.965341760552658,0.982503219820289,1.,0.859059953557288,0.969278218522579,
0.925398097894757,0.912695272294784,0.886703340699417,1.))
REPRESENTATION_ITEM('')
);
#50=VERTEX_POINT('',#215);
#51=VERTEX_POINT('',#216);
#52=VERTEX_POINT('',#217);
#53=VERTEX_POINT('',#218);
#54=PLANE('',#147);
#55=PLANE('',#148);
#56=(
BOUNDED_SURFACE()
B_SPLINE_SURFACE(2,1,((#159,#160),(#161,#162),(#163,#164),(#165,#166),(#167,
#168),(#169,#170),(#171,#172),(#173,#174),(#175,#176),(#177,#178),(#179,
#180),(#181,#182),(#183,#184),(#185,#186),(#187,#188),(#189,#190),(#191,
#192),(#193,#194),(#195,#196),(#197,#198),(#199,#200),(#201,#202),(#203,
#204),(#205,#206),(#207,#208),(#209,#210),(#211,#212)),.UNSPECIFIED.,.F.,
 .F.,.F.)
B_SPLINE_SURFACE_WITH_KNOTS((3,2,2,2,2,2,2,2,2,2,2,2,2,3),(2,2),(93.4930004459578,
93.7218408654043,93.9430374598778,94.565678599162,94.8741138764455,95.184612118298,
98.6400005830516,103.077500206247,106.532888671455,106.843386913307,107.17844611866,
107.801087257944,108.022283852417,108.251124271864),(0.,30.),
 .UNSPECIFIED.)
GEOMETRIC_REPRESENTATION_ITEM()
RATIONAL_B_SPLINE_SURFACE(((1.,1.),(0.88515476699855,0.88515476699855),
(0.909510121990254,0.909510121990254),(0.922168616902812,0.922168616902812),
(0.965895603419122,0.965895603419122),(0.857559657358495,0.857559657358495),
(1.,1.),(0.98250321980204,0.98250321980204),(0.965341760516798,0.965341760516798),
(0.83894002277032,0.83894002277032),(0.965341760516798,0.965341760516798),
(0.828851659659903,0.828851659659903),(1.07373918989226,1.07373918989226),
(0.759248262398566,0.759248262398566),(1.07373918989226,1.07373918989226),
(0.828851659627734,0.828851659627734),(0.965341760552658,0.965341760552658),
(0.838940022801503,0.838940022801503),(0.965341760552658,0.965341760552658),
(0.982503219820289,0.982503219820289),(1.,1.),(0.859059953557288,0.859059953557288),
(0.969278218522579,0.969278218522579),(0.925398097894757,0.925398097894757),
(0.912695272294784,0.912695272294784),(0.886703340699417,0.886703340699417),
(1.,1.)))
REPRESENTATION_ITEM('')
SURFACE()
);
#57=CYLINDRICAL_SURFACE('',#146,1.57499999999989);
#58=SHAPE_DEFINITION_REPRESENTATION(#59,#144);
#59=PRODUCT_DEFINITION_SHAPE('Document','',#61);
#60=PRODUCT_DEFINITION_CONTEXT('3D Mechanical Parts',#133,'design');
#61=PRODUCT_DEFINITION('A','First version',#103,#60);
#62=DATE_TIME_ROLE('classification_date');
#63=DATE_TIME_ROLE('creation_date');
#64=APPLIED_DATE_AND_TIME_ASSIGNMENT(#88,#62,(#67));
#65=APPLIED_DATE_AND_TIME_ASSIGNMENT(#90,#63,(#61));
#66=SECURITY_CLASSIFICATION_LEVEL('unclassified');
#67=SECURITY_CLASSIFICATION('A','Security for version',#66);
#68=APPLIED_SECURITY_CLASSIFICATION_ASSIGNMENT(#67,(#103));
#69=APPROVAL_ROLE('Version approval');
#70=APPROVAL_ROLE('Version Security approval');
#71=APPROVAL_ROLE('Definition approval');
#72=APPROVAL_PERSON_ORGANIZATION(#121,#97,#69);
#73=APPROVAL_PERSON_ORGANIZATION(#122,#98,#70);
#74=APPROVAL_PERSON_ORGANIZATION(#125,#99,#71);
#75=COORDINATED_UNIVERSAL_TIME_OFFSET(5,0,.BEHIND.);
#76=LOCAL_TIME(0,0,0.,#75);
#77=LOCAL_TIME(0,0,0.,#75);
#78=LOCAL_TIME(0,0,0.,#75);
#79=LOCAL_TIME(0,0,0.,#75);
#80=LOCAL_TIME(0,0,0.,#75);
#81=CALENDAR_DATE(1999,1,1);
#82=CALENDAR_DATE(1999,1,1);
#83=CALENDAR_DATE(1999,1,1);
#84=CALENDAR_DATE(1999,1,1);
#85=CALENDAR_DATE(1999,1,1);
#86=DATE_AND_TIME(#81,#76);
#87=DATE_AND_TIME(#82,#77);
#88=DATE_AND_TIME(#83,#78);
#89=DATE_AND_TIME(#84,#79);
#90=DATE_AND_TIME(#85,#80);
#91=APPROVAL_DATE_TIME(#86,#97);
#92=APPROVAL_DATE_TIME(#87,#98);
#93=APPROVAL_DATE_TIME(#89,#99);
#94=APPROVAL_STATUS('not_yet_approved');
#95=APPROVAL_STATUS('not_yet_approved');
#96=APPROVAL_STATUS('approved');
#97=APPROVAL(#94,'Version approval');
#98=APPROVAL(#95,'Version Security approval');
#99=APPROVAL(#96,'Definition approval');
#100=APPLIED_APPROVAL_ASSIGNMENT(#97,(#103));
#101=APPLIED_APPROVAL_ASSIGNMENT(#98,(#67));
#102=APPLIED_APPROVAL_ASSIGNMENT(#99,(#61));
#103=PRODUCT_DEFINITION_FORMATION_WITH_SPECIFIED_SOURCE('A',
'First version',#135,.MADE.);
#104=PERSON_AND_ORGANIZATION_ROLE('design_owner');
#105=PERSON_AND_ORGANIZATION_ROLE('creator');
#106=PERSON_AND_ORGANIZATION_ROLE('design_supplier');
#107=PERSON_AND_ORGANIZATION_ROLE('classification_officer');
#108=PERSON_AND_ORGANIZATION_ROLE('creator');
#109=ORGANIZATION('STI','lab','lab');
#110=ORGANIZATION('STI','unknown','unknown');
#111=ORGANIZATION('STI','unknown','unknown');
#112=ORGANIZATION('STI','unknown','unknown');
#113=ORGANIZATION('STI','unknown','unknown');
#114=ORGANIZATION('STI','unknown','unknown');
#115=ORGANIZATION('STI','unknown','unknown');
#116=PERSON('1','Box','vc60',$,$,$);
#117=PERSON('2','last','first',$,$,$);
#118=PERSON('3','President','Mr.',$,$,$);
#119=PERSON_AND_ORGANIZATION(#116,#109);
#120=PERSON_AND_ORGANIZATION(#117,#110);
#121=PERSON_AND_ORGANIZATION(#118,#111);
#122=PERSON_AND_ORGANIZATION(#118,#112);
#123=PERSON_AND_ORGANIZATION(#118,#113);
#124=PERSON_AND_ORGANIZATION(#117,#114);
#125=PERSON_AND_ORGANIZATION(#118,#115);
#126=APPLIED_PERSON_AND_ORGANIZATION_ASSIGNMENT(#119,#104,(#135));
#127=APPLIED_PERSON_AND_ORGANIZATION_ASSIGNMENT(#120,#105,(#103));
#128=APPLIED_PERSON_AND_ORGANIZATION_ASSIGNMENT(#120,#106,(#103));
#129=APPLIED_PERSON_AND_ORGANIZATION_ASSIGNMENT(#123,#107,(#67));
#130=APPLIED_PERSON_AND_ORGANIZATION_ASSIGNMENT(#124,#108,(#61));
#131=PRODUCT_RELATED_PRODUCT_CATEGORY('detail','detail',(#135));
#132=APPLICATION_PROTOCOL_DEFINITION('International Standard',
'config_control_design',1994,#133);
#133=APPLICATION_CONTEXT(
'configuration controlled 3d designs of mechanical parts and assemblie
s');
#134=PRODUCT_CONTEXT('3D Mechanical Parts',#133,'mechanical');
#135=PRODUCT('Document','Document','',(#134));
#136=(
LENGTH_UNIT()
NAMED_UNIT(*)
SI_UNIT(.MILLI.,.METRE.)
);
#137=(
NAMED_UNIT(*)
PLANE_ANGLE_UNIT()
SI_UNIT($,.RADIAN.)
);
#138=DIMENSIONAL_EXPONENTS(0.,0.,0.,0.,0.,0.,0.);
#139=PLANE_ANGLE_MEASURE_WITH_UNIT(PLANE_ANGLE_MEASURE(0.01745329252),#137);
#140=(
CONVERSION_BASED_UNIT('DEGREES',#139)
NAMED_UNIT(#138)
PLANE_ANGLE_UNIT()
);
#141=(
NAMED_UNIT(*)
SI_UNIT($,.STERADIAN.)
SOLID_ANGLE_UNIT()
);
#142=UNCERTAINTY_MEASURE_WITH_UNIT(LENGTH_MEASURE(0.001),#136,
'DISTANCE_ACCURACY_VALUE',
'Maximum model space distance between geometric entities at asserted c
onnectivities');
#143=(
GEOMETRIC_REPRESENTATION_CONTEXT(3)
GLOBAL_UNCERTAINTY_ASSIGNED_CONTEXT((#142))
GLOBAL_UNIT_ASSIGNED_CONTEXT((#141,#140,#136))
REPRESENTATION_CONTEXT('ID1','3D')
);
#144=SHAPE_REPRESENTATION('Document',(#145,#149),#143);
#145=AXIS2_PLACEMENT_3D('',#157,#150,#151);
#146=AXIS2_PLACEMENT_3D('',#158,#152,$);
#147=AXIS2_PLACEMENT_3D('',#213,#153,$);
#148=AXIS2_PLACEMENT_3D('',#214,#154,$);
#149=AXIS2_PLACEMENT_3D('',#291,#155,#156);
#150=DIRECTION('',(0.,0.,1.));
#151=DIRECTION('',(1.,0.,0.));
#152=DIRECTION('',(-5.3864587211479E-16,5.38645872028137E-16,-1.));
#153=DIRECTION('',(0.,0.,-1.));
#154=DIRECTION('',(0.,0.,1.));
#155=DIRECTION('',(0.,0.,1.));
#156=DIRECTION('',(1.,0.,0.));
#157=CARTESIAN_POINT('',(0.,0.,0.));
#158=CARTESIAN_POINT('',(1532.26167029705,2026.73832969994,15.));
#159=CARTESIAN_POINT('',(1530.74979836025,2026.29689086305,-9.50909898372306E-16));
#160=CARTESIAN_POINT('',(1530.74979836025,2026.29689086305,30.));
#161=CARTESIAN_POINT('',(1530.71607766437,2026.41237996262,-9.58896563539282E-16));
#162=CARTESIAN_POINT('',(1530.71607766437,2026.41237996262,30.));
#163=CARTESIAN_POINT('',(1530.61190375279,2026.47256811425,-9.83569902247853E-16));
#164=CARTESIAN_POINT('',(1530.61190375279,2026.47256811425,30.));
#165=CARTESIAN_POINT('',(1530.51589719642,2026.52803744516,-1.00630882265343E-15));
#166=CARTESIAN_POINT('',(1530.51589719642,2026.52803744516,30.));
#167=CARTESIAN_POINT('',(1530.40651159888,2026.54617295146,-1.03221653656266E-15));
#168=CARTESIAN_POINT('',(1530.40651159888,2026.54617295146,30.));
#169=CARTESIAN_POINT('',(1530.06961205661,2026.60202896825,-1.11201037737668E-15));
#170=CARTESIAN_POINT('',(1530.06961205661,2026.60202896825,30.));
#171=CARTESIAN_POINT('',(1529.84588147147,2026.3440254383,-1.16500042472341E-15));
#172=CARTESIAN_POINT('',(1529.84588147147,2026.3440254383,30.));
#173=CARTESIAN_POINT('',(1529.74501889455,2026.2277118781,-1.18888948183632E-15));
#174=CARTESIAN_POINT('',(1529.74501889455,2026.2277118781,30.));
#175=CARTESIAN_POINT('',(1529.64544145165,2026.11029622081,-1.21247415806816E-15));
#176=CARTESIAN_POINT('',(1529.64544145165,2026.11029622081,30.));
#177=CARTESIAN_POINT('',(1529.53498614944,2025.98005405418,-1.23863522893901E-15));
#178=CARTESIAN_POINT('',(1529.53498614944,2025.98005405418,30.));
#179=CARTESIAN_POINT('',(1529.59058524328,2025.81858536831,-1.22546671819047E-15));
#180=CARTESIAN_POINT('',(1529.59058524328,2025.81858536831,30.));
#181=CARTESIAN_POINT('',(1530.2466287859,2023.91332969994,-1.07008439367504E-15));
#182=CARTESIAN_POINT('',(1530.2466287859,2023.91332969994,30.));
#183=CARTESIAN_POINT('',(1532.26167029705,2023.91332969994,-5.92826691007846E-16));
#184=CARTESIAN_POINT('',(1532.26167029705,2023.91332969994,30.));
#185=CARTESIAN_POINT('',(1535.08667029705,2023.91332969994,7.62677184995822E-17));
#186=CARTESIAN_POINT('',(1535.08667029705,2023.91332969994,30.));
#187=CARTESIAN_POINT('',(1535.08667029705,2026.73832969994,7.62677184995813E-17));
#188=CARTESIAN_POINT('',(1535.08667029705,2026.73832969994,30.));
#189=CARTESIAN_POINT('',(1535.08667029705,2028.75337121143,7.62677184995829E-17));
#190=CARTESIAN_POINT('',(1535.08667029705,2028.75337121143,30.));
#191=CARTESIAN_POINT('',(1533.18141462825,2029.40941475385,-3.7498747324365E-16));
#192=CARTESIAN_POINT('',(1533.18141462825,2029.40941475385,30.));
#193=CARTESIAN_POINT('',(1533.01994594237,2029.46501384767,-4.132309405127E-16));
#194=CARTESIAN_POINT('',(1533.01994594237,2029.46501384767,30.));
#195=CARTESIAN_POINT('',(1532.88970377576,2029.35455854544,-4.44078482303928E-16));
#196=CARTESIAN_POINT('',(1532.88970377576,2029.35455854544,30.));
#197=CARTESIAN_POINT('',(1532.77228811849,2029.25498110252,-4.71888096416638E-16));
#198=CARTESIAN_POINT('',(1532.77228811849,2029.25498110252,30.));
#199=CARTESIAN_POINT('',(1532.6559745583,2029.15411852558,-4.99436681503958E-16));
#200=CARTESIAN_POINT('',(1532.6559745583,2029.15411852558,30.));
#201=CARTESIAN_POINT('',(1532.39797102838,2028.9303879404,-5.60544192830707E-16));
#202=CARTESIAN_POINT('',(1532.39797102838,2028.9303879404,30.));
#203=CARTESIAN_POINT('',(1532.45382704523,2028.59348839814,-5.47314830492162E-16));
#204=CARTESIAN_POINT('',(1532.45382704523,2028.59348839814,30.));
#205=CARTESIAN_POINT('',(1532.47196255155,2028.4841028006,-5.43019479733604E-16));
#206=CARTESIAN_POINT('',(1532.47196255155,2028.4841028006,30.));
#207=CARTESIAN_POINT('',(1532.52743188247,2028.38809624424,-5.29881703019442E-16));
#208=CARTESIAN_POINT('',(1532.52743188247,2028.38809624424,30.));
#209=CARTESIAN_POINT('',(1532.58762003412,2028.28392233267,-5.15626285041628E-16));
#210=CARTESIAN_POINT('',(1532.58762003412,2028.28392233267,30.));
#211=CARTESIAN_POINT('',(1532.70310913369,2028.25020163681,-4.88272971454109E-16));
#212=CARTESIAN_POINT('',(1532.70310913369,2028.25020163681,30.));
#213=CARTESIAN_POINT('',(1528.88518654277,2030.11481345437,-1.3925386923465E-15));
#214=CARTESIAN_POINT('',(1528.88518654277,2030.11481345437,30.));
#215=CARTESIAN_POINT('',(1532.70310913369,2028.25020163681,-4.88272971454109E-16));
#216=CARTESIAN_POINT('',(1530.74979836025,2026.29689086305,-9.50909898372306E-16));
#217=CARTESIAN_POINT('',(1530.74979836025,2026.29689086305,30.));
#218=CARTESIAN_POINT('',(1532.70310913369,2028.25020163681,30.));
#219=CARTESIAN_POINT('',(1532.70310913369,2028.25020163681,-4.88272971454109E-16));
#220=CARTESIAN_POINT('',(1533.83667029705,2027.91922259751,-2.19791754733793E-16));
#221=CARTESIAN_POINT('',(1533.83667029705,2026.73832969994,-2.19791754733793E-16));
#222=CARTESIAN_POINT('',(1533.83667029705,2025.16332969994,-2.19791754733793E-16));
#223=CARTESIAN_POINT('',(1532.26167029705,2025.16332969994,-5.92826691007846E-16));
#224=CARTESIAN_POINT('',(1531.08077739968,2025.16332969994,-8.72518314319904E-16));
#225=CARTESIAN_POINT('',(1530.74979836025,2026.29689086305,-9.50909898372306E-16));
#226=CARTESIAN_POINT('',(1530.74979836025,2026.29689086305,-9.50909898372306E-16));
#227=CARTESIAN_POINT('',(1530.74979836025,2026.29689086305,30.));
#228=CARTESIAN_POINT('',(1532.70310913369,2028.25020163681,30.));
#229=CARTESIAN_POINT('',(1533.83667029705,2027.91922259751,30.));
#230=CARTESIAN_POINT('',(1533.83667029705,2026.73832969994,30.));
#231=CARTESIAN_POINT('',(1533.83667029705,2025.16332969994,30.));
#232=CARTESIAN_POINT('',(1532.26167029705,2025.16332969994,30.));
#233=CARTESIAN_POINT('',(1531.08077739968,2025.16332969994,30.));
#234=CARTESIAN_POINT('',(1530.74979836025,2026.29689086305,30.));
#235=CARTESIAN_POINT('',(1532.70310913369,2028.25020163681,-4.88272971454109E-16));
#236=CARTESIAN_POINT('',(1532.70310913369,2028.25020163681,30.));
#237=CARTESIAN_POINT('',(1530.74979836025,2026.29689086305,-9.50909898372306E-16));
#238=CARTESIAN_POINT('',(1530.71607766437,2026.41237996262,-9.58896563539282E-16));
#239=CARTESIAN_POINT('',(1530.61190375279,2026.47256811425,-9.83569902247853E-16));
#240=CARTESIAN_POINT('',(1530.51589719642,2026.52803744516,-1.00630882265343E-15));
#241=CARTESIAN_POINT('',(1530.40651159888,2026.54617295146,-1.03221653656266E-15));
#242=CARTESIAN_POINT('',(1530.06961205661,2026.60202896825,-1.11201037737668E-15));
#243=CARTESIAN_POINT('',(1529.84588147147,2026.3440254383,-1.16500042472341E-15));
#244=CARTESIAN_POINT('',(1529.74501889455,2026.2277118781,-1.18888948183632E-15));
#245=CARTESIAN_POINT('',(1529.64544145165,2026.11029622081,-1.21247415806816E-15));
#246=CARTESIAN_POINT('',(1529.53498614944,2025.98005405418,-1.23863522893901E-15));
#247=CARTESIAN_POINT('',(1529.59058524328,2025.81858536831,-1.22546671819047E-15));
#248=CARTESIAN_POINT('',(1530.2466287859,2023.91332969994,-1.07008439367504E-15));
#249=CARTESIAN_POINT('',(1532.26167029705,2023.91332969994,-5.92826691007846E-16));
#250=CARTESIAN_POINT('',(1535.08667029705,2023.91332969994,7.62677184995822E-17));
#251=CARTESIAN_POINT('',(1535.08667029705,2026.73832969994,7.62677184995813E-17));
#252=CARTESIAN_POINT('',(1535.08667029705,2028.75337121143,7.62677184995829E-17));
#253=CARTESIAN_POINT('',(1533.18141462825,2029.40941475385,-3.7498747324365E-16));
#254=CARTESIAN_POINT('',(1533.01994594237,2029.46501384767,-4.132309405127E-16));
#255=CARTESIAN_POINT('',(1532.88970377576,2029.35455854544,-4.44078482303928E-16));
#256=CARTESIAN_POINT('',(1532.77228811849,2029.25498110252,-4.71888096416638E-16));
#257=CARTESIAN_POINT('',(1532.6559745583,2029.15411852558,-4.99436681503958E-16));
#258=CARTESIAN_POINT('',(1532.39797102838,2028.9303879404,-5.60544192830707E-16));
#259=CARTESIAN_POINT('',(1532.45382704523,2028.59348839814,-5.47314830492162E-16));
#260=CARTESIAN_POINT('',(1532.47196255155,2028.4841028006,-5.43019479733604E-16));
#261=CARTESIAN_POINT('',(1532.52743188247,2028.38809624424,-5.29881703019442E-16));
#262=CARTESIAN_POINT('',(1532.58762003412,2028.28392233267,-5.15626285041628E-16));
#263=CARTESIAN_POINT('',(1532.70310913369,2028.25020163681,-4.88272971454109E-16));
#264=CARTESIAN_POINT('',(1530.74979836025,2026.29689086305,30.));
#265=CARTESIAN_POINT('',(1530.71607766437,2026.41237996262,30.));
#266=CARTESIAN_POINT('',(1530.61190375279,2026.47256811425,30.));
#267=CARTESIAN_POINT('',(1530.51589719642,2026.52803744516,30.));
#268=CARTESIAN_POINT('',(1530.40651159888,2026.54617295146,30.));
#269=CARTESIAN_POINT('',(1530.06961205661,2026.60202896825,30.));
#270=CARTESIAN_POINT('',(1529.84588147147,2026.3440254383,30.));
#271=CARTESIAN_POINT('',(1529.74501889455,2026.2277118781,30.));
#272=CARTESIAN_POINT('',(1529.64544145165,2026.11029622081,30.));
#273=CARTESIAN_POINT('',(1529.53498614944,2025.98005405418,30.));
#274=CARTESIAN_POINT('',(1529.59058524328,2025.81858536831,30.));
#275=CARTESIAN_POINT('',(1530.2466287859,2023.91332969994,30.));
#276=CARTESIAN_POINT('',(1532.26167029705,2023.91332969994,30.));
#277=CARTESIAN_POINT('',(1535.08667029705,2023.91332969994,30.));
#278=CARTESIAN_POINT('',(1535.08667029705,2026.73832969994,30.));
#279=CARTESIAN_POINT('',(1535.08667029705,2028.75337121143,30.));
#280=CARTESIAN_POINT('',(1533.18141462825,2029.40941475385,30.));
#281=CARTESIAN_POINT('',(1533.01994594237,2029.46501384767,30.));
#282=CARTESIAN_POINT('',(1532.88970377576,2029.35455854544,30.));
#283=CARTESIAN_POINT('',(1532.77228811849,2029.25498110252,30.));
#284=CARTESIAN_POINT('',(1532.6559745583,2029.15411852558,30.));
#285=CARTESIAN_POINT('',(1532.39797102838,2028.9303879404,30.));
#286=CARTESIAN_POINT('',(1532.45382704523,2028.59348839814,30.));
#287=CARTESIAN_POINT('',(1532.47196255155,2028.4841028006,30.));
#288=CARTESIAN_POINT('',(1532.52743188247,2028.38809624424,30.));
#289=CARTESIAN_POINT('',(1532.58762003412,2028.28392233267,30.));
#290=CARTESIAN_POINT('',(1532.70310913369,2028.25020163681,30.));
#291=CARTESIAN_POINT('',(0.,0.,0.));
ENDSEC;
END-ISO-10303-21;
