ISO-10303-21;
HEADER;
/* Generated by software containing ST-Developer
 * from STEP Tools, Inc. (www.steptools.com) 
 */
/* OPTION: using custom schema-name function */

FILE_DESCRIPTION(
/* description */ (''),
/* implementation_level */ '2;1');

FILE_NAME(
/* name */ 'nutm3',
/* time_stamp */ '2026-05-23T14:09:33+03:00',
/* author */ (''),
/* organization */ (''),
/* preprocessor_version */ 'ST-DEVELOPER v16.5',
/* originating_system */ '',
/* authorisation */ '');

FILE_SCHEMA (('CONFIG_CONTROL_DESIGN'));
ENDSEC;

DATA;
#10=SHAPE_REPRESENTATION_RELATIONSHIP('','',#284,#12);
#11=MANIFOLD_SOLID_BREP('brep_1',#13);
#12=ADVANCED_BREP_SHAPE_REPRESENTATION('brep_rep_0',(#11,#295),#283);
#13=CLOSED_SHELL('',(#15,#16,#17,#18,#19,#20,#21,#22,#23,#24,#25,#26,#27));
#14=FACE_BOUND('',#44,.T.);
#15=ADVANCED_FACE('',(#28),#194,.T.);
#16=ADVANCED_FACE('',(#29),#195,.T.);
#17=ADVANCED_FACE('',(#30,#14),#187,.T.);
#18=ADVANCED_FACE('',(#31),#185,.F.);
#19=ADVANCED_FACE('',(#32),#188,.T.);
#20=ADVANCED_FACE('',(#33),#189,.T.);
#21=ADVANCED_FACE('',(#34),#190,.T.);
#22=ADVANCED_FACE('',(#35),#191,.T.);
#23=ADVANCED_FACE('',(#36),#192,.T.);
#24=ADVANCED_FACE('',(#37),#193,.T.);
#25=ADVANCED_FACE('',(#38),#196,.T.);
#26=ADVANCED_FACE('',(#39),#197,.T.);
#27=ADVANCED_FACE('',(#40),#186,.F.);
#28=FACE_OUTER_BOUND('',#41,.T.);
#29=FACE_OUTER_BOUND('',#42,.T.);
#30=FACE_OUTER_BOUND('',#43,.T.);
#31=FACE_OUTER_BOUND('',#45,.T.);
#32=FACE_OUTER_BOUND('',#46,.T.);
#33=FACE_OUTER_BOUND('',#47,.T.);
#34=FACE_OUTER_BOUND('',#48,.T.);
#35=FACE_OUTER_BOUND('',#49,.T.);
#36=FACE_OUTER_BOUND('',#50,.T.);
#37=FACE_OUTER_BOUND('',#51,.T.);
#38=FACE_OUTER_BOUND('',#52,.T.);
#39=FACE_OUTER_BOUND('',#53,.T.);
#40=FACE_OUTER_BOUND('',#54,.T.);
#41=EDGE_LOOP('',(#55,#56,#57,#58,#59));
#42=EDGE_LOOP('',(#60,#61,#62));
#43=EDGE_LOOP('',(#63,#64,#65,#66,#67,#68));
#44=EDGE_LOOP('',(#69,#70));
#45=EDGE_LOOP('',(#71,#72,#73,#74));
#46=EDGE_LOOP('',(#75,#76,#77,#78));
#47=EDGE_LOOP('',(#79,#80,#81,#82));
#48=EDGE_LOOP('',(#83,#84,#85,#86));
#49=EDGE_LOOP('',(#87,#88,#89,#90));
#50=EDGE_LOOP('',(#91,#92,#93,#94));
#51=EDGE_LOOP('',(#95,#96,#97,#98));
#52=EDGE_LOOP('',(#99,#100,#101,#102,#103));
#53=EDGE_LOOP('',(#104,#105,#106));
#54=EDGE_LOOP('',(#107,#108,#109,#110));
#55=ORIENTED_EDGE('',*,*,#135,.T.);
#56=ORIENTED_EDGE('',*,*,#118,.F.);
#57=ORIENTED_EDGE('',*,*,#113,.T.);
#58=ORIENTED_EDGE('',*,*,#112,.T.);
#59=ORIENTED_EDGE('',*,*,#117,.T.);
#60=ORIENTED_EDGE('',*,*,#136,.T.);
#61=ORIENTED_EDGE('',*,*,#133,.T.);
#62=ORIENTED_EDGE('',*,*,#111,.F.);
#63=ORIENTED_EDGE('',*,*,#130,.F.);
#64=ORIENTED_EDGE('',*,*,#128,.F.);
#65=ORIENTED_EDGE('',*,*,#126,.F.);
#66=ORIENTED_EDGE('',*,*,#124,.F.);
#67=ORIENTED_EDGE('',*,*,#122,.F.);
#68=ORIENTED_EDGE('',*,*,#119,.F.);
#69=ORIENTED_EDGE('',*,*,#138,.F.);
#70=ORIENTED_EDGE('',*,*,#131,.F.);
#71=ORIENTED_EDGE('',*,*,#137,.T.);
#72=ORIENTED_EDGE('',*,*,#133,.F.);
#73=ORIENTED_EDGE('',*,*,#132,.F.);
#74=ORIENTED_EDGE('',*,*,#131,.T.);
#75=ORIENTED_EDGE('',*,*,#121,.F.);
#76=ORIENTED_EDGE('',*,*,#119,.T.);
#77=ORIENTED_EDGE('',*,*,#120,.T.);
#78=ORIENTED_EDGE('',*,*,#116,.F.);
#79=ORIENTED_EDGE('',*,*,#120,.F.);
#80=ORIENTED_EDGE('',*,*,#122,.T.);
#81=ORIENTED_EDGE('',*,*,#123,.T.);
#82=ORIENTED_EDGE('',*,*,#115,.F.);
#83=ORIENTED_EDGE('',*,*,#123,.F.);
#84=ORIENTED_EDGE('',*,*,#124,.T.);
#85=ORIENTED_EDGE('',*,*,#125,.T.);
#86=ORIENTED_EDGE('',*,*,#114,.F.);
#87=ORIENTED_EDGE('',*,*,#125,.F.);
#88=ORIENTED_EDGE('',*,*,#126,.T.);
#89=ORIENTED_EDGE('',*,*,#127,.T.);
#90=ORIENTED_EDGE('',*,*,#113,.F.);
#91=ORIENTED_EDGE('',*,*,#127,.F.);
#92=ORIENTED_EDGE('',*,*,#128,.T.);
#93=ORIENTED_EDGE('',*,*,#129,.T.);
#94=ORIENTED_EDGE('',*,*,#112,.F.);
#95=ORIENTED_EDGE('',*,*,#129,.F.);
#96=ORIENTED_EDGE('',*,*,#130,.T.);
#97=ORIENTED_EDGE('',*,*,#121,.T.);
#98=ORIENTED_EDGE('',*,*,#117,.F.);
#99=ORIENTED_EDGE('',*,*,#116,.T.);
#100=ORIENTED_EDGE('',*,*,#115,.T.);
#101=ORIENTED_EDGE('',*,*,#114,.T.);
#102=ORIENTED_EDGE('',*,*,#118,.T.);
#103=ORIENTED_EDGE('',*,*,#135,.F.);
#104=ORIENTED_EDGE('',*,*,#111,.T.);
#105=ORIENTED_EDGE('',*,*,#134,.T.);
#106=ORIENTED_EDGE('',*,*,#136,.F.);
#107=ORIENTED_EDGE('',*,*,#138,.T.);
#108=ORIENTED_EDGE('',*,*,#132,.T.);
#109=ORIENTED_EDGE('',*,*,#134,.F.);
#110=ORIENTED_EDGE('',*,*,#137,.F.);
#111=EDGE_CURVE('',#167,#183,#157,.T.);
#112=EDGE_CURVE('',#169,#170,#139,.T.);
#113=EDGE_CURVE('',#171,#169,#140,.T.);
#114=EDGE_CURVE('',#172,#171,#141,.T.);
#115=EDGE_CURVE('',#173,#172,#142,.T.);
#116=EDGE_CURVE('',#174,#173,#143,.T.);
#117=EDGE_CURVE('',#170,#174,#144,.T.);
#118=EDGE_CURVE('',#171,#168,#158,.T.);
#119=EDGE_CURVE('',#175,#176,#145,.T.);
#120=EDGE_CURVE('',#176,#173,#146,.T.);
#121=EDGE_CURVE('',#175,#174,#147,.T.);
#122=EDGE_CURVE('',#176,#177,#148,.T.);
#123=EDGE_CURVE('',#177,#172,#149,.T.);
#124=EDGE_CURVE('',#177,#178,#150,.T.);
#125=EDGE_CURVE('',#178,#171,#151,.T.);
#126=EDGE_CURVE('',#178,#179,#152,.T.);
#127=EDGE_CURVE('',#179,#169,#153,.T.);
#128=EDGE_CURVE('',#179,#180,#154,.T.);
#129=EDGE_CURVE('',#180,#170,#155,.T.);
#130=EDGE_CURVE('',#180,#175,#156,.T.);
#131=EDGE_CURVE('',#181,#184,#159,.T.);
#132=EDGE_CURVE('',#181,#182,#160,.T.);
#133=EDGE_CURVE('',#182,#183,#161,.T.);
#134=EDGE_CURVE('',#183,#182,#162,.T.);
#135=EDGE_CURVE('',#174,#168,#163,.T.);
#136=EDGE_CURVE('',#167,#182,#164,.T.);
#137=EDGE_CURVE('',#184,#183,#165,.T.);
#138=EDGE_CURVE('',#184,#181,#166,.T.);
#139=B_SPLINE_CURVE_WITH_KNOTS('',3,(#460,#461,#462,#463,#464,#465,#466,
#467,#468,#469,#470,#471,#472,#473,#474,#475,#476,#477,#478,#479,#480,#481,
#482,#483,#484,#485,#486,#487,#488,#489,#490),.UNSPECIFIED.,.F.,.F.,(4,
2,2,3,3,2,3,2,3,3,2,2,4),(2.5747464022804,2.90816367958663,3.24158168892204,
3.91015638563364,3.93004738493381,4.53976991162295,5.149492438312,5.75921496500089,
6.36893749169024,6.38882849099051,7.05740318770171,7.39082119703709,7.7242392068412),
 .UNSPECIFIED.);
#140=B_SPLINE_CURVE_WITH_KNOTS('',3,(#491,#492,#493,#494,#495,#496,#497,
#498,#499,#500,#501,#502,#503,#504,#505,#506,#507,#508,#509,#510,#511,#512,
#513,#514),.UNSPECIFIED.,.F.,.F.,(4,2,2,3,3,3,3,2,2,4),(2.15374955008556,
2.49219168300135,2.83063381584829,3.50933639878113,4.30762045305607,5.54462475421883,
5.9711308671424,6.64983344812015,6.98827558184513,7.32671698325714),
 .UNSPECIFIED.);
#141=B_SPLINE_CURVE_WITH_KNOTS('',3,(#515,#516,#517,#518,#519,#520,#521,
#522,#523,#524,#525,#526,#527,#528,#529,#530,#531,#532,#533,#534,#535,#536,
#537,#538),.UNSPECIFIED.,.F.,.F.,(4,2,2,3,3,3,3,2,2,4),(1.7820632669883,
2.12050598998696,2.4589493318672,3.13765433564623,3.56416197109117,4.80117068805381,
5.5994575920056,6.27816259773886,6.61660593874097,6.95504927981155),
 .UNSPECIFIED.);
#142=B_SPLINE_CURVE_WITH_KNOTS('',3,(#539,#540,#541,#542,#543,#544,#545,
#546,#547,#548,#549,#550,#551,#552,#553,#554,#555,#556,#557,#558,#559,#560,
#561,#562,#563,#564,#565,#566,#567,#568,#569),.UNSPECIFIED.,.F.,.F.,(4,
2,2,3,3,2,3,2,3,3,2,2,4),(2.57474640228035,2.90816440474062,3.24158240673065,
3.91015708871653,3.93004808757865,4.53977060083764,5.14949311409656,5.75921562735577,
6.3689381406145,6.38882913947663,7.05740382146256,7.39082182345423,7.72423920684103),
 .UNSPECIFIED.);
#143=B_SPLINE_CURVE_WITH_KNOTS('',3,(#570,#571,#572,#573,#574,#575,#576,
#577,#578,#579,#580,#581,#582,#583,#584,#585,#586,#587,#588,#589,#590,#591,
#592,#593),.UNSPECIFIED.,.F.,.F.,(4,2,2,3,3,3,3,2,2,4),(0.,0.338436493531719,
0.676872986995554,1.3555642608623,2.15383501351262,3.39081870275588,3.81731770890565,
4.49600898081791,4.83444547515969,5.17288196974423),.UNSPECIFIED.);
#144=B_SPLINE_CURVE_WITH_KNOTS('',3,(#594,#595,#596,#597,#598,#599,#600,
#601,#602,#603,#604,#605,#606,#607,#608,#609,#610,#611,#612,#613,#614,#615,
#616,#617),.UNSPECIFIED.,.F.,.F.,(4,2,2,3,3,3,3,2,2,4),(1.78206326698834,
2.12049976157219,2.45893625591284,3.13762752782696,3.56412653397669,4.80111022321998,
5.59938097587044,6.27807224973656,6.61650874320008,6.95494523673272),
 .UNSPECIFIED.);
#145=B_SPLINE_CURVE_WITH_KNOTS('',1,(#621,#622),.UNSPECIFIED.,.F.,.F.,(2,
2),(0.,5.64),.UNSPECIFIED.);
#146=B_SPLINE_CURVE_WITH_KNOTS('',1,(#623,#624),.UNSPECIFIED.,.F.,.F.,(2,
2),(0.,7.),.UNSPECIFIED.);
#147=B_SPLINE_CURVE_WITH_KNOTS('',1,(#625,#626),.UNSPECIFIED.,.F.,.F.,(2,
2),(0.,7.),.UNSPECIFIED.);
#148=B_SPLINE_CURVE_WITH_KNOTS('',1,(#627,#628),.UNSPECIFIED.,.F.,.F.,(2,
2),(5.64,11.28),.UNSPECIFIED.);
#149=B_SPLINE_CURVE_WITH_KNOTS('',1,(#629,#630),.UNSPECIFIED.,.F.,.F.,(2,
2),(0.,7.),.UNSPECIFIED.);
#150=B_SPLINE_CURVE_WITH_KNOTS('',1,(#631,#632),.UNSPECIFIED.,.F.,.F.,(2,
2),(11.28,16.92),.UNSPECIFIED.);
#151=B_SPLINE_CURVE_WITH_KNOTS('',1,(#633,#634),.UNSPECIFIED.,.F.,.F.,(2,
2),(0.,7.),.UNSPECIFIED.);
#152=B_SPLINE_CURVE_WITH_KNOTS('',1,(#635,#636),.UNSPECIFIED.,.F.,.F.,(2,
2),(16.92,22.56),.UNSPECIFIED.);
#153=B_SPLINE_CURVE_WITH_KNOTS('',1,(#637,#638),.UNSPECIFIED.,.F.,.F.,(2,
2),(0.,7.),.UNSPECIFIED.);
#154=B_SPLINE_CURVE_WITH_KNOTS('',1,(#639,#640),.UNSPECIFIED.,.F.,.F.,(2,
2),(22.56,28.2),.UNSPECIFIED.);
#155=B_SPLINE_CURVE_WITH_KNOTS('',1,(#641,#642),.UNSPECIFIED.,.F.,.F.,(2,
2),(0.,7.),.UNSPECIFIED.);
#156=B_SPLINE_CURVE_WITH_KNOTS('',1,(#643,#644),.UNSPECIFIED.,.F.,.F.,(2,
2),(28.2,33.84),.UNSPECIFIED.);
#157=(
BOUNDED_CURVE()
B_SPLINE_CURVE(2,(#457,#458,#459),.UNSPECIFIED.,.F.,.F.)
B_SPLINE_CURVE_WITH_KNOTS((3,3),(-5.12398320396167,-3.62140904218325),
 .UNSPECIFIED.)
CURVE()
GEOMETRIC_REPRESENTATION_ITEM()
RATIONAL_B_SPLINE_CURVE((1.,0.973595032966376,1.))
REPRESENTATION_ITEM('')
);
#158=(
BOUNDED_CURVE()
B_SPLINE_CURVE(2,(#618,#619,#620),.UNSPECIFIED.,.F.,.F.)
B_SPLINE_CURVE_WITH_KNOTS((3,3),(0.,5.12398320396167),.UNSPECIFIED.)
CURVE()
GEOMETRIC_REPRESENTATION_ITEM()
RATIONAL_B_SPLINE_CURVE((1.,0.707106781186548,1.))
REPRESENTATION_ITEM('')
);
#159=(
BOUNDED_CURVE()
B_SPLINE_CURVE(2,(#645,#646,#647,#648,#649),.UNSPECIFIED.,.F.,.F.)
B_SPLINE_CURVE_WITH_KNOTS((3,2,3),(33.84,36.1176546738526,38.3953093477052),
 .UNSPECIFIED.)
CURVE()
GEOMETRIC_REPRESENTATION_ITEM()
RATIONAL_B_SPLINE_CURVE((1.,0.707106781186548,1.,0.707106781186548,1.))
REPRESENTATION_ITEM('')
);
#160=(
BOUNDED_CURVE()
B_SPLINE_CURVE(1,(#650,#651),.UNSPECIFIED.,.F.,.F.)
B_SPLINE_CURVE_WITH_KNOTS((2,2),(0.,4.07795733547004),.UNSPECIFIED.)
CURVE()
GEOMETRIC_REPRESENTATION_ITEM()
RATIONAL_B_SPLINE_CURVE((1.,1.))
REPRESENTATION_ITEM('')
);
#161=(
BOUNDED_CURVE()
B_SPLINE_CURVE(2,(#652,#653,#654,#655,#656),.UNSPECIFIED.,.F.,.F.)
B_SPLINE_CURVE_WITH_KNOTS((3,2,3),(-10.2479664079233,-5.12398320396167,
0.),.UNSPECIFIED.)
CURVE()
GEOMETRIC_REPRESENTATION_ITEM()
RATIONAL_B_SPLINE_CURVE((1.,0.707106781186548,1.,0.707106781186548,1.))
REPRESENTATION_ITEM('')
);
#162=(
BOUNDED_CURVE()
B_SPLINE_CURVE(2,(#657,#658,#659,#660,#661),.UNSPECIFIED.,.F.,.F.)
B_SPLINE_CURVE_WITH_KNOTS((3,2,3),(-20.4959328158467,-15.371949611885,-10.2479664079233),
 .UNSPECIFIED.)
CURVE()
GEOMETRIC_REPRESENTATION_ITEM()
RATIONAL_B_SPLINE_CURVE((1.,0.707106781186548,1.,0.707106781186548,1.))
REPRESENTATION_ITEM('')
);
#163=(
BOUNDED_CURVE()
B_SPLINE_CURVE(2,(#662,#663,#664),.UNSPECIFIED.,.F.,.F.)
B_SPLINE_CURVE_WITH_KNOTS((3,3),(-2.66453525910038E-15,5.12398320396167),
 .UNSPECIFIED.)
CURVE()
GEOMETRIC_REPRESENTATION_ITEM()
RATIONAL_B_SPLINE_CURVE((1.,0.707106781186547,1.))
REPRESENTATION_ITEM('')
);
#164=(
BOUNDED_CURVE()
B_SPLINE_CURVE(2,(#665,#666,#667),.UNSPECIFIED.,.F.,.F.)
B_SPLINE_CURVE_WITH_KNOTS((3,3),(-5.12398320396167,-3.62140904218324),
 .UNSPECIFIED.)
CURVE()
GEOMETRIC_REPRESENTATION_ITEM()
RATIONAL_B_SPLINE_CURVE((1.,0.973595032966376,1.))
REPRESENTATION_ITEM('')
);
#165=(
BOUNDED_CURVE()
B_SPLINE_CURVE(1,(#668,#669),.UNSPECIFIED.,.F.,.F.)
B_SPLINE_CURVE_WITH_KNOTS((2,2),(0.,4.07795733547004),.UNSPECIFIED.)
CURVE()
GEOMETRIC_REPRESENTATION_ITEM()
RATIONAL_B_SPLINE_CURVE((1.,1.))
REPRESENTATION_ITEM('')
);
#166=(
BOUNDED_CURVE()
B_SPLINE_CURVE(2,(#670,#671,#672,#673,#674),.UNSPECIFIED.,.F.,.F.)
B_SPLINE_CURVE_WITH_KNOTS((3,2,3),(38.3953093477052,40.6729640215578,42.9506186954104),
 .UNSPECIFIED.)
CURVE()
GEOMETRIC_REPRESENTATION_ITEM()
RATIONAL_B_SPLINE_CURVE((1.,0.707106781186548,1.,0.707106781186548,1.))
REPRESENTATION_ITEM('')
);
#167=VERTEX_POINT('',#439);
#168=VERTEX_POINT('',#440);
#169=VERTEX_POINT('',#441);
#170=VERTEX_POINT('',#442);
#171=VERTEX_POINT('',#443);
#172=VERTEX_POINT('',#444);
#173=VERTEX_POINT('',#445);
#174=VERTEX_POINT('',#446);
#175=VERTEX_POINT('',#447);
#176=VERTEX_POINT('',#448);
#177=VERTEX_POINT('',#449);
#178=VERTEX_POINT('',#450);
#179=VERTEX_POINT('',#451);
#180=VERTEX_POINT('',#452);
#181=VERTEX_POINT('',#453);
#182=VERTEX_POINT('',#454);
#183=VERTEX_POINT('',#455);
#184=VERTEX_POINT('',#456);
#185=CYLINDRICAL_SURFACE('',#287,1.45);
#186=CYLINDRICAL_SURFACE('',#294,1.45);
#187=PLANE('',#286);
#188=PLANE('',#288);
#189=PLANE('',#289);
#190=PLANE('',#290);
#191=PLANE('',#291);
#192=PLANE('',#292);
#193=PLANE('',#293);
#194=(
BOUNDED_SURFACE()
B_SPLINE_SURFACE(2,2,((#310,#311,#312,#313,#314),(#315,#316,#317,#318,#319),
(#320,#321,#322,#323,#324),(#325,#326,#327,#328,#329),(#330,#331,#332,#333,
#334),(#335,#336,#337,#338,#339),(#340,#341,#342,#343,#344),(#345,#346,
#347,#348,#349),(#350,#351,#352,#353,#354)),.UNSPECIFIED.,.F.,.F.,.F.)
B_SPLINE_SURFACE_WITH_KNOTS((3,2,2,2,3),(3,2,3),(0.,2.58761151800322,5.17522303600644,
7.76283455400967,10.3504460720129),(-5.12398320396167,0.,5.12398320396167),
 .UNSPECIFIED.)
GEOMETRIC_REPRESENTATION_ITEM()
RATIONAL_B_SPLINE_SURFACE(((1.,0.707106781186548,1.,0.707106781186548,1.),
(0.922369618366274,0.65221381190724,0.922369618366274,0.65221381190724,
0.922369618366274),(1.,0.707106781186548,1.,0.707106781186548,1.),(0.922369618366274,
0.65221381190724,0.922369618366274,0.65221381190724,0.922369618366274),
(1.,0.707106781186548,1.,0.707106781186548,1.),(0.922369618366274,0.65221381190724,
0.922369618366274,0.65221381190724,0.922369618366274),(1.,0.707106781186548,
1.,0.707106781186548,1.),(0.922369618366274,0.65221381190724,0.922369618366274,
0.65221381190724,0.922369618366274),(1.,0.707106781186548,1.,0.707106781186548,
1.)))
REPRESENTATION_ITEM('')
SURFACE()
);
#195=(
BOUNDED_SURFACE()
B_SPLINE_SURFACE(2,2,((#355,#356,#357,#358,#359),(#360,#361,#362,#363,#364),
(#365,#366,#367,#368,#369),(#370,#371,#372,#373,#374),(#375,#376,#377,#378,
#379)),.UNSPECIFIED.,.F.,.F.,.F.)
B_SPLINE_SURFACE_WITH_KNOTS((3,2,3),(3,2,3),(0.,5.12398320396167,10.2479664079233),
(-5.12398320396167,0.,5.12398320396167),.UNSPECIFIED.)
GEOMETRIC_REPRESENTATION_ITEM()
RATIONAL_B_SPLINE_SURFACE(((1.,0.707106781186548,1.,0.707106781186548,1.),
(0.707106781186548,0.5,0.707106781186548,0.5,0.707106781186548),(1.,0.707106781186548,
1.,0.707106781186548,1.),(0.707106781186548,0.5,0.707106781186548,0.5,0.707106781186548),
(1.,0.707106781186548,1.,0.707106781186548,1.)))
REPRESENTATION_ITEM('')
SURFACE()
);
#196=(
BOUNDED_SURFACE()
B_SPLINE_SURFACE(2,2,((#388,#389,#390,#391,#392),(#393,#394,#395,#396,#397),
(#398,#399,#400,#401,#402),(#403,#404,#405,#406,#407),(#408,#409,#410,#411,
#412)),.UNSPECIFIED.,.F.,.F.,.F.)
B_SPLINE_SURFACE_WITH_KNOTS((3,2,3),(3,2,3),(10.2479664079233,15.371949611885,
20.4959328158467),(-5.12398320396167,0.,5.12398320396167),.UNSPECIFIED.)
GEOMETRIC_REPRESENTATION_ITEM()
RATIONAL_B_SPLINE_SURFACE(((1.,0.707106781186548,1.,0.707106781186548,1.),
(0.707106781186548,0.5,0.707106781186548,0.5,0.707106781186548),(1.,0.707106781186548,
1.,0.707106781186548,1.),(0.707106781186548,0.5,0.707106781186548,0.5,0.707106781186548),
(1.,0.707106781186548,1.,0.707106781186548,1.)))
REPRESENTATION_ITEM('')
SURFACE()
);
#197=(
BOUNDED_SURFACE()
B_SPLINE_SURFACE(2,2,((#413,#414,#415,#416,#417),(#418,#419,#420,#421,#422),
(#423,#424,#425,#426,#427),(#428,#429,#430,#431,#432),(#433,#434,#435,#436,
#437)),.UNSPECIFIED.,.F.,.F.,.F.)
B_SPLINE_SURFACE_WITH_KNOTS((3,2,3),(3,2,3),(10.2479664079233,15.371949611885,
20.4959328158467),(-5.12398320396167,0.,5.12398320396167),.UNSPECIFIED.)
GEOMETRIC_REPRESENTATION_ITEM()
RATIONAL_B_SPLINE_SURFACE(((1.,0.707106781186548,1.,0.707106781186548,1.),
(0.707106781186548,0.5,0.707106781186548,0.5,0.707106781186548),(1.,0.707106781186548,
1.,0.707106781186548,1.),(0.707106781186548,0.5,0.707106781186548,0.5,0.707106781186548),
(1.,0.707106781186548,1.,0.707106781186548,1.)))
REPRESENTATION_ITEM('')
SURFACE()
);
#198=SHAPE_DEFINITION_REPRESENTATION(#199,#284);
#199=PRODUCT_DEFINITION_SHAPE('Document','',#201);
#200=PRODUCT_DEFINITION_CONTEXT('3D Mechanical Parts',#273,'design');
#201=PRODUCT_DEFINITION('A','First version',#243,#200);
#202=DATE_TIME_ROLE('classification_date');
#203=DATE_TIME_ROLE('creation_date');
#204=APPLIED_DATE_AND_TIME_ASSIGNMENT(#228,#202,(#207));
#205=APPLIED_DATE_AND_TIME_ASSIGNMENT(#230,#203,(#201));
#206=SECURITY_CLASSIFICATION_LEVEL('unclassified');
#207=SECURITY_CLASSIFICATION('A','Security for version',#206);
#208=APPLIED_SECURITY_CLASSIFICATION_ASSIGNMENT(#207,(#243));
#209=APPROVAL_ROLE('Version approval');
#210=APPROVAL_ROLE('Version Security approval');
#211=APPROVAL_ROLE('Definition approval');
#212=APPROVAL_PERSON_ORGANIZATION(#261,#237,#209);
#213=APPROVAL_PERSON_ORGANIZATION(#262,#238,#210);
#214=APPROVAL_PERSON_ORGANIZATION(#265,#239,#211);
#215=COORDINATED_UNIVERSAL_TIME_OFFSET(5,0,.BEHIND.);
#216=LOCAL_TIME(0,0,0.,#215);
#217=LOCAL_TIME(0,0,0.,#215);
#218=LOCAL_TIME(0,0,0.,#215);
#219=LOCAL_TIME(0,0,0.,#215);
#220=LOCAL_TIME(0,0,0.,#215);
#221=CALENDAR_DATE(1999,1,1);
#222=CALENDAR_DATE(1999,1,1);
#223=CALENDAR_DATE(1999,1,1);
#224=CALENDAR_DATE(1999,1,1);
#225=CALENDAR_DATE(1999,1,1);
#226=DATE_AND_TIME(#221,#216);
#227=DATE_AND_TIME(#222,#217);
#228=DATE_AND_TIME(#223,#218);
#229=DATE_AND_TIME(#224,#219);
#230=DATE_AND_TIME(#225,#220);
#231=APPROVAL_DATE_TIME(#226,#237);
#232=APPROVAL_DATE_TIME(#227,#238);
#233=APPROVAL_DATE_TIME(#229,#239);
#234=APPROVAL_STATUS('not_yet_approved');
#235=APPROVAL_STATUS('not_yet_approved');
#236=APPROVAL_STATUS('approved');
#237=APPROVAL(#234,'Version approval');
#238=APPROVAL(#235,'Version Security approval');
#239=APPROVAL(#236,'Definition approval');
#240=APPLIED_APPROVAL_ASSIGNMENT(#237,(#243));
#241=APPLIED_APPROVAL_ASSIGNMENT(#238,(#207));
#242=APPLIED_APPROVAL_ASSIGNMENT(#239,(#201));
#243=PRODUCT_DEFINITION_FORMATION_WITH_SPECIFIED_SOURCE('A',
'First version',#275,.MADE.);
#244=PERSON_AND_ORGANIZATION_ROLE('design_owner');
#245=PERSON_AND_ORGANIZATION_ROLE('creator');
#246=PERSON_AND_ORGANIZATION_ROLE('design_supplier');
#247=PERSON_AND_ORGANIZATION_ROLE('classification_officer');
#248=PERSON_AND_ORGANIZATION_ROLE('creator');
#249=ORGANIZATION('STI','lab','lab');
#250=ORGANIZATION('STI','unknown','unknown');
#251=ORGANIZATION('STI','unknown','unknown');
#252=ORGANIZATION('STI','unknown','unknown');
#253=ORGANIZATION('STI','unknown','unknown');
#254=ORGANIZATION('STI','unknown','unknown');
#255=ORGANIZATION('STI','unknown','unknown');
#256=PERSON('1','Box','vc60',$,$,$);
#257=PERSON('2','last','first',$,$,$);
#258=PERSON('3','President','Mr.',$,$,$);
#259=PERSON_AND_ORGANIZATION(#256,#249);
#260=PERSON_AND_ORGANIZATION(#257,#250);
#261=PERSON_AND_ORGANIZATION(#258,#251);
#262=PERSON_AND_ORGANIZATION(#258,#252);
#263=PERSON_AND_ORGANIZATION(#258,#253);
#264=PERSON_AND_ORGANIZATION(#257,#254);
#265=PERSON_AND_ORGANIZATION(#258,#255);
#266=APPLIED_PERSON_AND_ORGANIZATION_ASSIGNMENT(#259,#244,(#275));
#267=APPLIED_PERSON_AND_ORGANIZATION_ASSIGNMENT(#260,#245,(#243));
#268=APPLIED_PERSON_AND_ORGANIZATION_ASSIGNMENT(#260,#246,(#243));
#269=APPLIED_PERSON_AND_ORGANIZATION_ASSIGNMENT(#263,#247,(#207));
#270=APPLIED_PERSON_AND_ORGANIZATION_ASSIGNMENT(#264,#248,(#201));
#271=PRODUCT_RELATED_PRODUCT_CATEGORY('detail','detail',(#275));
#272=APPLICATION_PROTOCOL_DEFINITION('International Standard',
'config_control_design',1994,#273);
#273=APPLICATION_CONTEXT(
'configuration controlled 3d designs of mechanical parts and assemblie
s');
#274=PRODUCT_CONTEXT('3D Mechanical Parts',#273,'mechanical');
#275=PRODUCT('Document','Document','',(#274));
#276=(
LENGTH_UNIT()
NAMED_UNIT(*)
SI_UNIT(.MILLI.,.METRE.)
);
#277=(
NAMED_UNIT(*)
PLANE_ANGLE_UNIT()
SI_UNIT($,.RADIAN.)
);
#278=DIMENSIONAL_EXPONENTS(0.,0.,0.,0.,0.,0.,0.);
#279=PLANE_ANGLE_MEASURE_WITH_UNIT(PLANE_ANGLE_MEASURE(0.01745329252),#277);
#280=(
CONVERSION_BASED_UNIT('DEGREES',#279)
NAMED_UNIT(#278)
PLANE_ANGLE_UNIT()
);
#281=(
NAMED_UNIT(*)
SI_UNIT($,.STERADIAN.)
SOLID_ANGLE_UNIT()
);
#282=UNCERTAINTY_MEASURE_WITH_UNIT(LENGTH_MEASURE(0.001),#276,
'DISTANCE_ACCURACY_VALUE',
'Maximum model space distance between geometric entities at asserted c
onnectivities');
#283=(
GEOMETRIC_REPRESENTATION_CONTEXT(3)
GLOBAL_UNCERTAINTY_ASSIGNED_CONTEXT((#282))
GLOBAL_UNIT_ASSIGNED_CONTEXT((#281,#280,#276))
REPRESENTATION_CONTEXT('ID1','3D')
);
#284=SHAPE_REPRESENTATION('Document',(#285,#295),#283);
#285=AXIS2_PLACEMENT_3D('',#309,#296,#297);
#286=AXIS2_PLACEMENT_3D('',#380,#298,$);
#287=AXIS2_PLACEMENT_3D('',#381,#299,$);
#288=AXIS2_PLACEMENT_3D('',#382,#300,$);
#289=AXIS2_PLACEMENT_3D('',#383,#301,$);
#290=AXIS2_PLACEMENT_3D('',#384,#302,$);
#291=AXIS2_PLACEMENT_3D('',#385,#303,$);
#292=AXIS2_PLACEMENT_3D('',#386,#304,$);
#293=AXIS2_PLACEMENT_3D('',#387,#305,$);
#294=AXIS2_PLACEMENT_3D('',#438,#306,$);
#295=AXIS2_PLACEMENT_3D('',#675,#307,#308);
#296=DIRECTION('',(0.,0.,1.));
#297=DIRECTION('',(1.,0.,0.));
#298=DIRECTION('',(0.,0.,-1.));
#299=DIRECTION('',(0.,0.,-1.));
#300=DIRECTION('',(0.866025403784437,0.500000000000003,0.));
#301=DIRECTION('',(0.,1.,0.));
#302=DIRECTION('',(-0.866025403784439,0.499999999999999,0.));
#303=DIRECTION('',(-0.866025403784438,-0.500000000000001,0.));
#304=DIRECTION('',(0.,-1.,0.));
#305=DIRECTION('',(0.86602540378444,-0.499999999999997,0.));
#306=DIRECTION('',(0.,0.,-1.));
#307=DIRECTION('',(0.,0.,1.));
#308=DIRECTION('',(1.,0.,0.));
#309=CARTESIAN_POINT('',(0.,0.,0.));
#310=CARTESIAN_POINT('',(-55.,-60.,3.73797097907861));
#311=CARTESIAN_POINT('',(-58.2620290209214,-60.,3.73797097907861));
#312=CARTESIAN_POINT('',(-58.2620290209214,-60.,7.));
#313=CARTESIAN_POINT('',(-58.2620290209214,-60.,10.2620290209214));
#314=CARTESIAN_POINT('',(-55.,-60.,10.2620290209214));
#315=CARTESIAN_POINT('',(-55.,-60.,3.73797097907861));
#316=CARTESIAN_POINT('',(-58.2620290209214,-61.3662089897105,3.73797097907861));
#317=CARTESIAN_POINT('',(-58.2620290209214,-61.3662089897105,7.));
#318=CARTESIAN_POINT('',(-58.2620290209214,-61.3662089897105,10.2620290209214));
#319=CARTESIAN_POINT('',(-55.,-60.,10.2620290209214));
#320=CARTESIAN_POINT('',(-55.,-60.,3.73797097907861));
#321=CARTESIAN_POINT('',(-57.2884158699511,-62.3246475301623,3.73797097907861));
#322=CARTESIAN_POINT('',(-57.2884158699511,-62.3246475301623,7.));
#323=CARTESIAN_POINT('',(-57.2884158699511,-62.3246475301623,10.2620290209214));
#324=CARTESIAN_POINT('',(-55.,-60.,10.2620290209214));
#325=CARTESIAN_POINT('',(-55.,-60.,3.73797097907861));
#326=CARTESIAN_POINT('',(-56.3148027189807,-63.283086070614,3.73797097907861));
#327=CARTESIAN_POINT('',(-56.3148027189807,-63.283086070614,7.));
#328=CARTESIAN_POINT('',(-56.3148027189807,-63.283086070614,10.2620290209214));
#329=CARTESIAN_POINT('',(-55.,-60.,10.2620290209214));
#330=CARTESIAN_POINT('',(-55.,-60.,3.73797097907861));
#331=CARTESIAN_POINT('',(-54.9487622750829,-63.2616265924962,3.73797097907861));
#332=CARTESIAN_POINT('',(-54.9487622750829,-63.2616265924962,7.));
#333=CARTESIAN_POINT('',(-54.9487622750829,-63.2616265924962,10.2620290209214));
#334=CARTESIAN_POINT('',(-55.,-60.,10.2620290209214));
#335=CARTESIAN_POINT('',(-55.,-60.,3.73797097907861));
#336=CARTESIAN_POINT('',(-53.582721831185,-63.2401671143785,3.73797097907861));
#337=CARTESIAN_POINT('',(-53.582721831185,-63.2401671143784,7.));
#338=CARTESIAN_POINT('',(-53.582721831185,-63.2401671143785,10.2620290209214));
#339=CARTESIAN_POINT('',(-55.,-60.,10.2620290209214));
#340=CARTESIAN_POINT('',(-55.,-60.,3.73797097907861));
#341=CARTESIAN_POINT('',(-52.6396943816203,-62.2516195773661,3.73797097907861));
#342=CARTESIAN_POINT('',(-52.6396943816203,-62.2516195773661,7.));
#343=CARTESIAN_POINT('',(-52.6396943816203,-62.2516195773661,10.2620290209214));
#344=CARTESIAN_POINT('',(-55.,-60.,10.2620290209214));
#345=CARTESIAN_POINT('',(-55.,-60.,3.73797097907861));
#346=CARTESIAN_POINT('',(-51.6966669320555,-61.2630720403538,3.73797097907861));
#347=CARTESIAN_POINT('',(-51.6966669320555,-61.2630720403538,7.));
#348=CARTESIAN_POINT('',(-51.6966669320555,-61.2630720403538,10.2620290209214));
#349=CARTESIAN_POINT('',(-55.,-60.,10.2620290209214));
#350=CARTESIAN_POINT('',(-55.,-60.,3.73797097907861));
#351=CARTESIAN_POINT('',(-51.739580593486,-59.8975371923077,3.73797097907861));
#352=CARTESIAN_POINT('',(-51.739580593486,-59.8975371923077,7.));
#353=CARTESIAN_POINT('',(-51.739580593486,-59.8975371923077,10.2620290209214));
#354=CARTESIAN_POINT('',(-55.,-60.,10.2620290209214));
#355=CARTESIAN_POINT('',(-55.,-60.,3.73797097907861));
#356=CARTESIAN_POINT('',(-58.2620290209214,-60.,3.73797097907861));
#357=CARTESIAN_POINT('',(-58.2620290209214,-60.,7.));
#358=CARTESIAN_POINT('',(-58.2620290209214,-60.,10.2620290209214));
#359=CARTESIAN_POINT('',(-55.,-60.,10.2620290209214));
#360=CARTESIAN_POINT('',(-55.,-60.,3.73797097907861));
#361=CARTESIAN_POINT('',(-58.2620290209214,-63.2620290209214,3.73797097907861));
#362=CARTESIAN_POINT('',(-58.2620290209214,-63.2620290209214,7.));
#363=CARTESIAN_POINT('',(-58.2620290209214,-63.2620290209214,10.2620290209214));
#364=CARTESIAN_POINT('',(-55.,-60.,10.2620290209214));
#365=CARTESIAN_POINT('',(-55.,-60.,3.73797097907861));
#366=CARTESIAN_POINT('',(-55.,-63.2620290209214,3.73797097907861));
#367=CARTESIAN_POINT('',(-55.,-63.2620290209214,7.));
#368=CARTESIAN_POINT('',(-55.,-63.2620290209214,10.2620290209214));
#369=CARTESIAN_POINT('',(-55.,-60.,10.2620290209214));
#370=CARTESIAN_POINT('',(-55.,-60.,3.73797097907861));
#371=CARTESIAN_POINT('',(-51.7379709790786,-63.2620290209214,3.73797097907861));
#372=CARTESIAN_POINT('',(-51.7379709790786,-63.2620290209214,7.));
#373=CARTESIAN_POINT('',(-51.7379709790786,-63.2620290209214,10.2620290209214));
#374=CARTESIAN_POINT('',(-55.,-60.,10.2620290209214));
#375=CARTESIAN_POINT('',(-55.,-60.,3.73797097907861));
#376=CARTESIAN_POINT('',(-51.7379709790786,-60.,3.73797097907861));
#377=CARTESIAN_POINT('',(-51.7379709790786,-60.,7.));
#378=CARTESIAN_POINT('',(-51.7379709790786,-60.,10.2620290209214));
#379=CARTESIAN_POINT('',(-55.,-60.,10.2620290209214));
#380=CARTESIAN_POINT('',(-59.0775362761517,-63.53125,0.));
#381=CARTESIAN_POINT('',(-55.,-60.,3.5));
#382=CARTESIAN_POINT('',(-53.3689854895393,-57.175,0.));
#383=CARTESIAN_POINT('',(-53.3689854895393,-57.175,0.));
#384=CARTESIAN_POINT('',(-56.6310145104607,-57.175,0.));
#385=CARTESIAN_POINT('',(-58.2620290209214,-60.,0.));
#386=CARTESIAN_POINT('',(-56.6310145104607,-62.825,0.));
#387=CARTESIAN_POINT('',(-53.3689854895393,-62.825,0.));
#388=CARTESIAN_POINT('',(-55.,-60.,3.73797097907861));
#389=CARTESIAN_POINT('',(-51.7379709790786,-60.,3.73797097907861));
#390=CARTESIAN_POINT('',(-51.7379709790786,-60.,7.));
#391=CARTESIAN_POINT('',(-51.7379709790786,-60.,10.2620290209214));
#392=CARTESIAN_POINT('',(-55.,-60.,10.2620290209214));
#393=CARTESIAN_POINT('',(-55.,-60.,3.73797097907861));
#394=CARTESIAN_POINT('',(-51.7379709790786,-56.7379709790786,3.73797097907861));
#395=CARTESIAN_POINT('',(-51.7379709790786,-56.7379709790786,7.));
#396=CARTESIAN_POINT('',(-51.7379709790786,-56.7379709790786,10.2620290209214));
#397=CARTESIAN_POINT('',(-55.,-60.,10.2620290209214));
#398=CARTESIAN_POINT('',(-55.,-60.,3.73797097907861));
#399=CARTESIAN_POINT('',(-55.,-56.7379709790786,3.73797097907861));
#400=CARTESIAN_POINT('',(-55.,-56.7379709790786,7.));
#401=CARTESIAN_POINT('',(-55.,-56.7379709790786,10.2620290209214));
#402=CARTESIAN_POINT('',(-55.,-60.,10.2620290209214));
#403=CARTESIAN_POINT('',(-55.,-60.,3.73797097907861));
#404=CARTESIAN_POINT('',(-58.2620290209214,-56.7379709790786,3.73797097907861));
#405=CARTESIAN_POINT('',(-58.2620290209214,-56.7379709790786,7.));
#406=CARTESIAN_POINT('',(-58.2620290209214,-56.7379709790786,10.2620290209214));
#407=CARTESIAN_POINT('',(-55.,-60.,10.2620290209214));
#408=CARTESIAN_POINT('',(-55.,-60.,3.73797097907861));
#409=CARTESIAN_POINT('',(-58.2620290209214,-60.,3.73797097907861));
#410=CARTESIAN_POINT('',(-58.2620290209214,-60.,7.));
#411=CARTESIAN_POINT('',(-58.2620290209214,-60.,10.2620290209214));
#412=CARTESIAN_POINT('',(-55.,-60.,10.2620290209214));
#413=CARTESIAN_POINT('',(-55.,-60.,3.73797097907861));
#414=CARTESIAN_POINT('',(-51.7379709790786,-60.,3.73797097907861));
#415=CARTESIAN_POINT('',(-51.7379709790786,-60.,7.));
#416=CARTESIAN_POINT('',(-51.7379709790786,-60.,10.2620290209214));
#417=CARTESIAN_POINT('',(-55.,-60.,10.2620290209214));
#418=CARTESIAN_POINT('',(-55.,-60.,3.73797097907861));
#419=CARTESIAN_POINT('',(-51.7379709790786,-56.7379709790786,3.73797097907861));
#420=CARTESIAN_POINT('',(-51.7379709790786,-56.7379709790786,7.));
#421=CARTESIAN_POINT('',(-51.7379709790786,-56.7379709790786,10.2620290209214));
#422=CARTESIAN_POINT('',(-55.,-60.,10.2620290209214));
#423=CARTESIAN_POINT('',(-55.,-60.,3.73797097907861));
#424=CARTESIAN_POINT('',(-55.,-56.7379709790786,3.73797097907861));
#425=CARTESIAN_POINT('',(-55.,-56.7379709790786,7.));
#426=CARTESIAN_POINT('',(-55.,-56.7379709790786,10.2620290209214));
#427=CARTESIAN_POINT('',(-55.,-60.,10.2620290209214));
#428=CARTESIAN_POINT('',(-55.,-60.,3.73797097907861));
#429=CARTESIAN_POINT('',(-58.2620290209214,-56.7379709790786,3.73797097907861));
#430=CARTESIAN_POINT('',(-58.2620290209214,-56.7379709790786,7.));
#431=CARTESIAN_POINT('',(-58.2620290209214,-56.7379709790786,10.2620290209214));
#432=CARTESIAN_POINT('',(-55.,-60.,10.2620290209214));
#433=CARTESIAN_POINT('',(-55.,-60.,3.73797097907861));
#434=CARTESIAN_POINT('',(-58.2620290209214,-60.,3.73797097907861));
#435=CARTESIAN_POINT('',(-58.2620290209214,-60.,7.));
#436=CARTESIAN_POINT('',(-58.2620290209214,-60.,10.2620290209214));
#437=CARTESIAN_POINT('',(-55.,-60.,10.2620290209214));
#438=CARTESIAN_POINT('',(-55.,-60.,3.5));
#439=CARTESIAN_POINT('',(-55.,-60.,3.73797097907861));
#440=CARTESIAN_POINT('',(-55.,-60.,10.2620290209214));
#441=CARTESIAN_POINT('',(-56.6310145104607,-62.825,7.00000073091965));
#442=CARTESIAN_POINT('',(-53.3689854895393,-62.825,6.99999930780058));
#443=CARTESIAN_POINT('',(-58.2620290209214,-60.,7.));
#444=CARTESIAN_POINT('',(-56.6310145104607,-57.175,7.00000061773818));
#445=CARTESIAN_POINT('',(-53.3689854895393,-57.175,6.9999993635844));
#446=CARTESIAN_POINT('',(-51.7379709790786,-60.,7.));
#447=CARTESIAN_POINT('',(-51.7379709790786,-60.,0.));
#448=CARTESIAN_POINT('',(-53.3689854895393,-57.175,0.));
#449=CARTESIAN_POINT('',(-56.6310145104607,-57.175,0.));
#450=CARTESIAN_POINT('',(-58.2620290209214,-60.,0.));
#451=CARTESIAN_POINT('',(-56.6310145104607,-62.825,0.));
#452=CARTESIAN_POINT('',(-53.3689854895393,-62.825,0.));
#453=CARTESIAN_POINT('',(-53.55,-60.,0.));
#454=CARTESIAN_POINT('',(-53.55,-60.,4.07795733547004));
#455=CARTESIAN_POINT('',(-56.45,-60.,4.07795733547004));
#456=CARTESIAN_POINT('',(-56.45,-60.,0.));
#457=CARTESIAN_POINT('',(-55.,-60.,3.73797097907861));
#458=CARTESIAN_POINT('',(-55.7648588698387,-60.,3.73797097907861));
#459=CARTESIAN_POINT('',(-56.45,-60.,4.07795733547004));
#460=CARTESIAN_POINT('',(-56.6310145104607,-62.825,7.00000073091965));
#461=CARTESIAN_POINT('',(-56.6310144607625,-62.825,7.11090040477176));
#462=CARTESIAN_POINT('',(-56.6197036704662,-62.825,7.22151092784309));
#463=CARTESIAN_POINT('',(-56.5748117051483,-62.825,7.43871997744362));
#464=CARTESIAN_POINT('',(-56.5413475276063,-62.8249999999954,7.54475216794657));
#465=CARTESIAN_POINT('',(-56.4092295946332,-62.8249999999954,7.85072458747872));
#466=CARTESIAN_POINT('',(-56.2802566408362,-62.825,8.03469962195098));
#467=CARTESIAN_POINT('',(-56.1183917385539,-62.825,8.18718501189489));
#468=CARTESIAN_POINT('',(-56.1135657258108,-62.825,8.19173137385867));
#469=CARTESIAN_POINT('',(-56.1087116963439,-62.825,8.19624857996916));
#470=CARTESIAN_POINT('',(-56.1038307352565,-62.825,8.20073562503846));
#471=CARTESIAN_POINT('',(-55.9546351716557,-62.825,8.33789042017593));
#472=CARTESIAN_POINT('',(-55.7811852009524,-62.8249999999939,8.44603899299259));
#473=CARTESIAN_POINT('',(-55.4035435491712,-62.8249999999939,8.593245646899));
#474=CARTESIAN_POINT('',(-55.2026592066188,-62.825,8.6310145104607));
#475=CARTESIAN_POINT('',(-55.,-62.825,8.63101451046071));
#476=CARTESIAN_POINT('',(-54.7973407933809,-62.825,8.63101451046071));
#477=CARTESIAN_POINT('',(-54.5964564508291,-62.8249999999939,8.59324564689905));
#478=CARTESIAN_POINT('',(-54.2188147990473,-62.8249999999939,8.44603899299239));
#479=CARTESIAN_POINT('',(-54.0453648283445,-62.825,8.33789042017621));
#480=CARTESIAN_POINT('',(-53.8961692647435,-62.825,8.20073562503846));
#481=CARTESIAN_POINT('',(-53.8912881675379,-62.825,8.19624845483631));
#482=CARTESIAN_POINT('',(-53.8864341396072,-62.825,8.19173124707506));
#483=CARTESIAN_POINT('',(-53.8816082614461,-62.825,8.18718501189474));
#484=CARTESIAN_POINT('',(-53.7197433591637,-62.825,8.03469962195077));
#485=CARTESIAN_POINT('',(-53.5907704053669,-62.8249999999954,7.85072458747873));
#486=CARTESIAN_POINT('',(-53.4586524723937,-62.8249999999954,7.5447521679464));
#487=CARTESIAN_POINT('',(-53.4251882948517,-62.825,7.43871997744368));
#488=CARTESIAN_POINT('',(-53.3802962802213,-62.825,7.22151068924555));
#489=CARTESIAN_POINT('',(-53.3689854895393,-62.825,7.11089991876268));
#490=CARTESIAN_POINT('',(-53.3689854895393,-62.825,6.99999930780058));
#491=CARTESIAN_POINT('',(-58.2620290209214,-60.,7.));
#492=CARTESIAN_POINT('',(-58.2620290209214,-60.,7.11256186671021));
#493=CARTESIAN_POINT('',(-58.256202854128,-60.0100912168829,7.22482136767686));
#494=CARTESIAN_POINT('',(-58.233084495574,-60.0501333884859,7.44514581328467));
#495=CARTESIAN_POINT('',(-58.2158544047663,-60.0799767811987,7.55261891841393));
#496=CARTESIAN_POINT('',(-58.1478563134147,-60.1977529302374,7.86236946295131));
#497=CARTESIAN_POINT('',(-58.0815265941762,-60.3126393740121,8.04796810693168));
#498=CARTESIAN_POINT('',(-57.9984371333193,-60.4565545417898,8.20073562503846));
#499=CARTESIAN_POINT('',(-57.9009654101702,-60.6253805185853,8.37994623824398));
#500=CARTESIAN_POINT('',(-57.7831424459826,-60.8294558788566,8.50899761261364));
#501=CARTESIAN_POINT('',(-57.6551479444226,-61.051148858648,8.57673992894354));
#502=CARTESIAN_POINT('',(-57.4580750134282,-61.3924891879267,8.68104266592648));
#503=CARTESIAN_POINT('',(-57.2486160138841,-61.7552828172398,8.63394357564918));
#504=CARTESIAN_POINT('',(-57.0680435313821,-62.0680435313821,8.444723239223));
#505=CARTESIAN_POINT('',(-57.005168280742,-62.1769466600293,8.37883681004979));
#506=CARTESIAN_POINT('',(-56.9468631565388,-62.2779340974909,8.29681442028342));
#507=CARTESIAN_POINT('',(-56.8946063980627,-62.3684454582102,8.20073562503846));
#508=CARTESIAN_POINT('',(-56.8115169374206,-62.5123606256159,8.04796810732661));
#509=CARTESIAN_POINT('',(-56.7451872178448,-62.6272470699683,7.86236946242026));
#510=CARTESIAN_POINT('',(-56.6771891265448,-62.7450232189176,7.55261891811862));
#511=CARTESIAN_POINT('',(-56.6599590358529,-62.7748666114198,7.44514581359017));
#512=CARTESIAN_POINT('',(-56.6368407022469,-62.8149087398118,7.22482160573984));
#513=CARTESIAN_POINT('',(-56.6310145356822,-62.8249999563151,7.11256235306454));
#514=CARTESIAN_POINT('',(-56.6310145104607,-62.825,7.00000073091965));
#515=CARTESIAN_POINT('',(-56.6310145104607,-57.175,7.00000061773818));
#516=CARTESIAN_POINT('',(-56.6310145317767,-57.1750000369203,7.11256227781251));
#517=CARTESIAN_POINT('',(-56.6368406983726,-57.1850912534779,7.22482156881737));
#518=CARTESIAN_POINT('',(-56.6599590358529,-57.2251333885803,7.44514581359025));
#519=CARTESIAN_POINT('',(-56.6771891265448,-57.2549767810824,7.55261891811858));
#520=CARTESIAN_POINT('',(-56.7451872178448,-57.3727529300318,7.86236946242036));
#521=CARTESIAN_POINT('',(-56.8115169374207,-57.4876393743842,8.04796810732656));
#522=CARTESIAN_POINT('',(-56.8946063980628,-57.6315545417899,8.20073562503846));
#523=CARTESIAN_POINT('',(-56.9468631565386,-57.7220659025088,8.29681442028308));
#524=CARTESIAN_POINT('',(-57.0051682807422,-57.823053339971,8.37883681004995));
#525=CARTESIAN_POINT('',(-57.0680435313821,-57.9319564686179,8.44472323922294));
#526=CARTESIAN_POINT('',(-57.248616013884,-58.24471718276,8.63394357564906));
#527=CARTESIAN_POINT('',(-57.4580750134283,-58.6075108120734,8.68104266592639));
#528=CARTESIAN_POINT('',(-57.6551479444226,-58.948851141352,8.5767399289435));
#529=CARTESIAN_POINT('',(-57.7831424459826,-59.1705441211434,8.50899761261361));
#530=CARTESIAN_POINT('',(-57.9009654101701,-59.3746194814146,8.37994623824393));
#531=CARTESIAN_POINT('',(-57.9984371333193,-59.5434454582101,8.20073562503846));
#532=CARTESIAN_POINT('',(-58.0815265941763,-59.687360625988,8.04796810693151));
#533=CARTESIAN_POINT('',(-58.1478563134146,-59.8022470697624,7.86236946295155));
#534=CARTESIAN_POINT('',(-58.2158544047663,-59.9200232188014,7.55261891841369));
#535=CARTESIAN_POINT('',(-58.233084495574,-59.9498666115141,7.44514581328496));
#536=CARTESIAN_POINT('',(-58.256202854128,-59.9899087831172,7.22482136767673));
#537=CARTESIAN_POINT('',(-58.2620290209214,-60.,7.11256186671035));
#538=CARTESIAN_POINT('',(-58.2620290209214,-60.,7.));
#539=CARTESIAN_POINT('',(-53.3689854895393,-57.175,6.9999993635844));
#540=CARTESIAN_POINT('',(-53.3689854895393,-57.175,7.11089991876247));
#541=CARTESIAN_POINT('',(-53.3802962802214,-57.175,7.22151068924577));
#542=CARTESIAN_POINT('',(-53.4251882948515,-57.175,7.43871997744299));
#543=CARTESIAN_POINT('',(-53.458652472394,-57.1750000000046,7.54475216794709));
#544=CARTESIAN_POINT('',(-53.5907704053668,-57.1750000000046,7.85072458747856));
#545=CARTESIAN_POINT('',(-53.7197433591639,-57.175,8.03469962195098));
#546=CARTESIAN_POINT('',(-53.8816082614461,-57.175,8.18718501189481));
#547=CARTESIAN_POINT('',(-53.8864342741892,-57.175,8.19173137385862));
#548=CARTESIAN_POINT('',(-53.8912883036561,-57.175,8.19624857996914));
#549=CARTESIAN_POINT('',(-53.8961692647436,-57.175,8.20073562503846));
#550=CARTESIAN_POINT('',(-54.0453648283445,-57.175,8.33789042017612));
#551=CARTESIAN_POINT('',(-54.2188147990474,-57.1750000000061,8.44603899299242));
#552=CARTESIAN_POINT('',(-54.596456450829,-57.1750000000061,8.59324564689901));
#553=CARTESIAN_POINT('',(-54.7973407933809,-57.175,8.63101451046065));
#554=CARTESIAN_POINT('',(-55.,-57.175,8.63101451046066));
#555=CARTESIAN_POINT('',(-55.2026592066192,-57.175,8.63101451046065));
#556=CARTESIAN_POINT('',(-55.4035435491708,-57.1750000000061,8.59324564689909));
#557=CARTESIAN_POINT('',(-55.7811852009526,-57.1750000000061,8.44603899299242));
#558=CARTESIAN_POINT('',(-55.9546351716555,-57.175,8.33789042017611));
#559=CARTESIAN_POINT('',(-56.1038307352564,-57.175,8.20073562503846));
#560=CARTESIAN_POINT('',(-56.108711832462,-57.175,8.19624845483632));
#561=CARTESIAN_POINT('',(-56.1135658603928,-57.175,8.1917312470751));
#562=CARTESIAN_POINT('',(-56.1183917385539,-57.175,8.18718501189479));
#563=CARTESIAN_POINT('',(-56.2802566408363,-57.175,8.03469962195077));
#564=CARTESIAN_POINT('',(-56.4092295946331,-57.1750000000046,7.8507245874788));
#565=CARTESIAN_POINT('',(-56.5413475276063,-57.1750000000046,7.54475216794645));
#566=CARTESIAN_POINT('',(-56.5748117051483,-57.175,7.43871997744366));
#567=CARTESIAN_POINT('',(-56.6197036781021,-57.175,7.22151089089717));
#568=CARTESIAN_POINT('',(-56.6310144684582,-57.175,7.11090032951374));
#569=CARTESIAN_POINT('',(-56.6310145104607,-57.175,7.00000061773818));
#570=CARTESIAN_POINT('',(-51.7379709790786,-60.,7.));
#571=CARTESIAN_POINT('',(-51.7379709790786,-60.,7.11256186671034));
#572=CARTESIAN_POINT('',(-51.743797145872,-59.9899087831171,7.22482136767674));
#573=CARTESIAN_POINT('',(-51.766915504426,-59.949866611514,7.44514581328512));
#574=CARTESIAN_POINT('',(-51.7841455952336,-59.9200232188014,7.55261891841353));
#575=CARTESIAN_POINT('',(-51.8521436865854,-59.8022470697624,7.86236946295162));
#576=CARTESIAN_POINT('',(-51.9184734058237,-59.687360625988,8.04796810693145));
#577=CARTESIAN_POINT('',(-52.0015628666807,-59.5434454582101,8.20073562503846));
#578=CARTESIAN_POINT('',(-52.0990345898298,-59.3746194814146,8.37994623824384));
#579=CARTESIAN_POINT('',(-52.2168575540175,-59.1705441211433,8.50899761261362));
#580=CARTESIAN_POINT('',(-52.3448520555774,-58.948851141352,8.57673992894347));
#581=CARTESIAN_POINT('',(-52.5419249865716,-58.6075108120735,8.68104266592635));
#582=CARTESIAN_POINT('',(-52.7513839861161,-58.24471718276,8.63394357564903));
#583=CARTESIAN_POINT('',(-52.9319564686179,-57.9319564686179,8.44472323922296));
#584=CARTESIAN_POINT('',(-52.9948317192577,-57.8230533399712,8.37883681005005));
#585=CARTESIAN_POINT('',(-53.0531368434614,-57.7220659025087,8.29681442028298));
#586=CARTESIAN_POINT('',(-53.1053936019372,-57.6315545417898,8.20073562503846));
#587=CARTESIAN_POINT('',(-53.1884830625794,-57.4876393743842,8.0479681073266));
#588=CARTESIAN_POINT('',(-53.2548127821552,-57.3727529300318,7.86236946242027));
#589=CARTESIAN_POINT('',(-53.3228108734552,-57.2549767810824,7.55261891811846));
#590=CARTESIAN_POINT('',(-53.3400409641471,-57.2251333885803,7.44514581359033));
#591=CARTESIAN_POINT('',(-53.3631593227729,-57.1850912168527,7.22482136729427));
#592=CARTESIAN_POINT('',(-53.3689854895393,-57.175,7.11256186709343));
#593=CARTESIAN_POINT('',(-53.3689854895393,-57.175,6.9999993635844));
#594=CARTESIAN_POINT('',(-53.3689854895393,-62.825,6.99999930780058));
#595=CARTESIAN_POINT('',(-53.3689854895393,-62.825,7.11256186709296));
#596=CARTESIAN_POINT('',(-53.3631593227729,-62.8149087831472,7.22482136729474));
#597=CARTESIAN_POINT('',(-53.3400409641472,-62.7748666114199,7.44514581358976));
#598=CARTESIAN_POINT('',(-53.3228108734552,-62.7450232189174,7.55261891811904));
#599=CARTESIAN_POINT('',(-53.2548127821552,-62.6272470699682,7.86236946242045));
#600=CARTESIAN_POINT('',(-53.1884830625794,-62.5123606256159,8.0479681073265));
#601=CARTESIAN_POINT('',(-53.1053936019372,-62.3684454582102,8.20073562503846));
#602=CARTESIAN_POINT('',(-53.0531368434613,-62.277934097491,8.29681442028324));
#603=CARTESIAN_POINT('',(-52.9948317192579,-62.1769466600291,8.37883681004985));
#604=CARTESIAN_POINT('',(-52.9319564686179,-62.0680435313821,8.44472323922295));
#605=CARTESIAN_POINT('',(-52.751383986116,-61.7552828172399,8.63394357564911));
#606=CARTESIAN_POINT('',(-52.5419249865717,-61.3924891879266,8.68104266592646));
#607=CARTESIAN_POINT('',(-52.3448520555774,-61.051148858648,8.57673992894355));
#608=CARTESIAN_POINT('',(-52.2168575540174,-60.8294558788567,8.50899761261367));
#609=CARTESIAN_POINT('',(-52.0990345898298,-60.6253805185854,8.37994623824392));
#610=CARTESIAN_POINT('',(-52.0015628666807,-60.4565545417898,8.20073562503846));
#611=CARTESIAN_POINT('',(-51.9184734058238,-60.3126393740121,8.04796810693161));
#612=CARTESIAN_POINT('',(-51.8521436865854,-60.1977529302375,7.8623694629514));
#613=CARTESIAN_POINT('',(-51.7841455952337,-60.0799767811986,7.55261891841363));
#614=CARTESIAN_POINT('',(-51.766915504426,-60.050133388486,7.445145813285));
#615=CARTESIAN_POINT('',(-51.743797145872,-60.0100912168828,7.22482136767645));
#616=CARTESIAN_POINT('',(-51.7379709790786,-60.,7.11256186671063));
#617=CARTESIAN_POINT('',(-51.7379709790786,-60.,7.));
#618=CARTESIAN_POINT('',(-58.2620290209214,-60.,7.));
#619=CARTESIAN_POINT('',(-58.2620290209214,-60.,10.2620290209214));
#620=CARTESIAN_POINT('',(-55.,-60.,10.2620290209214));
#621=CARTESIAN_POINT('',(-51.7379709790786,-60.,0.));
#622=CARTESIAN_POINT('',(-53.3689854895393,-57.175,0.));
#623=CARTESIAN_POINT('',(-53.3689854895393,-57.175,0.));
#624=CARTESIAN_POINT('',(-53.3689854895393,-57.175,6.9999993635844));
#625=CARTESIAN_POINT('',(-51.7379709790786,-60.,0.));
#626=CARTESIAN_POINT('',(-51.7379709790786,-60.,7.));
#627=CARTESIAN_POINT('',(-53.3689854895393,-57.175,0.));
#628=CARTESIAN_POINT('',(-56.6310145104607,-57.175,0.));
#629=CARTESIAN_POINT('',(-56.6310145104607,-57.175,0.));
#630=CARTESIAN_POINT('',(-56.6310145104607,-57.175,7.00000061773818));
#631=CARTESIAN_POINT('',(-56.6310145104607,-57.175,0.));
#632=CARTESIAN_POINT('',(-58.2620290209214,-60.,0.));
#633=CARTESIAN_POINT('',(-58.2620290209214,-60.,0.));
#634=CARTESIAN_POINT('',(-58.2620290209214,-60.,7.));
#635=CARTESIAN_POINT('',(-58.2620290209214,-60.,0.));
#636=CARTESIAN_POINT('',(-56.6310145104607,-62.825,0.));
#637=CARTESIAN_POINT('',(-56.6310145104607,-62.825,0.));
#638=CARTESIAN_POINT('',(-56.6310145104607,-62.825,7.00000073091965));
#639=CARTESIAN_POINT('',(-56.6310145104607,-62.825,0.));
#640=CARTESIAN_POINT('',(-53.3689854895393,-62.825,0.));
#641=CARTESIAN_POINT('',(-53.3689854895393,-62.825,0.));
#642=CARTESIAN_POINT('',(-53.3689854895393,-62.825,6.99999930780058));
#643=CARTESIAN_POINT('',(-53.3689854895393,-62.825,0.));
#644=CARTESIAN_POINT('',(-51.7379709790786,-60.,0.));
#645=CARTESIAN_POINT('',(-53.55,-60.,0.));
#646=CARTESIAN_POINT('',(-53.55,-61.45,0.));
#647=CARTESIAN_POINT('',(-55.,-61.45,0.));
#648=CARTESIAN_POINT('',(-56.45,-61.45,0.));
#649=CARTESIAN_POINT('',(-56.45,-60.,0.));
#650=CARTESIAN_POINT('',(-53.55,-60.,0.));
#651=CARTESIAN_POINT('',(-53.55,-60.,4.07795733547004));
#652=CARTESIAN_POINT('',(-53.55,-60.,4.07795733547004));
#653=CARTESIAN_POINT('',(-53.55,-61.45,4.07795733547004));
#654=CARTESIAN_POINT('',(-55.,-61.45,4.07795733547004));
#655=CARTESIAN_POINT('',(-56.45,-61.45,4.07795733547004));
#656=CARTESIAN_POINT('',(-56.45,-60.,4.07795733547004));
#657=CARTESIAN_POINT('',(-56.45,-60.,4.07795733547004));
#658=CARTESIAN_POINT('',(-56.45,-58.55,4.07795733547004));
#659=CARTESIAN_POINT('',(-55.,-58.55,4.07795733547004));
#660=CARTESIAN_POINT('',(-53.55,-58.55,4.07795733547004));
#661=CARTESIAN_POINT('',(-53.55,-60.,4.07795733547004));
#662=CARTESIAN_POINT('',(-51.7379709790786,-60.,7.));
#663=CARTESIAN_POINT('',(-51.7379709790786,-60.,10.2620290209214));
#664=CARTESIAN_POINT('',(-55.,-60.,10.2620290209214));
#665=CARTESIAN_POINT('',(-55.,-60.,3.73797097907861));
#666=CARTESIAN_POINT('',(-54.2351411301613,-60.,3.73797097907861));
#667=CARTESIAN_POINT('',(-53.55,-60.,4.07795733547004));
#668=CARTESIAN_POINT('',(-56.45,-60.,0.));
#669=CARTESIAN_POINT('',(-56.45,-60.,4.07795733547004));
#670=CARTESIAN_POINT('',(-56.45,-60.,0.));
#671=CARTESIAN_POINT('',(-56.45,-58.55,0.));
#672=CARTESIAN_POINT('',(-55.,-58.55,0.));
#673=CARTESIAN_POINT('',(-53.55,-58.55,0.));
#674=CARTESIAN_POINT('',(-53.55,-60.,0.));
#675=CARTESIAN_POINT('',(0.,0.,0.));
ENDSEC;
END-ISO-10303-21;
