ISO-10303-21;
HEADER;
/* Generated by software containing ST-Developer
 * from STEP Tools, Inc. (www.steptools.com) 
 */
/* OPTION: using custom schema-name function */

FILE_DESCRIPTION(
/* description */ (''),
/* implementation_level */ '2;1');

FILE_NAME(
/* name */ 'SnapfitHook_25',
/* time_stamp */ '2026-06-10T19:33:43+03:00',
/* author */ (''),
/* organization */ (''),
/* preprocessor_version */ 'ST-DEVELOPER v16.5',
/* originating_system */ 'Rhino 7.23',
/* authorisation */ '');

FILE_SCHEMA (('CONFIG_CONTROL_DESIGN'));
ENDSEC;

DATA;
#10=SHAPE_REPRESENTATION_RELATIONSHIP('','',#617,#12);
#11=MANIFOLD_SOLID_BREP('brep_1',#13);
#12=ADVANCED_BREP_SHAPE_REPRESENTATION('brep_rep_0',(#11,#649),#616);
#13=CLOSED_SHELL('',(#14,#15,#16,#17,#18,#19,#20,#21,#22,#23,#24,#25,#26,
#27,#28,#29,#30,#31,#32,#33,#34,#35,#36,#37,#38,#39,#40,#41,#42,#43));
#14=ADVANCED_FACE('',(#44),#516,.T.);
#15=ADVANCED_FACE('',(#45),#517,.F.);
#16=ADVANCED_FACE('',(#46),#518,.T.);
#17=ADVANCED_FACE('',(#47),#501,.T.);
#18=ADVANCED_FACE('',(#48),#502,.T.);
#19=ADVANCED_FACE('',(#49),#503,.T.);
#20=ADVANCED_FACE('',(#50),#504,.T.);
#21=ADVANCED_FACE('',(#51),#519,.F.);
#22=ADVANCED_FACE('',(#52),#505,.T.);
#23=ADVANCED_FACE('',(#53),#520,.T.);
#24=ADVANCED_FACE('',(#54),#521,.T.);
#25=ADVANCED_FACE('',(#55),#522,.T.);
#26=ADVANCED_FACE('',(#56),#506,.T.);
#27=ADVANCED_FACE('',(#57),#523,.T.);
#28=ADVANCED_FACE('',(#58),#524,.T.);
#29=ADVANCED_FACE('',(#59),#525,.F.);
#30=ADVANCED_FACE('',(#60),#507,.T.);
#31=ADVANCED_FACE('',(#61),#526,.T.);
#32=ADVANCED_FACE('',(#62),#508,.T.);
#33=ADVANCED_FACE('',(#63),#527,.T.);
#34=ADVANCED_FACE('',(#64),#509,.T.);
#35=ADVANCED_FACE('',(#65),#528,.T.);
#36=ADVANCED_FACE('',(#66),#529,.T.);
#37=ADVANCED_FACE('',(#67),#510,.T.);
#38=ADVANCED_FACE('',(#68),#511,.T.);
#39=ADVANCED_FACE('',(#69),#530,.T.);
#40=ADVANCED_FACE('',(#70),#512,.T.);
#41=ADVANCED_FACE('',(#71),#513,.T.);
#42=ADVANCED_FACE('',(#72),#514,.T.);
#43=ADVANCED_FACE('',(#73),#515,.T.);
#44=FACE_OUTER_BOUND('',#74,.T.);
#45=FACE_OUTER_BOUND('',#75,.T.);
#46=FACE_OUTER_BOUND('',#76,.T.);
#47=FACE_OUTER_BOUND('',#77,.T.);
#48=FACE_OUTER_BOUND('',#78,.T.);
#49=FACE_OUTER_BOUND('',#79,.T.);
#50=FACE_OUTER_BOUND('',#80,.T.);
#51=FACE_OUTER_BOUND('',#81,.T.);
#52=FACE_OUTER_BOUND('',#82,.T.);
#53=FACE_OUTER_BOUND('',#83,.T.);
#54=FACE_OUTER_BOUND('',#84,.T.);
#55=FACE_OUTER_BOUND('',#85,.T.);
#56=FACE_OUTER_BOUND('',#86,.T.);
#57=FACE_OUTER_BOUND('',#87,.T.);
#58=FACE_OUTER_BOUND('',#88,.T.);
#59=FACE_OUTER_BOUND('',#89,.T.);
#60=FACE_OUTER_BOUND('',#90,.T.);
#61=FACE_OUTER_BOUND('',#91,.T.);
#62=FACE_OUTER_BOUND('',#92,.T.);
#63=FACE_OUTER_BOUND('',#93,.T.);
#64=FACE_OUTER_BOUND('',#94,.T.);
#65=FACE_OUTER_BOUND('',#95,.T.);
#66=FACE_OUTER_BOUND('',#96,.T.);
#67=FACE_OUTER_BOUND('',#97,.T.);
#68=FACE_OUTER_BOUND('',#98,.T.);
#69=FACE_OUTER_BOUND('',#99,.T.);
#70=FACE_OUTER_BOUND('',#100,.T.);
#71=FACE_OUTER_BOUND('',#101,.T.);
#72=FACE_OUTER_BOUND('',#102,.T.);
#73=FACE_OUTER_BOUND('',#103,.T.);
#74=EDGE_LOOP('',(#104,#105,#106,#107));
#75=EDGE_LOOP('',(#108,#109,#110,#111));
#76=EDGE_LOOP('',(#112,#113,#114,#115,#116));
#77=EDGE_LOOP('',(#117,#118,#119,#120,#121,#122));
#78=EDGE_LOOP('',(#123,#124,#125,#126,#127,#128));
#79=EDGE_LOOP('',(#129,#130,#131,#132,#133,#134,#135,#136,#137,#138,#139));
#80=EDGE_LOOP('',(#140,#141,#142,#143));
#81=EDGE_LOOP('',(#144,#145,#146,#147));
#82=EDGE_LOOP('',(#148,#149,#150,#151));
#83=EDGE_LOOP('',(#152,#153,#154,#155));
#84=EDGE_LOOP('',(#156,#157,#158,#159));
#85=EDGE_LOOP('',(#160,#161,#162,#163));
#86=EDGE_LOOP('',(#164,#165,#166,#167));
#87=EDGE_LOOP('',(#168,#169,#170,#171));
#88=EDGE_LOOP('',(#172,#173,#174,#175,#176));
#89=EDGE_LOOP('',(#177,#178,#179,#180));
#90=EDGE_LOOP('',(#181,#182,#183,#184));
#91=EDGE_LOOP('',(#185,#186,#187,#188));
#92=EDGE_LOOP('',(#189,#190,#191,#192));
#93=EDGE_LOOP('',(#193,#194,#195,#196));
#94=EDGE_LOOP('',(#197,#198,#199,#200));
#95=EDGE_LOOP('',(#201,#202,#203,#204));
#96=EDGE_LOOP('',(#205,#206,#207,#208));
#97=EDGE_LOOP('',(#209,#210,#211,#212));
#98=EDGE_LOOP('',(#213,#214,#215,#216));
#99=EDGE_LOOP('',(#217,#218,#219,#220));
#100=EDGE_LOOP('',(#221,#222,#223,#224));
#101=EDGE_LOOP('',(#225,#226,#227,#228,#229,#230,#231,#232,#233,#234,#235,
#236,#237,#238,#239,#240,#241,#242,#243,#244,#245,#246,#247,#248,#249,#250,
#251));
#102=EDGE_LOOP('',(#252,#253,#254,#255));
#103=EDGE_LOOP('',(#256,#257,#258,#259,#260,#261,#262,#263,#264,#265,#266,
#267,#268,#269,#270,#271,#272,#273));
#104=ORIENTED_EDGE('',*,*,#274,.T.);
#105=ORIENTED_EDGE('',*,*,#276,.F.);
#106=ORIENTED_EDGE('',*,*,#321,.T.);
#107=ORIENTED_EDGE('',*,*,#275,.F.);
#108=ORIENTED_EDGE('',*,*,#281,.T.);
#109=ORIENTED_EDGE('',*,*,#282,.T.);
#110=ORIENTED_EDGE('',*,*,#283,.F.);
#111=ORIENTED_EDGE('',*,*,#285,.F.);
#112=ORIENTED_EDGE('',*,*,#315,.T.);
#113=ORIENTED_EDGE('',*,*,#316,.T.);
#114=ORIENTED_EDGE('',*,*,#317,.T.);
#115=ORIENTED_EDGE('',*,*,#280,.T.);
#116=ORIENTED_EDGE('',*,*,#318,.F.);
#117=ORIENTED_EDGE('',*,*,#305,.T.);
#118=ORIENTED_EDGE('',*,*,#304,.T.);
#119=ORIENTED_EDGE('',*,*,#285,.T.);
#120=ORIENTED_EDGE('',*,*,#284,.T.);
#121=ORIENTED_EDGE('',*,*,#277,.F.);
#122=ORIENTED_EDGE('',*,*,#303,.F.);
#123=ORIENTED_EDGE('',*,*,#294,.T.);
#124=ORIENTED_EDGE('',*,*,#292,.T.);
#125=ORIENTED_EDGE('',*,*,#277,.T.);
#126=ORIENTED_EDGE('',*,*,#279,.F.);
#127=ORIENTED_EDGE('',*,*,#280,.F.);
#128=ORIENTED_EDGE('',*,*,#278,.T.);
#129=ORIENTED_EDGE('',*,*,#298,.F.);
#130=ORIENTED_EDGE('',*,*,#301,.T.);
#131=ORIENTED_EDGE('',*,*,#356,.T.);
#132=ORIENTED_EDGE('',*,*,#307,.T.);
#133=ORIENTED_EDGE('',*,*,#303,.T.);
#134=ORIENTED_EDGE('',*,*,#292,.F.);
#135=ORIENTED_EDGE('',*,*,#296,.T.);
#136=ORIENTED_EDGE('',*,*,#287,.F.);
#137=ORIENTED_EDGE('',*,*,#290,.T.);
#138=ORIENTED_EDGE('',*,*,#309,.F.);
#139=ORIENTED_EDGE('',*,*,#313,.T.);
#140=ORIENTED_EDGE('',*,*,#312,.T.);
#141=ORIENTED_EDGE('',*,*,#309,.T.);
#142=ORIENTED_EDGE('',*,*,#289,.F.);
#143=ORIENTED_EDGE('',*,*,#286,.T.);
#144=ORIENTED_EDGE('',*,*,#291,.T.);
#145=ORIENTED_EDGE('',*,*,#289,.T.);
#146=ORIENTED_EDGE('',*,*,#290,.F.);
#147=ORIENTED_EDGE('',*,*,#288,.F.);
#148=ORIENTED_EDGE('',*,*,#293,.T.);
#149=ORIENTED_EDGE('',*,*,#288,.T.);
#150=ORIENTED_EDGE('',*,*,#287,.T.);
#151=ORIENTED_EDGE('',*,*,#295,.F.);
#152=ORIENTED_EDGE('',*,*,#295,.T.);
#153=ORIENTED_EDGE('',*,*,#296,.F.);
#154=ORIENTED_EDGE('',*,*,#294,.F.);
#155=ORIENTED_EDGE('',*,*,#297,.T.);
#156=ORIENTED_EDGE('',*,*,#302,.T.);
#157=ORIENTED_EDGE('',*,*,#300,.T.);
#158=ORIENTED_EDGE('',*,*,#301,.F.);
#159=ORIENTED_EDGE('',*,*,#299,.F.);
#160=ORIENTED_EDGE('',*,*,#307,.F.);
#161=ORIENTED_EDGE('',*,*,#306,.T.);
#162=ORIENTED_EDGE('',*,*,#308,.T.);
#163=ORIENTED_EDGE('',*,*,#305,.F.);
#164=ORIENTED_EDGE('',*,*,#310,.T.);
#165=ORIENTED_EDGE('',*,*,#299,.T.);
#166=ORIENTED_EDGE('',*,*,#298,.T.);
#167=ORIENTED_EDGE('',*,*,#311,.F.);
#168=ORIENTED_EDGE('',*,*,#311,.T.);
#169=ORIENTED_EDGE('',*,*,#313,.F.);
#170=ORIENTED_EDGE('',*,*,#312,.F.);
#171=ORIENTED_EDGE('',*,*,#314,.T.);
#172=ORIENTED_EDGE('',*,*,#319,.T.);
#173=ORIENTED_EDGE('',*,*,#316,.F.);
#174=ORIENTED_EDGE('',*,*,#315,.F.);
#175=ORIENTED_EDGE('',*,*,#320,.F.);
#176=ORIENTED_EDGE('',*,*,#321,.F.);
#177=ORIENTED_EDGE('',*,*,#323,.T.);
#178=ORIENTED_EDGE('',*,*,#324,.T.);
#179=ORIENTED_EDGE('',*,*,#325,.F.);
#180=ORIENTED_EDGE('',*,*,#322,.F.);
#181=ORIENTED_EDGE('',*,*,#326,.T.);
#182=ORIENTED_EDGE('',*,*,#327,.T.);
#183=ORIENTED_EDGE('',*,*,#328,.F.);
#184=ORIENTED_EDGE('',*,*,#324,.F.);
#185=ORIENTED_EDGE('',*,*,#329,.T.);
#186=ORIENTED_EDGE('',*,*,#330,.T.);
#187=ORIENTED_EDGE('',*,*,#331,.F.);
#188=ORIENTED_EDGE('',*,*,#327,.F.);
#189=ORIENTED_EDGE('',*,*,#332,.T.);
#190=ORIENTED_EDGE('',*,*,#333,.T.);
#191=ORIENTED_EDGE('',*,*,#334,.F.);
#192=ORIENTED_EDGE('',*,*,#330,.F.);
#193=ORIENTED_EDGE('',*,*,#335,.T.);
#194=ORIENTED_EDGE('',*,*,#336,.T.);
#195=ORIENTED_EDGE('',*,*,#337,.F.);
#196=ORIENTED_EDGE('',*,*,#333,.F.);
#197=ORIENTED_EDGE('',*,*,#345,.T.);
#198=ORIENTED_EDGE('',*,*,#339,.F.);
#199=ORIENTED_EDGE('',*,*,#336,.F.);
#200=ORIENTED_EDGE('',*,*,#338,.T.);
#201=ORIENTED_EDGE('',*,*,#342,.F.);
#202=ORIENTED_EDGE('',*,*,#340,.F.);
#203=ORIENTED_EDGE('',*,*,#341,.T.);
#204=ORIENTED_EDGE('',*,*,#274,.F.);
#205=ORIENTED_EDGE('',*,*,#347,.T.);
#206=ORIENTED_EDGE('',*,*,#346,.T.);
#207=ORIENTED_EDGE('',*,*,#348,.F.);
#208=ORIENTED_EDGE('',*,*,#345,.F.);
#209=ORIENTED_EDGE('',*,*,#349,.T.);
#210=ORIENTED_EDGE('',*,*,#340,.T.);
#211=ORIENTED_EDGE('',*,*,#350,.F.);
#212=ORIENTED_EDGE('',*,*,#351,.F.);
#213=ORIENTED_EDGE('',*,*,#352,.T.);
#214=ORIENTED_EDGE('',*,*,#344,.F.);
#215=ORIENTED_EDGE('',*,*,#346,.F.);
#216=ORIENTED_EDGE('',*,*,#343,.T.);
#217=ORIENTED_EDGE('',*,*,#354,.T.);
#218=ORIENTED_EDGE('',*,*,#351,.T.);
#219=ORIENTED_EDGE('',*,*,#353,.F.);
#220=ORIENTED_EDGE('',*,*,#352,.F.);
#221=ORIENTED_EDGE('',*,*,#306,.F.);
#222=ORIENTED_EDGE('',*,*,#356,.F.);
#223=ORIENTED_EDGE('',*,*,#300,.F.);
#224=ORIENTED_EDGE('',*,*,#355,.T.);
#225=ORIENTED_EDGE('',*,*,#276,.T.);
#226=ORIENTED_EDGE('',*,*,#341,.F.);
#227=ORIENTED_EDGE('',*,*,#349,.F.);
#228=ORIENTED_EDGE('',*,*,#354,.F.);
#229=ORIENTED_EDGE('',*,*,#343,.F.);
#230=ORIENTED_EDGE('',*,*,#347,.F.);
#231=ORIENTED_EDGE('',*,*,#338,.F.);
#232=ORIENTED_EDGE('',*,*,#335,.F.);
#233=ORIENTED_EDGE('',*,*,#332,.F.);
#234=ORIENTED_EDGE('',*,*,#329,.F.);
#235=ORIENTED_EDGE('',*,*,#326,.F.);
#236=ORIENTED_EDGE('',*,*,#323,.F.);
#237=ORIENTED_EDGE('',*,*,#357,.F.);
#238=ORIENTED_EDGE('',*,*,#281,.F.);
#239=ORIENTED_EDGE('',*,*,#304,.F.);
#240=ORIENTED_EDGE('',*,*,#308,.F.);
#241=ORIENTED_EDGE('',*,*,#355,.F.);
#242=ORIENTED_EDGE('',*,*,#302,.F.);
#243=ORIENTED_EDGE('',*,*,#310,.F.);
#244=ORIENTED_EDGE('',*,*,#314,.F.);
#245=ORIENTED_EDGE('',*,*,#286,.F.);
#246=ORIENTED_EDGE('',*,*,#291,.F.);
#247=ORIENTED_EDGE('',*,*,#293,.F.);
#248=ORIENTED_EDGE('',*,*,#297,.F.);
#249=ORIENTED_EDGE('',*,*,#278,.F.);
#250=ORIENTED_EDGE('',*,*,#317,.F.);
#251=ORIENTED_EDGE('',*,*,#319,.F.);
#252=ORIENTED_EDGE('',*,*,#358,.F.);
#253=ORIENTED_EDGE('',*,*,#282,.F.);
#254=ORIENTED_EDGE('',*,*,#357,.T.);
#255=ORIENTED_EDGE('',*,*,#322,.T.);
#256=ORIENTED_EDGE('',*,*,#320,.T.);
#257=ORIENTED_EDGE('',*,*,#318,.T.);
#258=ORIENTED_EDGE('',*,*,#279,.T.);
#259=ORIENTED_EDGE('',*,*,#284,.F.);
#260=ORIENTED_EDGE('',*,*,#283,.T.);
#261=ORIENTED_EDGE('',*,*,#358,.T.);
#262=ORIENTED_EDGE('',*,*,#325,.T.);
#263=ORIENTED_EDGE('',*,*,#328,.T.);
#264=ORIENTED_EDGE('',*,*,#331,.T.);
#265=ORIENTED_EDGE('',*,*,#334,.T.);
#266=ORIENTED_EDGE('',*,*,#337,.T.);
#267=ORIENTED_EDGE('',*,*,#339,.T.);
#268=ORIENTED_EDGE('',*,*,#348,.T.);
#269=ORIENTED_EDGE('',*,*,#344,.T.);
#270=ORIENTED_EDGE('',*,*,#353,.T.);
#271=ORIENTED_EDGE('',*,*,#350,.T.);
#272=ORIENTED_EDGE('',*,*,#342,.T.);
#273=ORIENTED_EDGE('',*,*,#275,.T.);
#274=EDGE_CURVE('',#444,#445,#394,.T.);
#275=EDGE_CURVE('',#444,#446,#359,.T.);
#276=EDGE_CURVE('',#447,#445,#360,.T.);
#277=EDGE_CURVE('',#448,#454,#361,.T.);
#278=EDGE_CURVE('',#449,#461,#395,.T.);
#279=EDGE_CURVE('',#450,#454,#396,.T.);
#280=EDGE_CURVE('',#449,#450,#397,.T.);
#281=EDGE_CURVE('',#451,#452,#398,.T.);
#282=EDGE_CURVE('',#452,#453,#399,.T.);
#283=EDGE_CURVE('',#455,#453,#400,.T.);
#284=EDGE_CURVE('',#455,#454,#362,.T.);
#285=EDGE_CURVE('',#451,#455,#363,.T.);
#286=EDGE_CURVE('',#458,#474,#401,.T.);
#287=EDGE_CURVE('',#459,#463,#364,.T.);
#288=EDGE_CURVE('',#457,#459,#365,.T.);
#289=EDGE_CURVE('',#458,#456,#366,.T.);
#290=EDGE_CURVE('',#459,#456,#402,.T.);
#291=EDGE_CURVE('',#457,#458,#403,.T.);
#292=EDGE_CURVE('',#460,#448,#367,.T.);
#293=EDGE_CURVE('',#462,#457,#404,.T.);
#294=EDGE_CURVE('',#461,#460,#368,.T.);
#295=EDGE_CURVE('',#462,#463,#369,.T.);
#296=EDGE_CURVE('',#460,#463,#405,.T.);
#297=EDGE_CURVE('',#461,#462,#406,.T.);
#298=EDGE_CURVE('',#464,#475,#370,.T.);
#299=EDGE_CURVE('',#465,#464,#371,.T.);
#300=EDGE_CURVE('',#466,#467,#372,.T.);
#301=EDGE_CURVE('',#464,#467,#407,.T.);
#302=EDGE_CURVE('',#465,#466,#408,.T.);
#303=EDGE_CURVE('',#468,#448,#373,.T.);
#304=EDGE_CURVE('',#469,#451,#409,.T.);
#305=EDGE_CURVE('',#468,#469,#374,.T.);
#306=EDGE_CURVE('',#471,#470,#375,.T.);
#307=EDGE_CURVE('',#471,#468,#410,.T.);
#308=EDGE_CURVE('',#470,#469,#411,.T.);
#309=EDGE_CURVE('',#472,#456,#376,.T.);
#310=EDGE_CURVE('',#473,#465,#412,.T.);
#311=EDGE_CURVE('',#473,#475,#377,.T.);
#312=EDGE_CURVE('',#474,#472,#378,.T.);
#313=EDGE_CURVE('',#472,#475,#413,.T.);
#314=EDGE_CURVE('',#474,#473,#414,.T.);
#315=EDGE_CURVE('',#477,#476,#379,.T.);
#316=EDGE_CURVE('',#476,#478,#380,.T.);
#317=EDGE_CURVE('',#478,#449,#415,.T.);
#318=EDGE_CURVE('',#477,#450,#416,.T.);
#319=EDGE_CURVE('',#447,#478,#381,.T.);
#320=EDGE_CURVE('',#446,#477,#382,.T.);
#321=EDGE_CURVE('',#447,#446,#417,.T.);
#322=EDGE_CURVE('',#479,#480,#418,.T.);
#323=EDGE_CURVE('',#479,#481,#419,.T.);
#324=EDGE_CURVE('',#481,#482,#420,.T.);
#325=EDGE_CURVE('',#480,#482,#421,.T.);
#326=EDGE_CURVE('',#481,#483,#422,.T.);
#327=EDGE_CURVE('',#483,#484,#423,.T.);
#328=EDGE_CURVE('',#482,#484,#424,.T.);
#329=EDGE_CURVE('',#483,#485,#425,.T.);
#330=EDGE_CURVE('',#485,#486,#426,.T.);
#331=EDGE_CURVE('',#484,#486,#427,.T.);
#332=EDGE_CURVE('',#485,#487,#428,.T.);
#333=EDGE_CURVE('',#487,#488,#429,.T.);
#334=EDGE_CURVE('',#486,#488,#430,.T.);
#335=EDGE_CURVE('',#487,#489,#431,.T.);
#336=EDGE_CURVE('',#489,#490,#432,.T.);
#337=EDGE_CURVE('',#488,#490,#433,.T.);
#338=EDGE_CURVE('',#489,#493,#434,.T.);
#339=EDGE_CURVE('',#490,#494,#435,.T.);
#340=EDGE_CURVE('',#491,#492,#436,.T.);
#341=EDGE_CURVE('',#491,#445,#383,.T.);
#342=EDGE_CURVE('',#492,#444,#384,.T.);
#343=EDGE_CURVE('',#495,#499,#385,.T.);
#344=EDGE_CURVE('',#496,#500,#386,.T.);
#345=EDGE_CURVE('',#493,#494,#437,.T.);
#346=EDGE_CURVE('',#495,#496,#387,.T.);
#347=EDGE_CURVE('',#493,#495,#438,.T.);
#348=EDGE_CURVE('',#494,#496,#439,.T.);
#349=EDGE_CURVE('',#497,#491,#440,.T.);
#350=EDGE_CURVE('',#498,#492,#441,.T.);
#351=EDGE_CURVE('',#497,#498,#388,.T.);
#352=EDGE_CURVE('',#499,#500,#389,.T.);
#353=EDGE_CURVE('',#500,#498,#442,.T.);
#354=EDGE_CURVE('',#499,#497,#443,.T.);
#355=EDGE_CURVE('',#466,#470,#390,.T.);
#356=EDGE_CURVE('',#467,#471,#391,.T.);
#357=EDGE_CURVE('',#452,#479,#392,.T.);
#358=EDGE_CURVE('',#453,#480,#393,.T.);
#359=B_SPLINE_CURVE_WITH_KNOTS('',1,(#775,#776),.UNSPECIFIED.,.F.,.F.,(2,
2),(0.,1.2),.UNSPECIFIED.);
#360=B_SPLINE_CURVE_WITH_KNOTS('',1,(#777,#778),.UNSPECIFIED.,.F.,.F.,(2,
2),(-1.2,0.),.UNSPECIFIED.);
#361=B_SPLINE_CURVE_WITH_KNOTS('',1,(#779,#780),.UNSPECIFIED.,.F.,.F.,(2,
2),(8.00000000000026,10.0000000000001),.UNSPECIFIED.);
#362=B_SPLINE_CURVE_WITH_KNOTS('',1,(#809,#810),.UNSPECIFIED.,.F.,.F.,(2,
2),(-3.00000000000011,1.42696166292367E-7),.UNSPECIFIED.);
#363=B_SPLINE_CURVE_WITH_KNOTS('',1,(#811,#812),.UNSPECIFIED.,.F.,.F.,(2,
2),(0.,4.),.UNSPECIFIED.);
#364=B_SPLINE_CURVE_WITH_KNOTS('',1,(#816,#817),.UNSPECIFIED.,.F.,.F.,(2,
2),(1.24544186211446,2.72911223787223),.UNSPECIFIED.);
#365=B_SPLINE_CURVE_WITH_KNOTS('',1,(#818,#819),.UNSPECIFIED.,.F.,.F.,(2,
2),(1.00078120753102E-14,5.99999999999988),.UNSPECIFIED.);
#366=B_SPLINE_CURVE_WITH_KNOTS('',1,(#820,#821),.UNSPECIFIED.,.F.,.F.,(2,
2),(2.15383266777274E-14,5.99999999999988),.UNSPECIFIED.);
#367=B_SPLINE_CURVE_WITH_KNOTS('',1,(#828,#829),.UNSPECIFIED.,.F.,.F.,(2,
2),(6.50000000000009,8.00000000000026),.UNSPECIFIED.);
#368=B_SPLINE_CURVE_WITH_KNOTS('',1,(#833,#834),.UNSPECIFIED.,.F.,.F.,(2,
2),(1.06660712002234E-13,5.99999999999989),.UNSPECIFIED.);
#369=B_SPLINE_CURVE_WITH_KNOTS('',1,(#835,#836),.UNSPECIFIED.,.F.,.F.,(2,
2),(7.11020774684096E-14,5.99999999999989),.UNSPECIFIED.);
#370=B_SPLINE_CURVE_WITH_KNOTS('',1,(#843,#844),.UNSPECIFIED.,.F.,.F.,(2,
2),(0.25,0.75),.UNSPECIFIED.);
#371=B_SPLINE_CURVE_WITH_KNOTS('',1,(#845,#846),.UNSPECIFIED.,.F.,.F.,(2,
2),(1.02279296143596E-14,6.00000000000008),.UNSPECIFIED.);
#372=B_SPLINE_CURVE_WITH_KNOTS('',1,(#847,#848),.UNSPECIFIED.,.F.,.F.,(2,
2),(3.19744231092025E-13,5.99999999999991),.UNSPECIFIED.);
#373=B_SPLINE_CURVE_WITH_KNOTS('',1,(#855,#856),.UNSPECIFIED.,.F.,.F.,(2,
2),(0.249088372422891,2.97820061029512),.UNSPECIFIED.);
#374=B_SPLINE_CURVE_WITH_KNOTS('',1,(#860,#861),.UNSPECIFIED.,.F.,.F.,(2,
2),(0.,6.00000000000016),.UNSPECIFIED.);
#375=B_SPLINE_CURVE_WITH_KNOTS('',1,(#862,#863),.UNSPECIFIED.,.F.,.F.,(2,
2),(1.70530256582419E-13,5.99999999999998),.UNSPECIFIED.);
#376=B_SPLINE_CURVE_WITH_KNOTS('',1,(#870,#871),.UNSPECIFIED.,.F.,.F.,(2,
2),(2.49999999999982,3.49999999999964),.UNSPECIFIED.);
#377=B_SPLINE_CURVE_WITH_KNOTS('',1,(#875,#876),.UNSPECIFIED.,.F.,.F.,(2,
2),(3.07670555699248E-14,5.99999999999985),.UNSPECIFIED.);
#378=B_SPLINE_CURVE_WITH_KNOTS('',1,(#877,#878),.UNSPECIFIED.,.F.,.F.,(2,
2),(6.41708908233265E-14,5.99999999999985),.UNSPECIFIED.);
#379=B_SPLINE_CURVE_WITH_KNOTS('',3,(#885,#886,#887,#888),.UNSPECIFIED.,
 .F.,.F.,(4,4),(0.,2.19448542147),.UNSPECIFIED.);
#380=B_SPLINE_CURVE_WITH_KNOTS('',3,(#889,#890,#891,#892),.UNSPECIFIED.,
 .F.,.F.,(4,4),(0.,2.19448542147003),.UNSPECIFIED.);
#381=B_SPLINE_CURVE_WITH_KNOTS('',1,(#903,#904),.UNSPECIFIED.,.F.,.F.,(2,
2),(-5.97820061029523,-2.11363103865081),.UNSPECIFIED.);
#382=B_SPLINE_CURVE_WITH_KNOTS('',1,(#905,#906),.UNSPECIFIED.,.F.,.F.,(2,
2),(-5.97820061029523,-2.1136310386504),.UNSPECIFIED.);
#383=B_SPLINE_CURVE_WITH_KNOTS('',1,(#967,#968),.UNSPECIFIED.,.F.,.F.,(2,
2),(-8.97820061029523,-7.67820061029523),.UNSPECIFIED.);
#384=B_SPLINE_CURVE_WITH_KNOTS('',1,(#969,#970),.UNSPECIFIED.,.F.,.F.,(2,
2),(-8.97820061029523,-7.67820061029523),.UNSPECIFIED.);
#385=B_SPLINE_CURVE_WITH_KNOTS('',1,(#971,#972),.UNSPECIFIED.,.F.,.F.,(2,
2),(-9.37397329872934,-9.07602095811014),.UNSPECIFIED.);
#386=B_SPLINE_CURVE_WITH_KNOTS('',1,(#973,#974),.UNSPECIFIED.,.F.,.F.,(2,
2),(-9.37397312665837,-9.07602078603892),.UNSPECIFIED.);
#387=B_SPLINE_CURVE_WITH_KNOTS('',1,(#977,#978),.UNSPECIFIED.,.F.,.F.,(2,
2),(-1.29403998828983E-14,3.99999999999999),.UNSPECIFIED.);
#388=B_SPLINE_CURVE_WITH_KNOTS('',1,(#999,#1000),.UNSPECIFIED.,.F.,.F.,
(2,2),(8.21565038222616E-15,4.00000000000001),.UNSPECIFIED.);
#389=B_SPLINE_CURVE_WITH_KNOTS('',1,(#1001,#1002),.UNSPECIFIED.,.F.,.F.,
(2,2),(-3.99680288865056E-15,4.),.UNSPECIFIED.);
#390=B_SPLINE_CURVE_WITH_KNOTS('',1,(#1009,#1010),.UNSPECIFIED.,.F.,.F.,
(2,2),(0.,2.99999999999996),.UNSPECIFIED.);
#391=B_SPLINE_CURVE_WITH_KNOTS('',1,(#1011,#1012),.UNSPECIFIED.,.F.,.F.,
(2,2),(0.,2.99999999999996),.UNSPECIFIED.);
#392=B_SPLINE_CURVE_WITH_KNOTS('',1,(#1013,#1014),.UNSPECIFIED.,.F.,.F.,
(2,2),(0.,7.58330762025826),.UNSPECIFIED.);
#393=B_SPLINE_CURVE_WITH_KNOTS('',1,(#1015,#1016),.UNSPECIFIED.,.F.,.F.,
(2,2),(0.,7.58330762025826),.UNSPECIFIED.);
#394=(
BOUNDED_CURVE()
B_SPLINE_CURVE(2,(#772,#773,#774),.UNSPECIFIED.,.F.,.F.)
B_SPLINE_CURVE_WITH_KNOTS((3,3),(-343.03398188906,-338.691623939925),
 .UNSPECIFIED.)
CURVE()
GEOMETRIC_REPRESENTATION_ITEM()
RATIONAL_B_SPLINE_CURVE((1.,0.991071249821236,1.))
REPRESENTATION_ITEM('')
);
#395=(
BOUNDED_CURVE()
B_SPLINE_CURVE(2,(#781,#782,#783),.UNSPECIFIED.,.F.,.F.)
B_SPLINE_CURVE_WITH_KNOTS((3,3),(-90.4618440333594,-87.9618438018469),
 .UNSPECIFIED.)
CURVE()
GEOMETRIC_REPRESENTATION_ITEM()
RATIONAL_B_SPLINE_CURVE((1.,1.,1.))
REPRESENTATION_ITEM('')
);
#396=(
BOUNDED_CURVE()
B_SPLINE_CURVE(2,(#784,#785,#786),.UNSPECIFIED.,.F.,.F.)
B_SPLINE_CURVE_WITH_KNOTS((3,3),(-90.4618440333594,-89.4618440458798),
 .UNSPECIFIED.)
CURVE()
GEOMETRIC_REPRESENTATION_ITEM()
RATIONAL_B_SPLINE_CURVE((1.,1.,1.))
REPRESENTATION_ITEM('')
);
#397=(
BOUNDED_CURVE()
B_SPLINE_CURVE(1,(#787,#788),.UNSPECIFIED.,.F.,.F.)
B_SPLINE_CURVE_WITH_KNOTS((2,2),(0.,4.),.UNSPECIFIED.)
CURVE()
GEOMETRIC_REPRESENTATION_ITEM()
RATIONAL_B_SPLINE_CURVE((1.,1.))
REPRESENTATION_ITEM('')
);
#398=(
BOUNDED_CURVE()
B_SPLINE_CURVE(2,(#789,#790,#791,#792,#793,#794,#795,#796,#797),
 .UNSPECIFIED.,.F.,.F.)
B_SPLINE_CURVE_WITH_KNOTS((3,2,2,2,3),(-72.0779030103248,-71.2925047551784,
-70.5071065000319,-69.7217082448855,-68.9363099897391),.UNSPECIFIED.)
CURVE()
GEOMETRIC_REPRESENTATION_ITEM()
RATIONAL_B_SPLINE_CURVE((1.,0.923879514955879,1.,0.923879514955879,1.,0.923879514955879,
1.,0.923879514955879,1.))
REPRESENTATION_ITEM('')
);
#399=(
BOUNDED_CURVE()
B_SPLINE_CURVE(1,(#798,#799),.UNSPECIFIED.,.F.,.F.)
B_SPLINE_CURVE_WITH_KNOTS((2,2),(0.,4.),.UNSPECIFIED.)
CURVE()
GEOMETRIC_REPRESENTATION_ITEM()
RATIONAL_B_SPLINE_CURVE((1.,1.))
REPRESENTATION_ITEM('')
);
#400=(
BOUNDED_CURVE()
B_SPLINE_CURVE(2,(#800,#801,#802,#803,#804,#805,#806,#807,#808),
 .UNSPECIFIED.,.F.,.F.)
B_SPLINE_CURVE_WITH_KNOTS((3,2,2,2,3),(-72.0779030103248,-71.2925047551784,
-70.5071065000319,-69.7217082448855,-68.9363099897391),.UNSPECIFIED.)
CURVE()
GEOMETRIC_REPRESENTATION_ITEM()
RATIONAL_B_SPLINE_CURVE((1.,0.923879514955879,1.,0.923879514955879,1.,0.923879514955879,
1.,0.923879514955879,1.))
REPRESENTATION_ITEM('')
);
#401=(
BOUNDED_CURVE()
B_SPLINE_CURVE(2,(#813,#814,#815),.UNSPECIFIED.,.F.,.F.)
B_SPLINE_CURVE_WITH_KNOTS((3,3),(-86.4905719300978,-85.8239052634312),
 .UNSPECIFIED.)
CURVE()
GEOMETRIC_REPRESENTATION_ITEM()
RATIONAL_B_SPLINE_CURVE((1.,1.,1.))
REPRESENTATION_ITEM('')
);
#402=(
BOUNDED_CURVE()
B_SPLINE_CURVE(2,(#822,#823,#824),.UNSPECIFIED.,.F.,.F.)
B_SPLINE_CURVE_WITH_KNOTS((3,3),(0.,1.),.UNSPECIFIED.)
CURVE()
GEOMETRIC_REPRESENTATION_ITEM()
RATIONAL_B_SPLINE_CURVE((1.,0.707106781186541,1.))
REPRESENTATION_ITEM('')
);
#403=(
BOUNDED_CURVE()
B_SPLINE_CURVE(2,(#825,#826,#827),.UNSPECIFIED.,.F.,.F.)
B_SPLINE_CURVE_WITH_KNOTS((3,3),(0.,1.),.UNSPECIFIED.)
CURVE()
GEOMETRIC_REPRESENTATION_ITEM()
RATIONAL_B_SPLINE_CURVE((1.,0.707106781186545,1.))
REPRESENTATION_ITEM('')
);
#404=(
BOUNDED_CURVE()
B_SPLINE_CURVE(2,(#830,#831,#832),.UNSPECIFIED.,.F.,.F.)
B_SPLINE_CURVE_WITH_KNOTS((3,3),(-87.2270701474567,-86.8818612165524),
 .UNSPECIFIED.)
CURVE()
GEOMETRIC_REPRESENTATION_ITEM()
RATIONAL_B_SPLINE_CURVE((1.,1.,1.))
REPRESENTATION_ITEM('')
);
#405=(
BOUNDED_CURVE()
B_SPLINE_CURVE(2,(#837,#838,#839),.UNSPECIFIED.,.F.,.F.)
B_SPLINE_CURVE_WITH_KNOTS((3,3),(-1.,0.),.UNSPECIFIED.)
CURVE()
GEOMETRIC_REPRESENTATION_ITEM()
RATIONAL_B_SPLINE_CURVE((1.,0.707106781186562,1.))
REPRESENTATION_ITEM('')
);
#406=(
BOUNDED_CURVE()
B_SPLINE_CURVE(2,(#840,#841,#842),.UNSPECIFIED.,.F.,.F.)
B_SPLINE_CURVE_WITH_KNOTS((3,3),(-1.,0.),.UNSPECIFIED.)
CURVE()
GEOMETRIC_REPRESENTATION_ITEM()
RATIONAL_B_SPLINE_CURVE((1.,0.707106781186608,1.))
REPRESENTATION_ITEM('')
);
#407=(
BOUNDED_CURVE()
B_SPLINE_CURVE(2,(#849,#850,#851),.UNSPECIFIED.,.F.,.F.)
B_SPLINE_CURVE_WITH_KNOTS((3,3),(0.,1.),.UNSPECIFIED.)
CURVE()
GEOMETRIC_REPRESENTATION_ITEM()
RATIONAL_B_SPLINE_CURVE((1.,0.707106781186559,1.))
REPRESENTATION_ITEM('')
);
#408=(
BOUNDED_CURVE()
B_SPLINE_CURVE(2,(#852,#853,#854),.UNSPECIFIED.,.F.,.F.)
B_SPLINE_CURVE_WITH_KNOTS((3,3),(0.,1.),.UNSPECIFIED.)
CURVE()
GEOMETRIC_REPRESENTATION_ITEM()
RATIONAL_B_SPLINE_CURVE((1.,0.707106781186539,1.))
REPRESENTATION_ITEM('')
);
#409=(
BOUNDED_CURVE()
B_SPLINE_CURVE(2,(#857,#858,#859),.UNSPECIFIED.,.F.,.F.)
B_SPLINE_CURVE_WITH_KNOTS((3,3),(-78.194865165142,-72.0779030103248),
 .UNSPECIFIED.)
CURVE()
GEOMETRIC_REPRESENTATION_ITEM()
RATIONAL_B_SPLINE_CURVE((1.,1.,1.))
REPRESENTATION_ITEM('')
);
#410=(
BOUNDED_CURVE()
B_SPLINE_CURVE(2,(#864,#865,#866),.UNSPECIFIED.,.F.,.F.)
B_SPLINE_CURVE_WITH_KNOTS((3,3),(-1.,0.),.UNSPECIFIED.)
CURVE()
GEOMETRIC_REPRESENTATION_ITEM()
RATIONAL_B_SPLINE_CURVE((1.,0.707106781186573,1.))
REPRESENTATION_ITEM('')
);
#411=(
BOUNDED_CURVE()
B_SPLINE_CURVE(2,(#867,#868,#869),.UNSPECIFIED.,.F.,.F.)
B_SPLINE_CURVE_WITH_KNOTS((3,3),(-1.,0.),.UNSPECIFIED.)
CURVE()
GEOMETRIC_REPRESENTATION_ITEM()
RATIONAL_B_SPLINE_CURVE((1.,0.707106781186573,1.))
REPRESENTATION_ITEM('')
);
#412=(
BOUNDED_CURVE()
B_SPLINE_CURVE(2,(#872,#873,#874),.UNSPECIFIED.,.F.,.F.)
B_SPLINE_CURVE_WITH_KNOTS((3,3),(-84.9905719300978,-83.9905719300977),
 .UNSPECIFIED.)
CURVE()
GEOMETRIC_REPRESENTATION_ITEM()
RATIONAL_B_SPLINE_CURVE((1.,1.,1.))
REPRESENTATION_ITEM('')
);
#413=(
BOUNDED_CURVE()
B_SPLINE_CURVE(2,(#879,#880,#881),.UNSPECIFIED.,.F.,.F.)
B_SPLINE_CURVE_WITH_KNOTS((3,3),(-1.,0.),.UNSPECIFIED.)
CURVE()
GEOMETRIC_REPRESENTATION_ITEM()
RATIONAL_B_SPLINE_CURVE((1.,0.707106781186545,1.))
REPRESENTATION_ITEM('')
);
#414=(
BOUNDED_CURVE()
B_SPLINE_CURVE(2,(#882,#883,#884),.UNSPECIFIED.,.F.,.F.)
B_SPLINE_CURVE_WITH_KNOTS((3,3),(-1.,0.),.UNSPECIFIED.)
CURVE()
GEOMETRIC_REPRESENTATION_ITEM()
RATIONAL_B_SPLINE_CURVE((1.,0.707106781186541,1.))
REPRESENTATION_ITEM('')
);
#415=(
BOUNDED_CURVE()
B_SPLINE_CURVE(2,(#893,#894,#895,#896,#897),.UNSPECIFIED.,.F.,.F.)
B_SPLINE_CURVE_WITH_KNOTS((3,2,3),(-49.6211551223868,-48.1681485688574,
-45.811953495672),.UNSPECIFIED.)
CURVE()
GEOMETRIC_REPRESENTATION_ITEM()
RATIONAL_B_SPLINE_CURVE((1.,0.970684838494517,1.,0.923879542220197,1.))
REPRESENTATION_ITEM('')
);
#416=(
BOUNDED_CURVE()
B_SPLINE_CURVE(2,(#898,#899,#900,#901,#902),.UNSPECIFIED.,.F.,.F.)
B_SPLINE_CURVE_WITH_KNOTS((3,2,3),(-49.6211551223863,-48.1681485688574,
-45.811953495672),.UNSPECIFIED.)
CURVE()
GEOMETRIC_REPRESENTATION_ITEM()
RATIONAL_B_SPLINE_CURVE((1.,0.970684838494536,1.,0.923879542220197,1.))
REPRESENTATION_ITEM('')
);
#417=(
BOUNDED_CURVE()
B_SPLINE_CURVE(2,(#907,#908,#909),.UNSPECIFIED.,.F.,.F.)
B_SPLINE_CURVE_WITH_KNOTS((3,3),(338.691623939925,343.03398188906),
 .UNSPECIFIED.)
CURVE()
GEOMETRIC_REPRESENTATION_ITEM()
RATIONAL_B_SPLINE_CURVE((1.,0.991071249821236,1.))
REPRESENTATION_ITEM('')
);
#418=(
BOUNDED_CURVE()
B_SPLINE_CURVE(1,(#910,#911),.UNSPECIFIED.,.F.,.F.)
B_SPLINE_CURVE_WITH_KNOTS((2,2),(0.,4.),.UNSPECIFIED.)
CURVE()
GEOMETRIC_REPRESENTATION_ITEM()
RATIONAL_B_SPLINE_CURVE((1.,1.))
REPRESENTATION_ITEM('')
);
#419=(
BOUNDED_CURVE()
B_SPLINE_CURVE(2,(#912,#913,#914),.UNSPECIFIED.,.F.,.F.)
B_SPLINE_CURVE_WITH_KNOTS((3,3),(-64.9960852829961,-64.5529037013142),
 .UNSPECIFIED.)
CURVE()
GEOMETRIC_REPRESENTATION_ITEM()
RATIONAL_B_SPLINE_CURVE((1.,0.975549056981057,1.))
REPRESENTATION_ITEM('')
);
#420=(
BOUNDED_CURVE()
B_SPLINE_CURVE(1,(#915,#916),.UNSPECIFIED.,.F.,.F.)
B_SPLINE_CURVE_WITH_KNOTS((2,2),(0.,4.),.UNSPECIFIED.)
CURVE()
GEOMETRIC_REPRESENTATION_ITEM()
RATIONAL_B_SPLINE_CURVE((1.,1.))
REPRESENTATION_ITEM('')
);
#421=(
BOUNDED_CURVE()
B_SPLINE_CURVE(2,(#917,#918,#919),.UNSPECIFIED.,.F.,.F.)
B_SPLINE_CURVE_WITH_KNOTS((3,3),(-64.9960852829961,-64.5529037013142),
 .UNSPECIFIED.)
CURVE()
GEOMETRIC_REPRESENTATION_ITEM()
RATIONAL_B_SPLINE_CURVE((1.,0.975549056981057,1.))
REPRESENTATION_ITEM('')
);
#422=(
BOUNDED_CURVE()
B_SPLINE_CURVE(2,(#920,#921,#922),.UNSPECIFIED.,.F.,.F.)
B_SPLINE_CURVE_WITH_KNOTS((3,3),(-64.5529037013142,-62.7081222669802),
 .UNSPECIFIED.)
CURVE()
GEOMETRIC_REPRESENTATION_ITEM()
RATIONAL_B_SPLINE_CURVE((1.,1.,1.))
REPRESENTATION_ITEM('')
);
#423=(
BOUNDED_CURVE()
B_SPLINE_CURVE(1,(#923,#924),.UNSPECIFIED.,.F.,.F.)
B_SPLINE_CURVE_WITH_KNOTS((2,2),(0.,4.),.UNSPECIFIED.)
CURVE()
GEOMETRIC_REPRESENTATION_ITEM()
RATIONAL_B_SPLINE_CURVE((1.,1.))
REPRESENTATION_ITEM('')
);
#424=(
BOUNDED_CURVE()
B_SPLINE_CURVE(2,(#925,#926,#927),.UNSPECIFIED.,.F.,.F.)
B_SPLINE_CURVE_WITH_KNOTS((3,3),(-64.5529037013142,-62.7081222669802),
 .UNSPECIFIED.)
CURVE()
GEOMETRIC_REPRESENTATION_ITEM()
RATIONAL_B_SPLINE_CURVE((1.,1.,1.))
REPRESENTATION_ITEM('')
);
#425=(
BOUNDED_CURVE()
B_SPLINE_CURVE(2,(#928,#929,#930,#931,#932),.UNSPECIFIED.,.F.,.F.)
B_SPLINE_CURVE_WITH_KNOTS((3,2,3),(-62.7081222669802,-62.5067244761326,
-62.3053266852849),.UNSPECIFIED.)
CURVE()
GEOMETRIC_REPRESENTATION_ITEM()
RATIONAL_B_SPLINE_CURVE((1.,0.875901865487773,1.,0.875901865487773,1.))
REPRESENTATION_ITEM('')
);
#426=(
BOUNDED_CURVE()
B_SPLINE_CURVE(1,(#933,#934),.UNSPECIFIED.,.F.,.F.)
B_SPLINE_CURVE_WITH_KNOTS((2,2),(0.,4.),.UNSPECIFIED.)
CURVE()
GEOMETRIC_REPRESENTATION_ITEM()
RATIONAL_B_SPLINE_CURVE((1.,1.))
REPRESENTATION_ITEM('')
);
#427=(
BOUNDED_CURVE()
B_SPLINE_CURVE(2,(#935,#936,#937,#938,#939),.UNSPECIFIED.,.F.,.F.)
B_SPLINE_CURVE_WITH_KNOTS((3,2,3),(-62.7081222669802,-62.5067244761326,
-62.3053266852849),.UNSPECIFIED.)
CURVE()
GEOMETRIC_REPRESENTATION_ITEM()
RATIONAL_B_SPLINE_CURVE((1.,0.875901865487773,1.,0.875901865487773,1.))
REPRESENTATION_ITEM('')
);
#428=(
BOUNDED_CURVE()
B_SPLINE_CURVE(2,(#940,#941,#942),.UNSPECIFIED.,.F.,.F.)
B_SPLINE_CURVE_WITH_KNOTS((3,3),(-62.3053266852849,-61.0374361638006),
 .UNSPECIFIED.)
CURVE()
GEOMETRIC_REPRESENTATION_ITEM()
RATIONAL_B_SPLINE_CURVE((1.,1.,1.))
REPRESENTATION_ITEM('')
);
#429=(
BOUNDED_CURVE()
B_SPLINE_CURVE(1,(#943,#944),.UNSPECIFIED.,.F.,.F.)
B_SPLINE_CURVE_WITH_KNOTS((2,2),(0.,4.),.UNSPECIFIED.)
CURVE()
GEOMETRIC_REPRESENTATION_ITEM()
RATIONAL_B_SPLINE_CURVE((1.,1.))
REPRESENTATION_ITEM('')
);
#430=(
BOUNDED_CURVE()
B_SPLINE_CURVE(2,(#945,#946,#947),.UNSPECIFIED.,.F.,.F.)
B_SPLINE_CURVE_WITH_KNOTS((3,3),(-62.3053266852849,-61.0374361638006),
 .UNSPECIFIED.)
CURVE()
GEOMETRIC_REPRESENTATION_ITEM()
RATIONAL_B_SPLINE_CURVE((1.,1.,1.))
REPRESENTATION_ITEM('')
);
#431=(
BOUNDED_CURVE()
B_SPLINE_CURVE(2,(#948,#949,#950),.UNSPECIFIED.,.F.,.F.)
B_SPLINE_CURVE_WITH_KNOTS((3,3),(-61.0374361638006,-60.5207717229065),
 .UNSPECIFIED.)
CURVE()
GEOMETRIC_REPRESENTATION_ITEM()
RATIONAL_B_SPLINE_CURVE((1.,0.869471722018763,1.))
REPRESENTATION_ITEM('')
);
#432=(
BOUNDED_CURVE()
B_SPLINE_CURVE(1,(#951,#952),.UNSPECIFIED.,.F.,.F.)
B_SPLINE_CURVE_WITH_KNOTS((2,2),(0.,4.),.UNSPECIFIED.)
CURVE()
GEOMETRIC_REPRESENTATION_ITEM()
RATIONAL_B_SPLINE_CURVE((1.,1.))
REPRESENTATION_ITEM('')
);
#433=(
BOUNDED_CURVE()
B_SPLINE_CURVE(2,(#953,#954,#955),.UNSPECIFIED.,.F.,.F.)
B_SPLINE_CURVE_WITH_KNOTS((3,3),(-61.0374361638006,-60.5207717229065),
 .UNSPECIFIED.)
CURVE()
GEOMETRIC_REPRESENTATION_ITEM()
RATIONAL_B_SPLINE_CURVE((1.,0.869471722018763,1.))
REPRESENTATION_ITEM('')
);
#434=(
BOUNDED_CURVE()
B_SPLINE_CURVE(2,(#956,#957,#958),.UNSPECIFIED.,.F.,.F.)
B_SPLINE_CURVE_WITH_KNOTS((3,3),(-60.5207717229065,-56.6393640759057),
 .UNSPECIFIED.)
CURVE()
GEOMETRIC_REPRESENTATION_ITEM()
RATIONAL_B_SPLINE_CURVE((1.,1.,1.))
REPRESENTATION_ITEM('')
);
#435=(
BOUNDED_CURVE()
B_SPLINE_CURVE(2,(#959,#960,#961),.UNSPECIFIED.,.F.,.F.)
B_SPLINE_CURVE_WITH_KNOTS((3,3),(-60.5207717229065,-56.639364075906),
 .UNSPECIFIED.)
CURVE()
GEOMETRIC_REPRESENTATION_ITEM()
RATIONAL_B_SPLINE_CURVE((1.,1.,1.))
REPRESENTATION_ITEM('')
);
#436=(
BOUNDED_CURVE()
B_SPLINE_CURVE(2,(#962,#963,#964,#965,#966),.UNSPECIFIED.,.F.,.F.)
B_SPLINE_CURVE_WITH_KNOTS((3,2,3),(338.691623939925,340.862802914493,343.03398188906),
 .UNSPECIFIED.)
CURVE()
GEOMETRIC_REPRESENTATION_ITEM()
RATIONAL_B_SPLINE_CURVE((1.,0.997765315548008,1.,0.997765315548009,1.))
REPRESENTATION_ITEM('')
);
#437=(
BOUNDED_CURVE()
B_SPLINE_CURVE(1,(#975,#976),.UNSPECIFIED.,.F.,.F.)
B_SPLINE_CURVE_WITH_KNOTS((2,2),(0.,4.),.UNSPECIFIED.)
CURVE()
GEOMETRIC_REPRESENTATION_ITEM()
RATIONAL_B_SPLINE_CURVE((1.,1.))
REPRESENTATION_ITEM('')
);
#438=(
BOUNDED_CURVE()
B_SPLINE_CURVE(2,(#979,#980,#981),.UNSPECIFIED.,.F.,.F.)
B_SPLINE_CURVE_WITH_KNOTS((3,3),(0.,0.617042426566549),.UNSPECIFIED.)
CURVE()
GEOMETRIC_REPRESENTATION_ITEM()
RATIONAL_B_SPLINE_CURVE((1.,0.952783645094644,1.))
REPRESENTATION_ITEM('')
);
#439=(
BOUNDED_CURVE()
B_SPLINE_CURVE(2,(#982,#983,#984),.UNSPECIFIED.,.F.,.F.)
B_SPLINE_CURVE_WITH_KNOTS((3,3),(0.,0.617042426566549),.UNSPECIFIED.)
CURVE()
GEOMETRIC_REPRESENTATION_ITEM()
RATIONAL_B_SPLINE_CURVE((1.,0.952783645094645,1.))
REPRESENTATION_ITEM('')
);
#440=(
BOUNDED_CURVE()
B_SPLINE_CURVE(2,(#985,#986,#987,#988,#989,#990,#991),.UNSPECIFIED.,.F.,
 .F.)
B_SPLINE_CURVE_WITH_KNOTS((3,2,2,3),(-54.8768042638175,-54.8227922658578,
-54.4243424135474,-54.2904111608686),.UNSPECIFIED.)
CURVE()
GEOMETRIC_REPRESENTATION_ITEM()
RATIONAL_B_SPLINE_CURVE((1.,1.,1.,1.,1.,1.,1.))
REPRESENTATION_ITEM('')
);
#441=(
BOUNDED_CURVE()
B_SPLINE_CURVE(2,(#992,#993,#994,#995,#996,#997,#998),.UNSPECIFIED.,.F.,
 .F.)
B_SPLINE_CURVE_WITH_KNOTS((3,2,2,3),(-54.8768042638173,-54.8227922658578,
-54.4243424135474,-54.2904111608685),.UNSPECIFIED.)
CURVE()
GEOMETRIC_REPRESENTATION_ITEM()
RATIONAL_B_SPLINE_CURVE((1.,1.,1.,1.,1.,1.,1.))
REPRESENTATION_ITEM('')
);
#442=(
BOUNDED_CURVE()
B_SPLINE_CURVE(2,(#1003,#1004,#1005),.UNSPECIFIED.,.F.,.F.)
B_SPLINE_CURVE_WITH_KNOTS((3,3),(0.,0.314159265359023),.UNSPECIFIED.)
CURVE()
GEOMETRIC_REPRESENTATION_ITEM()
RATIONAL_B_SPLINE_CURVE((1.,0.707106781186591,1.))
REPRESENTATION_ITEM('')
);
#443=(
BOUNDED_CURVE()
B_SPLINE_CURVE(2,(#1006,#1007,#1008),.UNSPECIFIED.,.F.,.F.)
B_SPLINE_CURVE_WITH_KNOTS((3,3),(0.,0.314159265359023),.UNSPECIFIED.)
CURVE()
GEOMETRIC_REPRESENTATION_ITEM()
RATIONAL_B_SPLINE_CURVE((1.,0.707106781186592,1.))
REPRESENTATION_ITEM('')
);
#444=VERTEX_POINT('',#715);
#445=VERTEX_POINT('',#716);
#446=VERTEX_POINT('',#717);
#447=VERTEX_POINT('',#718);
#448=VERTEX_POINT('',#719);
#449=VERTEX_POINT('',#720);
#450=VERTEX_POINT('',#721);
#451=VERTEX_POINT('',#722);
#452=VERTEX_POINT('',#723);
#453=VERTEX_POINT('',#724);
#454=VERTEX_POINT('',#725);
#455=VERTEX_POINT('',#726);
#456=VERTEX_POINT('',#727);
#457=VERTEX_POINT('',#728);
#458=VERTEX_POINT('',#729);
#459=VERTEX_POINT('',#730);
#460=VERTEX_POINT('',#731);
#461=VERTEX_POINT('',#732);
#462=VERTEX_POINT('',#733);
#463=VERTEX_POINT('',#734);
#464=VERTEX_POINT('',#735);
#465=VERTEX_POINT('',#736);
#466=VERTEX_POINT('',#737);
#467=VERTEX_POINT('',#738);
#468=VERTEX_POINT('',#739);
#469=VERTEX_POINT('',#740);
#470=VERTEX_POINT('',#741);
#471=VERTEX_POINT('',#742);
#472=VERTEX_POINT('',#743);
#473=VERTEX_POINT('',#744);
#474=VERTEX_POINT('',#745);
#475=VERTEX_POINT('',#746);
#476=VERTEX_POINT('',#747);
#477=VERTEX_POINT('',#748);
#478=VERTEX_POINT('',#749);
#479=VERTEX_POINT('',#750);
#480=VERTEX_POINT('',#751);
#481=VERTEX_POINT('',#752);
#482=VERTEX_POINT('',#753);
#483=VERTEX_POINT('',#754);
#484=VERTEX_POINT('',#755);
#485=VERTEX_POINT('',#756);
#486=VERTEX_POINT('',#757);
#487=VERTEX_POINT('',#758);
#488=VERTEX_POINT('',#759);
#489=VERTEX_POINT('',#760);
#490=VERTEX_POINT('',#761);
#491=VERTEX_POINT('',#762);
#492=VERTEX_POINT('',#763);
#493=VERTEX_POINT('',#764);
#494=VERTEX_POINT('',#765);
#495=VERTEX_POINT('',#766);
#496=VERTEX_POINT('',#767);
#497=VERTEX_POINT('',#768);
#498=VERTEX_POINT('',#769);
#499=VERTEX_POINT('',#770);
#500=VERTEX_POINT('',#771);
#501=PLANE('',#622);
#502=PLANE('',#623);
#503=PLANE('',#624);
#504=PLANE('',#625);
#505=PLANE('',#627);
#506=PLANE('',#631);
#507=PLANE('',#635);
#508=PLANE('',#637);
#509=PLANE('',#639);
#510=PLANE('',#642);
#511=PLANE('',#643);
#512=PLANE('',#645);
#513=PLANE('',#646);
#514=PLANE('',#647);
#515=PLANE('',#648);
#516=CYLINDRICAL_SURFACE('',#619,15.0000000000036);
#517=CYLINDRICAL_SURFACE('',#620,0.999999999999972);
#518=CYLINDRICAL_SURFACE('',#621,2.99999999999995);
#519=CYLINDRICAL_SURFACE('',#626,0.499999999999986);
#520=CYLINDRICAL_SURFACE('',#628,0.500000000000014);
#521=CYLINDRICAL_SURFACE('',#629,0.500000000000028);
#522=CYLINDRICAL_SURFACE('',#630,0.500000000000043);
#523=CYLINDRICAL_SURFACE('',#632,0.500000000000014);
#524=CYLINDRICAL_SURFACE('',#633,15.);
#525=CYLINDRICAL_SURFACE('',#634,1.00000000000045);
#526=CYLINDRICAL_SURFACE('',#636,0.200000000000084);
#527=CYLINDRICAL_SURFACE('',#638,0.500000000000128);
#528=CYLINDRICAL_SURFACE('',#640,15.);
#529=CYLINDRICAL_SURFACE('',#641,0.999999999999986);
#530=CYLINDRICAL_SURFACE('',#644,0.199999999999989);
#531=SHAPE_DEFINITION_REPRESENTATION(#532,#617);
#532=PRODUCT_DEFINITION_SHAPE('Document','',#534);
#533=PRODUCT_DEFINITION_CONTEXT('3D Mechanical Parts',#606,'design');
#534=PRODUCT_DEFINITION('A','First version',#576,#533);
#535=DATE_TIME_ROLE('classification_date');
#536=DATE_TIME_ROLE('creation_date');
#537=APPLIED_DATE_AND_TIME_ASSIGNMENT(#561,#535,(#540));
#538=APPLIED_DATE_AND_TIME_ASSIGNMENT(#563,#536,(#534));
#539=SECURITY_CLASSIFICATION_LEVEL('unclassified');
#540=SECURITY_CLASSIFICATION('A','Security for version',#539);
#541=APPLIED_SECURITY_CLASSIFICATION_ASSIGNMENT(#540,(#576));
#542=APPROVAL_ROLE('Version approval');
#543=APPROVAL_ROLE('Version Security approval');
#544=APPROVAL_ROLE('Definition approval');
#545=APPROVAL_PERSON_ORGANIZATION(#594,#570,#542);
#546=APPROVAL_PERSON_ORGANIZATION(#595,#571,#543);
#547=APPROVAL_PERSON_ORGANIZATION(#598,#572,#544);
#548=COORDINATED_UNIVERSAL_TIME_OFFSET(5,0,.BEHIND.);
#549=LOCAL_TIME(0,0,0.,#548);
#550=LOCAL_TIME(0,0,0.,#548);
#551=LOCAL_TIME(0,0,0.,#548);
#552=LOCAL_TIME(0,0,0.,#548);
#553=LOCAL_TIME(0,0,0.,#548);
#554=CALENDAR_DATE(1999,1,1);
#555=CALENDAR_DATE(1999,1,1);
#556=CALENDAR_DATE(1999,1,1);
#557=CALENDAR_DATE(1999,1,1);
#558=CALENDAR_DATE(1999,1,1);
#559=DATE_AND_TIME(#554,#549);
#560=DATE_AND_TIME(#555,#550);
#561=DATE_AND_TIME(#556,#551);
#562=DATE_AND_TIME(#557,#552);
#563=DATE_AND_TIME(#558,#553);
#564=APPROVAL_DATE_TIME(#559,#570);
#565=APPROVAL_DATE_TIME(#560,#571);
#566=APPROVAL_DATE_TIME(#562,#572);
#567=APPROVAL_STATUS('not_yet_approved');
#568=APPROVAL_STATUS('not_yet_approved');
#569=APPROVAL_STATUS('approved');
#570=APPROVAL(#567,'Version approval');
#571=APPROVAL(#568,'Version Security approval');
#572=APPROVAL(#569,'Definition approval');
#573=APPLIED_APPROVAL_ASSIGNMENT(#570,(#576));
#574=APPLIED_APPROVAL_ASSIGNMENT(#571,(#540));
#575=APPLIED_APPROVAL_ASSIGNMENT(#572,(#534));
#576=PRODUCT_DEFINITION_FORMATION_WITH_SPECIFIED_SOURCE('A',
'First version',#608,.MADE.);
#577=PERSON_AND_ORGANIZATION_ROLE('design_owner');
#578=PERSON_AND_ORGANIZATION_ROLE('creator');
#579=PERSON_AND_ORGANIZATION_ROLE('design_supplier');
#580=PERSON_AND_ORGANIZATION_ROLE('classification_officer');
#581=PERSON_AND_ORGANIZATION_ROLE('creator');
#582=ORGANIZATION('STI','lab','lab');
#583=ORGANIZATION('STI','unknown','unknown');
#584=ORGANIZATION('STI','unknown','unknown');
#585=ORGANIZATION('STI','unknown','unknown');
#586=ORGANIZATION('STI','unknown','unknown');
#587=ORGANIZATION('STI','unknown','unknown');
#588=ORGANIZATION('STI','unknown','unknown');
#589=PERSON('1','Box','vc60',$,$,$);
#590=PERSON('2','last','first',$,$,$);
#591=PERSON('3','President','Mr.',$,$,$);
#592=PERSON_AND_ORGANIZATION(#589,#582);
#593=PERSON_AND_ORGANIZATION(#590,#583);
#594=PERSON_AND_ORGANIZATION(#591,#584);
#595=PERSON_AND_ORGANIZATION(#591,#585);
#596=PERSON_AND_ORGANIZATION(#591,#586);
#597=PERSON_AND_ORGANIZATION(#590,#587);
#598=PERSON_AND_ORGANIZATION(#591,#588);
#599=APPLIED_PERSON_AND_ORGANIZATION_ASSIGNMENT(#592,#577,(#608));
#600=APPLIED_PERSON_AND_ORGANIZATION_ASSIGNMENT(#593,#578,(#576));
#601=APPLIED_PERSON_AND_ORGANIZATION_ASSIGNMENT(#593,#579,(#576));
#602=APPLIED_PERSON_AND_ORGANIZATION_ASSIGNMENT(#596,#580,(#540));
#603=APPLIED_PERSON_AND_ORGANIZATION_ASSIGNMENT(#597,#581,(#534));
#604=PRODUCT_RELATED_PRODUCT_CATEGORY('detail','detail',(#608));
#605=APPLICATION_PROTOCOL_DEFINITION('International Standard',
'config_control_design',1994,#606);
#606=APPLICATION_CONTEXT(
'configuration controlled 3d designs of mechanical parts and assemblie
s');
#607=PRODUCT_CONTEXT('3D Mechanical Parts',#606,'mechanical');
#608=PRODUCT('Document','Document','',(#607));
#609=(
LENGTH_UNIT()
NAMED_UNIT(*)
SI_UNIT(.MILLI.,.METRE.)
);
#610=(
NAMED_UNIT(*)
PLANE_ANGLE_UNIT()
SI_UNIT($,.RADIAN.)
);
#611=DIMENSIONAL_EXPONENTS(0.,0.,0.,0.,0.,0.,0.);
#612=PLANE_ANGLE_MEASURE_WITH_UNIT(PLANE_ANGLE_MEASURE(0.01745329252),#610);
#613=(
CONVERSION_BASED_UNIT('DEGREES',#612)
NAMED_UNIT(#611)
PLANE_ANGLE_UNIT()
);
#614=(
NAMED_UNIT(*)
SI_UNIT($,.STERADIAN.)
SOLID_ANGLE_UNIT()
);
#615=UNCERTAINTY_MEASURE_WITH_UNIT(LENGTH_MEASURE(0.001),#609,
'DISTANCE_ACCURACY_VALUE',
'Maximum model space distance between geometric entities at asserted c
onnectivities');
#616=(
GEOMETRIC_REPRESENTATION_CONTEXT(3)
GLOBAL_UNCERTAINTY_ASSIGNED_CONTEXT((#615))
GLOBAL_UNIT_ASSIGNED_CONTEXT((#614,#613,#609))
REPRESENTATION_CONTEXT('ID1','3D')
);
#617=SHAPE_REPRESENTATION('Document',(#618,#649),#616);
#618=AXIS2_PLACEMENT_3D('',#684,#650,#651);
#619=AXIS2_PLACEMENT_3D('',#685,#652,$);
#620=AXIS2_PLACEMENT_3D('',#686,#653,$);
#621=AXIS2_PLACEMENT_3D('',#687,#654,$);
#622=AXIS2_PLACEMENT_3D('',#688,#655,$);
#623=AXIS2_PLACEMENT_3D('',#689,#656,$);
#624=AXIS2_PLACEMENT_3D('',#690,#657,$);
#625=AXIS2_PLACEMENT_3D('',#691,#658,$);
#626=AXIS2_PLACEMENT_3D('',#692,#659,$);
#627=AXIS2_PLACEMENT_3D('',#693,#660,$);
#628=AXIS2_PLACEMENT_3D('',#694,#661,$);
#629=AXIS2_PLACEMENT_3D('',#695,#662,$);
#630=AXIS2_PLACEMENT_3D('',#696,#663,$);
#631=AXIS2_PLACEMENT_3D('',#697,#664,$);
#632=AXIS2_PLACEMENT_3D('',#698,#665,$);
#633=AXIS2_PLACEMENT_3D('',#699,#666,$);
#634=AXIS2_PLACEMENT_3D('',#700,#667,$);
#635=AXIS2_PLACEMENT_3D('',#701,#668,$);
#636=AXIS2_PLACEMENT_3D('',#702,#669,$);
#637=AXIS2_PLACEMENT_3D('',#703,#670,$);
#638=AXIS2_PLACEMENT_3D('',#704,#671,$);
#639=AXIS2_PLACEMENT_3D('',#705,#672,$);
#640=AXIS2_PLACEMENT_3D('',#706,#673,$);
#641=AXIS2_PLACEMENT_3D('',#707,#674,$);
#642=AXIS2_PLACEMENT_3D('',#708,#675,$);
#643=AXIS2_PLACEMENT_3D('',#709,#676,$);
#644=AXIS2_PLACEMENT_3D('',#710,#677,$);
#645=AXIS2_PLACEMENT_3D('',#711,#678,$);
#646=AXIS2_PLACEMENT_3D('',#712,#679,$);
#647=AXIS2_PLACEMENT_3D('',#713,#680,$);
#648=AXIS2_PLACEMENT_3D('',#714,#681,$);
#649=AXIS2_PLACEMENT_3D('',#1017,#682,#683);
#650=DIRECTION('',(0.,0.,1.));
#651=DIRECTION('',(1.,0.,0.));
#652=DIRECTION('',(-1.11022302462492E-16,-1.65789985891592E-15,1.));
#653=DIRECTION('',(-1.,-4.26325603563482E-14,2.06501522917567E-14));
#654=DIRECTION('',(1.,4.2530450489216E-14,-2.06412338449665E-14));
#655=DIRECTION('',(0.,1.,0.));
#656=DIRECTION('',(0.,0.,1.));
#657=DIRECTION('',(1.,0.,0.));
#658=DIRECTION('',(0.,0.,1.));
#659=DIRECTION('',(-1.,-3.76040372196181E-13,3.7337583693706E-13));
#660=DIRECTION('',(0.,-1.,0.));
#661=DIRECTION('',(-1.,3.71101243086461E-12,-3.71989421506157E-12));
#662=DIRECTION('',(1.,1.65423683924284E-12,1.65112821477394E-12));
#663=DIRECTION('',(-1.,-9.98547083874264E-15,2.88004348114192E-15));
#664=DIRECTION('',(0.,-1.,0.));
#665=DIRECTION('',(-1.,-3.81178958557856E-13,3.78958512508595E-13));
#666=DIRECTION('',(0.,0.,-1.));
#667=DIRECTION('',(-1.,-4.8298928889531E-14,2.14963626681655E-14));
#668=DIRECTION('',(3.87519548103559E-14,-0.903391925153214,0.42881584575196));
#669=DIRECTION('',(1.,4.18928293741472E-14,-2.05224832147394E-14));
#670=DIRECTION('',(0.,0.,-1.));
#671=DIRECTION('',(1.,4.23213806613947E-14,-1.9894055925958E-14));
#672=DIRECTION('',(-3.5124157610718E-14,0.815593348719553,-0.578625517519255));
#673=DIRECTION('',(0.,0.,-1.));
#674=DIRECTION('',(1.,-1.58655350970667E-12,4.54976705971737E-13));
#675=DIRECTION('',(0.,0.,1.));
#676=DIRECTION('',(0.,1.,0.));
#677=DIRECTION('',(1.,6.66735364768944E-14,6.66735364769002E-14));
#678=DIRECTION('',(0.,0.,-1.));
#679=DIRECTION('',(-1.,0.,0.));
#680=DIRECTION('',(0.,-1.,0.));
#681=DIRECTION('',(1.,0.,0.));
#682=DIRECTION('',(0.,0.,1.));
#683=DIRECTION('',(1.,0.,0.));
#684=CARTESIAN_POINT('',(0.,0.,0.));
#685=CARTESIAN_POINT('',(1.77635683940025E-15,83.9999999999964,-0.600000000000024));
#686=CARTESIAN_POINT('',(-1.72084530924301E-14,96.,2.97820061029515));
#687=CARTESIAN_POINT('',(-1.7514788001607E-14,96.,2.97820061029527));
#688=CARTESIAN_POINT('',(3.99999999999996,95.0000000000001,0.));
#689=CARTESIAN_POINT('',(-1.99999999999996,95.9999998247911,5.97820079140198));
#690=CARTESIAN_POINT('',(3.99999999999996,91.0000000000001,0.));
#691=CARTESIAN_POINT('',(-1.99999999999991,90.9999999999999,2.));
#692=CARTESIAN_POINT('',(1.00000000000021,92.4999999999999,2.49999999999999));
#693=CARTESIAN_POINT('',(-1.99999999999991,92.9999999999999,0.));
#694=CARTESIAN_POINT('',(1.00000000000186,93.4999999999999,5.47820079140195));
#695=CARTESIAN_POINT('',(0.999999999999056,91.5000000000001,0.50000000000003));
#696=CARTESIAN_POINT('',(0.999999999999979,94.5,0.500000000000032));
#697=CARTESIAN_POINT('',(-1.99999999999986,91.0000000000001,0.));
#698=CARTESIAN_POINT('',(0.999999999999831,91.5000000000001,1.49999999999999));
#699=CARTESIAN_POINT('',(1.4210854715202E-14,84.,3.));
#700=CARTESIAN_POINT('',(-1.63087534999078E-13,95.9999999999995,-4.60510737695899));
#701=CARTESIAN_POINT('',(-2.00000000000022,96.9033919251532,-5.03392322271087));
#702=CARTESIAN_POINT('',(-2.25933714059389E-13,96.2929987991926,-6.78624704331116));
#703=CARTESIAN_POINT('',(-2.00000000000023,96.2929987991923,-6.98624704331125));
#704=CARTESIAN_POINT('',(-2.74270066341059E-13,97.5608893206768,-6.48624704331112));
#705=CARTESIAN_POINT('',(-2.0000000000003,97.9903933241994,-6.74222811870151));
#706=CARTESIAN_POINT('',(2.8421709430404E-14,84.,3.5));
#707=CARTESIAN_POINT('',(-1.90074662567556E-12,99.4206814839289,-2.99795234061933));
#708=CARTESIAN_POINT('',(-53.75,30.25,-2.5));
#709=CARTESIAN_POINT('',(-3.82119937783299,100.420681483929,-1.20572188395005));
#710=CARTESIAN_POINT('',(-2.97083650389816E-13,100.220681483929,-2.69999999999999));
#711=CARTESIAN_POINT('',(-2.60000000000002,91.3500000000001,0.));
#712=CARTESIAN_POINT('',(-2.00000000000008,100.853449752403,6.57602092308295));
#713=CARTESIAN_POINT('',(-2.00000000000036,96.9999999999999,2.97820024329942));
#714=CARTESIAN_POINT('',(1.99999999999983,100.853449752403,6.57602078603889));
#715=CARTESIAN_POINT('',(1.9999999999998,98.8660687473185,-1.2));
#716=CARTESIAN_POINT('',(-2.00000000000022,98.8660687473185,-1.2));
#717=CARTESIAN_POINT('',(1.9999999999998,98.8660687473185,1.33226762955019E-15));
#718=CARTESIAN_POINT('',(-2.00000000000022,98.8660687473185,8.88178419700125E-16));
#719=CARTESIAN_POINT('',(3.99999999999996,95.0000000000001,5.97820079140198));
#720=CARTESIAN_POINT('',(-1.99999999999996,95.999999824791,5.97820061029523));
#721=CARTESIAN_POINT('',(2.00000000000004,95.9999998247911,5.97820061029523));
#722=CARTESIAN_POINT('',(-1.99999999999997,94.9999999999999,2.97820061029512));
#723=CARTESIAN_POINT('',(-2.00000000000006,96.9999999999998,2.97820024329926));
#724=CARTESIAN_POINT('',(1.99999999999994,97.,2.97820024329926));
#725=CARTESIAN_POINT('',(2.00000000000009,95.0000000000001,5.97820079140198));
#726=CARTESIAN_POINT('',(2.00000000000003,95.0000000000001,2.97820061029512));
#727=CARTESIAN_POINT('',(3.99999999999996,92.4999999999999,2.));
#728=CARTESIAN_POINT('',(-1.9999999999999,92.9999999999999,2.5));
#729=CARTESIAN_POINT('',(-1.9999999999999,92.4999999999999,2.));
#730=CARTESIAN_POINT('',(3.99999999999996,92.9999999999999,2.5));
#731=CARTESIAN_POINT('',(3.99999999999996,93.4999999999999,5.97820079140198));
#732=CARTESIAN_POINT('',(-1.99999999999988,93.4999999999999,5.97820083916632));
#733=CARTESIAN_POINT('',(-1.99999999999988,92.9999999999999,5.47820079140195));
#734=CARTESIAN_POINT('',(3.99999999999997,92.9999999999999,5.47820079140198));
#735=CARTESIAN_POINT('',(3.99999999999997,91.0000000000001,0.5));
#736=CARTESIAN_POINT('',(-1.99999999999993,91.,0.500000000000002));
#737=CARTESIAN_POINT('',(-1.99999999999994,91.5000000000001,1.59872115546023E-15));
#738=CARTESIAN_POINT('',(3.99999999999997,91.5000000000001,0.));
#739=CARTESIAN_POINT('',(3.99999999999996,95.0000000000001,0.5));
#740=CARTESIAN_POINT('',(-2.00000000000003,95.,0.499999999999999));
#741=CARTESIAN_POINT('',(-2.00000000000002,94.5000000000001,1.50736566086252E-15));
#742=CARTESIAN_POINT('',(3.99999999999997,94.5000000000001,0.));
#743=CARTESIAN_POINT('',(3.99999999999996,91.5000000000001,2.));
#744=CARTESIAN_POINT('',(-1.99999999999987,91.,1.50000000000001));
#745=CARTESIAN_POINT('',(-1.99999999999987,91.5000000000001,2.));
#746=CARTESIAN_POINT('',(3.99999999999996,91.0000000000001,1.5));
#747=CARTESIAN_POINT('',(2.30940630730958E-6,98.9999999999999,2.97820013313112));
#748=CARTESIAN_POINT('',(1.99999999999987,98.8660687473185,3.86456957164485));
#749=CARTESIAN_POINT('',(-2.00000000000012,98.8660687473185,3.86456957164439));
#750=CARTESIAN_POINT('',(-2.00000000000021,96.9999999999999,-4.605107376959));
#751=CARTESIAN_POINT('',(1.99999999999979,97.0000000000001,-4.605107376959));
#752=CARTESIAN_POINT('',(-2.00000000000022,96.9033919251532,-5.03392322271087));
#753=CARTESIAN_POINT('',(1.99999999999978,96.9033919251534,-5.03392322271088));
#754=CARTESIAN_POINT('',(-2.00000000000022,96.1123204141617,-6.70048387416091));
#755=CARTESIAN_POINT('',(1.99999999999978,96.1123204141618,-6.70048387416091));
#756=CARTESIAN_POINT('',(-2.00000000000023,96.2929987991923,-6.98624704331125));
#757=CARTESIAN_POINT('',(1.99999999999977,96.2929987991925,-6.98624704331125));
#758=CARTESIAN_POINT('',(-2.00000000000028,97.5608893206767,-6.98624704331124));
#759=CARTESIAN_POINT('',(1.99999999999972,97.5608893206768,-6.98624704331125));
#760=CARTESIAN_POINT('',(-2.0000000000003,97.9903933241994,-6.74222811870151));
#761=CARTESIAN_POINT('',(1.9999999999997,97.9903933241996,-6.74222811870152));
#762=CARTESIAN_POINT('',(-2.00000000000023,98.8660687473185,-2.5));
#763=CARTESIAN_POINT('',(1.99999999999979,98.8660687473185,-2.5));
#764=CARTESIAN_POINT('',(-2.00000000000033,100.236274832648,-3.57657785813845));
#765=CARTESIAN_POINT('',(1.99999999999967,100.236274832648,-3.57657785813871));
#766=CARTESIAN_POINT('',(-2.00000000000032,100.420681483929,-2.99795234061919));
#767=CARTESIAN_POINT('',(1.99999999999968,100.420681483929,-2.99795234061944));
#768=CARTESIAN_POINT('',(-2.00000000000031,100.220681483929,-2.50004796218507));
#769=CARTESIAN_POINT('',(1.99999999999969,100.220681483929,-2.50004796218507));
#770=CARTESIAN_POINT('',(-2.00000000000032,100.420681483929,-2.7));
#771=CARTESIAN_POINT('',(1.99999999999969,100.420681483929,-2.70000000000001));
#772=CARTESIAN_POINT('',(1.9999999999998,98.8660687473185,-1.2));
#773=CARTESIAN_POINT('',(-2.12972678092964E-13,99.1351378649169,-1.2));
#774=CARTESIAN_POINT('',(-2.00000000000022,98.8660687473185,-1.2));
#775=CARTESIAN_POINT('',(1.9999999999998,98.8660687473185,-1.2));
#776=CARTESIAN_POINT('',(1.9999999999998,98.8660687473185,1.33226762955019E-15));
#777=CARTESIAN_POINT('',(-2.00000000000022,98.8660687473185,8.88178419700125E-16));
#778=CARTESIAN_POINT('',(-2.00000000000022,98.8660687473185,-1.2));
#779=CARTESIAN_POINT('',(3.99999999999996,95.0000000000001,5.97820079140198));
#780=CARTESIAN_POINT('',(2.00000000000009,95.0000000000001,5.97820079140198));
#781=CARTESIAN_POINT('',(-1.99999999999996,95.999999824791,5.97820061029523));
#782=CARTESIAN_POINT('',(-1.99999999999992,94.7499999123955,5.97820072473078));
#783=CARTESIAN_POINT('',(-1.99999999999988,93.4999999999999,5.97820083916632));
#784=CARTESIAN_POINT('',(2.00000000000004,95.9999998247911,5.97820061029523));
#785=CARTESIAN_POINT('',(2.00000000000007,95.4999999123956,5.9782007008486));
#786=CARTESIAN_POINT('',(2.00000000000009,95.0000000000001,5.97820079140198));
#787=CARTESIAN_POINT('',(-1.99999999999996,95.999999824791,5.97820061029523));
#788=CARTESIAN_POINT('',(2.00000000000004,95.9999998247911,5.97820061029523));
#789=CARTESIAN_POINT('',(-1.99999999999997,94.9999999999999,2.97820061029512));
#790=CARTESIAN_POINT('',(-1.99999999999997,95.,3.39241422641352));
#791=CARTESIAN_POINT('',(-1.99999999999997,95.2928932836897,3.68530745635799));
#792=CARTESIAN_POINT('',(-1.99999999999998,95.5857865673795,3.97820068630247));
#793=CARTESIAN_POINT('',(-2.,96.0000001834979,3.97820061029513));
#794=CARTESIAN_POINT('',(-2.00000000000001,96.4142137996163,3.97820053428778));
#795=CARTESIAN_POINT('',(-2.00000000000003,96.7071069758154,3.68530719685271));
#796=CARTESIAN_POINT('',(-2.00000000000005,97.0000001520148,3.39241385941763));
#797=CARTESIAN_POINT('',(-2.00000000000006,96.9999999999998,2.97820024329926));
#798=CARTESIAN_POINT('',(-2.00000000000006,96.9999999999998,2.97820024329926));
#799=CARTESIAN_POINT('',(1.99999999999994,97.,2.97820024329926));
#800=CARTESIAN_POINT('',(2.00000000000003,95.0000000000001,2.97820061029512));
#801=CARTESIAN_POINT('',(2.00000000000003,95.0000000000002,3.39241422641352));
#802=CARTESIAN_POINT('',(2.00000000000003,95.2928932836898,3.68530745635799));
#803=CARTESIAN_POINT('',(2.00000000000002,95.5857865673797,3.97820068630246));
#804=CARTESIAN_POINT('',(2.,96.000000183498,3.97820061029512));
#805=CARTESIAN_POINT('',(1.99999999999999,96.4142137996165,3.97820053428778));
#806=CARTESIAN_POINT('',(1.99999999999997,96.7071069758155,3.68530719685271));
#807=CARTESIAN_POINT('',(1.99999999999995,97.0000001520149,3.39241385941763));
#808=CARTESIAN_POINT('',(1.99999999999994,97.,2.97820024329926));
#809=CARTESIAN_POINT('',(2.00000000000003,95.0000000000001,2.97820061029512));
#810=CARTESIAN_POINT('',(2.00000000000009,95.0000000000001,5.97820079140198));
#811=CARTESIAN_POINT('',(-1.99999999999997,94.9999999999999,2.97820061029512));
#812=CARTESIAN_POINT('',(2.00000000000003,95.0000000000001,2.97820061029512));
#813=CARTESIAN_POINT('',(-1.9999999999999,92.4999999999999,2.));
#814=CARTESIAN_POINT('',(-1.99999999999988,92.,2.));
#815=CARTESIAN_POINT('',(-1.99999999999987,91.5000000000001,2.));
#816=CARTESIAN_POINT('',(3.99999999999996,92.9999999999999,2.5));
#817=CARTESIAN_POINT('',(3.99999999999997,92.9999999999999,5.47820079140198));
#818=CARTESIAN_POINT('',(-1.9999999999999,92.9999999999999,2.5));
#819=CARTESIAN_POINT('',(3.99999999999996,92.9999999999999,2.5));
#820=CARTESIAN_POINT('',(-1.9999999999999,92.4999999999999,2.));
#821=CARTESIAN_POINT('',(3.99999999999996,92.4999999999999,2.));
#822=CARTESIAN_POINT('',(3.99999999999996,92.9999999999999,2.5));
#823=CARTESIAN_POINT('',(3.99999999999979,92.9999999999999,2.00000000000002));
#824=CARTESIAN_POINT('',(3.99999999999996,92.4999999999999,2.));
#825=CARTESIAN_POINT('',(-1.9999999999999,92.9999999999999,2.5));
#826=CARTESIAN_POINT('',(-2.00000000000008,92.9999999999999,2.00000000000002));
#827=CARTESIAN_POINT('',(-1.9999999999999,92.4999999999999,2.));
#828=CARTESIAN_POINT('',(3.99999999999996,93.4999999999999,5.97820079140198));
#829=CARTESIAN_POINT('',(3.99999999999996,95.0000000000001,5.97820079140198));
#830=CARTESIAN_POINT('',(-1.99999999999988,92.9999999999999,5.47820079140195));
#831=CARTESIAN_POINT('',(-1.99999999999989,92.9999999999999,3.98910039570098));
#832=CARTESIAN_POINT('',(-1.9999999999999,92.9999999999999,2.5));
#833=CARTESIAN_POINT('',(-1.99999999999988,93.4999999999999,5.97820083916632));
#834=CARTESIAN_POINT('',(3.99999999999996,93.4999999999999,5.97820079140198));
#835=CARTESIAN_POINT('',(-1.99999999999988,92.9999999999999,5.47820079140195));
#836=CARTESIAN_POINT('',(3.99999999999997,92.9999999999999,5.47820079140198));
#837=CARTESIAN_POINT('',(3.99999999999996,93.4999999999999,5.97820079140198));
#838=CARTESIAN_POINT('',(3.9999999999982,92.9999999999999,5.97820079140197));
#839=CARTESIAN_POINT('',(3.99999999999997,92.9999999999999,5.47820079140198));
#840=CARTESIAN_POINT('',(-1.99999999999988,93.4999999999999,5.97820083916632));
#841=CARTESIAN_POINT('',(-2.00000000000164,93.,5.97820081528412));
#842=CARTESIAN_POINT('',(-1.99999999999988,92.9999999999999,5.47820079140195));
#843=CARTESIAN_POINT('',(3.99999999999997,91.0000000000001,0.5));
#844=CARTESIAN_POINT('',(3.99999999999996,91.0000000000001,1.5));
#845=CARTESIAN_POINT('',(-1.99999999999993,91.,0.500000000000002));
#846=CARTESIAN_POINT('',(3.99999999999997,91.0000000000001,0.5));
#847=CARTESIAN_POINT('',(-1.99999999999994,91.5000000000001,1.59872115546023E-15));
#848=CARTESIAN_POINT('',(3.99999999999997,91.5000000000001,0.));
#849=CARTESIAN_POINT('',(3.99999999999997,91.0000000000001,0.5));
#850=CARTESIAN_POINT('',(4.00000000000075,91.0000000000001,-1.41621048377214E-14));
#851=CARTESIAN_POINT('',(3.99999999999997,91.5000000000001,0.));
#852=CARTESIAN_POINT('',(-1.99999999999993,91.,0.500000000000002));
#853=CARTESIAN_POINT('',(-1.99999999999915,91.,-1.05786585180542E-14));
#854=CARTESIAN_POINT('',(-1.99999999999994,91.5000000000001,1.59872115546023E-15));
#855=CARTESIAN_POINT('',(3.99999999999996,95.0000000000001,0.5));
#856=CARTESIAN_POINT('',(3.99999999999996,95.0000000000001,5.97820079140198));
#857=CARTESIAN_POINT('',(-2.00000000000003,95.,0.499999999999999));
#858=CARTESIAN_POINT('',(-2.,95.,1.73910030514756));
#859=CARTESIAN_POINT('',(-1.99999999999997,94.9999999999999,2.97820061029512));
#860=CARTESIAN_POINT('',(3.99999999999996,95.0000000000001,0.5));
#861=CARTESIAN_POINT('',(-2.00000000000003,95.,0.499999999999999));
#862=CARTESIAN_POINT('',(3.99999999999997,94.5000000000001,0.));
#863=CARTESIAN_POINT('',(-2.00000000000002,94.5000000000001,1.50736566086252E-15));
#864=CARTESIAN_POINT('',(3.99999999999997,94.5000000000001,0.));
#865=CARTESIAN_POINT('',(3.99999999999996,95.,-3.10992168486227E-15));
#866=CARTESIAN_POINT('',(3.99999999999996,95.0000000000001,0.5));
#867=CARTESIAN_POINT('',(-2.00000000000002,94.5000000000001,1.50736566086252E-15));
#868=CARTESIAN_POINT('',(-2.00000000000003,95.,-2.72683875512598E-15));
#869=CARTESIAN_POINT('',(-2.00000000000003,95.,0.499999999999999));
#870=CARTESIAN_POINT('',(3.99999999999996,91.5000000000001,2.));
#871=CARTESIAN_POINT('',(3.99999999999996,92.4999999999999,2.));
#872=CARTESIAN_POINT('',(-1.99999999999987,91.,1.50000000000001));
#873=CARTESIAN_POINT('',(-1.9999999999999,91.,1.00000000000001));
#874=CARTESIAN_POINT('',(-1.99999999999993,91.,0.500000000000002));
#875=CARTESIAN_POINT('',(-1.99999999999987,91.,1.50000000000001));
#876=CARTESIAN_POINT('',(3.99999999999996,91.0000000000001,1.5));
#877=CARTESIAN_POINT('',(-1.99999999999987,91.5000000000001,2.));
#878=CARTESIAN_POINT('',(3.99999999999996,91.5000000000001,2.));
#879=CARTESIAN_POINT('',(3.99999999999996,91.5000000000001,2.));
#880=CARTESIAN_POINT('',(4.00000000000014,91.0000000000001,1.99999999999999));
#881=CARTESIAN_POINT('',(3.99999999999996,91.0000000000001,1.5));
#882=CARTESIAN_POINT('',(-1.99999999999987,91.5000000000001,2.));
#883=CARTESIAN_POINT('',(-1.99999999999969,91.,1.99999999999999));
#884=CARTESIAN_POINT('',(-1.99999999999987,91.,1.50000000000001));
#885=CARTESIAN_POINT('',(1.99999999999987,98.8660687473185,3.86456957164485));
#886=CARTESIAN_POINT('',(1.33511249430739,98.955519094548,3.57533240765288));
#887=CARTESIAN_POINT('',(0.666889198365347,98.9999999618613,3.27644204943189));
#888=CARTESIAN_POINT('',(2.30940630730958E-6,98.9999999999999,2.97820013313112));
#889=CARTESIAN_POINT('',(2.30940630730958E-6,98.9999999999999,2.97820013313112));
#890=CARTESIAN_POINT('',(-0.666887912791432,99.0000000474366,3.27644147440606));
#891=CARTESIAN_POINT('',(-1.33511185472961,98.9555191805933,3.57533212942528));
#892=CARTESIAN_POINT('',(-2.00000000000012,98.8660687473185,3.86456957164439));
#893=CARTESIAN_POINT('',(-2.00000000000012,98.8660687473185,3.86456957164439));
#894=CARTESIAN_POINT('',(-2.0000000000001,98.6465907308371,4.57425042825252));
#895=CARTESIAN_POINT('',(-2.00000000000006,98.1213206228742,5.09952067454029));
#896=CARTESIAN_POINT('',(-2.00000000000001,97.2426410481005,5.97820048070567));
#897=CARTESIAN_POINT('',(-1.99999999999996,95.999999824791,5.97820061029523));
#898=CARTESIAN_POINT('',(1.99999999999987,98.8660687473185,3.86456957164485));
#899=CARTESIAN_POINT('',(1.9999999999999,98.646590730837,4.57425042825269));
#900=CARTESIAN_POINT('',(1.99999999999993,98.1213206228741,5.09952067454029));
#901=CARTESIAN_POINT('',(1.99999999999999,97.2426410481007,5.97820048070567));
#902=CARTESIAN_POINT('',(2.00000000000004,95.9999998247911,5.97820061029523));
#903=CARTESIAN_POINT('',(-2.00000000000022,98.8660687473185,8.88178419700125E-16));
#904=CARTESIAN_POINT('',(-2.00000000000012,98.8660687473185,3.86456957164439));
#905=CARTESIAN_POINT('',(1.9999999999998,98.8660687473185,1.33226762955019E-15));
#906=CARTESIAN_POINT('',(1.99999999999987,98.8660687473185,3.86456957164485));
#907=CARTESIAN_POINT('',(-2.00000000000022,98.8660687473185,8.88178419700125E-16));
#908=CARTESIAN_POINT('',(-2.13082700174299E-13,99.135137864917,-4.88107685105501E-30));
#909=CARTESIAN_POINT('',(1.9999999999998,98.8660687473185,1.33226762955019E-15));
#910=CARTESIAN_POINT('',(-2.00000000000021,96.9999999999999,-4.605107376959));
#911=CARTESIAN_POINT('',(1.99999999999979,97.0000000000001,-4.605107376959));
#912=CARTESIAN_POINT('',(-2.00000000000021,96.9999999999999,-4.605107376959));
#913=CARTESIAN_POINT('',(-2.00000000000022,96.9999999999998,-4.83039773365595));
#914=CARTESIAN_POINT('',(-2.00000000000022,96.9033919251532,-5.03392322271087));
#915=CARTESIAN_POINT('',(-2.00000000000022,96.9033919251532,-5.03392322271087));
#916=CARTESIAN_POINT('',(1.99999999999978,96.9033919251534,-5.03392322271088));
#917=CARTESIAN_POINT('',(1.99999999999979,97.0000000000001,-4.605107376959));
#918=CARTESIAN_POINT('',(1.99999999999978,97.,-4.83039773365595));
#919=CARTESIAN_POINT('',(1.99999999999978,96.9033919251534,-5.03392322271088));
#920=CARTESIAN_POINT('',(-2.00000000000022,96.9033919251532,-5.03392322271087));
#921=CARTESIAN_POINT('',(-2.00000000000022,96.5078561696574,-5.86720354843589));
#922=CARTESIAN_POINT('',(-2.00000000000022,96.1123204141617,-6.70048387416091));
#923=CARTESIAN_POINT('',(-2.00000000000022,96.1123204141617,-6.70048387416091));
#924=CARTESIAN_POINT('',(1.99999999999978,96.1123204141618,-6.70048387416091));
#925=CARTESIAN_POINT('',(1.99999999999978,96.9033919251534,-5.03392322271088));
#926=CARTESIAN_POINT('',(1.99999999999978,96.5078561696576,-5.8672035484359));
#927=CARTESIAN_POINT('',(1.99999999999978,96.1123204141618,-6.70048387416091));
#928=CARTESIAN_POINT('',(-2.00000000000022,96.1123204141617,-6.70048387416091));
#929=CARTESIAN_POINT('',(-2.00000000000022,96.0650778943655,-6.80001030568308));
#930=CARTESIAN_POINT('',(-2.00000000000022,96.1239534889497,-6.89312867449714));
#931=CARTESIAN_POINT('',(-2.00000000000023,96.1828290835341,-6.98624704331118));
#932=CARTESIAN_POINT('',(-2.00000000000023,96.2929987991923,-6.98624704331125));
#933=CARTESIAN_POINT('',(-2.00000000000023,96.2929987991923,-6.98624704331125));
#934=CARTESIAN_POINT('',(1.99999999999977,96.2929987991925,-6.98624704331125));
#935=CARTESIAN_POINT('',(1.99999999999978,96.1123204141618,-6.70048387416091));
#936=CARTESIAN_POINT('',(1.99999999999978,96.0650778943657,-6.80001030568309));
#937=CARTESIAN_POINT('',(1.99999999999978,96.1239534889499,-6.89312867449714));
#938=CARTESIAN_POINT('',(1.99999999999977,96.1828290835343,-6.98624704331119));
#939=CARTESIAN_POINT('',(1.99999999999977,96.2929987991925,-6.98624704331125));
#940=CARTESIAN_POINT('',(-2.00000000000023,96.2929987991923,-6.98624704331125));
#941=CARTESIAN_POINT('',(-2.00000000000026,96.9269440599345,-6.98624704331124));
#942=CARTESIAN_POINT('',(-2.00000000000028,97.5608893206767,-6.98624704331124));
#943=CARTESIAN_POINT('',(-2.00000000000028,97.5608893206767,-6.98624704331124));
#944=CARTESIAN_POINT('',(1.99999999999972,97.5608893206768,-6.98624704331125));
#945=CARTESIAN_POINT('',(1.99999999999977,96.2929987991925,-6.98624704331125));
#946=CARTESIAN_POINT('',(1.99999999999974,96.9269440599347,-6.98624704331125));
#947=CARTESIAN_POINT('',(1.99999999999972,97.5608893206768,-6.98624704331125));
#948=CARTESIAN_POINT('',(-2.00000000000028,97.5608893206767,-6.98624704331124));
#949=CARTESIAN_POINT('',(-2.0000000000003,97.8449599260824,-6.98624704331124));
#950=CARTESIAN_POINT('',(-2.0000000000003,97.9903933241994,-6.74222811870151));
#951=CARTESIAN_POINT('',(-2.0000000000003,97.9903933241994,-6.74222811870151));
#952=CARTESIAN_POINT('',(1.9999999999997,97.9903933241996,-6.74222811870152));
#953=CARTESIAN_POINT('',(1.99999999999972,97.5608893206768,-6.98624704331125));
#954=CARTESIAN_POINT('',(1.9999999999997,97.8449599260826,-6.98624704331125));
#955=CARTESIAN_POINT('',(1.9999999999997,97.9903933241996,-6.74222811870152));
#956=CARTESIAN_POINT('',(-2.0000000000003,97.9903933241994,-6.74222811870151));
#957=CARTESIAN_POINT('',(-2.00000000000032,99.1133340784239,-5.15940298841998));
#958=CARTESIAN_POINT('',(-2.00000000000033,100.236274832648,-3.57657785813845));
#959=CARTESIAN_POINT('',(1.9999999999997,97.9903933241996,-6.74222811870152));
#960=CARTESIAN_POINT('',(1.99999999999968,99.113334078424,-5.15940298842011));
#961=CARTESIAN_POINT('',(1.99999999999967,100.236274832648,-3.57657785813871));
#962=CARTESIAN_POINT('',(-2.00000000000023,98.8660687473184,-2.5));
#963=CARTESIAN_POINT('',(-1.00448439511132,98.9999999999999,-2.5));
#964=CARTESIAN_POINT('',(1.4432899320127E-14,98.9999999999999,-2.5));
#965=CARTESIAN_POINT('',(1.00448439511111,98.9999999999999,-2.5));
#966=CARTESIAN_POINT('',(1.99999999999979,98.8660687473185,-2.5));
#967=CARTESIAN_POINT('',(-2.00000000000023,98.8660687473185,-2.5));
#968=CARTESIAN_POINT('',(-2.00000000000022,98.8660687473185,-1.2));
#969=CARTESIAN_POINT('',(1.99999999999979,98.8660687473185,-2.5));
#970=CARTESIAN_POINT('',(1.9999999999998,98.8660687473185,-1.2));
#971=CARTESIAN_POINT('',(-2.00000000000032,100.420681483929,-2.99795234061919));
#972=CARTESIAN_POINT('',(-2.00000000000032,100.420681483929,-2.7));
#973=CARTESIAN_POINT('',(1.99999999999968,100.420681483929,-2.99795234061944));
#974=CARTESIAN_POINT('',(1.99999999999969,100.420681483929,-2.70000000000001));
#975=CARTESIAN_POINT('',(-2.00000000000033,100.236274832648,-3.57657785813845));
#976=CARTESIAN_POINT('',(1.99999999999967,100.236274832648,-3.57657785813871));
#977=CARTESIAN_POINT('',(-2.00000000000032,100.420681483929,-2.99795234061919));
#978=CARTESIAN_POINT('',(1.99999999999968,100.420681483929,-2.99795234061944));
#979=CARTESIAN_POINT('',(-2.00000000000033,100.236274832648,-3.57657785813845));
#980=CARTESIAN_POINT('',(-2.00000000000017,100.420681483929,-3.31665009192309));
#981=CARTESIAN_POINT('',(-2.00000000000032,100.420681483929,-2.99795234061919));
#982=CARTESIAN_POINT('',(1.99999999999967,100.236274832648,-3.57657785813871));
#983=CARTESIAN_POINT('',(1.99999999999983,100.420681483929,-3.31665009192335));
#984=CARTESIAN_POINT('',(1.99999999999968,100.420681483929,-2.99795234061944));
#985=CARTESIAN_POINT('',(-2.00000000000031,100.220681483929,-2.50004796218507));
#986=CARTESIAN_POINT('',(-2.00000000000031,100.193675484949,-2.50004859964485));
#987=CARTESIAN_POINT('',(-2.00000000000031,100.166669485969,-2.50004923710464));
#988=CARTESIAN_POINT('',(-2.00000000000028,99.5833347429845,-2.50002303787042));
#989=CARTESIAN_POINT('',(-2.00000000000025,98.9999999999998,-2.49999683863619));
#990=CARTESIAN_POINT('',(-2.00000000000024,98.9330343736591,-2.4999984193181));
#991=CARTESIAN_POINT('',(-2.00000000000023,98.8660687473185,-2.5));
#992=CARTESIAN_POINT('',(1.99999999999969,100.220681483929,-2.50004796218507));
#993=CARTESIAN_POINT('',(1.99999999999969,100.193675484949,-2.50004859964485));
#994=CARTESIAN_POINT('',(1.99999999999969,100.166669485969,-2.50004923710464));
#995=CARTESIAN_POINT('',(1.99999999999972,99.5833347429847,-2.50002303787042));
#996=CARTESIAN_POINT('',(1.99999999999975,98.9999999999999,-2.4999968386362));
#997=CARTESIAN_POINT('',(1.99999999999977,98.9330343736592,-2.4999984193181));
#998=CARTESIAN_POINT('',(1.99999999999979,98.8660687473185,-2.5));
#999=CARTESIAN_POINT('',(-2.00000000000031,100.220681483929,-2.50004796218507));
#1000=CARTESIAN_POINT('',(1.99999999999969,100.220681483929,-2.50004796218507));
#1001=CARTESIAN_POINT('',(-2.00000000000032,100.420681483929,-2.7));
#1002=CARTESIAN_POINT('',(1.99999999999969,100.420681483929,-2.70000000000001));
#1003=CARTESIAN_POINT('',(1.99999999999969,100.420681483929,-2.70000000000001));
#1004=CARTESIAN_POINT('',(1.99999999999968,100.420681483929,-2.50002398109255));
#1005=CARTESIAN_POINT('',(1.99999999999969,100.220681483929,-2.50004796218507));
#1006=CARTESIAN_POINT('',(-2.00000000000032,100.420681483929,-2.7));
#1007=CARTESIAN_POINT('',(-2.00000000000032,100.420681483929,-2.50002398109254));
#1008=CARTESIAN_POINT('',(-2.00000000000031,100.220681483929,-2.50004796218507));
#1009=CARTESIAN_POINT('',(-1.99999999999994,91.5000000000001,1.59872115546023E-15));
#1010=CARTESIAN_POINT('',(-2.00000000000002,94.5000000000001,1.50736566086252E-15));
#1011=CARTESIAN_POINT('',(3.99999999999997,91.5000000000001,0.));
#1012=CARTESIAN_POINT('',(3.99999999999997,94.5000000000001,0.));
#1013=CARTESIAN_POINT('',(-2.00000000000006,96.9999999999998,2.97820024329926));
#1014=CARTESIAN_POINT('',(-2.00000000000021,96.9999999999999,-4.605107376959));
#1015=CARTESIAN_POINT('',(1.99999999999994,97.,2.97820024329926));
#1016=CARTESIAN_POINT('',(1.99999999999979,97.0000000000001,-4.605107376959));
#1017=CARTESIAN_POINT('',(0.,0.,0.));
ENDSEC;
END-ISO-10303-21;
