ISO-10303-21;
HEADER;
/* Generated by software containing ST-Developer
 * from STEP Tools, Inc. (www.steptools.com) 
 */
/* OPTION: using custom schema-name function */

FILE_DESCRIPTION(
/* description */ (''),
/* implementation_level */ '2;1');

FILE_NAME(
/* name */ 'snap',
/* time_stamp */ '2026-06-25T13:27:45+03:00',
/* author */ (''),
/* organization */ (''),
/* preprocessor_version */ 'ST-DEVELOPER v16.5',
/* originating_system */ 'Rhino 7.23',
/* authorisation */ '');

FILE_SCHEMA (('CONFIG_CONTROL_DESIGN'));
ENDSEC;

DATA;
#10=SHAPE_REPRESENTATION_RELATIONSHIP('','',#669,#12);
#11=MANIFOLD_SOLID_BREP('brep_1',#13);
#12=ADVANCED_BREP_SHAPE_REPRESENTATION('brep_rep_0',(#11,#705),#668);
#13=CLOSED_SHELL('',(#14,#15,#16,#17,#18,#19,#20,#21,#22,#23,#24,#25,#26,
#27,#28,#29,#30,#31,#32,#33,#34,#35,#36,#37,#38,#39,#40,#41,#42,#43,#44,
#45,#46,#47));
#14=ADVANCED_FACE('',(#48),#567,.T.);
#15=ADVANCED_FACE('',(#49),#568,.F.);
#16=ADVANCED_FACE('',(#50),#569,.T.);
#17=ADVANCED_FACE('',(#51),#549,.T.);
#18=ADVANCED_FACE('',(#52),#550,.T.);
#19=ADVANCED_FACE('',(#53),#551,.T.);
#20=ADVANCED_FACE('',(#54),#552,.T.);
#21=ADVANCED_FACE('',(#55),#570,.F.);
#22=ADVANCED_FACE('',(#56),#553,.T.);
#23=ADVANCED_FACE('',(#57),#571,.T.);
#24=ADVANCED_FACE('',(#58),#572,.T.);
#25=ADVANCED_FACE('',(#59),#573,.T.);
#26=ADVANCED_FACE('',(#60),#554,.T.);
#27=ADVANCED_FACE('',(#61),#574,.T.);
#28=ADVANCED_FACE('',(#62),#575,.T.);
#29=ADVANCED_FACE('',(#63),#555,.T.);
#30=ADVANCED_FACE('',(#64),#576,.T.);
#31=ADVANCED_FACE('',(#65),#556,.T.);
#32=ADVANCED_FACE('',(#66),#577,.F.);
#33=ADVANCED_FACE('',(#67),#557,.T.);
#34=ADVANCED_FACE('',(#68),#578,.T.);
#35=ADVANCED_FACE('',(#69),#558,.T.);
#36=ADVANCED_FACE('',(#70),#579,.T.);
#37=ADVANCED_FACE('',(#71),#559,.T.);
#38=ADVANCED_FACE('',(#72),#580,.T.);
#39=ADVANCED_FACE('',(#73),#581,.T.);
#40=ADVANCED_FACE('',(#74),#560,.T.);
#41=ADVANCED_FACE('',(#75),#561,.T.);
#42=ADVANCED_FACE('',(#76),#582,.T.);
#43=ADVANCED_FACE('',(#77),#562,.T.);
#44=ADVANCED_FACE('',(#78),#563,.T.);
#45=ADVANCED_FACE('',(#79),#564,.T.);
#46=ADVANCED_FACE('',(#80),#565,.T.);
#47=ADVANCED_FACE('',(#81),#566,.T.);
#48=FACE_OUTER_BOUND('',#82,.T.);
#49=FACE_OUTER_BOUND('',#83,.T.);
#50=FACE_OUTER_BOUND('',#84,.T.);
#51=FACE_OUTER_BOUND('',#85,.T.);
#52=FACE_OUTER_BOUND('',#86,.T.);
#53=FACE_OUTER_BOUND('',#87,.T.);
#54=FACE_OUTER_BOUND('',#88,.T.);
#55=FACE_OUTER_BOUND('',#89,.T.);
#56=FACE_OUTER_BOUND('',#90,.T.);
#57=FACE_OUTER_BOUND('',#91,.T.);
#58=FACE_OUTER_BOUND('',#92,.T.);
#59=FACE_OUTER_BOUND('',#93,.T.);
#60=FACE_OUTER_BOUND('',#94,.T.);
#61=FACE_OUTER_BOUND('',#95,.T.);
#62=FACE_OUTER_BOUND('',#96,.T.);
#63=FACE_OUTER_BOUND('',#97,.T.);
#64=FACE_OUTER_BOUND('',#98,.T.);
#65=FACE_OUTER_BOUND('',#99,.T.);
#66=FACE_OUTER_BOUND('',#100,.T.);
#67=FACE_OUTER_BOUND('',#101,.T.);
#68=FACE_OUTER_BOUND('',#102,.T.);
#69=FACE_OUTER_BOUND('',#103,.T.);
#70=FACE_OUTER_BOUND('',#104,.T.);
#71=FACE_OUTER_BOUND('',#105,.T.);
#72=FACE_OUTER_BOUND('',#106,.T.);
#73=FACE_OUTER_BOUND('',#107,.T.);
#74=FACE_OUTER_BOUND('',#108,.T.);
#75=FACE_OUTER_BOUND('',#109,.T.);
#76=FACE_OUTER_BOUND('',#110,.T.);
#77=FACE_OUTER_BOUND('',#111,.T.);
#78=FACE_OUTER_BOUND('',#112,.T.);
#79=FACE_OUTER_BOUND('',#113,.T.);
#80=FACE_OUTER_BOUND('',#114,.T.);
#81=FACE_OUTER_BOUND('',#115,.T.);
#82=EDGE_LOOP('',(#116,#117,#118,#119));
#83=EDGE_LOOP('',(#120,#121,#122,#123));
#84=EDGE_LOOP('',(#124,#125,#126,#127,#128));
#85=EDGE_LOOP('',(#129,#130,#131,#132,#133,#134));
#86=EDGE_LOOP('',(#135,#136,#137,#138,#139,#140));
#87=EDGE_LOOP('',(#141,#142,#143,#144,#145,#146,#147,#148,#149,#150,#151));
#88=EDGE_LOOP('',(#152,#153,#154,#155));
#89=EDGE_LOOP('',(#156,#157,#158,#159));
#90=EDGE_LOOP('',(#160,#161,#162,#163));
#91=EDGE_LOOP('',(#164,#165,#166,#167));
#92=EDGE_LOOP('',(#168,#169,#170,#171));
#93=EDGE_LOOP('',(#172,#173,#174,#175));
#94=EDGE_LOOP('',(#176,#177,#178,#179));
#95=EDGE_LOOP('',(#180,#181,#182,#183));
#96=EDGE_LOOP('',(#184,#185,#186,#187,#188));
#97=EDGE_LOOP('',(#189,#190,#191,#192));
#98=EDGE_LOOP('',(#193,#194,#195,#196));
#99=EDGE_LOOP('',(#197,#198));
#100=EDGE_LOOP('',(#199,#200,#201,#202));
#101=EDGE_LOOP('',(#203,#204,#205,#206));
#102=EDGE_LOOP('',(#207,#208,#209,#210));
#103=EDGE_LOOP('',(#211,#212,#213,#214));
#104=EDGE_LOOP('',(#215,#216,#217,#218));
#105=EDGE_LOOP('',(#219,#220,#221,#222));
#106=EDGE_LOOP('',(#223,#224,#225,#226));
#107=EDGE_LOOP('',(#227,#228,#229,#230));
#108=EDGE_LOOP('',(#231,#232,#233,#234));
#109=EDGE_LOOP('',(#235,#236,#237,#238));
#110=EDGE_LOOP('',(#239,#240,#241,#242));
#111=EDGE_LOOP('',(#243,#244));
#112=EDGE_LOOP('',(#245,#246,#247,#248));
#113=EDGE_LOOP('',(#249,#250,#251,#252,#253,#254,#255,#256,#257,#258,#259,
#260,#261,#262,#263,#264,#265,#266,#267,#268,#269,#270,#271,#272,#273,#274,
#275,#276,#277));
#114=EDGE_LOOP('',(#278,#279,#280,#281));
#115=EDGE_LOOP('',(#282,#283,#284,#285,#286,#287,#288,#289,#290,#291,#292,
#293,#294,#295,#296,#297,#298,#299,#300,#301));
#116=ORIENTED_EDGE('',*,*,#303,.T.);
#117=ORIENTED_EDGE('',*,*,#305,.F.);
#118=ORIENTED_EDGE('',*,*,#350,.T.);
#119=ORIENTED_EDGE('',*,*,#304,.F.);
#120=ORIENTED_EDGE('',*,*,#310,.T.);
#121=ORIENTED_EDGE('',*,*,#311,.T.);
#122=ORIENTED_EDGE('',*,*,#312,.F.);
#123=ORIENTED_EDGE('',*,*,#314,.F.);
#124=ORIENTED_EDGE('',*,*,#344,.T.);
#125=ORIENTED_EDGE('',*,*,#345,.T.);
#126=ORIENTED_EDGE('',*,*,#346,.T.);
#127=ORIENTED_EDGE('',*,*,#309,.T.);
#128=ORIENTED_EDGE('',*,*,#347,.F.);
#129=ORIENTED_EDGE('',*,*,#334,.T.);
#130=ORIENTED_EDGE('',*,*,#333,.T.);
#131=ORIENTED_EDGE('',*,*,#314,.T.);
#132=ORIENTED_EDGE('',*,*,#313,.T.);
#133=ORIENTED_EDGE('',*,*,#306,.F.);
#134=ORIENTED_EDGE('',*,*,#332,.F.);
#135=ORIENTED_EDGE('',*,*,#323,.T.);
#136=ORIENTED_EDGE('',*,*,#321,.T.);
#137=ORIENTED_EDGE('',*,*,#306,.T.);
#138=ORIENTED_EDGE('',*,*,#308,.F.);
#139=ORIENTED_EDGE('',*,*,#309,.F.);
#140=ORIENTED_EDGE('',*,*,#307,.T.);
#141=ORIENTED_EDGE('',*,*,#327,.F.);
#142=ORIENTED_EDGE('',*,*,#330,.T.);
#143=ORIENTED_EDGE('',*,*,#352,.T.);
#144=ORIENTED_EDGE('',*,*,#336,.T.);
#145=ORIENTED_EDGE('',*,*,#332,.T.);
#146=ORIENTED_EDGE('',*,*,#321,.F.);
#147=ORIENTED_EDGE('',*,*,#325,.T.);
#148=ORIENTED_EDGE('',*,*,#316,.F.);
#149=ORIENTED_EDGE('',*,*,#319,.T.);
#150=ORIENTED_EDGE('',*,*,#338,.F.);
#151=ORIENTED_EDGE('',*,*,#342,.T.);
#152=ORIENTED_EDGE('',*,*,#341,.T.);
#153=ORIENTED_EDGE('',*,*,#338,.T.);
#154=ORIENTED_EDGE('',*,*,#318,.F.);
#155=ORIENTED_EDGE('',*,*,#315,.T.);
#156=ORIENTED_EDGE('',*,*,#320,.T.);
#157=ORIENTED_EDGE('',*,*,#318,.T.);
#158=ORIENTED_EDGE('',*,*,#319,.F.);
#159=ORIENTED_EDGE('',*,*,#317,.F.);
#160=ORIENTED_EDGE('',*,*,#322,.T.);
#161=ORIENTED_EDGE('',*,*,#317,.T.);
#162=ORIENTED_EDGE('',*,*,#316,.T.);
#163=ORIENTED_EDGE('',*,*,#324,.F.);
#164=ORIENTED_EDGE('',*,*,#324,.T.);
#165=ORIENTED_EDGE('',*,*,#325,.F.);
#166=ORIENTED_EDGE('',*,*,#323,.F.);
#167=ORIENTED_EDGE('',*,*,#326,.T.);
#168=ORIENTED_EDGE('',*,*,#331,.T.);
#169=ORIENTED_EDGE('',*,*,#329,.T.);
#170=ORIENTED_EDGE('',*,*,#330,.F.);
#171=ORIENTED_EDGE('',*,*,#328,.F.);
#172=ORIENTED_EDGE('',*,*,#336,.F.);
#173=ORIENTED_EDGE('',*,*,#335,.T.);
#174=ORIENTED_EDGE('',*,*,#337,.T.);
#175=ORIENTED_EDGE('',*,*,#334,.F.);
#176=ORIENTED_EDGE('',*,*,#339,.T.);
#177=ORIENTED_EDGE('',*,*,#328,.T.);
#178=ORIENTED_EDGE('',*,*,#327,.T.);
#179=ORIENTED_EDGE('',*,*,#340,.F.);
#180=ORIENTED_EDGE('',*,*,#340,.T.);
#181=ORIENTED_EDGE('',*,*,#342,.F.);
#182=ORIENTED_EDGE('',*,*,#341,.F.);
#183=ORIENTED_EDGE('',*,*,#343,.T.);
#184=ORIENTED_EDGE('',*,*,#348,.T.);
#185=ORIENTED_EDGE('',*,*,#345,.F.);
#186=ORIENTED_EDGE('',*,*,#344,.F.);
#187=ORIENTED_EDGE('',*,*,#349,.F.);
#188=ORIENTED_EDGE('',*,*,#350,.F.);
#189=ORIENTED_EDGE('',*,*,#335,.F.);
#190=ORIENTED_EDGE('',*,*,#352,.F.);
#191=ORIENTED_EDGE('',*,*,#329,.F.);
#192=ORIENTED_EDGE('',*,*,#351,.T.);
#193=ORIENTED_EDGE('',*,*,#353,.T.);
#194=ORIENTED_EDGE('',*,*,#354,.T.);
#195=ORIENTED_EDGE('',*,*,#303,.F.);
#196=ORIENTED_EDGE('',*,*,#355,.F.);
#197=ORIENTED_EDGE('',*,*,#302,.T.);
#198=ORIENTED_EDGE('',*,*,#353,.F.);
#199=ORIENTED_EDGE('',*,*,#358,.T.);
#200=ORIENTED_EDGE('',*,*,#359,.T.);
#201=ORIENTED_EDGE('',*,*,#360,.F.);
#202=ORIENTED_EDGE('',*,*,#357,.F.);
#203=ORIENTED_EDGE('',*,*,#361,.T.);
#204=ORIENTED_EDGE('',*,*,#362,.T.);
#205=ORIENTED_EDGE('',*,*,#363,.F.);
#206=ORIENTED_EDGE('',*,*,#359,.F.);
#207=ORIENTED_EDGE('',*,*,#364,.T.);
#208=ORIENTED_EDGE('',*,*,#365,.T.);
#209=ORIENTED_EDGE('',*,*,#366,.F.);
#210=ORIENTED_EDGE('',*,*,#362,.F.);
#211=ORIENTED_EDGE('',*,*,#367,.T.);
#212=ORIENTED_EDGE('',*,*,#368,.T.);
#213=ORIENTED_EDGE('',*,*,#369,.F.);
#214=ORIENTED_EDGE('',*,*,#365,.F.);
#215=ORIENTED_EDGE('',*,*,#370,.T.);
#216=ORIENTED_EDGE('',*,*,#371,.T.);
#217=ORIENTED_EDGE('',*,*,#372,.F.);
#218=ORIENTED_EDGE('',*,*,#368,.F.);
#219=ORIENTED_EDGE('',*,*,#380,.T.);
#220=ORIENTED_EDGE('',*,*,#374,.F.);
#221=ORIENTED_EDGE('',*,*,#371,.F.);
#222=ORIENTED_EDGE('',*,*,#373,.T.);
#223=ORIENTED_EDGE('',*,*,#377,.F.);
#224=ORIENTED_EDGE('',*,*,#375,.F.);
#225=ORIENTED_EDGE('',*,*,#376,.T.);
#226=ORIENTED_EDGE('',*,*,#390,.F.);
#227=ORIENTED_EDGE('',*,*,#382,.T.);
#228=ORIENTED_EDGE('',*,*,#381,.T.);
#229=ORIENTED_EDGE('',*,*,#383,.F.);
#230=ORIENTED_EDGE('',*,*,#380,.F.);
#231=ORIENTED_EDGE('',*,*,#384,.T.);
#232=ORIENTED_EDGE('',*,*,#375,.T.);
#233=ORIENTED_EDGE('',*,*,#385,.F.);
#234=ORIENTED_EDGE('',*,*,#386,.F.);
#235=ORIENTED_EDGE('',*,*,#387,.T.);
#236=ORIENTED_EDGE('',*,*,#379,.F.);
#237=ORIENTED_EDGE('',*,*,#381,.F.);
#238=ORIENTED_EDGE('',*,*,#378,.T.);
#239=ORIENTED_EDGE('',*,*,#389,.T.);
#240=ORIENTED_EDGE('',*,*,#386,.T.);
#241=ORIENTED_EDGE('',*,*,#388,.F.);
#242=ORIENTED_EDGE('',*,*,#387,.F.);
#243=ORIENTED_EDGE('',*,*,#390,.T.);
#244=ORIENTED_EDGE('',*,*,#356,.F.);
#245=ORIENTED_EDGE('',*,*,#391,.T.);
#246=ORIENTED_EDGE('',*,*,#302,.F.);
#247=ORIENTED_EDGE('',*,*,#393,.F.);
#248=ORIENTED_EDGE('',*,*,#356,.T.);
#249=ORIENTED_EDGE('',*,*,#376,.F.);
#250=ORIENTED_EDGE('',*,*,#384,.F.);
#251=ORIENTED_EDGE('',*,*,#389,.F.);
#252=ORIENTED_EDGE('',*,*,#378,.F.);
#253=ORIENTED_EDGE('',*,*,#382,.F.);
#254=ORIENTED_EDGE('',*,*,#373,.F.);
#255=ORIENTED_EDGE('',*,*,#370,.F.);
#256=ORIENTED_EDGE('',*,*,#367,.F.);
#257=ORIENTED_EDGE('',*,*,#364,.F.);
#258=ORIENTED_EDGE('',*,*,#361,.F.);
#259=ORIENTED_EDGE('',*,*,#358,.F.);
#260=ORIENTED_EDGE('',*,*,#392,.F.);
#261=ORIENTED_EDGE('',*,*,#310,.F.);
#262=ORIENTED_EDGE('',*,*,#333,.F.);
#263=ORIENTED_EDGE('',*,*,#337,.F.);
#264=ORIENTED_EDGE('',*,*,#351,.F.);
#265=ORIENTED_EDGE('',*,*,#331,.F.);
#266=ORIENTED_EDGE('',*,*,#339,.F.);
#267=ORIENTED_EDGE('',*,*,#343,.F.);
#268=ORIENTED_EDGE('',*,*,#315,.F.);
#269=ORIENTED_EDGE('',*,*,#320,.F.);
#270=ORIENTED_EDGE('',*,*,#322,.F.);
#271=ORIENTED_EDGE('',*,*,#326,.F.);
#272=ORIENTED_EDGE('',*,*,#307,.F.);
#273=ORIENTED_EDGE('',*,*,#346,.F.);
#274=ORIENTED_EDGE('',*,*,#348,.F.);
#275=ORIENTED_EDGE('',*,*,#305,.T.);
#276=ORIENTED_EDGE('',*,*,#354,.F.);
#277=ORIENTED_EDGE('',*,*,#391,.F.);
#278=ORIENTED_EDGE('',*,*,#394,.F.);
#279=ORIENTED_EDGE('',*,*,#311,.F.);
#280=ORIENTED_EDGE('',*,*,#392,.T.);
#281=ORIENTED_EDGE('',*,*,#357,.T.);
#282=ORIENTED_EDGE('',*,*,#393,.T.);
#283=ORIENTED_EDGE('',*,*,#355,.T.);
#284=ORIENTED_EDGE('',*,*,#304,.T.);
#285=ORIENTED_EDGE('',*,*,#349,.T.);
#286=ORIENTED_EDGE('',*,*,#347,.T.);
#287=ORIENTED_EDGE('',*,*,#308,.T.);
#288=ORIENTED_EDGE('',*,*,#313,.F.);
#289=ORIENTED_EDGE('',*,*,#312,.T.);
#290=ORIENTED_EDGE('',*,*,#394,.T.);
#291=ORIENTED_EDGE('',*,*,#360,.T.);
#292=ORIENTED_EDGE('',*,*,#363,.T.);
#293=ORIENTED_EDGE('',*,*,#366,.T.);
#294=ORIENTED_EDGE('',*,*,#369,.T.);
#295=ORIENTED_EDGE('',*,*,#372,.T.);
#296=ORIENTED_EDGE('',*,*,#374,.T.);
#297=ORIENTED_EDGE('',*,*,#383,.T.);
#298=ORIENTED_EDGE('',*,*,#379,.T.);
#299=ORIENTED_EDGE('',*,*,#388,.T.);
#300=ORIENTED_EDGE('',*,*,#385,.T.);
#301=ORIENTED_EDGE('',*,*,#377,.T.);
#302=EDGE_CURVE('',#488,#489,#447,.T.);
#303=EDGE_CURVE('',#490,#491,#395,.T.);
#304=EDGE_CURVE('',#490,#492,#448,.T.);
#305=EDGE_CURVE('',#493,#491,#449,.T.);
#306=EDGE_CURVE('',#494,#500,#450,.T.);
#307=EDGE_CURVE('',#495,#507,#396,.T.);
#308=EDGE_CURVE('',#496,#500,#397,.T.);
#309=EDGE_CURVE('',#495,#496,#398,.T.);
#310=EDGE_CURVE('',#497,#498,#399,.T.);
#311=EDGE_CURVE('',#498,#499,#400,.T.);
#312=EDGE_CURVE('',#501,#499,#401,.T.);
#313=EDGE_CURVE('',#501,#500,#451,.T.);
#314=EDGE_CURVE('',#497,#501,#452,.T.);
#315=EDGE_CURVE('',#504,#520,#402,.T.);
#316=EDGE_CURVE('',#505,#509,#453,.T.);
#317=EDGE_CURVE('',#503,#505,#454,.T.);
#318=EDGE_CURVE('',#504,#502,#455,.T.);
#319=EDGE_CURVE('',#505,#502,#403,.T.);
#320=EDGE_CURVE('',#503,#504,#404,.T.);
#321=EDGE_CURVE('',#506,#494,#456,.T.);
#322=EDGE_CURVE('',#508,#503,#405,.T.);
#323=EDGE_CURVE('',#507,#506,#457,.T.);
#324=EDGE_CURVE('',#508,#509,#458,.T.);
#325=EDGE_CURVE('',#506,#509,#406,.T.);
#326=EDGE_CURVE('',#507,#508,#407,.T.);
#327=EDGE_CURVE('',#510,#521,#459,.T.);
#328=EDGE_CURVE('',#511,#510,#460,.T.);
#329=EDGE_CURVE('',#512,#513,#461,.T.);
#330=EDGE_CURVE('',#510,#513,#408,.T.);
#331=EDGE_CURVE('',#511,#512,#409,.T.);
#332=EDGE_CURVE('',#514,#494,#462,.T.);
#333=EDGE_CURVE('',#515,#497,#410,.T.);
#334=EDGE_CURVE('',#514,#515,#463,.T.);
#335=EDGE_CURVE('',#517,#516,#464,.T.);
#336=EDGE_CURVE('',#517,#514,#411,.T.);
#337=EDGE_CURVE('',#516,#515,#412,.T.);
#338=EDGE_CURVE('',#518,#502,#465,.T.);
#339=EDGE_CURVE('',#519,#511,#413,.T.);
#340=EDGE_CURVE('',#519,#521,#466,.T.);
#341=EDGE_CURVE('',#520,#518,#467,.T.);
#342=EDGE_CURVE('',#518,#521,#414,.T.);
#343=EDGE_CURVE('',#520,#519,#415,.T.);
#344=EDGE_CURVE('',#523,#522,#468,.T.);
#345=EDGE_CURVE('',#522,#524,#469,.T.);
#346=EDGE_CURVE('',#524,#495,#416,.T.);
#347=EDGE_CURVE('',#523,#496,#417,.T.);
#348=EDGE_CURVE('',#493,#524,#470,.T.);
#349=EDGE_CURVE('',#492,#523,#471,.T.);
#350=EDGE_CURVE('',#493,#492,#418,.T.);
#351=EDGE_CURVE('',#512,#516,#472,.T.);
#352=EDGE_CURVE('',#513,#517,#473,.T.);
#353=EDGE_CURVE('',#488,#489,#419,.T.);
#354=EDGE_CURVE('',#489,#491,#474,.T.);
#355=EDGE_CURVE('',#488,#490,#475,.T.);
#356=EDGE_CURVE('',#525,#526,#476,.T.);
#357=EDGE_CURVE('',#527,#528,#420,.T.);
#358=EDGE_CURVE('',#527,#529,#421,.T.);
#359=EDGE_CURVE('',#529,#530,#422,.T.);
#360=EDGE_CURVE('',#528,#530,#423,.T.);
#361=EDGE_CURVE('',#529,#531,#424,.T.);
#362=EDGE_CURVE('',#531,#532,#425,.T.);
#363=EDGE_CURVE('',#530,#532,#426,.T.);
#364=EDGE_CURVE('',#531,#533,#427,.T.);
#365=EDGE_CURVE('',#533,#534,#428,.T.);
#366=EDGE_CURVE('',#532,#534,#429,.T.);
#367=EDGE_CURVE('',#533,#535,#430,.T.);
#368=EDGE_CURVE('',#535,#536,#431,.T.);
#369=EDGE_CURVE('',#534,#536,#432,.T.);
#370=EDGE_CURVE('',#535,#537,#433,.T.);
#371=EDGE_CURVE('',#537,#538,#434,.T.);
#372=EDGE_CURVE('',#536,#538,#435,.T.);
#373=EDGE_CURVE('',#537,#541,#436,.T.);
#374=EDGE_CURVE('',#538,#542,#437,.T.);
#375=EDGE_CURVE('',#539,#540,#438,.T.);
#376=EDGE_CURVE('',#539,#526,#477,.T.);
#377=EDGE_CURVE('',#540,#525,#478,.T.);
#378=EDGE_CURVE('',#543,#547,#479,.T.);
#379=EDGE_CURVE('',#544,#548,#480,.T.);
#380=EDGE_CURVE('',#541,#542,#439,.T.);
#381=EDGE_CURVE('',#543,#544,#481,.T.);
#382=EDGE_CURVE('',#541,#543,#440,.T.);
#383=EDGE_CURVE('',#542,#544,#441,.T.);
#384=EDGE_CURVE('',#545,#539,#442,.T.);
#385=EDGE_CURVE('',#546,#540,#443,.T.);
#386=EDGE_CURVE('',#545,#546,#482,.T.);
#387=EDGE_CURVE('',#547,#548,#483,.T.);
#388=EDGE_CURVE('',#548,#546,#444,.T.);
#389=EDGE_CURVE('',#547,#545,#445,.T.);
#390=EDGE_CURVE('',#525,#526,#446,.T.);
#391=EDGE_CURVE('',#526,#489,#484,.T.);
#392=EDGE_CURVE('',#498,#527,#485,.T.);
#393=EDGE_CURVE('',#525,#488,#486,.T.);
#394=EDGE_CURVE('',#499,#528,#487,.T.);
#395=(
BOUNDED_CURVE()
B_SPLINE_CURVE(2,(#842,#843,#844),.UNSPECIFIED.,.F.,.F.)
B_SPLINE_CURVE_WITH_KNOTS((3,3),(-343.03398188906,-338.691623939925),
 .UNSPECIFIED.)
CURVE()
GEOMETRIC_REPRESENTATION_ITEM()
RATIONAL_B_SPLINE_CURVE((1.,0.991071249821236,1.))
REPRESENTATION_ITEM('')
);
#396=(
BOUNDED_CURVE()
B_SPLINE_CURVE(2,(#851,#852,#853),.UNSPECIFIED.,.F.,.F.)
B_SPLINE_CURVE_WITH_KNOTS((3,3),(-90.4618440333594,-87.9618438018469),
 .UNSPECIFIED.)
CURVE()
GEOMETRIC_REPRESENTATION_ITEM()
RATIONAL_B_SPLINE_CURVE((1.,1.,1.))
REPRESENTATION_ITEM('')
);
#397=(
BOUNDED_CURVE()
B_SPLINE_CURVE(2,(#854,#855,#856),.UNSPECIFIED.,.F.,.F.)
B_SPLINE_CURVE_WITH_KNOTS((3,3),(-90.4618440333594,-89.4618440458798),
 .UNSPECIFIED.)
CURVE()
GEOMETRIC_REPRESENTATION_ITEM()
RATIONAL_B_SPLINE_CURVE((1.,1.,1.))
REPRESENTATION_ITEM('')
);
#398=(
BOUNDED_CURVE()
B_SPLINE_CURVE(1,(#857,#858),.UNSPECIFIED.,.F.,.F.)
B_SPLINE_CURVE_WITH_KNOTS((2,2),(0.,4.),.UNSPECIFIED.)
CURVE()
GEOMETRIC_REPRESENTATION_ITEM()
RATIONAL_B_SPLINE_CURVE((1.,1.))
REPRESENTATION_ITEM('')
);
#399=(
BOUNDED_CURVE()
B_SPLINE_CURVE(2,(#859,#860,#861,#862,#863,#864,#865,#866,#867),
 .UNSPECIFIED.,.F.,.F.)
B_SPLINE_CURVE_WITH_KNOTS((3,2,2,2,3),(-72.0779030103248,-71.2925047551784,
-70.5071065000319,-69.7217082448855,-68.9363099897391),.UNSPECIFIED.)
CURVE()
GEOMETRIC_REPRESENTATION_ITEM()
RATIONAL_B_SPLINE_CURVE((1.,0.923879514955879,1.,0.923879514955879,1.,0.923879514955879,
1.,0.923879514955879,1.))
REPRESENTATION_ITEM('')
);
#400=(
BOUNDED_CURVE()
B_SPLINE_CURVE(1,(#868,#869),.UNSPECIFIED.,.F.,.F.)
B_SPLINE_CURVE_WITH_KNOTS((2,2),(0.,4.),.UNSPECIFIED.)
CURVE()
GEOMETRIC_REPRESENTATION_ITEM()
RATIONAL_B_SPLINE_CURVE((1.,1.))
REPRESENTATION_ITEM('')
);
#401=(
BOUNDED_CURVE()
B_SPLINE_CURVE(2,(#870,#871,#872,#873,#874,#875,#876,#877,#878),
 .UNSPECIFIED.,.F.,.F.)
B_SPLINE_CURVE_WITH_KNOTS((3,2,2,2,3),(-72.0779030103248,-71.2925047551784,
-70.5071065000319,-69.7217082448855,-68.9363099897391),.UNSPECIFIED.)
CURVE()
GEOMETRIC_REPRESENTATION_ITEM()
RATIONAL_B_SPLINE_CURVE((1.,0.923879514955879,1.,0.923879514955879,1.,0.923879514955879,
1.,0.923879514955879,1.))
REPRESENTATION_ITEM('')
);
#402=(
BOUNDED_CURVE()
B_SPLINE_CURVE(2,(#883,#884,#885),.UNSPECIFIED.,.F.,.F.)
B_SPLINE_CURVE_WITH_KNOTS((3,3),(-86.4905719300978,-85.8239052634312),
 .UNSPECIFIED.)
CURVE()
GEOMETRIC_REPRESENTATION_ITEM()
RATIONAL_B_SPLINE_CURVE((1.,1.,1.))
REPRESENTATION_ITEM('')
);
#403=(
BOUNDED_CURVE()
B_SPLINE_CURVE(2,(#892,#893,#894),.UNSPECIFIED.,.F.,.F.)
B_SPLINE_CURVE_WITH_KNOTS((3,3),(0.,1.),.UNSPECIFIED.)
CURVE()
GEOMETRIC_REPRESENTATION_ITEM()
RATIONAL_B_SPLINE_CURVE((1.,0.707106781186541,1.))
REPRESENTATION_ITEM('')
);
#404=(
BOUNDED_CURVE()
B_SPLINE_CURVE(2,(#895,#896,#897),.UNSPECIFIED.,.F.,.F.)
B_SPLINE_CURVE_WITH_KNOTS((3,3),(0.,1.),.UNSPECIFIED.)
CURVE()
GEOMETRIC_REPRESENTATION_ITEM()
RATIONAL_B_SPLINE_CURVE((1.,0.707106781186545,1.))
REPRESENTATION_ITEM('')
);
#405=(
BOUNDED_CURVE()
B_SPLINE_CURVE(2,(#900,#901,#902),.UNSPECIFIED.,.F.,.F.)
B_SPLINE_CURVE_WITH_KNOTS((3,3),(-87.2270701474567,-86.8818612165524),
 .UNSPECIFIED.)
CURVE()
GEOMETRIC_REPRESENTATION_ITEM()
RATIONAL_B_SPLINE_CURVE((1.,1.,1.))
REPRESENTATION_ITEM('')
);
#406=(
BOUNDED_CURVE()
B_SPLINE_CURVE(2,(#907,#908,#909),.UNSPECIFIED.,.F.,.F.)
B_SPLINE_CURVE_WITH_KNOTS((3,3),(-1.,0.),.UNSPECIFIED.)
CURVE()
GEOMETRIC_REPRESENTATION_ITEM()
RATIONAL_B_SPLINE_CURVE((1.,0.707106781186562,1.))
REPRESENTATION_ITEM('')
);
#407=(
BOUNDED_CURVE()
B_SPLINE_CURVE(2,(#910,#911,#912),.UNSPECIFIED.,.F.,.F.)
B_SPLINE_CURVE_WITH_KNOTS((3,3),(-1.,0.),.UNSPECIFIED.)
CURVE()
GEOMETRIC_REPRESENTATION_ITEM()
RATIONAL_B_SPLINE_CURVE((1.,0.707106781186608,1.))
REPRESENTATION_ITEM('')
);
#408=(
BOUNDED_CURVE()
B_SPLINE_CURVE(2,(#919,#920,#921),.UNSPECIFIED.,.F.,.F.)
B_SPLINE_CURVE_WITH_KNOTS((3,3),(0.,1.),.UNSPECIFIED.)
CURVE()
GEOMETRIC_REPRESENTATION_ITEM()
RATIONAL_B_SPLINE_CURVE((1.,0.707106781186559,1.))
REPRESENTATION_ITEM('')
);
#409=(
BOUNDED_CURVE()
B_SPLINE_CURVE(2,(#922,#923,#924),.UNSPECIFIED.,.F.,.F.)
B_SPLINE_CURVE_WITH_KNOTS((3,3),(0.,1.),.UNSPECIFIED.)
CURVE()
GEOMETRIC_REPRESENTATION_ITEM()
RATIONAL_B_SPLINE_CURVE((1.,0.707106781186539,1.))
REPRESENTATION_ITEM('')
);
#410=(
BOUNDED_CURVE()
B_SPLINE_CURVE(2,(#927,#928,#929),.UNSPECIFIED.,.F.,.F.)
B_SPLINE_CURVE_WITH_KNOTS((3,3),(-78.194865165142,-72.0779030103248),
 .UNSPECIFIED.)
CURVE()
GEOMETRIC_REPRESENTATION_ITEM()
RATIONAL_B_SPLINE_CURVE((1.,1.,1.))
REPRESENTATION_ITEM('')
);
#411=(
BOUNDED_CURVE()
B_SPLINE_CURVE(2,(#934,#935,#936),.UNSPECIFIED.,.F.,.F.)
B_SPLINE_CURVE_WITH_KNOTS((3,3),(-1.,0.),.UNSPECIFIED.)
CURVE()
GEOMETRIC_REPRESENTATION_ITEM()
RATIONAL_B_SPLINE_CURVE((1.,0.707106781186573,1.))
REPRESENTATION_ITEM('')
);
#412=(
BOUNDED_CURVE()
B_SPLINE_CURVE(2,(#937,#938,#939),.UNSPECIFIED.,.F.,.F.)
B_SPLINE_CURVE_WITH_KNOTS((3,3),(-1.,0.),.UNSPECIFIED.)
CURVE()
GEOMETRIC_REPRESENTATION_ITEM()
RATIONAL_B_SPLINE_CURVE((1.,0.707106781186573,1.))
REPRESENTATION_ITEM('')
);
#413=(
BOUNDED_CURVE()
B_SPLINE_CURVE(2,(#942,#943,#944),.UNSPECIFIED.,.F.,.F.)
B_SPLINE_CURVE_WITH_KNOTS((3,3),(-84.9905719300978,-83.9905719300977),
 .UNSPECIFIED.)
CURVE()
GEOMETRIC_REPRESENTATION_ITEM()
RATIONAL_B_SPLINE_CURVE((1.,1.,1.))
REPRESENTATION_ITEM('')
);
#414=(
BOUNDED_CURVE()
B_SPLINE_CURVE(2,(#949,#950,#951),.UNSPECIFIED.,.F.,.F.)
B_SPLINE_CURVE_WITH_KNOTS((3,3),(-1.,0.),.UNSPECIFIED.)
CURVE()
GEOMETRIC_REPRESENTATION_ITEM()
RATIONAL_B_SPLINE_CURVE((1.,0.707106781186545,1.))
REPRESENTATION_ITEM('')
);
#415=(
BOUNDED_CURVE()
B_SPLINE_CURVE(2,(#952,#953,#954),.UNSPECIFIED.,.F.,.F.)
B_SPLINE_CURVE_WITH_KNOTS((3,3),(-1.,0.),.UNSPECIFIED.)
CURVE()
GEOMETRIC_REPRESENTATION_ITEM()
RATIONAL_B_SPLINE_CURVE((1.,0.707106781186541,1.))
REPRESENTATION_ITEM('')
);
#416=(
BOUNDED_CURVE()
B_SPLINE_CURVE(2,(#963,#964,#965,#966,#967),.UNSPECIFIED.,.F.,.F.)
B_SPLINE_CURVE_WITH_KNOTS((3,2,3),(-49.6211551223868,-48.1681485688574,
-45.811953495672),.UNSPECIFIED.)
CURVE()
GEOMETRIC_REPRESENTATION_ITEM()
RATIONAL_B_SPLINE_CURVE((1.,0.970684838494517,1.,0.923879542220197,1.))
REPRESENTATION_ITEM('')
);
#417=(
BOUNDED_CURVE()
B_SPLINE_CURVE(2,(#968,#969,#970,#971,#972),.UNSPECIFIED.,.F.,.F.)
B_SPLINE_CURVE_WITH_KNOTS((3,2,3),(-49.6211551223863,-48.1681485688574,
-45.811953495672),.UNSPECIFIED.)
CURVE()
GEOMETRIC_REPRESENTATION_ITEM()
RATIONAL_B_SPLINE_CURVE((1.,0.970684838494536,1.,0.923879542220197,1.))
REPRESENTATION_ITEM('')
);
#418=(
BOUNDED_CURVE()
B_SPLINE_CURVE(2,(#977,#978,#979),.UNSPECIFIED.,.F.,.F.)
B_SPLINE_CURVE_WITH_KNOTS((3,3),(338.691623939925,343.03398188906),
 .UNSPECIFIED.)
CURVE()
GEOMETRIC_REPRESENTATION_ITEM()
RATIONAL_B_SPLINE_CURVE((1.,0.991071249821236,1.))
REPRESENTATION_ITEM('')
);
#419=(
BOUNDED_CURVE()
B_SPLINE_CURVE(2,(#984,#985,#986),.UNSPECIFIED.,.F.,.F.)
B_SPLINE_CURVE_WITH_KNOTS((3,3),(-343.03398188906,-338.691623939925),
 .UNSPECIFIED.)
CURVE()
GEOMETRIC_REPRESENTATION_ITEM()
RATIONAL_B_SPLINE_CURVE((1.,0.991071249821231,1.))
REPRESENTATION_ITEM('')
);
#420=(
BOUNDED_CURVE()
B_SPLINE_CURVE(1,(#993,#994),.UNSPECIFIED.,.F.,.F.)
B_SPLINE_CURVE_WITH_KNOTS((2,2),(0.,4.),.UNSPECIFIED.)
CURVE()
GEOMETRIC_REPRESENTATION_ITEM()
RATIONAL_B_SPLINE_CURVE((1.,1.))
REPRESENTATION_ITEM('')
);
#421=(
BOUNDED_CURVE()
B_SPLINE_CURVE(2,(#995,#996,#997),.UNSPECIFIED.,.F.,.F.)
B_SPLINE_CURVE_WITH_KNOTS((3,3),(-64.9960852829961,-64.5529037013142),
 .UNSPECIFIED.)
CURVE()
GEOMETRIC_REPRESENTATION_ITEM()
RATIONAL_B_SPLINE_CURVE((1.,0.975549056981057,1.))
REPRESENTATION_ITEM('')
);
#422=(
BOUNDED_CURVE()
B_SPLINE_CURVE(1,(#998,#999),.UNSPECIFIED.,.F.,.F.)
B_SPLINE_CURVE_WITH_KNOTS((2,2),(0.,4.),.UNSPECIFIED.)
CURVE()
GEOMETRIC_REPRESENTATION_ITEM()
RATIONAL_B_SPLINE_CURVE((1.,1.))
REPRESENTATION_ITEM('')
);
#423=(
BOUNDED_CURVE()
B_SPLINE_CURVE(2,(#1000,#1001,#1002),.UNSPECIFIED.,.F.,.F.)
B_SPLINE_CURVE_WITH_KNOTS((3,3),(-64.9960852829961,-64.5529037013142),
 .UNSPECIFIED.)
CURVE()
GEOMETRIC_REPRESENTATION_ITEM()
RATIONAL_B_SPLINE_CURVE((1.,0.975549056981057,1.))
REPRESENTATION_ITEM('')
);
#424=(
BOUNDED_CURVE()
B_SPLINE_CURVE(2,(#1003,#1004,#1005),.UNSPECIFIED.,.F.,.F.)
B_SPLINE_CURVE_WITH_KNOTS((3,3),(-64.5529037013142,-62.7081222669802),
 .UNSPECIFIED.)
CURVE()
GEOMETRIC_REPRESENTATION_ITEM()
RATIONAL_B_SPLINE_CURVE((1.,1.,1.))
REPRESENTATION_ITEM('')
);
#425=(
BOUNDED_CURVE()
B_SPLINE_CURVE(1,(#1006,#1007),.UNSPECIFIED.,.F.,.F.)
B_SPLINE_CURVE_WITH_KNOTS((2,2),(0.,4.),.UNSPECIFIED.)
CURVE()
GEOMETRIC_REPRESENTATION_ITEM()
RATIONAL_B_SPLINE_CURVE((1.,1.))
REPRESENTATION_ITEM('')
);
#426=(
BOUNDED_CURVE()
B_SPLINE_CURVE(2,(#1008,#1009,#1010),.UNSPECIFIED.,.F.,.F.)
B_SPLINE_CURVE_WITH_KNOTS((3,3),(-64.5529037013142,-62.7081222669802),
 .UNSPECIFIED.)
CURVE()
GEOMETRIC_REPRESENTATION_ITEM()
RATIONAL_B_SPLINE_CURVE((1.,1.,1.))
REPRESENTATION_ITEM('')
);
#427=(
BOUNDED_CURVE()
B_SPLINE_CURVE(2,(#1011,#1012,#1013,#1014,#1015),.UNSPECIFIED.,.F.,.F.)
B_SPLINE_CURVE_WITH_KNOTS((3,2,3),(-62.7081222669802,-62.5067244761326,
-62.3053266852849),.UNSPECIFIED.)
CURVE()
GEOMETRIC_REPRESENTATION_ITEM()
RATIONAL_B_SPLINE_CURVE((1.,0.875901865487773,1.,0.875901865487773,1.))
REPRESENTATION_ITEM('')
);
#428=(
BOUNDED_CURVE()
B_SPLINE_CURVE(1,(#1016,#1017),.UNSPECIFIED.,.F.,.F.)
B_SPLINE_CURVE_WITH_KNOTS((2,2),(0.,4.),.UNSPECIFIED.)
CURVE()
GEOMETRIC_REPRESENTATION_ITEM()
RATIONAL_B_SPLINE_CURVE((1.,1.))
REPRESENTATION_ITEM('')
);
#429=(
BOUNDED_CURVE()
B_SPLINE_CURVE(2,(#1018,#1019,#1020,#1021,#1022),.UNSPECIFIED.,.F.,.F.)
B_SPLINE_CURVE_WITH_KNOTS((3,2,3),(-62.7081222669802,-62.5067244761326,
-62.3053266852849),.UNSPECIFIED.)
CURVE()
GEOMETRIC_REPRESENTATION_ITEM()
RATIONAL_B_SPLINE_CURVE((1.,0.875901865487773,1.,0.875901865487773,1.))
REPRESENTATION_ITEM('')
);
#430=(
BOUNDED_CURVE()
B_SPLINE_CURVE(2,(#1023,#1024,#1025),.UNSPECIFIED.,.F.,.F.)
B_SPLINE_CURVE_WITH_KNOTS((3,3),(-62.3053266852849,-61.0374361638006),
 .UNSPECIFIED.)
CURVE()
GEOMETRIC_REPRESENTATION_ITEM()
RATIONAL_B_SPLINE_CURVE((1.,1.,1.))
REPRESENTATION_ITEM('')
);
#431=(
BOUNDED_CURVE()
B_SPLINE_CURVE(1,(#1026,#1027),.UNSPECIFIED.,.F.,.F.)
B_SPLINE_CURVE_WITH_KNOTS((2,2),(0.,4.),.UNSPECIFIED.)
CURVE()
GEOMETRIC_REPRESENTATION_ITEM()
RATIONAL_B_SPLINE_CURVE((1.,1.))
REPRESENTATION_ITEM('')
);
#432=(
BOUNDED_CURVE()
B_SPLINE_CURVE(2,(#1028,#1029,#1030),.UNSPECIFIED.,.F.,.F.)
B_SPLINE_CURVE_WITH_KNOTS((3,3),(-62.3053266852849,-61.0374361638006),
 .UNSPECIFIED.)
CURVE()
GEOMETRIC_REPRESENTATION_ITEM()
RATIONAL_B_SPLINE_CURVE((1.,1.,1.))
REPRESENTATION_ITEM('')
);
#433=(
BOUNDED_CURVE()
B_SPLINE_CURVE(2,(#1031,#1032,#1033),.UNSPECIFIED.,.F.,.F.)
B_SPLINE_CURVE_WITH_KNOTS((3,3),(-61.0374361638006,-60.5207717229065),
 .UNSPECIFIED.)
CURVE()
GEOMETRIC_REPRESENTATION_ITEM()
RATIONAL_B_SPLINE_CURVE((1.,0.869471722018763,1.))
REPRESENTATION_ITEM('')
);
#434=(
BOUNDED_CURVE()
B_SPLINE_CURVE(1,(#1034,#1035),.UNSPECIFIED.,.F.,.F.)
B_SPLINE_CURVE_WITH_KNOTS((2,2),(0.,4.),.UNSPECIFIED.)
CURVE()
GEOMETRIC_REPRESENTATION_ITEM()
RATIONAL_B_SPLINE_CURVE((1.,1.))
REPRESENTATION_ITEM('')
);
#435=(
BOUNDED_CURVE()
B_SPLINE_CURVE(2,(#1036,#1037,#1038),.UNSPECIFIED.,.F.,.F.)
B_SPLINE_CURVE_WITH_KNOTS((3,3),(-61.0374361638006,-60.5207717229065),
 .UNSPECIFIED.)
CURVE()
GEOMETRIC_REPRESENTATION_ITEM()
RATIONAL_B_SPLINE_CURVE((1.,0.869471722018763,1.))
REPRESENTATION_ITEM('')
);
#436=(
BOUNDED_CURVE()
B_SPLINE_CURVE(2,(#1039,#1040,#1041),.UNSPECIFIED.,.F.,.F.)
B_SPLINE_CURVE_WITH_KNOTS((3,3),(-60.5207717229065,-56.6393640759057),
 .UNSPECIFIED.)
CURVE()
GEOMETRIC_REPRESENTATION_ITEM()
RATIONAL_B_SPLINE_CURVE((1.,1.,1.))
REPRESENTATION_ITEM('')
);
#437=(
BOUNDED_CURVE()
B_SPLINE_CURVE(2,(#1042,#1043,#1044),.UNSPECIFIED.,.F.,.F.)
B_SPLINE_CURVE_WITH_KNOTS((3,3),(-60.5207717229065,-56.639364075906),
 .UNSPECIFIED.)
CURVE()
GEOMETRIC_REPRESENTATION_ITEM()
RATIONAL_B_SPLINE_CURVE((1.,1.,1.))
REPRESENTATION_ITEM('')
);
#438=(
BOUNDED_CURVE()
B_SPLINE_CURVE(2,(#1045,#1046,#1047,#1048,#1049),.UNSPECIFIED.,.F.,.F.)
B_SPLINE_CURVE_WITH_KNOTS((3,2,3),(338.691623939925,340.862802914493,343.03398188906),
 .UNSPECIFIED.)
CURVE()
GEOMETRIC_REPRESENTATION_ITEM()
RATIONAL_B_SPLINE_CURVE((1.,0.997765315548008,1.,0.997765315548009,1.))
REPRESENTATION_ITEM('')
);
#439=(
BOUNDED_CURVE()
B_SPLINE_CURVE(1,(#1058,#1059),.UNSPECIFIED.,.F.,.F.)
B_SPLINE_CURVE_WITH_KNOTS((2,2),(0.,4.),.UNSPECIFIED.)
CURVE()
GEOMETRIC_REPRESENTATION_ITEM()
RATIONAL_B_SPLINE_CURVE((1.,1.))
REPRESENTATION_ITEM('')
);
#440=(
BOUNDED_CURVE()
B_SPLINE_CURVE(2,(#1062,#1063,#1064),.UNSPECIFIED.,.F.,.F.)
B_SPLINE_CURVE_WITH_KNOTS((3,3),(0.,0.617042426566549),.UNSPECIFIED.)
CURVE()
GEOMETRIC_REPRESENTATION_ITEM()
RATIONAL_B_SPLINE_CURVE((1.,0.952783645094644,1.))
REPRESENTATION_ITEM('')
);
#441=(
BOUNDED_CURVE()
B_SPLINE_CURVE(2,(#1065,#1066,#1067),.UNSPECIFIED.,.F.,.F.)
B_SPLINE_CURVE_WITH_KNOTS((3,3),(0.,0.617042426566549),.UNSPECIFIED.)
CURVE()
GEOMETRIC_REPRESENTATION_ITEM()
RATIONAL_B_SPLINE_CURVE((1.,0.952783645094645,1.))
REPRESENTATION_ITEM('')
);
#442=(
BOUNDED_CURVE()
B_SPLINE_CURVE(2,(#1068,#1069,#1070,#1071,#1072,#1073,#1074),
 .UNSPECIFIED.,.F.,.F.)
B_SPLINE_CURVE_WITH_KNOTS((3,2,2,3),(-54.8768042638175,-54.8227922658578,
-54.4243424135474,-54.2904111608686),.UNSPECIFIED.)
CURVE()
GEOMETRIC_REPRESENTATION_ITEM()
RATIONAL_B_SPLINE_CURVE((1.,1.,1.,1.,1.,1.,1.))
REPRESENTATION_ITEM('')
);
#443=(
BOUNDED_CURVE()
B_SPLINE_CURVE(2,(#1075,#1076,#1077,#1078,#1079,#1080,#1081),
 .UNSPECIFIED.,.F.,.F.)
B_SPLINE_CURVE_WITH_KNOTS((3,2,2,3),(-54.8768042638173,-54.8227922658578,
-54.4243424135474,-54.2904111608685),.UNSPECIFIED.)
CURVE()
GEOMETRIC_REPRESENTATION_ITEM()
RATIONAL_B_SPLINE_CURVE((1.,1.,1.,1.,1.,1.,1.))
REPRESENTATION_ITEM('')
);
#444=(
BOUNDED_CURVE()
B_SPLINE_CURVE(2,(#1086,#1087,#1088),.UNSPECIFIED.,.F.,.F.)
B_SPLINE_CURVE_WITH_KNOTS((3,3),(0.,0.314159265359023),.UNSPECIFIED.)
CURVE()
GEOMETRIC_REPRESENTATION_ITEM()
RATIONAL_B_SPLINE_CURVE((1.,0.707106781186591,1.))
REPRESENTATION_ITEM('')
);
#445=(
BOUNDED_CURVE()
B_SPLINE_CURVE(2,(#1089,#1090,#1091),.UNSPECIFIED.,.F.,.F.)
B_SPLINE_CURVE_WITH_KNOTS((3,3),(0.,0.314159265359023),.UNSPECIFIED.)
CURVE()
GEOMETRIC_REPRESENTATION_ITEM()
RATIONAL_B_SPLINE_CURVE((1.,0.707106781186592,1.))
REPRESENTATION_ITEM('')
);
#446=(
BOUNDED_CURVE()
B_SPLINE_CURVE(2,(#1092,#1093,#1094),.UNSPECIFIED.,.F.,.F.)
B_SPLINE_CURVE_WITH_KNOTS((3,3),(-343.03398188906,-338.691623939925),
 .UNSPECIFIED.)
CURVE()
GEOMETRIC_REPRESENTATION_ITEM()
RATIONAL_B_SPLINE_CURVE((1.,0.991071249821231,1.))
REPRESENTATION_ITEM('')
);
#447=B_SPLINE_CURVE_WITH_KNOTS('',1,(#840,#841),.UNSPECIFIED.,.F.,.F.,(2,
2),(5.86606874731852,9.86606874731862),.UNSPECIFIED.);
#448=B_SPLINE_CURVE_WITH_KNOTS('',1,(#845,#846),.UNSPECIFIED.,.F.,.F.,(2,
2),(0.,1.2),.UNSPECIFIED.);
#449=B_SPLINE_CURVE_WITH_KNOTS('',1,(#847,#848),.UNSPECIFIED.,.F.,.F.,(2,
2),(-1.2,0.),.UNSPECIFIED.);
#450=B_SPLINE_CURVE_WITH_KNOTS('',1,(#849,#850),.UNSPECIFIED.,.F.,.F.,(2,
2),(8.00000000000026,10.0000000000001),.UNSPECIFIED.);
#451=B_SPLINE_CURVE_WITH_KNOTS('',1,(#879,#880),.UNSPECIFIED.,.F.,.F.,(2,
2),(-3.00000000000011,1.42696166292367E-7),.UNSPECIFIED.);
#452=B_SPLINE_CURVE_WITH_KNOTS('',1,(#881,#882),.UNSPECIFIED.,.F.,.F.,(2,
2),(0.,4.),.UNSPECIFIED.);
#453=B_SPLINE_CURVE_WITH_KNOTS('',1,(#886,#887),.UNSPECIFIED.,.F.,.F.,(2,
2),(1.24544186211446,2.72911223787223),.UNSPECIFIED.);
#454=B_SPLINE_CURVE_WITH_KNOTS('',1,(#888,#889),.UNSPECIFIED.,.F.,.F.,(2,
2),(1.00078120753102E-14,5.99999999999988),.UNSPECIFIED.);
#455=B_SPLINE_CURVE_WITH_KNOTS('',1,(#890,#891),.UNSPECIFIED.,.F.,.F.,(2,
2),(2.15383266777274E-14,5.99999999999988),.UNSPECIFIED.);
#456=B_SPLINE_CURVE_WITH_KNOTS('',1,(#898,#899),.UNSPECIFIED.,.F.,.F.,(2,
2),(6.50000000000009,8.00000000000026),.UNSPECIFIED.);
#457=B_SPLINE_CURVE_WITH_KNOTS('',1,(#903,#904),.UNSPECIFIED.,.F.,.F.,(2,
2),(1.06660712002234E-13,5.99999999999989),.UNSPECIFIED.);
#458=B_SPLINE_CURVE_WITH_KNOTS('',1,(#905,#906),.UNSPECIFIED.,.F.,.F.,(2,
2),(7.11020774684096E-14,5.99999999999989),.UNSPECIFIED.);
#459=B_SPLINE_CURVE_WITH_KNOTS('',1,(#913,#914),.UNSPECIFIED.,.F.,.F.,(2,
2),(0.25,0.75),.UNSPECIFIED.);
#460=B_SPLINE_CURVE_WITH_KNOTS('',1,(#915,#916),.UNSPECIFIED.,.F.,.F.,(2,
2),(1.02279296143596E-14,6.00000000000008),.UNSPECIFIED.);
#461=B_SPLINE_CURVE_WITH_KNOTS('',1,(#917,#918),.UNSPECIFIED.,.F.,.F.,(2,
2),(3.19744231092025E-13,5.99999999999991),.UNSPECIFIED.);
#462=B_SPLINE_CURVE_WITH_KNOTS('',1,(#925,#926),.UNSPECIFIED.,.F.,.F.,(2,
2),(0.249088372422891,2.97820061029512),.UNSPECIFIED.);
#463=B_SPLINE_CURVE_WITH_KNOTS('',1,(#930,#931),.UNSPECIFIED.,.F.,.F.,(2,
2),(0.,6.00000000000016),.UNSPECIFIED.);
#464=B_SPLINE_CURVE_WITH_KNOTS('',1,(#932,#933),.UNSPECIFIED.,.F.,.F.,(2,
2),(1.70530256582419E-13,5.99999999999998),.UNSPECIFIED.);
#465=B_SPLINE_CURVE_WITH_KNOTS('',1,(#940,#941),.UNSPECIFIED.,.F.,.F.,(2,
2),(2.49999999999982,3.49999999999964),.UNSPECIFIED.);
#466=B_SPLINE_CURVE_WITH_KNOTS('',1,(#945,#946),.UNSPECIFIED.,.F.,.F.,(2,
2),(3.07670555699248E-14,5.99999999999985),.UNSPECIFIED.);
#467=B_SPLINE_CURVE_WITH_KNOTS('',1,(#947,#948),.UNSPECIFIED.,.F.,.F.,(2,
2),(6.41708908233265E-14,5.99999999999985),.UNSPECIFIED.);
#468=B_SPLINE_CURVE_WITH_KNOTS('',3,(#955,#956,#957,#958),.UNSPECIFIED.,
 .F.,.F.,(4,4),(0.,2.19448542147),.UNSPECIFIED.);
#469=B_SPLINE_CURVE_WITH_KNOTS('',3,(#959,#960,#961,#962),.UNSPECIFIED.,
 .F.,.F.,(4,4),(0.,2.19448542147003),.UNSPECIFIED.);
#470=B_SPLINE_CURVE_WITH_KNOTS('',1,(#973,#974),.UNSPECIFIED.,.F.,.F.,(2,
2),(-5.97820061029523,-2.11363103865081),.UNSPECIFIED.);
#471=B_SPLINE_CURVE_WITH_KNOTS('',1,(#975,#976),.UNSPECIFIED.,.F.,.F.,(2,
2),(-5.97820061029523,-2.1136310386504),.UNSPECIFIED.);
#472=B_SPLINE_CURVE_WITH_KNOTS('',1,(#980,#981),.UNSPECIFIED.,.F.,.F.,(2,
2),(0.,2.99999999999996),.UNSPECIFIED.);
#473=B_SPLINE_CURVE_WITH_KNOTS('',1,(#982,#983),.UNSPECIFIED.,.F.,.F.,(2,
2),(0.,2.99999999999996),.UNSPECIFIED.);
#474=B_SPLINE_CURVE_WITH_KNOTS('',1,(#987,#988),.UNSPECIFIED.,.F.,.F.,(2,
2),(-7.77820079140192,-7.67820061029523),.UNSPECIFIED.);
#475=B_SPLINE_CURVE_WITH_KNOTS('',1,(#989,#990),.UNSPECIFIED.,.F.,.F.,(2,
2),(-7.7782007914019,-7.67820061029523),.UNSPECIFIED.);
#476=B_SPLINE_CURVE_WITH_KNOTS('',1,(#991,#992),.UNSPECIFIED.,.F.,.F.,(2,
2),(5.86606874731852,9.86606874731862),.UNSPECIFIED.);
#477=B_SPLINE_CURVE_WITH_KNOTS('',1,(#1050,#1051),.UNSPECIFIED.,.F.,.F.,
(2,2),(-8.97820061029523,-7.77820079140192),.UNSPECIFIED.);
#478=B_SPLINE_CURVE_WITH_KNOTS('',1,(#1052,#1053),.UNSPECIFIED.,.F.,.F.,
(2,2),(-8.97820061029523,-7.7782007914019),.UNSPECIFIED.);
#479=B_SPLINE_CURVE_WITH_KNOTS('',1,(#1054,#1055),.UNSPECIFIED.,.F.,.F.,
(2,2),(-9.37397329872934,-9.07602095811014),.UNSPECIFIED.);
#480=B_SPLINE_CURVE_WITH_KNOTS('',1,(#1056,#1057),.UNSPECIFIED.,.F.,.F.,
(2,2),(-9.37397312665837,-9.07602078603892),.UNSPECIFIED.);
#481=B_SPLINE_CURVE_WITH_KNOTS('',1,(#1060,#1061),.UNSPECIFIED.,.F.,.F.,
(2,2),(-1.29403998828983E-14,3.99999999999999),.UNSPECIFIED.);
#482=B_SPLINE_CURVE_WITH_KNOTS('',1,(#1082,#1083),.UNSPECIFIED.,.F.,.F.,
(2,2),(8.21565038222616E-15,4.00000000000001),.UNSPECIFIED.);
#483=B_SPLINE_CURVE_WITH_KNOTS('',1,(#1084,#1085),.UNSPECIFIED.,.F.,.F.,
(2,2),(-3.99680288865056E-15,4.),.UNSPECIFIED.);
#484=B_SPLINE_CURVE_WITH_KNOTS('',1,(#1095,#1096),.UNSPECIFIED.,.F.,.F.,
(2,2),(0.,2.5),.UNSPECIFIED.);
#485=B_SPLINE_CURVE_WITH_KNOTS('',1,(#1097,#1098),.UNSPECIFIED.,.F.,.F.,
(2,2),(0.,10.0833076202583),.UNSPECIFIED.);
#486=B_SPLINE_CURVE_WITH_KNOTS('',1,(#1099,#1100),.UNSPECIFIED.,.F.,.F.,
(2,2),(0.,2.5),.UNSPECIFIED.);
#487=B_SPLINE_CURVE_WITH_KNOTS('',1,(#1101,#1102),.UNSPECIFIED.,.F.,.F.,
(2,2),(0.,10.0833076202583),.UNSPECIFIED.);
#488=VERTEX_POINT('',#779);
#489=VERTEX_POINT('',#780);
#490=VERTEX_POINT('',#781);
#491=VERTEX_POINT('',#782);
#492=VERTEX_POINT('',#783);
#493=VERTEX_POINT('',#784);
#494=VERTEX_POINT('',#785);
#495=VERTEX_POINT('',#786);
#496=VERTEX_POINT('',#787);
#497=VERTEX_POINT('',#788);
#498=VERTEX_POINT('',#789);
#499=VERTEX_POINT('',#790);
#500=VERTEX_POINT('',#791);
#501=VERTEX_POINT('',#792);
#502=VERTEX_POINT('',#793);
#503=VERTEX_POINT('',#794);
#504=VERTEX_POINT('',#795);
#505=VERTEX_POINT('',#796);
#506=VERTEX_POINT('',#797);
#507=VERTEX_POINT('',#798);
#508=VERTEX_POINT('',#799);
#509=VERTEX_POINT('',#800);
#510=VERTEX_POINT('',#801);
#511=VERTEX_POINT('',#802);
#512=VERTEX_POINT('',#803);
#513=VERTEX_POINT('',#804);
#514=VERTEX_POINT('',#805);
#515=VERTEX_POINT('',#806);
#516=VERTEX_POINT('',#807);
#517=VERTEX_POINT('',#808);
#518=VERTEX_POINT('',#809);
#519=VERTEX_POINT('',#810);
#520=VERTEX_POINT('',#811);
#521=VERTEX_POINT('',#812);
#522=VERTEX_POINT('',#813);
#523=VERTEX_POINT('',#814);
#524=VERTEX_POINT('',#815);
#525=VERTEX_POINT('',#816);
#526=VERTEX_POINT('',#817);
#527=VERTEX_POINT('',#818);
#528=VERTEX_POINT('',#819);
#529=VERTEX_POINT('',#820);
#530=VERTEX_POINT('',#821);
#531=VERTEX_POINT('',#822);
#532=VERTEX_POINT('',#823);
#533=VERTEX_POINT('',#824);
#534=VERTEX_POINT('',#825);
#535=VERTEX_POINT('',#826);
#536=VERTEX_POINT('',#827);
#537=VERTEX_POINT('',#828);
#538=VERTEX_POINT('',#829);
#539=VERTEX_POINT('',#830);
#540=VERTEX_POINT('',#831);
#541=VERTEX_POINT('',#832);
#542=VERTEX_POINT('',#833);
#543=VERTEX_POINT('',#834);
#544=VERTEX_POINT('',#835);
#545=VERTEX_POINT('',#836);
#546=VERTEX_POINT('',#837);
#547=VERTEX_POINT('',#838);
#548=VERTEX_POINT('',#839);
#549=PLANE('',#674);
#550=PLANE('',#675);
#551=PLANE('',#676);
#552=PLANE('',#677);
#553=PLANE('',#679);
#554=PLANE('',#683);
#555=PLANE('',#686);
#556=PLANE('',#688);
#557=PLANE('',#690);
#558=PLANE('',#692);
#559=PLANE('',#694);
#560=PLANE('',#697);
#561=PLANE('',#698);
#562=PLANE('',#700);
#563=PLANE('',#701);
#564=PLANE('',#702);
#565=PLANE('',#703);
#566=PLANE('',#704);
#567=CYLINDRICAL_SURFACE('',#671,15.0000000000156);
#568=CYLINDRICAL_SURFACE('',#672,0.999999999999972);
#569=CYLINDRICAL_SURFACE('',#673,2.99999999999995);
#570=CYLINDRICAL_SURFACE('',#678,0.500000000000018);
#571=CYLINDRICAL_SURFACE('',#680,0.500000000000103);
#572=CYLINDRICAL_SURFACE('',#681,0.499999999999925);
#573=CYLINDRICAL_SURFACE('',#682,0.49999999999992);
#574=CYLINDRICAL_SURFACE('',#684,0.500000000000079);
#575=CYLINDRICAL_SURFACE('',#685,15.);
#576=CYLINDRICAL_SURFACE('',#687,15.);
#577=CYLINDRICAL_SURFACE('',#689,0.999999999998726);
#578=CYLINDRICAL_SURFACE('',#691,0.199999999999918);
#579=CYLINDRICAL_SURFACE('',#693,0.500000000000107);
#580=CYLINDRICAL_SURFACE('',#695,15.);
#581=CYLINDRICAL_SURFACE('',#696,0.999999999999281);
#582=CYLINDRICAL_SURFACE('',#699,0.199999999999989);
#583=SHAPE_DEFINITION_REPRESENTATION(#584,#669);
#584=PRODUCT_DEFINITION_SHAPE('Document','',#586);
#585=PRODUCT_DEFINITION_CONTEXT('3D Mechanical Parts',#658,'design');
#586=PRODUCT_DEFINITION('A','First version',#628,#585);
#587=DATE_TIME_ROLE('classification_date');
#588=DATE_TIME_ROLE('creation_date');
#589=APPLIED_DATE_AND_TIME_ASSIGNMENT(#613,#587,(#592));
#590=APPLIED_DATE_AND_TIME_ASSIGNMENT(#615,#588,(#586));
#591=SECURITY_CLASSIFICATION_LEVEL('unclassified');
#592=SECURITY_CLASSIFICATION('A','Security for version',#591);
#593=APPLIED_SECURITY_CLASSIFICATION_ASSIGNMENT(#592,(#628));
#594=APPROVAL_ROLE('Version approval');
#595=APPROVAL_ROLE('Version Security approval');
#596=APPROVAL_ROLE('Definition approval');
#597=APPROVAL_PERSON_ORGANIZATION(#646,#622,#594);
#598=APPROVAL_PERSON_ORGANIZATION(#647,#623,#595);
#599=APPROVAL_PERSON_ORGANIZATION(#650,#624,#596);
#600=COORDINATED_UNIVERSAL_TIME_OFFSET(5,0,.BEHIND.);
#601=LOCAL_TIME(0,0,0.,#600);
#602=LOCAL_TIME(0,0,0.,#600);
#603=LOCAL_TIME(0,0,0.,#600);
#604=LOCAL_TIME(0,0,0.,#600);
#605=LOCAL_TIME(0,0,0.,#600);
#606=CALENDAR_DATE(1999,1,1);
#607=CALENDAR_DATE(1999,1,1);
#608=CALENDAR_DATE(1999,1,1);
#609=CALENDAR_DATE(1999,1,1);
#610=CALENDAR_DATE(1999,1,1);
#611=DATE_AND_TIME(#606,#601);
#612=DATE_AND_TIME(#607,#602);
#613=DATE_AND_TIME(#608,#603);
#614=DATE_AND_TIME(#609,#604);
#615=DATE_AND_TIME(#610,#605);
#616=APPROVAL_DATE_TIME(#611,#622);
#617=APPROVAL_DATE_TIME(#612,#623);
#618=APPROVAL_DATE_TIME(#614,#624);
#619=APPROVAL_STATUS('not_yet_approved');
#620=APPROVAL_STATUS('not_yet_approved');
#621=APPROVAL_STATUS('approved');
#622=APPROVAL(#619,'Version approval');
#623=APPROVAL(#620,'Version Security approval');
#624=APPROVAL(#621,'Definition approval');
#625=APPLIED_APPROVAL_ASSIGNMENT(#622,(#628));
#626=APPLIED_APPROVAL_ASSIGNMENT(#623,(#592));
#627=APPLIED_APPROVAL_ASSIGNMENT(#624,(#586));
#628=PRODUCT_DEFINITION_FORMATION_WITH_SPECIFIED_SOURCE('A',
'First version',#660,.MADE.);
#629=PERSON_AND_ORGANIZATION_ROLE('design_owner');
#630=PERSON_AND_ORGANIZATION_ROLE('creator');
#631=PERSON_AND_ORGANIZATION_ROLE('design_supplier');
#632=PERSON_AND_ORGANIZATION_ROLE('classification_officer');
#633=PERSON_AND_ORGANIZATION_ROLE('creator');
#634=ORGANIZATION('STI','lab','lab');
#635=ORGANIZATION('STI','unknown','unknown');
#636=ORGANIZATION('STI','unknown','unknown');
#637=ORGANIZATION('STI','unknown','unknown');
#638=ORGANIZATION('STI','unknown','unknown');
#639=ORGANIZATION('STI','unknown','unknown');
#640=ORGANIZATION('STI','unknown','unknown');
#641=PERSON('1','Box','vc60',$,$,$);
#642=PERSON('2','last','first',$,$,$);
#643=PERSON('3','President','Mr.',$,$,$);
#644=PERSON_AND_ORGANIZATION(#641,#634);
#645=PERSON_AND_ORGANIZATION(#642,#635);
#646=PERSON_AND_ORGANIZATION(#643,#636);
#647=PERSON_AND_ORGANIZATION(#643,#637);
#648=PERSON_AND_ORGANIZATION(#643,#638);
#649=PERSON_AND_ORGANIZATION(#642,#639);
#650=PERSON_AND_ORGANIZATION(#643,#640);
#651=APPLIED_PERSON_AND_ORGANIZATION_ASSIGNMENT(#644,#629,(#660));
#652=APPLIED_PERSON_AND_ORGANIZATION_ASSIGNMENT(#645,#630,(#628));
#653=APPLIED_PERSON_AND_ORGANIZATION_ASSIGNMENT(#645,#631,(#628));
#654=APPLIED_PERSON_AND_ORGANIZATION_ASSIGNMENT(#648,#632,(#592));
#655=APPLIED_PERSON_AND_ORGANIZATION_ASSIGNMENT(#649,#633,(#586));
#656=PRODUCT_RELATED_PRODUCT_CATEGORY('detail','detail',(#660));
#657=APPLICATION_PROTOCOL_DEFINITION('International Standard',
'config_control_design',1994,#658);
#658=APPLICATION_CONTEXT(
'configuration controlled 3d designs of mechanical parts and assemblie
s');
#659=PRODUCT_CONTEXT('3D Mechanical Parts',#658,'mechanical');
#660=PRODUCT('Document','Document','',(#659));
#661=(
LENGTH_UNIT()
NAMED_UNIT(*)
SI_UNIT(.MILLI.,.METRE.)
);
#662=(
NAMED_UNIT(*)
PLANE_ANGLE_UNIT()
SI_UNIT($,.RADIAN.)
);
#663=DIMENSIONAL_EXPONENTS(0.,0.,0.,0.,0.,0.,0.);
#664=PLANE_ANGLE_MEASURE_WITH_UNIT(PLANE_ANGLE_MEASURE(0.01745329252),#662);
#665=(
CONVERSION_BASED_UNIT('DEGREES',#664)
NAMED_UNIT(#663)
PLANE_ANGLE_UNIT()
);
#666=(
NAMED_UNIT(*)
SI_UNIT($,.STERADIAN.)
SOLID_ANGLE_UNIT()
);
#667=UNCERTAINTY_MEASURE_WITH_UNIT(LENGTH_MEASURE(0.001),#661,
'DISTANCE_ACCURACY_VALUE',
'Maximum model space distance between geometric entities at asserted c
onnectivities');
#668=(
GEOMETRIC_REPRESENTATION_CONTEXT(3)
GLOBAL_UNCERTAINTY_ASSIGNED_CONTEXT((#667))
GLOBAL_UNIT_ASSIGNED_CONTEXT((#666,#665,#661))
REPRESENTATION_CONTEXT('ID1','3D')
);
#669=SHAPE_REPRESENTATION('Document',(#670,#705),#668);
#670=AXIS2_PLACEMENT_3D('',#744,#706,#707);
#671=AXIS2_PLACEMENT_3D('',#745,#708,$);
#672=AXIS2_PLACEMENT_3D('',#746,#709,$);
#673=AXIS2_PLACEMENT_3D('',#747,#710,$);
#674=AXIS2_PLACEMENT_3D('',#748,#711,$);
#675=AXIS2_PLACEMENT_3D('',#749,#712,$);
#676=AXIS2_PLACEMENT_3D('',#750,#713,$);
#677=AXIS2_PLACEMENT_3D('',#751,#714,$);
#678=AXIS2_PLACEMENT_3D('',#752,#715,$);
#679=AXIS2_PLACEMENT_3D('',#753,#716,$);
#680=AXIS2_PLACEMENT_3D('',#754,#717,$);
#681=AXIS2_PLACEMENT_3D('',#755,#718,$);
#682=AXIS2_PLACEMENT_3D('',#756,#719,$);
#683=AXIS2_PLACEMENT_3D('',#757,#720,$);
#684=AXIS2_PLACEMENT_3D('',#758,#721,$);
#685=AXIS2_PLACEMENT_3D('',#759,#722,$);
#686=AXIS2_PLACEMENT_3D('',#760,#723,$);
#687=AXIS2_PLACEMENT_3D('',#761,#724,$);
#688=AXIS2_PLACEMENT_3D('',#762,#725,$);
#689=AXIS2_PLACEMENT_3D('',#763,#726,$);
#690=AXIS2_PLACEMENT_3D('',#764,#727,$);
#691=AXIS2_PLACEMENT_3D('',#765,#728,$);
#692=AXIS2_PLACEMENT_3D('',#766,#729,$);
#693=AXIS2_PLACEMENT_3D('',#767,#730,$);
#694=AXIS2_PLACEMENT_3D('',#768,#731,$);
#695=AXIS2_PLACEMENT_3D('',#769,#732,$);
#696=AXIS2_PLACEMENT_3D('',#770,#733,$);
#697=AXIS2_PLACEMENT_3D('',#771,#734,$);
#698=AXIS2_PLACEMENT_3D('',#772,#735,$);
#699=AXIS2_PLACEMENT_3D('',#773,#736,$);
#700=AXIS2_PLACEMENT_3D('',#774,#737,$);
#701=AXIS2_PLACEMENT_3D('',#775,#738,$);
#702=AXIS2_PLACEMENT_3D('',#776,#739,$);
#703=AXIS2_PLACEMENT_3D('',#777,#740,$);
#704=AXIS2_PLACEMENT_3D('',#778,#741,$);
#705=AXIS2_PLACEMENT_3D('',#1103,#742,#743);
#706=DIRECTION('',(0.,0.,1.));
#707=DIRECTION('',(1.,0.,0.));
#708=DIRECTION('',(0.,1.06105590970706E-13,1.));
#709=DIRECTION('',(-1.,-1.00054184463364E-33,-5.4526055763456E-27));
#710=DIRECTION('',(1.,-5.3592486397586E-14,-1.29383694096208E-13));
#711=DIRECTION('',(0.,1.,0.));
#712=DIRECTION('',(0.,0.,1.));
#713=DIRECTION('',(1.,0.,0.));
#714=DIRECTION('',(0.,0.,1.));
#715=DIRECTION('',(-1.,-3.55945896183447E-13,3.55945896183447E-13));
#716=DIRECTION('',(0.,-1.,0.));
#717=DIRECTION('',(-1.,3.65970276091114E-12,-3.65970276091114E-12));
#718=DIRECTION('',(1.,1.61837448882155E-12,1.61837448882155E-12));
#719=DIRECTION('',(-1.,-2.65351232847518E-13,2.65351232847518E-13));
#720=DIRECTION('',(0.,-1.,0.));
#721=DIRECTION('',(-1.,-1.67787749255174E-13,1.67787749255176E-13));
#722=DIRECTION('',(-1.8947806286936E-15,1.8947806286936E-15,-1.));
#723=DIRECTION('',(0.,0.,-1.));
#724=DIRECTION('',(-1.8947806286936E-15,1.8947806286936E-15,-1.));
#725=DIRECTION('',(0.,0.,-1.));
#726=DIRECTION('',(-1.,-6.53861744270075E-12,1.47308745597038E-12));
#727=DIRECTION('',(2.87228626402568E-14,-0.903391925153219,0.428815845751951));
#728=DIRECTION('',(1.,2.19051421420976E-25,1.38498803672618E-25));
#729=DIRECTION('',(0.,0.,-1.));
#730=DIRECTION('',(1.,1.18966304434379E-12,-2.09395661097175E-12));
#731=DIRECTION('',(-3.68265265470097E-14,0.815593348719556,-0.578625517519251));
#732=DIRECTION('',(-1.8947806286936E-15,1.8947806286936E-15,-1.));
#733=DIRECTION('',(1.,-1.67954435623221E-12,3.38789608741845E-13));
#734=DIRECTION('',(0.,0.,1.));
#735=DIRECTION('',(0.,1.,0.));
#736=DIRECTION('',(1.,-8.07331116586025E-13,-8.07331116586255E-13));
#737=DIRECTION('',(0.,0.,1.));
#738=DIRECTION('',(0.,1.,0.));
#739=DIRECTION('',(-1.,0.,0.));
#740=DIRECTION('',(0.,-1.,0.));
#741=DIRECTION('',(1.,0.,0.));
#742=DIRECTION('',(0.,0.,1.));
#743=DIRECTION('',(1.,0.,0.));
#744=CARTESIAN_POINT('',(0.,0.,0.));
#745=CARTESIAN_POINT('',(-4.54698778629137E-13,0.308427164479327,61.7254655567067));
#746=CARTESIAN_POINT('',(-2.27373675443232E-13,12.3084271644952,65.3036661670003));
#747=CARTESIAN_POINT('',(-6.1552474834196E-13,12.3084271644952,65.3036661670004));
#748=CARTESIAN_POINT('',(3.99999999999977,11.3084271644952,62.3254655567051));
#749=CARTESIAN_POINT('',(-2.00000000000023,12.3084269892863,68.3036663481071));
#750=CARTESIAN_POINT('',(3.99999999999977,7.30842716449519,62.3254655567051));
#751=CARTESIAN_POINT('',(-2.00000000000023,7.30842716449519,64.3254655567052));
#752=CARTESIAN_POINT('',(0.999999999999951,8.80842716449517,64.8254655567052));
#753=CARTESIAN_POINT('',(-2.00000000000023,9.30842716449519,62.3254655567051));
#754=CARTESIAN_POINT('',(1.0000000000016,9.80842716449529,67.803666348107));
#755=CARTESIAN_POINT('',(0.99999999999885,7.80842716449511,62.8254655567051));
#756=CARTESIAN_POINT('',(0.999999999999906,10.8084271644953,62.8254655567051));
#757=CARTESIAN_POINT('',(-2.,7.30842716449519,62.3254655567051));
#758=CARTESIAN_POINT('',(0.999999999999689,7.80842716449526,63.8254655567051));
#759=CARTESIAN_POINT('',(-2.27369014173144E-13,0.308427164495185,65.3254655567052));
#760=CARTESIAN_POINT('',(-2.60000000000014,7.65842716449532,62.3254655567052));
#761=CARTESIAN_POINT('',(-2.27369014173144E-13,0.308427164495185,65.8254655567052));
#762=CARTESIAN_POINT('',(-2.04000000000046,13.2870757858459,61.0254653755985));
#763=CARTESIAN_POINT('',(6.08387009180545E-12,12.3084271644965,55.2203581797458));
#764=CARTESIAN_POINT('',(-2.00000000000045,13.2118190896485,54.7915423339943));
#765=CARTESIAN_POINT('',(-4.54747350886492E-13,12.6014259636875,53.0392185133938));
#766=CARTESIAN_POINT('',(-2.00000000000045,12.6014259636876,52.8392185133939));
#767=CARTESIAN_POINT('',(5.9223095459962E-13,13.869316485172,53.339218513394));
#768=CARTESIAN_POINT('',(-2.00000000000045,14.2988204886946,53.0832374380037));
#769=CARTESIAN_POINT('',(-2.27369014173144E-13,0.308427164495185,63.3254655567052));
#770=CARTESIAN_POINT('',(-2.13429170711747E-12,15.7291086484249,56.8275132160858));
#771=CARTESIAN_POINT('',(-53.7500000000002,-53.4415728355048,57.3254655567053));
#772=CARTESIAN_POINT('',(-3.82119937783318,16.7291086484242,58.6197436727551));
#773=CARTESIAN_POINT('',(-7.29900411925283E-13,16.5291086484242,57.1254655567052));
#774=CARTESIAN_POINT('',(-2.04000000000046,13.2870757858459,58.5254653755985));
#775=CARTESIAN_POINT('',(1.99999999999966,15.1744959118136,58.5254653755985));
#776=CARTESIAN_POINT('',(-2.00000000000023,17.161876916898,68.9014864797881));
#777=CARTESIAN_POINT('',(-2.00000000000084,13.3084271644952,65.3036658000048));
#778=CARTESIAN_POINT('',(1.99999999999955,17.1618769168979,68.901486342744));
#779=CARTESIAN_POINT('',(1.99999999999965,15.1744959118136,61.0254653755985));
#780=CARTESIAN_POINT('',(-2.00000000000045,15.1744959118136,61.0254653755985));
#781=CARTESIAN_POINT('',(1.99999999999955,15.1744959118136,61.1254655567051));
#782=CARTESIAN_POINT('',(-2.00000000000045,15.1744959118136,61.1254655567051));
#783=CARTESIAN_POINT('',(1.99999999999955,15.1744959118136,62.3254655567051));
#784=CARTESIAN_POINT('',(-2.00000000000045,15.1744959118136,62.3254655567052));
#785=CARTESIAN_POINT('',(3.99999999999977,11.3084271644952,68.3036663481071));
#786=CARTESIAN_POINT('',(-2.00000000000023,12.308426989286,68.3036661670004));
#787=CARTESIAN_POINT('',(1.99999999999977,12.3084269892863,68.3036661670004));
#788=CARTESIAN_POINT('',(-2.00000000000023,11.3084271644952,65.3036661670003));
#789=CARTESIAN_POINT('',(-2.00000000000023,13.308427164495,65.3036658000044));
#790=CARTESIAN_POINT('',(1.99999999999977,13.3084271644952,65.3036658000044));
#791=CARTESIAN_POINT('',(1.99999999999977,11.3084271644952,68.3036663481071));
#792=CARTESIAN_POINT('',(1.99999999999977,11.3084271644952,65.3036661670002));
#793=CARTESIAN_POINT('',(3.99999999999977,8.80842716449519,64.3254655567051));
#794=CARTESIAN_POINT('',(-2.00000000000023,9.30842716449519,64.8254655567051));
#795=CARTESIAN_POINT('',(-2.00000000000023,8.80842716449519,64.3254655567052));
#796=CARTESIAN_POINT('',(3.99999999999977,9.30842716449519,64.8254655567051));
#797=CARTESIAN_POINT('',(3.99999999999977,9.80842716449519,68.3036663481071));
#798=CARTESIAN_POINT('',(-2.,9.80842716449519,68.3036663958715));
#799=CARTESIAN_POINT('',(-2.,9.30842716449519,67.8036663481071));
#800=CARTESIAN_POINT('',(3.99999999999977,9.30842716449519,67.8036663481071));
#801=CARTESIAN_POINT('',(3.99999999999977,7.30842716449519,62.8254655567051));
#802=CARTESIAN_POINT('',(-2.00000000000023,7.30842716449519,62.8254655567052));
#803=CARTESIAN_POINT('',(-2.00000000000023,7.80842716449519,62.3254655567052));
#804=CARTESIAN_POINT('',(3.99999999999977,7.80842716449519,62.3254655567051));
#805=CARTESIAN_POINT('',(3.99999999999977,11.3084271644952,62.8254655567051));
#806=CARTESIAN_POINT('',(-2.00000000000023,11.3084271644952,62.8254655567051));
#807=CARTESIAN_POINT('',(-2.00000000000023,10.8084271644952,62.3254655567052));
#808=CARTESIAN_POINT('',(3.99999999999977,10.8084271644952,62.3254655567051));
#809=CARTESIAN_POINT('',(3.99999999999977,7.80842716449519,64.3254655567051));
#810=CARTESIAN_POINT('',(-2.,7.30842716449519,63.8254655567052));
#811=CARTESIAN_POINT('',(-2.,7.80842716449519,64.3254655567052));
#812=CARTESIAN_POINT('',(3.99999999999977,7.30842716449519,63.8254655567051));
#813=CARTESIAN_POINT('',(2.30940599976748E-6,15.308427164495,65.3036656898363));
#814=CARTESIAN_POINT('',(1.99999999999955,15.1744959118136,66.19003512835));
#815=CARTESIAN_POINT('',(-2.00000000000045,15.1744959118136,66.1900351283496));
#816=CARTESIAN_POINT('',(1.99999999999965,15.1744959118136,58.5254653755985));
#817=CARTESIAN_POINT('',(-2.00000000000045,15.1744959118136,58.5254653755985));
#818=CARTESIAN_POINT('',(-2.00000000000045,13.3084271644952,55.2203581797461));
#819=CARTESIAN_POINT('',(1.99999999999955,13.3084271644952,55.2203581797461));
#820=CARTESIAN_POINT('',(-2.00000000000045,13.2118190896485,54.7915423339943));
#821=CARTESIAN_POINT('',(1.99999999999955,13.2118190896485,54.7915423339943));
#822=CARTESIAN_POINT('',(-2.00000000000045,12.420747578657,53.1249816825442));
#823=CARTESIAN_POINT('',(1.99999999999955,12.420747578657,53.1249816825442));
#824=CARTESIAN_POINT('',(-2.00000000000045,12.6014259636876,52.8392185133939));
#825=CARTESIAN_POINT('',(1.99999999999955,12.6014259636876,52.8392185133939));
#826=CARTESIAN_POINT('',(-2.00000000000045,13.869316485172,52.8392185133939));
#827=CARTESIAN_POINT('',(1.99999999999955,13.869316485172,52.8392185133939));
#828=CARTESIAN_POINT('',(-2.00000000000045,14.2988204886946,53.0832374380037));
#829=CARTESIAN_POINT('',(1.99999999999955,14.2988204886948,53.0832374380036));
#830=CARTESIAN_POINT('',(-2.00000000000045,15.1744959118136,57.3254655567052));
#831=CARTESIAN_POINT('',(1.99999999999955,15.1744959118136,57.3254655567051));
#832=CARTESIAN_POINT('',(-2.00000000000045,16.5447019971436,56.2488876985667));
#833=CARTESIAN_POINT('',(1.99999999999955,16.5447019971436,56.2488876985664));
#834=CARTESIAN_POINT('',(-2.00000000000045,16.7291086484242,56.8275132160859));
#835=CARTESIAN_POINT('',(1.99999999999955,16.7291086484242,56.8275132160857));
#836=CARTESIAN_POINT('',(-2.00000000000045,16.5291086484241,57.3254175945201));
#837=CARTESIAN_POINT('',(1.99999999999955,16.5291086484241,57.3254175945201));
#838=CARTESIAN_POINT('',(-2.00000000000045,16.7291086484242,57.1254655567051));
#839=CARTESIAN_POINT('',(1.99999999999955,16.7291086484242,57.1254655567051));
#840=CARTESIAN_POINT('',(1.99999999999965,15.1744959118136,61.0254653755985));
#841=CARTESIAN_POINT('',(-2.00000000000045,15.1744959118136,61.0254653755985));
#842=CARTESIAN_POINT('',(1.99999999999955,15.1744959118136,61.1254655567051));
#843=CARTESIAN_POINT('',(-3.6564151699791E-13,15.4435650294118,61.1254655567051));
#844=CARTESIAN_POINT('',(-2.00000000000045,15.1744959118136,61.1254655567051));
#845=CARTESIAN_POINT('',(1.99999999999955,15.1744959118136,61.1254655567051));
#846=CARTESIAN_POINT('',(1.99999999999955,15.1744959118136,62.3254655567051));
#847=CARTESIAN_POINT('',(-2.00000000000045,15.1744959118136,62.3254655567052));
#848=CARTESIAN_POINT('',(-2.00000000000045,15.1744959118136,61.1254655567051));
#849=CARTESIAN_POINT('',(3.99999999999977,11.3084271644952,68.3036663481071));
#850=CARTESIAN_POINT('',(1.99999999999977,11.3084271644952,68.3036663481071));
#851=CARTESIAN_POINT('',(-2.00000000000023,12.308426989286,68.3036661670004));
#852=CARTESIAN_POINT('',(-2.00000000000023,11.0584270768906,68.3036662814359));
#853=CARTESIAN_POINT('',(-2.,9.80842716449519,68.3036663958715));
#854=CARTESIAN_POINT('',(1.99999999999977,12.3084269892863,68.3036661670004));
#855=CARTESIAN_POINT('',(1.99999999999977,11.8084270768908,68.3036662575537));
#856=CARTESIAN_POINT('',(1.99999999999977,11.3084271644952,68.3036663481071));
#857=CARTESIAN_POINT('',(-2.00000000000023,12.308426989286,68.3036661670004));
#858=CARTESIAN_POINT('',(1.99999999999977,12.3084269892863,68.3036661670004));
#859=CARTESIAN_POINT('',(-2.00000000000023,11.3084271644952,65.3036661670003));
#860=CARTESIAN_POINT('',(-2.00000000000031,11.3084271644953,65.7178797831186));
#861=CARTESIAN_POINT('',(-2.00000000000023,11.6013204481848,66.0107730130632));
#862=CARTESIAN_POINT('',(-2.00000000000031,11.8942137318748,66.3036662430076));
#863=CARTESIAN_POINT('',(-2.00000000000023,12.308427347993,66.3036661670003));
#864=CARTESIAN_POINT('',(-2.00000000000031,12.7226409641117,66.3036660909929));
#865=CARTESIAN_POINT('',(-2.00000000000023,13.0155341403105,66.0107727535579));
#866=CARTESIAN_POINT('',(-2.00000000000056,13.3084273165101,65.7178794161227));
#867=CARTESIAN_POINT('',(-2.00000000000023,13.308427164495,65.3036658000044));
#868=CARTESIAN_POINT('',(-2.00000000000023,13.308427164495,65.3036658000044));
#869=CARTESIAN_POINT('',(1.99999999999977,13.3084271644952,65.3036658000044));
#870=CARTESIAN_POINT('',(1.99999999999977,11.3084271644952,65.3036661670002));
#871=CARTESIAN_POINT('',(1.99999999999953,11.3084271644955,65.7178797831186));
#872=CARTESIAN_POINT('',(1.99999999999977,11.601320448185,66.0107730130632));
#873=CARTESIAN_POINT('',(1.99999999999953,11.894213731875,66.3036662430076));
#874=CARTESIAN_POINT('',(1.99999999999977,12.3084273479932,66.3036661670002));
#875=CARTESIAN_POINT('',(1.99999999999953,12.7226409641119,66.3036660909929));
#876=CARTESIAN_POINT('',(1.99999999999977,13.0155341403108,66.0107727535578));
#877=CARTESIAN_POINT('',(1.99999999999953,13.3084273165104,65.7178794161227));
#878=CARTESIAN_POINT('',(1.99999999999977,13.3084271644952,65.3036658000044));
#879=CARTESIAN_POINT('',(1.99999999999977,11.3084271644952,65.3036661670002));
#880=CARTESIAN_POINT('',(1.99999999999977,11.3084271644952,68.3036663481071));
#881=CARTESIAN_POINT('',(-2.00000000000023,11.3084271644952,65.3036661670003));
#882=CARTESIAN_POINT('',(1.99999999999977,11.3084271644952,65.3036661670002));
#883=CARTESIAN_POINT('',(-2.00000000000023,8.80842716449519,64.3254655567052));
#884=CARTESIAN_POINT('',(-2.,8.30842716449519,64.3254655567052));
#885=CARTESIAN_POINT('',(-2.,7.80842716449519,64.3254655567052));
#886=CARTESIAN_POINT('',(3.99999999999977,9.30842716449519,64.8254655567051));
#887=CARTESIAN_POINT('',(3.99999999999977,9.30842716449519,67.8036663481071));
#888=CARTESIAN_POINT('',(-2.00000000000023,9.30842716449519,64.8254655567051));
#889=CARTESIAN_POINT('',(3.99999999999977,9.30842716449519,64.8254655567051));
#890=CARTESIAN_POINT('',(-2.00000000000023,8.80842716449519,64.3254655567052));
#891=CARTESIAN_POINT('',(3.99999999999977,8.80842716449519,64.3254655567051));
#892=CARTESIAN_POINT('',(3.99999999999977,9.30842716449519,64.8254655567051));
#893=CARTESIAN_POINT('',(3.99999999999959,9.3084271644954,64.3254655567052));
#894=CARTESIAN_POINT('',(3.99999999999977,8.80842716449519,64.3254655567051));
#895=CARTESIAN_POINT('',(-2.00000000000023,9.30842716449519,64.8254655567051));
#896=CARTESIAN_POINT('',(-2.00000000000021,9.30842716449515,64.3254655567053));
#897=CARTESIAN_POINT('',(-2.00000000000023,8.80842716449519,64.3254655567052));
#898=CARTESIAN_POINT('',(3.99999999999977,9.80842716449519,68.3036663481071));
#899=CARTESIAN_POINT('',(3.99999999999977,11.3084271644952,68.3036663481071));
#900=CARTESIAN_POINT('',(-2.,9.30842716449519,67.8036663481071));
#901=CARTESIAN_POINT('',(-2.00000000000023,9.30842716449519,66.3145659524062));
#902=CARTESIAN_POINT('',(-2.00000000000023,9.30842716449519,64.8254655567051));
#903=CARTESIAN_POINT('',(-2.,9.80842716449519,68.3036663958715));
#904=CARTESIAN_POINT('',(3.99999999999977,9.80842716449519,68.3036663481071));
#905=CARTESIAN_POINT('',(-2.,9.30842716449519,67.8036663481071));
#906=CARTESIAN_POINT('',(3.99999999999977,9.30842716449519,67.8036663481071));
#907=CARTESIAN_POINT('',(3.99999999999977,9.80842716449519,68.3036663481071));
#908=CARTESIAN_POINT('',(3.99999999999802,9.30842716449516,68.3036663481071));
#909=CARTESIAN_POINT('',(3.99999999999977,9.30842716449519,67.8036663481071));
#910=CARTESIAN_POINT('',(-2.,9.80842716449519,68.3036663958715));
#911=CARTESIAN_POINT('',(-2.00000000000196,9.30842716449525,68.3036663719892));
#912=CARTESIAN_POINT('',(-2.,9.30842716449519,67.8036663481071));
#913=CARTESIAN_POINT('',(3.99999999999977,7.30842716449519,62.8254655567051));
#914=CARTESIAN_POINT('',(3.99999999999977,7.30842716449519,63.8254655567051));
#915=CARTESIAN_POINT('',(-2.00000000000023,7.30842716449519,62.8254655567052));
#916=CARTESIAN_POINT('',(3.99999999999977,7.30842716449519,62.8254655567051));
#917=CARTESIAN_POINT('',(-2.00000000000023,7.80842716449519,62.3254655567052));
#918=CARTESIAN_POINT('',(3.99999999999977,7.80842716449519,62.3254655567051));
#919=CARTESIAN_POINT('',(3.99999999999977,7.30842716449519,62.8254655567051));
#920=CARTESIAN_POINT('',(4.00000000000045,7.30842716449522,62.3254655567051));
#921=CARTESIAN_POINT('',(3.99999999999977,7.80842716449519,62.3254655567051));
#922=CARTESIAN_POINT('',(-2.00000000000023,7.30842716449519,62.8254655567052));
#923=CARTESIAN_POINT('',(-1.99999999999943,7.30842716449507,62.3254655567052));
#924=CARTESIAN_POINT('',(-2.00000000000023,7.80842716449519,62.3254655567052));
#925=CARTESIAN_POINT('',(3.99999999999977,11.3084271644952,62.8254655567051));
#926=CARTESIAN_POINT('',(3.99999999999977,11.3084271644952,68.3036663481071));
#927=CARTESIAN_POINT('',(-2.00000000000023,11.3084271644952,62.8254655567051));
#928=CARTESIAN_POINT('',(-2.00000000000023,11.3084271644952,64.0645658618527));
#929=CARTESIAN_POINT('',(-2.00000000000023,11.3084271644952,65.3036661670003));
#930=CARTESIAN_POINT('',(3.99999999999977,11.3084271644952,62.8254655567051));
#931=CARTESIAN_POINT('',(-2.00000000000023,11.3084271644952,62.8254655567051));
#932=CARTESIAN_POINT('',(3.99999999999977,10.8084271644952,62.3254655567051));
#933=CARTESIAN_POINT('',(-2.00000000000023,10.8084271644952,62.3254655567052));
#934=CARTESIAN_POINT('',(3.99999999999977,10.8084271644952,62.3254655567051));
#935=CARTESIAN_POINT('',(3.9999999999996,11.3084271644953,62.3254655567051));
#936=CARTESIAN_POINT('',(3.99999999999977,11.3084271644952,62.8254655567051));
#937=CARTESIAN_POINT('',(-2.00000000000023,10.8084271644952,62.3254655567052));
#938=CARTESIAN_POINT('',(-2.00000000000055,11.3084271644953,62.3254655567051));
#939=CARTESIAN_POINT('',(-2.00000000000023,11.3084271644952,62.8254655567051));
#940=CARTESIAN_POINT('',(3.99999999999977,7.80842716449519,64.3254655567051));
#941=CARTESIAN_POINT('',(3.99999999999977,8.80842716449519,64.3254655567051));
#942=CARTESIAN_POINT('',(-2.,7.30842716449519,63.8254655567052));
#943=CARTESIAN_POINT('',(-2.00000000000023,7.30842716449519,63.3254655567052));
#944=CARTESIAN_POINT('',(-2.00000000000023,7.30842716449519,62.8254655567052));
#945=CARTESIAN_POINT('',(-2.,7.30842716449519,63.8254655567052));
#946=CARTESIAN_POINT('',(3.99999999999977,7.30842716449519,63.8254655567051));
#947=CARTESIAN_POINT('',(-2.,7.80842716449519,64.3254655567052));
#948=CARTESIAN_POINT('',(3.99999999999977,7.80842716449519,64.3254655567051));
#949=CARTESIAN_POINT('',(3.99999999999977,7.80842716449519,64.3254655567051));
#950=CARTESIAN_POINT('',(3.99999999999971,7.30842716449525,64.3254655567053));
#951=CARTESIAN_POINT('',(3.99999999999977,7.30842716449519,63.8254655567051));
#952=CARTESIAN_POINT('',(-2.,7.80842716449519,64.3254655567052));
#953=CARTESIAN_POINT('',(-1.99999999999994,7.30842716449531,64.3254655567052));
#954=CARTESIAN_POINT('',(-2.,7.30842716449519,63.8254655567052));
#955=CARTESIAN_POINT('',(1.99999999999955,15.1744959118136,66.19003512835));
#956=CARTESIAN_POINT('',(1.33511249430717,15.2639462590432,65.900797964358));
#957=CARTESIAN_POINT('',(0.666889198365197,15.3084271263564,65.601907606137));
#958=CARTESIAN_POINT('',(2.30940599976748E-6,15.308427164495,65.3036656898363));
#959=CARTESIAN_POINT('',(2.30940599976748E-6,15.308427164495,65.3036656898363));
#960=CARTESIAN_POINT('',(-0.666887912791708,15.3084272119317,65.6019070311112));
#961=CARTESIAN_POINT('',(-1.3351118547298,15.2639463450884,65.9007976861304));
#962=CARTESIAN_POINT('',(-2.00000000000045,15.1744959118136,66.1900351283496));
#963=CARTESIAN_POINT('',(-2.00000000000045,15.1744959118136,66.1900351283495));
#964=CARTESIAN_POINT('',(-2.00000000000045,14.9550178953322,66.8997159849577));
#965=CARTESIAN_POINT('',(-2.00000000000045,14.4297477873693,67.4249862312454));
#966=CARTESIAN_POINT('',(-2.00000000000033,13.5510682125957,68.3036660374108));
#967=CARTESIAN_POINT('',(-2.00000000000023,12.308426989286,68.3036661670004));
#968=CARTESIAN_POINT('',(1.99999999999955,15.1744959118136,66.19003512835));
#969=CARTESIAN_POINT('',(1.99999999999952,14.9550178953323,66.8997159849579));
#970=CARTESIAN_POINT('',(1.99999999999967,14.4297477873692,67.4249862312454));
#971=CARTESIAN_POINT('',(1.99999999999982,13.5510682125961,68.3036660374108));
#972=CARTESIAN_POINT('',(1.99999999999977,12.3084269892863,68.3036661670004));
#973=CARTESIAN_POINT('',(-2.00000000000045,15.1744959118136,62.3254655567052));
#974=CARTESIAN_POINT('',(-2.00000000000045,15.1744959118136,66.1900351283496));
#975=CARTESIAN_POINT('',(1.99999999999955,15.1744959118136,62.3254655567051));
#976=CARTESIAN_POINT('',(1.99999999999955,15.1744959118136,66.19003512835));
#977=CARTESIAN_POINT('',(-2.00000000000045,15.1744959118136,62.3254655567052));
#978=CARTESIAN_POINT('',(-5.80724762290798E-13,15.443565029412,62.3254655567052));
#979=CARTESIAN_POINT('',(1.99999999999955,15.1744959118136,62.3254655567051));
#980=CARTESIAN_POINT('',(-2.00000000000023,7.80842716449519,62.3254655567052));
#981=CARTESIAN_POINT('',(-2.00000000000023,10.8084271644952,62.3254655567052));
#982=CARTESIAN_POINT('',(3.99999999999977,7.80842716449519,62.3254655567051));
#983=CARTESIAN_POINT('',(3.99999999999977,10.8084271644952,62.3254655567051));
#984=CARTESIAN_POINT('',(1.99999999999965,15.1744959118136,61.0254653755985));
#985=CARTESIAN_POINT('',(-4.04678292918125E-13,15.4435650294121,61.0254653755984));
#986=CARTESIAN_POINT('',(-2.00000000000045,15.1744959118136,61.0254653755985));
#987=CARTESIAN_POINT('',(-2.00000000000045,15.1744959118136,61.0254653755985));
#988=CARTESIAN_POINT('',(-2.00000000000045,15.1744959118136,61.1254655567051));
#989=CARTESIAN_POINT('',(1.99999999999965,15.1744959118136,61.0254653755985));
#990=CARTESIAN_POINT('',(1.99999999999955,15.1744959118136,61.1254655567051));
#991=CARTESIAN_POINT('',(1.99999999999965,15.1744959118136,58.5254653755985));
#992=CARTESIAN_POINT('',(-2.00000000000045,15.1744959118136,58.5254653755985));
#993=CARTESIAN_POINT('',(-2.00000000000045,13.3084271644952,55.2203581797461));
#994=CARTESIAN_POINT('',(1.99999999999955,13.3084271644952,55.2203581797461));
#995=CARTESIAN_POINT('',(-2.00000000000045,13.3084271644952,55.2203581797461));
#996=CARTESIAN_POINT('',(-2.00000000000086,13.3084271644953,54.9950678230494));
#997=CARTESIAN_POINT('',(-2.00000000000045,13.2118190896485,54.7915423339943));
#998=CARTESIAN_POINT('',(-2.00000000000045,13.2118190896485,54.7915423339943));
#999=CARTESIAN_POINT('',(1.99999999999955,13.2118190896485,54.7915423339943));
#1000=CARTESIAN_POINT('',(1.99999999999955,13.3084271644952,55.2203581797461));
#1001=CARTESIAN_POINT('',(1.99999999999929,13.3084271644953,54.9950678230494));
#1002=CARTESIAN_POINT('',(1.99999999999955,13.2118190896485,54.7915423339943));
#1003=CARTESIAN_POINT('',(-2.00000000000045,13.2118190896485,54.7915423339943));
#1004=CARTESIAN_POINT('',(-2.00000000000045,12.8162833341525,53.9582620082693));
#1005=CARTESIAN_POINT('',(-2.00000000000045,12.420747578657,53.1249816825442));
#1006=CARTESIAN_POINT('',(-2.00000000000045,12.420747578657,53.1249816825442));
#1007=CARTESIAN_POINT('',(1.99999999999955,12.420747578657,53.1249816825442));
#1008=CARTESIAN_POINT('',(1.99999999999955,13.2118190896485,54.7915423339943));
#1009=CARTESIAN_POINT('',(1.99999999999955,12.8162833341527,53.9582620082692));
#1010=CARTESIAN_POINT('',(1.99999999999955,12.420747578657,53.1249816825442));
#1011=CARTESIAN_POINT('',(-2.00000000000045,12.420747578657,53.1249816825442));
#1012=CARTESIAN_POINT('',(-2.00000000000036,12.3735050588607,53.025455251022));
#1013=CARTESIAN_POINT('',(-2.00000000000045,12.4323806534448,52.932336882208));
#1014=CARTESIAN_POINT('',(-2.00000000000036,12.4912562480295,52.8392185133939));
#1015=CARTESIAN_POINT('',(-2.00000000000045,12.6014259636876,52.8392185133939));
#1016=CARTESIAN_POINT('',(-2.00000000000045,12.6014259636876,52.8392185133939));
#1017=CARTESIAN_POINT('',(1.99999999999955,12.6014259636876,52.8392185133939));
#1018=CARTESIAN_POINT('',(1.99999999999955,12.420747578657,53.1249816825442));
#1019=CARTESIAN_POINT('',(1.99999999999965,12.3735050588607,53.025455251022));
#1020=CARTESIAN_POINT('',(1.99999999999955,12.432380653445,52.932336882208));
#1021=CARTESIAN_POINT('',(1.99999999999965,12.4912562480295,52.8392185133939));
#1022=CARTESIAN_POINT('',(1.99999999999955,12.6014259636876,52.8392185133939));
#1023=CARTESIAN_POINT('',(-2.00000000000045,12.6014259636876,52.8392185133939));
#1024=CARTESIAN_POINT('',(-2.00000000000045,13.2353712244298,52.8392185133939));
#1025=CARTESIAN_POINT('',(-2.00000000000045,13.869316485172,52.8392185133939));
#1026=CARTESIAN_POINT('',(-2.00000000000045,13.869316485172,52.8392185133939));
#1027=CARTESIAN_POINT('',(1.99999999999955,13.869316485172,52.8392185133939));
#1028=CARTESIAN_POINT('',(1.99999999999955,12.6014259636876,52.8392185133939));
#1029=CARTESIAN_POINT('',(1.99999999999955,13.2353712244298,52.8392185133939));
#1030=CARTESIAN_POINT('',(1.99999999999955,13.869316485172,52.8392185133939));
#1031=CARTESIAN_POINT('',(-2.00000000000045,13.869316485172,52.8392185133939));
#1032=CARTESIAN_POINT('',(-2.00000000000068,14.1533870905775,52.8392185133939));
#1033=CARTESIAN_POINT('',(-2.00000000000045,14.2988204886946,53.0832374380037));
#1034=CARTESIAN_POINT('',(-2.00000000000045,14.2988204886946,53.0832374380037));
#1035=CARTESIAN_POINT('',(1.99999999999955,14.2988204886948,53.0832374380036));
#1036=CARTESIAN_POINT('',(1.99999999999955,13.869316485172,52.8392185133939));
#1037=CARTESIAN_POINT('',(1.9999999999991,14.1533870905777,52.8392185133939));
#1038=CARTESIAN_POINT('',(1.99999999999955,14.2988204886948,53.0832374380036));
#1039=CARTESIAN_POINT('',(-2.00000000000045,14.2988204886946,53.0832374380037));
#1040=CARTESIAN_POINT('',(-2.00000000000045,15.4217612429192,54.6660625682852));
#1041=CARTESIAN_POINT('',(-2.00000000000045,16.5447019971436,56.2488876985667));
#1042=CARTESIAN_POINT('',(1.99999999999955,14.2988204886948,53.0832374380036));
#1043=CARTESIAN_POINT('',(1.99999999999955,15.4217612429192,54.666062568285));
#1044=CARTESIAN_POINT('',(1.99999999999955,16.5447019971436,56.2488876985664));
#1045=CARTESIAN_POINT('',(-2.00000000000045,15.1744959118136,57.3254655567052));
#1046=CARTESIAN_POINT('',(-1.0044843951118,15.308427164495,57.3254655567051));
#1047=CARTESIAN_POINT('',(-3.13860049061512E-13,15.3084271644948,57.3254655567051));
#1048=CARTESIAN_POINT('',(1.00448439511093,15.3084271644946,57.3254655567051));
#1049=CARTESIAN_POINT('',(1.99999999999955,15.1744959118136,57.3254655567051));
#1050=CARTESIAN_POINT('',(-2.00000000000045,15.1744959118136,57.3254655567052));
#1051=CARTESIAN_POINT('',(-2.00000000000045,15.1744959118136,58.5254653755985));
#1052=CARTESIAN_POINT('',(1.99999999999955,15.1744959118136,57.3254655567051));
#1053=CARTESIAN_POINT('',(1.99999999999965,15.1744959118136,58.5254653755985));
#1054=CARTESIAN_POINT('',(-2.00000000000045,16.7291086484242,56.8275132160859));
#1055=CARTESIAN_POINT('',(-2.00000000000045,16.7291086484242,57.1254655567051));
#1056=CARTESIAN_POINT('',(1.99999999999955,16.7291086484242,56.8275132160857));
#1057=CARTESIAN_POINT('',(1.99999999999955,16.7291086484242,57.1254655567051));
#1058=CARTESIAN_POINT('',(-2.00000000000045,16.5447019971436,56.2488876985667));
#1059=CARTESIAN_POINT('',(1.99999999999955,16.5447019971436,56.2488876985664));
#1060=CARTESIAN_POINT('',(-2.00000000000045,16.7291086484242,56.8275132160859));
#1061=CARTESIAN_POINT('',(1.99999999999955,16.7291086484242,56.8275132160857));
#1062=CARTESIAN_POINT('',(-2.00000000000045,16.5447019971436,56.2488876985667));
#1063=CARTESIAN_POINT('',(-2.00000000000059,16.729108648424,56.508815464782));
#1064=CARTESIAN_POINT('',(-2.00000000000045,16.7291086484242,56.8275132160859));
#1065=CARTESIAN_POINT('',(1.99999999999955,16.5447019971436,56.2488876985664));
#1066=CARTESIAN_POINT('',(1.99999999999964,16.7291086484239,56.5088154647818));
#1067=CARTESIAN_POINT('',(1.99999999999955,16.7291086484242,56.8275132160857));
#1068=CARTESIAN_POINT('',(-2.00000000000045,16.5291086484241,57.3254175945201));
#1069=CARTESIAN_POINT('',(-2.00000000000045,16.5021026494443,57.3254169570603));
#1070=CARTESIAN_POINT('',(-2.00000000000045,16.4750966504643,57.3254163196005));
#1071=CARTESIAN_POINT('',(-2.00000000000045,15.8917619074797,57.3254425188347));
#1072=CARTESIAN_POINT('',(-2.00000000000045,15.308427164495,57.325468718069));
#1073=CARTESIAN_POINT('',(-2.00000000000045,15.2414615381544,57.3254671373871));
#1074=CARTESIAN_POINT('',(-2.00000000000045,15.1744959118136,57.3254655567052));
#1075=CARTESIAN_POINT('',(1.99999999999955,16.5291086484241,57.3254175945201));
#1076=CARTESIAN_POINT('',(1.99999999999955,16.5021026494443,57.3254169570603));
#1077=CARTESIAN_POINT('',(1.99999999999955,16.4750966504648,57.3254163196005));
#1078=CARTESIAN_POINT('',(1.99999999999955,15.89176190748,57.3254425188347));
#1079=CARTESIAN_POINT('',(1.99999999999955,15.3084271644952,57.325468718069));
#1080=CARTESIAN_POINT('',(1.99999999999955,15.2414615381544,57.3254671373871));
#1081=CARTESIAN_POINT('',(1.99999999999955,15.1744959118136,57.3254655567051));
#1082=CARTESIAN_POINT('',(-2.00000000000045,16.5291086484241,57.3254175945201));
#1083=CARTESIAN_POINT('',(1.99999999999955,16.5291086484241,57.3254175945201));
#1084=CARTESIAN_POINT('',(-2.00000000000045,16.7291086484242,57.1254655567051));
#1085=CARTESIAN_POINT('',(1.99999999999955,16.7291086484242,57.1254655567051));
#1086=CARTESIAN_POINT('',(1.99999999999955,16.7291086484242,57.1254655567051));
#1087=CARTESIAN_POINT('',(1.99999999999947,16.729108648424,57.3254415756124));
#1088=CARTESIAN_POINT('',(1.99999999999955,16.5291086484241,57.3254175945201));
#1089=CARTESIAN_POINT('',(-2.00000000000045,16.7291086484242,57.1254655567051));
#1090=CARTESIAN_POINT('',(-2.00000000000046,16.7291086484241,57.3254415756126));
#1091=CARTESIAN_POINT('',(-2.00000000000045,16.5291086484241,57.3254175945201));
#1092=CARTESIAN_POINT('',(1.99999999999965,15.1744959118136,58.5254653755985));
#1093=CARTESIAN_POINT('',(-4.04678292918125E-13,15.4435650294121,58.5254653755985));
#1094=CARTESIAN_POINT('',(-2.00000000000045,15.1744959118136,58.5254653755985));
#1095=CARTESIAN_POINT('',(-2.00000000000045,15.1744959118136,58.5254653755985));
#1096=CARTESIAN_POINT('',(-2.00000000000045,15.1744959118136,61.0254653755985));
#1097=CARTESIAN_POINT('',(-2.00000000000023,13.308427164495,65.3036658000044));
#1098=CARTESIAN_POINT('',(-2.00000000000045,13.3084271644952,55.2203581797461));
#1099=CARTESIAN_POINT('',(1.99999999999965,15.1744959118136,58.5254653755985));
#1100=CARTESIAN_POINT('',(1.99999999999965,15.1744959118136,61.0254653755985));
#1101=CARTESIAN_POINT('',(1.99999999999977,13.3084271644952,65.3036658000044));
#1102=CARTESIAN_POINT('',(1.99999999999955,13.3084271644952,55.2203581797461));
#1103=CARTESIAN_POINT('',(0.,0.,0.));
ENDSEC;
END-ISO-10303-21;
