ISO-10303-21;
HEADER;
/* Generated by software containing ST-Developer
 * from STEP Tools, Inc. (www.steptools.com) 
 */
/* OPTION: using custom schema-name function */

FILE_DESCRIPTION(
/* description */ (''),
/* implementation_level */ '2;1');

FILE_NAME(
/* name */ 'SnapfitHook_23',
/* time_stamp */ '2026-06-10T19:33:34+03:00',
/* author */ (''),
/* organization */ (''),
/* preprocessor_version */ 'ST-DEVELOPER v16.5',
/* originating_system */ 'Rhino 7.23',
/* authorisation */ '');

FILE_SCHEMA (('CONFIG_CONTROL_DESIGN'));
ENDSEC;

DATA;
#10=SHAPE_REPRESENTATION_RELATIONSHIP('','',#599,#12);
#11=MANIFOLD_SOLID_BREP('brep_1',#13);
#12=ADVANCED_BREP_SHAPE_REPRESENTATION('brep_rep_0',(#11,#630),#598);
#13=CLOSED_SHELL('',(#14,#15,#16,#17,#18,#19,#20,#21,#22,#23,#24,#25,#26,
#27,#28,#29,#30,#31,#32,#33,#34,#35,#36,#37,#38,#39,#40,#41,#42));
#14=ADVANCED_FACE('',(#43),#499,.F.);
#15=ADVANCED_FACE('',(#44),#484,.T.);
#16=ADVANCED_FACE('',(#45),#500,.T.);
#17=ADVANCED_FACE('',(#46),#485,.T.);
#18=ADVANCED_FACE('',(#47),#501,.T.);
#19=ADVANCED_FACE('',(#48),#486,.T.);
#20=ADVANCED_FACE('',(#49),#502,.T.);
#21=ADVANCED_FACE('',(#50),#503,.F.);
#22=ADVANCED_FACE('',(#51),#504,.T.);
#23=ADVANCED_FACE('',(#52),#487,.T.);
#24=ADVANCED_FACE('',(#53),#488,.T.);
#25=ADVANCED_FACE('',(#54),#489,.T.);
#26=ADVANCED_FACE('',(#55),#490,.T.);
#27=ADVANCED_FACE('',(#56),#505,.F.);
#28=ADVANCED_FACE('',(#57),#491,.T.);
#29=ADVANCED_FACE('',(#58),#506,.T.);
#30=ADVANCED_FACE('',(#59),#507,.T.);
#31=ADVANCED_FACE('',(#60),#508,.T.);
#32=ADVANCED_FACE('',(#61),#492,.T.);
#33=ADVANCED_FACE('',(#62),#509,.T.);
#34=ADVANCED_FACE('',(#63),#510,.T.);
#35=ADVANCED_FACE('',(#64),#493,.T.);
#36=ADVANCED_FACE('',(#65),#494,.T.);
#37=ADVANCED_FACE('',(#66),#495,.T.);
#38=ADVANCED_FACE('',(#67),#496,.T.);
#39=ADVANCED_FACE('',(#68),#511,.T.);
#40=ADVANCED_FACE('',(#69),#497,.T.);
#41=ADVANCED_FACE('',(#70),#498,.T.);
#42=ADVANCED_FACE('',(#71),#512,.T.);
#43=FACE_OUTER_BOUND('',#72,.T.);
#44=FACE_OUTER_BOUND('',#73,.T.);
#45=FACE_OUTER_BOUND('',#74,.T.);
#46=FACE_OUTER_BOUND('',#75,.T.);
#47=FACE_OUTER_BOUND('',#76,.T.);
#48=FACE_OUTER_BOUND('',#77,.T.);
#49=FACE_OUTER_BOUND('',#78,.T.);
#50=FACE_OUTER_BOUND('',#79,.T.);
#51=FACE_OUTER_BOUND('',#80,.T.);
#52=FACE_OUTER_BOUND('',#81,.T.);
#53=FACE_OUTER_BOUND('',#82,.T.);
#54=FACE_OUTER_BOUND('',#83,.T.);
#55=FACE_OUTER_BOUND('',#84,.T.);
#56=FACE_OUTER_BOUND('',#85,.T.);
#57=FACE_OUTER_BOUND('',#86,.T.);
#58=FACE_OUTER_BOUND('',#87,.T.);
#59=FACE_OUTER_BOUND('',#88,.T.);
#60=FACE_OUTER_BOUND('',#89,.T.);
#61=FACE_OUTER_BOUND('',#90,.T.);
#62=FACE_OUTER_BOUND('',#91,.T.);
#63=FACE_OUTER_BOUND('',#92,.T.);
#64=FACE_OUTER_BOUND('',#93,.T.);
#65=FACE_OUTER_BOUND('',#94,.T.);
#66=FACE_OUTER_BOUND('',#95,.T.);
#67=FACE_OUTER_BOUND('',#96,.T.);
#68=FACE_OUTER_BOUND('',#97,.T.);
#69=FACE_OUTER_BOUND('',#98,.T.);
#70=FACE_OUTER_BOUND('',#99,.T.);
#71=FACE_OUTER_BOUND('',#100,.T.);
#72=EDGE_LOOP('',(#101,#102,#103,#104));
#73=EDGE_LOOP('',(#105,#106,#107,#108));
#74=EDGE_LOOP('',(#109,#110,#111,#112));
#75=EDGE_LOOP('',(#113,#114,#115,#116));
#76=EDGE_LOOP('',(#117,#118,#119,#120));
#77=EDGE_LOOP('',(#121,#122,#123,#124));
#78=EDGE_LOOP('',(#125,#126,#127,#128));
#79=EDGE_LOOP('',(#129,#130,#131,#132));
#80=EDGE_LOOP('',(#133,#134,#135,#136,#137));
#81=EDGE_LOOP('',(#138,#139,#140,#141,#142,#143));
#82=EDGE_LOOP('',(#144,#145,#146,#147,#148,#149));
#83=EDGE_LOOP('',(#150,#151,#152,#153,#154,#155,#156,#157,#158,#159,#160));
#84=EDGE_LOOP('',(#161,#162,#163,#164));
#85=EDGE_LOOP('',(#165,#166,#167,#168));
#86=EDGE_LOOP('',(#169,#170,#171,#172));
#87=EDGE_LOOP('',(#173,#174,#175,#176));
#88=EDGE_LOOP('',(#177,#178,#179,#180));
#89=EDGE_LOOP('',(#181,#182,#183,#184));
#90=EDGE_LOOP('',(#185,#186,#187,#188));
#91=EDGE_LOOP('',(#189,#190,#191,#192));
#92=EDGE_LOOP('',(#193,#194,#195,#196,#197));
#93=EDGE_LOOP('',(#198,#199,#200,#201,#202,#203,#204,#205,#206,#207,#208,
#209,#210,#211,#212,#213,#214,#215,#216,#217,#218,#219,#220,#221,#222,#223));
#94=EDGE_LOOP('',(#224,#225,#226,#227));
#95=EDGE_LOOP('',(#228,#229,#230,#231,#232,#233,#234,#235,#236,#237,#238,
#239,#240,#241,#242,#243,#244));
#96=EDGE_LOOP('',(#245,#246,#247,#248));
#97=EDGE_LOOP('',(#249,#250,#251,#252));
#98=EDGE_LOOP('',(#253,#254,#255,#256));
#99=EDGE_LOOP('',(#257,#258,#259,#260));
#100=EDGE_LOOP('',(#261,#262,#263,#264));
#101=ORIENTED_EDGE('',*,*,#266,.T.);
#102=ORIENTED_EDGE('',*,*,#267,.T.);
#103=ORIENTED_EDGE('',*,*,#268,.F.);
#104=ORIENTED_EDGE('',*,*,#265,.F.);
#105=ORIENTED_EDGE('',*,*,#269,.T.);
#106=ORIENTED_EDGE('',*,*,#270,.T.);
#107=ORIENTED_EDGE('',*,*,#271,.F.);
#108=ORIENTED_EDGE('',*,*,#267,.F.);
#109=ORIENTED_EDGE('',*,*,#272,.T.);
#110=ORIENTED_EDGE('',*,*,#273,.T.);
#111=ORIENTED_EDGE('',*,*,#274,.F.);
#112=ORIENTED_EDGE('',*,*,#270,.F.);
#113=ORIENTED_EDGE('',*,*,#275,.T.);
#114=ORIENTED_EDGE('',*,*,#276,.T.);
#115=ORIENTED_EDGE('',*,*,#277,.F.);
#116=ORIENTED_EDGE('',*,*,#273,.F.);
#117=ORIENTED_EDGE('',*,*,#278,.T.);
#118=ORIENTED_EDGE('',*,*,#279,.T.);
#119=ORIENTED_EDGE('',*,*,#280,.F.);
#120=ORIENTED_EDGE('',*,*,#276,.F.);
#121=ORIENTED_EDGE('',*,*,#337,.T.);
#122=ORIENTED_EDGE('',*,*,#282,.F.);
#123=ORIENTED_EDGE('',*,*,#279,.F.);
#124=ORIENTED_EDGE('',*,*,#281,.T.);
#125=ORIENTED_EDGE('',*,*,#285,.F.);
#126=ORIENTED_EDGE('',*,*,#283,.F.);
#127=ORIENTED_EDGE('',*,*,#284,.T.);
#128=ORIENTED_EDGE('',*,*,#286,.T.);
#129=ORIENTED_EDGE('',*,*,#291,.T.);
#130=ORIENTED_EDGE('',*,*,#292,.T.);
#131=ORIENTED_EDGE('',*,*,#293,.F.);
#132=ORIENTED_EDGE('',*,*,#295,.F.);
#133=ORIENTED_EDGE('',*,*,#325,.T.);
#134=ORIENTED_EDGE('',*,*,#326,.T.);
#135=ORIENTED_EDGE('',*,*,#327,.T.);
#136=ORIENTED_EDGE('',*,*,#290,.T.);
#137=ORIENTED_EDGE('',*,*,#328,.F.);
#138=ORIENTED_EDGE('',*,*,#315,.T.);
#139=ORIENTED_EDGE('',*,*,#314,.T.);
#140=ORIENTED_EDGE('',*,*,#295,.T.);
#141=ORIENTED_EDGE('',*,*,#294,.T.);
#142=ORIENTED_EDGE('',*,*,#287,.F.);
#143=ORIENTED_EDGE('',*,*,#313,.F.);
#144=ORIENTED_EDGE('',*,*,#304,.T.);
#145=ORIENTED_EDGE('',*,*,#302,.T.);
#146=ORIENTED_EDGE('',*,*,#287,.T.);
#147=ORIENTED_EDGE('',*,*,#289,.F.);
#148=ORIENTED_EDGE('',*,*,#290,.F.);
#149=ORIENTED_EDGE('',*,*,#288,.T.);
#150=ORIENTED_EDGE('',*,*,#308,.F.);
#151=ORIENTED_EDGE('',*,*,#311,.T.);
#152=ORIENTED_EDGE('',*,*,#334,.T.);
#153=ORIENTED_EDGE('',*,*,#317,.T.);
#154=ORIENTED_EDGE('',*,*,#313,.T.);
#155=ORIENTED_EDGE('',*,*,#302,.F.);
#156=ORIENTED_EDGE('',*,*,#306,.T.);
#157=ORIENTED_EDGE('',*,*,#297,.F.);
#158=ORIENTED_EDGE('',*,*,#300,.T.);
#159=ORIENTED_EDGE('',*,*,#319,.F.);
#160=ORIENTED_EDGE('',*,*,#323,.T.);
#161=ORIENTED_EDGE('',*,*,#322,.T.);
#162=ORIENTED_EDGE('',*,*,#319,.T.);
#163=ORIENTED_EDGE('',*,*,#299,.F.);
#164=ORIENTED_EDGE('',*,*,#296,.T.);
#165=ORIENTED_EDGE('',*,*,#301,.T.);
#166=ORIENTED_EDGE('',*,*,#299,.T.);
#167=ORIENTED_EDGE('',*,*,#300,.F.);
#168=ORIENTED_EDGE('',*,*,#298,.F.);
#169=ORIENTED_EDGE('',*,*,#303,.T.);
#170=ORIENTED_EDGE('',*,*,#298,.T.);
#171=ORIENTED_EDGE('',*,*,#297,.T.);
#172=ORIENTED_EDGE('',*,*,#305,.F.);
#173=ORIENTED_EDGE('',*,*,#305,.T.);
#174=ORIENTED_EDGE('',*,*,#306,.F.);
#175=ORIENTED_EDGE('',*,*,#304,.F.);
#176=ORIENTED_EDGE('',*,*,#307,.T.);
#177=ORIENTED_EDGE('',*,*,#312,.T.);
#178=ORIENTED_EDGE('',*,*,#310,.T.);
#179=ORIENTED_EDGE('',*,*,#311,.F.);
#180=ORIENTED_EDGE('',*,*,#309,.F.);
#181=ORIENTED_EDGE('',*,*,#317,.F.);
#182=ORIENTED_EDGE('',*,*,#316,.T.);
#183=ORIENTED_EDGE('',*,*,#318,.T.);
#184=ORIENTED_EDGE('',*,*,#315,.F.);
#185=ORIENTED_EDGE('',*,*,#320,.T.);
#186=ORIENTED_EDGE('',*,*,#309,.T.);
#187=ORIENTED_EDGE('',*,*,#308,.T.);
#188=ORIENTED_EDGE('',*,*,#321,.F.);
#189=ORIENTED_EDGE('',*,*,#321,.T.);
#190=ORIENTED_EDGE('',*,*,#323,.F.);
#191=ORIENTED_EDGE('',*,*,#322,.F.);
#192=ORIENTED_EDGE('',*,*,#324,.T.);
#193=ORIENTED_EDGE('',*,*,#329,.T.);
#194=ORIENTED_EDGE('',*,*,#326,.F.);
#195=ORIENTED_EDGE('',*,*,#325,.F.);
#196=ORIENTED_EDGE('',*,*,#330,.F.);
#197=ORIENTED_EDGE('',*,*,#286,.F.);
#198=ORIENTED_EDGE('',*,*,#346,.F.);
#199=ORIENTED_EDGE('',*,*,#335,.F.);
#200=ORIENTED_EDGE('',*,*,#339,.F.);
#201=ORIENTED_EDGE('',*,*,#281,.F.);
#202=ORIENTED_EDGE('',*,*,#278,.F.);
#203=ORIENTED_EDGE('',*,*,#275,.F.);
#204=ORIENTED_EDGE('',*,*,#272,.F.);
#205=ORIENTED_EDGE('',*,*,#269,.F.);
#206=ORIENTED_EDGE('',*,*,#266,.F.);
#207=ORIENTED_EDGE('',*,*,#331,.F.);
#208=ORIENTED_EDGE('',*,*,#291,.F.);
#209=ORIENTED_EDGE('',*,*,#314,.F.);
#210=ORIENTED_EDGE('',*,*,#318,.F.);
#211=ORIENTED_EDGE('',*,*,#333,.F.);
#212=ORIENTED_EDGE('',*,*,#312,.F.);
#213=ORIENTED_EDGE('',*,*,#320,.F.);
#214=ORIENTED_EDGE('',*,*,#324,.F.);
#215=ORIENTED_EDGE('',*,*,#296,.F.);
#216=ORIENTED_EDGE('',*,*,#301,.F.);
#217=ORIENTED_EDGE('',*,*,#303,.F.);
#218=ORIENTED_EDGE('',*,*,#307,.F.);
#219=ORIENTED_EDGE('',*,*,#288,.F.);
#220=ORIENTED_EDGE('',*,*,#327,.F.);
#221=ORIENTED_EDGE('',*,*,#329,.F.);
#222=ORIENTED_EDGE('',*,*,#284,.F.);
#223=ORIENTED_EDGE('',*,*,#341,.F.);
#224=ORIENTED_EDGE('',*,*,#331,.T.);
#225=ORIENTED_EDGE('',*,*,#265,.T.);
#226=ORIENTED_EDGE('',*,*,#332,.F.);
#227=ORIENTED_EDGE('',*,*,#292,.F.);
#228=ORIENTED_EDGE('',*,*,#342,.T.);
#229=ORIENTED_EDGE('',*,*,#285,.T.);
#230=ORIENTED_EDGE('',*,*,#330,.T.);
#231=ORIENTED_EDGE('',*,*,#328,.T.);
#232=ORIENTED_EDGE('',*,*,#289,.T.);
#233=ORIENTED_EDGE('',*,*,#294,.F.);
#234=ORIENTED_EDGE('',*,*,#293,.T.);
#235=ORIENTED_EDGE('',*,*,#332,.T.);
#236=ORIENTED_EDGE('',*,*,#268,.T.);
#237=ORIENTED_EDGE('',*,*,#271,.T.);
#238=ORIENTED_EDGE('',*,*,#274,.T.);
#239=ORIENTED_EDGE('',*,*,#277,.T.);
#240=ORIENTED_EDGE('',*,*,#280,.T.);
#241=ORIENTED_EDGE('',*,*,#282,.T.);
#242=ORIENTED_EDGE('',*,*,#340,.T.);
#243=ORIENTED_EDGE('',*,*,#336,.T.);
#244=ORIENTED_EDGE('',*,*,#345,.T.);
#245=ORIENTED_EDGE('',*,*,#316,.F.);
#246=ORIENTED_EDGE('',*,*,#334,.F.);
#247=ORIENTED_EDGE('',*,*,#310,.F.);
#248=ORIENTED_EDGE('',*,*,#333,.T.);
#249=ORIENTED_EDGE('',*,*,#339,.T.);
#250=ORIENTED_EDGE('',*,*,#338,.T.);
#251=ORIENTED_EDGE('',*,*,#340,.F.);
#252=ORIENTED_EDGE('',*,*,#337,.F.);
#253=ORIENTED_EDGE('',*,*,#341,.T.);
#254=ORIENTED_EDGE('',*,*,#283,.T.);
#255=ORIENTED_EDGE('',*,*,#342,.F.);
#256=ORIENTED_EDGE('',*,*,#343,.F.);
#257=ORIENTED_EDGE('',*,*,#344,.T.);
#258=ORIENTED_EDGE('',*,*,#336,.F.);
#259=ORIENTED_EDGE('',*,*,#338,.F.);
#260=ORIENTED_EDGE('',*,*,#335,.T.);
#261=ORIENTED_EDGE('',*,*,#346,.T.);
#262=ORIENTED_EDGE('',*,*,#343,.T.);
#263=ORIENTED_EDGE('',*,*,#345,.F.);
#264=ORIENTED_EDGE('',*,*,#344,.F.);
#265=EDGE_CURVE('',#429,#430,#380,.T.);
#266=EDGE_CURVE('',#429,#431,#381,.T.);
#267=EDGE_CURVE('',#431,#432,#382,.T.);
#268=EDGE_CURVE('',#430,#432,#383,.T.);
#269=EDGE_CURVE('',#431,#433,#384,.T.);
#270=EDGE_CURVE('',#433,#434,#385,.T.);
#271=EDGE_CURVE('',#432,#434,#386,.T.);
#272=EDGE_CURVE('',#433,#435,#387,.T.);
#273=EDGE_CURVE('',#435,#436,#388,.T.);
#274=EDGE_CURVE('',#434,#436,#389,.T.);
#275=EDGE_CURVE('',#435,#437,#390,.T.);
#276=EDGE_CURVE('',#437,#438,#391,.T.);
#277=EDGE_CURVE('',#436,#438,#392,.T.);
#278=EDGE_CURVE('',#437,#439,#393,.T.);
#279=EDGE_CURVE('',#439,#440,#394,.T.);
#280=EDGE_CURVE('',#438,#440,#395,.T.);
#281=EDGE_CURVE('',#439,#476,#396,.T.);
#282=EDGE_CURVE('',#440,#477,#397,.T.);
#283=EDGE_CURVE('',#441,#442,#398,.T.);
#284=EDGE_CURVE('',#441,#443,#347,.T.);
#285=EDGE_CURVE('',#442,#444,#348,.T.);
#286=EDGE_CURVE('',#443,#444,#399,.T.);
#287=EDGE_CURVE('',#445,#451,#349,.T.);
#288=EDGE_CURVE('',#446,#458,#400,.T.);
#289=EDGE_CURVE('',#447,#451,#401,.T.);
#290=EDGE_CURVE('',#446,#447,#402,.T.);
#291=EDGE_CURVE('',#448,#449,#403,.T.);
#292=EDGE_CURVE('',#449,#450,#404,.T.);
#293=EDGE_CURVE('',#452,#450,#405,.T.);
#294=EDGE_CURVE('',#452,#451,#350,.T.);
#295=EDGE_CURVE('',#448,#452,#351,.T.);
#296=EDGE_CURVE('',#455,#471,#406,.T.);
#297=EDGE_CURVE('',#456,#460,#352,.T.);
#298=EDGE_CURVE('',#454,#456,#353,.T.);
#299=EDGE_CURVE('',#455,#453,#354,.T.);
#300=EDGE_CURVE('',#456,#453,#407,.T.);
#301=EDGE_CURVE('',#454,#455,#408,.T.);
#302=EDGE_CURVE('',#457,#445,#355,.T.);
#303=EDGE_CURVE('',#459,#454,#409,.T.);
#304=EDGE_CURVE('',#458,#457,#356,.T.);
#305=EDGE_CURVE('',#459,#460,#357,.T.);
#306=EDGE_CURVE('',#457,#460,#410,.T.);
#307=EDGE_CURVE('',#458,#459,#411,.T.);
#308=EDGE_CURVE('',#461,#472,#358,.T.);
#309=EDGE_CURVE('',#462,#461,#359,.T.);
#310=EDGE_CURVE('',#463,#464,#360,.T.);
#311=EDGE_CURVE('',#461,#464,#412,.T.);
#312=EDGE_CURVE('',#462,#463,#413,.T.);
#313=EDGE_CURVE('',#465,#445,#361,.T.);
#314=EDGE_CURVE('',#466,#448,#414,.T.);
#315=EDGE_CURVE('',#465,#466,#362,.T.);
#316=EDGE_CURVE('',#468,#467,#363,.T.);
#317=EDGE_CURVE('',#468,#465,#415,.T.);
#318=EDGE_CURVE('',#467,#466,#416,.T.);
#319=EDGE_CURVE('',#469,#453,#364,.T.);
#320=EDGE_CURVE('',#470,#462,#417,.T.);
#321=EDGE_CURVE('',#470,#472,#365,.T.);
#322=EDGE_CURVE('',#471,#469,#366,.T.);
#323=EDGE_CURVE('',#469,#472,#418,.T.);
#324=EDGE_CURVE('',#471,#470,#419,.T.);
#325=EDGE_CURVE('',#474,#473,#367,.T.);
#326=EDGE_CURVE('',#473,#475,#368,.T.);
#327=EDGE_CURVE('',#475,#446,#420,.T.);
#328=EDGE_CURVE('',#474,#447,#421,.T.);
#329=EDGE_CURVE('',#443,#475,#369,.T.);
#330=EDGE_CURVE('',#444,#474,#370,.T.);
#331=EDGE_CURVE('',#449,#429,#371,.T.);
#332=EDGE_CURVE('',#450,#430,#372,.T.);
#333=EDGE_CURVE('',#463,#467,#373,.T.);
#334=EDGE_CURVE('',#464,#468,#374,.T.);
#335=EDGE_CURVE('',#478,#482,#375,.T.);
#336=EDGE_CURVE('',#479,#483,#376,.T.);
#337=EDGE_CURVE('',#476,#477,#422,.T.);
#338=EDGE_CURVE('',#478,#479,#377,.T.);
#339=EDGE_CURVE('',#476,#478,#423,.T.);
#340=EDGE_CURVE('',#477,#479,#424,.T.);
#341=EDGE_CURVE('',#480,#441,#425,.T.);
#342=EDGE_CURVE('',#481,#442,#426,.T.);
#343=EDGE_CURVE('',#480,#481,#378,.T.);
#344=EDGE_CURVE('',#482,#483,#379,.T.);
#345=EDGE_CURVE('',#483,#481,#427,.T.);
#346=EDGE_CURVE('',#482,#480,#428,.T.);
#347=B_SPLINE_CURVE_WITH_KNOTS('',1,(#806,#807),.UNSPECIFIED.,.F.,.F.,(2,
2),(-8.97820061029523,-6.67820061029523),.UNSPECIFIED.);
#348=B_SPLINE_CURVE_WITH_KNOTS('',1,(#808,#809),.UNSPECIFIED.,.F.,.F.,(2,
2),(-8.97820061029523,-6.67820061029523),.UNSPECIFIED.);
#349=B_SPLINE_CURVE_WITH_KNOTS('',1,(#813,#814),.UNSPECIFIED.,.F.,.F.,(2,
2),(8.00000000000026,10.0000000000001),.UNSPECIFIED.);
#350=B_SPLINE_CURVE_WITH_KNOTS('',1,(#843,#844),.UNSPECIFIED.,.F.,.F.,(2,
2),(-3.00000000000011,1.42696166292367E-7),.UNSPECIFIED.);
#351=B_SPLINE_CURVE_WITH_KNOTS('',1,(#845,#846),.UNSPECIFIED.,.F.,.F.,(2,
2),(0.,4.),.UNSPECIFIED.);
#352=B_SPLINE_CURVE_WITH_KNOTS('',1,(#850,#851),.UNSPECIFIED.,.F.,.F.,(2,
2),(1.24544186211446,2.72911223787223),.UNSPECIFIED.);
#353=B_SPLINE_CURVE_WITH_KNOTS('',1,(#852,#853),.UNSPECIFIED.,.F.,.F.,(2,
2),(1.00078120753102E-14,5.99999999999988),.UNSPECIFIED.);
#354=B_SPLINE_CURVE_WITH_KNOTS('',1,(#854,#855),.UNSPECIFIED.,.F.,.F.,(2,
2),(2.15383266777274E-14,5.99999999999988),.UNSPECIFIED.);
#355=B_SPLINE_CURVE_WITH_KNOTS('',1,(#862,#863),.UNSPECIFIED.,.F.,.F.,(2,
2),(6.50000000000009,8.00000000000026),.UNSPECIFIED.);
#356=B_SPLINE_CURVE_WITH_KNOTS('',1,(#867,#868),.UNSPECIFIED.,.F.,.F.,(2,
2),(1.06660712002234E-13,5.99999999999989),.UNSPECIFIED.);
#357=B_SPLINE_CURVE_WITH_KNOTS('',1,(#869,#870),.UNSPECIFIED.,.F.,.F.,(2,
2),(7.11020774684096E-14,5.99999999999989),.UNSPECIFIED.);
#358=B_SPLINE_CURVE_WITH_KNOTS('',1,(#877,#878),.UNSPECIFIED.,.F.,.F.,(2,
2),(0.25,0.75),.UNSPECIFIED.);
#359=B_SPLINE_CURVE_WITH_KNOTS('',1,(#879,#880),.UNSPECIFIED.,.F.,.F.,(2,
2),(1.02279296143596E-14,6.00000000000008),.UNSPECIFIED.);
#360=B_SPLINE_CURVE_WITH_KNOTS('',1,(#881,#882),.UNSPECIFIED.,.F.,.F.,(2,
2),(3.19744231092025E-13,5.99999999999991),.UNSPECIFIED.);
#361=B_SPLINE_CURVE_WITH_KNOTS('',1,(#889,#890),.UNSPECIFIED.,.F.,.F.,(2,
2),(0.249088372422891,2.97820061029512),.UNSPECIFIED.);
#362=B_SPLINE_CURVE_WITH_KNOTS('',1,(#894,#895),.UNSPECIFIED.,.F.,.F.,(2,
2),(0.,6.00000000000016),.UNSPECIFIED.);
#363=B_SPLINE_CURVE_WITH_KNOTS('',1,(#896,#897),.UNSPECIFIED.,.F.,.F.,(2,
2),(1.70530256582419E-13,5.99999999999998),.UNSPECIFIED.);
#364=B_SPLINE_CURVE_WITH_KNOTS('',1,(#904,#905),.UNSPECIFIED.,.F.,.F.,(2,
2),(2.49999999999982,3.49999999999964),.UNSPECIFIED.);
#365=B_SPLINE_CURVE_WITH_KNOTS('',1,(#909,#910),.UNSPECIFIED.,.F.,.F.,(2,
2),(3.07670555699248E-14,5.99999999999985),.UNSPECIFIED.);
#366=B_SPLINE_CURVE_WITH_KNOTS('',1,(#911,#912),.UNSPECIFIED.,.F.,.F.,(2,
2),(6.41708908233265E-14,5.99999999999985),.UNSPECIFIED.);
#367=B_SPLINE_CURVE_WITH_KNOTS('',3,(#919,#920,#921,#922),.UNSPECIFIED.,
 .F.,.F.,(4,4),(0.,2.19448542147),.UNSPECIFIED.);
#368=B_SPLINE_CURVE_WITH_KNOTS('',3,(#923,#924,#925,#926),.UNSPECIFIED.,
 .F.,.F.,(4,4),(0.,2.19448542147003),.UNSPECIFIED.);
#369=B_SPLINE_CURVE_WITH_KNOTS('',1,(#937,#938),.UNSPECIFIED.,.F.,.F.,(2,
2),(-5.97820061029523,-2.11363103865081),.UNSPECIFIED.);
#370=B_SPLINE_CURVE_WITH_KNOTS('',1,(#939,#940),.UNSPECIFIED.,.F.,.F.,(2,
2),(-5.97820061029523,-2.1136310386504),.UNSPECIFIED.);
#371=B_SPLINE_CURVE_WITH_KNOTS('',1,(#941,#942),.UNSPECIFIED.,.F.,.F.,(2,
2),(0.,7.38330762025826),.UNSPECIFIED.);
#372=B_SPLINE_CURVE_WITH_KNOTS('',1,(#943,#944),.UNSPECIFIED.,.F.,.F.,(2,
2),(0.,7.38330762025826),.UNSPECIFIED.);
#373=B_SPLINE_CURVE_WITH_KNOTS('',1,(#945,#946),.UNSPECIFIED.,.F.,.F.,(2,
2),(0.,2.99999999999996),.UNSPECIFIED.);
#374=B_SPLINE_CURVE_WITH_KNOTS('',1,(#947,#948),.UNSPECIFIED.,.F.,.F.,(2,
2),(0.,2.99999999999996),.UNSPECIFIED.);
#375=B_SPLINE_CURVE_WITH_KNOTS('',1,(#949,#950),.UNSPECIFIED.,.F.,.F.,(2,
2),(-9.37397329872934,-9.07602095811014),.UNSPECIFIED.);
#376=B_SPLINE_CURVE_WITH_KNOTS('',1,(#951,#952),.UNSPECIFIED.,.F.,.F.,(2,
2),(-9.37397312665837,-9.07602078603892),.UNSPECIFIED.);
#377=B_SPLINE_CURVE_WITH_KNOTS('',1,(#955,#956),.UNSPECIFIED.,.F.,.F.,(2,
2),(-1.29403998828983E-14,3.99999999999999),.UNSPECIFIED.);
#378=B_SPLINE_CURVE_WITH_KNOTS('',1,(#977,#978),.UNSPECIFIED.,.F.,.F.,(2,
2),(8.21565038222616E-15,4.00000000000001),.UNSPECIFIED.);
#379=B_SPLINE_CURVE_WITH_KNOTS('',1,(#979,#980),.UNSPECIFIED.,.F.,.F.,(2,
2),(-3.99680288865056E-15,4.),.UNSPECIFIED.);
#380=(
BOUNDED_CURVE()
B_SPLINE_CURVE(1,(#749,#750),.UNSPECIFIED.,.F.,.F.)
B_SPLINE_CURVE_WITH_KNOTS((2,2),(0.,4.),.UNSPECIFIED.)
CURVE()
GEOMETRIC_REPRESENTATION_ITEM()
RATIONAL_B_SPLINE_CURVE((1.,1.))
REPRESENTATION_ITEM('')
);
#381=(
BOUNDED_CURVE()
B_SPLINE_CURVE(2,(#751,#752,#753),.UNSPECIFIED.,.F.,.F.)
B_SPLINE_CURVE_WITH_KNOTS((3,3),(-64.9960852829961,-64.5529037013142),
 .UNSPECIFIED.)
CURVE()
GEOMETRIC_REPRESENTATION_ITEM()
RATIONAL_B_SPLINE_CURVE((1.,0.975549056981057,1.))
REPRESENTATION_ITEM('')
);
#382=(
BOUNDED_CURVE()
B_SPLINE_CURVE(1,(#754,#755),.UNSPECIFIED.,.F.,.F.)
B_SPLINE_CURVE_WITH_KNOTS((2,2),(0.,4.),.UNSPECIFIED.)
CURVE()
GEOMETRIC_REPRESENTATION_ITEM()
RATIONAL_B_SPLINE_CURVE((1.,1.))
REPRESENTATION_ITEM('')
);
#383=(
BOUNDED_CURVE()
B_SPLINE_CURVE(2,(#756,#757,#758),.UNSPECIFIED.,.F.,.F.)
B_SPLINE_CURVE_WITH_KNOTS((3,3),(-64.9960852829961,-64.5529037013142),
 .UNSPECIFIED.)
CURVE()
GEOMETRIC_REPRESENTATION_ITEM()
RATIONAL_B_SPLINE_CURVE((1.,0.975549056981057,1.))
REPRESENTATION_ITEM('')
);
#384=(
BOUNDED_CURVE()
B_SPLINE_CURVE(2,(#759,#760,#761),.UNSPECIFIED.,.F.,.F.)
B_SPLINE_CURVE_WITH_KNOTS((3,3),(-64.5529037013142,-62.7081222669802),
 .UNSPECIFIED.)
CURVE()
GEOMETRIC_REPRESENTATION_ITEM()
RATIONAL_B_SPLINE_CURVE((1.,1.,1.))
REPRESENTATION_ITEM('')
);
#385=(
BOUNDED_CURVE()
B_SPLINE_CURVE(1,(#762,#763),.UNSPECIFIED.,.F.,.F.)
B_SPLINE_CURVE_WITH_KNOTS((2,2),(0.,4.),.UNSPECIFIED.)
CURVE()
GEOMETRIC_REPRESENTATION_ITEM()
RATIONAL_B_SPLINE_CURVE((1.,1.))
REPRESENTATION_ITEM('')
);
#386=(
BOUNDED_CURVE()
B_SPLINE_CURVE(2,(#764,#765,#766),.UNSPECIFIED.,.F.,.F.)
B_SPLINE_CURVE_WITH_KNOTS((3,3),(-64.5529037013142,-62.7081222669802),
 .UNSPECIFIED.)
CURVE()
GEOMETRIC_REPRESENTATION_ITEM()
RATIONAL_B_SPLINE_CURVE((1.,1.,1.))
REPRESENTATION_ITEM('')
);
#387=(
BOUNDED_CURVE()
B_SPLINE_CURVE(2,(#767,#768,#769,#770,#771),.UNSPECIFIED.,.F.,.F.)
B_SPLINE_CURVE_WITH_KNOTS((3,2,3),(-62.7081222669802,-62.5067244761326,
-62.3053266852849),.UNSPECIFIED.)
CURVE()
GEOMETRIC_REPRESENTATION_ITEM()
RATIONAL_B_SPLINE_CURVE((1.,0.875901865487773,1.,0.875901865487773,1.))
REPRESENTATION_ITEM('')
);
#388=(
BOUNDED_CURVE()
B_SPLINE_CURVE(1,(#772,#773),.UNSPECIFIED.,.F.,.F.)
B_SPLINE_CURVE_WITH_KNOTS((2,2),(0.,4.),.UNSPECIFIED.)
CURVE()
GEOMETRIC_REPRESENTATION_ITEM()
RATIONAL_B_SPLINE_CURVE((1.,1.))
REPRESENTATION_ITEM('')
);
#389=(
BOUNDED_CURVE()
B_SPLINE_CURVE(2,(#774,#775,#776,#777,#778),.UNSPECIFIED.,.F.,.F.)
B_SPLINE_CURVE_WITH_KNOTS((3,2,3),(-62.7081222669802,-62.5067244761326,
-62.3053266852849),.UNSPECIFIED.)
CURVE()
GEOMETRIC_REPRESENTATION_ITEM()
RATIONAL_B_SPLINE_CURVE((1.,0.875901865487773,1.,0.875901865487773,1.))
REPRESENTATION_ITEM('')
);
#390=(
BOUNDED_CURVE()
B_SPLINE_CURVE(2,(#779,#780,#781),.UNSPECIFIED.,.F.,.F.)
B_SPLINE_CURVE_WITH_KNOTS((3,3),(-62.3053266852849,-61.0374361638006),
 .UNSPECIFIED.)
CURVE()
GEOMETRIC_REPRESENTATION_ITEM()
RATIONAL_B_SPLINE_CURVE((1.,1.,1.))
REPRESENTATION_ITEM('')
);
#391=(
BOUNDED_CURVE()
B_SPLINE_CURVE(1,(#782,#783),.UNSPECIFIED.,.F.,.F.)
B_SPLINE_CURVE_WITH_KNOTS((2,2),(0.,4.),.UNSPECIFIED.)
CURVE()
GEOMETRIC_REPRESENTATION_ITEM()
RATIONAL_B_SPLINE_CURVE((1.,1.))
REPRESENTATION_ITEM('')
);
#392=(
BOUNDED_CURVE()
B_SPLINE_CURVE(2,(#784,#785,#786),.UNSPECIFIED.,.F.,.F.)
B_SPLINE_CURVE_WITH_KNOTS((3,3),(-62.3053266852849,-61.0374361638006),
 .UNSPECIFIED.)
CURVE()
GEOMETRIC_REPRESENTATION_ITEM()
RATIONAL_B_SPLINE_CURVE((1.,1.,1.))
REPRESENTATION_ITEM('')
);
#393=(
BOUNDED_CURVE()
B_SPLINE_CURVE(2,(#787,#788,#789),.UNSPECIFIED.,.F.,.F.)
B_SPLINE_CURVE_WITH_KNOTS((3,3),(-61.0374361638006,-60.5207717229065),
 .UNSPECIFIED.)
CURVE()
GEOMETRIC_REPRESENTATION_ITEM()
RATIONAL_B_SPLINE_CURVE((1.,0.869471722018763,1.))
REPRESENTATION_ITEM('')
);
#394=(
BOUNDED_CURVE()
B_SPLINE_CURVE(1,(#790,#791),.UNSPECIFIED.,.F.,.F.)
B_SPLINE_CURVE_WITH_KNOTS((2,2),(0.,4.),.UNSPECIFIED.)
CURVE()
GEOMETRIC_REPRESENTATION_ITEM()
RATIONAL_B_SPLINE_CURVE((1.,1.))
REPRESENTATION_ITEM('')
);
#395=(
BOUNDED_CURVE()
B_SPLINE_CURVE(2,(#792,#793,#794),.UNSPECIFIED.,.F.,.F.)
B_SPLINE_CURVE_WITH_KNOTS((3,3),(-61.0374361638006,-60.5207717229065),
 .UNSPECIFIED.)
CURVE()
GEOMETRIC_REPRESENTATION_ITEM()
RATIONAL_B_SPLINE_CURVE((1.,0.869471722018763,1.))
REPRESENTATION_ITEM('')
);
#396=(
BOUNDED_CURVE()
B_SPLINE_CURVE(2,(#795,#796,#797),.UNSPECIFIED.,.F.,.F.)
B_SPLINE_CURVE_WITH_KNOTS((3,3),(-60.5207717229065,-56.6393640759057),
 .UNSPECIFIED.)
CURVE()
GEOMETRIC_REPRESENTATION_ITEM()
RATIONAL_B_SPLINE_CURVE((1.,1.,1.))
REPRESENTATION_ITEM('')
);
#397=(
BOUNDED_CURVE()
B_SPLINE_CURVE(2,(#798,#799,#800),.UNSPECIFIED.,.F.,.F.)
B_SPLINE_CURVE_WITH_KNOTS((3,3),(-60.5207717229065,-56.639364075906),
 .UNSPECIFIED.)
CURVE()
GEOMETRIC_REPRESENTATION_ITEM()
RATIONAL_B_SPLINE_CURVE((1.,1.,1.))
REPRESENTATION_ITEM('')
);
#398=(
BOUNDED_CURVE()
B_SPLINE_CURVE(2,(#801,#802,#803,#804,#805),.UNSPECIFIED.,.F.,.F.)
B_SPLINE_CURVE_WITH_KNOTS((3,2,3),(338.691623939925,340.862802914493,343.03398188906),
 .UNSPECIFIED.)
CURVE()
GEOMETRIC_REPRESENTATION_ITEM()
RATIONAL_B_SPLINE_CURVE((1.,0.997765315548008,1.,0.997765315548009,1.))
REPRESENTATION_ITEM('')
);
#399=(
BOUNDED_CURVE()
B_SPLINE_CURVE(2,(#810,#811,#812),.UNSPECIFIED.,.F.,.F.)
B_SPLINE_CURVE_WITH_KNOTS((3,3),(338.691623939925,343.03398188906),
 .UNSPECIFIED.)
CURVE()
GEOMETRIC_REPRESENTATION_ITEM()
RATIONAL_B_SPLINE_CURVE((1.,0.991071249821236,1.))
REPRESENTATION_ITEM('')
);
#400=(
BOUNDED_CURVE()
B_SPLINE_CURVE(2,(#815,#816,#817),.UNSPECIFIED.,.F.,.F.)
B_SPLINE_CURVE_WITH_KNOTS((3,3),(-90.4618440333594,-87.9618438018469),
 .UNSPECIFIED.)
CURVE()
GEOMETRIC_REPRESENTATION_ITEM()
RATIONAL_B_SPLINE_CURVE((1.,1.,1.))
REPRESENTATION_ITEM('')
);
#401=(
BOUNDED_CURVE()
B_SPLINE_CURVE(2,(#818,#819,#820),.UNSPECIFIED.,.F.,.F.)
B_SPLINE_CURVE_WITH_KNOTS((3,3),(-90.4618440333594,-89.4618440458798),
 .UNSPECIFIED.)
CURVE()
GEOMETRIC_REPRESENTATION_ITEM()
RATIONAL_B_SPLINE_CURVE((1.,1.,1.))
REPRESENTATION_ITEM('')
);
#402=(
BOUNDED_CURVE()
B_SPLINE_CURVE(1,(#821,#822),.UNSPECIFIED.,.F.,.F.)
B_SPLINE_CURVE_WITH_KNOTS((2,2),(0.,4.),.UNSPECIFIED.)
CURVE()
GEOMETRIC_REPRESENTATION_ITEM()
RATIONAL_B_SPLINE_CURVE((1.,1.))
REPRESENTATION_ITEM('')
);
#403=(
BOUNDED_CURVE()
B_SPLINE_CURVE(2,(#823,#824,#825,#826,#827,#828,#829,#830,#831),
 .UNSPECIFIED.,.F.,.F.)
B_SPLINE_CURVE_WITH_KNOTS((3,2,2,2,3),(-72.0779030103248,-71.2925047551784,
-70.5071065000319,-69.7217082448855,-68.9363099897391),.UNSPECIFIED.)
CURVE()
GEOMETRIC_REPRESENTATION_ITEM()
RATIONAL_B_SPLINE_CURVE((1.,0.923879514955879,1.,0.923879514955879,1.,0.923879514955879,
1.,0.923879514955879,1.))
REPRESENTATION_ITEM('')
);
#404=(
BOUNDED_CURVE()
B_SPLINE_CURVE(1,(#832,#833),.UNSPECIFIED.,.F.,.F.)
B_SPLINE_CURVE_WITH_KNOTS((2,2),(0.,4.),.UNSPECIFIED.)
CURVE()
GEOMETRIC_REPRESENTATION_ITEM()
RATIONAL_B_SPLINE_CURVE((1.,1.))
REPRESENTATION_ITEM('')
);
#405=(
BOUNDED_CURVE()
B_SPLINE_CURVE(2,(#834,#835,#836,#837,#838,#839,#840,#841,#842),
 .UNSPECIFIED.,.F.,.F.)
B_SPLINE_CURVE_WITH_KNOTS((3,2,2,2,3),(-72.0779030103248,-71.2925047551784,
-70.5071065000319,-69.7217082448855,-68.9363099897391),.UNSPECIFIED.)
CURVE()
GEOMETRIC_REPRESENTATION_ITEM()
RATIONAL_B_SPLINE_CURVE((1.,0.923879514955879,1.,0.923879514955879,1.,0.923879514955879,
1.,0.923879514955879,1.))
REPRESENTATION_ITEM('')
);
#406=(
BOUNDED_CURVE()
B_SPLINE_CURVE(2,(#847,#848,#849),.UNSPECIFIED.,.F.,.F.)
B_SPLINE_CURVE_WITH_KNOTS((3,3),(-86.4905719300978,-85.8239052634312),
 .UNSPECIFIED.)
CURVE()
GEOMETRIC_REPRESENTATION_ITEM()
RATIONAL_B_SPLINE_CURVE((1.,1.,1.))
REPRESENTATION_ITEM('')
);
#407=(
BOUNDED_CURVE()
B_SPLINE_CURVE(2,(#856,#857,#858),.UNSPECIFIED.,.F.,.F.)
B_SPLINE_CURVE_WITH_KNOTS((3,3),(0.,1.),.UNSPECIFIED.)
CURVE()
GEOMETRIC_REPRESENTATION_ITEM()
RATIONAL_B_SPLINE_CURVE((1.,0.707106781186541,1.))
REPRESENTATION_ITEM('')
);
#408=(
BOUNDED_CURVE()
B_SPLINE_CURVE(2,(#859,#860,#861),.UNSPECIFIED.,.F.,.F.)
B_SPLINE_CURVE_WITH_KNOTS((3,3),(0.,1.),.UNSPECIFIED.)
CURVE()
GEOMETRIC_REPRESENTATION_ITEM()
RATIONAL_B_SPLINE_CURVE((1.,0.707106781186545,1.))
REPRESENTATION_ITEM('')
);
#409=(
BOUNDED_CURVE()
B_SPLINE_CURVE(2,(#864,#865,#866),.UNSPECIFIED.,.F.,.F.)
B_SPLINE_CURVE_WITH_KNOTS((3,3),(-87.2270701474567,-86.8818612165524),
 .UNSPECIFIED.)
CURVE()
GEOMETRIC_REPRESENTATION_ITEM()
RATIONAL_B_SPLINE_CURVE((1.,1.,1.))
REPRESENTATION_ITEM('')
);
#410=(
BOUNDED_CURVE()
B_SPLINE_CURVE(2,(#871,#872,#873),.UNSPECIFIED.,.F.,.F.)
B_SPLINE_CURVE_WITH_KNOTS((3,3),(-1.,0.),.UNSPECIFIED.)
CURVE()
GEOMETRIC_REPRESENTATION_ITEM()
RATIONAL_B_SPLINE_CURVE((1.,0.707106781186562,1.))
REPRESENTATION_ITEM('')
);
#411=(
BOUNDED_CURVE()
B_SPLINE_CURVE(2,(#874,#875,#876),.UNSPECIFIED.,.F.,.F.)
B_SPLINE_CURVE_WITH_KNOTS((3,3),(-1.,0.),.UNSPECIFIED.)
CURVE()
GEOMETRIC_REPRESENTATION_ITEM()
RATIONAL_B_SPLINE_CURVE((1.,0.707106781186608,1.))
REPRESENTATION_ITEM('')
);
#412=(
BOUNDED_CURVE()
B_SPLINE_CURVE(2,(#883,#884,#885),.UNSPECIFIED.,.F.,.F.)
B_SPLINE_CURVE_WITH_KNOTS((3,3),(0.,1.),.UNSPECIFIED.)
CURVE()
GEOMETRIC_REPRESENTATION_ITEM()
RATIONAL_B_SPLINE_CURVE((1.,0.707106781186559,1.))
REPRESENTATION_ITEM('')
);
#413=(
BOUNDED_CURVE()
B_SPLINE_CURVE(2,(#886,#887,#888),.UNSPECIFIED.,.F.,.F.)
B_SPLINE_CURVE_WITH_KNOTS((3,3),(0.,1.),.UNSPECIFIED.)
CURVE()
GEOMETRIC_REPRESENTATION_ITEM()
RATIONAL_B_SPLINE_CURVE((1.,0.707106781186539,1.))
REPRESENTATION_ITEM('')
);
#414=(
BOUNDED_CURVE()
B_SPLINE_CURVE(2,(#891,#892,#893),.UNSPECIFIED.,.F.,.F.)
B_SPLINE_CURVE_WITH_KNOTS((3,3),(-78.194865165142,-72.0779030103248),
 .UNSPECIFIED.)
CURVE()
GEOMETRIC_REPRESENTATION_ITEM()
RATIONAL_B_SPLINE_CURVE((1.,1.,1.))
REPRESENTATION_ITEM('')
);
#415=(
BOUNDED_CURVE()
B_SPLINE_CURVE(2,(#898,#899,#900),.UNSPECIFIED.,.F.,.F.)
B_SPLINE_CURVE_WITH_KNOTS((3,3),(-1.,0.),.UNSPECIFIED.)
CURVE()
GEOMETRIC_REPRESENTATION_ITEM()
RATIONAL_B_SPLINE_CURVE((1.,0.707106781186573,1.))
REPRESENTATION_ITEM('')
);
#416=(
BOUNDED_CURVE()
B_SPLINE_CURVE(2,(#901,#902,#903),.UNSPECIFIED.,.F.,.F.)
B_SPLINE_CURVE_WITH_KNOTS((3,3),(-1.,0.),.UNSPECIFIED.)
CURVE()
GEOMETRIC_REPRESENTATION_ITEM()
RATIONAL_B_SPLINE_CURVE((1.,0.707106781186573,1.))
REPRESENTATION_ITEM('')
);
#417=(
BOUNDED_CURVE()
B_SPLINE_CURVE(2,(#906,#907,#908),.UNSPECIFIED.,.F.,.F.)
B_SPLINE_CURVE_WITH_KNOTS((3,3),(-84.9905719300978,-83.9905719300977),
 .UNSPECIFIED.)
CURVE()
GEOMETRIC_REPRESENTATION_ITEM()
RATIONAL_B_SPLINE_CURVE((1.,1.,1.))
REPRESENTATION_ITEM('')
);
#418=(
BOUNDED_CURVE()
B_SPLINE_CURVE(2,(#913,#914,#915),.UNSPECIFIED.,.F.,.F.)
B_SPLINE_CURVE_WITH_KNOTS((3,3),(-1.,0.),.UNSPECIFIED.)
CURVE()
GEOMETRIC_REPRESENTATION_ITEM()
RATIONAL_B_SPLINE_CURVE((1.,0.707106781186545,1.))
REPRESENTATION_ITEM('')
);
#419=(
BOUNDED_CURVE()
B_SPLINE_CURVE(2,(#916,#917,#918),.UNSPECIFIED.,.F.,.F.)
B_SPLINE_CURVE_WITH_KNOTS((3,3),(-1.,0.),.UNSPECIFIED.)
CURVE()
GEOMETRIC_REPRESENTATION_ITEM()
RATIONAL_B_SPLINE_CURVE((1.,0.707106781186541,1.))
REPRESENTATION_ITEM('')
);
#420=(
BOUNDED_CURVE()
B_SPLINE_CURVE(2,(#927,#928,#929,#930,#931),.UNSPECIFIED.,.F.,.F.)
B_SPLINE_CURVE_WITH_KNOTS((3,2,3),(-49.6211551223868,-48.1681485688574,
-45.811953495672),.UNSPECIFIED.)
CURVE()
GEOMETRIC_REPRESENTATION_ITEM()
RATIONAL_B_SPLINE_CURVE((1.,0.970684838494517,1.,0.923879542220197,1.))
REPRESENTATION_ITEM('')
);
#421=(
BOUNDED_CURVE()
B_SPLINE_CURVE(2,(#932,#933,#934,#935,#936),.UNSPECIFIED.,.F.,.F.)
B_SPLINE_CURVE_WITH_KNOTS((3,2,3),(-49.6211551223863,-48.1681485688574,
-45.811953495672),.UNSPECIFIED.)
CURVE()
GEOMETRIC_REPRESENTATION_ITEM()
RATIONAL_B_SPLINE_CURVE((1.,0.970684838494536,1.,0.923879542220197,1.))
REPRESENTATION_ITEM('')
);
#422=(
BOUNDED_CURVE()
B_SPLINE_CURVE(1,(#953,#954),.UNSPECIFIED.,.F.,.F.)
B_SPLINE_CURVE_WITH_KNOTS((2,2),(0.,4.),.UNSPECIFIED.)
CURVE()
GEOMETRIC_REPRESENTATION_ITEM()
RATIONAL_B_SPLINE_CURVE((1.,1.))
REPRESENTATION_ITEM('')
);
#423=(
BOUNDED_CURVE()
B_SPLINE_CURVE(2,(#957,#958,#959),.UNSPECIFIED.,.F.,.F.)
B_SPLINE_CURVE_WITH_KNOTS((3,3),(0.,0.617042426566549),.UNSPECIFIED.)
CURVE()
GEOMETRIC_REPRESENTATION_ITEM()
RATIONAL_B_SPLINE_CURVE((1.,0.952783645094644,1.))
REPRESENTATION_ITEM('')
);
#424=(
BOUNDED_CURVE()
B_SPLINE_CURVE(2,(#960,#961,#962),.UNSPECIFIED.,.F.,.F.)
B_SPLINE_CURVE_WITH_KNOTS((3,3),(0.,0.617042426566549),.UNSPECIFIED.)
CURVE()
GEOMETRIC_REPRESENTATION_ITEM()
RATIONAL_B_SPLINE_CURVE((1.,0.952783645094645,1.))
REPRESENTATION_ITEM('')
);
#425=(
BOUNDED_CURVE()
B_SPLINE_CURVE(2,(#963,#964,#965,#966,#967,#968,#969),.UNSPECIFIED.,.F.,
 .F.)
B_SPLINE_CURVE_WITH_KNOTS((3,2,2,3),(-54.8768042638175,-54.8227922658578,
-54.4243424135474,-54.2904111608686),.UNSPECIFIED.)
CURVE()
GEOMETRIC_REPRESENTATION_ITEM()
RATIONAL_B_SPLINE_CURVE((1.,1.,1.,1.,1.,1.,1.))
REPRESENTATION_ITEM('')
);
#426=(
BOUNDED_CURVE()
B_SPLINE_CURVE(2,(#970,#971,#972,#973,#974,#975,#976),.UNSPECIFIED.,.F.,
 .F.)
B_SPLINE_CURVE_WITH_KNOTS((3,2,2,3),(-54.8768042638173,-54.8227922658578,
-54.4243424135474,-54.2904111608685),.UNSPECIFIED.)
CURVE()
GEOMETRIC_REPRESENTATION_ITEM()
RATIONAL_B_SPLINE_CURVE((1.,1.,1.,1.,1.,1.,1.))
REPRESENTATION_ITEM('')
);
#427=(
BOUNDED_CURVE()
B_SPLINE_CURVE(2,(#981,#982,#983),.UNSPECIFIED.,.F.,.F.)
B_SPLINE_CURVE_WITH_KNOTS((3,3),(0.,0.314159265359023),.UNSPECIFIED.)
CURVE()
GEOMETRIC_REPRESENTATION_ITEM()
RATIONAL_B_SPLINE_CURVE((1.,0.707106781186591,1.))
REPRESENTATION_ITEM('')
);
#428=(
BOUNDED_CURVE()
B_SPLINE_CURVE(2,(#984,#985,#986),.UNSPECIFIED.,.F.,.F.)
B_SPLINE_CURVE_WITH_KNOTS((3,3),(0.,0.314159265359023),.UNSPECIFIED.)
CURVE()
GEOMETRIC_REPRESENTATION_ITEM()
RATIONAL_B_SPLINE_CURVE((1.,0.707106781186592,1.))
REPRESENTATION_ITEM('')
);
#429=VERTEX_POINT('',#694);
#430=VERTEX_POINT('',#695);
#431=VERTEX_POINT('',#696);
#432=VERTEX_POINT('',#697);
#433=VERTEX_POINT('',#698);
#434=VERTEX_POINT('',#699);
#435=VERTEX_POINT('',#700);
#436=VERTEX_POINT('',#701);
#437=VERTEX_POINT('',#702);
#438=VERTEX_POINT('',#703);
#439=VERTEX_POINT('',#704);
#440=VERTEX_POINT('',#705);
#441=VERTEX_POINT('',#706);
#442=VERTEX_POINT('',#707);
#443=VERTEX_POINT('',#708);
#444=VERTEX_POINT('',#709);
#445=VERTEX_POINT('',#710);
#446=VERTEX_POINT('',#711);
#447=VERTEX_POINT('',#712);
#448=VERTEX_POINT('',#713);
#449=VERTEX_POINT('',#714);
#450=VERTEX_POINT('',#715);
#451=VERTEX_POINT('',#716);
#452=VERTEX_POINT('',#717);
#453=VERTEX_POINT('',#718);
#454=VERTEX_POINT('',#719);
#455=VERTEX_POINT('',#720);
#456=VERTEX_POINT('',#721);
#457=VERTEX_POINT('',#722);
#458=VERTEX_POINT('',#723);
#459=VERTEX_POINT('',#724);
#460=VERTEX_POINT('',#725);
#461=VERTEX_POINT('',#726);
#462=VERTEX_POINT('',#727);
#463=VERTEX_POINT('',#728);
#464=VERTEX_POINT('',#729);
#465=VERTEX_POINT('',#730);
#466=VERTEX_POINT('',#731);
#467=VERTEX_POINT('',#732);
#468=VERTEX_POINT('',#733);
#469=VERTEX_POINT('',#734);
#470=VERTEX_POINT('',#735);
#471=VERTEX_POINT('',#736);
#472=VERTEX_POINT('',#737);
#473=VERTEX_POINT('',#738);
#474=VERTEX_POINT('',#739);
#475=VERTEX_POINT('',#740);
#476=VERTEX_POINT('',#741);
#477=VERTEX_POINT('',#742);
#478=VERTEX_POINT('',#743);
#479=VERTEX_POINT('',#744);
#480=VERTEX_POINT('',#745);
#481=VERTEX_POINT('',#746);
#482=VERTEX_POINT('',#747);
#483=VERTEX_POINT('',#748);
#484=PLANE('',#602);
#485=PLANE('',#604);
#486=PLANE('',#606);
#487=PLANE('',#610);
#488=PLANE('',#611);
#489=PLANE('',#612);
#490=PLANE('',#613);
#491=PLANE('',#615);
#492=PLANE('',#619);
#493=PLANE('',#622);
#494=PLANE('',#623);
#495=PLANE('',#624);
#496=PLANE('',#625);
#497=PLANE('',#627);
#498=PLANE('',#628);
#499=CYLINDRICAL_SURFACE('',#601,1.00000000000101);
#500=CYLINDRICAL_SURFACE('',#603,0.200000000000036);
#501=CYLINDRICAL_SURFACE('',#605,0.500000000000113);
#502=CYLINDRICAL_SURFACE('',#607,15.);
#503=CYLINDRICAL_SURFACE('',#608,0.999999999999986);
#504=CYLINDRICAL_SURFACE('',#609,3.);
#505=CYLINDRICAL_SURFACE('',#614,0.5);
#506=CYLINDRICAL_SURFACE('',#616,0.5);
#507=CYLINDRICAL_SURFACE('',#617,0.5);
#508=CYLINDRICAL_SURFACE('',#618,0.500000000000028);
#509=CYLINDRICAL_SURFACE('',#620,0.500000000000014);
#510=CYLINDRICAL_SURFACE('',#621,15.);
#511=CYLINDRICAL_SURFACE('',#626,0.999999999999972);
#512=CYLINDRICAL_SURFACE('',#629,0.199999999999974);
#513=SHAPE_DEFINITION_REPRESENTATION(#514,#599);
#514=PRODUCT_DEFINITION_SHAPE('Document','',#516);
#515=PRODUCT_DEFINITION_CONTEXT('3D Mechanical Parts',#588,'design');
#516=PRODUCT_DEFINITION('A','First version',#558,#515);
#517=DATE_TIME_ROLE('classification_date');
#518=DATE_TIME_ROLE('creation_date');
#519=APPLIED_DATE_AND_TIME_ASSIGNMENT(#543,#517,(#522));
#520=APPLIED_DATE_AND_TIME_ASSIGNMENT(#545,#518,(#516));
#521=SECURITY_CLASSIFICATION_LEVEL('unclassified');
#522=SECURITY_CLASSIFICATION('A','Security for version',#521);
#523=APPLIED_SECURITY_CLASSIFICATION_ASSIGNMENT(#522,(#558));
#524=APPROVAL_ROLE('Version approval');
#525=APPROVAL_ROLE('Version Security approval');
#526=APPROVAL_ROLE('Definition approval');
#527=APPROVAL_PERSON_ORGANIZATION(#576,#552,#524);
#528=APPROVAL_PERSON_ORGANIZATION(#577,#553,#525);
#529=APPROVAL_PERSON_ORGANIZATION(#580,#554,#526);
#530=COORDINATED_UNIVERSAL_TIME_OFFSET(5,0,.BEHIND.);
#531=LOCAL_TIME(0,0,0.,#530);
#532=LOCAL_TIME(0,0,0.,#530);
#533=LOCAL_TIME(0,0,0.,#530);
#534=LOCAL_TIME(0,0,0.,#530);
#535=LOCAL_TIME(0,0,0.,#530);
#536=CALENDAR_DATE(1999,1,1);
#537=CALENDAR_DATE(1999,1,1);
#538=CALENDAR_DATE(1999,1,1);
#539=CALENDAR_DATE(1999,1,1);
#540=CALENDAR_DATE(1999,1,1);
#541=DATE_AND_TIME(#536,#531);
#542=DATE_AND_TIME(#537,#532);
#543=DATE_AND_TIME(#538,#533);
#544=DATE_AND_TIME(#539,#534);
#545=DATE_AND_TIME(#540,#535);
#546=APPROVAL_DATE_TIME(#541,#552);
#547=APPROVAL_DATE_TIME(#542,#553);
#548=APPROVAL_DATE_TIME(#544,#554);
#549=APPROVAL_STATUS('not_yet_approved');
#550=APPROVAL_STATUS('not_yet_approved');
#551=APPROVAL_STATUS('approved');
#552=APPROVAL(#549,'Version approval');
#553=APPROVAL(#550,'Version Security approval');
#554=APPROVAL(#551,'Definition approval');
#555=APPLIED_APPROVAL_ASSIGNMENT(#552,(#558));
#556=APPLIED_APPROVAL_ASSIGNMENT(#553,(#522));
#557=APPLIED_APPROVAL_ASSIGNMENT(#554,(#516));
#558=PRODUCT_DEFINITION_FORMATION_WITH_SPECIFIED_SOURCE('A',
'First version',#590,.MADE.);
#559=PERSON_AND_ORGANIZATION_ROLE('design_owner');
#560=PERSON_AND_ORGANIZATION_ROLE('creator');
#561=PERSON_AND_ORGANIZATION_ROLE('design_supplier');
#562=PERSON_AND_ORGANIZATION_ROLE('classification_officer');
#563=PERSON_AND_ORGANIZATION_ROLE('creator');
#564=ORGANIZATION('STI','lab','lab');
#565=ORGANIZATION('STI','unknown','unknown');
#566=ORGANIZATION('STI','unknown','unknown');
#567=ORGANIZATION('STI','unknown','unknown');
#568=ORGANIZATION('STI','unknown','unknown');
#569=ORGANIZATION('STI','unknown','unknown');
#570=ORGANIZATION('STI','unknown','unknown');
#571=PERSON('1','Box','vc60',$,$,$);
#572=PERSON('2','last','first',$,$,$);
#573=PERSON('3','President','Mr.',$,$,$);
#574=PERSON_AND_ORGANIZATION(#571,#564);
#575=PERSON_AND_ORGANIZATION(#572,#565);
#576=PERSON_AND_ORGANIZATION(#573,#566);
#577=PERSON_AND_ORGANIZATION(#573,#567);
#578=PERSON_AND_ORGANIZATION(#573,#568);
#579=PERSON_AND_ORGANIZATION(#572,#569);
#580=PERSON_AND_ORGANIZATION(#573,#570);
#581=APPLIED_PERSON_AND_ORGANIZATION_ASSIGNMENT(#574,#559,(#590));
#582=APPLIED_PERSON_AND_ORGANIZATION_ASSIGNMENT(#575,#560,(#558));
#583=APPLIED_PERSON_AND_ORGANIZATION_ASSIGNMENT(#575,#561,(#558));
#584=APPLIED_PERSON_AND_ORGANIZATION_ASSIGNMENT(#578,#562,(#522));
#585=APPLIED_PERSON_AND_ORGANIZATION_ASSIGNMENT(#579,#563,(#516));
#586=PRODUCT_RELATED_PRODUCT_CATEGORY('detail','detail',(#590));
#587=APPLICATION_PROTOCOL_DEFINITION('International Standard',
'config_control_design',1994,#588);
#588=APPLICATION_CONTEXT(
'configuration controlled 3d designs of mechanical parts and assemblie
s');
#589=PRODUCT_CONTEXT('3D Mechanical Parts',#588,'mechanical');
#590=PRODUCT('Document','Document','',(#589));
#591=(
LENGTH_UNIT()
NAMED_UNIT(*)
SI_UNIT(.MILLI.,.METRE.)
);
#592=(
NAMED_UNIT(*)
PLANE_ANGLE_UNIT()
SI_UNIT($,.RADIAN.)
);
#593=DIMENSIONAL_EXPONENTS(0.,0.,0.,0.,0.,0.,0.);
#594=PLANE_ANGLE_MEASURE_WITH_UNIT(PLANE_ANGLE_MEASURE(0.01745329252),#592);
#595=(
CONVERSION_BASED_UNIT('DEGREES',#594)
NAMED_UNIT(#593)
PLANE_ANGLE_UNIT()
);
#596=(
NAMED_UNIT(*)
SI_UNIT($,.STERADIAN.)
SOLID_ANGLE_UNIT()
);
#597=UNCERTAINTY_MEASURE_WITH_UNIT(LENGTH_MEASURE(0.001),#591,
'DISTANCE_ACCURACY_VALUE',
'Maximum model space distance between geometric entities at asserted c
onnectivities');
#598=(
GEOMETRIC_REPRESENTATION_CONTEXT(3)
GLOBAL_UNCERTAINTY_ASSIGNED_CONTEXT((#597))
GLOBAL_UNIT_ASSIGNED_CONTEXT((#596,#595,#591))
REPRESENTATION_CONTEXT('ID1','3D')
);
#599=SHAPE_REPRESENTATION('Document',(#600,#630),#598);
#600=AXIS2_PLACEMENT_3D('',#664,#631,#632);
#601=AXIS2_PLACEMENT_3D('',#665,#633,$);
#602=AXIS2_PLACEMENT_3D('',#666,#634,$);
#603=AXIS2_PLACEMENT_3D('',#667,#635,$);
#604=AXIS2_PLACEMENT_3D('',#668,#636,$);
#605=AXIS2_PLACEMENT_3D('',#669,#637,$);
#606=AXIS2_PLACEMENT_3D('',#670,#638,$);
#607=AXIS2_PLACEMENT_3D('',#671,#639,$);
#608=AXIS2_PLACEMENT_3D('',#672,#640,$);
#609=AXIS2_PLACEMENT_3D('',#673,#641,$);
#610=AXIS2_PLACEMENT_3D('',#674,#642,$);
#611=AXIS2_PLACEMENT_3D('',#675,#643,$);
#612=AXIS2_PLACEMENT_3D('',#676,#644,$);
#613=AXIS2_PLACEMENT_3D('',#677,#645,$);
#614=AXIS2_PLACEMENT_3D('',#678,#646,$);
#615=AXIS2_PLACEMENT_3D('',#679,#647,$);
#616=AXIS2_PLACEMENT_3D('',#680,#648,$);
#617=AXIS2_PLACEMENT_3D('',#681,#649,$);
#618=AXIS2_PLACEMENT_3D('',#682,#650,$);
#619=AXIS2_PLACEMENT_3D('',#683,#651,$);
#620=AXIS2_PLACEMENT_3D('',#684,#652,$);
#621=AXIS2_PLACEMENT_3D('',#685,#653,$);
#622=AXIS2_PLACEMENT_3D('',#686,#654,$);
#623=AXIS2_PLACEMENT_3D('',#687,#655,$);
#624=AXIS2_PLACEMENT_3D('',#688,#656,$);
#625=AXIS2_PLACEMENT_3D('',#689,#657,$);
#626=AXIS2_PLACEMENT_3D('',#690,#658,$);
#627=AXIS2_PLACEMENT_3D('',#691,#659,$);
#628=AXIS2_PLACEMENT_3D('',#692,#660,$);
#629=AXIS2_PLACEMENT_3D('',#693,#661,$);
#630=AXIS2_PLACEMENT_3D('',#987,#662,#663);
#631=DIRECTION('',(0.,0.,1.));
#632=DIRECTION('',(1.,0.,0.));
#633=DIRECTION('',(-1.,-4.82989288895584E-14,2.14963626681717E-14));
#634=DIRECTION('',(3.88233669941477E-14,-0.903391925153217,0.428815845751955));
#635=DIRECTION('',(1.,4.18928293741309E-14,-2.05224832147497E-14));
#636=DIRECTION('',(0.,0.,-1.));
#637=DIRECTION('',(1.,4.23213806613946E-14,-1.98940559259579E-14));
#638=DIRECTION('',(-3.51883979479366E-14,0.815593348719553,-0.578625517519255));
#639=DIRECTION('',(0.,0.,-1.));
#640=DIRECTION('',(-1.,-4.26325603563482E-14,2.06501522917573E-14));
#641=DIRECTION('',(1.,4.25304504892169E-14,-2.06412338449656E-14));
#642=DIRECTION('',(0.,1.,0.));
#643=DIRECTION('',(0.,0.,1.));
#644=DIRECTION('',(1.,0.,0.));
#645=DIRECTION('',(0.,0.,1.));
#646=DIRECTION('',(-1.,-3.76040372196181E-13,3.7337583693706E-13));
#647=DIRECTION('',(0.,-1.,0.));
#648=DIRECTION('',(-1.,3.71101243086461E-12,-3.71989421506157E-12));
#649=DIRECTION('',(1.,1.65423683924273E-12,1.65112821477383E-12));
#650=DIRECTION('',(-1.,-9.98547083874195E-15,2.88004348114123E-15));
#651=DIRECTION('',(0.,-1.,0.));
#652=DIRECTION('',(-1.,-3.81178958557856E-13,3.78958512508595E-13));
#653=DIRECTION('',(0.,0.,-1.));
#654=DIRECTION('',(-1.,0.,0.));
#655=DIRECTION('',(0.,-1.,0.));
#656=DIRECTION('',(1.,0.,0.));
#657=DIRECTION('',(0.,0.,-1.));
#658=DIRECTION('',(1.,-1.58655350970667E-12,4.54976705971737E-13));
#659=DIRECTION('',(0.,0.,1.));
#660=DIRECTION('',(0.,1.,0.));
#661=DIRECTION('',(1.,6.66735364768941E-14,6.66735364768998E-14));
#662=DIRECTION('',(0.,0.,1.));
#663=DIRECTION('',(1.,0.,0.));
#664=CARTESIAN_POINT('',(0.,0.,0.));
#665=CARTESIAN_POINT('',(-1.63087534999019E-13,79.999999999999,-4.40510737695887));
#666=CARTESIAN_POINT('',(-2.00000000000022,80.9033919251532,-4.83392322271087));
#667=CARTESIAN_POINT('',(-2.25933714059385E-13,80.2929987991925,-6.5862470433112));
#668=CARTESIAN_POINT('',(-2.00000000000023,80.2929987991923,-6.78624704331125));
#669=CARTESIAN_POINT('',(-2.74270066341058E-13,81.5608893206768,-6.28624704331113));
#670=CARTESIAN_POINT('',(-2.0000000000003,81.9903933241994,-6.54222811870151));
#671=CARTESIAN_POINT('',(1.4210854715202E-14,68.,3.7));
#672=CARTESIAN_POINT('',(-1.72084530924305E-14,80.,2.97820061029518));
#673=CARTESIAN_POINT('',(-1.7514788001603E-14,79.9999999999999,2.97820061029525));
#674=CARTESIAN_POINT('',(3.99999999999996,79.0000000000001,0.));
#675=CARTESIAN_POINT('',(-1.99999999999996,79.9999998247911,5.97820079140198));
#676=CARTESIAN_POINT('',(3.99999999999996,75.0000000000001,0.));
#677=CARTESIAN_POINT('',(-1.99999999999991,74.9999999999999,2.));
#678=CARTESIAN_POINT('',(1.00000000000021,76.4999999999999,2.50000000000001));
#679=CARTESIAN_POINT('',(-1.99999999999991,76.9999999999999,0.));
#680=CARTESIAN_POINT('',(1.00000000000186,77.4999999999999,5.47820079140196));
#681=CARTESIAN_POINT('',(0.999999999999056,75.5000000000001,0.500000000000004));
#682=CARTESIAN_POINT('',(0.999999999999979,78.5,0.500000000000015));
#683=CARTESIAN_POINT('',(-1.99999999999986,75.0000000000001,0.));
#684=CARTESIAN_POINT('',(0.999999999999831,75.5000000000001,1.49999999999999));
#685=CARTESIAN_POINT('',(2.8421709430404E-14,68.,3.));
#686=CARTESIAN_POINT('',(-2.00000000000017,85.2848780919835,6.57602095811014));
#687=CARTESIAN_POINT('',(-2.00000000000021,80.9999999999999,2.97820024329934));
#688=CARTESIAN_POINT('',(1.99999999999983,85.2848780919837,6.57602078603889));
#689=CARTESIAN_POINT('',(-2.60000000000002,75.3000000000001,0.));
#690=CARTESIAN_POINT('',(-1.9007466256755E-12,83.4206814839289,-2.79795234061933));
#691=CARTESIAN_POINT('',(-53.75,14.25,-2.3));
#692=CARTESIAN_POINT('',(-3.82119937783299,84.4206814839289,-1.00572188395005));
#693=CARTESIAN_POINT('',(-2.97083650389816E-13,84.2206814839289,-2.49999999999998));
#694=CARTESIAN_POINT('',(-2.00000000000021,80.9999999999999,-4.405107376959));
#695=CARTESIAN_POINT('',(1.99999999999979,81.0000000000001,-4.405107376959));
#696=CARTESIAN_POINT('',(-2.00000000000022,80.9033919251532,-4.83392322271087));
#697=CARTESIAN_POINT('',(1.99999999999978,80.9033919251534,-4.83392322271088));
#698=CARTESIAN_POINT('',(-2.00000000000022,80.1123204141617,-6.50048387416091));
#699=CARTESIAN_POINT('',(1.99999999999978,80.1123204141618,-6.50048387416091));
#700=CARTESIAN_POINT('',(-2.00000000000023,80.2929987991923,-6.78624704331125));
#701=CARTESIAN_POINT('',(1.99999999999977,80.2929987991925,-6.78624704331125));
#702=CARTESIAN_POINT('',(-2.00000000000028,81.5608893206767,-6.78624704331124));
#703=CARTESIAN_POINT('',(1.99999999999972,81.5608893206768,-6.78624704331124));
#704=CARTESIAN_POINT('',(-2.0000000000003,81.9903933241994,-6.54222811870151));
#705=CARTESIAN_POINT('',(1.9999999999997,81.9903933241996,-6.54222811870152));
#706=CARTESIAN_POINT('',(-2.00000000000023,82.8660687473185,-2.3));
#707=CARTESIAN_POINT('',(1.99999999999979,82.8660687473185,-2.3));
#708=CARTESIAN_POINT('',(-2.00000000000021,82.8660687473185,1.11022302462516E-15));
#709=CARTESIAN_POINT('',(1.99999999999981,82.8660687473185,1.11022302462516E-15));
#710=CARTESIAN_POINT('',(3.99999999999996,79.0000000000001,5.97820079140198));
#711=CARTESIAN_POINT('',(-1.99999999999996,79.999999824791,5.97820061029523));
#712=CARTESIAN_POINT('',(2.00000000000004,79.9999998247911,5.97820061029523));
#713=CARTESIAN_POINT('',(-1.99999999999997,78.9999999999999,2.97820061029512));
#714=CARTESIAN_POINT('',(-2.00000000000006,80.9999999999998,2.97820024329926));
#715=CARTESIAN_POINT('',(1.99999999999994,81.,2.97820024329926));
#716=CARTESIAN_POINT('',(2.00000000000009,79.0000000000001,5.97820079140198));
#717=CARTESIAN_POINT('',(2.00000000000003,79.0000000000001,2.97820061029512));
#718=CARTESIAN_POINT('',(3.99999999999996,76.4999999999999,2.));
#719=CARTESIAN_POINT('',(-1.9999999999999,76.9999999999999,2.5));
#720=CARTESIAN_POINT('',(-1.9999999999999,76.4999999999999,2.));
#721=CARTESIAN_POINT('',(3.99999999999996,76.9999999999999,2.5));
#722=CARTESIAN_POINT('',(3.99999999999996,77.4999999999999,5.97820079140198));
#723=CARTESIAN_POINT('',(-1.99999999999988,77.4999999999999,5.97820083916632));
#724=CARTESIAN_POINT('',(-1.99999999999988,76.9999999999999,5.47820079140195));
#725=CARTESIAN_POINT('',(3.99999999999997,76.9999999999999,5.47820079140198));
#726=CARTESIAN_POINT('',(3.99999999999997,75.0000000000001,0.5));
#727=CARTESIAN_POINT('',(-1.99999999999993,75.,0.500000000000002));
#728=CARTESIAN_POINT('',(-1.99999999999994,75.5000000000001,1.59872115546023E-15));
#729=CARTESIAN_POINT('',(3.99999999999997,75.5000000000001,0.));
#730=CARTESIAN_POINT('',(3.99999999999996,79.0000000000001,0.5));
#731=CARTESIAN_POINT('',(-2.00000000000003,79.,0.499999999999999));
#732=CARTESIAN_POINT('',(-2.00000000000002,78.5000000000001,1.50736566086252E-15));
#733=CARTESIAN_POINT('',(3.99999999999997,78.5000000000001,0.));
#734=CARTESIAN_POINT('',(3.99999999999996,75.5000000000001,2.));
#735=CARTESIAN_POINT('',(-1.99999999999987,75.,1.50000000000001));
#736=CARTESIAN_POINT('',(-1.99999999999987,75.5000000000001,2.));
#737=CARTESIAN_POINT('',(3.99999999999996,75.0000000000001,1.5));
#738=CARTESIAN_POINT('',(2.30940630730958E-6,82.9999999999999,2.97820013313112));
#739=CARTESIAN_POINT('',(1.99999999999987,82.8660687473185,3.86456957164485));
#740=CARTESIAN_POINT('',(-2.00000000000012,82.8660687473185,3.86456957164439));
#741=CARTESIAN_POINT('',(-2.00000000000033,84.2362748326485,-3.37657785813845));
#742=CARTESIAN_POINT('',(1.99999999999967,84.2362748326485,-3.37657785813871));
#743=CARTESIAN_POINT('',(-2.00000000000032,84.4206814839289,-2.79795234061919));
#744=CARTESIAN_POINT('',(1.99999999999968,84.4206814839289,-2.79795234061944));
#745=CARTESIAN_POINT('',(-2.00000000000031,84.2206814839289,-2.30004796218507));
#746=CARTESIAN_POINT('',(1.99999999999969,84.2206814839289,-2.30004796218507));
#747=CARTESIAN_POINT('',(-2.00000000000032,84.4206814839289,-2.5));
#748=CARTESIAN_POINT('',(1.99999999999969,84.4206814839289,-2.50000000000001));
#749=CARTESIAN_POINT('',(-2.00000000000021,80.9999999999999,-4.405107376959));
#750=CARTESIAN_POINT('',(1.99999999999979,81.0000000000001,-4.405107376959));
#751=CARTESIAN_POINT('',(-2.00000000000021,80.9999999999999,-4.405107376959));
#752=CARTESIAN_POINT('',(-2.00000000000022,80.9999999999998,-4.63039773365595));
#753=CARTESIAN_POINT('',(-2.00000000000022,80.9033919251532,-4.83392322271087));
#754=CARTESIAN_POINT('',(-2.00000000000022,80.9033919251532,-4.83392322271087));
#755=CARTESIAN_POINT('',(1.99999999999978,80.9033919251534,-4.83392322271088));
#756=CARTESIAN_POINT('',(1.99999999999979,81.0000000000001,-4.405107376959));
#757=CARTESIAN_POINT('',(1.99999999999978,81.,-4.63039773365595));
#758=CARTESIAN_POINT('',(1.99999999999978,80.9033919251534,-4.83392322271088));
#759=CARTESIAN_POINT('',(-2.00000000000022,80.9033919251532,-4.83392322271087));
#760=CARTESIAN_POINT('',(-2.00000000000022,80.5078561696574,-5.66720354843589));
#761=CARTESIAN_POINT('',(-2.00000000000022,80.1123204141617,-6.50048387416091));
#762=CARTESIAN_POINT('',(-2.00000000000022,80.1123204141617,-6.50048387416091));
#763=CARTESIAN_POINT('',(1.99999999999978,80.1123204141618,-6.50048387416091));
#764=CARTESIAN_POINT('',(1.99999999999978,80.9033919251534,-4.83392322271088));
#765=CARTESIAN_POINT('',(1.99999999999978,80.5078561696576,-5.6672035484359));
#766=CARTESIAN_POINT('',(1.99999999999978,80.1123204141618,-6.50048387416091));
#767=CARTESIAN_POINT('',(-2.00000000000022,80.1123204141617,-6.50048387416091));
#768=CARTESIAN_POINT('',(-2.00000000000022,80.0650778943655,-6.60001030568308));
#769=CARTESIAN_POINT('',(-2.00000000000022,80.1239534889497,-6.69312867449714));
#770=CARTESIAN_POINT('',(-2.00000000000023,80.1828290835341,-6.78624704331118));
#771=CARTESIAN_POINT('',(-2.00000000000023,80.2929987991923,-6.78624704331125));
#772=CARTESIAN_POINT('',(-2.00000000000023,80.2929987991923,-6.78624704331125));
#773=CARTESIAN_POINT('',(1.99999999999977,80.2929987991925,-6.78624704331125));
#774=CARTESIAN_POINT('',(1.99999999999978,80.1123204141618,-6.50048387416091));
#775=CARTESIAN_POINT('',(1.99999999999978,80.0650778943657,-6.60001030568309));
#776=CARTESIAN_POINT('',(1.99999999999978,80.1239534889499,-6.69312867449714));
#777=CARTESIAN_POINT('',(1.99999999999977,80.1828290835343,-6.78624704331119));
#778=CARTESIAN_POINT('',(1.99999999999977,80.2929987991925,-6.78624704331125));
#779=CARTESIAN_POINT('',(-2.00000000000023,80.2929987991923,-6.78624704331125));
#780=CARTESIAN_POINT('',(-2.00000000000026,80.9269440599345,-6.78624704331124));
#781=CARTESIAN_POINT('',(-2.00000000000028,81.5608893206767,-6.78624704331124));
#782=CARTESIAN_POINT('',(-2.00000000000028,81.5608893206767,-6.78624704331124));
#783=CARTESIAN_POINT('',(1.99999999999972,81.5608893206768,-6.78624704331124));
#784=CARTESIAN_POINT('',(1.99999999999977,80.2929987991925,-6.78624704331125));
#785=CARTESIAN_POINT('',(1.99999999999974,80.9269440599347,-6.78624704331125));
#786=CARTESIAN_POINT('',(1.99999999999972,81.5608893206768,-6.78624704331124));
#787=CARTESIAN_POINT('',(-2.00000000000028,81.5608893206767,-6.78624704331124));
#788=CARTESIAN_POINT('',(-2.0000000000003,81.8449599260824,-6.78624704331124));
#789=CARTESIAN_POINT('',(-2.0000000000003,81.9903933241994,-6.54222811870151));
#790=CARTESIAN_POINT('',(-2.0000000000003,81.9903933241994,-6.54222811870151));
#791=CARTESIAN_POINT('',(1.9999999999997,81.9903933241996,-6.54222811870152));
#792=CARTESIAN_POINT('',(1.99999999999972,81.5608893206768,-6.78624704331124));
#793=CARTESIAN_POINT('',(1.9999999999997,81.8449599260826,-6.78624704331125));
#794=CARTESIAN_POINT('',(1.9999999999997,81.9903933241996,-6.54222811870152));
#795=CARTESIAN_POINT('',(-2.0000000000003,81.9903933241994,-6.54222811870151));
#796=CARTESIAN_POINT('',(-2.00000000000032,83.1133340784239,-4.95940298841998));
#797=CARTESIAN_POINT('',(-2.00000000000033,84.2362748326485,-3.37657785813845));
#798=CARTESIAN_POINT('',(1.9999999999997,81.9903933241996,-6.54222811870152));
#799=CARTESIAN_POINT('',(1.99999999999968,83.113334078424,-4.95940298842011));
#800=CARTESIAN_POINT('',(1.99999999999967,84.2362748326485,-3.37657785813871));
#801=CARTESIAN_POINT('',(-2.00000000000023,82.8660687473185,-2.3));
#802=CARTESIAN_POINT('',(-1.00448439511132,82.9999999999999,-2.3));
#803=CARTESIAN_POINT('',(1.4432899320127E-14,82.9999999999999,-2.3));
#804=CARTESIAN_POINT('',(1.00448439511111,82.9999999999999,-2.3));
#805=CARTESIAN_POINT('',(1.99999999999979,82.8660687473185,-2.3));
#806=CARTESIAN_POINT('',(-2.00000000000023,82.8660687473185,-2.3));
#807=CARTESIAN_POINT('',(-2.00000000000021,82.8660687473185,1.11022302462516E-15));
#808=CARTESIAN_POINT('',(1.99999999999979,82.8660687473185,-2.3));
#809=CARTESIAN_POINT('',(1.99999999999981,82.8660687473185,1.11022302462516E-15));
#810=CARTESIAN_POINT('',(-2.00000000000021,82.8660687473185,1.11022302462516E-15));
#811=CARTESIAN_POINT('',(-2.0209149223051E-13,83.135137864917,5.60112617950229E-16));
#812=CARTESIAN_POINT('',(1.99999999999981,82.8660687473185,1.11022302462516E-15));
#813=CARTESIAN_POINT('',(3.99999999999996,79.0000000000001,5.97820079140198));
#814=CARTESIAN_POINT('',(2.00000000000009,79.0000000000001,5.97820079140198));
#815=CARTESIAN_POINT('',(-1.99999999999996,79.999999824791,5.97820061029523));
#816=CARTESIAN_POINT('',(-1.99999999999992,78.7499999123955,5.97820072473078));
#817=CARTESIAN_POINT('',(-1.99999999999988,77.4999999999999,5.97820083916632));
#818=CARTESIAN_POINT('',(2.00000000000004,79.9999998247911,5.97820061029523));
#819=CARTESIAN_POINT('',(2.00000000000007,79.4999999123956,5.9782007008486));
#820=CARTESIAN_POINT('',(2.00000000000009,79.0000000000001,5.97820079140198));
#821=CARTESIAN_POINT('',(-1.99999999999996,79.999999824791,5.97820061029523));
#822=CARTESIAN_POINT('',(2.00000000000004,79.9999998247911,5.97820061029523));
#823=CARTESIAN_POINT('',(-1.99999999999997,78.9999999999999,2.97820061029512));
#824=CARTESIAN_POINT('',(-1.99999999999997,79.,3.39241422641352));
#825=CARTESIAN_POINT('',(-1.99999999999997,79.2928932836897,3.68530745635799));
#826=CARTESIAN_POINT('',(-1.99999999999998,79.5857865673795,3.97820068630247));
#827=CARTESIAN_POINT('',(-2.,80.0000001834979,3.97820061029513));
#828=CARTESIAN_POINT('',(-2.00000000000001,80.4142137996163,3.97820053428778));
#829=CARTESIAN_POINT('',(-2.00000000000003,80.7071069758154,3.68530719685271));
#830=CARTESIAN_POINT('',(-2.00000000000005,81.0000001520148,3.39241385941763));
#831=CARTESIAN_POINT('',(-2.00000000000006,80.9999999999998,2.97820024329926));
#832=CARTESIAN_POINT('',(-2.00000000000006,80.9999999999998,2.97820024329926));
#833=CARTESIAN_POINT('',(1.99999999999994,81.,2.97820024329926));
#834=CARTESIAN_POINT('',(2.00000000000003,79.0000000000001,2.97820061029512));
#835=CARTESIAN_POINT('',(2.00000000000003,79.0000000000002,3.39241422641352));
#836=CARTESIAN_POINT('',(2.00000000000003,79.2928932836898,3.68530745635799));
#837=CARTESIAN_POINT('',(2.00000000000002,79.5857865673797,3.97820068630246));
#838=CARTESIAN_POINT('',(2.,80.000000183498,3.97820061029512));
#839=CARTESIAN_POINT('',(1.99999999999999,80.4142137996165,3.97820053428778));
#840=CARTESIAN_POINT('',(1.99999999999997,80.7071069758155,3.68530719685271));
#841=CARTESIAN_POINT('',(1.99999999999995,81.0000001520149,3.39241385941763));
#842=CARTESIAN_POINT('',(1.99999999999994,81.,2.97820024329926));
#843=CARTESIAN_POINT('',(2.00000000000003,79.0000000000001,2.97820061029512));
#844=CARTESIAN_POINT('',(2.00000000000009,79.0000000000001,5.97820079140198));
#845=CARTESIAN_POINT('',(-1.99999999999997,78.9999999999999,2.97820061029512));
#846=CARTESIAN_POINT('',(2.00000000000003,79.0000000000001,2.97820061029512));
#847=CARTESIAN_POINT('',(-1.9999999999999,76.4999999999999,2.));
#848=CARTESIAN_POINT('',(-1.99999999999988,76.,2.));
#849=CARTESIAN_POINT('',(-1.99999999999987,75.5000000000001,2.));
#850=CARTESIAN_POINT('',(3.99999999999996,76.9999999999999,2.5));
#851=CARTESIAN_POINT('',(3.99999999999997,76.9999999999999,5.47820079140198));
#852=CARTESIAN_POINT('',(-1.9999999999999,76.9999999999999,2.5));
#853=CARTESIAN_POINT('',(3.99999999999996,76.9999999999999,2.5));
#854=CARTESIAN_POINT('',(-1.9999999999999,76.4999999999999,2.));
#855=CARTESIAN_POINT('',(3.99999999999996,76.4999999999999,2.));
#856=CARTESIAN_POINT('',(3.99999999999996,76.9999999999999,2.5));
#857=CARTESIAN_POINT('',(3.99999999999979,76.9999999999999,2.00000000000002));
#858=CARTESIAN_POINT('',(3.99999999999996,76.4999999999999,2.));
#859=CARTESIAN_POINT('',(-1.9999999999999,76.9999999999999,2.5));
#860=CARTESIAN_POINT('',(-2.00000000000008,76.9999999999999,2.00000000000002));
#861=CARTESIAN_POINT('',(-1.9999999999999,76.4999999999999,2.));
#862=CARTESIAN_POINT('',(3.99999999999996,77.4999999999999,5.97820079140198));
#863=CARTESIAN_POINT('',(3.99999999999996,79.0000000000001,5.97820079140198));
#864=CARTESIAN_POINT('',(-1.99999999999988,76.9999999999999,5.47820079140195));
#865=CARTESIAN_POINT('',(-1.99999999999989,76.9999999999999,3.98910039570098));
#866=CARTESIAN_POINT('',(-1.9999999999999,76.9999999999999,2.5));
#867=CARTESIAN_POINT('',(-1.99999999999988,77.4999999999999,5.97820083916632));
#868=CARTESIAN_POINT('',(3.99999999999996,77.4999999999999,5.97820079140198));
#869=CARTESIAN_POINT('',(-1.99999999999988,76.9999999999999,5.47820079140195));
#870=CARTESIAN_POINT('',(3.99999999999997,76.9999999999999,5.47820079140198));
#871=CARTESIAN_POINT('',(3.99999999999996,77.4999999999999,5.97820079140198));
#872=CARTESIAN_POINT('',(3.9999999999982,76.9999999999999,5.97820079140197));
#873=CARTESIAN_POINT('',(3.99999999999997,76.9999999999999,5.47820079140198));
#874=CARTESIAN_POINT('',(-1.99999999999988,77.4999999999999,5.97820083916632));
#875=CARTESIAN_POINT('',(-2.00000000000164,77.,5.97820081528412));
#876=CARTESIAN_POINT('',(-1.99999999999988,76.9999999999999,5.47820079140195));
#877=CARTESIAN_POINT('',(3.99999999999997,75.0000000000001,0.5));
#878=CARTESIAN_POINT('',(3.99999999999996,75.0000000000001,1.5));
#879=CARTESIAN_POINT('',(-1.99999999999993,75.,0.500000000000002));
#880=CARTESIAN_POINT('',(3.99999999999997,75.0000000000001,0.5));
#881=CARTESIAN_POINT('',(-1.99999999999994,75.5000000000001,1.59872115546023E-15));
#882=CARTESIAN_POINT('',(3.99999999999997,75.5000000000001,0.));
#883=CARTESIAN_POINT('',(3.99999999999997,75.0000000000001,0.5));
#884=CARTESIAN_POINT('',(4.00000000000075,75.0000000000001,-1.41621048377214E-14));
#885=CARTESIAN_POINT('',(3.99999999999997,75.5000000000001,0.));
#886=CARTESIAN_POINT('',(-1.99999999999993,75.,0.500000000000002));
#887=CARTESIAN_POINT('',(-1.99999999999915,75.,-1.05786585180542E-14));
#888=CARTESIAN_POINT('',(-1.99999999999994,75.5000000000001,1.59872115546023E-15));
#889=CARTESIAN_POINT('',(3.99999999999996,79.0000000000001,0.5));
#890=CARTESIAN_POINT('',(3.99999999999996,79.0000000000001,5.97820079140198));
#891=CARTESIAN_POINT('',(-2.00000000000003,79.,0.499999999999999));
#892=CARTESIAN_POINT('',(-2.,79.,1.73910030514756));
#893=CARTESIAN_POINT('',(-1.99999999999997,78.9999999999999,2.97820061029512));
#894=CARTESIAN_POINT('',(3.99999999999996,79.0000000000001,0.5));
#895=CARTESIAN_POINT('',(-2.00000000000003,79.,0.499999999999999));
#896=CARTESIAN_POINT('',(3.99999999999997,78.5000000000001,0.));
#897=CARTESIAN_POINT('',(-2.00000000000002,78.5000000000001,1.50736566086252E-15));
#898=CARTESIAN_POINT('',(3.99999999999997,78.5000000000001,0.));
#899=CARTESIAN_POINT('',(3.99999999999996,79.,-3.10992168486227E-15));
#900=CARTESIAN_POINT('',(3.99999999999996,79.0000000000001,0.5));
#901=CARTESIAN_POINT('',(-2.00000000000002,78.5000000000001,1.50736566086252E-15));
#902=CARTESIAN_POINT('',(-2.00000000000003,79.,-2.72683875512598E-15));
#903=CARTESIAN_POINT('',(-2.00000000000003,79.,0.499999999999999));
#904=CARTESIAN_POINT('',(3.99999999999996,75.5000000000001,2.));
#905=CARTESIAN_POINT('',(3.99999999999996,76.4999999999999,2.));
#906=CARTESIAN_POINT('',(-1.99999999999987,75.,1.50000000000001));
#907=CARTESIAN_POINT('',(-1.9999999999999,75.,1.00000000000001));
#908=CARTESIAN_POINT('',(-1.99999999999993,75.,0.500000000000002));
#909=CARTESIAN_POINT('',(-1.99999999999987,75.,1.50000000000001));
#910=CARTESIAN_POINT('',(3.99999999999996,75.0000000000001,1.5));
#911=CARTESIAN_POINT('',(-1.99999999999987,75.5000000000001,2.));
#912=CARTESIAN_POINT('',(3.99999999999996,75.5000000000001,2.));
#913=CARTESIAN_POINT('',(3.99999999999996,75.5000000000001,2.));
#914=CARTESIAN_POINT('',(4.00000000000014,75.0000000000001,1.99999999999999));
#915=CARTESIAN_POINT('',(3.99999999999996,75.0000000000001,1.5));
#916=CARTESIAN_POINT('',(-1.99999999999987,75.5000000000001,2.));
#917=CARTESIAN_POINT('',(-1.99999999999969,75.,1.99999999999999));
#918=CARTESIAN_POINT('',(-1.99999999999987,75.,1.50000000000001));
#919=CARTESIAN_POINT('',(1.99999999999987,82.8660687473185,3.86456957164485));
#920=CARTESIAN_POINT('',(1.33511249430739,82.955519094548,3.57533240765288));
#921=CARTESIAN_POINT('',(0.666889198365347,82.9999999618613,3.27644204943189));
#922=CARTESIAN_POINT('',(2.30940630730958E-6,82.9999999999999,2.97820013313112));
#923=CARTESIAN_POINT('',(2.30940630730958E-6,82.9999999999999,2.97820013313112));
#924=CARTESIAN_POINT('',(-0.666887912791432,83.0000000474366,3.27644147440606));
#925=CARTESIAN_POINT('',(-1.33511185472961,82.9555191805933,3.57533212942528));
#926=CARTESIAN_POINT('',(-2.00000000000012,82.8660687473185,3.86456957164439));
#927=CARTESIAN_POINT('',(-2.00000000000012,82.8660687473185,3.86456957164439));
#928=CARTESIAN_POINT('',(-2.0000000000001,82.6465907308371,4.57425042825252));
#929=CARTESIAN_POINT('',(-2.00000000000006,82.1213206228741,5.09952067454029));
#930=CARTESIAN_POINT('',(-2.00000000000001,81.2426410481004,5.97820048070567));
#931=CARTESIAN_POINT('',(-1.99999999999996,79.999999824791,5.97820061029523));
#932=CARTESIAN_POINT('',(1.99999999999987,82.8660687473185,3.86456957164485));
#933=CARTESIAN_POINT('',(1.9999999999999,82.6465907308369,4.57425042825269));
#934=CARTESIAN_POINT('',(1.99999999999993,82.1213206228741,5.09952067454029));
#935=CARTESIAN_POINT('',(1.99999999999999,81.2426410481006,5.97820048070567));
#936=CARTESIAN_POINT('',(2.00000000000004,79.9999998247911,5.97820061029523));
#937=CARTESIAN_POINT('',(-2.00000000000021,82.8660687473185,1.11022302462516E-15));
#938=CARTESIAN_POINT('',(-2.00000000000012,82.8660687473185,3.86456957164439));
#939=CARTESIAN_POINT('',(1.99999999999981,82.8660687473185,1.11022302462516E-15));
#940=CARTESIAN_POINT('',(1.99999999999987,82.8660687473185,3.86456957164485));
#941=CARTESIAN_POINT('',(-2.00000000000006,80.9999999999998,2.97820024329926));
#942=CARTESIAN_POINT('',(-2.00000000000021,80.9999999999999,-4.405107376959));
#943=CARTESIAN_POINT('',(1.99999999999994,81.,2.97820024329926));
#944=CARTESIAN_POINT('',(1.99999999999979,81.0000000000001,-4.405107376959));
#945=CARTESIAN_POINT('',(-1.99999999999994,75.5000000000001,1.59872115546023E-15));
#946=CARTESIAN_POINT('',(-2.00000000000002,78.5000000000001,1.50736566086252E-15));
#947=CARTESIAN_POINT('',(3.99999999999997,75.5000000000001,0.));
#948=CARTESIAN_POINT('',(3.99999999999997,78.5000000000001,0.));
#949=CARTESIAN_POINT('',(-2.00000000000032,84.4206814839289,-2.79795234061919));
#950=CARTESIAN_POINT('',(-2.00000000000032,84.4206814839289,-2.5));
#951=CARTESIAN_POINT('',(1.99999999999968,84.4206814839289,-2.79795234061944));
#952=CARTESIAN_POINT('',(1.99999999999969,84.4206814839289,-2.50000000000001));
#953=CARTESIAN_POINT('',(-2.00000000000033,84.2362748326485,-3.37657785813845));
#954=CARTESIAN_POINT('',(1.99999999999967,84.2362748326485,-3.37657785813871));
#955=CARTESIAN_POINT('',(-2.00000000000032,84.4206814839289,-2.79795234061919));
#956=CARTESIAN_POINT('',(1.99999999999968,84.4206814839289,-2.79795234061944));
#957=CARTESIAN_POINT('',(-2.00000000000033,84.2362748326485,-3.37657785813845));
#958=CARTESIAN_POINT('',(-2.00000000000017,84.4206814839289,-3.11665009192309));
#959=CARTESIAN_POINT('',(-2.00000000000032,84.4206814839289,-2.79795234061919));
#960=CARTESIAN_POINT('',(1.99999999999967,84.2362748326485,-3.37657785813871));
#961=CARTESIAN_POINT('',(1.99999999999983,84.4206814839289,-3.11665009192335));
#962=CARTESIAN_POINT('',(1.99999999999968,84.4206814839289,-2.79795234061944));
#963=CARTESIAN_POINT('',(-2.00000000000031,84.2206814839289,-2.30004796218507));
#964=CARTESIAN_POINT('',(-2.00000000000031,84.1936754849491,-2.30004859964485));
#965=CARTESIAN_POINT('',(-2.00000000000031,84.1666694859692,-2.30004923710464));
#966=CARTESIAN_POINT('',(-2.00000000000028,83.5833347429845,-2.30002303787042));
#967=CARTESIAN_POINT('',(-2.00000000000025,82.9999999999998,-2.29999683863619));
#968=CARTESIAN_POINT('',(-2.00000000000024,82.9330343736591,-2.2999984193181));
#969=CARTESIAN_POINT('',(-2.00000000000023,82.8660687473185,-2.3));
#970=CARTESIAN_POINT('',(1.99999999999969,84.2206814839289,-2.30004796218507));
#971=CARTESIAN_POINT('',(1.99999999999969,84.1936754849492,-2.30004859964485));
#972=CARTESIAN_POINT('',(1.99999999999969,84.1666694859695,-2.30004923710464));
#973=CARTESIAN_POINT('',(1.99999999999972,83.5833347429847,-2.30002303787042));
#974=CARTESIAN_POINT('',(1.99999999999975,82.9999999999999,-2.2999968386362));
#975=CARTESIAN_POINT('',(1.99999999999977,82.9330343736592,-2.2999984193181));
#976=CARTESIAN_POINT('',(1.99999999999979,82.8660687473185,-2.3));
#977=CARTESIAN_POINT('',(-2.00000000000031,84.2206814839289,-2.30004796218507));
#978=CARTESIAN_POINT('',(1.99999999999969,84.2206814839289,-2.30004796218507));
#979=CARTESIAN_POINT('',(-2.00000000000032,84.4206814839289,-2.5));
#980=CARTESIAN_POINT('',(1.99999999999969,84.4206814839289,-2.50000000000001));
#981=CARTESIAN_POINT('',(1.99999999999969,84.4206814839289,-2.50000000000001));
#982=CARTESIAN_POINT('',(1.99999999999968,84.4206814839289,-2.30002398109255));
#983=CARTESIAN_POINT('',(1.99999999999969,84.2206814839289,-2.30004796218507));
#984=CARTESIAN_POINT('',(-2.00000000000032,84.4206814839289,-2.5));
#985=CARTESIAN_POINT('',(-2.00000000000032,84.4206814839289,-2.30002398109254));
#986=CARTESIAN_POINT('',(-2.00000000000031,84.2206814839289,-2.30004796218507));
#987=CARTESIAN_POINT('',(0.,0.,0.));
ENDSEC;
END-ISO-10303-21;
